<svg id="Layer_1" data-name="Layer 1" xmlns="http://www.w3.org/2000/svg" viewBox="0 0 738 186"><defs><style>.cls-1{fill:red;}.cls-2,.cls-3{fill:#fff;}.cls-3{font-size:110.29px;font-family:Calibri-Bold, Calibri;font-weight:700;}.cls-4{letter-spacing:-0.01em;}.cls-5{letter-spacing:0em;}</style></defs><rect class="cls-1" width="738" height="186"/><path class="cls-2" d="M568.53,48.92a58.47,58.47,0,0,1,10.73-13.19c2.39-2.23,5.33-4.48,7.92-6.47,1.79-1.34,3.55-3,5.34-4.31,3.73-2.69,8.16-4.13,12.34-6,4.27-1.68,8.76-2.5,13.21-3.51,6.52-2.3,13.55-1.94,20.35-1.63,1.94.16,4.9.28,6.83.39a53.08,53.08,0,0,1,19.52,6,.55.55,0,0,1-.42,1,132.85,132.85,0,0,0-12.91-3.42c-4.37-.7-8.67-2.06-13.12-2.22a72.9,72.9,0,0,0-13.28.79c-2.2.38-4.46.28-6.66.58A35.83,35.83,0,0,0,612,18.84c-1.83.6-4.41,1.64-6.25,2.31l-3,1.35a60,60,0,0,0-5.83,3.18c-1.9,1.16-4,2-5.92,3.05a34.56,34.56,0,0,0-5.54,3.75,121.51,121.51,0,0,0-16,17.05.54.54,0,0,1-.9-.61Z"/><path class="cls-2" d="M691.8,39.2c24.87,25.36,27.51,63.68,11,94.34-9.2,16.3-25.11,28.64-42.71,34.68a86.91,86.91,0,0,1-27.55,4.12c-26.68.87-51.65-15.28-66-37.08a74.23,74.23,0,0,1-9.58-58.71.54.54,0,0,1,.66-.39.55.55,0,0,1,.4.63c-8.22,42.31,19.18,85.21,62.3,92.26a67.2,67.2,0,0,0,34.39-1.3,76.58,76.58,0,0,0,40.17-27.48,95.2,95.2,0,0,0,10.48-16.75c7-15.09,7.91-32.62,4.06-48.69A81.67,81.67,0,0,0,691,39.94a.55.55,0,0,1,.8-.74Z"/><path class="cls-2" d="M691.28,37.66c.67-5.45.47-11.14-1.74-16.21-.84-2.15-1.33-2.3-3.24-1.06-1.41,1.14-.24,3.19-1.33,4.59s-3.32.66-4.57,1.74c-1.07,1.09-.79,2.79,0,4,2.6,3.56,5.87,7.37,10.17,8.76.2,0,.28-.06.37-.29a10.86,10.86,0,0,0,.32-1.57.21.21,0,0,1,.24-.17.23.23,0,0,1,.17.22,8.1,8.1,0,0,1-.2,1.71,1,1,0,0,1-.8.73,1.81,1.81,0,0,1-1-.16c-3.24-1.1-5.87-3.5-8-6.05-1.81-2-4.35-5.37-1.85-7.86,1.21-1.2,3.62-.4,4.56-1.55.57-.71.35-1.9.57-3.06s1.45-2,2.54-2.35c1.43-.58,2.15,1.1,2.52,2.13a29.75,29.75,0,0,1,1,3.19,35.93,35.93,0,0,1,.63,13.27.21.21,0,0,1-.41-.05Z"/><path class="cls-2" d="M679.69,30.78c-1.29-.89-2.77-1.91-4.4-1.65s-2.72,1.79-1.8,3.37c.51,1.1,1.56,2.09,1.64,3.42s-1.46,2.23-1.91,3.22a2.85,2.85,0,0,0-.14,2.16c1.28,3.13,5.55,2.6,8,1,2.74-1.57,6.07-4.05,9.44-2.75a.2.2,0,0,1,.11.27.22.22,0,0,1-.24.12c-3.34-.73-6.07,1.64-8.84,3.2-2.8,1.83-7.8,2.24-9.17-1.6a3.58,3.58,0,0,1,.26-2.67c.43-.85,1.21-1.32,1.64-1.92,1.22-1.91-1.49-3.56-1.55-5.51a2.75,2.75,0,0,1,2.51-2.68c1.76-.26,3.32.78,4.69,1.7a.21.21,0,0,1-.23.34Z"/><path class="cls-2" d="M682,25.46a3.25,3.25,0,0,0-1.85-1.26,6,6,0,0,0-2.28-.1,3.86,3.86,0,0,0-2.79,1.28,4.68,4.68,0,0,0-.7,2.11,2.49,2.49,0,0,0,.1,1.62,3.77,3.77,0,0,1,2.89.09l2.19,1.1s-1-4,2.26-4.57"/><path class="cls-2" d="M687.77,19.38a3.5,3.5,0,0,0-3.88-1.75,20.67,20.67,0,0,1-2.31.8,15.83,15.83,0,0,1-2.46.07,4.21,4.21,0,0,0-3.61,6.3c.11.21-.19.42-.34.24-1.93-2-1.09-5.61,1.4-6.77,1.54-.9,3.35-.27,4.93-.39a19.06,19.06,0,0,0,2.29-.67,4,4,0,0,1,4.35,2,.21.21,0,0,1-.37.19Z"/><path class="cls-2" d="M672.64,42.36A7.74,7.74,0,0,1,669,32c1-1.94.13-3.69.49-5.78s2.63-4,4.81-3.31a.21.21,0,0,1-.08.4,3.71,3.71,0,0,0-3.78,3.11c-.32,1.33.23,3-.2,4.43s-1.38,2.67-1.48,4.15a6.92,6.92,0,0,0,4,7c.25.09.09.5-.16.38Z"/><path class="cls-2" d="M708.07,119.6l-.14,0a.48.48,0,0,1-.32-.61c4.3-14.2,2.44-31.95-4.63-44.17a.49.49,0,1,1,.85-.49c7.19,12.44,9.08,30.5,4.71,44.94A.5.5,0,0,1,708.07,119.6Z"/><path class="cls-2" d="M705.14,77.39a6,6,0,0,0-3.15-6,.58.58,0,0,0-.47-.09.57.57,0,0,0-.25.28,3.28,3.28,0,0,0,.46,2.93A5.27,5.27,0,0,0,705,77.34"/><path class="cls-2" d="M705.14,77.88h-.07a.3.3,0,0,1-.16-.05h0c-1.38-.26-2.59-1.31-3.6-3.12-.76-1.37-.92-2.47-.48-3.38a.91.91,0,0,1,1.38-.42,6.54,6.54,0,0,1,3.41,6.56A.49.49,0,0,1,705.14,77.88Zm-3.43-6.14a2.84,2.84,0,0,0,.45,2.48,5.09,5.09,0,0,0,2.55,2.54,5.56,5.56,0,0,0-2.94-5Z"/><path class="cls-2" d="M709.34,91.23a.48.48,0,0,1-.46-.33,21.55,21.55,0,0,0-6.06-9.16.48.48,0,0,1,0-.69.49.49,0,0,1,.68,0,22.62,22.62,0,0,1,6.34,9.58.49.49,0,0,1-.3.62A.47.47,0,0,1,709.34,91.23Z"/><path class="cls-2" d="M705,82.85a.41.41,0,0,0,.06-.36,3.25,3.25,0,0,0-.67-1.2,9.87,9.87,0,0,0-1.58-1.71,3.16,3.16,0,0,0-2.16-.74.66.66,0,0,0-.31.09c-.27.17-.25.57-.16.88a4.81,4.81,0,0,0,4.64,3.4"/><path class="cls-2" d="M704.68,83.69a5.28,5.28,0,0,1-5-3.75,1.19,1.19,0,0,1,.37-1.42,1.15,1.15,0,0,1,.52-.16,3.64,3.64,0,0,1,2.51.83,9.7,9.7,0,0,1,1.66,1.8,3.49,3.49,0,0,1,.76,1.4.81.81,0,0,1-.18.79l0,0a.49.49,0,0,1-.47.46Zm-3.82-4.37h-.17l-.1,0a2.74,2.74,0,0,0,0,.32,4.35,4.35,0,0,0,3.89,3,.61.61,0,0,1,.05-.12,2.83,2.83,0,0,0-.58-1A9.25,9.25,0,0,0,702.51,80,2.75,2.75,0,0,0,700.86,79.32Z"/><path class="cls-2" d="M712.7,86.64h0a.47.47,0,0,1-.45-.51,130.39,130.39,0,0,0-2.39-35,.47.47,0,0,1,.37-.57.5.5,0,0,1,.58.38,131,131,0,0,1,2.41,35.23A.49.49,0,0,1,712.7,86.64Z"/><path class="cls-2" d="M711.05,55.42c-1.12-.34-1.66-1.52-2.08-2.6a10.55,10.55,0,0,1-.53-3.45c0-.69,0-1.52.64-1.89a1.37,1.37,0,0,1,1.64.33,3.39,3.39,0,0,1,.74,1.63,14,14,0,0,1,.17,5.29c0,.33-.25.77-.58.69"/><path class="cls-2" d="M711.12,55.92a.57.57,0,0,1-.18,0h0c-1.27-.4-1.9-1.63-2.39-2.9a10.69,10.69,0,0,1-.55-3.6,2.46,2.46,0,0,1,.86-2.32,1.85,1.85,0,0,1,2.25.4,3.81,3.81,0,0,1,.86,1.86,14.59,14.59,0,0,1,.18,5.47,1.44,1.44,0,0,1-.53,1A.79.79,0,0,1,711.12,55.92Zm-1.48-8.11a.55.55,0,0,0-.31.08c-.39.24-.41,1-.4,1.47a9.81,9.81,0,0,0,.49,3.28c.36.93.81,1.94,1.65,2.27a.66.66,0,0,0,.08-.26,13.46,13.46,0,0,0-.17-5.1,2.91,2.91,0,0,0-.61-1.41A1.08,1.08,0,0,0,709.64,47.81Z"/><path class="cls-2" d="M713.12,77.67H713a.49.49,0,0,1-.4-.56,109.94,109.94,0,0,0,1.52-21.2.49.49,0,0,1,.48-.5.5.5,0,0,1,.49.47,111,111,0,0,1-1.53,21.39A.48.48,0,0,1,713.12,77.67Z"/><path class="cls-2" d="M714.54,57.63a6.46,6.46,0,0,1-.31-5.7c.16-.36.44-.77.84-.75a.89.89,0,0,1,.64.45,4.64,4.64,0,0,1,.58,3c-.07,1.27-.44,2.76-1.64,3.17"/><path class="cls-2" d="M714.65,58.24a.45.45,0,0,1-.41-.23.53.53,0,0,1-.12-.14,6.93,6.93,0,0,1-.34-6.13c.31-.7.75-1.06,1.31-1a1.31,1.31,0,0,1,1,.65,5.07,5.07,0,0,1,.66,3.27c-.1,1.93-.8,3.21-2,3.6A.41.41,0,0,1,714.65,58.24Zm.39-6.57c-.08,0-.24.16-.37.46a6,6,0,0,0,.16,5,3.46,3.46,0,0,0,1-2.56,4.31,4.31,0,0,0-.48-2.66c-.13-.19-.24-.24-.28-.24Z"/><path class="cls-2" d="M706,123.3c2.2-6.37,3.2-14.06-.81-19.92-1.29-1.94-3.32-3.36-4.15-5.67h.71a36.45,36.45,0,0,0-1.59,6.58c-1.25,7.12,5.24,12.29,6.24,19a.2.2,0,0,1-.4.08,26.39,26.39,0,0,0-2.75-6.17c-4.77-7.7-5.29-11.15-2.21-19.76a.38.38,0,0,1,.71,0c.69,2.11,2.65,3.58,3.93,5.59a16.62,16.62,0,0,1,2.42,6.59c.75,4.65-.29,9.36-1.71,13.78a.21.21,0,0,1-.39-.13Z"/><path class="cls-2" d="M710.59,110.92c.59-9.84,3.55-20.48,11.77-26.67a.36.36,0,0,1,.58.26c.6,5.12.59,10.59-1.77,15.33C719,104.68,713.7,107,711,111.36a.21.21,0,0,1-.29.08.21.21,0,0,1-.08-.27c2.32-4.71,7.52-7,9.7-11.75,2.27-4.56,2.37-9.84,1.91-14.84l.58.26c-8.23,5.89-11.31,16.38-11.8,26.1,0,.27-.44.25-.41,0Z"/><path class="cls-2" d="M558.6,77c2.59,1.22,5.31-.6,7.25-2.27a9.6,9.6,0,0,0,3.74-6.94,12.78,12.78,0,0,0-.77-5.3l.91.19A4.67,4.67,0,0,1,567.11,64a8.46,8.46,0,0,0-5.83,4.11,36.73,36.73,0,0,0-2.35,4.55c-.68,1.4-1.43,3.13-.27,4.41a.29.29,0,0,1-.37.45c-1.75-1.24-1.15-3.73-.47-5.33a24.31,24.31,0,0,1,2.32-4.83,10.63,10.63,0,0,1,4.06-3.75C566,62.69,568,63,568.94,62c1.53-1.3,1.63,5.14,1.44,5.91a10.73,10.73,0,0,1-4.15,7.31c-2.1,1.78-5.07,3.62-7.88,2.34a.29.29,0,1,1,.25-.52Z"/><path class="cls-2" d="M558.08,77.32A9.89,9.89,0,0,1,552.38,67c.71-4.29,4.49-7,7.14-10a.68.68,0,0,1,.79-.17,7.09,7.09,0,0,1,3.21,3.17,7.33,7.33,0,0,1,.91,4.27.3.3,0,0,1-.34.25.31.31,0,0,1-.25-.26,8.47,8.47,0,0,0-1.36-3.65A6.85,6.85,0,0,0,559.76,58l.79-.17c-2.64,3-6.42,5.25-7.4,9.28s1.55,8.09,5.18,9.69a.29.29,0,1,1-.25.52Z"/><path class="cls-2" d="M559.92,56.85c3.84-1.26,9.08.84,9.57,5.23a.21.21,0,0,1-.39.12c-1.76-3.39-5-6.38-9.06-5a.2.2,0,1,1-.12-.39Z"/><path class="cls-2" d="M564.14,64.45A10,10,0,0,0,563,59.68a3.92,3.92,0,0,1,2.86.67,5.25,5.25,0,0,1,1.67,3,12.23,12.23,0,0,0-3.06.91"/><path class="cls-2" d="M570.5,139.28c-6.39-9.63-5.87-22.67,0-32.43.19-.33.72,0,.53.29-5.22,9.81-5.79,22.15,0,31.85.19.29-.28.59-.47.29Z"/><path class="cls-2" d="M566.21,121a11.39,11.39,0,0,1,4.88-15.39.38.38,0,0,1,.54.27c.53,2.72,1,5.57.16,8.31s-3.54,4.24-5,6.5a.21.21,0,0,1-.37-.19c1.1-2.54,3.73-3.93,4.49-6.61.81-2.52.39-5.27,0-7.87l.54.27a10.54,10.54,0,0,0-4.85,14.52.2.2,0,1,1-.36.19Z"/><path class="cls-2" d="M567.52,135.4a41.85,41.85,0,0,1-18.46-23.86.3.3,0,0,1,.57-.21c2.78,7,6.55,13.81,12.26,18.88,1.87,1.69,3.9,3.22,6,4.74.28.2,0,.66-.32.45Z"/><path class="cls-2" d="M556.17,124.58c.69-5.34-1.91-11.48-7.32-13.18l.47-.3c-.23,4.35.59,9.3,3.67,12.56a6.65,6.65,0,0,0,3.84,2,.21.21,0,0,1,0,.41c-3.35.11-6-2.79-7-5.72a19.66,19.66,0,0,1-1.15-9.29.36.36,0,0,1,.47-.29A10.25,10.25,0,0,1,552.7,113c3.14,2.94,4.28,7.46,3.88,11.63a.21.21,0,0,1-.41,0Z"/><path class="cls-2" d="M722.1,85.38c-2.65,7.6-5.38,15.46-10.5,21.78a.21.21,0,0,1-.34-.23c2.83-5.33,6.13-10.38,8.41-16,.75-1.87,1.46-3.75,2-5.68.07-.26.49-.14.39.12Z"/><path class="cls-2" d="M701.42,98.26a24.85,24.85,0,0,0,.67,3c1.15,2.88,2.64,5.65,3.47,8.67a27,27,0,0,1,.94,12.42.21.21,0,0,1-.41,0c-.11-6.14-.63-12.37-3.17-18a18.62,18.62,0,0,1-1.6-4.41,7.94,7.94,0,0,0-.27-1.46c-.13-.24.26-.44.37-.18Z"/><path class="cls-2" d="M705.26,42.27c.06-5.72-1.48-11.87-5.92-15.48a47.16,47.16,0,0,0-1.73,13.86,23.11,23.11,0,0,0,4.46,13.07l-.34-.81C704.44,50.21,705.22,46.11,705.26,42.27Zm-4-3.29a49.14,49.14,0,0,0-.48-6.23c-.22-1.69-.46-2.81-.46-2.81a.19.19,0,0,1,.15-.24.2.2,0,0,1,.25.16h0s.19,1.13.46,2.82.57,4,.81,6.25c.11,1.14.21,2.29.23,3.36s0,2.08,0,2.94a17.64,17.64,0,0,1-.23,2.07c-.08.5-.15.78-.15.78a.2.2,0,0,1-.25.16.21.21,0,0,1-.16-.18s-.12-1.15-.13-2.85S701.3,41.25,701.25,39Z"/><path class="cls-2" d="M686.93,49.22a22.37,22.37,0,0,0,18.89,13A22.65,22.65,0,0,0,686.93,49.22Zm14.6,9.58a.18.18,0,0,1-.22,0,16.11,16.11,0,0,1-1.91-1.13c-.56-.37-1.18-.83-1.85-1.32s-1.37-1-2.09-1.53a44.17,44.17,0,0,0-4.06-2.67c-1.14-.67-1.94-1.06-1.94-1.06a.2.2,0,0,1-.1-.28.21.21,0,0,1,.28-.09h0s.77.44,2,1.07l4.26,2.41c.77.45,1.54.9,2.23,1.38A21.35,21.35,0,0,1,699.94,57a12,12,0,0,1,1.62,1.55A.21.21,0,0,1,701.53,58.8Z"/><path class="cls-2" d="M706,62.26l-.18,0c.06.12.12.24.17.36Z"/><path class="cls-2" d="M688,149.07c8.1-7.86,10.77-19.92,8.29-30.75-.09-.37.5-.53.59-.15a31.89,31.89,0,0,1-3.09,24.74,28.26,28.26,0,0,1-5.41,6.56c-.26.23-.64-.16-.38-.4Z"/><path class="cls-2" d="M697,132.62a10.54,10.54,0,0,0-.89-15.28l.6-.13c-1.63,3.53-3.14,7.69-1,11.29a12.52,12.52,0,0,1,1.5,3.87.2.2,0,0,1-.17.23.22.22,0,0,1-.23-.14A18.24,18.24,0,0,0,695,128.9c-2.54-3.71-.91-8.41,1-12a.37.37,0,0,1,.59-.13,11.35,11.35,0,0,1,.69,16.14c-.18.2-.49-.09-.3-.28Z"/><path class="cls-2" d="M697.93,139.79c5.64-10.54,11.83-18.7,23.86-22.08a.3.3,0,0,1,.18.57,36.3,36.3,0,0,0-19.07,14.83c-1.56,2.27-3,4.62-4.5,7-.18.29-.66,0-.47-.28Z"/><path class="cls-2" d="M709,125.05a11.41,11.41,0,0,1,14.11-7.86.37.37,0,0,1,.21.56,31,31,0,0,1-2.38,3.4,9.17,9.17,0,0,1-7.33,3.75,18.18,18.18,0,0,0-4,.29.21.21,0,0,1-.25-.15.22.22,0,0,1,.12-.24,12.94,12.94,0,0,1,4.08-.75c4.21,0,7-3.47,9.12-6.71l.2.57a10.43,10.43,0,0,0-13.48,7.25.21.21,0,0,1-.4-.11Z"/><path class="cls-2" d="M545.84,71a33.26,33.26,0,0,0,9.74,28.22l-.08-1.35A30.78,30.78,0,0,0,545.84,71Zm8,23.6a.22.22,0,0,1-.22-.13s-.48-1.23-1-3.11l-2-6.9a68.3,68.3,0,0,0-2.4-6.79c-.73-1.83-1.3-3-1.3-3a.21.21,0,0,1,.1-.28.2.2,0,0,1,.27.1h0l1.3,3c.76,1.82,1.76,4.25,2.71,6.71.46,1.24.92,2.47,1.28,3.65s.71,2.29.92,3.25a22.36,22.36,0,0,1,.57,3.26A.2.2,0,0,1,553.85,94.55Z"/><path class="cls-2" d="M567.26,82.48a26,26,0,0,0-9.07,29l-.11-.39c2-3,4-6,5.8-9.16a28.53,28.53,0,0,0,3.37-7.47C568.22,90.53,567.74,86.46,567.26,82.48Zm-1.49,4.38h0l-.41.7c-.26.44-.59,1.08-1,1.87s-.82,1.71-1.22,2.73-.78,2.12-1.11,3.24-.61,2.25-.89,3.3-.47,2.05-.67,2.9c-.38,1.7-.72,2.83-.72,2.83a.21.21,0,0,1-.41,0s0-.3,0-.82a16.1,16.1,0,0,1,.21-2.14,26.85,26.85,0,0,1,.67-3,33.58,33.58,0,0,1,1.1-3.3c.87-2.2,1.85-4.34,2.66-5.91s1.39-2.59,1.39-2.59a.21.21,0,0,1,.28-.09A.2.2,0,0,1,565.77,86.86Z"/><path class="cls-2" d="M583.15,132.38a42,42,0,0,0,.44,13.7,20.87,20.87,0,0,0,6.84,11.65l.36.2A36.7,36.7,0,0,0,583.15,132.38Zm6.75,21.55a.23.23,0,0,1-.22-.1,18.54,18.54,0,0,1-1.18-2.54c-.32-.77-.62-1.7-.93-2.7s-.61-2.07-.91-3.14l-1.54-5.93c-.41-1.62-.71-2.69-.71-2.69a.2.2,0,0,1,.14-.25.21.21,0,0,1,.26.14h0s.24,1.09.7,2.69,1.09,3.73,1.85,5.81c.37,1.05.77,2.08,1.09,3.07s.67,1.89.91,2.69a24,24,0,0,1,.7,2.69A.21.21,0,0,1,589.9,153.93Z"/><path class="cls-2" d="M596.72,162.77a32,32,0,0,0-22.81-2.85,23.94,23.94,0,0,0,24.76,3.58Zm-3.91.65h0l-2.37-.09c-1.41-.07-3.3-.2-5.19-.38-1-.11-1.89-.22-2.77-.4a21.36,21.36,0,0,1-2.37-.56,11.62,11.62,0,0,1-2.21-.87.21.21,0,0,1-.09-.29.23.23,0,0,1,.2-.11,21.43,21.43,0,0,1,2.33.39c1.37.28,3.18.74,5,1.11a34.13,34.13,0,0,0,5.11.71c1.4.11,2.35.08,2.35.08a.22.22,0,0,1,.21.2A.2.2,0,0,1,592.81,163.42Z"/><path class="cls-2" d="M690.84,39.52a66,66,0,0,1-2.11-10.24c-.66-2.82.7-7.91-2.86-8.93a.16.16,0,0,1,0-.31c4.33.49,3,6.19,3.38,9.19a44.83,44.83,0,0,0,1.87,10.2.16.16,0,0,1-.3.09Z"/><path class="cls-2" d="M681.76,26c-.26,2.82,2.06,5.11,3.6,7.26a55.56,55.56,0,0,0,5.72,6.06c.13.12,0,.35-.18.25a19.61,19.61,0,0,1-6-6c-1.44-2.37-3.67-4.66-3.47-7.63a.16.16,0,0,1,.31,0Z"/><path class="cls-2" d="M673.45,32.56c3-.87,5.09,2.12,7.62,3.12,2.47,1.27,5.12,2.19,7.51,3.64a.15.15,0,0,1-.12.28,38.44,38.44,0,0,1-7.66-3.44c-1.86-1-3.3-2.65-5.27-3.33a3,3,0,0,0-2,0c-.18.08-.3-.22-.11-.29Z"/><path class="cls-2" d="M675.5,41.07h-.08a4.16,4.16,0,0,1-3-1.13.36.36,0,0,1,0-.51.37.37,0,0,1,.52,0,3.54,3.54,0,0,0,2.45.91,12.84,12.84,0,0,0,2.62-.38l.23-.06a34.1,34.1,0,0,1,9.87-1,.36.36,0,0,1,.33.39.35.35,0,0,1-.39.34,33,33,0,0,0-9.65.95l-.23.05A12.85,12.85,0,0,1,675.5,41.07Z"/><path class="cls-2" d="M633.67,70a11.26,11.26,0,0,1-.89,4.57,9.41,9.41,0,0,1-2.51,3.38,11.25,11.25,0,0,1-3.9,2.11,16.4,16.4,0,0,1-5.06.73,20.36,20.36,0,0,1-2.77-.18,18.74,18.74,0,0,1-2.37-.47,11.83,11.83,0,0,1-1.71-.56,3.46,3.46,0,0,1-.88-.46,1.17,1.17,0,0,1-.31-.4,3,3,0,0,1-.15-.52,6.31,6.31,0,0,1-.09-.77c0-.31,0-.68,0-1.1s0-.84,0-1.16a3.69,3.69,0,0,1,.16-.76,1,1,0,0,1,.26-.42.52.52,0,0,1,.34-.12,1.72,1.72,0,0,1,.74.28,11.3,11.3,0,0,0,1.32.62,12,12,0,0,0,4.79.9,10.26,10.26,0,0,0,2.57-.29,5,5,0,0,0,2-.94,4.34,4.34,0,0,0,1.24-1.62,5.71,5.71,0,0,0,.44-2.34,5.43,5.43,0,0,0-.37-2.08,3.78,3.78,0,0,0-1.14-1.55,5.42,5.42,0,0,0-2-1,12.55,12.55,0,0,0-3-.31,22.37,22.37,0,0,0-2.57.14,16.89,16.89,0,0,1-2.18.15,1.3,1.3,0,0,1-1-.35,2.1,2.1,0,0,1-.3-1.31V50.52a2,2,0,0,1,.38-1.4,1.54,1.54,0,0,1,1.2-.43h14.94a.67.67,0,0,1,.41.15,1.12,1.12,0,0,1,.33.46,3.46,3.46,0,0,1,.2.84,11.31,11.31,0,0,1,.06,1.26,6.36,6.36,0,0,1-.26,2.12c-.17.44-.42.66-.74.66H619.56v6.74c.57-.06,1.13-.1,1.69-.12l1.77,0a16.07,16.07,0,0,1,4.54.59,9.09,9.09,0,0,1,3.34,1.76A7.47,7.47,0,0,1,633,66,10.48,10.48,0,0,1,633.67,70Z"/><path class="cls-2" d="M659,77.78a7.53,7.53,0,0,1-.08,1.16,2.81,2.81,0,0,1-.21.76,1.1,1.1,0,0,1-.3.4.65.65,0,0,1-.39.12h-17.4a.62.62,0,0,1-.36-.12,1,1,0,0,1-.3-.4,2.81,2.81,0,0,1-.21-.76,7.53,7.53,0,0,1-.08-1.16,9.47,9.47,0,0,1,.07-1.18,2.79,2.79,0,0,1,.19-.77,1.09,1.09,0,0,1,.31-.42.59.59,0,0,1,.38-.14h5.88V54.76l-5.07,2.8a3.67,3.67,0,0,1-.91.33.59.59,0,0,1-.56-.15,1.21,1.21,0,0,1-.29-.71,12.81,12.81,0,0,1-.07-1.44q0-.59,0-1a2,2,0,0,1,.12-.65,1.09,1.09,0,0,1,.27-.44,2.84,2.84,0,0,1,.46-.36l6.77-4.39a1,1,0,0,1,.31-.16,2.31,2.31,0,0,1,.47-.09,5.2,5.2,0,0,1,.77,0l1.23,0c.62,0,1.12,0,1.5,0a5.33,5.33,0,0,1,.86.12.7.7,0,0,1,.39.23.62.62,0,0,1,.1.37v26H658a.65.65,0,0,1,.4.14,1.11,1.11,0,0,1,.32.42,2.79,2.79,0,0,1,.19.77A9.47,9.47,0,0,1,659,77.78Z"/><path class="cls-2" d="M611.54,107.12a12.28,12.28,0,0,1-.83,4.7,8.93,8.93,0,0,1-2.41,3.45,10.69,10.69,0,0,1-3.88,2.13,17.91,17.91,0,0,1-5.42.73h-2.63v10.06a.7.7,0,0,1-.16.44,1.12,1.12,0,0,1-.53.32,4.61,4.61,0,0,1-1,.19,15.15,15.15,0,0,1-3.11,0,4.58,4.58,0,0,1-1-.19,1,1,0,0,1-.52-.32.74.74,0,0,1-.14-.44V99.83a2.29,2.29,0,0,1,.59-1.71,2.21,2.21,0,0,1,1.58-.58h7.43q1.11,0,2.13.09a22.62,22.62,0,0,1,2.42.37A10.69,10.69,0,0,1,607,99a8.69,8.69,0,0,1,2.47,1.91,8.18,8.18,0,0,1,1.56,2.71A10.76,10.76,0,0,1,611.54,107.12Zm-6.7.46a5.69,5.69,0,0,0-.58-2.73,4,4,0,0,0-1.44-1.58,4.78,4.78,0,0,0-1.79-.65,15.16,15.16,0,0,0-1.94-.13h-2.72v10.7h2.87a6.88,6.88,0,0,0,2.57-.42,4.3,4.3,0,0,0,1.69-1.15,4.93,4.93,0,0,0,1-1.78A7.09,7.09,0,0,0,604.84,107.58Z"/><path class="cls-2" d="M637.69,117.16a16.56,16.56,0,0,1-.74,5.07,10.58,10.58,0,0,1-2.21,3.94,9.83,9.83,0,0,1-3.73,2.56,14,14,0,0,1-5.24.9,14.48,14.48,0,0,1-5-.8,9.15,9.15,0,0,1-3.56-2.34,9.52,9.52,0,0,1-2.09-3.78,17.36,17.36,0,0,1-.69-5.11,16.27,16.27,0,0,1,.75-5.08,10.64,10.64,0,0,1,2.23-4,9.92,9.92,0,0,1,3.71-2.55,13.93,13.93,0,0,1,5.23-.9,14.83,14.83,0,0,1,5.07.79,8.94,8.94,0,0,1,3.54,2.33A9.63,9.63,0,0,1,637,112,17.43,17.43,0,0,1,637.69,117.16Zm-6.31.24a16,16,0,0,0-.26-3,6.91,6.91,0,0,0-.87-2.35,4.19,4.19,0,0,0-1.62-1.56,5.22,5.22,0,0,0-2.54-.56,5.43,5.43,0,0,0-2.39.5,4.29,4.29,0,0,0-1.68,1.46,6.92,6.92,0,0,0-1,2.32,13,13,0,0,0-.33,3.08,15.14,15.14,0,0,0,.27,3,7.36,7.36,0,0,0,.87,2.35,4,4,0,0,0,1.62,1.55,5.35,5.35,0,0,0,2.53.54,5.46,5.46,0,0,0,2.41-.49,4.36,4.36,0,0,0,1.68-1.45,6.75,6.75,0,0,0,1-2.31A13.62,13.62,0,0,0,631.38,117.4Z"/><path class="cls-2" d="M659.15,122.23a6.38,6.38,0,0,1-.76,3.17,6.73,6.73,0,0,1-2.12,2.33,9.67,9.67,0,0,1-3.3,1.43,18.65,18.65,0,0,1-4.35.47,15.31,15.31,0,0,1-2.38-.18,18,18,0,0,1-2.11-.46,11.75,11.75,0,0,1-1.6-.59,5,5,0,0,1-.91-.53,1.57,1.57,0,0,1-.41-.47,2,2,0,0,1-.21-.52,4.31,4.31,0,0,1-.1-.72c0-.28,0-.63,0-1a5.61,5.61,0,0,1,0-.9,2.44,2.44,0,0,1,.13-.56.72.72,0,0,1,.21-.3.48.48,0,0,1,.29-.09,1.68,1.68,0,0,1,.82.31,13.91,13.91,0,0,0,1.26.66,15.24,15.24,0,0,0,1.88.67,9.89,9.89,0,0,0,2.67.31,7.08,7.08,0,0,0,1.88-.22,3.94,3.94,0,0,0,1.37-.62,2.72,2.72,0,0,0,.83-1,3.07,3.07,0,0,0,.28-1.31,2.67,2.67,0,0,0-.27-1.22,2.28,2.28,0,0,0-.89-.91,4.77,4.77,0,0,0-1.63-.57,13.35,13.35,0,0,0-2.48-.2H645a1.09,1.09,0,0,1-.52-.11.77.77,0,0,1-.31-.35,1.88,1.88,0,0,1-.16-.66,9.66,9.66,0,0,1,0-1,8.06,8.06,0,0,1,.05-.94,1.84,1.84,0,0,1,.16-.59.65.65,0,0,1,.29-.32.88.88,0,0,1,.45-.1h2.27a11.35,11.35,0,0,0,2.26-.19,4.5,4.5,0,0,0,1.56-.58,2.3,2.3,0,0,0,.89-.92,2.74,2.74,0,0,0,.28-1.28,2.44,2.44,0,0,0-.26-1.13,2.33,2.33,0,0,0-.76-.83,3.61,3.61,0,0,0-1.18-.49,6.63,6.63,0,0,0-1.52-.16,9,9,0,0,0-2.48.31,12.47,12.47,0,0,0-1.89.67c-.53.24-1,.46-1.32.65a1.86,1.86,0,0,1-.8.3.58.58,0,0,1-.26-.06.65.65,0,0,1-.24-.27,2,2,0,0,1-.17-.58,6.15,6.15,0,0,1-.06-1,6.83,6.83,0,0,1,.14-1.52,1.74,1.74,0,0,1,.44-.88,4.22,4.22,0,0,1,1.07-.68,11.16,11.16,0,0,1,1.8-.68,17,17,0,0,1,2.27-.5,16.07,16.07,0,0,1,2.52-.2,15.9,15.9,0,0,1,3.65.39,8.53,8.53,0,0,1,2.82,1.18,5.58,5.58,0,0,1,1.78,2,5.69,5.69,0,0,1,.62,2.7,5.53,5.53,0,0,1-1.12,3.32,6,6,0,0,1-1.31,1.24,6.07,6.07,0,0,1-1.76.82l0,.05a5.72,5.72,0,0,1,2,.59,6.11,6.11,0,0,1,1.61,1.17,5.43,5.43,0,0,1,1.1,1.64A5.09,5.09,0,0,1,659.15,122.23Z"/><path class="cls-2" d="M682.34,128.32a.65.65,0,0,1-.24.53,1.59,1.59,0,0,1-.77.28,9.79,9.79,0,0,1-1.54.09,10,10,0,0,1-1.6-.09,1.35,1.35,0,0,1-.71-.28.69.69,0,0,1-.2-.53v-1.73a10.23,10.23,0,0,1-3.06,2.24,9,9,0,0,1-3.81.8,10.62,10.62,0,0,1-3.18-.45,7.11,7.11,0,0,1-2.51-1.34,6,6,0,0,1-1.65-2.2,7.51,7.51,0,0,1-.58-3.07,7.06,7.06,0,0,1,.74-3.31,6.05,6.05,0,0,1,2.22-2.31,10.92,10.92,0,0,1,3.66-1.35,26.47,26.47,0,0,1,5.1-.44h2.12v-1.32a6.87,6.87,0,0,0-.21-1.79,3.15,3.15,0,0,0-.68-1.28,2.81,2.81,0,0,0-1.27-.75,6.85,6.85,0,0,0-2-.24,10,10,0,0,0-2.74.34,14.94,14.94,0,0,0-2.13.75c-.62.28-1.14.53-1.55.76a2.34,2.34,0,0,1-1,.34.76.76,0,0,1-.48-.17,1.3,1.3,0,0,1-.34-.49,3.36,3.36,0,0,1-.21-.78,7.91,7.91,0,0,1-.07-1,4.77,4.77,0,0,1,.12-1.2,1.85,1.85,0,0,1,.47-.79,4.65,4.65,0,0,1,1.19-.78,13.9,13.9,0,0,1,2-.79,19.53,19.53,0,0,1,2.5-.6,18.38,18.38,0,0,1,7.16.27,7.46,7.46,0,0,1,3,1.54,6,6,0,0,1,1.71,2.66,12.42,12.42,0,0,1,.53,3.88Zm-6-9.31H674a12.37,12.37,0,0,0-2.54.22,4.75,4.75,0,0,0-1.7.66,2.62,2.62,0,0,0-1,1.06,3.06,3.06,0,0,0-.31,1.42,2.74,2.74,0,0,0,.87,2.15,3.43,3.43,0,0,0,2.4.77,4.45,4.45,0,0,0,2.37-.65,9.93,9.93,0,0,0,2.21-1.93Z"/><path class="cls-2" d="M37.73,48.92A58.2,58.2,0,0,1,48.46,35.73c2.39-2.23,5.33-4.48,7.91-6.47,1.8-1.34,3.56-3,5.35-4.31,3.73-2.69,8.16-4.13,12.34-6,4.26-1.68,8.76-2.5,13.21-3.51,6.51-2.3,13.55-1.94,20.35-1.63,1.94.16,4.9.28,6.83.39a53.08,53.08,0,0,1,19.52,6,.55.55,0,0,1-.43,1,131.91,131.91,0,0,0-12.9-3.42c-4.37-.7-8.67-2.06-13.12-2.22a73.06,73.06,0,0,0-13.29.79c-2.19.38-4.45.28-6.65.58a35.6,35.6,0,0,0-6.42,1.81c-1.83.6-4.41,1.64-6.25,2.31l-3,1.35a58.74,58.74,0,0,0-5.82,3.18c-1.9,1.16-4,2-5.93,3.05a34.48,34.48,0,0,0-5.53,3.75,121.51,121.51,0,0,0-16,17.05.54.54,0,0,1-.9-.61Z"/><path class="cls-2" d="M161,39.2c24.87,25.36,27.51,63.68,11,94.34-9.21,16.3-25.11,28.64-42.72,34.68a86.85,86.85,0,0,1-27.54,4.12c-26.68.87-51.65-15.28-66-37.08a74.19,74.19,0,0,1-9.58-58.71.54.54,0,0,1,.66-.39.55.55,0,0,1,.4.63C19,119.1,46.37,162,89.49,169.05a67.2,67.2,0,0,0,34.39-1.3,76.58,76.58,0,0,0,40.17-27.48,94.57,94.57,0,0,0,10.47-16.75c7-15.09,7.92-32.62,4.07-48.69A81.78,81.78,0,0,0,160.2,39.94a.55.55,0,0,1,.8-.74Z"/><path class="cls-2" d="M160.48,37.66c.67-5.45.47-11.14-1.74-16.21-.84-2.15-1.33-2.3-3.24-1.06-1.41,1.14-.24,3.19-1.33,4.59s-3.32.66-4.57,1.74c-1.07,1.09-.79,2.79,0,4,2.6,3.56,5.87,7.37,10.18,8.76.2,0,.28-.06.37-.29a12.4,12.4,0,0,0,.32-1.57.21.21,0,0,1,.24-.17.23.23,0,0,1,.17.22,8.82,8.82,0,0,1-.2,1.71,1,1,0,0,1-.8.73,1.79,1.79,0,0,1-1-.16c-3.24-1.1-5.87-3.5-8-6.05-1.81-2-4.36-5.37-1.86-7.86,1.22-1.2,3.63-.4,4.57-1.55.57-.71.34-1.9.57-3.06s1.45-2,2.54-2.35c1.43-.58,2.15,1.1,2.52,2.13a27.62,27.62,0,0,1,1,3.19,36.15,36.15,0,0,1,.64,13.27.21.21,0,0,1-.41-.05Z"/><path class="cls-2" d="M148.89,30.78c-1.29-.89-2.78-1.91-4.4-1.65s-2.72,1.79-1.81,3.37c.52,1.1,1.57,2.09,1.65,3.42s-1.46,2.23-1.91,3.22a2.9,2.9,0,0,0-.15,2.16c1.29,3.13,5.55,2.6,8,1,2.75-1.57,6.08-4.05,9.45-2.75a.21.21,0,0,1,.11.27.22.22,0,0,1-.24.12c-3.34-.73-6.07,1.64-8.85,3.2-2.79,1.83-7.79,2.24-9.16-1.6a3.54,3.54,0,0,1,.26-2.67c.43-.85,1.21-1.32,1.63-1.92,1.23-1.91-1.48-3.56-1.54-5.51a2.75,2.75,0,0,1,2.51-2.68c1.76-.26,3.31.78,4.69,1.7a.21.21,0,0,1-.23.34Z"/><path class="cls-2" d="M151.17,25.46a3.24,3.24,0,0,0-1.86-1.26,6,6,0,0,0-2.27-.1,3.89,3.89,0,0,0-2.8,1.28,4.67,4.67,0,0,0-.69,2.11,2.55,2.55,0,0,0,.09,1.62,3.8,3.8,0,0,1,2.9.09l2.19,1.1s-1-4,2.26-4.57"/><path class="cls-2" d="M157,19.38a3.51,3.51,0,0,0-3.88-1.75,20.67,20.67,0,0,1-2.31.8,15.86,15.86,0,0,1-2.46.07,4.22,4.22,0,0,0-3.62,6.3.21.21,0,0,1-.33.24c-1.93-2-1.09-5.61,1.4-6.77,1.54-.9,3.35-.27,4.93-.39a19.61,19.61,0,0,0,2.29-.67,4.06,4.06,0,0,1,4.35,2,.21.21,0,0,1-.37.19Z"/><path class="cls-2" d="M141.84,42.36A7.74,7.74,0,0,1,138.2,32c1-1.94.13-3.69.49-5.78s2.63-4,4.81-3.31a.21.21,0,0,1-.09.4,3.7,3.7,0,0,0-3.77,3.11c-.32,1.33.23,3-.2,4.43S138.05,33.49,138,35a6.92,6.92,0,0,0,4,7c.25.09.09.5-.16.38Z"/><path class="cls-2" d="M177.27,119.6l-.14,0a.5.5,0,0,1-.33-.61c4.31-14.2,2.45-31.95-4.62-44.17a.5.5,0,0,1,.18-.67.49.49,0,0,1,.66.18c7.2,12.44,9.09,30.5,4.71,44.94A.48.48,0,0,1,177.27,119.6Z"/><path class="cls-2" d="M174.34,77.39a6,6,0,0,0-3.15-6,.58.58,0,0,0-.47-.09.53.53,0,0,0-.25.28,3.28,3.28,0,0,0,.46,2.93,5.25,5.25,0,0,0,3.27,2.88"/><path class="cls-2" d="M174.34,77.88h-.07a.3.3,0,0,1-.16-.05h0c-1.38-.26-2.59-1.31-3.6-3.12-.76-1.37-.92-2.47-.48-3.38a.91.91,0,0,1,1.38-.42,6.54,6.54,0,0,1,3.41,6.56A.49.49,0,0,1,174.34,77.88Zm-3.43-6.14a2.8,2.8,0,0,0,.45,2.48,5.11,5.11,0,0,0,2.54,2.54,5.53,5.53,0,0,0-2.93-5Z"/><path class="cls-2" d="M178.54,91.23a.47.47,0,0,1-.46-.33A21.48,21.48,0,0,0,172,81.74a.49.49,0,0,1,0-.69.5.5,0,0,1,.69,0A22.62,22.62,0,0,1,179,90.59a.49.49,0,0,1-.31.62A.39.39,0,0,1,178.54,91.23Z"/><path class="cls-2" d="M174.2,82.85a.41.41,0,0,0,.06-.36,3.14,3.14,0,0,0-.68-1.2A9.44,9.44,0,0,0,172,79.58a3.16,3.16,0,0,0-2.16-.74.66.66,0,0,0-.31.09c-.27.17-.25.57-.17.88a4.82,4.82,0,0,0,4.65,3.4"/><path class="cls-2" d="M173.88,83.69a5.28,5.28,0,0,1-5-3.75,1.19,1.19,0,0,1,.37-1.42,1.15,1.15,0,0,1,.52-.16,3.65,3.65,0,0,1,2.51.83A10.05,10.05,0,0,1,174,81a3.49,3.49,0,0,1,.76,1.4.81.81,0,0,1-.18.79l-.05,0a.47.47,0,0,1-.47.46Zm-3.82-4.37h-.17l-.1,0a2.74,2.74,0,0,0,.05.32,4.34,4.34,0,0,0,3.89,3,.61.61,0,0,1,.05-.12,2.83,2.83,0,0,0-.58-1A9.25,9.25,0,0,0,171.71,80,2.75,2.75,0,0,0,170.06,79.32Z"/><path class="cls-2" d="M181.89,86.64h0a.47.47,0,0,1-.45-.51,130,130,0,0,0-2.4-35,.49.49,0,0,1,.38-.57A.5.5,0,0,1,180,51a131,131,0,0,1,2.41,35.23A.49.49,0,0,1,181.89,86.64Z"/><path class="cls-2" d="M180.24,55.42c-1.11-.34-1.66-1.52-2.08-2.6a10.81,10.81,0,0,1-.52-3.45c0-.69,0-1.52.64-1.89a1.37,1.37,0,0,1,1.64.33,3.39,3.39,0,0,1,.74,1.63,14,14,0,0,1,.17,5.29c-.05.33-.25.77-.59.69"/><path class="cls-2" d="M180.32,55.92l-.18,0h0c-1.27-.4-1.9-1.63-2.39-2.9a10.69,10.69,0,0,1-.55-3.6,2.44,2.44,0,0,1,.86-2.32,1.85,1.85,0,0,1,2.25.4,3.81,3.81,0,0,1,.86,1.86,14.59,14.59,0,0,1,.18,5.47,1.48,1.48,0,0,1-.53,1A.79.79,0,0,1,180.32,55.92Zm-1.48-8.11a.55.55,0,0,0-.31.08c-.39.24-.42,1-.4,1.47a9.81,9.81,0,0,0,.49,3.28c.36.93.81,1.94,1.65,2.27a.89.89,0,0,0,.08-.26,13.46,13.46,0,0,0-.17-5.1,3,3,0,0,0-.61-1.41A1.08,1.08,0,0,0,178.84,47.81Z"/><path class="cls-2" d="M182.32,77.67h-.08a.48.48,0,0,1-.4-.56,109.94,109.94,0,0,0,1.52-21.2.48.48,0,0,1,.47-.5.5.5,0,0,1,.5.47,111.85,111.85,0,0,1-1.53,21.39A.48.48,0,0,1,182.32,77.67Z"/><path class="cls-2" d="M183.74,57.63a6.46,6.46,0,0,1-.31-5.7c.16-.36.43-.77.83-.75a.89.89,0,0,1,.65.45,4.7,4.7,0,0,1,.58,3c-.07,1.27-.44,2.76-1.64,3.17"/><path class="cls-2" d="M183.85,58.24a.48.48,0,0,1-.42-.23.76.76,0,0,1-.11-.14,6.93,6.93,0,0,1-.34-6.13c.3-.7.75-1.06,1.31-1a1.31,1.31,0,0,1,1,.65,5.07,5.07,0,0,1,.66,3.27c-.1,1.93-.8,3.21-2,3.6A.44.44,0,0,1,183.85,58.24Zm.39-6.57c-.08,0-.24.16-.37.46a6,6,0,0,0,.15,5,3.47,3.47,0,0,0,1-2.56,4.25,4.25,0,0,0-.49-2.66c-.13-.19-.23-.24-.27-.24Z"/><path class="cls-2" d="M175.15,123.3c2.19-6.37,3.2-14.06-.81-19.92-1.29-1.94-3.32-3.36-4.15-5.67h.71a37.34,37.34,0,0,0-1.6,6.58c-1.25,7.12,5.25,12.29,6.25,19a.2.2,0,0,1-.17.23.2.2,0,0,1-.23-.15,26.81,26.81,0,0,0-2.75-6.17c-4.77-7.7-5.29-11.15-2.21-19.76a.38.38,0,0,1,.71,0c.68,2.11,2.65,3.58,3.92,5.59a16.64,16.64,0,0,1,2.43,6.59c.75,4.65-.29,9.36-1.71,13.78a.21.21,0,0,1-.39-.13Z"/><path class="cls-2" d="M179.79,110.92c.59-9.84,3.55-20.48,11.77-26.67a.36.36,0,0,1,.58.26c.6,5.12.58,10.59-1.77,15.33-2.18,4.84-7.47,7.12-10.2,11.52a.2.2,0,0,1-.28.08.21.21,0,0,1-.08-.27c2.32-4.71,7.52-7,9.7-11.75,2.27-4.56,2.37-9.84,1.91-14.84l.58.26c-8.23,5.89-11.31,16.38-11.8,26.1,0,.27-.44.25-.41,0Z"/><path class="cls-2" d="M27.79,77c2.6,1.22,5.32-.6,7.26-2.27a9.63,9.63,0,0,0,3.74-6.94,12.94,12.94,0,0,0-.77-5.3l.91.19A4.67,4.67,0,0,1,36.3,64a8.47,8.47,0,0,0-5.82,4.11,35.42,35.42,0,0,0-2.35,4.55c-.68,1.4-1.43,3.13-.27,4.41a.29.29,0,0,1-.37.45c-1.76-1.24-1.15-3.73-.47-5.33a24.31,24.31,0,0,1,2.32-4.83,10.63,10.63,0,0,1,4.06-3.75c1.75-.92,3.81-.58,4.74-1.62,1.53-1.3,1.63,5.14,1.44,5.91a10.73,10.73,0,0,1-4.15,7.31c-2.1,1.78-5.07,3.62-7.88,2.34a.29.29,0,1,1,.24-.52Z"/><path class="cls-2" d="M27.28,77.32A9.91,9.91,0,0,1,21.57,67c.72-4.29,4.5-7,7.15-10a.68.68,0,0,1,.79-.17,7,7,0,0,1,3.2,3.17,7.18,7.18,0,0,1,.91,4.27.29.29,0,0,1-.33.25.31.31,0,0,1-.25-.26,8.47,8.47,0,0,0-1.36-3.65A6.85,6.85,0,0,0,29,58l.79-.17c-2.64,3-6.42,5.25-7.4,9.28s1.55,8.09,5.18,9.69c.35.15.09.71-.25.52Z"/><path class="cls-2" d="M29.11,56.85c3.85-1.26,9.09.84,9.58,5.23a.22.22,0,0,1-.4.12c-1.75-3.39-5-6.38-9-5a.21.21,0,0,1-.13-.39Z"/><path class="cls-2" d="M33.34,64.45a10.1,10.1,0,0,0-1.18-4.77,3.93,3.93,0,0,1,2.86.67,5.25,5.25,0,0,1,1.67,3,12.23,12.23,0,0,0-3.06.91"/><path class="cls-2" d="M39.7,139.28c-6.39-9.63-5.87-22.67,0-32.43.19-.33.72,0,.53.29C35,117,34.41,129.29,40.17,139a.28.28,0,0,1-.47.29Z"/><path class="cls-2" d="M35.4,121a11.41,11.41,0,0,1,4.89-15.39.38.38,0,0,1,.54.27c.52,2.72,1,5.57.16,8.31s-3.54,4.24-5,6.5a.22.22,0,0,1-.29.06.21.21,0,0,1-.08-.25c1.1-2.54,3.73-3.93,4.49-6.61.8-2.52.39-5.27,0-7.87l.54.27a10.53,10.53,0,0,0-4.85,14.52.21.21,0,0,1-.37.19Z"/><path class="cls-2" d="M36.72,135.4a41.81,41.81,0,0,1-18.46-23.86.3.3,0,0,1,.57-.21c2.78,7,6.55,13.81,12.26,18.88C33,131.9,35,133.43,37,135c.28.2,0,.66-.32.45Z"/><path class="cls-2" d="M25.37,124.58c.69-5.34-1.91-11.48-7.32-13.18l.46-.3c-.23,4.35.6,9.3,3.68,12.56a6.65,6.65,0,0,0,3.83,2,.21.21,0,0,1,0,.41c-3.35.11-6-2.79-7.06-5.72A19.78,19.78,0,0,1,17.81,111a.35.35,0,0,1,.47-.29A10.34,10.34,0,0,1,21.9,113c3.13,2.94,4.28,7.46,3.88,11.63a.21.21,0,0,1-.41,0Z"/><path class="cls-2" d="M191.3,85.38c-2.65,7.6-5.38,15.46-10.5,21.78a.21.21,0,0,1-.35-.23c2.84-5.33,6.14-10.38,8.42-16,.74-1.87,1.46-3.75,2-5.68a.2.2,0,0,1,.39.12Z"/><path class="cls-2" d="M170.62,98.26a24.85,24.85,0,0,0,.67,3c1.14,2.88,2.64,5.65,3.47,8.67a27,27,0,0,1,.94,12.42.21.21,0,0,1-.41,0c-.11-6.14-.63-12.37-3.17-18a18.62,18.62,0,0,1-1.6-4.41,7.89,7.89,0,0,0-.28-1.46c-.13-.24.27-.44.38-.18Z"/><path class="cls-2" d="M174.46,42.27c.06-5.72-1.48-11.87-5.92-15.48a47.16,47.16,0,0,0-1.73,13.86,23.11,23.11,0,0,0,4.46,13.07l-.34-.81C173.64,50.21,174.42,46.11,174.46,42.27Zm-4-3.29a49.14,49.14,0,0,0-.48-6.23c-.22-1.69-.46-2.81-.46-2.81a.19.19,0,0,1,.15-.24.2.2,0,0,1,.25.16h0s.19,1.13.46,2.82.56,4,.81,6.25c.1,1.14.21,2.29.22,3.36s0,2.08,0,2.94a17.64,17.64,0,0,1-.23,2.07c-.09.5-.15.78-.15.78a.2.2,0,0,1-.25.16.21.21,0,0,1-.16-.18s-.12-1.15-.13-2.85S170.49,41.25,170.45,39Z"/><path class="cls-2" d="M156.13,49.22a22.36,22.36,0,0,0,18.89,13A22.66,22.66,0,0,0,156.13,49.22Zm14.6,9.58a.2.2,0,0,1-.23,0,17.12,17.12,0,0,1-1.91-1.13c-.55-.37-1.17-.83-1.84-1.32s-1.37-1-2.09-1.53a42.89,42.89,0,0,0-4.07-2.67c-1.14-.67-1.93-1.06-1.93-1.06a.2.2,0,0,1-.1-.28.21.21,0,0,1,.28-.09h0s.77.44,1.94,1.07l4.27,2.41c.77.45,1.54.9,2.23,1.38s1.33.91,1.85,1.34a12,12,0,0,1,1.62,1.55A.21.21,0,0,1,170.73,58.8Z"/><path class="cls-2" d="M175.2,62.26l-.18,0c0,.12.12.24.17.36Z"/><path class="cls-2" d="M157.21,149.07c8.1-7.86,10.77-19.92,8.29-30.75-.09-.37.5-.53.59-.15a31.85,31.85,0,0,1-3.1,24.74,28.22,28.22,0,0,1-5.4,6.56c-.26.23-.64-.16-.38-.4Z"/><path class="cls-2" d="M166.22,132.62a10.54,10.54,0,0,0-.89-15.28l.6-.13c-1.64,3.53-3.14,7.69-1,11.29a12.77,12.77,0,0,1,1.5,3.87.2.2,0,0,1-.18.23.21.21,0,0,1-.22-.14,17.76,17.76,0,0,0-1.85-3.56c-2.54-3.71-.9-8.41,1-12a.38.38,0,0,1,.6-.13,11.35,11.35,0,0,1,.69,16.14c-.18.2-.49-.09-.3-.28Z"/><path class="cls-2" d="M167.12,139.79c5.65-10.54,11.84-18.7,23.87-22.08a.3.3,0,0,1,.18.57,36.3,36.3,0,0,0-19.07,14.83c-1.56,2.27-3,4.62-4.5,7-.18.29-.66,0-.48-.28Z"/><path class="cls-2" d="M178.21,125.05a11.41,11.41,0,0,1,14.11-7.86.37.37,0,0,1,.21.56,31,31,0,0,1-2.38,3.4,9.17,9.17,0,0,1-7.33,3.75,18.18,18.18,0,0,0-4,.29.21.21,0,0,1-.13-.39,12.89,12.89,0,0,1,4.08-.75c4.21,0,7-3.47,9.12-6.71l.2.57a10.43,10.43,0,0,0-13.48,7.25.21.21,0,0,1-.4-.11Z"/><path class="cls-2" d="M15,71a33.26,33.26,0,0,0,9.74,28.22l-.08-1.35A30.81,30.81,0,0,0,15,71Zm8,23.6a.22.22,0,0,1-.21-.13s-.49-1.23-1-3.11-1.28-4.39-2-6.9a68.47,68.47,0,0,0-2.39-6.79c-.73-1.83-1.3-3-1.3-3a.21.21,0,0,1,.1-.28.2.2,0,0,1,.27.1h0l1.3,3c.76,1.82,1.75,4.25,2.71,6.71.46,1.24.92,2.47,1.28,3.65s.71,2.29.92,3.25a24.19,24.19,0,0,1,.57,3.26A.2.2,0,0,1,23,94.55Z"/><path class="cls-2" d="M36.46,82.48a26,26,0,0,0-9.07,29l-.11-.39c2-3,4-6,5.8-9.16a28.53,28.53,0,0,0,3.37-7.47C37.42,90.53,36.94,86.46,36.46,82.48ZM35,86.86h0l-.41.7c-.26.44-.6,1.08-1,1.87s-.82,1.71-1.22,2.73-.78,2.12-1.11,3.24-.61,2.25-.89,3.3-.47,2.05-.67,2.9c-.39,1.7-.72,2.83-.72,2.83a.2.2,0,0,1-.26.14.19.19,0,0,1-.15-.19s0-.3,0-.82a18.39,18.39,0,0,1,.22-2.14,26.85,26.85,0,0,1,.67-3c.28-1.07.68-2.19,1.09-3.3.87-2.2,1.86-4.34,2.67-5.91s1.39-2.59,1.39-2.59a.21.21,0,0,1,.28-.09A.2.2,0,0,1,35,86.86Z"/><path class="cls-2" d="M52.35,132.38a42,42,0,0,0,.44,13.7,20.81,20.81,0,0,0,6.84,11.65l.35.2A36.64,36.64,0,0,0,52.35,132.38Zm6.74,21.55a.22.22,0,0,1-.21-.1,18.54,18.54,0,0,1-1.18-2.54c-.32-.77-.62-1.7-.94-2.7s-.61-2.07-.9-3.14c-.56-2.16-1.12-4.31-1.55-5.93s-.7-2.69-.7-2.69a.2.2,0,0,1,.14-.25.22.22,0,0,1,.26.14h0s.24,1.09.7,2.69,1.09,3.73,1.85,5.81c.37,1.05.76,2.08,1.09,3.07s.67,1.89.91,2.69a24,24,0,0,1,.7,2.69A.21.21,0,0,1,59.09,153.93Z"/><path class="cls-2" d="M65.92,162.77a32,32,0,0,0-22.81-2.85,23.94,23.94,0,0,0,24.76,3.58Zm-3.92.65h0l-2.36-.09c-1.41-.07-3.3-.2-5.19-.38-1-.11-1.89-.22-2.77-.4a21.36,21.36,0,0,1-2.37-.56,11.93,11.93,0,0,1-2.22-.87.21.21,0,0,1-.08-.29.23.23,0,0,1,.2-.11,21.43,21.43,0,0,1,2.33.39c1.37.28,3.18.74,5,1.11a34.13,34.13,0,0,0,5.11.71c1.4.11,2.34.08,2.34.08a.2.2,0,0,1,.21.2A.19.19,0,0,1,62,163.42Z"/><path class="cls-2" d="M160,39.52a66,66,0,0,1-2.12-10.24c-.65-2.82.71-7.91-2.86-8.93a.16.16,0,0,1,0-.31c4.33.49,3,6.19,3.39,9.19a43.76,43.76,0,0,0,1.87,10.2c.06.19-.25.29-.3.09Z"/><path class="cls-2" d="M151,26c-.25,2.82,2.07,5.11,3.61,7.26a54.61,54.61,0,0,0,5.72,6.06c.13.12,0,.35-.18.25a19.5,19.5,0,0,1-6-6c-1.44-2.37-3.67-4.66-3.47-7.63a.15.15,0,1,1,.3,0Z"/><path class="cls-2" d="M142.65,32.56c3-.87,5.09,2.12,7.61,3.12,2.48,1.27,5.12,2.19,7.52,3.64.15.09.05.34-.12.28A38.44,38.44,0,0,1,150,36.16c-1.86-1-3.3-2.65-5.28-3.33a3,3,0,0,0-2,0,.16.16,0,0,1-.11-.29Z"/><path class="cls-2" d="M144.7,41.07h-.08a4.2,4.2,0,0,1-3-1.13.36.36,0,0,1,0-.51.37.37,0,0,1,.52,0,3.54,3.54,0,0,0,2.45.91,12.94,12.94,0,0,0,2.62-.38l.23-.06a34.06,34.06,0,0,1,9.86-1,.37.37,0,0,1,.34.39.35.35,0,0,1-.39.34,33.07,33.07,0,0,0-9.66.95l-.22.05A12.85,12.85,0,0,1,144.7,41.07Z"/><path class="cls-2" d="M90.22,77.78a9.24,9.24,0,0,1-.07,1.16,2.81,2.81,0,0,1-.21.76,1,1,0,0,1-.31.4.65.65,0,0,1-.39.12H71.85a.65.65,0,0,1-.37-.12,1.1,1.1,0,0,1-.3-.4,2.81,2.81,0,0,1-.21-.76,7.67,7.67,0,0,1-.07-1.16A9.71,9.71,0,0,1,71,76.6a3.2,3.2,0,0,1,.19-.77,1.21,1.21,0,0,1,.31-.42.6.6,0,0,1,.39-.14h5.87V54.76l-5.07,2.8a3.53,3.53,0,0,1-.91.33.6.6,0,0,1-.56-.15A1.21,1.21,0,0,1,70.9,57a10.79,10.79,0,0,1-.07-1.44c0-.39,0-.71,0-1A2.7,2.7,0,0,1,71,54a1.37,1.37,0,0,1,.27-.44,3.36,3.36,0,0,1,.46-.36l6.78-4.39a1.06,1.06,0,0,1,.3-.16,2.29,2.29,0,0,1,.48-.09,5.05,5.05,0,0,1,.76,0l1.23,0c.62,0,1.12,0,1.5,0a5.67,5.67,0,0,1,.87.12.79.79,0,0,1,.39.23.7.7,0,0,1,.09.37v26h5.14a.7.7,0,0,1,.41.14,1.09,1.09,0,0,1,.31.42,2.77,2.77,0,0,1,.2.77A9.71,9.71,0,0,1,90.22,77.78Z"/><path class="cls-2" d="M116.43,64.33a34.68,34.68,0,0,1-.61,6.83,14.79,14.79,0,0,1-2,5.19,9.24,9.24,0,0,1-3.58,3.28,13.37,13.37,0,0,1-10.76,0,8.38,8.38,0,0,1-3.36-3.19,14.46,14.46,0,0,1-1.74-5.09,41.16,41.16,0,0,1-.5-6.81,33.9,33.9,0,0,1,.62-6.81,15,15,0,0,1,2-5.2,9.2,9.2,0,0,1,3.58-3.29,13.32,13.32,0,0,1,10.74,0,8.37,8.37,0,0,1,3.38,3.19,14.45,14.45,0,0,1,1.73,5.1A43.38,43.38,0,0,1,116.43,64.33Zm-6.45.32q0-2.24-.12-4a25.53,25.53,0,0,0-.38-3,11.13,11.13,0,0,0-.63-2.15,4.48,4.48,0,0,0-.92-1.4,3.09,3.09,0,0,0-1.22-.74,4.79,4.79,0,0,0-1.51-.22,3.81,3.81,0,0,0-2.37.7A4.57,4.57,0,0,0,101.34,56a13.69,13.69,0,0,0-.77,3.46,48.19,48.19,0,0,0-.22,4.82,47.3,47.3,0,0,0,.27,5.57,12.9,12.9,0,0,0,.84,3.51,3.7,3.7,0,0,0,1.48,1.82,4.71,4.71,0,0,0,3.85.22,3.43,3.43,0,0,0,1.27-.91,5.19,5.19,0,0,0,.92-1.53,13,13,0,0,0,.6-2.15,20.74,20.74,0,0,0,.31-2.75C110,67,110,65.89,110,64.65Z"/><path class="cls-2" d="M140.8,77.78a7.53,7.53,0,0,1-.08,1.16,2.51,2.51,0,0,1-.2.76,1,1,0,0,1-.31.4.65.65,0,0,1-.39.12H122.43a.65.65,0,0,1-.37-.12,1.1,1.1,0,0,1-.3-.4,2.81,2.81,0,0,1-.21-.76,7.67,7.67,0,0,1-.07-1.16,9.71,9.71,0,0,1,.06-1.18,2.79,2.79,0,0,1,.19-.77,1.09,1.09,0,0,1,.31-.42.6.6,0,0,1,.39-.14h5.87V54.76l-5.07,2.8a3.67,3.67,0,0,1-.91.33.6.6,0,0,1-.56-.15,1.21,1.21,0,0,1-.28-.71,10.49,10.49,0,0,1-.08-1.44q0-.59,0-1a2,2,0,0,1,.12-.65,1.09,1.09,0,0,1,.27-.44,3.36,3.36,0,0,1,.46-.36l6.77-4.39a1.29,1.29,0,0,1,.31-.16,2.31,2.31,0,0,1,.47-.09,5.2,5.2,0,0,1,.77,0l1.23,0c.62,0,1.12,0,1.5,0a5.33,5.33,0,0,1,.86.12.7.7,0,0,1,.39.23.62.62,0,0,1,.1.37v26h5.14a.7.7,0,0,1,.41.14,1.09,1.09,0,0,1,.31.42,2.77,2.77,0,0,1,.2.77A9.71,9.71,0,0,1,140.8,77.78Z"/><path class="cls-2" d="M80.74,107.12a12.28,12.28,0,0,1-.83,4.7,8.93,8.93,0,0,1-2.41,3.45,10.74,10.74,0,0,1-3.89,2.13,17.86,17.86,0,0,1-5.42.73H65.56v10.06a.65.65,0,0,1-.16.44,1.08,1.08,0,0,1-.52.32,4.61,4.61,0,0,1-1,.19,15.15,15.15,0,0,1-3.11,0,4.83,4.83,0,0,1-1-.19,1,1,0,0,1-.51-.32.68.68,0,0,1-.14-.44V99.83a2.25,2.25,0,0,1,.59-1.71,2.19,2.19,0,0,1,1.57-.58h7.43c.75,0,1.46,0,2.14.09a22.62,22.62,0,0,1,2.42.37,10.51,10.51,0,0,1,2.86,1,8.74,8.74,0,0,1,2.48,1.91,8.18,8.18,0,0,1,1.56,2.71A10.76,10.76,0,0,1,80.74,107.12Zm-6.7.46a5.69,5.69,0,0,0-.58-2.73A4,4,0,0,0,72,103.27a4.84,4.84,0,0,0-1.79-.65,15.29,15.29,0,0,0-1.94-.13H65.56v10.7h2.88a6.88,6.88,0,0,0,2.57-.42,4.38,4.38,0,0,0,1.69-1.15,5.08,5.08,0,0,0,1-1.78A7.09,7.09,0,0,0,74,107.58Z"/><path class="cls-2" d="M106.88,117.16a16.56,16.56,0,0,1-.73,5.07,10.72,10.72,0,0,1-2.21,3.94,9.9,9.9,0,0,1-3.73,2.56,14,14,0,0,1-5.24.9,14.45,14.45,0,0,1-5-.8,9.15,9.15,0,0,1-3.56-2.34,9.66,9.66,0,0,1-2.1-3.78,17.71,17.71,0,0,1-.68-5.11,16.58,16.58,0,0,1,.74-5.08,10.78,10.78,0,0,1,2.23-4A9.88,9.88,0,0,1,90.28,106a13.93,13.93,0,0,1,5.23-.9,14.81,14.81,0,0,1,5.06.79,9,9,0,0,1,3.55,2.33A9.63,9.63,0,0,1,106.2,112,17.44,17.44,0,0,1,106.88,117.16Zm-6.31.24a16,16,0,0,0-.25-3,6.91,6.91,0,0,0-.87-2.35,4.19,4.19,0,0,0-1.62-1.56,5.22,5.22,0,0,0-2.54-.56,5.43,5.43,0,0,0-2.39.5,4.29,4.29,0,0,0-1.68,1.46,6.92,6.92,0,0,0-1,2.32,13,13,0,0,0-.33,3.08,15.14,15.14,0,0,0,.27,3,7.59,7.59,0,0,0,.86,2.35,4.16,4.16,0,0,0,1.62,1.55,5.42,5.42,0,0,0,2.54.54,5.49,5.49,0,0,0,2.41-.49,4.43,4.43,0,0,0,1.68-1.45,7,7,0,0,0,1-2.31A13.65,13.65,0,0,0,100.57,117.4Z"/><path class="cls-2" d="M128.35,122.23a6.38,6.38,0,0,1-.76,3.17,6.73,6.73,0,0,1-2.12,2.33,9.76,9.76,0,0,1-3.3,1.43,18.65,18.65,0,0,1-4.35.47,15.22,15.22,0,0,1-2.38-.18,18,18,0,0,1-2.11-.46,11.26,11.26,0,0,1-1.6-.59,4.65,4.65,0,0,1-.91-.53,1.78,1.78,0,0,1-.42-.47,2,2,0,0,1-.2-.52,3.47,3.47,0,0,1-.1-.72c0-.28,0-.63,0-1a7.09,7.09,0,0,1,.05-.9,3,3,0,0,1,.14-.56.63.63,0,0,1,.2-.3.51.51,0,0,1,.3-.09,1.62,1.62,0,0,1,.81.31c.34.2.76.42,1.27.66a15.24,15.24,0,0,0,1.88.67,9.76,9.76,0,0,0,2.66.31,7.11,7.11,0,0,0,1.89-.22,3.94,3.94,0,0,0,1.37-.62,2.6,2.6,0,0,0,.82-1,2.93,2.93,0,0,0,.28-1.31,2.67,2.67,0,0,0-.26-1.22,2.28,2.28,0,0,0-.89-.91,4.85,4.85,0,0,0-1.63-.57,13.35,13.35,0,0,0-2.48-.2h-2.34a1.07,1.07,0,0,1-.51-.11.84.84,0,0,1-.32-.35,1.89,1.89,0,0,1-.15-.66,9.66,9.66,0,0,1,0-1,8.06,8.06,0,0,1,0-.94,1.61,1.61,0,0,1,.16-.59.65.65,0,0,1,.29-.32.88.88,0,0,1,.45-.1h2.27a11.42,11.42,0,0,0,2.26-.19,4.58,4.58,0,0,0,1.56-.58,2.37,2.37,0,0,0,.89-.92,2.74,2.74,0,0,0,.28-1.28,2.33,2.33,0,0,0-.27-1.13,2.3,2.3,0,0,0-.75-.83,3.61,3.61,0,0,0-1.18-.49,6.72,6.72,0,0,0-1.53-.16,8.88,8.88,0,0,0-2.47.31,12.47,12.47,0,0,0-1.89.67c-.53.24-1,.46-1.33.65a1.83,1.83,0,0,1-.79.3.63.63,0,0,1-.27-.06.64.64,0,0,1-.23-.27,2,2,0,0,1-.17-.58,6.15,6.15,0,0,1-.06-1,6.83,6.83,0,0,1,.14-1.52,1.74,1.74,0,0,1,.43-.88,4.32,4.32,0,0,1,1.08-.68,11.16,11.16,0,0,1,1.8-.68,16.82,16.82,0,0,1,2.26-.5,16.2,16.2,0,0,1,2.53-.2,15.9,15.9,0,0,1,3.65.39,8.38,8.38,0,0,1,2.81,1.18,5.4,5.4,0,0,1,1.78,2,5.58,5.58,0,0,1,.62,2.7,5.32,5.32,0,0,1-.29,1.78,5.09,5.09,0,0,1-.83,1.54,5.7,5.7,0,0,1-1.3,1.24,6,6,0,0,1-1.77.82l0,.05a5.72,5.72,0,0,1,2,.59,6.11,6.11,0,0,1,1.61,1.17,5.23,5.23,0,0,1,1.09,1.64A5.09,5.09,0,0,1,128.35,122.23Z"/><path class="cls-2" d="M151.54,128.32a.65.65,0,0,1-.24.53,1.59,1.59,0,0,1-.77.28,13.74,13.74,0,0,1-3.14,0,1.31,1.31,0,0,1-.71-.28.69.69,0,0,1-.21-.53v-1.73a10.07,10.07,0,0,1-3.05,2.24,9,9,0,0,1-3.82.8,10.72,10.72,0,0,1-3.18-.45,7.29,7.29,0,0,1-2.51-1.34,6.11,6.11,0,0,1-1.64-2.2,7.51,7.51,0,0,1-.58-3.07,6.94,6.94,0,0,1,.74-3.31,6,6,0,0,1,2.22-2.31,10.92,10.92,0,0,1,3.66-1.35,26.36,26.36,0,0,1,5.09-.44h2.12v-1.32a7.36,7.36,0,0,0-.2-1.79,3,3,0,0,0-.69-1.28,2.73,2.73,0,0,0-1.26-.75,6.85,6.85,0,0,0-2-.24,9.92,9.92,0,0,0-2.74.34,15.55,15.55,0,0,0-2.14.75c-.61.28-1.13.53-1.54.76a2.42,2.42,0,0,1-1,.34.76.76,0,0,1-.48-.17,1.3,1.3,0,0,1-.34-.49,3.36,3.36,0,0,1-.21-.78,6.45,6.45,0,0,1-.07-1,4.77,4.77,0,0,1,.12-1.2,1.93,1.93,0,0,1,.46-.79,4.94,4.94,0,0,1,1.2-.78,13.9,13.9,0,0,1,2-.79,19.77,19.77,0,0,1,2.49-.6,18.43,18.43,0,0,1,7.17.27,7.52,7.52,0,0,1,3,1.54,6,6,0,0,1,1.71,2.66,12.72,12.72,0,0,1,.53,3.88Zm-6-9.31h-2.33a12.3,12.3,0,0,0-2.54.22,4.68,4.68,0,0,0-1.7.66,2.72,2.72,0,0,0-1,1.06,3.19,3.19,0,0,0-.3,1.42,2.77,2.77,0,0,0,.86,2.15,3.46,3.46,0,0,0,2.4.77,4.48,4.48,0,0,0,2.38-.65,9.68,9.68,0,0,0,2.2-1.93Z"/><text class="cls-3" transform="translate(232.28 126.03)">Р<tspan class="cls-4" x="58.7" y="0">О</tspan><tspan class="cls-5" x="132.36" y="0">ЗЫ</tspan></text></svg>