<svg id="Слой_1" data-name="Слой 1" xmlns="http://www.w3.org/2000/svg" viewBox="0 0 2036.91 1964.23"><defs><style>.cls-1{fill:#ff0000;}</style></defs><path class="cls-1" d="M1998.82,705.2c-7.45-9.53-184.43-235.09-379.92-372.08C1231.27,61.54,1035.76,4.85,1027.63,2.57L1018.46,0l-9.16,2.57c-8.14,2.28-203.66,59-591.3,330.55C222.54,470.11,45.53,695.67,38.11,705.2l-7.88,10.1L31,728.07c.81,13.91,21,343.57,119.63,616.46,97.88,270.86,236.22,520.6,237.61,523.1l6.35,11.38,12.34,4.24c3.2,1.1,29.6,9.93,74.92,21.35a46.87,46.87,0,0,0,4.74,1.16c96.46,24,274.23,58.47,501.29,58.47,10.09,0,20.32-.07,30.61-.2,357,4.53,601.31-77.29,611.56-80.78l12.32-4.24,6.36-11.38c1.37-2.5,139.75-252.24,237.61-523.1,98.6-272.89,118.82-602.55,119.62-616.46l.74-12.77ZM1018.94,1896.09h-1a2067.69,2067.69,0,0,1-429.71-37.57c143.45-99.45,333-253.72,344.62-381.3,21.82,1.25,44.82,2.07,68.4,2.71,1.39.16,2.53.73,4,.75,4.49-.07,8.68-.24,13.11-.33,4.42.09,8.6.26,13.09.33h.48c1.35,0,2.5-.59,3.81-.76,23.52-.63,46.47-1.45,68.24-2.7,12.62,129.42,213.2,282.5,360,378.18C1359.49,1876.7,1204.25,1898.93,1018.94,1896.09ZM857.1,1409.58c-159.31-17.51-266.9-59.34-373.1-139.14-161.42-121.3-231.17-236-257.78-291.34,57.56-2.72,176.46,2.35,322.79,67.2C751.39,1136,812.82,1277.67,857.1,1409.58Zm630.71-363.28c128.27-56.84,235.42-67.74,298.74-67.74,8.9,0,16.93.19,24,.54-26.62,55.43-96.38,170.07-257.79,291.34-106.19,79.8-213.78,121.63-373.1,139.14C1224,1277.67,1285.45,1136,1487.81,1046.3Zm-564.36,369c-14.27-43.67-30.1-90.15-51.76-136.68,50.93,17.72,99.52,25,143.57,25,60.08,0,111.44-12.46,150.38-26.09-21.94,46.9-37.9,93.77-52.3,137.79-29.74,1.94-61.53,3.11-94.94,3.79C985,1418.44,953.2,1417.27,923.45,1415.33Zm899-93.87c-84,232.52-198.58,449.42-226.69,501.41-10.09,3.07-26.29,7.78-47.89,13.35-175.94-108.7-376.17-264.2-383.47-363.51,183.3-17.1,304.27-62.49,425.2-153.35C1832.21,1137,1881.83,968.13,1883.83,961a30.61,30.61,0,0,0-23.46-38.28c-6.88-1.35-171.26-32.62-397.36,67.61-119.48,52.95-195,123-246.62,197.77-2.64.8-5.33,1.46-7.78,3-1.74,1.14-175.28,110-373.44,5.51a30.67,30.67,0,0,0-11.32-3.3c-51.64-76.74-127.78-148.83-250-203-226.14-100.23-390.46-69-397.36-67.61A30.59,30.59,0,0,0,153,961c2,7.09,51.62,176,294.24,358.32,120.95,90.88,242,136.27,425.3,153.38-6.33,98.41-195.85,255-366.61,367.69-30-7.4-52.24-13.78-64.76-17.59-28.1-52-142.59-268.71-226.67-501.38C130,1087.48,104.46,800.52,99.68,737c36.6-45.26,192.76-232.87,357.32-348.2C787.16,157.42,975.94,85.46,1018.46,70.94c42.5,14.52,231.28,86.48,561.45,317.81C1744.32,504,1900.63,691.69,1937.23,737,1932.46,800.49,1907.05,1087.27,1822.42,1321.46ZM1489.51,794.81c-6.55-16.54-6.42-33.17-6.27-50.77,0-4.64.07-9.3,0-14-.52-29.84-2.59-56.26-6.29-80.76-6-39.52-22.45-71.57-49-95.34-7.16-6.42-9-11.9-7.33-21.78,5.79-33.93,6.59-65.59,2.46-96.77-7.77-58.87-30.27-98-70.81-123.09a5.47,5.47,0,0,1-2-2.46c-8.7-33.55-31.71-48.52-66.61-43a29.84,29.84,0,0,1-15-1.35c-34.74-13.82-67.53-22.3-100.28-26-48.83-5.4-87.5,1.85-121.84,22.92a9.9,9.9,0,0,1-5.92-.22c-6.57-2.37-13.06-5.09-19.54-7.79-11.3-4.7-23-9.58-35.1-12.71-61.18-16-115.78-20.39-166.89-13.49-39.78,5.33-68.88,17.3-91.55,37.71-6.42,5.79-12.54,8.53-20.5,9.2-24.33,2-39.59,15.39-44.13,38.65-.51,2.55-.92,5.18-1.31,7.79-1,6.68-2,13-4.61,18-4.66,8.9-10.38,17.63-15.89,26.05-4.35,6.64-8.7,13.27-12.66,20.13-21.9,37.73-33.36,73.07-35.08,108-.9,18.13-1.22,39.19,6.39,59.87.81,2.2.26,6.2-.45,7.16-39.76,45.09-62.94,92-70.84,143.3a167.09,167.09,0,0,0,11.52,92.29c2,4.67,2.72,9.9,1.76,12.4-10.58,27.66-.55,52.1,27.53,67,4.83,2.57,10.77,6.08,14.08,10.47,21.45,28.53,48,61.22,82.6,87.44,33.86,25.66,65.2,38.93,98.6,41.76,7.66.67,10.12,3,13.58,9.68,40.41,77.91,102.69,118.78,185.1,121.45a19,19,0,0,1,10.93,4.27c11.34,10.18,23.37,15.3,35.73,15.3,10,0,20.15-3.35,30.29-10.06l2.16-1.41c9.62-6.38,19.54-13,29.9-16.58,39.45-13.73,70.16-28.68,96.6-47.05,29.5-20.46,64.52-50.31,74.09-100,5.75-1,11.54-1.85,17.33-2.68,8.59-1.21,17.19-2.45,25.65-4.3,7-1.55,13.84-3.29,20.22-5,3.83-.76,8-1.65,12.71-2.89a272.77,272.77,0,0,0,59-22.72l.56.22,3-2.11c20.5-11.3,31.12-21,31.27-21.2,24.16-19.58,39.78-43,47.73-71.55.8-2.87,3.74-6.62,7.33-9.31C1475.91,843.29,1501.18,824.27,1489.51,794.81Zm-902.88,22.5c6.2-10.58,6.12-18.57-.33-29.47-16.93-28.85-19.86-61.41-9-99.47,9.66-33.66,26.92-64.81,51.31-92.55,19.85-22.57,45.74-36.86,72.79-50.73,7.25-3.72,14.84-6.85,22.87-10.14l1.27-.52c-1.27,6.09-2.57,12.08-3.83,18-4.49,20.82-8.71,40.52-11.47,60.69-6.68,49.2-5.75,93.29,2.87,134.75,7.86,37.84,20.63,68.89,39,94.92a10.68,10.68,0,0,1,1.48,6.12c-2.72,41,2.39,81.58,8.34,119.4.06.5.13,1,.15,1.52-1-.21-2.07-.45-3.09-.67-7.18-1.59-14-3.09-20.22-5.46-43.06-16.21-74.18-48.88-96.49-75.51-4.87-5.84-9.33-12-13.8-18.18-4.76-6.61-9.55-13.23-14.77-19.43-4.75-5.66-12-8.77-17.89-11.27-7.77-3.33-12-6.4-13-9.38C582,827.27,583.24,823.14,586.63,817.31ZM704.16,336.88l.11-1.89c.33-5.62,1-12.32,3.46-14.37,1.16-1,3.29-1.43,6.55-1.43a62.71,62.71,0,0,1,7.34.52c11.25,1.35,18.89-1.59,26.48-10.79,18.08-21.87,44-33.28,83.87-36.93a400,400,0,0,1,141.51,12.75c55.3,15.08,97.84,44.5,129.74,89.74l-5.2.07c-12.9.11-25,.24-37-.44-4.55-.26-9.73-2.69-14.71-5.07l-2.74-1.28c-36.26-16.71-74.28-14.38-110.16-10.47-32.64,3.53-61.48,11.23-88.11,23.55-41,19-71.81,48.22-91.75,87-4.55,8.88-10.1,12.38-19.37,16.06-22.15,8.86-44,19.41-65,29.64-7.59,3.68-15.19,7.36-22.8,11a74.09,74.09,0,0,0-7.06,4c-4.52-16.1-2.78-31.82-.58-44.11,7.16-40.19,25-78.3,56.32-119.95C700.44,357.25,706,348.61,704.16,336.88ZM1221.8,831.43c-22.48,18.39-42.21,32.49-65.39,41.41-32.21,12.51-66.33,14.54-101.32,6-10.88-2.61-21.81-6.37-32.4-10-4.73-1.63-9.45-3.24-14.21-4.78-15.91-5.14-26.25-17.46-37.17-30.49l-3.62-4.29c-2.41-2.85-4.7-5.79-7.09-9,54.12,12.47,101.67,7.75,145.11-14.58,32.72-16.84,58.32-43.5,78.27-81.54,28.2-53.75,35.19-111.59,38.11-156,1.58-23.92.65-48.16-.27-71.58-.26-7.26-2.74-17.36-8.83-23.89-5.27-5.74-18.8-6.29-24.66-2.37-6.48,4.29-11.62,13.88-11.7,21.8-.09,6.16.08,12.32.32,18.52-14.67-35.38-31.33-63.63-51.79-87.83,2.52.39,5,.81,7.55,1.24,45.83,8.21,81.28,26.44,108.35,55.71,22.31,24.14,37.26,54.88,44.44,91.42,6.37,32.4,12.21,64.15,13.29,96.17C1301,732.74,1275.1,787.93,1221.8,831.43ZM1133.41,721c-.7-5-1.35-10-2-15-3-22.37-6.09-45.52-11.25-67.78-7.4-32-24.15-55-51.07-70l40.28-20.94c18.24,16.91,30.44,39.07,37.25,67.62,3.88,16.08,6.14,34,7.12,56.29C1154.56,690.61,1144.4,705.41,1133.41,721Zm-46.62-.37c.11,5.85,0,11.71-.17,17.56-.17,7.25-.33,14.49-.06,21.7.15,4.52-1.35,6.63-6.16,8.7-35.58,15.3-71.79,17.85-110.66,7.81C925.48,765,894.92,734.68,873.62,681c-1.18-2.93,1.54-9.92,3.53-15l1.74-4.64c15.69-43.91,33.31-76.9,55.49-103.8,25.65,24,58.25,38.58,102,45.66,15,2.41,26.38,12.62,34.91,31.16C1084.12,662.37,1086.32,692.35,1086.79,720.6ZM967.22,527.23c24.28-19.74,64.74-18.85,96.29-7.53-7.92,4.39-15.62,8.68-23,13.38a138.81,138.81,0,0,0-12.33,9.1c-3.14,2.5-6.27,5-9.62,7.27-2.31,1.58-4.88,2.56-4.68,2.87C997.38,544.16,981.08,535,967.22,527.23ZM1378.92,505c-3.2,37.62-8.12,68.59-21.65,97.45a207.71,207.71,0,0,1-15.45,27.22l-.68-4.29c-2.22-14.51-4.46-29-7.24-43.43-6.18-32-16.54-73.43-41.9-109.72-29.31-42-70.11-70.6-121.25-85.05-7.07-2-10.88-5.22-14.62-12.31-16.52-31.36-39.76-59.24-69.07-82.87,18.78-7.68,39.23-10.53,65-8.88,36.25,2.18,72.66,11.82,114.57,30.36,5.31,2.35,11.21,1,16.45-.2l3.2-.67c5-1,14.26-2.68,16.65-1s3.59,10.9,4.11,14.82c1.7,12.88,8.18,18.43,17.41,22.8,24,11.36,39.89,32.41,48.59,64.29C1380.14,439.46,1382,468.51,1378.92,505ZM752.19,645.72c5-70.84,20.85-125.41,49.94-171.79,19.7-31.4,49.53-52.27,88.7-62.06a476.25,476.25,0,0,1,75-12.27c43.52-3.77,82.85,12.75,120.41,50.16,11.94,11.92,22.41,26.15,33,45-7.84-5-16.43-8.23-24.46-11.23l-5.18-2c-81.22-31.53-143-14.63-194.25,53.16-13.16,17.41-24.26,36.67-35,55.32-2,3.46-4,6.92-6,10.38-1.33-10.84-2.61-22-2.87-33.06-.48-21.41.3-43.26,1-64.41l.33-9.34c.48-13.86-7.23-24.54-19.11-26.61A21.06,21.06,0,0,0,817,471.06a23.62,23.62,0,0,0-9,16.82,533,533,0,0,0-2.31,53.51c.41,59.11,8,107,23.72,150.61,8.73,24.2,21.44,47.23,38.87,70.4,8.14,10.8,15.32,22.81,22.26,34.43,2.74,4.59,5.5,9.2,8.31,13.75a438.58,438.58,0,0,0,66.44,82.28l-5.83.15c-12.36.35-24.05.64-35.34-.56-50.21-5.25-89.68-24-120.69-57.41-22.16-23.85-36.71-53.44-45.81-93.09C751.23,714.09,749.51,683.52,752.19,645.72Zm50.2,248.49c8.67,5.64,16.85,10.95,25.6,15.5C880.52,937,934.44,945.48,988.48,935c18.15-3.4,31,1.8,46.07,11.4,45.41,29,98.14,45,156.68,47.31,1.35.06,2.7.15,4.07.26-7,20.61-20.92,37.71-44.11,54.71-30,22-65.83,38.93-109.68,51.94-6.2,1.85-11.08,6-15.8,10.08-1.61,1.37-3.22,2.74-4.83,4-6.09,4.57-10.36,6.59-12.38,6.09-2.4-.37-5.44-3.33-9.58-9.29s-9.66-11.86-20.19-11.86a30.9,30.9,0,0,0-3.38.19c-55.25,6-100.53-15.69-142.18-68.26-20.59-26-25.16-57-30.17-90.79-1.67-11.38-2.43-23.24-3.15-34.69q-.42-6.69-.89-13.38c0-.26-.05-.52-.07-.76Zm293.24,33.93a200.9,200.9,0,0,0,88.76-18.26c34.63-16,66.92-40.74,98.71-75.8Q1327,785.81,1338.23,723c1.72-9.79,3.19-18.24,9.9-25.48A265.61,265.61,0,0,0,1396,625.22c3.61-8.07,7-16.28,10.38-24.64l1.33-3.17.78,1.13,1,1.46c11.9,16.73,19.85,36.93,25,63.58,6.24,32.23,6.63,65.92,1.19,100.11-1.59,9.92-.21,17.6,4.7,26.46,4,7.18,7.56,14.23,6.64,17.08s-8.57,6.83-15.65,10.19c-5.11,2.41-11.12,6.42-12.25,16.16-2.5,22.53-12,41.35-28.13,56-5.88,5.34-12.15,10.06-18.18,14.63l-3.78,2.91c-4.51,2.72-8.66,5-12.14,6.84-7.51,3.39-15,6.44-22.11,9.12a33.25,33.25,0,0,1-4.81,1.13l-6,2.89c-33.84,11.64-69.72,18.63-109.66,21.35C1174,951.16,1124.86,941,1095.63,928.14Z"/></svg>