<svg id="Слой_1" data-name="Слой 1" xmlns="http://www.w3.org/2000/svg" viewBox="0 0 3968.5 2711.06"><defs><style>.cls-1{fill:#ff0000;}</style></defs><path class="cls-1" d="M1066.93,1204.13q-7.61-36.39-27.8-55.79t-53.38-19.4a97.14,97.14,0,0,0-34.4,6q-16,6-28,20.6t-18.8,38.79q-6.79,24.2-6.8,60.59a201.28,201.28,0,0,0,4.8,44.19A115.48,115.48,0,0,0,918,1336.9a81,81,0,0,0,27.19,26.19q16.59,9.81,40.6,9.8a95.41,95.41,0,0,0,51.18-14.6q23.6-14.6,38-42.59l14,10.8q-18.8,33.2-46,48.79t-69.18,15.6q-31.61,0-56.19-10.4a116.6,116.6,0,0,1-41.39-28.8,125.4,125.4,0,0,1-25.6-43.19,159.2,159.2,0,0,1-8.79-53.58,157.49,157.49,0,0,1,10-56.59,142.69,142.69,0,0,1,27.6-45.59,128.87,128.87,0,0,1,41.79-30.6A123.71,123.71,0,0,1,973.75,1111q37.57,0,60.58,9.79t34.2,22.6q8,10.41,9.2,26.79t1.19,34Z"/><path class="cls-1" d="M1124.22,1280.36a120.69,120.69,0,0,1,7.2-41.88,98.63,98.63,0,0,1,20.72-34,96.59,96.59,0,0,1,32.94-22.68q19.41-8.28,43.84-8.29t43.85,8.29a96.78,96.78,0,0,1,32.94,22.68,98.78,98.78,0,0,1,20.72,34,125.43,125.43,0,0,1,0,83.77,98.87,98.87,0,0,1-20.72,34,96.64,96.64,0,0,1-32.94,22.68q-19.43,8.28-43.85,8.29t-43.84-8.29a96.45,96.45,0,0,1-32.94-22.68,98.72,98.72,0,0,1-20.72-34A120.7,120.7,0,0,1,1124.22,1280.36Zm150.51,0a199.24,199.24,0,0,0-2.83-34.68,107.91,107.91,0,0,0-8.51-27.7q-5.67-11.77-14.4-18.33a34.07,34.07,0,0,0-40.14,0q-8.73,6.55-14.39,18.33a106.74,106.74,0,0,0-8.51,27.7,213.22,213.22,0,0,0,0,69.37,106.62,106.62,0,0,0,8.51,27.7q5.65,11.77,14.39,18.32a34,34,0,0,0,40.14,0q8.73-6.54,14.4-18.32a107.79,107.79,0,0,0,8.51-27.7A199.27,199.27,0,0,0,1274.73,1280.36Z"/><path class="cls-1" d="M1567,1387.25a97,97,0,0,1-38.39-7.42,91.25,91.25,0,0,1-30.33-20.72,101.67,101.67,0,0,1-20.5-31.19,116.62,116.62,0,0,1-8.94-38.83h-17.45v93.8H1394.7V1234.56q0-19.63-5.45-31.63t-25.09-12h-4.36v-13.09h52.35q11.34,0,19,2.84a25.27,25.27,0,0,1,12.21,9.38q4.59,6.54,6.33,17.45a175.8,175.8,0,0,1,1.75,27v34.9h17.88a119.22,119.22,0,0,1,9.38-38,99.84,99.84,0,0,1,20.29-30.32,93.12,93.12,0,0,1,29.88-20.29,95.7,95.7,0,0,1,38.18-7.41q22.24,0,40.35,8.29a93.16,93.16,0,0,1,31,22.68,101.66,101.66,0,0,1,19.85,34,129.16,129.16,0,0,1,0,83.77,101.76,101.76,0,0,1-19.85,34,93,93,0,0,1-31,22.68Q1589.28,1387.24,1567,1387.25Zm39.26-106.89a233.37,233.37,0,0,0-2.4-34.68,114.54,114.54,0,0,0-7.41-27.7q-5-11.77-12.44-18.33a25,25,0,0,0-17-6.54,24.75,24.75,0,0,0-17.24,6.54q-7.18,6.55-12.21,18.33a114.07,114.07,0,0,0-7.42,27.7,251.84,251.84,0,0,0,0,69.37,114,114,0,0,0,7.42,27.7q5,11.77,12.21,18.32a24.71,24.71,0,0,0,17.24,6.55,25,25,0,0,0,17-6.55q7.41-6.54,12.44-18.32a114.41,114.41,0,0,0,7.41-27.7A233.42,233.42,0,0,0,1606.29,1280.36Z"/><path class="cls-1" d="M1744.15,1267.28H1766q26.18,0,36-8.73t9.82-28.36a40.27,40.27,0,0,0-3.27-16.79,31,31,0,0,0-8.73-11.56,37.47,37.47,0,0,0-12.65-6.55,50.29,50.29,0,0,0-14.62-2.18q-19.62,0-33.15,13.31t-14.84,34.68h-13.08q0-18.31,1.3-31.19t9.6-21.16q8.28-8.28,24.87-11.78a175.63,175.63,0,0,1,36.21-3.49q39.27,0,63.26,13.74t24,43q0,19.63-14.39,32.07t-38,15.92q27,3.49,43,17t15.93,33.15q0,15.7-6.55,26.83a52,52,0,0,1-18.54,18.33q-12,7.2-28.79,10.47a198.41,198.41,0,0,1-37.74,3.27q-31,0-50.17-10t-30.54-24.87l13.09-10.91a78.3,78.3,0,0,0,7.85,8.51,64.25,64.25,0,0,0,11.35,8.51,66.85,66.85,0,0,0,15.27,6.54,69.69,69.69,0,0,0,20.06,2.62q19.63,0,32.72-8.94t13.09-30.33q0-20.49-10.9-31T1766,1286.91h-21.81Z"/><path class="cls-1" d="M1941.37,1170.93q0-18-5-29t-23-11h-4v-12h48q10.39,0,17.4,2.6a23.24,23.24,0,0,1,11.19,8.6q4.2,6,5.8,16a161.63,161.63,0,0,1,1.6,24.79v194h104v-246h52v246h14a13.67,13.67,0,0,1,14,14v78h-20q-2.4-21.6-6.4-36t-10.2-22.8a34.41,34.41,0,0,0-14.4-11.79,49.17,49.17,0,0,0-19-3.4h-166Z"/><path class="cls-1" d="M2228,1234.56q0-19.63-5.45-31.63t-25.09-12h-2.18v-13.09H2312.2q39.27,0,63.7,13.09t24.43,39.26q0,19.63-14.62,31T2344.92,1276q27.91,3.49,46,16.14t18.1,34q0,29.68-25.3,43.19t-71.55,13.53H2228Zm76.35-39.27a82.69,82.69,0,0,0-9.16.66,45.6,45.6,0,0,0-10.47,2.4v66.75H2300q16.58,0,29-9.17t12.43-25.74a34.79,34.79,0,0,0-3.27-15.7,32.19,32.19,0,0,0-8.73-10.91,35.3,35.3,0,0,0-12-6.32A45.38,45.38,0,0,0,2304.35,1195.29Zm0,170.15q19.64,0,32.72-9.82t13.09-29.45q0-20.94-13.53-31.19T2300,1284.73h-15.26v77.65a45.09,45.09,0,0,0,10.47,2.4A82.69,82.69,0,0,0,2304.35,1365.44Z"/><path class="cls-1" d="M2558.25,1367.62q22.68,0,36.86-10.47a122.72,122.72,0,0,0,25.53-25.74l13.52,10a156.94,156.94,0,0,1-11.56,15.49,82.12,82.12,0,0,1-16.58,14.83,89.48,89.48,0,0,1-23.12,11.13q-13.32,4.35-31.19,4.36-23.13,0-41.67-8.07a91.56,91.56,0,0,1-31.63-22.47,99.86,99.86,0,0,1-20.07-33.81,125,125,0,0,1-7-42.54q0-26.17,7.42-46.24t20.29-33.37a86.06,86.06,0,0,1,30.32-20.29,101.3,101.3,0,0,1,38-7,110.8,110.8,0,0,1,38,6.32,93.64,93.64,0,0,1,30.32,17.67,81.85,81.85,0,0,1,20.29,27.49,84.71,84.71,0,0,1,7.41,35.77q0,4.82-.22,9.82c-.15,3.35-.36,6.32-.65,8.94-.29,3.21-.59,6.11-.87,8.73H2510.26q0,43.18,13.31,61.29T2558.25,1367.62Zm26.18-99q0-21.81-2.84-36.21t-7.63-23.13q-4.82-8.71-11.57-12.43a30.82,30.82,0,0,0-15-3.71,29.1,29.1,0,0,0-14.18,3.71q-6.76,3.71-11.77,12.43t-8.08,23.13q-3,14.38-3,36.21Z"/><path class="cls-1" d="M2732.32,1197.47q-19.64,0-30.54,10.47t-10.91,35.34h-13.09v-30.54a54.59,54.59,0,0,1,1.53-12.87,31.11,31.11,0,0,1,5-11.12,25.5,25.5,0,0,1,9.81-7.86q6.33-3,16.36-3.05H2868v19.63h-65.88v185.42H2745.4V1197.47Z"/><path class="cls-1" d="M3111.18,1118.94v18H3027.6v246h-52v-246h-28.4q-21.2,0-33.59,10.6t-12.4,37.39h-12v-34a49.79,49.79,0,0,1,1.4-11.8,24,24,0,0,1,5.19-10.2,27.91,27.91,0,0,1,10.4-7.2q6.6-2.79,17-2.8Z"/><path class="cls-1" d="M3138.48,1280.36a120.69,120.69,0,0,1,7.2-41.88,98.63,98.63,0,0,1,20.72-34,96.59,96.59,0,0,1,32.94-22.68q19.41-8.28,43.85-8.29t43.84,8.29a96.78,96.78,0,0,1,32.94,22.68,98.78,98.78,0,0,1,20.72,34,125.43,125.43,0,0,1,0,83.77,98.87,98.87,0,0,1-20.72,34A96.64,96.64,0,0,1,3287,1379q-19.41,8.28-43.84,8.29t-43.85-8.29a96.45,96.45,0,0,1-32.94-22.68,98.72,98.72,0,0,1-20.72-34A120.7,120.7,0,0,1,3138.48,1280.36Zm150.51,0a198.27,198.27,0,0,0-2.83-34.68,107.52,107.52,0,0,0-8.51-27.7q-5.67-11.77-14.4-18.33a34.05,34.05,0,0,0-40.13,0q-8.73,6.55-14.4,18.33a107.13,107.13,0,0,0-8.51,27.7,214,214,0,0,0,0,69.37,107,107,0,0,0,8.51,27.7q5.67,11.77,14.4,18.32a34,34,0,0,0,40.13,0q8.73-6.54,14.4-18.32a107.4,107.4,0,0,0,8.51-27.7A198.3,198.3,0,0,0,3289,1280.36Z"/><path class="cls-1" d="M3514.1,1173.48q22.68,0,39.92,8.29a82.06,82.06,0,0,1,28.8,22.68,96.47,96.47,0,0,1,17.23,34,157.54,157.54,0,0,1,0,83.77,94.5,94.5,0,0,1-17.45,34,83,83,0,0,1-29.45,22.68q-17.67,8.28-41.23,8.29a83.7,83.7,0,0,1-19.19-2,89.11,89.11,0,0,1-14.4-4.58,48.75,48.75,0,0,1-12.22-6.55v91.62H3409.4V1234.56a133.61,133.61,0,0,0-1.09-17.67,42.73,42.73,0,0,0-4.15-14,20.25,20.25,0,0,0-9.16-9q-6.11-3-15.7-3h-4.37v-13.09h43.19q14.84,0,23.34,3.93t13.31,14.39q3.93-3.48,9.38-7.41a85.13,85.13,0,0,1,12.65-7.42,79.64,79.64,0,0,1,16.58-5.67A91.77,91.77,0,0,1,3514.1,1173.48Zm-8.72,19.63q-16.59,0-26.61,6.11a84.08,84.08,0,0,0-15.71,11.78,44.43,44.43,0,0,0,1.31,6.11,44.5,44.5,0,0,1,1.31,6.54,70.38,70.38,0,0,1,.43,8.29v122.59a48.41,48.41,0,0,0,10.47,6.54,57.72,57.72,0,0,0,11.56,4.59,54.29,54.29,0,0,0,15.06,2q12.21,0,20.5-6.55t13.53-18.32a102.56,102.56,0,0,0,7.41-27.7,277,277,0,0,0,0-69.37,108.73,108.73,0,0,0-7.2-27.7q-5-11.77-12.87-18.33T3505.38,1193.11Z"/><path class="cls-1" d="M3664.18,1234.56q0-19.63-5.46-31.63t-25.08-12h-2.19v-13.09H3782q9.59,0,16.14,3.05a25.34,25.34,0,0,1,10,7.86,31.11,31.11,0,0,1,5,11.12,54.59,54.59,0,0,1,1.53,12.87v30.54H3801.6q0-24.87-10.91-35.34t-30.54-10.47h-39.26v185.42h-56.71Z"/><path class="cls-1" d="M880.93,1579.43q0-11.75-3.27-18.92t-15-7.18h-5.22v-5.22H965.76a28.83,28.83,0,0,1,11.09,1.82,18.28,18.28,0,0,1,6.79,4.7,15.75,15.75,0,0,1,3.39,6.66,32.63,32.63,0,0,1,.91,7.7v19.58h-5.22q0-15.66-8.48-22.84t-24.14-7.18H904.42v161.83H880.93Z"/><path class="cls-1" d="M1134.63,1571.6l-83.52,148.78h-23.49v-141q0-11.75-3.27-18.92t-15-7.18h-5.22v-5.22h23.5a46.62,46.62,0,0,1,11.35,1.17,13.17,13.17,0,0,1,7.31,4.7,21.43,21.43,0,0,1,3.78,9.66,96.71,96.71,0,0,1,1,15.79v117.46l83.52-148.78h23.49v172.27h-23.49Z"/><path class="cls-1" d="M1340.05,1720.38h-23.49V1558.55h-78.31v161.83h-23.49v-141q0-11.75-3.26-18.92t-15-7.18h-5.22v-5.22h148.78Z"/><path class="cls-1" d="M1484.39,1548.11a28.85,28.85,0,0,1,11.1,1.82,18.16,18.16,0,0,1,6.78,4.7,15.88,15.88,0,0,1,3.4,6.66,33.16,33.16,0,0,1,.91,7.7v19.58h-5.22q0-15.66-8.48-22.84t-24.15-7.18h-48.55v67.86h70.48v10.44h-70.48v73.09h45.68q17.75,0,28.06-6.53t16.31-22.18l5.22,1.3-9.13,24.8a19.38,19.38,0,0,1-6.92,9.53q-4.83,3.53-12.66,3.52h-90v-141q0-11.75-3.26-18.92t-15-7.18h-5.22v-5.22Z"/><path class="cls-1" d="M1580.71,1720.38h-23.49v-141q0-11.75-3.27-18.92t-15-7.18h-5.22v-5.22h67.87a144.76,144.76,0,0,1,19.58,1.56,65.33,65.33,0,0,1,21.4,6.92,47.34,47.34,0,0,1,17.23,15.79q7,10.45,7,27.93,0,11.24-3.26,19.19a42.84,42.84,0,0,1-8.48,13.44,45.43,45.43,0,0,1-11.62,8.87,59.6,59.6,0,0,1-12.79,5.09,83.49,83.49,0,0,1-12,2.35,82.49,82.49,0,0,1-9.27.66h-28.71Zm19.57-79.61a43.13,43.13,0,0,0,12.4-2.09,39.51,39.51,0,0,0,13.18-7,41.17,41.17,0,0,0,10.58-12.92q4.3-7.95,4.3-19.7t-4.3-19.71a41.28,41.28,0,0,0-10.58-12.92,39.88,39.88,0,0,0-13.18-7.05,43.48,43.48,0,0,0-12.4-2.09,71.65,71.65,0,0,0-10.31.79,84.45,84.45,0,0,0-9.26,1.82v78.31A84.26,84.26,0,0,0,1590,1640,71.59,71.59,0,0,0,1600.28,1640.77Z"/><path class="cls-1" d="M1899.67,1732.13q-14.1,0-23.49-3.27a32,32,0,0,1-14.88-10q-5.49-6.78-7.7-17.48a126.22,126.22,0,0,1-2.22-25.32v-100.5l-65.25,144.87h-5.22L1713,1572.9v147.48H1702.6V1548.11h24.8L1790,1683.84l61.34-135.73h23.49V1676q0,23.74,6,37.32t18.79,13.58Z"/><path class="cls-1" d="M2082.64,1720.38a37.22,37.22,0,0,1-10.44,1.3,60.43,60.43,0,0,1-10.31-1,37.21,37.21,0,0,1-12-4.57,47.27,47.27,0,0,1-12-10.31q-5.88-6.78-10.05-18l-6.53-17h-73.08l-20.88,49.59h-11.75l73.09-172.27h7.83l57.42,139.64q3.14,7.32,5.87,12.4a31,31,0,0,0,6.14,8.22,23.66,23.66,0,0,0,7.31,4.7,33.94,33.94,0,0,0,9.39,2.09Zm-130.51-60h63.95l-31.32-75.7Z"/><path class="cls-1" d="M2133.28,1720.38h-23.49v-141q0-11.75-3.27-18.92t-15-7.18h-5.22v-5.22h67.86a144.76,144.76,0,0,1,19.58,1.56,65.33,65.33,0,0,1,21.4,6.92,47.34,47.34,0,0,1,17.23,15.79q7,10.45,7,27.93,0,11.24-3.26,19.19a42.84,42.84,0,0,1-8.48,13.44,45.43,45.43,0,0,1-11.62,8.87,59.8,59.8,0,0,1-12.79,5.09,83.49,83.49,0,0,1-12,2.35,82.34,82.34,0,0,1-9.27.66h-28.71Zm19.57-79.61a43.13,43.13,0,0,0,12.4-2.09,39.51,39.51,0,0,0,13.18-7,41.17,41.17,0,0,0,10.58-12.92q4.3-7.95,4.3-19.7t-4.3-19.71a41.28,41.28,0,0,0-10.58-12.92,39.88,39.88,0,0,0-13.18-7.05,43.48,43.48,0,0,0-12.4-2.09,71.65,71.65,0,0,0-10.31.79,84.45,84.45,0,0,0-9.26,1.82v78.31a84.26,84.26,0,0,0,9.26,1.83A71.59,71.59,0,0,0,2152.85,1640.77Z"/><path class="cls-1" d="M2260.39,1548.11a46.71,46.71,0,0,1,11.36,1.17,13.11,13.11,0,0,1,7.3,4.7,21.43,21.43,0,0,1,3.79,9.66,98,98,0,0,1,1,15.79v50.9l54.82-54.82q5-5,9.52-9.78a83.35,83.35,0,0,1,9.66-8.75,47.29,47.29,0,0,1,11.22-6.39,37.1,37.1,0,0,1,14-2.48h13v6.52a44.81,44.81,0,0,0-18.92,3.79q-8.22,3.78-18.93,14.48l-50.9,50.9,60,62.47a145.65,145.65,0,0,0,22.58,19.39q11.87,8.21,21.79,9.5v5.22a48,48,0,0,1-6.92,1.83,54.24,54.24,0,0,1-10,.78,58.13,58.13,0,0,1-11.36-1.17,50.63,50.63,0,0,1-12.79-4.7,96.53,96.53,0,0,1-14.75-9.53,150.68,150.68,0,0,1-17.22-15.92l-54.82-57.43v86.14h-23.49v-141q0-11.75-3.26-18.92t-15-7.18h-5.22v-5.22Z"/><path class="cls-1" d="M2531.32,1548.11a28.85,28.85,0,0,1,11.1,1.82,18.16,18.16,0,0,1,6.78,4.7,15.88,15.88,0,0,1,3.4,6.66,33.16,33.16,0,0,1,.91,7.7v19.58h-5.22q0-15.66-8.48-22.84t-24.15-7.18h-48.55v67.86h70.48v10.44h-70.48v73.09h45.68q17.74,0,28.06-6.53t16.31-22.18l5.23,1.3-9.14,24.8a19.38,19.38,0,0,1-6.92,9.53q-4.83,3.53-12.66,3.52h-90.05v-141q0-11.75-3.26-18.92t-15-7.18h-5.22v-5.22Z"/><path class="cls-1" d="M2725.52,1548.11v10.44h-58.73v161.83H2643.3V1558.55h-23.49q-15.66,0-24.15,7.18t-8.48,22.84H2582V1569a32.63,32.63,0,0,1,.91-7.7,15.66,15.66,0,0,1,3.4-6.66,18.16,18.16,0,0,1,6.78-4.7,28.88,28.88,0,0,1,11.1-1.82Z"/><path class="cls-1" d="M2834.62,1720.38v-141q0-11.75-3.26-18.92t-15-7.18h-5.22v-5.22h23.49a46.65,46.65,0,0,1,11.36,1.17,13.17,13.17,0,0,1,7.31,4.7,21.54,21.54,0,0,1,3.78,9.66,96.71,96.71,0,0,1,1,15.79v130.51h78.3V1548.11h23.49v161.83h14.36a8.92,8.92,0,0,1,9.13,9.14v48.28h-11.74a141.42,141.42,0,0,0-4.18-22.31,45.89,45.89,0,0,0-6.65-14.49,23.33,23.33,0,0,0-9.53-7.83,30.79,30.79,0,0,0-12.27-2.35Z"/><path class="cls-1" d="M3066.93,1548.11a199.46,199.46,0,0,1,22.58,1.43,76.07,76.07,0,0,1,23,6.27,47.87,47.87,0,0,1,17.75,13.83q7.17,9,7.17,24.15,0,11.74-8.09,21.79t-25.84,16.05q12.78,2.1,21,5.88a41.14,41.14,0,0,1,13.18,9.13,29.78,29.78,0,0,1,6.92,12.14,52.4,52.4,0,0,1,2,14.62q0,14.61-6.66,23.88a45.2,45.2,0,0,1-17,14.36,76.16,76.16,0,0,1-23.1,6.91,176.85,176.85,0,0,1-25.06,1.83h-52.2v-141q0-11.75-3.27-18.92t-15-7.18h-5.22v-5.22Zm3.91,79.61a53.12,53.12,0,0,0,15.27-2.22,41.65,41.65,0,0,0,13.32-6.66,35,35,0,0,0,9.52-11,31,31,0,0,0,3.66-15.4,28.27,28.27,0,0,0-4.44-16,37.47,37.47,0,0,0-11.22-11,49.1,49.1,0,0,0-15.14-6.27,67.78,67.78,0,0,0-26.5-1.17,84,84,0,0,0-9.26,1.82v67.87Zm-24.79,10.44v69.43a82.47,82.47,0,0,0,12.39,2.74,87.62,87.62,0,0,0,12.4.91q23.76,0,36.68-9.39t12.92-27.15q0-17.75-12.53-27.14t-37.07-9.4Z"/><path class="cls-1" d="M3279.14,1548.11a28.83,28.83,0,0,1,11.09,1.82,18.28,18.28,0,0,1,6.79,4.7,15.75,15.75,0,0,1,3.39,6.66,32.63,32.63,0,0,1,.91,7.7v19.58h-5.22q0-15.66-8.48-22.84t-24.15-7.18h-48.55v67.86h70.48v10.44h-70.48v73.09h45.68q17.74,0,28.06-6.53t16.32-22.18l5.22,1.3-9.14,24.8a19.32,19.32,0,0,1-6.92,9.53q-4.83,3.53-12.66,3.52h-90.05v-141q0-11.75-3.26-18.92t-15-7.18h-5.22v-5.22Z"/><path class="cls-1" d="M3473.33,1548.11v10.44H3414.6v161.83h-23.49V1558.55h-23.49q-15.66,0-24.14,7.18t-8.49,22.84h-5.22V1569a32.12,32.12,0,0,1,.92-7.7,15.53,15.53,0,0,1,3.39-6.66,18.16,18.16,0,0,1,6.78-4.7,28.88,28.88,0,0,1,11.1-1.82Z"/><path class="cls-1" d="M3484.3,1634.24a111.37,111.37,0,0,1,5.61-35.76,87.05,87.05,0,0,1,16.18-29.1,75.28,75.28,0,0,1,25.58-19.45,83.42,83.42,0,0,1,67.08,0,75.19,75.19,0,0,1,25.58,19.45,87.25,87.25,0,0,1,16.19,29.1,117.19,117.19,0,0,1,0,71.65,87.36,87.36,0,0,1-16.19,29,75.16,75.16,0,0,1-25.58,19.44,83.31,83.31,0,0,1-67.08,0,75.26,75.26,0,0,1-25.58-19.44,87.17,87.17,0,0,1-16.18-29A110.94,110.94,0,0,1,3484.3,1634.24Zm135.73,0a137.5,137.5,0,0,0-3.79-33.54,81.84,81.84,0,0,0-10.83-25.58,49.24,49.24,0,0,0-17.23-16.18,49.83,49.83,0,0,0-45.94,0,49.21,49.21,0,0,0-17.22,16.18,81.85,81.85,0,0,0-10.84,25.58,150.73,150.73,0,0,0,0,67.09,81.69,81.69,0,0,0,10.84,25.57,49.15,49.15,0,0,0,17.22,16.19,49.83,49.83,0,0,0,45.94,0,49.18,49.18,0,0,0,17.23-16.19,81.68,81.68,0,0,0,10.83-25.57A137.52,137.52,0,0,0,3620,1634.24Z"/><path class="cls-1" d="M3734.87,1548.11a199.18,199.18,0,0,1,22.58,1.43,76,76,0,0,1,23,6.27,47.79,47.79,0,0,1,17.75,13.83q7.18,9,7.18,24.15,0,11.74-8.09,21.79t-25.84,16.05q12.78,2.1,21,5.88a41.26,41.26,0,0,1,13.18,9.13,30,30,0,0,1,6.92,12.14,52.78,52.78,0,0,1,1.95,14.62q0,14.61-6.65,23.88a45.31,45.31,0,0,1-17,14.36,76,76,0,0,1-23.1,6.91,176.82,176.82,0,0,1-25.05,1.83H3690.5v-141q0-11.75-3.26-18.92t-15-7.18H3667v-5.22Zm3.92,79.61a53.12,53.12,0,0,0,15.27-2.22,41.5,41.5,0,0,0,13.31-6.66,34.93,34.93,0,0,0,9.53-11,31.07,31.07,0,0,0,3.65-15.4,28.34,28.34,0,0,0-4.43-16,37.62,37.62,0,0,0-11.23-11,49,49,0,0,0-15.14-6.27,67.73,67.73,0,0,0-26.49-1.17,84.2,84.2,0,0,0-9.27,1.82v67.87Zm-24.8,10.44v69.43a82.6,82.6,0,0,0,12.4,2.74,87.41,87.41,0,0,0,12.4.91q23.74,0,36.67-9.39t12.92-27.15q0-17.75-12.53-27.14t-37.06-9.4Z"/><path class="cls-1" d="M723.9,1283.83c-2.44-3.12-60.42-77-124.46-121.89-127-89-191-107.54-193.7-108.28l-3-.84-3,.84C397.07,1054.4,333,1073,206,1161.94c-64,44.88-122,118.77-124.45,121.89L79,1287.14l.24,4.19c.27,4.55,6.89,112.55,39.19,201.94,32.07,88.74,77.38,170.55,77.84,171.37l2.08,3.73,4,1.39c1.05.36,9.7,3.25,24.55,7a15.25,15.25,0,0,0,1.55.38c31.6,7.86,89.83,19.15,164.22,19.15,3.31,0,6.66,0,10-.06,117,1.48,197-25.32,200.34-26.46l4-1.39,2.08-3.73c.45-.82,45.78-82.63,77.84-171.37,32.3-89.39,38.92-197.39,39.19-201.94l.24-4.19ZM402.89,1674h-.31a677.12,677.12,0,0,1-140.77-12.3c47-32.58,109.09-83.12,112.9-124.92,7.14.41,14.68.68,22.41.89a10.68,10.68,0,0,0,1.3.25l4.3-.11,4.29.11h.16a10.08,10.08,0,0,0,1.24-.25c7.71-.21,15.23-.48,22.36-.89,4.13,42.4,69.84,92.55,118,123.89A685,685,0,0,1,402.89,1674Zm-53-159.37c-52.19-5.74-87.44-19.44-122.23-45.59-52.88-39.73-75.73-77.3-84.45-95.44,18.86-.89,57.81.77,105.75,22C315.24,1425,335.37,1471.37,349.88,1514.59Zm206.61-119c42-18.62,77.12-22.2,97.87-22.2,2.92,0,5.55.07,7.87.18-8.72,18.16-31.57,55.71-84.45,95.44-34.79,26.15-70,39.85-122.22,45.59C470.08,1471.37,490.2,1425,556.49,1395.58ZM371.61,1516.47c-4.67-14.31-9.86-29.53-16.95-44.78a143,143,0,0,0,47,8.19,149.16,149.16,0,0,0,49.26-8.55c-7.19,15.36-12.41,30.72-17.13,45.14-9.75.63-20.16,1-31.1,1.24C391.77,1517.49,381.36,1517.1,371.61,1516.47Zm294.5-30.75c-27.52,76.17-65.05,147.22-74.26,164.26-3.31,1-8.62,2.54-15.69,4.37-57.64-35.61-123.23-86.55-125.62-119.08,60-5.61,99.67-20.48,139.29-50.24,79.49-59.73,95.74-115.06,96.4-117.38a10,10,0,0,0-7.69-12.54c-2.25-.45-56.1-10.69-130.17,22.15-39.14,17.34-63.89,40.28-80.79,64.78a9.7,9.7,0,0,0-2.55,1c-.57.37-57.42,36-122.34,1.81a10.06,10.06,0,0,0-3.7-1.08c-16.92-25.14-41.87-48.76-81.92-66.5-74.08-32.84-127.91-22.6-130.17-22.15a10,10,0,0,0-7.69,12.54c.66,2.32,16.91,57.65,96.39,117.38,39.63,29.77,79.27,44.64,139.33,50.24-2.07,32.25-64.16,83.53-120.1,120.46-9.84-2.43-17.11-4.52-21.21-5.76-9.21-17-46.71-88-74.26-164.25-27.7-76.65-36-170.66-37.61-191.48,12-14.83,63.15-76.29,117.06-114.07,108.15-75.78,170-99.36,183.93-104.11,13.92,4.75,75.76,28.33,183.92,104.11,53.86,37.74,105.07,99.24,117.06,114.07C702.16,1315.05,693.83,1409,666.11,1485.72ZM557.05,1313.19c-2.15-5.42-2.1-10.87-2-16.63,0-1.52,0-3,0-4.58a200.13,200.13,0,0,0-2.06-26.46c-1.95-12.94-7.36-23.44-16.07-31.23-2.34-2.1-3-3.9-2.4-7.13a104.19,104.19,0,0,0,.8-31.71c-2.54-19.28-9.91-32.09-23.19-40.32a1.8,1.8,0,0,1-.67-.8c-2.85-11-10.39-15.9-21.82-14.1a9.8,9.8,0,0,1-4.92-.44,126.12,126.12,0,0,0-32.85-8.5c-16-1.77-28.66.6-39.91,7.5a3.24,3.24,0,0,1-1.94-.07c-2.15-.77-4.28-1.67-6.4-2.55a85.44,85.44,0,0,0-11.5-4.16c-20-5.24-37.93-6.68-54.67-4.42-13,1.74-22.57,5.67-30,12.35a10.73,10.73,0,0,1-6.72,3c-8,.65-13,5-14.46,12.66-.16.83-.3,1.7-.42,2.55a18.82,18.82,0,0,1-1.52,5.9c-1.52,2.92-3.4,5.78-5.2,8.54-1.43,2.17-2.85,4.35-4.15,6.59-7.17,12.36-10.93,23.94-11.49,35.38-.29,5.94-.4,12.84,2.1,19.61a3.64,3.64,0,0,1-.15,2.35c-13,14.77-20.62,30.13-23.21,46.94a54.84,54.84,0,0,0,3.77,30.24,6.61,6.61,0,0,1,.58,4.06c-3.47,9.06-.18,17.07,9,22a14.26,14.26,0,0,1,4.61,3.43c7,9.34,15.74,20,27.06,28.64,11.09,8.4,21.36,12.75,32.3,13.68,2.51.22,3.32,1,4.45,3.17,13.24,25.52,33.64,38.91,60.64,39.79a6.18,6.18,0,0,1,3.58,1.4c3.71,3.33,7.65,5,11.7,5a18,18,0,0,0,9.93-3.3l.7-.46c3.15-2.09,6.4-4.25,9.8-5.43,12.92-4.5,23-9.4,31.64-15.41,9.67-6.71,21.14-16.49,24.28-32.78,1.88-.33,3.78-.6,5.67-.87,2.82-.4,5.63-.81,8.41-1.41,2.28-.51,4.53-1.08,6.62-1.64,1.25-.25,2.61-.54,4.16-.94a89.38,89.38,0,0,0,19.34-7.45l.19.07,1-.69a55.93,55.93,0,0,0,10.24-6.94,44.92,44.92,0,0,0,15.64-23.44,6.68,6.68,0,0,1,2.4-3.05C552.59,1329.07,560.87,1322.84,557.05,1313.19Zm-295.78,7.37c2-3.46,2-6.08-.11-9.65-5.54-9.46-6.5-20.12-2.93-32.59A78.52,78.52,0,0,1,275,1248c6.5-7.39,15-12.07,23.84-16.62,2.38-1.21,4.87-2.24,7.5-3.32l.41-.17c-.41,2-.84,4-1.25,5.9-1.47,6.83-2.86,13.28-3.76,19.89-2.19,16.12-1.88,30.56.94,44.14,2.57,12.4,6.76,22.57,12.79,31.1a3.46,3.46,0,0,1,.48,2c-.89,13.41.79,26.72,2.73,39.11a2.83,2.83,0,0,1,0,.5l-1-.22a47.26,47.26,0,0,1-6.62-1.79c-14.11-5.31-24.3-16-31.61-24.73-1.6-1.91-3.06-3.94-4.52-6s-3.13-4.33-4.84-6.36c-1.56-1.86-3.94-2.88-5.86-3.7-2.55-1.09-3.94-2.09-4.26-3.07S260.16,1322.47,261.27,1320.56Zm38.51-157.38,0-.63c.11-1.83.33-4,1.13-4.7a3.45,3.45,0,0,1,2.15-.47,21.46,21.46,0,0,1,2.4.17c3.69.44,6.19-.52,8.68-3.54,5.92-7.16,14.4-10.9,27.47-12.09a130.93,130.93,0,0,1,46.36,4.17c18.12,4.94,32.05,14.58,42.51,29.4l-1.71,0c-4.23,0-8.19.07-12.12-.15a14.21,14.21,0,0,1-4.82-1.66l-.9-.42c-11.87-5.47-24.33-4.71-36.08-3.43a91,91,0,0,0-28.87,7.72,62.22,62.22,0,0,0-30.05,28.5c-1.49,2.91-3.31,4.06-6.35,5.27-7.25,2.9-14.4,6.35-21.3,9.7-2.49,1.21-5,2.41-7.47,3.59a23.92,23.92,0,0,0-2.31,1.31c-1.48-5.28-.91-10.43-.19-14.46,2.34-13.16,8.2-25.64,18.45-39.29C298.56,1169.85,300.39,1167,299.78,1163.18Zm169.57,162c-7.36,6-13.83,10.64-21.42,13.56a54.45,54.45,0,0,1-33.19,2c-3.57-.85-7.15-2.08-10.62-3.27-1.55-.53-3.09-1.06-4.65-1.57-5.22-1.68-8.6-5.71-12.18-10l-1.18-1.41c-.8-.93-1.54-1.89-2.33-2.94,17.73,4.08,33.31,2.54,47.54-4.78,10.72-5.52,19.1-14.25,25.64-26.71,9.24-17.61,11.53-36.56,12.48-51.1a223.53,223.53,0,0,0-.08-23.45,12.68,12.68,0,0,0-2.9-7.82c-1.72-1.89-6.16-2.07-8.07-.78a9.53,9.53,0,0,0-3.84,7.14c0,2,0,4,.11,6.07-4.81-11.59-10.27-20.85-17-28.77.83.12,1.65.26,2.47.4,15,2.69,26.63,8.66,35.5,18.25,7.31,7.91,12.2,18,14.56,30,2.09,10.62,4,21,4.35,31.5C495.29,1292.86,486.81,1310.94,469.35,1325.19Zm-29-36.19c-.23-1.65-.44-3.29-.66-4.93-1-7.32-2-14.91-3.69-22.2-2.42-10.49-7.91-18-16.73-22.94l13.2-6.85c6,5.54,10,12.79,12.2,22.15a95.66,95.66,0,0,1,2.33,18.44C447.32,1279.06,444,1283.9,440.39,1289Zm-15.27-.12c0,1.92,0,3.83-.05,5.75-.06,2.38-.11,4.75,0,7.11,0,1.48-.44,2.17-2,2.85-11.66,5-23.52,5.85-36.25,2.56-14.5-3.74-24.51-13.66-31.49-31.25-.39-1,.5-3.25,1.15-4.91l.57-1.52c5.14-14.39,10.92-25.2,18.18-34,8.41,7.87,19.09,12.64,33.42,15,4.9.79,8.64,4.13,11.43,10.21C424.25,1269.8,425,1279.63,425.12,1288.88ZM386,1225.53c8-6.46,21.21-6.17,31.54-2.46-2.59,1.44-5.11,2.84-7.54,4.38a43.46,43.46,0,0,0-4.05,3c-1,.82-2,1.65-3.15,2.38-.75.52-1.59.84-1.53.94C395.83,1231.08,390.49,1228.06,386,1225.53Zm134.87-7.28c-1.05,12.33-2.66,22.47-7.09,31.93a67.37,67.37,0,0,1-5.06,8.91l-.22-1.4c-.73-4.75-1.47-9.51-2.38-14.23-2-10.49-5.42-24-13.72-35.94-9.6-13.75-23-23.13-39.72-27.86a7,7,0,0,1-4.79-4,87.05,87.05,0,0,0-22.63-27.14c6.15-2.52,12.85-3.46,21.29-2.91,11.88.71,23.81,3.87,37.54,9.94,1.74.77,3.67.32,5.39-.06l1-.22c1.64-.32,4.67-.88,5.46-.32s1.17,3.57,1.34,4.85c.56,4.22,2.68,6,5.71,7.47,7.85,3.72,13.06,10.62,15.92,21.06C521.22,1196.78,521.83,1206.3,520.82,1218.25Zm-205.31,46.1c1.62-23.21,6.83-41.09,16.36-56.28,6.45-10.28,16.22-17.12,29.06-20.33a157,157,0,0,1,24.56-4c14.25-1.23,27.14,4.18,39.44,16.43a65.57,65.57,0,0,1,10.8,14.74,42.17,42.17,0,0,0-8-3.68l-1.7-.65c-26.6-10.33-46.84-4.79-63.63,17.42a171.31,171.31,0,0,0-11.46,18.12c-.65,1.13-1.3,2.27-2,3.4-.43-3.55-.85-7.21-.94-10.83-.16-7,.1-14.17.34-21.1l.11-3.06c.16-4.54-2.37-8-6.26-8.72a6.88,6.88,0,0,0-5.49,1.34,7.74,7.74,0,0,0-2.94,5.51c-.55,5.87-.8,11.77-.76,17.53.14,19.36,2.61,35,7.77,49.34a87.38,87.38,0,0,0,12.73,23.06,127,127,0,0,1,7.3,11.28c.9,1.51,1.8,3,2.72,4.51a143.7,143.7,0,0,0,21.76,27l-1.91,0a86.68,86.68,0,0,1-11.57-.18c-16.45-1.72-29.38-7.87-39.54-18.81-7.26-7.81-12-17.51-15-30.5C315.19,1286.75,314.63,1276.73,315.51,1264.35Zm16.45,81.4a97.47,97.47,0,0,0,8.38,5.08c17.21,8.92,34.87,11.72,52.57,8.3,5.95-1.11,10.18.59,15.1,3.73,14.87,9.52,32.15,14.74,51.32,15.5.45,0,.89.05,1.34.09-2.31,6.75-6.85,12.35-14.45,17.92-9.81,7.19-21.57,12.75-35.93,17a14.56,14.56,0,0,0-5.18,3.3c-.53.45-1.05.89-1.58,1.29-2,1.5-3.39,2.16-4.06,2s-1.78-1.09-3.13-3-3.17-3.89-6.62-3.89a10.56,10.56,0,0,0-1.1.06c-18.1,2-32.94-5.14-46.58-22.36-6.75-8.51-8.25-18.67-9.89-29.74-.54-3.73-.79-7.61-1-11.36-.09-1.47-.18-2.93-.29-4.39a2.11,2.11,0,0,1,0-.25ZM428,1356.87a66,66,0,0,0,29.08-6c11.34-5.23,21.92-13.35,32.33-24.83a71.81,71.81,0,0,0,18.06-36.41c.56-3.21,1.05-6,3.24-8.35a86.57,86.57,0,0,0,15.67-23.67c1.19-2.64,2.28-5.33,3.4-8.07l.44-1,.26.37.32.48c3.9,5.48,6.5,12.1,8.2,20.83a93.87,93.87,0,0,1,.39,32.79,12.37,12.37,0,0,0,1.54,8.67c1.31,2.36,2.48,4.67,2.18,5.6s-2.81,2.24-5.13,3.34a6.29,6.29,0,0,0-4,5.29,28.15,28.15,0,0,1-9.22,18.34c-1.92,1.74-4,3.29-5.95,4.79l-1.24,1c-1.48.89-2.84,1.65-4,2.24-2.46,1.11-4.93,2.11-7.24,3a12.37,12.37,0,0,1-1.58.37l-2,1a137.91,137.91,0,0,1-35.92,7C453.68,1364.41,437.59,1361.07,428,1356.87Z"/></svg>