<?xml version="1.0" encoding="UTF-8" standalone="no"?>
<!DOCTYPE svg PUBLIC "-//W3C//DTD SVG 1.1//EN" "http://www.w3.org/Graphics/SVG/1.1/DTD/svg11.dtd">
<svg xmlns="http://www.w3.org/2000/svg" version="1.1" viewBox="0.00 0.00 88.00 89.00">
<path fill="#000000" d="
  M 64.23 29.58
  A 0.63 0.62 27.6 0 0 64.53 30.53
  Q 70.43 32.65 68.00 38.73
  Q 67.78 39.27 68.01 39.81
  Q 70.37 45.41 64.86 48.01
  Q 64.53 48.17 64.45 48.53
  Q 61.56 61.77 49.13 67.08
  A 1.08 1.07 74.6 0 0 48.48 68.23
  Q 49.70 76.54 53.26 84.14
  A 0.60 0.59 62.8 0 1 53.02 84.91
  L 51.62 85.73
  Q 50.94 86.13 50.68 85.40
  L 48.65 79.90
  A 0.19 0.19 0.0 0 0 48.36 79.82
  L 48.09 80.02
  Q 47.95 80.12 47.96 80.30
  Q 48.13 82.57 48.30 84.84
  A 0.56 0.55 -88.0 0 1 47.67 85.44
  L 45.76 85.16
  Q 45.13 85.07 45.16 84.43
  L 45.54 74.53
  Q 45.54 74.36 45.39 74.30
  Q 45.27 74.25 45.14 74.21
  Q 44.96 74.15 44.90 74.33
  L 41.44 85.20
  Q 41.26 85.74 40.72 85.57
  L 39.10 85.08
  A 0.56 0.56 0.0 0 1 38.74 84.37
  L 42.48 73.26
  Q 42.64 72.79 42.16 72.64
  Q 33.72 70.04 31.81 61.44
  Q 31.69 60.92 31.76 60.38
  L 31.91 59.31
  A 0.40 0.40 0.0 0 0 31.14 59.09
  Q 29.26 63.35 25.24 61.12
  Q 24.80 60.87 24.62 60.39
  Q 23.94 58.51 22.18 59.17
  Q 21.71 59.35 21.21 59.23
  Q 17.17 58.25 18.15 54.26
  Q 18.28 53.74 18.67 53.36
  Q 20.34 51.75 18.48 50.33
  A 0.85 0.84 12.4 0 1 18.18 49.87
  Q 17.10 45.38 21.25 44.71
  Q 21.88 44.60 21.51 44.08
  C 19.00 40.62 19.66 37.42 18.44 34.11
  Q 17.56 31.71 16.50 29.35
  A 1.33 1.31 -83.4 0 1 18.50 27.74
  Q 18.90 28.05 19.40 28.01
  Q 20.00 27.95 19.78 27.39
  Q 17.89 22.62 19.35 17.60
  A 1.40 1.39 37.1 0 1 21.87 17.25
  L 23.38 19.66
  A 0.42 0.41 -58.1 0 0 24.14 19.48
  L 24.78 13.77
  A 1.38 1.38 0.0 0 1 27.24 13.07
  Q 29.63 16.11 33.49 16.71
  A 0.48 0.48 0.0 0 0 34.04 16.20
  C 33.54 9.78 37.33 6.55 41.96 3.11
  A 1.07 1.05 -44.2 0 1 43.24 3.12
  Q 47.12 6.12 47.67 10.93
  Q 47.74 11.50 48.30 11.36
  Q 51.91 10.48 53.32 13.76
  A 0.55 0.55 0.0 0 0 54.36 13.68
  L 55.14 10.55
  A 1.30 1.30 0.0 0 1 57.54 10.24
  C 59.52 13.85 62.03 16.88 60.74 21.41
  A 0.45 0.44 -87.0 0 0 61.24 21.97
  Q 65.84 21.18 69.70 23.82
  A 1.28 1.28 0.0 0 1 69.30 26.11
  Q 66.14 26.92 64.23 29.58
  Z
  M 42.27 6.53
  C 37.75 9.63 34.56 14.22 38.64 19.40
  Q 39.66 20.69 40.44 21.95
  A 0.54 0.54 0.0 0 0 41.43 21.56
  Q 40.70 17.94 41.96 14.61
  A 1.93 1.92 81.4 0 1 42.57 13.78
  Q 46.94 10.36 42.67 6.55
  A 0.32 0.32 0.0 0 0 42.27 6.53
  Z
  M 50.91 15.21
  A 1.39 1.39 0.0 0 0 49.52 13.82
  A 1.39 1.39 0.0 0 0 48.13 15.21
  A 1.39 1.39 0.0 0 0 49.52 16.60
  A 1.39 1.39 0.0 0 0 50.91 15.21
  Z
  M 48.93 26.72
  Q 51.44 27.77 52.03 30.46
  A 0.49 0.49 0.0 0 0 53.00 30.33
  C 52.71 23.45 61.71 22.59 57.06 15.10
  A 0.27 0.26 44.3 0 0 56.60 15.10
  C 54.17 19.37 49.86 20.79 48.32 25.36
  Q 47.99 26.33 48.93 26.72
  Z
  M 46.8331 18.1115
  A 1.45 1.31 5.6 0 0 45.5178 16.6663
  A 1.45 1.31 5.6 0 0 43.9469 17.8285
  A 1.45 1.31 5.6 0 0 45.2622 19.2737
  A 1.45 1.31 5.6 0 0 46.8331 18.1115
  Z
  M 35.30 25.62
  Q 37.14 26.09 38.83 24.85
  Q 39.26 24.53 38.91 24.13
  L 35.05 19.64
  A 1.09 1.07 -20.7 0 0 34.21 19.27
  Q 30.70 19.35 27.81 17.45
  Q 27.34 17.14 27.19 17.68
  C 25.31 24.46 30.53 24.41 35.30 25.62
  Z
  M 31.91 30.53
  L 34.19 29.07
  A 0.77 0.77 0.0 0 0 33.70 27.66
  C 26.85 28.34 26.95 23.75 21.94 22.15
  Q 21.21 21.91 21.30 22.68
  Q 21.69 25.78 23.62 28.28
  Q 23.94 28.70 24.46 28.86
  Q 27.72 29.84 30.02 32.35
  A 0.53 0.53 0.0 0 0 30.90 32.18
  L 31.21 31.38
  Q 31.42 30.84 31.91 30.53
  Z
  M 46.29 22.19
  L 44.47 21.88
  A 0.25 0.25 0.0 0 0 44.18 22.08
  L 44.15 22.27
  A 4.24 1.01 -80.4 0 0 44.44 26.62
  L 44.76 26.67
  A 4.24 1.01 -80.4 0 0 46.46 22.66
  L 46.49 22.47
  A 0.25 0.25 0.0 0 0 46.29 22.19
  Z
  M 55.89 30.08
  L 59.67 31.24
  A 0.94 0.93 -73.1 0 0 60.84 30.61
  Q 61.81 27.32 64.63 25.45
  A 0.52 0.52 0.0 0 0 64.37 24.50
  C 62.07 24.41 54.99 26.72 55.81 29.99
  A 0.11 0.11 0.0 0 0 55.89 30.08
  Z
  M 36.20 31.72
  Q 33.26 31.72 32.96 34.68
  Q 32.91 35.13 33.20 35.48
  L 34.77 37.37
  A 0.79 0.79 0.0 0 1 34.77 38.38
  L 33.12 40.39
  A 0.70 0.68 -24.5 0 0 32.96 40.80
  Q 32.89 43.10 34.98 44.10
  A 1.01 1.00 -45.3 0 0 35.86 44.09
  Q 38.00 43.00 38.65 45.06
  Q 38.81 45.58 39.23 45.94
  Q 41.18 47.58 42.93 46.19
  Q 43.34 45.86 43.57 45.39
  L 44.71 43.10
  A 0.58 0.58 0.0 0 1 45.61 42.92
  Q 47.82 44.88 50.03 43.37
  A 1.28 1.27 74.7 0 0 50.58 42.40
  L 51.05 34.09
  A 0.92 0.92 0.0 0 0 50.57 33.22
  Q 49.33 32.57 49.45 31.10
  A 1.10 1.08 27.1 0 0 49.19 30.32
  Q 47.05 27.80 44.64 29.91
  A 1.41 1.40 59.0 0 1 42.40 29.35
  C 41.15 26.05 37.20 27.73 36.97 31.01
  A 0.77 0.76 2.0 0 1 36.20 31.72
  Z
  M 30.13 41.91
  C 30.91 35.98 26.91 30.97 20.78 31.08
  A 0.42 0.41 -13.2 0 0 20.41 31.67
  C 22.26 35.53 21.32 39.58 24.00 42.78
  A 0.51 0.51 0.0 0 0 24.77 42.79
  Q 26.88 40.39 29.50 42.19
  Q 30.05 42.57 30.13 41.91
  Z
  M 64.36 38.47
  Q 66.78 36.93 65.56 34.05
  A 0.79 0.78 -5.5 0 0 64.98 33.58
  L 62.52 33.15
  Q 61.92 33.05 61.63 33.59
  Q 61.07 34.64 60.05 35.02
  A 0.86 0.85 -28.3 0 1 59.06 34.73
  Q 57.17 32.15 54.44 33.86
  A 1.34 1.33 79.8 0 0 53.82 34.76
  Q 53.36 37.15 55.23 38.58
  A 0.82 0.81 30.5 0 1 55.49 39.55
  Q 55.13 40.38 54.43 40.93
  Q 53.98 41.28 53.84 41.83
  Q 53.20 44.22 55.48 45.25
  A 2.08 2.07 40.1 0 0 57.50 45.08
  L 59.52 43.72
  A 0.80 0.80 0.0 0 1 60.61 43.90
  C 62.59 46.53 66.19 45.76 65.88 42.11
  Q 65.84 41.61 65.51 41.23
  L 64.18 39.72
  A 0.83 0.83 0.0 0 1 64.36 38.47
  Z
  M 30.03 54.89
  L 33.92 56.62
  A 1.01 1.01 0.0 0 0 35.12 55.08
  Q 33.86 53.47 31.95 52.83
  A 0.95 0.95 0.0 0 1 31.63 51.21
  L 33.84 49.33
  Q 34.29 48.94 34.27 48.36
  Q 34.24 47.38 33.14 47.27
  Q 32.56 47.21 32.11 47.56
  Q 31.09 48.34 29.87 48.35
  A 0.71 0.71 0.0 0 1 29.16 47.79
  L 28.57 45.16
  A 1.13 1.13 0.0 0 0 26.35 45.21
  L 25.87 47.92
  A 0.58 0.58 0.0 0 1 25.12 48.37
  L 22.15 47.47
  A 1.08 1.07 -17.8 0 0 21.18 49.35
  L 23.31 50.99
  A 1.16 1.16 0.0 0 1 23.30 52.84
  L 20.86 54.68
  A 1.06 1.06 0.0 0 0 21.84 56.53
  L 24.44 55.65
  A 1.00 1.00 0.0 0 1 25.41 55.84
  Q 26.45 56.71 26.38 58.19
  A 1.05 1.05 0.0 0 0 28.45 58.50
  L 29.26 55.26
  A 0.56 0.56 0.0 0 1 30.03 54.89
  Z
  M 48.35 50.21
  C 48.96 49.17 51.69 46.56 51.77 46.31
  Q 51.86 46.05 51.64 45.81
  A 0.50 0.50 0.0 0 0 50.95 45.77
  Q 49.67 46.84 47.97 46.75
  A 0.63 0.63 0.0 0 0 47.32 47.44
  L 47.57 50.04
  A 0.42 0.42 0.0 0 0 48.35 50.21
  Z
  M 57.00 51.29
  A 0.68 0.67 32.8 0 1 57.21 52.23
  L 50.48 62.77
  A 0.34 0.34 0.0 0 0 50.94 63.24
  Q 59.01 58.30 61.52 49.14
  A 1.62 1.62 0.0 0 0 59.07 47.35
  Q 56.98 48.72 54.50 47.94
  A 1.08 1.06 -57.9 0 0 53.44 48.19
  Q 48.37 53.14 47.97 60.27
  A 0.42 0.42 0.0 0 0 48.74 60.51
  L 54.83 50.76
  A 0.71 0.71 0.0 0 1 55.81 50.54
  L 57.00 51.29
  Z
  M 36.19 50.70
  Q 35.86 51.05 35.73 51.66
  A 0.65 0.65 0.0 0 0 36.99 51.98
  L 38.10 48.30
  A 0.43 0.42 -27.0 0 0 37.29 48.04
  L 36.55 50.10
  Q 36.43 50.44 36.19 50.70
  Z
  M 43.97 51.67
  A 2.04 2.04 0.0 0 0 41.93 49.63
  A 2.04 2.04 0.0 0 0 39.89 51.67
  A 2.04 2.04 0.0 0 0 41.93 53.71
  A 2.04 2.04 0.0 0 0 43.97 51.67
  Z
  M 37.72 61.80
  A 1.33 1.33 0.0 0 1 40.19 60.82
  L 43.30 67.26
  A 0.42 0.42 0.0 0 0 44.09 67.18
  Q 46.18 59.16 38.89 55.51
  A 0.67 0.67 0.0 0 0 37.92 56.02
  Q 37.62 58.46 35.26 59.02
  A 1.11 1.10 79.2 0 0 34.42 60.26
  Q 35.27 66.15 40.37 69.10
  A 0.53 0.53 0.0 0 0 41.08 68.34
  Q 38.65 64.74 37.72 61.80
  Z
  M 45.42 56.64
  Q 45.94 55.91 45.23 55.48
  A 0.60 0.60 0.0 0 0 44.57 56.47
  L 44.91 56.72
  Q 45.21 56.94 45.42 56.64
  Z"
/>
<path fill="#000000" d="
  M 48.06 37.20
  A 5.46 5.46 0.0 0 1 42.60 42.66
  A 5.46 5.46 0.0 0 1 37.14 37.20
  A 5.46 5.46 0.0 0 1 42.60 31.74
  A 5.46 5.46 0.0 0 1 48.06 37.20
  Z
  M 45.33 37.22
  A 2.71 2.71 0.0 0 0 42.62 34.51
  A 2.71 2.71 0.0 0 0 39.91 37.22
  A 2.71 2.71 0.0 0 0 42.62 39.93
  A 2.71 2.71 0.0 0 0 45.33 37.22
  Z"
/>
<rect fill="#000000" x="-2.18" y="-2.16" transform="translate(59.79,39.29) rotate(-42.9)" width="4.36" height="4.32" rx="1.36"/>
<circle fill="#000000" cx="27.52" cy="52.31" r="2.68"/>
</svg>
