<svg width="35" height="32" viewBox="0 0 35 32" fill="none" xmlns="http://www.w3.org/2000/svg">
<path d="M12.5 29C13.3284 29 14 28.3284 14 27.5C14 26.6716 13.3284 26 12.5 26C11.6716 26 11 26.6716 11 27.5C11 28.3284 11.6716 29 12.5 29Z" fill="black" stroke="black" stroke-width="3" stroke-linecap="round" stroke-linejoin="round"/>
<path d="M29.5001 29C30.3284 29 31 28.3284 31 27.5C31 26.6716 30.3284 26 29.5001 26C28.6716 26 28 26.6716 28 27.5C28 28.3284 28.6716 29 29.5001 29Z" fill="black" stroke="black" stroke-width="3" stroke-linecap="round" stroke-linejoin="round"/>
<path d="M1.45801 1.3252H7.29134L11.1997 19.0771C11.333 19.6874 11.6983 20.2358 12.2315 20.6259C12.7647 21.0161 13.4319 21.2234 14.1163 21.2115H28.2914C28.9758 21.2234 29.643 21.0161 30.1761 20.6259C30.7094 20.2358 31.0747 19.6874 31.208 19.0771L33.5414 7.95399H8.74968" stroke="black" stroke-width="3" stroke-linecap="round" stroke-linejoin="round"/>
</svg>
