<?xml version="1.0" standalone="no"?>
<!DOCTYPE svg PUBLIC "-//W3C//DTD SVG 20010904//EN"
 "http://www.w3.org/TR/2001/REC-SVG-20010904/DTD/svg10.dtd">
<svg version="1.0" xmlns="http://www.w3.org/2000/svg"
 width="512.000000pt" height="512.000000pt" viewBox="0 0 512.000000 512.000000"
 preserveAspectRatio="xMidYMid meet">

<g transform="translate(0.000000,512.000000) scale(0.100000,-0.100000)"
fill="#ff0000" stroke="none">
<path d="M1876 4784 c-79 -19 -169 -69 -227 -125 -27 -26 -95 -118 -152 -206
-61 -93 -122 -174 -147 -196 -46 -39 -68 -47 -334 -121 -71 -20 -153 -50 -182
-67 -76 -43 -158 -130 -198 -209 -51 -103 -60 -172 -49 -390 9 -189 5 -246
-22 -304 -9 -18 -59 -86 -112 -152 -190 -235 -218 -291 -218 -454 0 -160 25
-212 199 -430 64 -80 123 -159 131 -177 27 -57 31 -114 22 -303 -11 -217 -2
-287 49 -389 39 -78 124 -168 199 -211 28 -16 110 -46 181 -66 266 -74 288
-82 334 -121 25 -22 86 -103 147 -196 57 -88 125 -180 152 -206 99 -96 243
-148 384 -137 64 4 112 18 270 78 254 96 267 97 489 10 87 -34 183 -69 215
-77 157 -41 345 10 464 126 27 26 95 118 152 206 61 93 122 174 148 196 45 39
50 41 318 117 79 22 168 54 196 70 70 40 156 129 194 199 54 102 64 170 54
381 -13 297 -15 289 138 481 143 179 163 208 190 284 31 85 31 245 0 330 -27
76 -47 105 -190 284 -153 192 -151 184 -138 481 10 211 0 279 -54 381 -38 70
-124 159 -194 199 -28 16 -117 48 -196 70 -268 76 -273 78 -318 117 -26 22
-87 103 -148 196 -57 87 -126 180 -154 207 -101 97 -241 147 -382 136 -64 -4
-112 -18 -270 -78 -254 -96 -267 -97 -489 -10 -87 34 -183 69 -215 77 -70 18
-159 18 -237 -1z m379 -277 l190 -72 115 0 115 0 195 74 c210 81 253 88 343
62 73 -21 130 -80 243 -251 104 -159 149 -211 219 -260 58 -40 96 -54 283
-105 208 -57 217 -60 270 -109 91 -84 104 -140 90 -388 -16 -301 -1 -349 191
-588 144 -180 165 -219 165 -310 0 -91 -21 -129 -165 -310 -192 -239 -207
-287 -191 -588 14 -248 1 -304 -90 -388 -53 -49 -62 -52 -270 -109 -187 -51
-225 -65 -283 -105 -70 -49 -114 -101 -220 -260 -114 -173 -147 -209 -220
-241 -91 -41 -142 -33 -365 52 l-195 74 -115 0 -115 0 -190 -73 c-206 -80
-257 -89 -348 -63 -73 21 -130 80 -243 251 -167 253 -208 284 -484 360 -228
63 -235 65 -288 114 -91 84 -104 140 -90 389 16 299 0 349 -191 587 -144 180
-165 219 -165 310 0 91 21 130 165 310 191 238 207 288 191 587 -14 249 -1
305 90 389 53 49 60 51 288 114 274 75 319 108 477 350 132 201 169 238 264
265 79 22 123 13 334 -68z"/>
<path d="M1745 3663 c-122 -44 -214 -127 -268 -241 -30 -63 -32 -73 -32 -183
0 -112 1 -117 37 -190 68 -138 185 -225 335 -250 234 -38 462 129 504 370 33
185 -71 381 -249 468 -70 35 -83 38 -176 41 -77 2 -113 -2 -151 -15z m208
-204 c49 -13 115 -73 138 -124 11 -23 19 -64 19 -96 1 -210 -256 -309 -398
-155 -64 69 -79 162 -41 246 27 60 54 88 114 116 54 26 108 30 168 13z"/>
<path d="M3305 3445 c-17 -8 -391 -376 -832 -818 -629 -630 -802 -809 -808
-833 -15 -74 55 -144 128 -129 25 6 197 172 834 808 456 455 810 816 819 836
42 88 -54 180 -141 136z"/>
<path d="M3151 2319 c-75 -15 -168 -65 -224 -121 -220 -220 -159 -577 122
-716 73 -36 77 -37 191 -37 114 0 118 1 191 37 93 46 168 122 212 215 30 64
32 74 32 183 0 109 -2 119 -32 183 -90 189 -293 295 -492 256z m184 -228 c113
-53 165 -189 114 -301 -27 -60 -54 -88 -114 -116 -88 -42 -188 -25 -257 43
-77 75 -90 196 -32 289 57 92 189 131 289 85z"/>
</g>
</svg>
