<svg width="11" height="10" viewBox="0 0 11 10" fill="none" xmlns="http://www.w3.org/2000/svg">
<path fill-rule="evenodd" clip-rule="evenodd" d="M5.01367 0C2.25226 0 0.0136719 2.23855 0.0136719 5C0.0136719 7.76142 2.25226 10 5.01367 10C7.77512 10 10.0137 7.76142 10.0137 5C10.0137 2.23855 7.77512 0 5.01367 0ZM5.01367 9C2.80808 9 1.01367 7.2056 1.01367 5C1.01367 2.7944 2.80808 1 5.01367 1C7.2193 1 9.01367 2.7944 9.01367 5C9.01367 7.2056 7.2193 9 5.01367 9ZM5.63977 3C5.63977 3.36252 5.37582 3.625 5.01875 3.625C4.64724 3.625 4.38977 3.36252 4.38977 2.99307C4.38977 2.63797 4.65421 2.375 5.01875 2.375C5.37582 2.375 5.63977 2.63797 5.63977 3ZM4.51477 4.5H5.51477V7.5H4.51477V4.5Z" fill="#ff0000"/>
</svg>
