<svg width="34" height="35" viewBox="0 0 34 35" fill="none" xmlns="http://www.w3.org/2000/svg">
<g clip-path="url(#clip0_809_197)">
<path d="M17 2.04663V33.2133" stroke="#FF0000" stroke-width="2" stroke-linecap="round" stroke-linejoin="round"/>
<path d="M24.0833 7.71338H13.4583C12.1433 7.71338 10.8821 8.23578 9.95226 9.16565C9.02239 10.0955 8.5 11.3567 8.5 12.6717C8.5 13.9867 9.02239 15.2479 9.95226 16.1778C10.8821 17.1076 12.1433 17.63 13.4583 17.63H20.5417C21.8567 17.63 23.1179 18.1524 24.0477 19.0823C24.9776 20.0122 25.5 21.2733 25.5 22.5884C25.5 23.9034 24.9776 25.1646 24.0477 26.0944C23.1179 27.0243 21.8567 27.5467 20.5417 27.5467H8.5" stroke="#FF0000" stroke-width="2" stroke-linecap="round" stroke-linejoin="round"/>
</g>
<defs>
<clipPath id="clip0_809_197">
<rect width="34" height="34" fill="white" transform="translate(0 0.630005)"/>
</clipPath>
</defs>
</svg>
