<svg width="19" height="20" viewBox="0 0 19 20" fill="none" xmlns="http://www.w3.org/2000/svg">
<mask id="mask0_5_8493" style="mask-type:luminance" maskUnits="userSpaceOnUse" x="0" y="0" width="19" height="20">
<path d="M18.3607 0H0V20H18.3607V0Z" fill="white"/>
</mask>
<g mask="url(#mask0_5_8493)">
<path d="M12.2401 2.5H0.764648V13.3333H12.2401V2.5Z" stroke="#FF0000" stroke-width="1.5" stroke-linecap="round" stroke-linejoin="round"/>
<path d="M12.2402 6.66669H15.3003L17.5954 9.16669V13.3334H12.2402V6.66669Z" stroke="#FF0000" stroke-width="1.5" stroke-linecap="round" stroke-linejoin="round"/>
<path d="M4.20742 17.5C5.26372 17.5 6.12002 16.5672 6.12002 15.4166C6.12002 14.2661 5.26372 13.3333 4.20742 13.3333C3.15122 13.3333 2.29492 14.2661 2.29492 15.4166C2.29492 16.5672 3.15122 17.5 4.20742 17.5Z" stroke="#FF0000" stroke-width="1.5" stroke-linecap="round" stroke-linejoin="round"/>
<path d="M14.1527 17.5C15.209 17.5 16.0653 16.5672 16.0653 15.4166C16.0653 14.2661 15.209 13.3333 14.1527 13.3333C13.0965 13.3333 12.2402 14.2661 12.2402 15.4166C12.2402 16.5672 13.0965 17.5 14.1527 17.5Z" stroke="#FF0000" stroke-width="1.5" stroke-linecap="round" stroke-linejoin="round"/>
</g>
</svg>
