<svg width="26" height="23" viewBox="0 0 26 23" fill="none" xmlns="http://www.w3.org/2000/svg">
<mask id="mask0_369_184" style="mask-type:luminance" maskUnits="userSpaceOnUse" x="0" y="0" width="26" height="23">
<path d="M25.4044 0.657227H0.850586V22.1418H25.4044V0.657227Z" fill="white"/>
</mask>
<g mask="url(#mask0_369_184)">
<path d="M10.0582 20.3516C10.6233 20.3516 11.0813 19.9508 11.0813 19.4565C11.0813 18.962 10.6233 18.5612 10.0582 18.5612C9.49319 18.5612 9.03516 18.962 9.03516 19.4565C9.03516 19.9508 9.49319 20.3516 10.0582 20.3516Z" fill="#434D81" stroke="#434D81" stroke-width="2.3" stroke-linecap="round" stroke-linejoin="round"/>
<path d="M21.3132 20.3516C21.8781 20.3516 22.3361 19.9508 22.3361 19.4565C22.3361 18.962 21.8781 18.5612 21.3132 18.5612C20.7481 18.5612 20.29 18.962 20.29 19.4565C20.29 19.9508 20.7481 20.3516 21.3132 20.3516Z" fill="#434D81" stroke="#434D81" stroke-width="2.30192" stroke-linecap="round" stroke-linejoin="round"/>
<path d="M1.87402 1.55231H5.96633L8.70818 13.5389C8.80173 13.9511 9.05797 14.3213 9.43205 14.5848C9.80612 14.8483 10.2742 14.9882 10.7543 14.9802H20.6987C21.1787 14.9882 21.6468 14.8483 22.0209 14.5848C22.3951 14.3213 22.6512 13.9511 22.7448 13.5389L24.3818 6.02827H6.98942" stroke="#434D81" stroke-width="2.30192" stroke-linecap="round" stroke-linejoin="round"/>
</g>
</svg>
