<svg id="Слой_1" data-name="Слой 1" xmlns="http://www.w3.org/2000/svg" viewBox="0 0 3991.18 1941.17"><defs><style>.cls-1{fill:#e52421;}.cls-2{fill:#fff;}</style></defs><rect class="cls-1" x="-22.68" y="-9.07" width="4036.54" height="2004.66"/><path class="cls-2" d="M1109.35,739.39q-7.63-36.6-28-56.14t-53.72-19.52a97.83,97.83,0,0,0-34.61,6q-16.11,6-28.18,20.72t-18.9,39q-6.86,24.36-6.84,61A201.88,201.88,0,0,0,944,835a115.79,115.79,0,0,0,15.49,38,81.49,81.49,0,0,0,27.36,26.36q16.7,9.87,40.85,9.85a96.06,96.06,0,0,0,51.51-14.68q23.74-14.67,38.24-42.85l14.07,10.86q-18.92,33.4-46.27,49.09t-69.63,15.69q-31.79,0-56.54-10.45a117.27,117.27,0,0,1-41.65-29,126.12,126.12,0,0,1-25.75-43.46,160.19,160.19,0,0,1-8.86-53.93,158.58,158.58,0,0,1,10.06-57,143.81,143.81,0,0,1,27.77-45.86,129.65,129.65,0,0,1,42-30.8,124.53,124.53,0,0,1,52.92-11.26q37.83,0,61,9.86t34.4,22.74q8.05,10.47,9.25,27t1.22,34.2Z"/><path class="cls-2" d="M1167,816.12a121.37,121.37,0,0,1,7.25-42.15,99.15,99.15,0,0,1,20.85-34.25,97,97,0,0,1,33.15-22.82q19.51-8.35,44.12-8.35t44.12,8.35a97.3,97.3,0,0,1,33.14,22.82A99.32,99.32,0,0,1,1370.49,774a126.26,126.26,0,0,1,0,84.28,99.23,99.23,0,0,1-20.86,34.25,97.48,97.48,0,0,1-33.14,22.84q-19.54,8.32-44.12,8.33t-44.12-8.33a97.23,97.23,0,0,1-33.15-22.84,99.05,99.05,0,0,1-20.85-34.25A121.34,121.34,0,0,1,1167,816.12Zm151.46,0a198.76,198.76,0,0,0-2.86-34.91,107.12,107.12,0,0,0-8.56-27.88q-5.7-11.85-14.48-18.44a34.24,34.24,0,0,0-40.39,0q-8.78,6.58-14.49,18.44a107.89,107.89,0,0,0-8.56,27.88,215.17,215.17,0,0,0,0,69.81,107.81,107.81,0,0,0,8.56,27.87q5.71,11.85,14.49,18.44a34.24,34.24,0,0,0,40.39,0q8.78-6.58,14.48-18.44A107,107,0,0,0,1315.6,851,198.72,198.72,0,0,0,1318.46,816.12Z"/><path class="cls-2" d="M1612.6,923.67a97.82,97.82,0,0,1-38.63-7.46,91.77,91.77,0,0,1-30.51-20.86A102.34,102.34,0,0,1,1522.82,864a117.81,117.81,0,0,1-9-39.08h-17.55v94.39h-57.07V770q0-19.74-5.49-31.83t-25.25-12.06h-4.39V712.94h52.68q11.43,0,19.1,2.86a25.5,25.5,0,0,1,12.3,9.43c3.08,4.39,5.19,10.26,6.36,17.57a176.54,176.54,0,0,1,1.76,27.21v35.13h18a119.53,119.53,0,0,1,9.44-38.2,100.11,100.11,0,0,1,20.41-30.5A93.4,93.4,0,0,1,1574.19,716a96.22,96.22,0,0,1,38.41-7.46q22.39,0,40.61,8.35a93.54,93.54,0,0,1,31.17,22.82,102,102,0,0,1,20,34.25,129.82,129.82,0,0,1,0,84.28,101.88,101.88,0,0,1-20,34.25,93.73,93.73,0,0,1-31.17,22.84Q1635,923.67,1612.6,923.67Zm39.51-107.55a234.91,234.91,0,0,0-2.42-34.91,114.41,114.41,0,0,0-7.46-27.88q-5-11.85-12.5-18.44a25.18,25.18,0,0,0-17.13-6.59,24.9,24.9,0,0,0-17.35,6.59q-7.21,6.58-12.29,18.44a115.32,115.32,0,0,0-7.46,27.88,254,254,0,0,0,0,69.81,115.23,115.23,0,0,0,7.46,27.87q5.05,11.85,12.29,18.44a24.9,24.9,0,0,0,17.35,6.59,25.18,25.18,0,0,0,17.13-6.59q7.45-6.58,12.5-18.44a114.32,114.32,0,0,0,7.46-27.87A234.86,234.86,0,0,0,1652.11,816.12Z"/><path class="cls-2" d="M1790.85,802.94h22q26.33,0,36.22-8.78t9.87-28.54a40.68,40.68,0,0,0-3.28-16.89,31.23,31.23,0,0,0-8.79-11.64,37.94,37.94,0,0,0-12.73-6.59,50.55,50.55,0,0,0-14.7-2.2q-19.77,0-33.37,13.4t-14.93,34.9h-13.17q0-18.44,1.31-31.39t9.66-21.29q8.35-8.34,25-11.85a177,177,0,0,1,36.43-3.52q39.51,0,63.66,13.84t24.15,43.23q0,19.77-14.49,32.27t-38.19,16q27.23,3.52,43.24,17.12t16,33.36q0,15.81-6.59,27a52.3,52.3,0,0,1-18.66,18.45q-12.06,7.23-29,10.53a200,200,0,0,1-38,3.29q-31.18,0-50.48-10.09t-30.74-25l13.17-11a79.42,79.42,0,0,0,7.91,8.57,63.82,63.82,0,0,0,11.42,8.56,67.45,67.45,0,0,0,15.36,6.59,70.83,70.83,0,0,0,20.2,2.63q19.74,0,32.91-9t13.18-30.51q0-20.62-11-31.16t-41.7-10.55h-22Z"/><path class="cls-2" d="M1989.31,706q0-18.09-5-29.17t-23.13-11.06h-4V653.67h48.3q10.47,0,17.51,2.62a23.43,23.43,0,0,1,11.27,8.65q4.21,6,5.83,16.09a162.62,162.62,0,0,1,1.6,25V901.17h104.64V653.67h52.32v247.5h14.09a13.79,13.79,0,0,1,14.09,14.09v78.47h-20.13q-2.43-21.72-6.45-36.22t-10.25-22.94a34.59,34.59,0,0,0-14.49-11.86,49.5,49.5,0,0,0-19.12-3.43h-167Z"/><path class="cls-2" d="M2277.75,770q0-19.74-5.49-31.83T2247,726.12h-2.17V712.94h117.65q39.5,0,64.09,13.18t24.59,39.5q0,19.77-14.7,31.17t-41,14.93q28.08,3.53,46.31,16.25t18.21,34.24q0,29.85-25.47,43.46t-72,13.61h-84.72Zm76.81-39.51a83.46,83.46,0,0,0-9.21.66,46.3,46.3,0,0,0-10.55,2.42v67.17h15.38q16.65,0,29.19-9.23t12.52-25.9a35,35,0,0,0-3.32-15.81,32,32,0,0,0-8.77-11,35.49,35.49,0,0,0-12.07-6.36A45.53,45.53,0,0,0,2354.56,730.5Zm0,171.22q19.76,0,32.93-9.88t13.17-29.63q0-21.08-13.6-31.39t-36.88-10.32H2334.8v78.14a45.26,45.26,0,0,0,10.55,2.42A83.46,83.46,0,0,0,2354.56,901.72Z"/><path class="cls-2" d="M2610.08,903.92q22.83,0,37.1-10.54a123,123,0,0,0,25.67-25.91l13.61,10.1a151.74,151.74,0,0,1-11.64,15.58,82.48,82.48,0,0,1-16.66,14.94,90.3,90.3,0,0,1-23.27,11.19q-13.39,4.38-31.39,4.39-23.3,0-41.93-8.12a92.25,92.25,0,0,1-31.84-22.61,100.36,100.36,0,0,1-20.19-34,125.85,125.85,0,0,1-7-42.79q0-26.36,7.46-46.54T2530.41,736a86.64,86.64,0,0,1,30.5-20.42,102.13,102.13,0,0,1,38.19-7,111.58,111.58,0,0,1,38.19,6.36,94.61,94.61,0,0,1,30.53,17.78,82.6,82.6,0,0,1,20.41,27.67,85.43,85.43,0,0,1,7.46,36c0,3.23-.08,6.53-.23,9.88s-.35,6.37-.66,9c-.27,3.23-.58,6.15-.88,8.78H2561.8q0,43.47,13.38,61.68T2610.08,903.92Zm26.35-99.67q0-21.94-2.86-36.43t-7.68-23.27q-4.86-8.77-11.64-12.52a31.2,31.2,0,0,0-15.15-3.73,29.37,29.37,0,0,0-14.26,3.73q-6.84,3.75-11.86,12.52t-8.12,23.27q-3.08,14.49-3.06,36.43Z"/><path class="cls-2" d="M2785.25,732.69q-19.77,0-30.73,10.55t-11,35.56h-13.18V748.07a54.26,54.26,0,0,1,1.55-13,30.88,30.88,0,0,1,5-11.19,25.8,25.8,0,0,1,9.89-7.91c4.22-2,9.71-3.07,16.46-3.07h158.48v19.75h-66.29V919.28H2798.4V732.69Z"/><path class="cls-2" d="M3166.49,653.67v18.11h-84.12v247.5h-52.3V671.78h-28.58q-21.36,0-33.81,10.67t-12.47,37.62h-12.07V685.86a50.8,50.8,0,0,1,1.39-11.86,24.1,24.1,0,0,1,5.24-10.27,28.11,28.11,0,0,1,10.47-7.24q6.65-2.81,17.1-2.82Z"/><path class="cls-2" d="M3194,816.12a121.36,121.36,0,0,1,7.23-42.15,99.19,99.19,0,0,1,20.87-34.25,96.87,96.87,0,0,1,33.13-22.82q19.54-8.35,44.13-8.35t44.11,8.35a97.19,97.19,0,0,1,33.16,22.82A98.82,98.82,0,0,1,3397.43,774a125.93,125.93,0,0,1,0,84.28,98.73,98.73,0,0,1-20.84,34.25,97.37,97.37,0,0,1-33.16,22.84q-19.53,8.32-44.11,8.33t-44.13-8.33a97.05,97.05,0,0,1-33.13-22.84,99.1,99.1,0,0,1-20.87-34.25A121.33,121.33,0,0,1,3194,816.12Zm151.47,0a199.72,199.72,0,0,0-2.86-34.91,109.06,109.06,0,0,0-8.57-27.88q-5.68-11.85-14.49-18.44a34.24,34.24,0,0,0-40.39,0q-8.77,6.58-14.47,18.44a106.74,106.74,0,0,0-8.57,27.88,214.43,214.43,0,0,0,0,69.81,106.66,106.66,0,0,0,8.57,27.87q5.68,11.85,14.47,18.44a34.24,34.24,0,0,0,40.39,0q8.79-6.58,14.49-18.44a109,109,0,0,0,8.57-27.87A199.68,199.68,0,0,0,3345.43,816.12Z"/><path class="cls-2" d="M3572,708.55q22.8,0,40.16,8.35a82.43,82.43,0,0,1,29,22.82A96.93,96.93,0,0,1,3658.44,774a158.35,158.35,0,0,1,0,84.28,94.81,94.81,0,0,1-17.55,34.25,83.73,83.73,0,0,1-29.64,22.84q-17.76,8.32-41.48,8.33a84.82,84.82,0,0,1-19.33-2,89.19,89.19,0,0,1-14.49-4.62,48.83,48.83,0,0,1-12.29-6.58v92.19H3466.6V770a133.69,133.69,0,0,0-1.11-17.78,42.87,42.87,0,0,0-4.17-14.05,20.35,20.35,0,0,0-9.21-9q-6.15-3.08-15.81-3.07h-4.4V712.94h43.48q14.91,0,23.49,4t13.38,14.48a115.27,115.27,0,0,1,9.44-7.46,85.46,85.46,0,0,1,12.74-7.46,79.32,79.32,0,0,1,16.67-5.71A91.88,91.88,0,0,1,3572,708.55Zm-8.8,19.75q-16.66,0-26.76,6.15a84.36,84.36,0,0,0-15.81,11.86,40.93,40.93,0,0,0,1.32,6.15,45.19,45.19,0,0,1,1.31,6.57,71.72,71.72,0,0,1,.43,8.35V890.74a48.42,48.42,0,0,0,10.55,6.59,57.13,57.13,0,0,0,11.63,4.61,54.13,54.13,0,0,0,15.15,2q12.3,0,20.64-6.59t13.61-18.44A103.35,103.35,0,0,0,3602.7,851a278,278,0,0,0,0-69.81,109.49,109.49,0,0,0-7.26-27.88q-5.05-11.85-13-18.44T3563.17,728.3Z"/><path class="cls-2" d="M3723,770q0-19.74-5.49-31.83t-25.26-12.06h-2.18V712.94H3841.5c6.45,0,11.86,1,16.26,3.07a25.56,25.56,0,0,1,10.09,7.91,31.4,31.4,0,0,1,5,11.19,54.76,54.76,0,0,1,1.54,13V778.8h-13.18q0-25-11-35.56t-30.73-10.55H3780V919.28H3723Z"/><path class="cls-2" d="M736.77,793.43c-2.43-3.12-60.41-77-124.45-121.89-127-89-191-107.54-193.7-108.29l-3-.84-3,.84c-2.66.75-66.71,19.32-193.7,108.29-64,44.88-122,118.77-124.45,121.89l-2.58,3.31.24,4.18c.26,4.56,6.89,112.55,39.19,202,32.06,88.73,77.38,170.55,77.84,171.37l2.08,3.72,4,1.39c1,.36,9.7,3.26,24.55,7,.49.17,1,.25,1.55.38,31.6,7.86,89.83,19.15,164.22,19.15,3.3,0,6.65,0,10-.06,117,1.48,197-25.32,200.34-26.47l4-1.39,2.09-3.72c.45-.82,45.78-82.64,77.84-171.37,32.3-89.4,38.92-197.39,39.18-202l.25-4.18Zm-321,390.13h-.31a677,677,0,0,1-140.77-12.31c47-32.58,109.08-83.12,112.9-124.91,7.14.41,14.68.68,22.4.89a11.21,11.21,0,0,0,1.31.24c1.47,0,2.85-.07,4.3-.1s2.82.08,4.29.1H420a8.92,8.92,0,0,0,1.25-.25c7.71-.2,15.23-.47,22.36-.88,4.13,42.4,69.84,92.55,118,123.89A685.1,685.1,0,0,1,415.77,1183.56Zm-53-159.38c-52.2-5.74-87.44-19.44-122.23-45.58-52.88-39.74-75.73-77.31-84.45-95.44,18.86-.89,57.81.77,105.74,22C328.12,934.55,348.25,981,362.76,1024.18Zm206.61-119c42-18.62,77.12-22.19,97.87-22.19,2.91,0,5.54.06,7.87.18-8.72,18.16-31.58,55.71-84.45,95.44-34.79,26.14-70,39.84-122.23,45.58C483,981,503.08,934.55,569.37,905.17Zm-184.88,120.9c-4.67-14.31-9.86-29.54-17-44.78a143.29,143.29,0,0,0,47,8.18,149.23,149.23,0,0,0,49.26-8.54c-7.19,15.36-12.42,30.72-17.13,45.14-9.75.63-20.16,1-31.11,1.24C404.65,1027.08,394.24,1026.7,384.49,1026.07ZM679,995.31c-27.52,76.18-65,147.23-74.27,164.26-3.3,1-8.61,2.55-15.68,4.38-57.64-35.61-123.23-86.55-125.62-119.09,60-5.6,99.67-20.47,139.29-50.23,79.48-59.74,95.74-115.06,96.39-117.39a10,10,0,0,0-7.68-12.54c-2.25-.44-56.11-10.68-130.17,22.15-39.15,17.35-63.89,40.29-80.79,64.79a9.7,9.7,0,0,0-2.55,1c-.57.37-57.43,36-122.34,1.8a10.05,10.05,0,0,0-3.71-1.08C334.94,928.21,310,904.6,270,886.85,195.87,854,142,864.26,139.78,864.7a10,10,0,0,0-7.69,12.54c.66,2.33,16.91,57.65,96.39,117.39,39.62,29.77,79.27,44.64,139.33,50.24-2.07,32.24-64.16,83.53-120.1,120.46-9.84-2.43-17.11-4.52-21.22-5.77-9.2-17-46.71-88-74.25-164.25-27.7-76.65-36.05-170.65-37.61-191.48,12-14.83,63.14-76.28,117.05-114.07,108.16-75.78,170-99.35,183.94-104.11,13.92,4.76,75.76,28.33,183.92,104.11C653.4,727.5,704.61,789,716.6,803.83,715,824.65,706.71,918.59,679,995.31ZM569.93,822.79c-2.15-5.42-2.1-10.87-2-16.64,0-1.52,0-3,0-4.57a200,200,0,0,0-2.06-26.46c-2-12.94-7.36-23.45-16.07-31.23-2.35-2.1-3-3.9-2.4-7.14a104.43,104.43,0,0,0,.8-31.7c-2.54-19.28-9.91-32.09-23.2-40.32a1.84,1.84,0,0,1-.67-.81c-2.85-11-10.38-15.89-21.82-14.09a9.89,9.89,0,0,1-4.91-.44,125.86,125.86,0,0,0-32.85-8.51c-16-1.76-28.66.61-39.91,7.51a3.24,3.24,0,0,1-1.94-.07c-2.16-.78-4.28-1.67-6.4-2.55a87.38,87.38,0,0,0-11.5-4.17c-20-5.24-37.93-6.68-54.67-4.42-13,1.75-22.57,5.67-30,12.36a10.73,10.73,0,0,1-6.71,3c-8,.66-13,5-14.46,12.66-.16.84-.3,1.7-.43,2.56a18.63,18.63,0,0,1-1.51,5.9c-1.52,2.92-3.4,5.77-5.2,8.53-1.43,2.18-2.85,4.35-4.15,6.6-7.17,12.36-10.93,23.94-11.49,35.38-.3,5.94-.4,12.84,2.09,19.61a3.51,3.51,0,0,1-.15,2.35c-13,14.77-20.61,30.12-23.2,46.94a54.62,54.62,0,0,0,3.77,30.23,6.65,6.65,0,0,1,.58,4.07c-3.47,9.06-.18,17.06,9,22a14.37,14.37,0,0,1,4.61,3.43c7,9.35,15.74,20.06,27.06,28.65,11.09,8.4,21.36,12.75,32.3,13.68,2.51.22,3.32,1,4.45,3.17,13.24,25.52,33.64,38.91,60.64,39.79a6.2,6.2,0,0,1,3.58,1.39c3.71,3.34,7.65,5,11.7,5a17.91,17.91,0,0,0,9.92-3.29l.71-.46c3.15-2.09,6.4-4.25,9.8-5.43,12.92-4.5,23-9.4,31.64-15.42,9.67-6.7,21.14-16.48,24.27-32.77,1.89-.33,3.78-.61,5.68-.88,2.82-.4,5.63-.8,8.4-1.41,2.29-.5,4.54-1.07,6.63-1.63,1.25-.25,2.61-.54,4.16-.95a89.36,89.36,0,0,0,19.34-7.44l.19.07,1-.69a56.55,56.55,0,0,0,10.24-6.94,44.9,44.9,0,0,0,15.63-23.44,6.8,6.8,0,0,1,2.41-3.06C565.47,838.67,573.75,832.44,569.93,822.79Zm-295.78,7.37c2-3.47,2-6.08-.11-9.66-5.54-9.45-6.51-20.11-2.93-32.58a78.39,78.39,0,0,1,16.81-30.32c6.5-7.39,15-12.08,23.84-16.62,2.38-1.22,4.86-2.24,7.49-3.32l.42-.17c-.42,2-.84,4-1.26,5.9-1.47,6.82-2.85,13.27-3.75,19.88-2.19,16.12-1.89,30.56.94,44.15,2.57,12.39,6.76,22.57,12.79,31.09a3.5,3.5,0,0,1,.48,2c-.89,13.42.79,26.73,2.73,39.12,0,.17,0,.32,0,.5l-1-.22a47.26,47.26,0,0,1-6.62-1.79c-14.11-5.31-24.31-16-31.61-24.74-1.6-1.91-3.06-3.93-4.52-6s-3.13-4.33-4.84-6.37c-1.56-1.85-3.95-2.87-5.86-3.69-2.55-1.09-3.95-2.1-4.27-3.07S273,832.07,274.15,830.16Zm38.5-157.39,0-.62c.11-1.84.33-4,1.13-4.7A3.45,3.45,0,0,1,316,667a19.43,19.43,0,0,1,2.4.17c3.69.44,6.19-.52,8.68-3.54,5.92-7.16,14.4-10.9,27.47-12.1a131.19,131.19,0,0,1,46.36,4.18c18.12,4.94,32.05,14.58,42.5,29.4l-1.7,0c-4.23,0-8.19.08-12.12-.14a14.35,14.35,0,0,1-4.82-1.66l-.9-.42c-11.87-5.48-24.33-4.71-36.08-3.43a91,91,0,0,0-28.87,7.71,62.24,62.24,0,0,0-30.05,28.51c-1.49,2.91-3.31,4.06-6.35,5.26-7.26,2.9-14.4,6.36-21.3,9.71q-3.74,1.82-7.47,3.59a23.76,23.76,0,0,0-2.31,1.3c-1.48-5.27-.91-10.42-.19-14.45,2.34-13.17,8.2-25.65,18.45-39.29C311.43,679.44,313.27,676.61,312.65,672.77Zm169.58,162c-7.37,6-13.83,10.65-21.42,13.57a54.55,54.55,0,0,1-33.2,2c-3.56-.85-7.14-2.09-10.61-3.27q-2.33-.81-4.66-1.57c-5.21-1.68-8.59-5.72-12.17-10L399,834.1c-.79-.94-1.54-1.9-2.32-3,17.73,4.09,33.31,2.54,47.54-4.77,10.72-5.52,19.1-14.25,25.64-26.71,9.24-17.61,11.53-36.56,12.48-51.1a226.28,226.28,0,0,0-.08-23.45,12.73,12.73,0,0,0-2.9-7.83c-1.72-1.88-6.16-2.06-8.08-.78a9.57,9.57,0,0,0-3.83,7.15c0,2,0,4,.11,6.06-4.81-11.59-10.27-20.84-17-28.77l2.47.41c15,2.69,26.63,8.66,35.5,18.25,7.3,7.9,12.2,18,14.55,29.95,2.09,10.61,4,21,4.36,31.5C508.17,802.45,499.69,820.53,482.23,834.78Zm-29-36.18c-.23-1.65-.44-3.29-.66-4.93-1-7.33-2-14.91-3.69-22.21-2.42-10.48-7.91-18-16.73-22.93l13.2-6.86c6,5.54,10,12.8,12.2,22.15a95.87,95.87,0,0,1,2.33,18.44C460.2,788.65,456.87,793.5,453.27,798.6ZM438,798.48c0,1.91,0,3.83-.06,5.75-.05,2.37-.1,4.75,0,7.11.05,1.48-.44,2.17-2,2.85-11.65,5-23.51,5.84-36.25,2.56-14.5-3.74-24.5-13.66-31.48-31.25-.39-1,.5-3.25,1.15-4.92l.57-1.52c5.14-14.38,10.92-25.19,18.18-34,8.4,7.87,19.08,12.64,33.41,15,4.91.79,8.64,4.13,11.44,10.2C437.12,779.4,437.84,789.22,438,798.48Zm-39.17-63.35c7.95-6.47,21.21-6.18,31.54-2.47-2.59,1.44-5.12,2.85-7.55,4.39a44.69,44.69,0,0,0-4,3c-1,.82-2,1.64-3.15,2.38-.76.52-1.6.84-1.53.94C408.71,740.67,403.37,737.66,398.83,735.13Zm134.87-7.28c-1.05,12.33-2.66,22.47-7.09,31.92a68.05,68.05,0,0,1-5.07,8.92l-.22-1.4c-.72-4.76-1.46-9.51-2.37-14.23-2-10.49-5.42-24.06-13.72-35.95-9.61-13.75-23-23.12-39.73-27.86a7,7,0,0,1-4.79-4,86.92,86.92,0,0,0-22.62-27.15c6.15-2.51,12.85-3.45,21.29-2.91,11.88.72,23.8,3.87,37.53,10,1.74.77,3.68.32,5.39-.07l1.05-.22c1.63-.32,4.67-.87,5.46-.32s1.17,3.57,1.34,4.86c.56,4.22,2.68,6,5.71,7.47,7.85,3.72,13.06,10.61,15.91,21.06C534.1,706.38,534.7,715.89,533.7,727.85ZM328.39,773.94c1.62-23.2,6.83-41.08,16.36-56.27,6.45-10.29,16.22-17.12,29.05-20.33a156,156,0,0,1,24.56-4c14.26-1.24,27.14,4.17,39.45,16.43a65.73,65.73,0,0,1,10.8,14.73,42.11,42.11,0,0,0-8-3.67l-1.7-.65c-26.61-10.33-46.85-4.79-63.63,17.41a171.74,171.74,0,0,0-11.46,18.12l-2,3.41a108.08,108.08,0,0,1-.94-10.83c-.16-7,.1-14.18.34-21.1l.11-3.06c.15-4.54-2.37-8-6.26-8.72a6.87,6.87,0,0,0-5.49,1.34,7.72,7.72,0,0,0-2.94,5.51c-.55,5.87-.8,11.76-.76,17.53.13,19.36,2.61,35,7.77,49.34a87.38,87.38,0,0,0,12.73,23.06,127,127,0,0,1,7.3,11.28c.89,1.5,1.8,3,2.72,4.5a143.44,143.44,0,0,0,21.76,27l-1.91.05a88.47,88.47,0,0,1-11.58-.19c-16.44-1.72-29.37-7.87-39.53-18.8-7.26-7.82-12-17.51-15-30.5C328.07,796.34,327.51,786.33,328.39,773.94Zm16.44,81.41c2.84,1.85,5.52,3.59,8.39,5.08,17.21,8.92,34.87,11.72,52.57,8.29,5.95-1.11,10.18.6,15.09,3.74C435.76,882,453,887.19,472.21,888l1.34.08c-2.31,6.75-6.86,12.36-14.45,17.93-9.81,7.19-21.57,12.75-35.93,17a14.75,14.75,0,0,0-5.18,3.3c-.53.45-1.06.9-1.58,1.3-2,1.5-3.4,2.16-4.06,2s-1.78-1.09-3.14-3.05-3.16-3.88-6.61-3.88a10.9,10.9,0,0,0-1.11.06c-18.1,2-32.93-5.14-46.58-22.36-6.74-8.51-8.24-18.67-9.88-29.74-.55-3.73-.8-7.62-1-11.37-.09-1.46-.19-2.92-.29-4.38a2.29,2.29,0,0,1,0-.25Zm96.07,11.11a65.6,65.6,0,0,0,29.07-6c11.35-5.22,21.93-13.34,32.34-24.83a71.74,71.74,0,0,0,18.06-36.4c.56-3.21,1-6,3.24-8.35a86.87,86.87,0,0,0,15.67-23.67c1.18-2.65,2.28-5.33,3.4-8.07l.44-1,.25.37.33.48c3.9,5.48,6.5,12.09,8.2,20.83a94.11,94.11,0,0,1,.39,32.79,12.38,12.38,0,0,0,1.54,8.67c1.31,2.35,2.47,4.66,2.18,5.6s-2.81,2.23-5.13,3.33a6.29,6.29,0,0,0-4,5.3,28.13,28.13,0,0,1-9.22,18.33c-1.93,1.75-4,3.3-5.95,4.8l-1.24,1c-1.48.89-2.84,1.65-4,2.24-2.46,1.11-4.93,2.11-7.25,3a12,12,0,0,1-1.57.37l-2,.94a137.5,137.5,0,0,1-35.92,7C466.56,874,450.47,870.66,440.9,866.46Z"/><path class="cls-2" d="M1021.44,1095.26q-3.71-17.77-13.57-27.25t-26.08-9.47a47.32,47.32,0,0,0-16.8,2.93,32.26,32.26,0,0,0-13.67,10q-5.87,7.14-9.18,19t-3.33,29.59a98,98,0,0,0,2.35,21.59,56.55,56.55,0,0,0,7.51,18.46A39.44,39.44,0,0,0,962,1172.9q8.1,4.8,19.82,4.8a46.67,46.67,0,0,0,25-7.13q11.52-7.14,18.56-20.81l6.84,5.28q-9.18,16.21-22.46,23.82t-33.8,7.63a69.91,69.91,0,0,1-27.45-5.09,57,57,0,0,1-20.22-14.06,61.43,61.43,0,0,1-12.5-21.09,77.93,77.93,0,0,1-4.29-26.18,76.76,76.76,0,0,1,4.88-27.64,69.58,69.58,0,0,1,13.48-22.27,63.09,63.09,0,0,1,20.41-15,60.5,60.5,0,0,1,25.69-5.46q18.36,0,29.6,4.78t16.69,11q3.91,5.09,4.5,13.09c.38,5.33.59,10.87.59,16.6Z"/><path class="cls-2" d="M1096.85,1175.74q10.15,0,16.5-4.68a55.32,55.32,0,0,0,11.43-11.53l6.06,4.48a71,71,0,0,1-5.17,7,37.27,37.27,0,0,1-7.43,6.64,40.13,40.13,0,0,1-10.35,5,45.07,45.07,0,0,1-14,2,46.47,46.47,0,0,1-18.65-3.61,40.84,40.84,0,0,1-14.16-10.06,44.52,44.52,0,0,1-9-15.14,55.74,55.74,0,0,1-3.13-19,59.44,59.44,0,0,1,3.32-20.71,42.16,42.16,0,0,1,9.08-14.93,38.76,38.76,0,0,1,13.58-9.1,45.59,45.59,0,0,1,17-3.12,49.75,49.75,0,0,1,17,2.83,42,42,0,0,1,13.58,7.92,36.69,36.69,0,0,1,9.08,12.3,38,38,0,0,1,3.31,16c0,1.42,0,2.89-.08,4.38s-.17,2.84-.29,4c-.14,1.43-.27,2.73-.4,3.91h-58.8q0,19.33,6,27.44T1096.85,1175.74Zm11.72-44.34a86.52,86.52,0,0,0-1.27-16.21,36.26,36.26,0,0,0-3.42-10.36,13.51,13.51,0,0,0-5.18-5.56,13.75,13.75,0,0,0-6.74-1.67,13,13,0,0,0-6.34,1.67,14,14,0,0,0-5.28,5.56,35.92,35.92,0,0,0-3.61,10.36,80.08,80.08,0,0,0-1.37,16.21Z"/><path class="cls-2" d="M1174.79,1099.56c-5.86,0-10.42,1.55-13.68,4.69s-4.88,8.4-4.88,15.82h-5.86v-13.68a24.27,24.27,0,0,1,.69-5.76,13.73,13.73,0,0,1,2.25-5,11.39,11.39,0,0,1,4.39-3.51,16.86,16.86,0,0,1,7.32-1.37h70.52v8.79H1206v83h-25.39v-83Z"/><path class="cls-2" d="M1257.61,1116.16q0-8.79-2.44-14.16t-11.23-5.37h-2v-5.86h23.44a24.68,24.68,0,0,1,8.49,1.26,11.47,11.47,0,0,1,5.48,4.2,18.86,18.86,0,0,1,2.83,7.82,78.63,78.63,0,0,1,.79,12.11v11.73h14.64q18.36,0,29.2,7t10.85,20.31q0,13.29-10.85,20.32t-29.2,7h-40.05ZM1283,1173.4a20.7,20.7,0,0,0,4.68,1.07,38.64,38.64,0,0,0,4.11.29,28,28,0,0,0,7.61-1,16.22,16.22,0,0,0,6.16-3.22,15.78,15.78,0,0,0,4.2-6,28.82,28.82,0,0,0,0-18.65,15.55,15.55,0,0,0-4.2-6.06,15.83,15.83,0,0,0-6.16-3.23,28.37,28.37,0,0,0-7.61-1,36.15,36.15,0,0,0-4.11.29,20.17,20.17,0,0,0-4.68,1.08Z"/><path class="cls-2" d="M1415.63,1182.58v-66.42q0-8.79-2.44-14.16t-11.23-5.37H1400v-5.86h23.43a24.78,24.78,0,0,1,8.5,1.26,11.44,11.44,0,0,1,5.47,4.2,18.86,18.86,0,0,1,2.83,7.82,78.63,78.63,0,0,1,.79,12.11v57.63h31.25v-83h25.39v83h5.87a6.67,6.67,0,0,1,6.83,6.84v33.21h-8.79a80.35,80.35,0,0,0-2.55-15.63,28.16,28.16,0,0,0-4.48-9.57,13.94,13.94,0,0,0-6.45-4.8,26.06,26.06,0,0,0-8.4-1.26Z"/><path class="cls-2" d="M1531.28,1116.16q0-8.79-2.44-14.16t-11.23-5.37h-1v-5.86H1569q17.58,0,28.52,5.86t10.94,17.57q0,8.8-6.55,13.88t-18.26,6.63q12.51,1.57,20.61,7.24t8.11,15.24q0,13.27-11.33,19.33t-32,6.06h-37.7Zm34.18-17.57a34.08,34.08,0,0,0-4.1.29,20.38,20.38,0,0,0-4.69,1.07v29.88h6.84a21.32,21.32,0,0,0,13-4.09c3.72-2.74,5.56-6.58,5.56-11.54a15.69,15.69,0,0,0-1.45-7,14.68,14.68,0,0,0-3.91-4.88,15.77,15.77,0,0,0-5.37-2.83A20.56,20.56,0,0,0,1565.46,1098.59Zm0,76.17q8.8,0,14.66-4.38t5.85-13.19q0-9.37-6-14c-4-3.06-9.51-4.59-16.42-4.59h-6.84v34.78a20.91,20.91,0,0,0,4.69,1.07A38.83,38.83,0,0,0,1565.46,1174.76Z"/><path class="cls-2" d="M1679.16,1175.74q10.17,0,16.5-4.68a55.08,55.08,0,0,0,11.43-11.53l6.06,4.48a71,71,0,0,1-5.17,7,37.2,37.2,0,0,1-7.42,6.64,40.36,40.36,0,0,1-10.36,5,45,45,0,0,1-14,2,46.47,46.47,0,0,1-18.65-3.61,40.94,40.94,0,0,1-14.16-10.06,44.52,44.52,0,0,1-9-15.14,55.74,55.74,0,0,1-3.12-19,59.68,59.68,0,0,1,3.31-20.71,42.31,42.31,0,0,1,9.08-14.93,38.76,38.76,0,0,1,13.58-9.1,45.65,45.65,0,0,1,17-3.12,49.69,49.69,0,0,1,17,2.83,42,42,0,0,1,13.58,7.92,36.56,36.56,0,0,1,9.08,12.3,37.85,37.85,0,0,1,3.32,16c0,1.42,0,2.89-.09,4.38s-.17,2.84-.29,4c-.14,1.43-.27,2.73-.39,3.91h-58.81q0,19.33,6,27.44T1679.16,1175.74Zm11.72-44.34a87.48,87.48,0,0,0-1.26-16.21,36.55,36.55,0,0,0-3.43-10.36,13.5,13.5,0,0,0-5.17-5.56,13.77,13.77,0,0,0-6.74-1.67,13,13,0,0,0-6.35,1.67,14,14,0,0,0-5.27,5.56,35.61,35.61,0,0,0-3.62,10.36,80.08,80.08,0,0,0-1.37,16.21Z"/><path class="cls-2" d="M1757.11,1099.56c-5.87,0-10.42,1.55-13.69,4.69s-4.88,8.4-4.88,15.82h-5.85v-13.68a24.79,24.79,0,0,1,.68-5.76,13.9,13.9,0,0,1,2.25-5,11.47,11.47,0,0,1,4.39-3.51,16.86,16.86,0,0,1,7.32-1.37h70.53v8.79h-29.51v83H1763v-83Z"/><path class="cls-2" d="M1828.78,1136.67a54,54,0,0,1,3.23-18.75,44,44,0,0,1,9.28-15.24,42.88,42.88,0,0,1,14.75-10.15,53.65,53.65,0,0,1,39.26,0,43.07,43.07,0,0,1,14.75,10.15,44.26,44.26,0,0,1,9.28,15.24,56.23,56.23,0,0,1,0,37.51,44.44,44.44,0,0,1-9.28,15.24,43.35,43.35,0,0,1-14.75,10.15,53.79,53.79,0,0,1-39.26,0,43.15,43.15,0,0,1-14.75-10.15,44.14,44.14,0,0,1-9.28-15.24A54.11,54.11,0,0,1,1828.78,1136.67Zm67.39,0a88.28,88.28,0,0,0-1.26-15.52,47.83,47.83,0,0,0-3.81-12.41,21.81,21.81,0,0,0-6.45-8.21,15.24,15.24,0,0,0-18,0,22,22,0,0,0-6.45,8.21,47.84,47.84,0,0,0-3.8,12.41,95.53,95.53,0,0,0,0,31,47.84,47.84,0,0,0,3.8,12.41,22.08,22.08,0,0,0,6.45,8.21,15.28,15.28,0,0,0,18,0,21.88,21.88,0,0,0,6.45-8.21,47.83,47.83,0,0,0,3.81-12.41A88.32,88.32,0,0,0,1896.17,1136.67Z"/><path class="cls-2" d="M1949.13,1116.16q0-8.79-2.45-14.16t-11.23-5.37h-2v-5.86h23.44a24.72,24.72,0,0,1,8.49,1.26,11.42,11.42,0,0,1,5.48,4.2,18.72,18.72,0,0,1,2.83,7.82,78.63,78.63,0,0,1,.79,12.11V1122q0,11.13,4.38,15.83c2.94,3.12,6.87,4.68,11.83,4.68a27.77,27.77,0,0,0,7.32-.78,28.08,28.08,0,0,0,5.77-2.34v-48.64h25.39v91.81h-25.39V1147.8a36.76,36.76,0,0,1-7.72,2.44,44.74,44.74,0,0,1-9.86,1.08,65,65,0,0,1-14.47-1.56,32.79,32.79,0,0,1-11.81-5.08,25.58,25.58,0,0,1-7.92-9.08,29,29,0,0,1-2.92-13.58Z"/><path class="cls-2" d="M2117.88,1140.58h-31.24v42h-25.4v-66.42q0-8.79-2.44-14.16t-11.23-5.37h-2v-5.86h23.43a24.74,24.74,0,0,1,8.5,1.26,11.42,11.42,0,0,1,5.48,4.2,19,19,0,0,1,2.83,7.82,80.07,80.07,0,0,1,.78,12.11v15.63h31.24v-41h25.39v66.42c0,5.85.81,10.58,2.48,14.16s5.36,5.37,11.23,5.37h1.92v5.86h-23.42a26.23,26.23,0,0,1-8.5-1.18,10.79,10.79,0,0,1-5.46-4.09,18.54,18.54,0,0,1-2.83-7.82,75,75,0,0,1-.81-12.3Z"/><path class="cls-2" d="M2179,1116.16q0-8.79-2.42-14.16t-11.23-5.37h-2v-5.86h23.45a24.78,24.78,0,0,1,8.5,1.26,11.46,11.46,0,0,1,5.46,4.2,18.45,18.45,0,0,1,2.83,7.82,77.39,77.39,0,0,1,.79,12.11v11.73h12.69q18.36,0,29.21,7t10.85,20.31q0,13.29-10.85,20.32t-29.21,7H2179Zm25.4,57.24a21.13,21.13,0,0,0,4.7,1.07,38.31,38.31,0,0,0,4.1.29,21.37,21.37,0,0,0,6.45-1,15.71,15.71,0,0,0,5.66-3.22,15.31,15.31,0,0,0,4-6,30.31,30.31,0,0,0,0-18.65,15.12,15.12,0,0,0-4-6.06,15.31,15.31,0,0,0-5.66-3.23,21.69,21.69,0,0,0-6.45-1,35.85,35.85,0,0,0-4.1.29,20.59,20.59,0,0,0-4.7,1.08Zm87.91-16.21c0,5.85.81,10.58,2.43,14.16s5.39,5.37,11.25,5.37H2308v5.86h-23.45a26.17,26.17,0,0,1-8.49-1.18,10.77,10.77,0,0,1-5.47-4.09,18.67,18.67,0,0,1-2.83-7.82,78.94,78.94,0,0,1-.78-12.3v-66.42h25.39Z"/><path class="cls-2" d="M2350.16,1141.75l-18.77-31.45a40,40,0,0,0-8.88-10.94,20.33,20.33,0,0,0-9.28-4.68v-3.91h18.56q9.57,0,15.15,4.2a39.39,39.39,0,0,1,9.87,11.42l9.36,15.83,25.59-31.45h13.1l-33,40.63,18.94,31.64a40.4,40.4,0,0,0,8.91,10.94,20.46,20.46,0,0,0,9.28,4.69v3.91H2390.4q-9.57,0-15.15-4.2a39.46,39.46,0,0,1-9.87-11.43l-9.56-15.82-25.59,31.45h-13.08Z"/><path class="cls-2" d="M2482.61,1116.16c0-5.86-.84-10.58-2.45-14.16s-5.37-5.37-11.23-5.37h-1v-5.86h67.4a17,17,0,0,1,7.23,1.37,11.28,11.28,0,0,1,4.48,3.51,13.56,13.56,0,0,1,2.25,5,24.27,24.27,0,0,1,.69,5.76v13.68h-5.85q0-11.13-4.9-15.82c-3.24-3.14-7.82-4.69-13.66-4.69H2508v83h-25.39Z"/><path class="cls-2" d="M2574.42,1116.16q0-8.79-2.43-14.16t-11.23-5.37h-2v-5.86h23.44a24.78,24.78,0,0,1,8.5,1.26,11.37,11.37,0,0,1,5.46,4.2,18.59,18.59,0,0,1,2.84,7.82,77.53,77.53,0,0,1,.78,12.11v42l35.18-67.39h23.42v91.81H2633v-67.39l-35.16,67.39h-23.44Z"/><path class="cls-2" d="M2689.47,1116.16c0-5.86-.84-10.58-2.45-14.16s-5.37-5.37-11.23-5.37h-1v-5.86h96.71v91.81H2746.1v-83h-31.24v83h-25.39Z"/><path class="cls-2" d="M2843.19,1175.74c6.78,0,12.27-1.56,16.52-4.68a55.57,55.57,0,0,0,11.43-11.53l6,4.48a71.19,71.19,0,0,1-5.18,7,36.86,36.86,0,0,1-7.41,6.64,40.43,40.43,0,0,1-10.37,5,45,45,0,0,1-14,2,46.25,46.25,0,0,1-18.64-3.61,40.88,40.88,0,0,1-14.17-10.06,44.89,44.89,0,0,1-9-15.14,56.22,56.22,0,0,1-3.11-19,59.44,59.44,0,0,1,3.31-20.71,42.45,42.45,0,0,1,9.08-14.93,38.85,38.85,0,0,1,13.58-9.1,45.65,45.65,0,0,1,17-3.12,49.75,49.75,0,0,1,17,2.83,42.12,42.12,0,0,1,13.58,7.92,36.83,36.83,0,0,1,9.08,12.3,38.15,38.15,0,0,1,3.31,16c0,1.42,0,2.89-.1,4.38s-.15,2.84-.28,4c-.13,1.43-.28,2.73-.4,3.91h-58.81q0,19.33,6,27.44C2831.63,1173,2836.82,1175.74,2843.19,1175.74Zm11.74-44.34a84.66,84.66,0,0,0-1.29-16.21,36,36,0,0,0-3.42-10.36,13.51,13.51,0,0,0-5.18-5.56,13.65,13.65,0,0,0-6.73-1.67,13,13,0,0,0-6.35,1.67,14.16,14.16,0,0,0-5.28,5.56,35.94,35.94,0,0,0-3.6,10.36,78.49,78.49,0,0,0-1.39,16.21Z"/><path class="cls-2" d="M2955,1088.81a40.63,40.63,0,0,1,17.86,3.72,36.25,36.25,0,0,1,12.9,10.15,43.22,43.22,0,0,1,7.71,15.24,70,70,0,0,1,0,37.51,42.43,42.43,0,0,1-7.81,15.24,37.31,37.31,0,0,1-13.18,10.15,43.17,43.17,0,0,1-18.46,3.71,37.31,37.31,0,0,1-8.6-.88,38.09,38.09,0,0,1-6.45-2.05,21.65,21.65,0,0,1-5.46-2.93v41h-25.4V1116.16a62,62,0,0,0-.48-7.91,19.21,19.21,0,0,0-1.87-6.25,9,9,0,0,0-4.1-4,15.75,15.75,0,0,0-7-1.36h-1.94v-5.86H2912q6.63,0,10.47,1.76a12.35,12.35,0,0,1,5.94,6.43c1.19-1,2.58-2.13,4.2-3.31a39.83,39.83,0,0,1,5.67-3.32,35.88,35.88,0,0,1,7.43-2.55A41.51,41.51,0,0,1,2955,1088.81Zm-3.92,8.79q-7.43,0-11.91,2.74a36.77,36.77,0,0,0-7,5.28,22.14,22.14,0,0,0,.58,2.73,18.09,18.09,0,0,1,.58,2.93,30.16,30.16,0,0,1,.21,3.71v54.89a21.82,21.82,0,0,0,4.68,2.94,27.15,27.15,0,0,0,5.18,2,24,24,0,0,0,6.75.88,14.45,14.45,0,0,0,9.18-2.92,21.44,21.44,0,0,0,6.05-8.21,46,46,0,0,0,3.31-12.41,122.23,122.23,0,0,0,0-31,49.21,49.21,0,0,0-3.21-12.41,21.1,21.1,0,0,0-5.77-8.21A13.07,13.07,0,0,0,2951,1097.6Z"/><path class="cls-2" d="M3123.14,1149.37q0,16.22,3.11,24c2.1,5.21,5.8,8.27,11.16,9.18v4.88q-21.33,0-30.48-9.47t-9.18-28.62v-34l-28.15,67.2h-6.42l-34-69.15v69h-9.78v-91.62h23.85l28.91,58.79,25.39-60.75h25.59Z"/><path class="cls-2" d="M3189.36,1088.81q19.16,0,29.59,10.15t10.44,30.87v52.75H3212.8l-6.85-8.79h-1a22,22,0,0,1-5.47,5.46,25.14,25.14,0,0,1-7.23,3.72,33,33,0,0,1-10.75,1.56q-16.2,0-24.71-7.33a24,24,0,0,1-8.5-19,30.73,30.73,0,0,1,2.36-12.41,20.92,20.92,0,0,1,8.29-9.18q6-3.81,16.11-5.76a142.94,142.94,0,0,1,26-2H3204q0-17.58-4.88-24.42a15.88,15.88,0,0,0-13.68-6.84,29.22,29.22,0,0,0-6.35.68,14.58,14.58,0,0,0-5.57,2.64,17.71,17.71,0,0,0-4.47,5.38,30.82,30.82,0,0,0-3.14,8.89h-10.75a81.64,81.64,0,0,1,.68-10.36,16.83,16.83,0,0,1,4.2-9.18c2.36-2.6,6.23-4.4,11.64-5.37A99.32,99.32,0,0,1,3189.36,1088.81Zm14.64,48.84h-2.93q-14,0-20.21,5.13t-6.15,15.59c0,5.53,1.14,9.72,3.42,12.54a11.26,11.26,0,0,0,9.28,4.25,13.46,13.46,0,0,0,7.51-2,26.76,26.76,0,0,0,5.19-4.35,24.39,24.39,0,0,0,3.89-6.51Z"/><path class="cls-2" d="M3307,1088.81a40.69,40.69,0,0,1,17.86,3.72,36.25,36.25,0,0,1,12.9,10.15,43.22,43.22,0,0,1,7.71,15.24,70,70,0,0,1,0,37.51,42.43,42.43,0,0,1-7.81,15.24,37.31,37.31,0,0,1-13.18,10.15,43.17,43.17,0,0,1-18.46,3.71,37.31,37.31,0,0,1-8.6-.88,38.09,38.09,0,0,1-6.45-2.05,21.72,21.72,0,0,1-5.47-2.93v41h-25.39V1116.16a63.9,63.9,0,0,0-.48-7.91,19.21,19.21,0,0,0-1.87-6.25,9,9,0,0,0-4.1-4,15.75,15.75,0,0,0-7-1.36h-2v-5.86H3264q6.63,0,10.47,1.76a12.35,12.35,0,0,1,5.94,6.43c1.19-1,2.58-2.13,4.2-3.31a39.69,39.69,0,0,1,5.66-3.32,36,36,0,0,1,7.44-2.55A41.51,41.51,0,0,1,3307,1088.81Zm-3.92,8.79q-7.44,0-11.91,2.74a36.77,36.77,0,0,0-7,5.28,20.44,20.44,0,0,0,.58,2.73,19.24,19.24,0,0,1,.58,2.93,30.36,30.36,0,0,1,.2,3.71v54.89a22.32,22.32,0,0,0,4.68,2.94,27,27,0,0,0,5.19,2,24,24,0,0,0,6.75.88,14.45,14.45,0,0,0,9.18-2.92,21.54,21.54,0,0,0,6-8.21,46.32,46.32,0,0,0,3.31-12.41,122.23,122.23,0,0,0,0-31,49.21,49.21,0,0,0-3.21-12.41,21.2,21.2,0,0,0-5.77-8.21A13.07,13.07,0,0,0,3303,1097.6Z"/><path class="cls-2" d="M3400.49,1144.29v38.29H3375.1v-66.42q0-8.79-2.43-14.16t-11.23-5.37h-2v-5.86h23.44a24.78,24.78,0,0,1,8.5,1.26,11.37,11.37,0,0,1,5.46,4.2,18.59,18.59,0,0,1,2.84,7.82,77.53,77.53,0,0,1,.78,12.11v18.55l23.65-28.9q2.93-3.51,5.76-6.35a31.55,31.55,0,0,1,6-4.78,25.76,25.76,0,0,1,7.23-2.94,39,39,0,0,1,9.08-1h3.92v5.07a23.4,23.4,0,0,0-10.57,2.35,29,29,0,0,0-9,7.43l-18.94,23.05,26,34.37a53.44,53.44,0,0,0,9.59,10.36,22.61,22.61,0,0,0,8.6,4.49v4.69a21.15,21.15,0,0,1-5.67,1.36,54.36,54.36,0,0,1-7.81.59,35.72,35.72,0,0,1-15.46-3.42q-7.2-3.4-13.65-12.2Z"/><path class="cls-2" d="M3515.57,1175.74c6.78,0,12.26-1.56,16.51-4.68a55.08,55.08,0,0,0,11.43-11.53l6,4.48a69.78,69.78,0,0,1-5.19,7,36.32,36.32,0,0,1-7.41,6.64,40.27,40.27,0,0,1-10.37,5,44.94,44.94,0,0,1-14,2,46.32,46.32,0,0,1-18.64-3.61,40.75,40.75,0,0,1-14.16-10.06,44.89,44.89,0,0,1-9-15.14,56,56,0,0,1-3.11-19A59.21,59.21,0,0,1,3471,1116a42.16,42.16,0,0,1,9.08-14.93,38.76,38.76,0,0,1,13.58-9.1,45.65,45.65,0,0,1,17-3.12,49.69,49.69,0,0,1,17,2.83,42,42,0,0,1,13.58,7.92,36.56,36.56,0,0,1,9.08,12.3,38.15,38.15,0,0,1,3.32,16c0,1.42,0,2.89-.11,4.38s-.15,2.84-.27,4c-.13,1.43-.28,2.73-.41,3.91h-58.8q0,19.33,6,27.44T3515.57,1175.74Zm11.73-44.34a84.66,84.66,0,0,0-1.29-16.21,35.67,35.67,0,0,0-3.41-10.36,13.47,13.47,0,0,0-5.19-5.56,13.61,13.61,0,0,0-6.72-1.67,13,13,0,0,0-6.35,1.67,14.18,14.18,0,0,0-5.29,5.56,36.26,36.26,0,0,0-3.59,10.36,77.8,77.8,0,0,0-1.39,16.21Z"/><path class="cls-2" d="M3593.49,1099.56c-5.84,0-10.42,1.55-13.66,4.69s-4.88,8.4-4.88,15.82h-5.87v-13.68a24.27,24.27,0,0,1,.69-5.76,13.9,13.9,0,0,1,2.25-5,11.28,11.28,0,0,1,4.4-3.51,16.81,16.81,0,0,1,7.31-1.37h70.51v8.79h-29.49v83h-25.39v-83Z"/><path class="cls-2" d="M3665.19,1136.67a54.75,54.75,0,0,1,3.21-18.75,44.28,44.28,0,0,1,9.29-15.24,42.87,42.87,0,0,1,14.77-10.15,53.63,53.63,0,0,1,39.25,0,43,43,0,0,1,14.74,10.15,44,44,0,0,1,9.29,15.24,56.39,56.39,0,0,1,0,37.51,44.16,44.16,0,0,1-9.29,15.24,43.31,43.31,0,0,1-14.74,10.15,53.76,53.76,0,0,1-39.25,0,43.14,43.14,0,0,1-14.77-10.15,44.47,44.47,0,0,1-9.29-15.24A54.81,54.81,0,0,1,3665.19,1136.67Zm67.4,0a90.24,90.24,0,0,0-1.26-15.52,48.6,48.6,0,0,0-3.82-12.41,21.81,21.81,0,0,0-6.45-8.21,15.26,15.26,0,0,0-18,0,21.57,21.57,0,0,0-6.43,8.21,47.45,47.45,0,0,0-3.81,12.41,95.53,95.53,0,0,0,0,31,47.45,47.45,0,0,0,3.81,12.41,21.65,21.65,0,0,0,6.43,8.21,15.3,15.3,0,0,0,18,0,21.88,21.88,0,0,0,6.45-8.21,48.6,48.6,0,0,0,3.82-12.41A90.27,90.27,0,0,0,3732.59,1136.67Z"/><path class="cls-2" d="M3785.35,1116.16c0-5.86-.83-10.58-2.45-14.16s-5.36-5.37-11.23-5.37h-1v-5.86H3823c11.73,0,21.22,2,28.53,5.86s10.92,9.76,10.92,17.57q0,8.8-6.52,13.88t-18.26,6.63c8.32,1,15.2,3.46,20.58,7.24s8.12,8.85,8.12,15.24q0,13.27-11.33,19.33t-32,6.06h-37.69Zm34.17-17.57a34.08,34.08,0,0,0-4.1.29,20.17,20.17,0,0,0-4.68,1.07v29.88h6.83a21.33,21.33,0,0,0,13-4.09,13.54,13.54,0,0,0,5.57-11.54,15.82,15.82,0,0,0-1.47-7,14.46,14.46,0,0,0-3.92-4.88,15.63,15.63,0,0,0-5.36-2.83A20.56,20.56,0,0,0,3819.52,1098.59Zm0,76.17q8.8,0,14.64-4.38c3.93-2.94,5.87-7.34,5.87-13.19q0-9.37-6-14c-4-3.06-9.51-4.59-16.42-4.59h-6.83v34.78a20.7,20.7,0,0,0,4.68,1.07A38.83,38.83,0,0,0,3819.52,1174.76Z"/></svg>