<svg id="Слой_1" data-name="Слой 1" xmlns="http://www.w3.org/2000/svg" viewBox="0 0 3782.5 657.26"><defs><style>.cls-1{fill:red;}</style></defs><path class="cls-1" d="M1017.46,177q-7.63-36.6-28-56.14t-53.72-19.52a98,98,0,0,0-34.61,6Q885,113.32,873,128t-18.9,39q-6.85,24.36-6.84,61a201.66,201.66,0,0,0,4.9,44.55,115.85,115.85,0,0,0,15.49,38A81.54,81.54,0,0,0,895,337q16.69,9.87,40.85,9.85a96,96,0,0,0,51.51-14.68q23.74-14.67,38.24-42.85l14.07,10.86q-18.92,33.4-46.27,49.09t-69.63,15.69q-31.79,0-56.54-10.45a117.31,117.31,0,0,1-41.65-29A125.93,125.93,0,0,1,799.79,282a160.17,160.17,0,0,1-8.86-53.93,158.64,158.64,0,0,1,10.06-57,143.81,143.81,0,0,1,27.77-45.86,129.64,129.64,0,0,1,42-30.8,124.48,124.48,0,0,1,52.92-11.26q37.83,0,61,9.86t34.4,22.74q8.05,10.47,9.25,27t1.22,34.2Z"/><path class="cls-1" d="M1075.11,253.71a121.36,121.36,0,0,1,7.25-42.15,99.08,99.08,0,0,1,20.85-34.25,97.08,97.08,0,0,1,33.15-22.82q19.52-8.36,44.12-8.35t44.12,8.35a97.27,97.27,0,0,1,33.14,22.82,99.38,99.38,0,0,1,20.86,34.28,126.3,126.3,0,0,1,0,84.28,99.25,99.25,0,0,1-20.86,34.25A97.47,97.47,0,0,1,1224.6,353q-19.55,8.32-44.12,8.33T1136.36,353a97.37,97.37,0,0,1-33.15-22.84,99.08,99.08,0,0,1-20.85-34.25A121.42,121.42,0,0,1,1075.11,253.71Zm151.46,0a198.24,198.24,0,0,0-2.86-34.91,107.2,107.2,0,0,0-8.56-27.88q-5.7-11.85-14.48-18.44a34.23,34.23,0,0,0-40.39,0q-8.77,6.59-14.49,18.44a108,108,0,0,0-8.56,27.88,215.17,215.17,0,0,0,0,69.81,108,108,0,0,0,8.56,27.87q5.71,11.85,14.49,18.44a34.23,34.23,0,0,0,40.39,0q8.77-6.59,14.48-18.44a107.27,107.27,0,0,0,8.56-27.89A198.86,198.86,0,0,0,1226.57,253.71Z"/><path class="cls-1" d="M1520.71,361.26a97.69,97.69,0,0,1-38.63-7.46,91.74,91.74,0,0,1-30.51-20.86,102.5,102.5,0,0,1-20.64-31.35,117.73,117.73,0,0,1-9-39.08h-17.55V356.9h-57.07V207.59q0-19.74-5.49-31.83t-25.25-12.06h-4.39V150.53h52.68q11.43,0,19.1,2.86a25.5,25.5,0,0,1,12.3,9.43c3.08,4.39,5.19,10.26,6.36,17.57a175.67,175.67,0,0,1,1.76,27.21v35.13h18a119.24,119.24,0,0,1,9.44-38.2,100.21,100.21,0,0,1,20.41-30.5,93.37,93.37,0,0,1,30.07-20.44,96.25,96.25,0,0,1,38.41-7.46q22.39,0,40.61,8.35a93.56,93.56,0,0,1,31.17,22.82,102,102,0,0,1,20,34.25,129.86,129.86,0,0,1,0,84.28,101.84,101.84,0,0,1-20,34.25,93.76,93.76,0,0,1-31.17,22.84Q1543.11,361.26,1520.71,361.26Zm39.51-107.55a235.71,235.71,0,0,0-2.42-34.91,114.57,114.57,0,0,0-7.46-27.88q-5-11.85-12.5-18.44a25.18,25.18,0,0,0-17.13-6.59,24.91,24.91,0,0,0-17.35,6.59q-7.21,6.59-12.29,18.44a115.48,115.48,0,0,0-7.46,27.88,254.24,254.24,0,0,0,0,69.81,115.41,115.41,0,0,0,7.46,27.87q5.06,11.85,12.29,18.44a24.91,24.91,0,0,0,17.35,6.59,25.18,25.18,0,0,0,17.13-6.59q7.46-6.59,12.5-18.44a114.5,114.5,0,0,0,7.46-27.87A235.57,235.57,0,0,0,1560.22,253.71Z"/><path class="cls-1" d="M1699,240.53h22q26.32,0,36.22-8.78t9.87-28.54a40.81,40.81,0,0,0-3.28-16.89,31.19,31.19,0,0,0-8.79-11.64,38,38,0,0,0-12.73-6.59,50.49,50.49,0,0,0-14.7-2.2q-19.77,0-33.37,13.4t-14.93,34.9h-13.17q0-18.44,1.31-31.39t9.66-21.29q8.35-8.34,25-11.85a176.86,176.86,0,0,1,36.43-3.52q39.51,0,63.66,13.84t24.15,43.23q0,19.77-14.49,32.27t-38.19,16q27.23,3.53,43.24,17.12t16,33.36q0,15.81-6.59,27a52.2,52.2,0,0,1-18.66,18.45q-12.06,7.23-29,10.53a200.09,200.09,0,0,1-38,3.29q-31.18,0-50.48-10.09t-30.74-25l13.17-11a79.21,79.21,0,0,0,7.91,8.57,64,64,0,0,0,11.42,8.56,67.29,67.29,0,0,0,15.36,6.59,70.73,70.73,0,0,0,20.2,2.63q19.74,0,32.91-9T1773.53,302q0-20.62-11-31.16t-41.7-10.55h-22Z"/><path class="cls-1" d="M1897.42,143.59q0-18.09-5-29.17t-23.13-11.06h-4V91.26h48.3q10.47,0,17.51,2.62a23.45,23.45,0,0,1,11.27,8.65q4.22,6,5.83,16.09a162.09,162.09,0,0,1,1.6,25V338.76h104.64V91.26h52.32v247.5h14.09a13.79,13.79,0,0,1,14.09,13.48v79.08h-20.13q-2.43-21.72-6.45-36.22t-10.25-22.94a34.63,34.63,0,0,0-14.49-11.86,49.58,49.58,0,0,0-19.12-3.43h-167Z"/><path class="cls-1" d="M2185.86,207.59q0-19.74-5.49-31.83t-25.26-12h-2.17V150.53h117.65q39.49,0,64.09,13.18t24.59,39.5q0,19.77-14.7,31.17t-41,14.93q28.08,3.52,46.31,16.25t18.21,34.24q0,29.85-25.47,43.46t-72,13.61H2185.9Zm76.81-39.51a83.51,83.51,0,0,0-9.21.66,46,46,0,0,0-10.55,2.42v67.17h15.38a47.94,47.94,0,0,0,29.19-9.23q12.54-9.22,12.52-25.9a35.07,35.07,0,0,0-3.32-15.81,32,32,0,0,0-8.77-11,35.44,35.44,0,0,0-12.07-6.36,45.55,45.55,0,0,0-13.17-1.94Zm0,171.22q19.76,0,32.93-9.88t13.17-29.63q0-21.07-13.6-31.39t-36.88-10.32h-15.38v78.14a45,45,0,0,0,10.55,2.42,83.53,83.53,0,0,0,9.21.67Z"/><path class="cls-1" d="M2518.19,341.51q22.83,0,37.1-10.54A122.92,122.92,0,0,0,2581,305.06l13.61,10.1a151,151,0,0,1-11.64,15.58,82.52,82.52,0,0,1-16.66,14.94A90.31,90.31,0,0,1,2543,356.87q-13.39,4.38-31.39,4.39-23.3,0-41.93-8.12a92.37,92.37,0,0,1-31.84-22.61,100.33,100.33,0,0,1-20.19-34,125.88,125.88,0,0,1-7-42.79q0-26.36,7.46-46.54t20.41-33.61a86.56,86.56,0,0,1,30.5-20.42,102.23,102.23,0,0,1,38.19-7,111.6,111.6,0,0,1,38.19,6.36,94.71,94.71,0,0,1,30.53,17.78A82.66,82.66,0,0,1,2596.34,198a85.37,85.37,0,0,1,7.46,36c0,3.23-.08,6.53-.23,9.88s-.35,6.37-.66,9c-.27,3.23-.58,6.15-.88,8.78H2469.91q0,43.47,13.38,61.68T2518.19,341.51Zm26.35-99.67q0-21.94-2.86-36.43T2534,182.14q-4.86-8.77-11.64-12.52a31.16,31.16,0,0,0-15.15-3.73,29.32,29.32,0,0,0-14.26,3.73q-6.84,3.75-11.86,12.52T2473,205.41q-3.07,14.49-3.06,36.43Z"/><path class="cls-1" d="M2693.36,170.28q-19.77,0-30.73,10.55t-11,35.56h-13.18V185.66a54.2,54.2,0,0,1,1.55-13,30.79,30.79,0,0,1,5-11.19,25.77,25.77,0,0,1,9.89-7.91c4.22-2,9.71-3.07,16.46-3.07h158.48v19.75h-66.29V356.87h-57V170.28Z"/><path class="cls-1" d="M3074.6,91.26v18.11h-84.12v247.5h-52.3V109.37H2909.6q-21.36,0-33.81,10.67t-12.47,37.62h-12.07V123.45a50.93,50.93,0,0,1,1.39-11.86,24.11,24.11,0,0,1,5.24-10.27,28.1,28.1,0,0,1,10.47-7.24q6.65-2.81,17.1-2.82Z"/><path class="cls-1" d="M3102.11,253.71a121.35,121.35,0,0,1,7.23-42.15,99.13,99.13,0,0,1,20.87-34.25,96.76,96.76,0,0,1,33.13-22.82q19.54-8.36,44.13-8.35t44.11,8.35a97.21,97.21,0,0,1,33.16,22.82,98.92,98.92,0,0,1,20.8,34.28,125.93,125.93,0,0,1,0,84.28,98.66,98.66,0,0,1-20.84,34.25A97.41,97.41,0,0,1,3251.54,353q-19.53,8.32-44.11,8.33T3163.3,353a97.19,97.19,0,0,1-33.13-22.84,99,99,0,0,1-20.87-34.25A121.4,121.4,0,0,1,3102.11,253.71Zm151.47,0a200.16,200.16,0,0,0-2.86-34.91,109.29,109.29,0,0,0-8.57-27.88q-5.68-11.85-14.49-18.44a34.23,34.23,0,0,0-40.39,0q-8.78,6.59-14.47,18.44a106.84,106.84,0,0,0-8.57,27.88,214.61,214.61,0,0,0,0,69.81,106.66,106.66,0,0,0,8.57,27.87q5.68,11.85,14.47,18.44a34.23,34.23,0,0,0,40.39,0q8.79-6.59,14.49-18.44a109.22,109.22,0,0,0,8.57-27.87,200.09,200.09,0,0,0,2.82-34.9Z"/><path class="cls-1" d="M3480.11,146.14q22.8,0,40.16,8.35a82.46,82.46,0,0,1,29,22.82,97,97,0,0,1,17.28,34.28,158.42,158.42,0,0,1,0,84.28A94.85,94.85,0,0,1,3549,330.12,83.72,83.72,0,0,1,3519.36,353q-17.76,8.32-41.48,8.33a84.34,84.34,0,0,1-19.33-2,88.81,88.81,0,0,1-14.49-4.62,48.68,48.68,0,0,1-12.29-6.58v92.19h-57.06V207.59a133.89,133.89,0,0,0-1.11-17.78,42.69,42.69,0,0,0-4.17-14.05,20.31,20.31,0,0,0-9.21-9q-6.15-3.07-15.81-3.07H3340V150.53h43.48q14.91,0,23.49,4T3420.36,169a114.94,114.94,0,0,1,9.44-7.46,85,85,0,0,1,12.74-7.46,79.3,79.3,0,0,1,16.67-5.71A91.83,91.83,0,0,1,3480.11,146.14Zm-8.8,19.75q-16.67,0-26.76,6.15a84.29,84.29,0,0,0-15.81,11.86,40.32,40.32,0,0,0,1.32,6.15,44.41,44.41,0,0,1,1.31,6.57,70.55,70.55,0,0,1,.43,8.35V328.33a48.23,48.23,0,0,0,10.55,6.59,57.39,57.39,0,0,0,11.63,4.61,54.23,54.23,0,0,0,15.15,2q12.3,0,20.64-6.59t13.61-18.44a103.41,103.41,0,0,0,7.43-27.91,278.31,278.31,0,0,0,0-69.81,109.32,109.32,0,0,0-7.26-27.88q-5.06-11.85-13-18.44a29.15,29.15,0,0,0-19.27-6.57Z"/><path class="cls-1" d="M3631.11,207.59q0-19.74-5.49-31.83t-25.26-12.06h-2.18V150.53h151.43c6.45,0,11.86,1,16.26,3.07a25.63,25.63,0,0,1,10.09,7.91,31.45,31.45,0,0,1,5,11.19,54.76,54.76,0,0,1,1.54,13v30.69h-13.18q0-25-11-35.56t-30.73-10.55h-39.48V356.87h-57Z"/><path class="cls-1" d="M644.88,231c-2.43-3.12-60.41-77-124.45-121.89-127-89-191-107.54-193.7-108.29l-3-.84-3,.84C318.07,1.59,254,20.16,127,109.13,63,154,5,227.9,2.58,231L0,234.33l.24,4.18c.26,4.56,6.89,112.55,39.19,202,32.06,88.73,77.38,170.55,77.84,171.37l2.08,3.72,4,1.39c1,.36,9.7,3.26,24.55,7,.49.17,1,.25,1.55.38,31.6,7.86,89.83,19.15,164.22,19.15,3.3,0,6.65,0,10-.06,117,1.48,197-25.32,200.34-26.47l4-1.39,2.09-3.72c.45-.82,45.78-82.64,77.84-171.37,32.3-89.4,38.92-197.39,39.18-202l.25-4.18Zm-321,390.13h-.31A677.11,677.11,0,0,1,182.8,608.84c47-32.58,109.08-83.12,112.9-124.91,7.14.41,14.68.68,22.4.89a9.73,9.73,0,0,0,1.31.24c1.47,0,2.85-.07,4.3-.1s2.82.08,4.29.1h.11a8.92,8.92,0,0,0,1.25-.25c7.71-.2,15.23-.47,22.36-.88,4.13,42.4,69.84,92.55,118,123.89a685.21,685.21,0,0,1-145.84,13.33Zm-53-159.38c-52.2-5.74-87.44-19.44-122.23-45.58-52.88-39.74-75.73-77.31-84.45-95.44,18.86-.89,57.81.77,105.74,22,66.29,29.39,86.42,75.84,100.93,119Zm206.61-119c42-18.62,77.12-22.19,97.87-22.19,2.91,0,5.54.06,7.87.18-8.72,18.16-31.58,55.71-84.45,95.44-34.79,26.14-70,39.84-122.23,45.58,14.56-43.19,34.64-89.64,100.93-119ZM292.61,463.67c-4.67-14.31-9.86-29.54-17-44.78a143.38,143.38,0,0,0,47,8.18,149.24,149.24,0,0,0,49.26-8.54c-7.19,15.36-12.42,30.72-17.13,45.14-9.75.63-20.16,1-31.11,1.24-10.87-.24-21.28-.62-31-1.25Zm294.5-30.77c-27.52,76.18-65,147.23-74.27,164.26-3.3,1-8.61,2.55-15.68,4.38C439.52,565.93,373.93,515,371.54,482.45c60-5.6,99.67-20.47,139.29-50.23,79.48-59.74,95.74-115.06,96.39-117.39a10,10,0,0,0-6.89-12.35c-.26-.07-.52-.14-.79-.19-2.25-.44-56.11-10.68-130.17,22.15-39.15,17.35-63.89,40.29-80.79,64.79a9.81,9.81,0,0,0-2.55,1c-.57.37-57.43,36-122.34,1.8A10.1,10.1,0,0,0,260,391c-16.93-25.15-41.87-48.76-81.87-66.51-74.13-32.85-128-22.59-130.22-22.15A10,10,0,0,0,40,314c.05.27.12.54.19.8.66,2.33,16.91,57.65,96.39,117.39,39.62,29.77,79.27,44.64,139.33,50.24-2.07,32.24-64.16,83.53-120.1,120.46-9.84-2.43-17.11-4.52-21.22-5.77-9.2-17-46.71-88-74.25-164.25-27.7-76.65-36-170.65-37.61-191.48,12-14.83,63.14-76.28,117.05-114.07C248,51.57,309.79,28,323.73,23.24,337.65,28,399.49,51.57,507.65,127.35c53.86,37.74,105.07,99.24,117.06,114.07C623.11,262.24,614.82,356.18,587.11,432.9ZM478,260.38c-2.15-5.42-2.1-10.87-2-16.64v-4.57A200.17,200.17,0,0,0,474,212.71c-2-12.94-7.36-23.45-16.07-31.23-2.35-2.1-3-3.9-2.4-7.14a104.34,104.34,0,0,0,.8-31.7c-2.54-19.28-9.91-32.09-23.2-40.32a1.83,1.83,0,0,1-.67-.81c-2.85-11-10.38-15.89-21.82-14.09a9.87,9.87,0,0,1-4.91-.44,125.78,125.78,0,0,0-32.85-8.51c-16-1.76-28.66.61-39.91,7.51a3.21,3.21,0,0,1-1.94-.07c-2.16-.78-4.28-1.67-6.4-2.55a86.73,86.73,0,0,0-11.5-4.17c-20-5.24-37.93-6.68-54.67-4.42-13,1.75-22.57,5.67-30,12.36a10.72,10.72,0,0,1-6.71,3c-8,.66-13,5-14.46,12.66-.16.84-.3,1.7-.43,2.56a18.8,18.8,0,0,1-1.51,5.9c-1.52,2.92-3.4,5.77-5.2,8.53-1.43,2.18-2.85,4.35-4.15,6.6-7.17,12.36-10.93,23.94-11.49,35.38-.3,5.94-.4,12.84,2.09,19.61a3.52,3.52,0,0,1-.15,2.35c-13,14.77-20.61,30.12-23.2,46.94A54.57,54.57,0,0,0,167,260.89a6.65,6.65,0,0,1,.58,4.07c-3.47,9.06-.18,17.06,9,22a14.4,14.4,0,0,1,4.61,3.43c7,9.35,15.74,20.06,27.06,28.65,11.09,8.4,21.36,12.75,32.3,13.68,2.51.22,3.32,1,4.45,3.17,13.24,25.52,33.64,38.91,60.64,39.79a6.2,6.2,0,0,1,3.58,1.39c3.71,3.34,7.65,5,11.7,5a17.94,17.94,0,0,0,9.92-3.29l.71-.46c3.15-2.09,6.4-4.25,9.8-5.43,12.92-4.5,23-9.4,31.64-15.42,9.67-6.7,21.14-16.48,24.27-32.77,1.89-.33,3.78-.61,5.68-.88,2.82-.4,5.63-.8,8.4-1.41,2.29-.5,4.54-1.07,6.63-1.63,1.25-.25,2.61-.54,4.16-.95a89.5,89.5,0,0,0,19.34-7.44l.19.07,1-.69a56.41,56.41,0,0,0,10.24-6.94,44.87,44.87,0,0,0,15.63-23.44,6.85,6.85,0,0,1,2.41-3.06C473.58,276.26,481.86,270,478,260.38Zm-295.78,7.37c2-3.47,2-6.08-.11-9.66-5.54-9.45-6.51-20.11-2.93-32.58A78.4,78.4,0,0,1,196,195.19c6.5-7.39,15-12.08,23.84-16.62,2.38-1.22,4.86-2.24,7.49-3.32l.42-.17c-.42,2-.84,4-1.26,5.9-1.47,6.82-2.85,13.27-3.75,19.88-2.19,16.12-1.89,30.56.94,44.15,2.57,12.39,6.76,22.57,12.79,31.09a3.5,3.5,0,0,1,.48,2c-.89,13.42.79,26.73,2.73,39.12v.5l-1-.22a47.22,47.22,0,0,1-6.62-1.79c-14.11-5.31-24.31-16-31.61-24.74-1.6-1.91-3.06-3.93-4.52-6s-3.13-4.33-4.84-6.37c-1.56-1.85-4-2.87-5.86-3.69-2.55-1.09-3.95-2.1-4.27-3.07S181.11,269.66,182.26,267.75Zm38.5-157.39v-.62c.11-1.84.33-4,1.13-4.7a3.45,3.45,0,0,1,2.22-.45,19.36,19.36,0,0,1,2.4.17c3.69.44,6.19-.52,8.68-3.54,5.92-7.16,14.4-10.9,27.47-12.1A131.11,131.11,0,0,1,309,93.3c18.12,4.94,32.05,14.58,42.5,29.4h-1.7c-4.23,0-8.19.08-12.12-.14a14.23,14.23,0,0,1-4.82-1.66l-.9-.42c-11.87-5.48-24.33-4.71-36.08-3.43A91,91,0,0,0,267,124.76a62.2,62.2,0,0,0-30,28.51c-1.49,2.91-3.31,4.06-6.35,5.26-7.26,2.9-14.4,6.36-21.3,9.71q-3.74,1.81-7.47,3.59a23.9,23.9,0,0,0-2.31,1.3c-1.48-5.27-.91-10.42-.19-14.45,2.34-13.17,8.2-25.65,18.45-39.29,1.73-2.36,3.57-5.19,2.95-9Zm169.58,162c-7.37,6-13.83,10.65-21.42,13.57a54.49,54.49,0,0,1-33.2,2c-3.56-.85-7.14-2.09-10.61-3.27-1.55-.54-3.11-1.06-4.66-1.57-5.21-1.68-8.59-5.72-12.17-10l-1.17-1.4c-.79-.94-1.54-1.9-2.32-3,17.73,4.09,33.31,2.54,47.54-4.77,10.72-5.52,19.1-14.25,25.64-26.71,9.24-17.61,11.53-36.56,12.48-51.1a226.45,226.45,0,0,0-.08-23.45,12.74,12.74,0,0,0-2.9-7.83c-1.72-1.88-6.16-2.06-8.08-.78a9.58,9.58,0,0,0-3.83,7.15c0,2,0,4,.11,6.06-4.81-11.59-10.27-20.84-17-28.77l2.47.41c15,2.69,26.63,8.66,35.5,18.25,7.3,7.9,12.2,18,14.55,29.95,2.09,10.61,4,21,4.36,31.5.73,21.44-7.75,39.52-25.21,53.77Zm-29-36.18c-.23-1.65-.44-3.29-.66-4.93-1-7.33-2-14.91-3.69-22.21-2.42-10.48-7.91-18-16.73-22.93l13.2-6.86c6,5.54,10,12.8,12.2,22.15A96.23,96.23,0,0,1,368,219.84c.32,6.4-3,11.25-6.61,16.35Zm-15.23-.11c0,1.91,0,3.83-.06,5.75-.05,2.37-.1,4.75,0,7.11.05,1.48-.44,2.17-2,2.85-11.65,5-23.51,5.84-36.25,2.56-14.5-3.74-24.5-13.66-31.48-31.25-.39-1,.5-3.25,1.15-4.92l.57-1.52c5.14-14.38,10.92-25.19,18.18-34,8.4,7.87,19.08,12.64,33.41,15,4.91.79,8.64,4.13,11.44,10.2C345.23,217,346,226.81,346.11,236.07Zm-39.17-63.35c7.95-6.47,21.21-6.18,31.54-2.47-2.59,1.44-5.12,2.85-7.55,4.39a44.84,44.84,0,0,0-4,3,33.7,33.7,0,0,1-3.15,2.38c-.76.52-1.6.84-1.53.94-5.43-2.7-10.77-5.71-15.31-8.24Zm134.87-7.28c-1.05,12.33-2.66,22.47-7.09,31.92a67.62,67.62,0,0,1-5.07,8.92l-.22-1.4c-.72-4.76-1.46-9.51-2.37-14.23-2-10.49-5.42-24.06-13.72-36-9.61-13.75-23-23.12-39.73-27.86a7,7,0,0,1-4.79-4A87,87,0,0,0,346.2,95.69c6.15-2.51,12.85-3.45,21.29-2.91,11.88.72,23.8,3.87,37.53,10,1.74.77,3.68.32,5.39-.07l1-.22c1.63-.32,4.67-.87,5.46-.32s1.17,3.57,1.34,4.86c.56,4.22,2.68,6,5.71,7.47,7.85,3.72,13.06,10.61,15.91,21.06C442.21,144,442.81,153.48,441.81,165.44ZM236.5,211.53c1.62-23.2,6.83-41.08,16.36-56.27,6.45-10.29,16.22-17.12,29.05-20.33a155.82,155.82,0,0,1,24.56-4c14.26-1.24,27.14,4.17,39.45,16.43a65.65,65.65,0,0,1,10.8,14.73,41.94,41.94,0,0,0-8-3.67l-1.7-.65c-26.61-10.33-46.85-4.79-63.63,17.41a173.28,173.28,0,0,0-11.46,18.12l-2,3.41c-.49-3.59-.81-7.21-.94-10.83-.16-7,.1-14.18.34-21.1l.11-3.06c.15-4.54-2.37-8-6.26-8.72a6.88,6.88,0,0,0-5.49,1.34,7.72,7.72,0,0,0-2.94,5.51c-.55,5.87-.8,11.76-.76,17.53.13,19.36,2.61,35,7.77,49.34a87.34,87.34,0,0,0,12.73,23.06,126.23,126.23,0,0,1,7.3,11.28q1.33,2.25,2.72,4.5a143.19,143.19,0,0,0,21.76,27l-1.91.05a87.75,87.75,0,0,1-11.58-.19c-16.44-1.72-29.37-7.87-39.53-18.8-7.26-7.82-12-17.51-15-30.5C236.18,233.93,235.62,223.92,236.5,211.53Zm16.44,81.41c2.84,1.85,5.52,3.59,8.39,5.08,17.21,8.92,34.87,11.72,52.57,8.29,6-1.11,10.18.6,15.09,3.74,14.88,9.54,32.12,14.73,51.33,15.54l1.34.08c-2.31,6.75-6.86,12.36-14.45,17.93-9.81,7.19-21.57,12.75-35.93,17a14.73,14.73,0,0,0-5.18,3.3c-.53.45-1.06.9-1.58,1.3-2,1.5-3.4,2.16-4.06,2s-1.78-1.09-3.14-3.05-3.16-3.88-6.61-3.88a10.32,10.32,0,0,0-1.11.06c-18.1,2-32.93-5.14-46.58-22.36-6.74-8.51-8.24-18.67-9.88-29.74-.55-3.73-.8-7.62-1-11.37-.09-1.46-.19-2.92-.29-4.38v-.25ZM349,304.05a65.62,65.62,0,0,0,29.07-6c11.35-5.22,21.93-13.34,32.34-24.83a71.79,71.79,0,0,0,18.06-36.4c.56-3.21,1-6,3.24-8.35a86.75,86.75,0,0,0,15.67-23.67c1.18-2.65,2.28-5.33,3.4-8.07l.44-1,.25.37.33.48c3.9,5.48,6.5,12.09,8.2,20.83a94.06,94.06,0,0,1,.39,32.79,12.35,12.35,0,0,0,1.54,8.67c1.31,2.35,2.47,4.66,2.18,5.6s-2.81,2.23-5.13,3.33a6.3,6.3,0,0,0-4,5.3,28.16,28.16,0,0,1-9.22,18.33c-1.93,1.75-4,3.3-5.95,4.8l-1.24,1c-1.48.89-2.84,1.65-4,2.24-2.46,1.11-4.93,2.11-7.25,3a11.94,11.94,0,0,1-1.57.37l-2,.94a137.57,137.57,0,0,1-35.92,7c-13.17.81-29.26-2.53-38.83-6.73Z"/><path class="cls-1" d="M929.55,532.85q-3.7-17.77-13.57-27.25t-26.08-9.47a47.22,47.22,0,0,0-16.8,2.93,32.25,32.25,0,0,0-13.67,10q-5.86,7.14-9.18,19t-3.33,29.59a98,98,0,0,0,2.35,21.59,56.45,56.45,0,0,0,7.51,18.46,39.49,39.49,0,0,0,13.33,12.79q8.1,4.8,19.82,4.8a46.63,46.63,0,0,0,25-7.13q11.52-7.14,18.56-20.81l6.84,5.28q-9.18,16.22-22.46,23.82t-33.8,7.63A69.73,69.73,0,0,1,856.62,619a57.08,57.08,0,0,1-20.22-14.06,61.49,61.49,0,0,1-12.5-21.09,77.75,77.75,0,0,1-4.29-26.18A76.74,76.74,0,0,1,824.49,530,69.57,69.57,0,0,1,838,507.75a63.06,63.06,0,0,1,20.41-15,60.53,60.53,0,0,1,25.69-5.46q18.36,0,29.6,4.78t16.69,11q3.92,5.08,4.5,13.09c.38,5.33.59,10.87.59,16.6Z"/><path class="cls-1" d="M1005,613.33q10.15,0,16.5-4.68a55.28,55.28,0,0,0,11.43-11.53l6.06,4.48a72.19,72.19,0,0,1-5.17,7,37.24,37.24,0,0,1-7.43,6.64,40.24,40.24,0,0,1-10.35,5,45.17,45.17,0,0,1-14,2,46.6,46.6,0,0,1-18.65-3.61,40.78,40.78,0,0,1-14.16-10.06,44.45,44.45,0,0,1-9-15.14,55.58,55.58,0,0,1-3.13-19,59.31,59.31,0,0,1,3.32-20.71,42.08,42.08,0,0,1,9.08-14.93,38.81,38.81,0,0,1,13.58-9.1,45.78,45.78,0,0,1,17-3.12,49.7,49.7,0,0,1,17,2.83,42.06,42.06,0,0,1,13.58,7.92,36.71,36.71,0,0,1,9.08,12.3,38,38,0,0,1,3.31,16c0,1.42,0,2.89-.08,4.38s-.17,2.84-.29,4c-.14,1.43-.27,2.73-.4,3.91h-58.8q0,19.33,6,27.44T1005,613.33ZM1016.68,569a86.33,86.33,0,0,0-1.27-16.21,36.05,36.05,0,0,0-3.42-10.36,13.54,13.54,0,0,0-5.18-5.56,13.8,13.8,0,0,0-6.74-1.67,13.05,13.05,0,0,0-6.34,1.67,14.05,14.05,0,0,0-5.28,5.56,36,36,0,0,0-3.61,10.36A80.07,80.07,0,0,0,983.47,569Z"/><path class="cls-1" d="M1082.9,537.15c-5.86,0-10.42,1.55-13.68,4.69s-4.88,8.4-4.88,15.82h-5.86V544a24.33,24.33,0,0,1,.69-5.76,13.79,13.79,0,0,1,2.25-5,11.38,11.38,0,0,1,4.39-3.51,16.89,16.89,0,0,1,7.32-1.37h70.52v8.79h-29.54v83h-25.39v-83Z"/><path class="cls-1" d="M1165.72,553.75q0-8.79-2.44-14.16t-11.23-5.37h-2v-5.86h23.44a24.71,24.71,0,0,1,8.49,1.26,11.46,11.46,0,0,1,5.48,4.2,18.92,18.92,0,0,1,2.83,7.82,79.13,79.13,0,0,1,.79,12.11v11.73h14.64q18.36,0,29.2,7t10.85,20.31q0,13.29-10.85,20.32t-29.2,7h-40ZM1191.11,611a20.25,20.25,0,0,0,4.68,1.07,37.67,37.67,0,0,0,4.11.29,28,28,0,0,0,7.61-1,16.26,16.26,0,0,0,6.16-3.22,15.78,15.78,0,0,0,4.2-6,28.78,28.78,0,0,0,0-18.65,15.42,15.42,0,0,0-4.2-6.06,15.87,15.87,0,0,0-6.16-3.23,28.35,28.35,0,0,0-7.61-1,37.67,37.67,0,0,0-4.11.29,19.76,19.76,0,0,0-4.68,1.08Z"/><path class="cls-1" d="M1323.74,620.17V553.75q0-8.79-2.44-14.16t-11.23-5.37h-2v-5.86h23.43a24.77,24.77,0,0,1,8.5,1.26,11.43,11.43,0,0,1,5.47,4.2,18.92,18.92,0,0,1,2.83,7.82,79.13,79.13,0,0,1,.79,12.11v57.63h31.25v-83h25.39v83h5.87a6.67,6.67,0,0,1,6.83,6.51v33.54h-8.79a80.28,80.28,0,0,0-2.55-15.63,28.35,28.35,0,0,0-4.48-9.57,13.93,13.93,0,0,0-6.45-4.8,26,26,0,0,0-8.4-1.26Z"/><path class="cls-1" d="M1439.39,553.75q0-8.79-2.44-14.16t-11.23-5.37h-1v-5.86h52.39q17.58,0,28.52,5.86t10.94,17.57q0,8.81-6.55,13.88t-18.26,6.63q12.51,1.58,20.61,7.24a17.73,17.73,0,0,1,8.11,15.24q0,13.28-11.33,19.33t-32,6.06h-37.7Zm34.18-17.57a33.1,33.1,0,0,0-4.1.29,20.45,20.45,0,0,0-4.69,1.07v29.88h6.84a21.29,21.29,0,0,0,13-4.09c3.72-2.74,5.56-6.58,5.56-11.54a15.66,15.66,0,0,0-1.45-7,14.71,14.71,0,0,0-3.91-4.88,15.83,15.83,0,0,0-5.37-2.83,20.6,20.6,0,0,0-5.88-.9Zm0,76.17q8.81,0,14.66-4.38t5.85-13.19q0-9.37-6-14c-4-3.06-9.51-4.59-16.42-4.59h-6.84V611a20.45,20.45,0,0,0,4.69,1.07,39.4,39.4,0,0,0,4.06.31Z"/><path class="cls-1" d="M1587.27,613.33q10.17,0,16.5-4.68a55,55,0,0,0,11.43-11.53l6.06,4.48a72.19,72.19,0,0,1-5.17,7,36.91,36.91,0,0,1-7.42,6.64,40.46,40.46,0,0,1-10.36,5,44.88,44.88,0,0,1-14,2,46.6,46.6,0,0,1-18.65-3.61,40.87,40.87,0,0,1-14.16-10.06,44.45,44.45,0,0,1-9-15.14,55.81,55.81,0,0,1-3.12-19,59.57,59.57,0,0,1,3.31-20.71,42.31,42.31,0,0,1,9.08-14.93,38.81,38.81,0,0,1,13.58-9.1,45.78,45.78,0,0,1,17-3.12,49.7,49.7,0,0,1,17,2.83,42.06,42.06,0,0,1,13.58,7.92,36.61,36.61,0,0,1,9.08,12.3,37.86,37.86,0,0,1,3.32,16c0,1.42,0,2.89-.09,4.38s-.17,2.84-.29,4c-.14,1.43-.27,2.73-.39,3.91h-58.81q0,19.33,6,27.44T1587.27,613.33ZM1599,569a88,88,0,0,0-1.26-16.21,36.38,36.38,0,0,0-3.43-10.36,13.52,13.52,0,0,0-5.17-5.56,13.8,13.8,0,0,0-6.74-1.67,13,13,0,0,0-6.35,1.67,14,14,0,0,0-5.27,5.56,35.67,35.67,0,0,0-3.62,10.36,80.07,80.07,0,0,0-1.37,16.21Z"/><path class="cls-1" d="M1665.22,537.15c-5.87,0-10.42,1.55-13.69,4.69s-4.88,8.4-4.88,15.82h-5.85V544a24.85,24.85,0,0,1,.68-5.76,14,14,0,0,1,2.25-5,11.47,11.47,0,0,1,4.39-3.51,16.89,16.89,0,0,1,7.32-1.37H1726v8.79h-29.51v83h-25.35v-83Z"/><path class="cls-1" d="M1736.89,574.26a54,54,0,0,1,3.23-18.75,44,44,0,0,1,9.28-15.24,43,43,0,0,1,14.75-10.15,53.65,53.65,0,0,1,39.26,0,43,43,0,0,1,14.75,10.15,44.25,44.25,0,0,1,9.28,15.24,56.27,56.27,0,0,1,0,37.51,44.4,44.4,0,0,1-9.28,15.24,43.42,43.42,0,0,1-14.75,10.15,53.75,53.75,0,0,1-39.26,0,43,43,0,0,1-14.75-10.15,44.1,44.1,0,0,1-9.28-15.24A54,54,0,0,1,1736.89,574.26Zm67.39,0a87.77,87.77,0,0,0-1.26-15.52,47.71,47.71,0,0,0-3.81-12.41,21.76,21.76,0,0,0-6.45-8.21,15.25,15.25,0,0,0-18,0,22,22,0,0,0-6.45,8.21,48.07,48.07,0,0,0-3.8,12.41,95.41,95.41,0,0,0,0,31,48.07,48.07,0,0,0,3.8,12.41,22,22,0,0,0,6.45,8.21,15.28,15.28,0,0,0,18,0,21.94,21.94,0,0,0,6.45-8.21,47.71,47.71,0,0,0,3.81-12.41A88.19,88.19,0,0,0,1804.28,574.26Z"/><path class="cls-1" d="M1857.24,553.75q0-8.79-2.45-14.16t-11.23-5.37h-2v-5.86H1865a24.71,24.71,0,0,1,8.49,1.26,11.41,11.41,0,0,1,5.48,4.2,18.73,18.73,0,0,1,2.83,7.82,79.13,79.13,0,0,1,.79,12.11v5.84q0,11.13,4.38,15.83c2.94,3.12,6.87,4.68,11.83,4.68a27.75,27.75,0,0,0,7.32-.78,28,28,0,0,0,5.77-2.34V528.34h25.39v91.81h-25.39V585.39a36.67,36.67,0,0,1-7.72,2.44,44.8,44.8,0,0,1-9.86,1.08,65.18,65.18,0,0,1-14.47-1.56,32.77,32.77,0,0,1-11.81-5.08,25.55,25.55,0,0,1-7.92-9.08,29,29,0,0,1-2.92-13.58Z"/><path class="cls-1" d="M2026,578.17h-31.24v42h-25.4V553.75q0-8.79-2.44-14.16t-11.23-5.37h-2v-5.86h23.43a24.77,24.77,0,0,1,8.5,1.26,11.41,11.41,0,0,1,5.48,4.2,19,19,0,0,1,2.83,7.82,79.12,79.12,0,0,1,.78,12.11v15.63h31.24v-41h25.39V594.8c0,5.85.81,10.58,2.48,14.16s5.36,5.37,11.23,5.37H2067v5.86h-23.42A26,26,0,0,1,2035,619a10.81,10.81,0,0,1-5.46-4.09,18.59,18.59,0,0,1-2.83-7.82,74.41,74.41,0,0,1-.81-12.3Z"/><path class="cls-1" d="M2087.11,553.75q0-8.79-2.42-14.16t-11.23-5.37h-2v-5.86h23.45a24.77,24.77,0,0,1,8.5,1.26,11.47,11.47,0,0,1,5.46,4.2,18.46,18.46,0,0,1,2.83,7.82,77.89,77.89,0,0,1,.79,12.11v11.73h12.69q18.36,0,29.21,7t10.85,20.31q0,13.29-10.85,20.32t-29.21,7h-38.07Zm25.4,57.24a21.64,21.64,0,0,0,4.7,1.07,37.49,37.49,0,0,0,4.1.29,21.4,21.4,0,0,0,6.45-1,15.72,15.72,0,0,0,5.66-3.22,15.35,15.35,0,0,0,4-6,30.31,30.31,0,0,0,0-18.65,15.13,15.13,0,0,0-4-6.06,15.29,15.29,0,0,0-5.66-3.23,21.72,21.72,0,0,0-6.45-1,35.16,35.16,0,0,0-4.1.29,20.55,20.55,0,0,0-4.7,1.08Zm87.91-16.21c0,5.85.81,10.58,2.43,14.16s5.39,5.37,11.25,5.37h2v5.86h-23.45a26,26,0,0,1-8.49-1.18,10.74,10.74,0,0,1-5.47-4.09,18.59,18.59,0,0,1-2.83-7.82,79.08,79.08,0,0,1-.78-12.3V528.36h25.39Z"/><path class="cls-1" d="M2258.27,579.34l-18.77-31.45a40.1,40.1,0,0,0-8.88-10.94,20.32,20.32,0,0,0-9.28-4.68v-3.91h18.56q9.57,0,15.15,4.2a39.18,39.18,0,0,1,9.87,11.42l9.36,15.83,25.59-31.45H2313L2280,569l18.94,31.64a40.54,40.54,0,0,0,8.91,10.94,20.43,20.43,0,0,0,9.28,4.69v3.91h-18.59q-9.57,0-15.15-4.2a39.35,39.35,0,0,1-9.87-11.43l-9.56-15.82-25.59,31.45h-13.08Z"/><path class="cls-1" d="M2390.72,553.75c0-5.86-.84-10.58-2.45-14.16s-5.37-5.37-11.23-5.37h-1v-5.86h67.4a16.94,16.94,0,0,1,7.23,1.37,11.33,11.33,0,0,1,4.48,3.51,13.62,13.62,0,0,1,2.25,5,24.33,24.33,0,0,1,.69,5.76v13.68h-5.85q0-11.13-4.9-15.82c-3.24-3.14-7.82-4.69-13.66-4.69h-17.57v83h-25.39Z"/><path class="cls-1" d="M2482.53,553.75q0-8.79-2.43-14.16t-11.23-5.37h-2v-5.86h23.44a24.8,24.8,0,0,1,8.5,1.26,11.36,11.36,0,0,1,5.46,4.2,18.47,18.47,0,0,1,2.84,7.82,76.67,76.67,0,0,1,.78,12.11v42l35.18-67.39h23.42v91.81h-25.38V552.78L2506,620.17h-23.44Z"/><path class="cls-1" d="M2597.58,553.75c0-5.86-.84-10.58-2.45-14.16s-5.37-5.37-11.23-5.37h-1v-5.86h96.71v91.81h-25.4v-83H2623v83h-25.39Z"/><path class="cls-1" d="M2751.3,613.33c6.78,0,12.27-1.56,16.52-4.68a55.52,55.52,0,0,0,11.43-11.53l6,4.48a70.67,70.67,0,0,1-5.18,7,36.86,36.86,0,0,1-7.41,6.64,40.36,40.36,0,0,1-10.37,5,44.88,44.88,0,0,1-14,2,46.22,46.22,0,0,1-18.64-3.61,40.91,40.91,0,0,1-14.17-10.06,44.87,44.87,0,0,1-9-15.14,56.38,56.38,0,0,1-3.11-19,59.53,59.53,0,0,1,3.31-20.71,42.46,42.46,0,0,1,9.08-14.93,38.94,38.94,0,0,1,13.58-9.1,45.78,45.78,0,0,1,17-3.12,49.7,49.7,0,0,1,17,2.83,42.06,42.06,0,0,1,13.58,7.92,36.84,36.84,0,0,1,9.08,12.3,38,38,0,0,1,3.31,16c0,1.42,0,2.89-.1,4.38s-.15,2.84-.28,4c-.13,1.43-.28,2.73-.4,3.91h-58.81q0,19.33,6,27.44C2739.74,610.59,2744.93,613.33,2751.3,613.33ZM2763,569a84.7,84.7,0,0,0-1.29-16.21,36.05,36.05,0,0,0-3.42-10.36,12.76,12.76,0,0,0-11.91-7.23,13,13,0,0,0-6.35,1.67,14.19,14.19,0,0,0-5.28,5.56,35.92,35.92,0,0,0-3.6,10.36A78.68,78.68,0,0,0,2729.8,569Z"/><path class="cls-1" d="M2863.11,526.4a40.58,40.58,0,0,1,17.86,3.72,36.19,36.19,0,0,1,12.9,10.15,43.23,43.23,0,0,1,7.71,15.24,70,70,0,0,1,0,37.51,42.47,42.47,0,0,1-7.81,15.24,37.33,37.33,0,0,1-13.18,10.15,43.14,43.14,0,0,1-18.46,3.71,37.11,37.11,0,0,1-8.6-.88,38.1,38.1,0,0,1-6.45-2,21.78,21.78,0,0,1-5.46-2.93v41h-25.4V553.75a61.52,61.52,0,0,0-.48-7.91,19.06,19.06,0,0,0-1.87-6.25,9,9,0,0,0-4.1-4,15.75,15.75,0,0,0-7-1.36h-1.94v-5.86h19.28q6.63,0,10.47,1.76a12.35,12.35,0,0,1,5.94,6.43c1.19-1,2.58-2.13,4.2-3.31a40.21,40.21,0,0,1,5.67-3.32,36.24,36.24,0,0,1,7.43-2.55A41.48,41.48,0,0,1,2863.11,526.4Zm-3.92,8.79q-7.43,0-11.91,2.74a36.43,36.43,0,0,0-7,5.28,23.25,23.25,0,0,0,.58,2.73,18.3,18.3,0,0,1,.58,2.93,28.74,28.74,0,0,1,.21,3.71v54.89a22.07,22.07,0,0,0,4.68,2.94,27.34,27.34,0,0,0,5.18,2,24.07,24.07,0,0,0,6.75.88,14.47,14.47,0,0,0,9.18-2.92,21.47,21.47,0,0,0,6-8.21,46,46,0,0,0,3.31-12.41,121.83,121.83,0,0,0,0-31,48.88,48.88,0,0,0-3.21-12.41,21,21,0,0,0-5.77-8.21,13.07,13.07,0,0,0-8.71-2.94Z"/><path class="cls-1" d="M3031.25,587q0,16.21,3.11,24c2.1,5.21,5.8,8.27,11.16,9.18V625q-21.33,0-30.48-9.47t-9.18-28.62v-34l-28.15,67.2h-6.42l-34-69.15v69h-9.78V528.36h23.85l28.91,58.79,25.39-60.75h25.59Z"/><path class="cls-1" d="M3097.47,526.4q19.16,0,29.59,10.15t10.44,30.87v52.75h-16.59l-6.85-8.79h-1a22,22,0,0,1-5.47,5.46,25.17,25.17,0,0,1-7.23,3.72,32.91,32.91,0,0,1-10.75,1.56q-16.2,0-24.71-7.33a24,24,0,0,1-8.5-19,30.7,30.7,0,0,1,2.36-12.41,20.88,20.88,0,0,1,8.29-9.18q6-3.81,16.11-5.76a142.45,142.45,0,0,1,26-2h3q0-17.58-4.88-24.42a15.88,15.88,0,0,0-13.68-6.84,28.85,28.85,0,0,0-6.35.68,14.53,14.53,0,0,0-5.57,2.64,17.84,17.84,0,0,0-4.47,5.38,30.5,30.5,0,0,0-3.14,8.89h-10.75a81.68,81.68,0,0,1,.68-10.36,16.82,16.82,0,0,1,4.2-9.18c2.36-2.6,6.23-4.4,11.64-5.37A99.82,99.82,0,0,1,3097.47,526.4Zm14.64,48.84h-2.93q-14,0-20.21,5.13T3082.82,596c0,5.53,1.14,9.72,3.42,12.54a11.26,11.26,0,0,0,9.28,4.25,13.42,13.42,0,0,0,7.51-2,26.7,26.7,0,0,0,5.19-4.35,24.29,24.29,0,0,0,3.89-6.51Z"/><path class="cls-1" d="M3215.11,526.4a40.58,40.58,0,0,1,17.86,3.72,36.19,36.19,0,0,1,12.9,10.15,43.23,43.23,0,0,1,7.71,15.24,70,70,0,0,1,0,37.51,42.47,42.47,0,0,1-7.81,15.24,37.33,37.33,0,0,1-13.18,10.15,43.14,43.14,0,0,1-18.46,3.71,37.11,37.11,0,0,1-8.6-.88,38.1,38.1,0,0,1-6.45-2,21.84,21.84,0,0,1-5.47-2.93v41h-25.39V553.75a65.35,65.35,0,0,0-.48-7.91,19.06,19.06,0,0,0-1.87-6.25,9,9,0,0,0-4.1-4,15.75,15.75,0,0,0-7-1.36h-2v-5.86h19.34q6.63,0,10.47,1.76a12.35,12.35,0,0,1,5.94,6.43c1.19-1,2.58-2.13,4.2-3.31a39.55,39.55,0,0,1,5.66-3.32,36.13,36.13,0,0,1,7.44-2.55A41.48,41.48,0,0,1,3215.11,526.4Zm-3.92,8.79q-7.44,0-11.91,2.74a36.43,36.43,0,0,0-7,5.28,19.8,19.8,0,0,0,.58,2.73,19.47,19.47,0,0,1,.58,2.93,30.64,30.64,0,0,1,.2,3.71v54.89a22.07,22.07,0,0,0,4.68,2.94,27.69,27.69,0,0,0,5.19,2,24.07,24.07,0,0,0,6.75.88,14.47,14.47,0,0,0,9.18-2.92,21.53,21.53,0,0,0,6-8.21,46.39,46.39,0,0,0,3.31-12.41,121.83,121.83,0,0,0,0-31,48.88,48.88,0,0,0-3.21-12.41,21.27,21.27,0,0,0-5.77-8.21,13.1,13.1,0,0,0-8.66-2.94Z"/><path class="cls-1" d="M3308.6,581.88v38.29h-25.39V553.75q0-8.79-2.43-14.16t-11.23-5.37h-2v-5.86H3291a24.77,24.77,0,0,1,8.5,1.26,11.36,11.36,0,0,1,5.46,4.2,18.47,18.47,0,0,1,2.84,7.82,76.67,76.67,0,0,1,.78,12.11V572.3l23.65-28.9q2.93-3.51,5.76-6.35a31.44,31.44,0,0,1,6-4.78,25.88,25.88,0,0,1,7.23-2.94,39.06,39.06,0,0,1,9.08-1h3.92v5.07a23.43,23.43,0,0,0-10.57,2.35,29.08,29.08,0,0,0-9,7.43l-18.94,23.05,26,34.37a53.27,53.27,0,0,0,9.59,10.36,22.67,22.67,0,0,0,8.6,4.49v4.69a21.34,21.34,0,0,1-5.67,1.36,55.27,55.27,0,0,1-7.81.59,35.77,35.77,0,0,1-15.46-3.42q-7.2-3.4-13.65-12.2Z"/><path class="cls-1" d="M3423.68,613.33c6.78,0,12.26-1.56,16.51-4.68a55,55,0,0,0,11.43-11.53l6,4.48a69.61,69.61,0,0,1-5.19,7,36.29,36.29,0,0,1-7.41,6.64,40.36,40.36,0,0,1-10.37,5,44.88,44.88,0,0,1-14,2,46.22,46.22,0,0,1-18.64-3.61,40.78,40.78,0,0,1-14.16-10.06,44.87,44.87,0,0,1-9-15.14,55.84,55.84,0,0,1-3.11-19,59.38,59.38,0,0,1,3.37-20.84,42.08,42.08,0,0,1,9.08-14.93,38.81,38.81,0,0,1,13.58-9.1,45.78,45.78,0,0,1,17-3.12,49.7,49.7,0,0,1,17,2.83,42,42,0,0,1,13.58,7.92,36.61,36.61,0,0,1,9.08,12.3,38.17,38.17,0,0,1,3.32,16c0,1.42,0,2.89-.11,4.38s-.15,2.84-.27,4c-.13,1.43-.28,2.73-.41,3.91h-58.8q0,19.34,6,27.44T3423.68,613.33ZM3435.41,569a84.7,84.7,0,0,0-1.29-16.21,35.73,35.73,0,0,0-3.41-10.36,12.79,12.79,0,0,0-11.91-7.23,13,13,0,0,0-6.35,1.67,14.21,14.21,0,0,0-5.29,5.56,36.2,36.2,0,0,0-3.59,10.36,78,78,0,0,0-1.39,16.21Z"/><path class="cls-1" d="M3501.6,537.15c-5.84,0-10.42,1.55-13.66,4.69s-4.88,8.4-4.88,15.82h-5.87V544a24.33,24.33,0,0,1,.69-5.76,14,14,0,0,1,2.25-5,11.34,11.34,0,0,1,4.4-3.51,16.82,16.82,0,0,1,7.31-1.37h70.51v8.79h-29.49v83h-25.39v-83Z"/><path class="cls-1" d="M3573.3,574.26a54.68,54.68,0,0,1,3.21-18.75,44.27,44.27,0,0,1,9.29-15.24,42.75,42.75,0,0,1,14.77-10.15,53.63,53.63,0,0,1,39.25,0,43,43,0,0,1,14.74,10.15,43.88,43.88,0,0,1,9.29,15.24,56.39,56.39,0,0,1,0,37.51,44.18,44.18,0,0,1-9.29,15.24,43.28,43.28,0,0,1-14.74,10.15,53.73,53.73,0,0,1-39.25,0,43.12,43.12,0,0,1-14.77-10.15,44.43,44.43,0,0,1-9.29-15.24A54.78,54.78,0,0,1,3573.3,574.26Zm67.4,0a89.7,89.7,0,0,0-1.26-15.52,48.63,48.63,0,0,0-3.82-12.41,21.76,21.76,0,0,0-6.45-8.21,15.25,15.25,0,0,0-18,0,21.61,21.61,0,0,0-6.43,8.21,47.71,47.71,0,0,0-3.81,12.41,95.41,95.41,0,0,0,0,31,47.71,47.71,0,0,0,3.81,12.41,21.61,21.61,0,0,0,6.43,8.21,15.31,15.31,0,0,0,18,0,21.94,21.94,0,0,0,6.45-8.21,48.63,48.63,0,0,0,3.82-12.41,90.15,90.15,0,0,0,1.26-15.48Z"/><path class="cls-1" d="M3693.46,553.75c0-5.86-.83-10.58-2.45-14.16s-5.36-5.37-11.23-5.37h-1v-5.86h52.33c11.73,0,21.22,2,28.53,5.86s10.92,9.76,10.92,17.57q0,8.81-6.52,13.88t-18.26,6.63c8.32,1,15.2,3.46,20.58,7.24s8.12,8.85,8.12,15.24q0,13.28-11.33,19.33t-32,6.06h-37.69Zm34.17-17.57a33.1,33.1,0,0,0-4.1.29,20.25,20.25,0,0,0-4.68,1.07v29.88h6.83a21.29,21.29,0,0,0,13-4.09,13.54,13.54,0,0,0,5.57-11.54,15.82,15.82,0,0,0-1.47-7,14.39,14.39,0,0,0-3.92-4.88,15.62,15.62,0,0,0-5.36-2.83,20.48,20.48,0,0,0-5.87-.9Zm0,76.17q8.8,0,14.64-4.38c3.93-2.94,5.87-7.34,5.87-13.19q0-9.37-6-14c-4-3.06-9.51-4.59-16.42-4.59h-6.83V611a20.25,20.25,0,0,0,4.68,1.07,39.4,39.4,0,0,0,4.06.31Z"/></svg>