<svg width="15" height="19" viewBox="0 0 15 19" fill="none" xmlns="http://www.w3.org/2000/svg">
<path d="M2.86186 11.7065C2.86186 11.6088 2.86402 11.5108 2.87426 11.4148H1.715C1.70798 11.5108 1.70605 11.6088 1.70605 11.7065C1.70605 11.8061 1.70798 11.9021 1.715 11.9982H2.87426C2.86402 11.9022 2.86186 11.8044 2.86186 11.7065Z" fill="black"/>
<path d="M4.91239 7.96852C5.02193 7.89916 5.13393 7.83359 5.24752 7.77585L5.29179 7.75429L4.71407 6.7507C4.56942 6.82381 4.42855 6.90478 4.29199 6.99358L4.87001 7.99713L4.91239 7.96852Z" fill="black"/>
<path d="M2.33789 9.12643L3.34174 9.70418L3.58458 9.2827L2.58047 8.70468C2.49197 8.8415 2.41103 8.98181 2.33789 9.12643Z" fill="black"/>
<path d="M11.2247 13.7525C11.1645 13.8664 11.1011 13.9781 11.0298 14.086L11.001 14.1284L12.0051 14.7064C12.0936 14.5696 12.1746 14.4312 12.2496 14.2865L11.2479 13.7066L11.2247 13.7525Z" fill="black"/>
<path d="M3.36278 13.7509L3.33958 13.7066L2.33789 14.2844C2.40914 14.429 2.49197 14.5696 2.58051 14.7064L3.58462 14.1284L3.55549 14.086C3.48609 13.9781 3.42082 13.8664 3.36278 13.7509Z" fill="black"/>
<path d="M4.91239 15.4426L4.87001 15.4134L4.29199 16.4175C4.42855 16.5063 4.56938 16.5888 4.71407 16.6622L5.29179 15.6584L5.24752 15.6371C5.13389 15.5794 5.0219 15.5138 4.91239 15.4426Z" fill="black"/>
<path d="M10.2937 6.99358C10.1572 6.90478 10.0179 6.82384 9.87411 6.7507L9.29395 7.75266L9.71569 7.99713L10.2937 6.99358Z" fill="black"/>
<path d="M7.00195 16.1261V17.284C7.09829 17.2927 7.19596 17.2943 7.29337 17.2943C7.3916 17.2943 7.48927 17.2927 7.58535 17.284V16.1261V16.1139H7.00195V16.1261Z" fill="black"/>
<path d="M7.58535 7.28715V6.12918C7.48927 6.12058 7.3916 6.11868 7.29337 6.11868C7.19596 6.11868 7.09829 6.12058 7.00195 6.12918V7.28715V7.29928H7.58535V7.28715Z" fill="black"/>
<path d="M9.29395 15.6603L9.87411 16.6622C10.0179 16.5867 10.1572 16.5063 10.2937 16.4175L9.71569 15.4134L9.29395 15.6603Z" fill="black"/>
<path d="M12.2496 9.12643C12.1762 8.98181 12.0936 8.8415 12.0051 8.70468L11.001 9.2827L11.246 9.70418L12.2496 9.12643Z" fill="black"/>
<path d="M12.8729 11.4148H11.7133H11.7012V11.9982H11.7133H12.8729C12.8799 11.9022 12.8815 11.8044 12.8815 11.7065C12.8815 11.6088 12.8799 11.5108 12.8729 11.4148Z" fill="black"/>
<path d="M14.2613 5.50238C14.2613 5.50238 14.2297 6.10578 13.6514 6.36265C13.0731 6.61982 12.4949 6.04154 13.3303 5.39873C14.1655 4.75596 14.1013 2.63601 13.3303 1.99324C13.523 2.50728 12.7194 3.21429 12.2059 2.76449C11.6915 1.92904 12.2377 0.547423 13.0089 0.162042C12.4306 -0.288317 10.7276 0.226019 10.7276 1.38287C10.7276 2.30307 10.7597 2.66819 9.98851 2.63605C9.14442 2.60043 9.86033 1.15758 9.98851 0.964867C7.4824 1.31837 8.89612 3.53543 7.9322 3.59941C6.96832 3.66391 7.54686 2.63601 7.6111 2.50706C5.93509 2.78579 6.34363 3.83361 5.17516 4.72687C2.18036 5.63434 0.000259766 8.41517 0 11.7068C0.000259766 15.7351 3.26518 18.9997 7.29322 19C11.3216 18.9997 14.5865 15.7351 14.5867 11.7067C14.5867 10.776 14.4105 9.88715 14.0929 9.06866C14.1723 8.08883 14.5252 7.48844 14.6434 7.00215C14.9081 5.91414 14.2613 5.50238 14.2613 5.50238ZM7.29322 18.059C5.53757 18.0587 3.95248 17.3488 2.80157 16.1984C1.65122 15.0472 0.941205 13.4622 0.940982 11.7068C0.941205 9.95086 1.65122 8.36577 2.80157 7.21486C3.95248 6.06447 5.53757 5.3545 7.29322 5.3545C9.04886 5.3545 10.634 6.06447 11.7852 7.21486C12.9355 8.36577 13.6455 9.95086 13.6457 11.7068C13.6455 13.4622 12.9355 15.0472 11.7852 16.1984C10.634 17.3488 9.04886 18.0587 7.29322 18.059Z" fill="black"/>
<path d="M7.02463 14.8295V14.021H7.64762V14.8295H7.02463ZM7.02463 9.21199V8.39999H7.64762V9.21199H7.02463ZM7.38513 14.2415C7.04446 14.2415 6.73763 14.1808 6.46463 14.0595C6.19396 13.9358 5.97113 13.762 5.79613 13.538C5.62113 13.3117 5.50679 13.0457 5.45312 12.74L6.06563 12.6385C6.14029 12.9488 6.29779 13.195 6.53813 13.377C6.78079 13.559 7.07246 13.65 7.41313 13.65C7.75613 13.65 8.03379 13.5672 8.24613 13.4015C8.45846 13.2358 8.56463 13.0223 8.56463 12.761C8.56463 12.5697 8.50746 12.4157 8.39313 12.299C8.28113 12.1823 8.09213 12.0832 7.82613 12.0015L6.67463 11.6445C5.98629 11.4298 5.64213 11.0192 5.64213 10.4125C5.64213 10.1278 5.71096 9.87933 5.84863 9.66699C5.98863 9.45233 6.18346 9.28666 6.43313 9.16999C6.68513 9.05099 6.97796 8.99266 7.31163 8.99499C7.63596 8.99733 7.92529 9.05799 8.17963 9.17699C8.43396 9.29366 8.64396 9.46166 8.80963 9.68099C8.97763 9.90033 9.09079 10.1628 9.14913 10.4685L8.51912 10.584C8.48646 10.3857 8.41413 10.2118 8.30213 10.0625C8.19246 9.91316 8.05246 9.79766 7.88213 9.71599C7.71179 9.63199 7.52046 9.58883 7.30813 9.58649C7.10979 9.58416 6.93129 9.61683 6.77263 9.68449C6.61629 9.75216 6.49263 9.84666 6.40163 9.96799C6.31063 10.0893 6.26513 10.2282 6.26513 10.3845C6.26513 10.5548 6.32813 10.6995 6.45413 10.8185C6.58246 10.9352 6.78313 11.0355 7.05613 11.1195L8.00113 11.3995C8.41646 11.5232 8.71629 11.69 8.90063 11.9C9.08496 12.1077 9.17713 12.3853 9.17713 12.733C9.17713 13.034 9.10246 13.2977 8.95312 13.524C8.80613 13.7503 8.59729 13.9265 8.32663 14.0525C8.05829 14.1785 7.74446 14.2415 7.38513 14.2415Z" fill="black"/>
</svg>
