<svg width="331" height="387" viewBox="0 0 331 387" fill="none" xmlns="http://www.w3.org/2000/svg">
<g clip-path="url(#clip0_626_242)">
<g opacity="0.5">
<path d="M260.427 205.097L289.652 205.067L289.852 193.151H260.599L260.427 205.097Z" fill="white"/>
<path d="M227.669 205.092L256.866 205.061L257.034 193.151H227.81L227.669 205.092Z" fill="white"/>
<path d="M260.119 226.485L289.293 226.499L289.492 214.661L260.29 214.653L260.119 226.485Z" fill="white"/>
<path d="M227.418 226.468L256.563 226.482L256.731 214.651L227.558 214.642L227.418 226.468Z" fill="white"/>
<path d="M259.812 247.725L288.934 247.748L289.133 235.953L259.983 235.934L259.812 247.725Z" fill="white"/>
<path d="M227.167 247.697L256.262 247.722L256.429 235.931L227.306 235.913L227.167 247.697Z" fill="white"/>
<path d="M259.505 268.891L288.577 268.924L288.776 257.17L259.674 257.14L259.505 268.891Z" fill="white"/>
<path d="M226.918 268.853L255.962 268.886L256.127 257.137L227.057 257.109L226.918 268.853Z" fill="white"/>
<path d="M259.199 289.985L288.221 290.027L288.419 278.313L259.369 278.275L259.199 289.985Z" fill="white"/>
<path d="M226.669 289.936L255.662 289.98L255.828 278.27L226.807 278.232L226.669 289.936Z" fill="white"/>
<path d="M258.896 311.005L287.868 311.057L288.064 299.384L259.064 299.336L258.896 311.005Z" fill="white"/>
<path d="M226.421 310.946L255.364 310.998L255.529 299.33L226.558 299.283L226.421 310.946Z" fill="white"/>
<path d="M258.593 331.954L287.514 332.015L287.71 320.381L258.761 320.324L258.593 331.954Z" fill="white"/>
<path d="M226.174 331.885L255.067 331.945L255.232 320.317L226.311 320.261L226.174 331.885Z" fill="white"/>
<path d="M258.29 352.829L287.162 352.899L287.358 341.306L258.457 341.24L258.29 352.829Z" fill="white"/>
<path d="M225.927 352.751L254.771 352.821L254.935 341.232L226.063 341.167L225.927 352.751Z" fill="white"/>
<path d="M257.989 373.634L286.812 373.713L287.007 362.159L258.156 362.085L257.989 373.634Z" fill="white"/>
<path d="M225.682 373.545L254.476 373.624L254.64 362.075L225.818 362.001L225.682 373.545Z" fill="white"/>
</g>
<path d="M305.678 69.7578H77.6548C75.8729 69.7578 74.4285 71.2029 74.4285 72.9855V381.251C74.4285 383.033 75.8729 384.478 77.6548 384.478H305.678C307.46 384.478 308.905 383.033 308.905 381.251V72.9855C308.905 71.2029 307.46 69.7578 305.678 69.7578Z" fill="url(#paint0_linear_626_242)"/>
<path d="M268.989 117.04H113.846C107.965 117.04 103.198 121.809 103.198 127.693V332.368C103.198 338.252 107.965 343.021 113.846 343.021H268.989C274.87 343.021 279.638 338.252 279.638 332.368V127.693C279.638 121.809 274.87 117.04 268.989 117.04Z" fill="white"/>
<path d="M263.12 135.628H119.856C118.092 135.628 116.662 137.059 116.662 138.823V324.103C116.662 325.868 118.092 327.299 119.856 327.299H263.12C264.884 327.299 266.314 325.868 266.314 324.103V138.823C266.314 137.059 264.884 135.628 263.12 135.628Z" fill="url(#paint1_linear_626_242)"/>
<path d="M236.557 207.176L146.313 208.677C139.448 208.791 133.856 214.135 133.856 220.611V277.468C133.856 283.944 139.444 288.97 146.313 288.694L236.557 285.069C243.039 284.808 248.275 279.524 248.275 273.265V218.314C248.275 212.055 243.039 207.068 236.557 207.176Z" fill="url(#paint2_linear_626_242)"/>
<path d="M241.125 196.893C238.392 196.934 236.173 194.823 236.173 192.18V179.736C236.173 167.252 225.617 157.126 212.55 157.171L183.152 157.255C169.749 157.294 158.766 167.719 158.766 180.495V193.217C158.766 195.922 156.439 198.15 153.564 198.194C150.689 198.237 148.346 196.07 148.346 193.357V180.589C148.346 162.355 164.049 147.513 183.152 147.513H212.55C231.113 147.513 246.062 161.922 246.062 179.632V192.04C246.062 194.683 243.853 196.852 241.125 196.893Z" fill="url(#paint3_linear_626_242)"/>
<path d="M206.042 238.686C206.042 232.368 200.529 227.407 193.825 227.863C187.898 228.266 182.998 233.015 182.677 238.684C182.429 243.084 184.846 246.887 188.52 248.811C189.268 249.21 189.868 249.838 190.233 250.603C190.598 251.368 190.708 252.23 190.547 253.062L187.97 267.524C187.642 269.366 189.121 270.985 191.07 270.915L197.691 270.678C199.628 270.608 201.098 268.891 200.773 267.079L198.196 252.747C197.89 251.038 198.778 249.339 200.344 248.402C203.755 246.364 206.042 242.75 206.042 238.686Z" fill="url(#paint4_linear_626_242)"/>
<path d="M24.7866 385.028C24.7907 384.902 24.778 384.775 24.7488 384.652C22.8772 377.224 13.589 372.606 13.589 372.606L9.91159 372.892C7.79479 379.434 8.06797 383.447 8.40699 385.234C8.4168 385.284 8.43221 385.332 8.44482 385.374C11.4778 385.654 17.7274 385.831 24.7866 385.028Z" fill="url(#paint5_linear_626_242)"/>
<path d="M8.44214 385.382C8.51004 385.667 8.65494 385.928 8.861 386.136C9.06706 386.344 9.32634 386.492 9.61051 386.562C13.9296 387.471 20.7941 386.74 23.6758 386.363C24.3118 386.279 24.777 385.692 24.7868 385.028C17.7275 385.831 11.4779 385.654 8.44214 385.382Z" fill="#120878"/>
<path d="M8.42944 367.411L9.98727 374.919C10.0317 375.177 10.1575 375.414 10.3463 375.596C10.535 375.777 10.7769 375.894 11.0366 375.928C11.8404 376.009 12.6509 375.996 13.4518 375.89C14.2559 375.772 14.8149 374.954 14.6734 374.076L13.5891 367.411H8.42944Z" fill="url(#paint6_linear_626_242)"/>
<path d="M40.732 385.287C36.6693 385.174 34.5679 384.694 33.478 384.25C33.478 384.655 33.478 385.066 33.4906 385.493C33.4872 385.702 33.5652 385.904 33.7083 386.057C33.8514 386.209 34.0482 386.299 34.257 386.309L56.5751 386.169C57.2882 386.169 57.7043 385.338 57.3947 384.684C54.4611 384.923 47.0096 385.464 40.732 385.287Z" fill="#120878"/>
<path d="M57.3891 384.68C57.3653 384.621 57.3357 384.565 57.3008 384.512C55.3297 381.757 50.3102 376.27 40.3903 373.891L35.6271 373.74C35.6271 373.74 33.5089 377.425 33.4683 384.251C34.5554 384.696 36.6582 385.175 40.7223 385.289C47.0096 385.464 54.4612 384.923 57.3891 384.68Z" fill="url(#paint7_linear_626_242)"/>
<path d="M34.5371 366.746C34.6128 367.098 35.6018 372.439 35.9857 374.511C36.0199 374.74 36.1302 374.952 36.2989 375.111C36.4675 375.27 36.6848 375.369 36.9159 375.39C37.7312 375.434 39.0453 375.44 40.1758 375.133C40.7852 374.968 41.1943 374.345 41.1565 373.656L40.6241 365.206L34.5371 366.746Z" fill="url(#paint8_linear_626_242)"/>
<path d="M30.9255 268.115C30.9255 268.115 37.472 313.117 42.196 366.669C42.2842 367.667 41.4955 368.535 40.5148 368.741C39.0705 369.045 36.9495 369.406 35.1913 369.357C34.7361 369.342 34.3001 369.17 33.9574 368.87C33.6147 368.57 33.3864 368.16 33.3113 367.711C31.703 358.268 20.2182 307.594 17.2006 296.44C17.2006 296.44 13.7375 343.812 14.8443 368.394C14.8583 368.689 14.7601 368.978 14.5695 369.202C14.3789 369.427 14.11 369.571 13.8174 369.605C12.3974 369.758 10.9651 369.754 9.54595 369.594C9.20012 369.56 8.87556 369.412 8.62396 369.172C8.37237 368.932 8.2082 368.615 8.15762 368.271C7.01026 360.282 0.413297 312.713 0.693483 278.449C0.708893 276.516 2.95878 260.641 2.95878 260.641L30.9255 268.115Z" fill="url(#paint9_linear_626_242)"/>
<path d="M33.4683 192.436L34.3438 215.982C36.6757 216.791 39.0517 217.466 41.4605 218.004C42.8727 213.456 45.9813 207.877 48.5254 203.727C39.1742 200.422 33.4683 192.436 33.4683 192.436Z" fill="url(#paint10_linear_626_242)"/>
<path d="M1.98374 270.708C1.65454 270.59 1.36564 270.38 1.15045 270.104C0.935257 269.828 0.80257 269.497 0.76774 269.148C-0.102236 260.699 -4.31762 208.31 22.293 186.758C22.293 186.758 23.8186 182.764 36.3625 192.583C48.9064 202.402 42.1904 212.694 39.1868 226.888C35.5528 244.067 29.1772 258.107 31.9986 268.678C32.0946 269.029 32.0558 269.404 31.89 269.729C31.7242 270.054 31.4432 270.305 31.102 270.434C21.3572 274.027 11.6515 274.146 1.98374 270.708Z" fill="url(#paint11_linear_626_242)"/>
<path d="M32.6724 171.062C32.6639 171.807 22.0393 186.899 22.0393 186.899C22.0393 186.899 23.946 190.658 33.052 193.709L40.9112 177.542L32.6724 171.062Z" fill="url(#paint12_linear_626_242)"/>
<path d="M27.4092 222.727C27.3403 222.727 27.273 222.707 27.2159 222.668C18.7277 216.93 14.735 207.672 14.6958 207.576C14.66 207.492 14.659 207.397 14.6932 207.312C14.7273 207.228 14.7938 207.16 14.8779 207.124C14.9621 207.088 15.057 207.087 15.1419 207.121C15.2268 207.155 15.2946 207.222 15.3304 207.306C15.3697 207.397 19.2881 216.476 27.6026 222.096C27.6638 222.138 27.7102 222.197 27.7349 222.267C27.7595 222.337 27.7611 222.413 27.7394 222.483C27.7178 222.554 27.674 222.616 27.6145 222.66C27.5551 222.704 27.4831 222.727 27.4092 222.727Z" fill="url(#paint13_linear_626_242)"/>
<path d="M40.0527 209.895C39.9949 209.895 39.9381 209.88 39.8874 209.853C39.8367 209.825 39.7938 209.785 39.7627 209.736C39.7374 209.697 37.1443 205.659 32.2047 196.81C30.6861 194.09 28.6897 192.367 26.2717 191.69C22.2679 190.569 18.4083 192.718 18.3705 192.74C18.291 192.785 18.1967 192.797 18.1085 192.773C18.0202 192.749 17.9451 192.691 17.8998 192.611C17.8545 192.532 17.8426 192.437 17.8667 192.349C17.8909 192.261 17.9492 192.186 18.0287 192.14C18.1954 192.045 22.1642 189.823 26.4511 191.019C29.0554 191.746 31.1946 193.58 32.8071 196.469C37.7341 205.299 40.3174 209.319 40.3426 209.364C40.3766 209.415 40.3958 209.476 40.3983 209.538C40.4007 209.6 40.3863 209.661 40.3566 209.716C40.3268 209.77 40.2828 209.816 40.2293 209.847C40.1758 209.879 40.1147 209.895 40.0527 209.895Z" fill="url(#paint14_linear_626_242)"/>
<path d="M41.0388 162.41C41.0388 162.41 44.8213 171.099 45.0735 175.66C45.3256 180.22 46.3105 183.179 41.0388 184.097C35.7671 185.015 31.3275 182.388 28.9222 177.846C28.9222 177.846 25.1537 170.845 25.9984 167.979C26.8432 165.113 41.0388 162.41 41.0388 162.41Z" fill="url(#paint15_linear_626_242)"/>
<path d="M30.7238 174.576L31.0236 174.444C31.1141 174.405 31.1956 174.347 31.2629 174.275C31.3302 174.202 31.382 174.117 31.4151 174.024C31.4482 173.931 31.4619 173.832 31.4552 173.733C31.4486 173.635 31.4219 173.539 31.3767 173.451C30.6342 172.013 29.1842 168.721 31.0572 167.953C33.4696 166.963 43.0254 165.009 45.0861 161.622C47.0685 158.362 45.3131 154.153 42.6737 152.956C42.5899 152.916 42.4939 152.91 42.4056 152.939C42.3172 152.967 42.2432 153.029 42.1988 153.11L41.9789 153.531C41.9455 153.594 41.8941 153.646 41.8311 153.679C41.7682 153.713 41.6966 153.727 41.6256 153.72C41.5546 153.713 41.4874 153.684 41.4325 153.639C41.3776 153.593 41.3377 153.532 41.3177 153.464C41.299 153.397 41.2615 153.338 41.2096 153.292C41.1578 153.247 41.0938 153.217 41.0256 153.207C40.9573 153.198 40.8876 153.208 40.8251 153.237C40.7625 153.266 40.7098 153.313 40.6732 153.371C40.0386 154.386 38.3281 156.034 33.7526 156.875C27.2495 158.076 22.9515 160.708 22.8436 165.203C22.8435 165.268 22.8255 165.332 22.7918 165.388C22.7581 165.443 22.7099 165.489 22.6523 165.519C22.5947 165.55 22.5299 165.564 22.4649 165.56C22.3999 165.556 22.3371 165.535 22.2833 165.498C21.8027 165.206 21.0336 165.068 20.0067 165.933C18.222 167.435 18.9518 171.332 22.8674 174.537C22.9114 174.571 22.9466 174.616 22.9703 174.666C22.994 174.717 23.0055 174.773 23.0039 174.828C23.0023 174.884 22.9875 174.939 22.9609 174.988C22.9343 175.037 22.8965 175.08 22.8506 175.112C22.1403 175.574 21.0827 176.673 23.8243 178.139C26.6598 179.655 28.7765 179.532 29.5919 179.4C29.6399 179.392 29.6857 179.375 29.7267 179.349C29.7676 179.322 29.8027 179.288 29.8299 179.248C29.8571 179.208 29.8757 179.162 29.8847 179.114C29.8936 179.066 29.8927 179.017 29.8819 178.97L29.0119 175.019C29.0001 174.967 29.0003 174.912 29.0123 174.86C29.0244 174.808 29.048 174.759 29.0815 174.717C29.1151 174.675 29.1575 174.642 29.2059 174.618C29.2542 174.595 29.3071 174.583 29.3607 174.583L30.7238 174.576Z" fill="url(#paint16_linear_626_242)"/>
<path d="M30.8877 175.417C30.8877 175.417 29.4447 169.867 26.9651 171.423C24.4854 172.979 28.2553 177.643 30.2544 177.85L30.8877 175.417Z" fill="url(#paint17_linear_626_242)"/>
<path d="M79.8445 190.664C79.8445 190.664 77.9505 187.301 78.0709 185.671C78.1914 184.041 77.1743 181.638 78.2559 181.816C79.3374 181.994 79.5615 181.849 79.8557 183.808C80.1499 185.767 83.5654 194.328 79.8445 190.664Z" fill="url(#paint18_linear_626_242)"/>
<path d="M80.2017 185.32L80.1583 192.035C67.33 205.892 56.9463 206.708 48.5253 203.729C45.9798 207.879 42.8726 213.459 41.4604 218.007C75.7187 225.562 83.7853 194.055 83.7853 194.055C88.4252 192.132 89.361 191.008 89.162 189.748L80.2017 185.32Z" fill="url(#paint19_linear_626_242)"/>
<path d="M90.0671 178.659C88.9716 178.213 86.8296 174.128 86.4247 175.472C86.0199 176.816 86.5984 178.659 86.4247 179.231C86.251 179.802 83.5809 186.378 84.1146 187.84C84.4985 188.894 86.6195 188.739 86.9431 190.464C86.9736 190.733 87.1021 190.982 87.3042 191.162C87.5062 191.343 87.7677 191.443 88.0386 191.443C88.3095 191.443 88.571 191.343 88.773 191.162C88.9751 190.982 89.1036 190.733 89.1341 190.464C89.1719 190.235 91.1655 179.103 90.0671 178.659Z" fill="url(#paint20_linear_626_242)"/>
<path d="M55.1 164.673C46.4493 181.79 53.3068 202.681 70.4164 211.335C84.3234 218.368 100.721 215.153 111.019 204.513L170.465 234.581C170.951 234.827 171.491 234.945 172.035 234.927C172.579 234.908 173.109 234.752 173.576 234.473L179.39 231.009C179.487 230.949 179.581 230.884 179.671 230.814C179.697 230.794 179.721 230.774 179.746 230.753C179.813 230.7 179.879 230.644 179.941 230.585C179.962 230.566 179.984 230.546 180.004 230.525C180.081 230.449 180.155 230.37 180.224 230.287C180.591 229.84 180.832 229.303 180.921 228.731C181.01 228.159 180.944 227.574 180.73 227.037L176.006 215.188C175.713 214.459 175.166 213.861 174.465 213.506L168.511 210.496L166.935 213.613L161.825 211.016L163.402 207.897L158.616 205.477L157.166 208.353L150.95 205.208L152.399 202.34L150.083 201.169L149.336 202.644L144.125 200.01L144.871 198.532L140.819 196.482L139.243 199.6L136.347 198.136L137.923 195.017L135.414 193.756L133.838 196.86L128.82 194.322L130.396 191.205L123.342 187.637L120.32 186.109C122.782 171.504 115.65 156.386 101.742 149.352C84.633 140.696 63.7507 147.556 55.1 164.673ZM75.3546 167.037C76.595 167.665 77.6215 168.646 78.3043 169.858C78.9872 171.069 79.2957 172.456 79.1909 173.842C79.0861 175.229 78.5726 176.553 77.7154 177.648C76.8583 178.743 75.6959 179.559 74.3753 179.992C73.0547 180.426 71.6351 180.459 70.2961 180.085C68.9571 179.712 67.7588 178.95 66.8527 177.896C65.9465 176.841 65.3733 175.541 65.2054 174.161C65.0376 172.781 65.2826 171.381 65.9096 170.14C66.7508 168.476 68.2185 167.214 69.9898 166.632C71.761 166.05 73.6908 166.196 75.3546 167.037Z" fill="url(#paint21_linear_626_242)"/>
<path d="M103.285 175.162L131.466 189.416L129.89 192.534L134.908 195.072L136.484 191.954L138.993 193.224L137.417 196.341L140.313 197.805L141.889 194.688L145.942 196.739L145.195 198.214L150.406 200.851L151.153 199.375L153.469 200.545L152.02 203.414L158.236 206.558L159.686 203.69L164.472 206.111L162.893 209.229L168.008 211.816L169.584 208.698L175.538 211.71C176.238 212.065 176.786 212.662 177.079 213.391L181.803 225.239C182.087 225.953 182.108 226.746 181.861 227.475C181.614 228.204 181.116 228.821 180.455 229.215L174.641 232.679C174.174 232.959 173.643 233.115 173.099 233.134C172.555 233.153 172.015 233.034 171.53 232.787L99.7686 196.488L103.285 175.162Z" fill="url(#paint22_linear_626_242)"/>
<path d="M71.4867 209.547C88.5962 218.202 109.478 211.341 118.129 194.224C126.78 177.108 119.922 156.216 102.813 147.563C85.7033 138.91 64.8211 145.769 56.1703 162.885C47.5196 180 54.3772 200.893 71.4867 209.547ZM70.0858 177.801C68.8454 177.174 67.8189 176.192 67.136 174.981C66.4532 173.77 66.1447 172.383 66.2495 170.997C66.3543 169.61 66.8678 168.285 67.7249 167.191C68.5821 166.096 69.7445 165.28 71.0651 164.846C72.3857 164.412 73.8053 164.38 75.1443 164.753C76.4833 165.127 77.6816 165.889 78.5877 166.943C79.4938 167.998 80.0671 169.297 80.235 170.678C80.4028 172.058 80.1578 173.457 79.5308 174.698C79.1141 175.523 78.5391 176.258 77.8386 176.86C77.138 177.462 76.3256 177.92 75.448 178.208C74.5703 178.497 73.6445 178.609 72.7234 178.539C71.8024 178.468 70.9042 178.217 70.0801 177.8L70.0858 177.801Z" fill="url(#paint23_linear_626_242)"/>
<path d="M112.09 202.725L171.535 232.793C172.021 233.039 172.561 233.159 173.105 233.14C173.649 233.121 174.179 232.965 174.647 232.685L180.46 229.221C180.879 228.97 181.236 228.627 181.503 228.218C181.769 227.809 181.94 227.345 182.001 226.86C176.584 220.987 125.083 198.489 123.163 193.859C122.477 192.212 122.36 189.717 124.412 185.848L121.392 184.32C123.853 169.715 116.721 154.596 102.814 147.564C85.7045 138.909 64.8223 145.77 56.1715 162.885C47.5208 180 54.3784 200.893 71.4879 209.547C85.3921 216.582 101.791 213.367 112.09 202.725ZM76.4234 165.251C77.6639 165.878 78.6905 166.86 79.3735 168.071C80.0564 169.282 80.365 170.669 80.2602 172.056C80.1553 173.443 79.6418 174.767 78.7845 175.862C77.9273 176.957 76.7647 177.772 75.444 178.206C74.1232 178.64 72.7036 178.672 71.3645 178.299C70.0254 177.925 68.8271 177.163 67.9211 176.108C67.0151 175.054 66.4421 173.754 66.2745 172.373C66.107 170.993 66.3524 169.593 66.9797 168.352C67.3961 167.528 67.9707 166.794 68.6707 166.192C69.3707 165.59 70.1823 165.132 71.0593 164.844C71.9363 164.556 72.8614 164.444 73.7817 164.514C74.7021 164.583 75.5998 164.834 76.4234 165.251Z" fill="url(#paint24_linear_626_242)"/>
<path d="M74.5602 203.465C88.3117 210.42 105.1 204.907 112.049 191.15C118.998 177.392 113.491 160.596 99.7391 153.646C85.9875 146.696 69.1988 152.204 62.2502 165.961C55.3016 179.719 60.8087 196.509 74.5602 203.465ZM70.0772 177.801C68.8368 177.174 67.8103 176.192 67.1275 174.981C66.4447 173.77 66.1361 172.383 66.241 170.997C66.3458 169.61 66.8592 168.286 67.7164 167.191C68.5736 166.096 69.7359 165.28 71.0565 164.846C72.3772 164.413 73.7967 164.38 75.1357 164.753C76.4747 165.127 77.673 165.889 78.5792 166.943C79.4853 167.998 80.0585 169.297 80.2264 170.678C80.3943 172.058 80.1492 173.457 79.5223 174.698C78.6808 176.362 77.2135 177.623 75.4429 178.205C73.6723 178.786 71.7434 178.641 70.08 177.8L70.0772 177.801Z" fill="url(#paint25_linear_626_242)"/>
<path d="M27.4092 222.727C27.4092 222.727 60.0998 233.676 78.3847 219.747C78.9436 219.318 79.5841 219.006 80.2672 218.832C80.9502 218.658 81.6615 218.625 82.3578 218.735L89.3428 219.875C90.7547 220.105 92.201 219.785 93.3838 218.98C94.5666 218.175 95.3956 216.947 95.7002 215.548C96.0602 213.892 96.234 212.08 95.8669 210.524L82.68 209.728L83.0568 208.015C83.0568 208.015 77.2276 209.442 77.1099 214.004C77.1099 214.004 63.4382 222.964 38.5003 209.056C38.5003 209.054 28.7891 216.66 27.4092 222.727Z" fill="url(#paint26_linear_626_242)"/>
</g>
<defs>
<linearGradient id="paint0_linear_626_242" x1="260.858" y1="-176.671" x2="176.157" y2="317.209" gradientUnits="userSpaceOnUse">
<stop stop-color="#F90101"/>
<stop offset="1" stop-color="#A10101"/>
</linearGradient>
<linearGradient id="paint1_linear_626_242" x1="116.662" y1="231.464" x2="266.312" y2="231.464" gradientUnits="userSpaceOnUse">
<stop stop-color="#A20202"/>
<stop offset="1" stop-color="#CC0202"/>
</linearGradient>
<linearGradient id="paint2_linear_626_242" x1="207.28" y1="134.506" x2="104.732" y2="844.969" gradientUnits="userSpaceOnUse">
<stop stop-color="white"/>
<stop offset="1" stop-color="white"/>
</linearGradient>
<linearGradient id="paint3_linear_626_242" x1="204.593" y1="134.119" x2="102.045" y2="844.581" gradientUnits="userSpaceOnUse">
<stop stop-color="white"/>
<stop offset="1" stop-color="#FF928E"/>
</linearGradient>
<linearGradient id="paint4_linear_626_242" x1="210.443" y1="215.308" x2="360.751" y2="-83.4136" gradientUnits="userSpaceOnUse">
<stop stop-color="#C40303"/>
</linearGradient>
<linearGradient id="paint5_linear_626_242" x1="8.17164" y1="379.109" x2="24.788" y2="379.109" gradientUnits="userSpaceOnUse">
<stop stop-color="#09005D"/>
<stop offset="1" stop-color="#1A0F91"/>
</linearGradient>
<linearGradient id="paint6_linear_626_242" x1="12.7933" y1="360.186" x2="9.61616" y2="387.895" gradientUnits="userSpaceOnUse">
<stop stop-color="#FEBBBA"/>
<stop offset="1" stop-color="#FF928E"/>
</linearGradient>
<linearGradient id="paint7_linear_626_242" x1="33.4725" y1="379.531" x2="57.3905" y2="379.531" gradientUnits="userSpaceOnUse">
<stop stop-color="#09005D"/>
<stop offset="1" stop-color="#1A0F91"/>
</linearGradient>
<linearGradient id="paint8_linear_626_242" x1="38.2353" y1="363.13" x2="36.8113" y2="390.986" gradientUnits="userSpaceOnUse">
<stop stop-color="#FEBBBA"/>
<stop offset="1" stop-color="#FF928E"/>
</linearGradient>
<linearGradient id="paint9_linear_626_242" x1="33.8296" y1="386.327" x2="0.952485" y2="229.621" gradientUnits="userSpaceOnUse">
<stop stop-color="#09005D"/>
<stop offset="1" stop-color="#1A0F91"/>
</linearGradient>
<linearGradient id="paint10_linear_626_242" x1="67.3805" y1="172.204" x2="-5.23963" y2="252.285" gradientUnits="userSpaceOnUse">
<stop stop-color="#4042E2"/>
<stop offset="1" stop-color="#4F52FF"/>
</linearGradient>
<linearGradient id="paint11_linear_626_242" x1="53.2689" y1="176.652" x2="-52.6098" y2="370.902" gradientUnits="userSpaceOnUse">
<stop stop-color="#4042E2"/>
<stop offset="1" stop-color="#4F52FF"/>
</linearGradient>
<linearGradient id="paint12_linear_626_242" x1="25.4548" y1="198.677" x2="32.8306" y2="178.542" gradientUnits="userSpaceOnUse">
<stop stop-color="#FEBBBA"/>
<stop offset="1" stop-color="#FF928E"/>
</linearGradient>
<linearGradient id="paint13_linear_626_242" x1="31.8334" y1="133.768" x2="28.4052" y2="159.931" gradientUnits="userSpaceOnUse">
<stop stop-color="#4042E2"/>
<stop offset="1" stop-color="#4F52FF"/>
</linearGradient>
<linearGradient id="paint14_linear_626_242" x1="37.8224" y1="134.553" x2="34.3956" y2="160.715" gradientUnits="userSpaceOnUse">
<stop stop-color="#4042E2"/>
<stop offset="1" stop-color="#4F52FF"/>
</linearGradient>
<linearGradient id="paint15_linear_626_242" x1="43.5717" y1="168.47" x2="-0.361952" y2="203.446" gradientUnits="userSpaceOnUse">
<stop stop-color="#FEBBBA"/>
<stop offset="1" stop-color="#FF928E"/>
</linearGradient>
<linearGradient id="paint16_linear_626_242" x1="26.6163" y1="156.958" x2="46.7569" y2="182.877" gradientUnits="userSpaceOnUse">
<stop stop-color="#09005D"/>
<stop offset="1" stop-color="#1A0F91"/>
</linearGradient>
<linearGradient id="paint17_linear_626_242" x1="39.1517" y1="166.553" x2="17.53" y2="183.089" gradientUnits="userSpaceOnUse">
<stop stop-color="#FEBBBA"/>
<stop offset="1" stop-color="#FF928E"/>
</linearGradient>
<linearGradient id="paint18_linear_626_242" x1="90.3066" y1="177.483" x2="44.5273" y2="217.012" gradientUnits="userSpaceOnUse">
<stop stop-color="#FEBBBA"/>
<stop offset="1" stop-color="#FF928E"/>
</linearGradient>
<linearGradient id="paint19_linear_626_242" x1="91.2606" y1="181.17" x2="46.6991" y2="219.647" gradientUnits="userSpaceOnUse">
<stop stop-color="#FEBBBA"/>
<stop offset="1" stop-color="#FF928E"/>
</linearGradient>
<linearGradient id="paint20_linear_626_242" x1="92.0004" y1="179.445" x2="46.2211" y2="218.973" gradientUnits="userSpaceOnUse">
<stop stop-color="#FEBBBA"/>
<stop offset="1" stop-color="#FF928E"/>
</linearGradient>
<linearGradient id="paint21_linear_626_242" x1="34.226" y1="98.595" x2="150.009" y2="251.38" gradientUnits="userSpaceOnUse">
<stop stop-color="#200707"/>
<stop offset="1" stop-color="#8D1611"/>
</linearGradient>
<linearGradient id="paint22_linear_626_242" x1="158.015" y1="125.622" x2="136.498" y2="231.112" gradientUnits="userSpaceOnUse">
<stop stop-color="#FF0000"/>
<stop offset="0.994792" stop-color="#A21A1A"/>
</linearGradient>
<linearGradient id="paint23_linear_626_242" x1="46.8234" y1="175.551" x2="228.298" y2="189.122" gradientUnits="userSpaceOnUse">
<stop stop-color="#FF9085"/>
<stop offset="1" stop-color="#FB6FBB"/>
</linearGradient>
<linearGradient id="paint24_linear_626_242" x1="129.367" y1="168.648" x2="173.298" y2="57.0028" gradientUnits="userSpaceOnUse">
<stop offset="0.0001" stop-color="#C70202"/>
<stop offset="1" stop-color="#A20202"/>
</linearGradient>
<linearGradient id="paint25_linear_626_242" x1="101" y1="138.5" x2="49.9691" y2="227.482" gradientUnits="userSpaceOnUse">
<stop stop-color="#C80303"/>
<stop offset="1" stop-color="#A21A1A"/>
</linearGradient>
<linearGradient id="paint26_linear_626_242" x1="63.0586" y1="211.916" x2="41.284" y2="320.533" gradientUnits="userSpaceOnUse">
<stop stop-color="#FEBBBA"/>
<stop offset="1" stop-color="#FF928E"/>
</linearGradient>
<clipPath id="clip0_626_242">
<rect width="331" height="387" fill="white"/>
</clipPath>
</defs>
</svg>
