<svg width="148" height="117" viewBox="0 0 148 117" fill="none" xmlns="http://www.w3.org/2000/svg">
<g clip-path="url(#clip0_1418_246)">
<path d="M1.23133 5.96398C0.835086 24.606 -0.452033 88.9057 0.167592 111.691C0.234076 114.105 1.8935 116.043 3.96247 116.123C14.2009 116.512 51.7374 117.504 68.4859 116.685C71.9723 116.512 74.7487 113.218 74.8205 109.149C75.1768 89.5816 75.9294 34.5487 74.1131 9.33826C73.895 6.31916 71.8606 3.91237 69.2757 3.61019C58.1251 2.31137 20.4264 -0.869418 5.95697 0.225303C3.34018 0.424102 1.29515 2.91572 1.23133 5.96398Z" fill="url(#paint0_linear_1418_246)"/>
<path d="M5.79999 11.6841C5.24951 26.7292 3.51031 76.7842 4.06079 95.2938C4.14323 98.0001 5.97019 100.187 8.28913 100.346C17.8308 100.995 50.3864 102.432 64.3825 101.125C66.9035 100.889 68.8821 98.5143 69.0177 95.5588C69.7251 80.2089 71.7622 33.5997 71.2329 15.2969C71.1505 12.3812 69.2092 9.99563 66.7121 9.73056C56.3885 8.64909 21.7932 6.07796 9.90069 6.83339C7.66951 6.98978 5.89573 9.0785 5.79999 11.6841Z" fill="#8395F0"/>
<path d="M65.5101 3.81165L55.3647 3.4379C54.0058 3.38754 52.8702 4.16418 52.833 5.17143L52.7825 6.4729C52.7426 7.48015 51.6097 8.25415 50.2481 8.20644L30.4786 7.48015C29.117 7.42979 28.0453 6.57363 28.0852 5.56638L28.1358 4.26226C28.173 3.25766 27.1039 2.4068 25.7423 2.35113L22.1762 2.2186L13.2967 1.89257C8.88748 1.73088 5.21494 4.12972 5.09527 7.2522L1.6009 97.8702C1.48123 100.99 4.95432 103.649 9.36084 103.81L61.5742 105.737C65.9808 105.899 69.6533 103.5 69.7756 100.378L73.27 9.75177C73.3897 6.63194 69.9166 3.97334 65.5101 3.81165Z" fill="#F5F5F5"/>
<path d="M40.5841 87.8799C40.4884 88.972 40.4006 90.0004 40.3182 90.8486L47.8202 91.1004L47.0224 87.8083L40.5841 87.8799Z" fill="#F5F5F5"/>
<path d="M10.0576 88.2245V89.8361L39.5762 90.8248C39.656 89.9209 39.7438 88.9216 39.8422 87.8878L10.0576 88.2245Z" fill="#F5F5F5"/>
<path d="M47.392 87.803L48.2084 91.111L62.0343 91.5749L61.9971 87.6387L47.392 87.803Z" fill="#F5F5F5"/>
<path d="M42.8366 41.7717L45.8017 31.1267L38.9646 30.5382L38.6029 41.6286L42.8366 41.7717Z" fill="#F5F5F5"/>
<path d="M9.63475 82.2472L2.13543 84.0603L1.99182 87.7845L9.6773 87.6996L9.63475 82.2472Z" fill="#F5F5F5"/>
<path d="M9.62679 81.407L9.54701 71.3981H9.5417L9.65605 67.8727L2.74709 68.159L2.16736 83.2041L9.62413 81.4017L9.62679 81.407Z" fill="#F5F5F5"/>
<path d="M9.91133 60.0029L3.09545 59.1362L2.77899 67.3611L9.68263 67.0749L9.91133 60.0029Z" fill="#F5F5F5"/>
<path d="M60.6142 69.7255L60.2339 72.5803L52.1389 72.9275L52.6894 75.2151L61.8721 75.0322L61.8402 71.7771L62.6433 69.6487L60.6142 69.7255Z" fill="#F5F5F5"/>
<path d="M45.8603 75.3502L52.3145 75.223L51.0752 70.0887L45.4427 70.3007L45.8603 75.3502Z" fill="#F5F5F5"/>
<path d="M45.9055 75.8804L46.2591 80.14L46.9426 85.9873L47.2617 87.2729L61.9918 87.1059L61.8774 75.5623L45.9055 75.8804Z" fill="#F5F5F5"/>
<path d="M21.2401 55.0064L21.772 55.7115L10.289 60.0162L9.92732 71.1277L21.9183 70.9263L45.0545 70.0516L44.4455 62.7384L22.4687 59.9632L22.6389 59.168L44.379 61.914L43.3419 49.5434L21.7241 50.2989L21.6683 49.7687L43.2993 49.0133L42.7675 42.5563L21.9901 41.8698L3.6832 43.6086L3.11676 58.3357L9.99646 59.2104L21.2401 55.0064ZM11.1214 70.1152C11.1214 70.1152 11.5043 60.9572 11.4298 60.6126L20.8013 57.4318L21.5991 69.9959L11.1214 70.1152Z" fill="#F5F5F5"/>
<path d="M59.859 69.7547L51.4501 70.0728L52.0113 72.4001L59.5478 72.0793L59.859 69.7547Z" fill="#F5F5F5"/>
<path d="M40.7543 85.921C40.7144 86.4008 40.6718 86.8806 40.632 87.3498L46.8814 87.2782L46.5995 86.1225L40.7543 85.921Z" fill="#F5F5F5"/>
<path d="M28.7501 41.2999L29.9654 37.8063L38.3449 38.0873L38.5923 30.5064L12.4324 28.256L12.1983 35.373L3.97303 36.4094L3.72571 42.8002L21.9262 41.0719L28.7501 41.2999Z" fill="#F5F5F5"/>
<path d="M46.9213 20.7891L46.7219 20.1211L56.8274 17.6534L50.6098 8.19318C50.4894 8.19984 50.3686 8.19984 50.2482 8.19318L39.1933 7.78498L39.071 20.7414L46.9213 20.7891Z" fill="#F5F5F5"/>
<path d="M62.2471 16.336L62.6486 3.70562L55.3647 3.44055C54.0058 3.39019 52.8702 4.16683 52.833 5.17408L52.7825 6.47555C52.7586 7.09581 52.3171 7.62859 51.6629 7.93607L57.8751 17.4095L62.2471 16.336Z" fill="#F5F5F5"/>
<path d="M24.6121 15.615L24.2026 2.28752L22.1762 2.2133L14.262 1.92438L10.5017 13.7065L24.6121 15.615ZM23.1974 3.60489L23.1149 14.4434L12.6292 13.0068L15.2513 3.34248L23.1974 3.60489Z" fill="#F5F5F5"/>
<path d="M24.9924 15.6707V15.7847C24.9765 16.8237 24.9446 18.7004 24.902 20.691L38.696 20.752L38.8183 7.78498L30.4786 7.48015C29.1171 7.42979 28.0453 6.57363 28.0852 5.56638L28.1358 4.26226C28.173 3.25766 27.1039 2.4068 25.7424 2.35113L24.5776 2.30872L24.9871 15.6707H24.9924Z" fill="#F5F5F5"/>
<path d="M9.39279 13.5581L13.1159 1.89522C8.78913 1.8051 5.21498 4.17743 5.09531 7.25485L4.86926 13.1234L4.90916 12.9511L9.39279 13.5581Z" fill="#F5F5F5"/>
<path d="M11.3102 28.1579L4.31346 27.5562L4.00232 35.5957L11.0974 34.6998L11.3102 28.1579Z" fill="#F5F5F5"/>
<path d="M9.31032 13.8152L4.86657 13.2109L4.36395 26.2283L5.32397 26.3131L9.31032 13.8152Z" fill="#F5F5F5"/>
<path d="M21.2747 81.6455L21.7321 71.1967L9.922 71.3901L10.0044 81.6455H21.2747Z" fill="#F5F5F5"/>
<path d="M23.5218 79.305L40.039 85.5261C40.3581 81.8337 40.6479 78.3693 40.64 78.1573H41.0016L41.1851 77.9134C41.4218 78.0062 41.4218 78.0062 41.2144 80.5243C41.1 81.9292 40.9485 83.8005 40.7783 85.6719L46.5543 85.8654L45.8842 80.1559L45.0678 70.3193L23.1974 71.1463L23.5218 79.305Z" fill="#F5F5F5"/>
<path d="M65.0234 63.3269L64.8798 61.9432L44.8151 62.7464L45.4188 70.0357L62.7444 69.3809L65.0234 63.3269Z" fill="#F5F5F5"/>
<path d="M38.3184 38.8825L30.8403 38.6333L29.8989 41.3397L38.228 41.618L38.3184 38.8825Z" fill="#F5F5F5"/>
<path d="M62.6779 40.6213L43.9801 39.0786L43.1158 42.1852L43.6716 49.0133L63.4757 48.3241L62.6779 40.6213ZM44.5678 42.2276L45.6315 40.2847L61.8747 41.557L62.6326 47.2427L44.9215 48.1359L44.5678 42.2276Z" fill="#F5F5F5"/>
<path d="M64.1485 54.8951L63.5235 48.8543L43.7168 49.5381L44.2513 55.9607L64.1485 54.8951Z" fill="#F5F5F5"/>
<path d="M9.68261 88.2298L2.00511 88.3172L1.98383 87.9621L1.92267 89.5631L9.69591 89.8228L9.68261 88.2298Z" fill="#F5F5F5"/>
<path d="M73.0014 13.7065L73.1078 13.9133L73.27 9.75177C73.3897 6.63194 69.9166 3.97334 65.5101 3.81165L63.0209 3.71887L62.6247 16.2432L73.0014 13.7065Z" fill="#F5F5F5"/>
<path d="M40.0123 85.815L23.1548 79.4534L22.8224 71.1489L22.107 71.1754L21.6363 81.9H10.0044V82.1465L10.0496 87.6837L39.8767 87.3471C39.9246 86.8461 39.9698 86.3292 40.0123 85.815ZM10.7144 82.6183L27.0029 82.3533L37.47 86.1835L10.5921 86.3133L10.7144 82.6183Z" fill="#F5F5F5"/>
<path d="M67.704 27.4555L68.5018 24.5398C62.4386 22.7903 62.1646 18.263 62.2258 16.8979L58.1996 17.8813L63.9278 26.6285L67.704 27.4555Z" fill="#F5F5F5"/>
<path d="M44.7486 61.9512L53.0803 61.6172L51.6097 56.3662L44.3178 56.7559L44.7486 61.9512Z" fill="#F5F5F5"/>
<path d="M62.9863 31.792L47.4611 31.2698L46.1767 31.1585L44.1875 38.2967L62.5848 39.8155L62.2603 36.6718L64.2229 32.1101L62.9863 31.792Z" fill="#F5F5F5"/>
<path d="M62.6486 30.4587L62.9438 27.0261L57.1252 18.1517L47.5782 20.4843L50.5247 30.0478L62.6486 30.4587ZM56.7343 19.1934L62.0795 26.9095L61.194 29.2288L51.6363 28.6536L49.4769 21.4465L56.7343 19.1934Z" fill="#F5F5F5"/>
<path d="M63.715 71.9786L63.7815 78.7351L70.5149 78.6927L70.5282 78.9578L63.7842 79.0002L63.8639 87.0873L70.2304 87.0131L70.2597 87.5433L63.8666 87.6175L63.9065 91.6385L70.1054 91.8453L70.9724 69.3332L64.6192 69.5745L63.715 71.9786Z" fill="#F5F5F5"/>
<path d="M24.6148 15.8801L10.4193 13.9584L6.44891 26.4005L24.2851 27.9353C24.4207 26.0109 24.551 20.0761 24.6148 15.8801Z" fill="#F5F5F5"/>
<path d="M47.6101 29.9498L49.7641 30.0213L47.0038 21.0542L39.0683 21.0197L38.9938 29.2076L47.6101 29.9498Z" fill="#F5F5F5"/>
<path d="M1.67269 96.0121L1.60089 97.8676C1.60089 97.9259 1.60089 97.9815 1.60089 98.0372L1.67269 96.0121Z" fill="#F5F5F5"/>
<path d="M24.6494 27.975L38.6188 29.1758L38.6933 21.0171L24.8967 20.9561C24.8355 23.7128 24.7504 26.655 24.6494 27.975Z" fill="#F5F5F5"/>
<path d="M64.2309 55.6903L51.9847 56.345L53.4553 61.6013L64.7974 61.148L64.2309 55.6903Z" fill="#F5F5F5"/>
<path d="M68.5683 24.2853L69.4592 21.0277L72.8232 21.3245L73.0892 14.2499L62.5981 16.8158C62.2284 21.7884 66.5898 23.6863 68.5683 24.2853Z" fill="#F5F5F5"/>
<path d="M64.1511 36.8521L64.4756 39.9719L72.0813 40.6001L72.3259 34.2094L65.9967 32.5686L64.1511 36.8521Z" fill="#F5F5F5"/>
<path d="M66.9142 63.4832L64.7202 69.3147L70.983 69.0788L71.2196 62.9054C69.3155 62.4839 67.6508 62.1367 66.7573 61.983L66.9142 63.4832Z" fill="#F5F5F5"/>
<path d="M63.7629 30.5912L72.3791 32.8231L72.5147 29.3295L64.0421 27.4847L63.7629 30.5912Z" fill="#F5F5F5"/>
<path d="M66.6669 61.1613C67.3636 61.2593 68.6826 61.5032 71.2462 62.0678L71.7781 48.5706L65.3957 48.7906L66.6669 61.1613Z" fill="#F5F5F5"/>
<path d="M65.3346 48.2605L71.7941 48.0379L72.0494 41.3953L64.558 40.7777L65.3346 48.2605Z" fill="#F5F5F5"/>
<path d="M69.2837 24.4788C70.4963 24.781 71.6266 25.024 72.6743 25.2077L72.802 21.8573L70.0629 21.6135L69.2837 24.4788Z" fill="#F5F5F5"/>
<path d="M68.4274 27.6119L72.5467 28.5078L72.6637 25.4808C71.6 25.2917 70.4476 25.0443 69.2066 24.7386L68.4274 27.6119Z" fill="#F5F5F5"/>
<path d="M9.68262 88.243L9.69592 89.8334L10.0682 89.8467V88.2351L39.8528 87.8984C39.7624 88.9322 39.6746 89.9315 39.5868 90.8354L40.3341 90.8592C40.4112 90.0084 40.499 88.9826 40.6001 87.8905L47.0303 87.8189L47.8281 91.111L48.2084 91.1243L47.392 87.8136L61.9997 87.6493L62.037 91.5855L63.8985 91.6491L63.8586 87.6281L70.241 87.5539L70.2117 87.0237L63.8426 87.0979L63.7655 79.0108L70.5096 78.9684V78.7033L63.7762 78.7457L63.7097 71.9892L64.6138 69.5851L70.967 69.3438V69.0788L64.7043 69.3147L66.8982 63.4832L66.7413 61.9724C67.6349 62.1261 69.2996 62.4733 71.2037 62.8948L71.2356 62.0678C68.672 61.5032 67.353 61.2593 66.6562 61.1613L65.3744 48.7907L71.7568 48.5706L71.7781 48.0405L65.3186 48.2632L64.5421 40.7804L72.0334 41.398L72.0626 40.6028L64.4596 39.9746L64.1352 36.8547L65.994 32.5792L72.3259 34.2173L72.3791 32.831L63.7629 30.5992L64.0421 27.4926L72.5147 29.3481L72.5466 28.5264L68.4273 27.6305L69.2118 24.7571C70.4529 25.0646 71.6052 25.312 72.669 25.4993V25.2343C71.6212 25.0575 70.491 24.8146 69.2783 24.5053L70.0575 21.64L72.7966 21.8838L72.8179 21.3537L69.4538 21.0568L68.563 24.3145C66.5844 23.7154 62.2231 21.8176 62.5981 16.8449L73.0891 14.2791L73.1025 13.9425L72.9961 13.7357L62.6247 16.2724L63.0209 3.74803H62.6486L62.247 16.3784L57.8751 17.4387L51.6629 7.92812C51.3275 8.0804 50.967 8.17024 50.5992 8.19318L56.8273 17.664L46.7218 20.1211L46.924 20.7785L39.0736 20.744L39.1959 7.78763L38.821 7.77438L38.6986 20.7414L24.9153 20.691C24.9578 18.6924 24.9898 16.8237 25.0057 15.7847V15.6707L24.5776 2.30872L24.2026 2.29282L24.6121 15.615L10.5017 13.7065L14.262 1.92968L13.2967 1.89257C13.2355 1.89257 13.177 1.89257 13.1158 1.89257L9.39275 13.5555L4.90911 12.9458L4.86922 13.1181V13.2109L9.31297 13.8126L5.32397 26.3104L4.36661 26.2256L4.31608 27.5509L11.3128 28.1526L11.0867 34.6998L3.99164 35.593L3.95973 36.4094L12.1877 35.3704L12.4191 28.2534L38.579 30.5038L38.3343 38.0846L29.968 37.8063L28.7501 41.2999L21.9262 41.0613L3.72571 42.7896L3.69379 43.598L21.99 41.8698L42.7515 42.5643L43.2833 49.0213L21.6417 49.7687L21.6975 50.2989L43.3418 49.5434L44.371 61.9167L22.6309 59.1706L22.4607 59.9658L44.4375 62.7411L45.0465 70.0542L21.9102 70.9289L9.9193 71.1304L10.2889 60.0162L21.7853 55.7115L21.2534 55.0064L10.0204 59.2104L3.14065 58.3357L3.10874 59.1309L9.92462 59.9976L9.69592 67.0696L2.78164 67.3559L2.74973 68.1511L9.664 67.8648L9.54965 71.3902L9.62943 81.399L2.18329 83.2015L2.15138 84.0576L9.65071 82.2446L9.6773 87.7129L1.99182 87.7977V87.9753L2.01043 88.3305L9.68262 88.243ZM40.632 87.363C40.6719 86.8938 40.7144 86.4141 40.7543 85.9343L46.6048 86.1411L46.8867 87.2914L40.632 87.363ZM47.259 87.2861L46.9426 86.0006L46.2591 80.1532L45.9054 75.8936L61.8801 75.5649L61.9944 87.1085L47.259 87.2861ZM51.4501 70.086L59.8563 69.7679L59.5478 72.074L52.0113 72.3947L51.4501 70.086ZM51.0752 70.1019L52.3064 75.223L45.8549 75.3502L45.4347 70.3007L51.0752 70.1019ZM61.8801 75.0322L52.6974 75.215L52.1469 72.9275L60.2419 72.5803L60.6222 69.7255L62.6513 69.6487L61.8535 71.7692L61.8801 75.0322ZM51.6177 56.3662L53.0856 61.6172L44.7566 61.9512L44.3284 56.7585L51.6177 56.3662ZM53.4633 61.6013L51.9926 56.345L64.2256 55.6903L64.8053 61.148L53.4633 61.6013ZM62.5928 39.8155L44.1955 38.2967L46.19 31.1585L47.4744 31.2698L62.9996 31.7999L64.2362 32.118L62.271 36.6798L62.5928 39.8155ZM62.2284 16.9085C62.1673 18.2736 62.4412 22.801 68.5045 24.5504L67.7067 27.4661L63.9251 26.6418L58.1969 17.8946L62.2284 16.9085ZM57.1438 18.1517L62.9438 27.0261L62.6486 30.4587L50.5353 30.0532L47.5888 20.4896L57.1438 18.1517ZM47.0117 21.0674L49.7721 30.0346L47.6154 29.963L39.0018 29.2235L39.0763 21.033L47.0117 21.0674ZM38.7013 21.0303L38.6268 29.189L24.6494 27.975C24.7504 26.6497 24.8355 23.7128 24.8967 20.9561L38.7013 21.0303ZM10.4193 13.9663L24.6148 15.8801C24.551 20.0681 24.4207 26.0029 24.285 27.9353L6.44887 26.4005L10.4193 13.9663ZM45.8017 31.1267L42.8366 41.7717L38.6029 41.6286L38.9646 30.5382L45.8017 31.1267ZM30.8403 38.6333L38.3183 38.8825L38.2279 41.618L29.8989 41.3529L30.8403 38.6333ZM43.1051 42.1852L43.9694 39.0786L62.6779 40.6213L63.4757 48.3241L43.6716 49.0133L43.1051 42.1852ZM63.5235 48.8543L64.1485 54.8951L44.2487 55.9554L43.7168 49.5328L63.5235 48.8543ZM44.8124 62.7464L64.8798 61.9512L65.0234 63.3348L62.7443 69.3889L45.4188 70.0436L44.8124 62.7464ZM45.8762 80.1532L46.5543 85.8574L40.7782 85.6639C40.9378 83.7926 41.1 81.9212 41.2144 80.5164C41.4218 77.9982 41.4218 77.9982 41.1851 77.9055L41.0016 78.1493H40.6399C40.6399 78.3693 40.3581 81.8258 40.0389 85.5182L23.5218 79.2971L23.1974 71.1357L45.0677 70.3087L45.8762 80.1532ZM21.7241 71.1967L21.2667 81.6455H10.0044L9.92196 71.3928L21.7241 71.1967ZM10.0071 82.1465V81.9053H21.639L22.1097 71.1807L22.8251 71.1542L23.1575 79.4587L40.015 85.8203C39.9725 86.3346 39.9272 86.8514 39.882 87.363L10.0549 87.6996L10.0071 82.1465Z" fill="white"/>
<path d="M27.0029 82.3533L10.7144 82.6183L10.5921 86.3134L37.47 86.1835L27.0029 82.3533Z" fill="#EBEBEB"/>
<path d="M61.8695 41.557L45.6262 40.2847L44.5572 42.2276L44.9162 48.1333L62.6274 47.2427L61.8695 41.557Z" fill="#EBEBEB"/>
<path d="M9.36088 103.81L61.5743 105.737C65.9808 105.899 69.6533 103.5 69.7757 100.378L70.1028 91.8532L63.9065 91.6465L62.045 91.5829L48.2164 91.1216L47.8361 91.1084L40.3342 90.8566L39.5869 90.8327L10.0683 89.844L9.69596 89.8308L1.92272 89.5657L1.67275 96.0148L1.60626 98.0425C1.6169 101.085 5.0368 103.651 9.36088 103.81Z" fill="#EBEBEB"/>
<path d="M23.1149 14.4487L23.1974 3.61019L15.2513 3.34248L12.6318 13.0068L23.1149 14.4487Z" fill="#EBEBEB"/>
<path d="M61.1966 29.2288L62.0795 26.9095L56.7343 19.1934L49.4769 21.4518L51.639 28.6536L61.1966 29.2288Z" fill="#EBEBEB"/>
<path d="M11.4298 60.602C11.5043 60.9466 11.1213 70.1046 11.1213 70.1046L21.5938 69.9879L20.796 57.4238L11.4298 60.602Z" fill="#EBEBEB"/>
<path d="M46.065 69.2087L45.6954 63.5097L63.6831 62.4786L63.6512 63.4594L61.3136 68.607L46.065 69.2087Z" fill="#EBEBEB"/>
<path d="M34.332 21.6797C34.3028 22.5332 33.3029 23.1932 32.0955 23.1508C30.8882 23.1084 29.9362 22.3874 29.9681 21.5339C30 20.6804 30.9972 20.0204 32.2019 20.0602C33.4066 20.0999 34.3586 20.8236 34.332 21.6797Z" fill="#E8505B"/>
<g opacity="0.6">
<path d="M34.332 21.6135C34.3559 22.467 33.3959 23.1561 32.1912 23.1535C30.9866 23.1508 29.9867 22.4537 29.9627 21.6002C29.9388 20.7467 30.8961 20.0549 32.1035 20.0575C33.3108 20.0602 34.3081 20.7573 34.332 21.6135Z" fill="white"/>
</g>
<path d="M33.6071 21.6049C33.6269 21.0372 32.992 20.5545 32.1891 20.5267C31.3862 20.4989 30.7193 20.9365 30.6995 21.5042C30.6797 22.0718 31.3146 22.5545 32.1175 22.5823C32.9204 22.6101 33.5873 22.1725 33.6071 21.6049Z" fill="#E8505B"/>
<path d="M63.9012 84.5003C63.8879 84.8661 63.4597 85.1471 62.9438 85.1312C62.4279 85.1153 62.021 84.8025 62.0343 84.4393C62.0476 84.0762 62.4731 83.7926 62.989 83.8085C63.5049 83.8244 63.9118 84.1372 63.9012 84.5003Z" fill="#E8505B"/>
<path d="M62.4119 84.2352L62.3082 80.5243L46.5251 80.5376C46.1195 80.5405 45.717 80.4668 45.339 80.3202L23.2399 71.573C22.7267 71.3716 22.3996 70.9899 22.3836 70.579L20.7003 28.6987C20.7007 28.5905 20.73 28.4844 20.7851 28.3912C20.8403 28.2981 20.9193 28.2212 21.0141 28.1685C21.2455 28.0316 21.5146 27.9713 21.7826 27.9962L31.3562 28.8206L31.5982 21.3988L32.7205 21.4359L32.4758 28.9558C32.4665 29.0602 32.4313 29.1608 32.3732 29.2482C32.3152 29.3357 32.2362 29.4074 32.1434 29.4568C31.9151 29.5862 31.6523 29.6427 31.3908 29.6184L21.8331 28.7941L23.5112 70.5764C23.5219 70.6471 23.5525 70.7134 23.5996 70.7674C23.6467 70.8214 23.7083 70.8609 23.7771 70.8812L45.8762 79.6284C46.076 79.7067 46.289 79.7463 46.5038 79.745L62.4173 79.7291C62.6701 79.7266 62.918 79.7985 63.13 79.9359C63.2171 79.9893 63.2902 80.0625 63.3434 80.1496C63.3965 80.2367 63.4282 80.3352 63.4358 80.4368L63.5422 84.2405L62.4119 84.2352Z" fill="#E8505B"/>
<path d="M35.1591 16.5056C35.1989 15.2837 33.6725 14.2685 31.8801 14.4461C30.7525 14.5574 29.8351 15.1777 29.6143 15.9676C29.5496 16.2022 29.5429 16.4489 29.5948 16.6866C29.6467 16.9244 29.7556 17.146 29.9122 17.3326C30.0159 17.4652 30.1489 17.5606 30.2792 17.6984L31.8562 19.2888C31.9667 19.3821 32.1057 19.4355 32.2504 19.4403C32.3952 19.4451 32.5374 19.4011 32.654 19.3153L34.3001 17.8707C34.447 17.7559 34.5873 17.6329 34.7203 17.5023C34.9817 17.2333 35.1375 16.8796 35.1591 16.5056ZM32.3322 17.2743C31.6514 17.2531 31.1115 16.8423 31.1275 16.3599C31.1435 15.8774 31.7072 15.5063 32.388 15.5302C33.0688 15.5541 33.6087 15.9623 33.5927 16.4447C33.5768 16.9271 33.013 17.2982 32.3322 17.2743Z" fill="#E8505B"/>
<path d="M111.905 12.2937H100.44C99.8579 12.2937 99.2992 12.5244 98.8872 12.935C98.4753 13.3456 98.2438 13.9025 98.2438 14.4832V23.4954C98.2431 23.7833 98.2995 24.0684 98.4096 24.3345C98.5197 24.6006 98.6814 24.8424 98.8855 25.0461C99.0896 25.2497 99.332 25.4112 99.5988 25.5213C99.8657 25.6314 100.152 25.6879 100.44 25.6875H100.73V27.8345L103.227 25.6875H111.915C112.497 25.6875 113.055 25.4571 113.467 25.047C113.878 24.6369 114.109 24.0807 114.109 23.5007V14.4885C114.111 14.1998 114.054 13.9137 113.944 13.6467C113.833 13.3798 113.671 13.1373 113.466 12.9333C113.261 12.7292 113.017 12.5677 112.75 12.4579C112.482 12.3481 112.195 12.2923 111.905 12.2937Z" fill="#E8505B"/>
<path d="M101.523 16.4235V21.0409C101.523 21.0885 101.543 21.134 101.576 21.1676C101.61 21.2013 101.656 21.2205 101.704 21.2212H111.415C111.439 21.2212 111.463 21.2164 111.485 21.2072C111.507 21.198 111.527 21.1845 111.544 21.1674C111.561 21.1504 111.574 21.1302 111.583 21.1081C111.592 21.0859 111.597 21.0622 111.596 21.0383L111.572 19.3471C111.573 19.3097 111.561 19.2732 111.538 19.2438L110.144 17.3883C110.128 17.3657 110.106 17.3474 110.081 17.3349C110.056 17.3224 110.029 17.3162 110.001 17.3167H108.405C108.358 17.3167 108.313 17.298 108.279 17.2647C108.246 17.2314 108.227 17.1862 108.227 17.1391V16.4235C108.226 16.3759 108.207 16.3304 108.173 16.2968C108.139 16.2631 108.094 16.2439 108.046 16.2432H101.704C101.656 16.2439 101.61 16.2631 101.576 16.2968C101.543 16.3304 101.523 16.3759 101.523 16.4235Z" fill="#FAFAFA"/>
<path d="M108.668 17.7037V19.1855C108.668 19.1993 108.671 19.2129 108.677 19.2256C108.682 19.2384 108.69 19.2499 108.7 19.2595C108.71 19.2691 108.721 19.2767 108.734 19.2817C108.747 19.2868 108.761 19.2892 108.775 19.2888L110.918 19.2517C110.937 19.2516 110.955 19.2464 110.972 19.2367C110.988 19.2269 111.001 19.213 111.01 19.1964C111.018 19.1798 111.022 19.1611 111.021 19.1423C111.02 19.1236 111.014 19.1055 111.003 19.09L110.014 17.6163C110.004 17.602 109.99 17.5905 109.974 17.5827C109.959 17.5748 109.941 17.5709 109.924 17.5712L108.783 17.603C108.768 17.6011 108.754 17.6023 108.74 17.6065C108.726 17.6107 108.713 17.6178 108.703 17.6274C108.692 17.6369 108.683 17.6487 108.677 17.6619C108.671 17.675 108.668 17.6893 108.668 17.7037Z" fill="#E8505B"/>
<path d="M111.79 21.3616H101.329V21.6824H111.79V21.3616Z" fill="#FAFAFA"/>
<path d="M104.788 21.4836C104.788 21.6875 104.728 21.8869 104.614 22.0564C104.5 22.226 104.339 22.3582 104.15 22.4362C103.961 22.5142 103.753 22.5347 103.552 22.4949C103.351 22.4551 103.167 22.3569 103.022 22.2127C102.878 22.0685 102.779 21.8847 102.739 21.6847C102.699 21.4847 102.72 21.2774 102.798 21.089C102.877 20.9006 103.009 20.7395 103.179 20.6262C103.349 20.5129 103.549 20.4525 103.754 20.4525C104.028 20.4525 104.291 20.5611 104.485 20.7545C104.679 20.9478 104.788 21.2101 104.788 21.4836Z" fill="#E8505B"/>
<path d="M104.363 21.4836C104.363 21.6036 104.327 21.721 104.26 21.8208C104.193 21.9206 104.098 21.9984 103.987 22.0444C103.876 22.0903 103.753 22.1023 103.635 22.0789C103.517 22.0555 103.408 21.9977 103.323 21.9128C103.238 21.8279 103.18 21.7197 103.157 21.602C103.133 21.4842 103.145 21.3622 103.191 21.2513C103.237 21.1404 103.315 21.0456 103.416 20.9789C103.516 20.9122 103.634 20.8766 103.754 20.8766C103.915 20.8766 104.07 20.9405 104.185 21.0544C104.299 21.1682 104.363 21.3226 104.363 21.4836Z" fill="#FAFAFA"/>
<path d="M108.211 21.2212C108.184 21.2212 108.163 20.1079 108.163 18.7322C108.163 17.3565 108.184 16.2432 108.211 16.2432C108.238 16.2432 108.256 17.3592 108.256 18.7322C108.256 20.1052 108.235 21.2212 108.211 21.2212Z" fill="#E8505B"/>
<path d="M110.426 21.4836C110.426 21.6875 110.366 21.8869 110.252 22.0564C110.138 22.226 109.977 22.3582 109.788 22.4362C109.599 22.5142 109.391 22.5347 109.19 22.4949C108.989 22.4551 108.805 22.3569 108.66 22.2127C108.516 22.0685 108.417 21.8847 108.377 21.6847C108.337 21.4847 108.358 21.2774 108.436 21.089C108.514 20.9006 108.647 20.7395 108.817 20.6262C108.987 20.5129 109.187 20.4525 109.392 20.4525C109.666 20.4525 109.929 20.5611 110.123 20.7545C110.317 20.9478 110.426 21.2101 110.426 21.4836Z" fill="#E8505B"/>
<path d="M110.014 21.4836C110.014 21.6036 109.978 21.721 109.911 21.8208C109.845 21.9206 109.749 21.9984 109.638 22.0444C109.527 22.0903 109.404 22.1023 109.286 22.0789C109.168 22.0555 109.06 21.9977 108.974 21.9128C108.889 21.8279 108.831 21.7197 108.808 21.602C108.784 21.4842 108.796 21.3622 108.842 21.2513C108.889 21.1404 108.967 21.0456 109.067 20.9789C109.167 20.9122 109.285 20.8766 109.405 20.8766C109.567 20.8766 109.721 20.9405 109.836 21.0544C109.95 21.1682 110.014 21.3226 110.014 21.4836Z" fill="#FAFAFA"/>
<path d="M109.394 19.591C109.394 19.6175 109.245 19.6387 109.065 19.6387C108.884 19.6387 108.732 19.6175 108.732 19.591C108.732 19.5645 108.881 19.5459 109.065 19.5459C109.248 19.5459 109.394 19.5565 109.394 19.591Z" fill="#E8505B"/>
<path d="M31.3961 3.92297C31.3822 4.17639 31.4641 4.4258 31.6255 4.62206C31.787 4.81831 32.0163 4.94717 32.2684 4.98324C34.6857 5.13167 41.4989 5.55048 44.5439 5.75458C45.1449 5.79699 45.6076 5.16613 45.5012 4.47696L45.4826 4.36033C45.4585 4.14655 45.3654 3.94638 45.2171 3.79002C45.0689 3.63366 44.8736 3.52961 44.6609 3.49357C42.6025 3.27356 36.393 2.66391 32.279 2.8362C31.7844 2.86801 31.3961 3.34778 31.3961 3.92297Z" fill="url(#paint1_linear_1418_246)"/>
<path d="M74.1131 9.33837C73.895 6.31927 71.8606 3.91247 69.2758 3.6103C58.1252 2.31148 20.4264 -0.869312 5.95698 0.22541C3.34818 0.424209 1.30315 2.91583 1.23932 5.96408C0.843081 24.6062 -0.444037 88.9058 0.175588 111.691C0.242071 114.106 1.9015 116.043 3.97046 116.123C14.2089 116.512 51.7454 117.504 68.4939 116.685C71.9803 116.512 74.7567 113.218 74.8285 109.149C75.1768 89.5817 75.9294 34.5488 74.1131 9.33837ZM69.0178 95.5695C68.8822 98.5144 66.9036 100.889 64.3826 101.136C50.3865 102.443 17.8442 101.006 8.28922 100.357C5.97028 100.198 4.14332 98.0108 4.06088 95.3045C3.51039 76.7949 5.2496 26.7399 5.80008 11.6948C5.89582 9.08921 7.66162 7.00049 9.90344 6.85735C21.796 6.10192 56.3913 8.67305 66.7148 9.75452C69.2093 10.0196 71.1506 12.4052 71.2357 15.3209C71.7622 33.6104 69.7252 80.2196 69.0178 95.5695Z" fill="url(#paint2_linear_1418_246)"/>
<path d="M113.296 57.2648C113.296 57.2648 117.585 57.9858 117.931 58.0785C118.277 58.1713 119.636 58.8128 119.705 59.2263C119.741 59.7691 119.741 60.3136 119.705 60.8564C119.705 60.8564 119.457 61.0552 119.306 60.6576C119.204 60.2712 119.16 59.872 119.175 59.4728L118.415 59.1812L118.83 59.9155L118.899 61.6357C118.899 61.6357 118.367 61.588 118.263 61.1772C118.198 60.891 118.164 60.5986 118.162 60.3051L117.609 59.8386L118.024 60.3979L118.162 61.6357C118.162 61.6357 117.758 61.7683 117.63 61.4926C117.537 61.1352 117.491 60.7672 117.492 60.3979L115.928 59.8518L114.894 60.427L112.961 59.3509L113.296 57.2648Z" fill="#FFBE9D"/>
<path d="M98.2757 46.6966C98.297 46.7814 103.445 53.8534 103.445 53.8534L113.79 57.0607L113.32 60.9333L100.643 58.3887L96.1429 53.2411L98.2757 46.6966Z" fill="#E8505B"/>
<g opacity="0.2">
<path d="M98.2757 46.6966C98.297 46.7814 103.445 53.8534 103.445 53.8534L113.79 57.0607L113.32 60.9333L100.643 58.3887L96.1429 53.2411L98.2757 46.6966Z" fill="black"/>
</g>
<path d="M80.2588 56.4219H59.1224C58.6744 56.4219 58.3113 56.7838 58.3113 57.2303V59.7193C58.3113 60.1658 58.6744 60.5278 59.1224 60.5278H80.2588C80.7067 60.5278 81.0699 60.1658 81.0699 59.7193V57.2303C81.0699 56.7838 80.7067 56.4219 80.2588 56.4219Z" fill="#F5F5F5"/>
<path d="M80.2588 60.5278C80.2588 60.5278 80.304 60.5278 80.3917 60.5092C80.5608 60.4782 80.7153 60.3936 80.8322 60.268C80.9492 60.1423 81.0222 59.9824 81.0406 59.8121C81.0406 59.5629 81.0406 59.266 81.0406 58.9374C81.0406 58.6087 81.0406 58.2402 81.0406 57.84C81.0406 57.6385 81.0406 57.4291 81.0406 57.2118C81.0371 57.1042 81.0117 56.9985 80.966 56.901C80.9203 56.8035 80.8552 56.7162 80.7747 56.6445C80.6873 56.5709 80.5847 56.5175 80.4742 56.4882C80.3563 56.4626 80.2354 56.4545 80.1152 56.4643H79.3386H77.6499L59.1383 56.4855C59.0348 56.4854 58.9323 56.5067 58.8376 56.5483C58.7428 56.5898 58.6577 56.6506 58.5878 56.7267C58.5188 56.8038 58.4662 56.894 58.4332 56.992C58.4003 57.09 58.3878 57.1936 58.3964 57.2966C58.3964 57.7419 58.3964 58.1846 58.3964 58.6219V59.6159C58.3913 59.7174 58.4002 59.8191 58.423 59.9181C58.4627 60.0614 58.5444 60.1897 58.6576 60.2864C58.7708 60.3832 58.9104 60.4442 59.0585 60.4615C59.1516 60.4615 59.266 60.4615 59.3723 60.4615H64.2868L72.6079 60.4774L78.2191 60.4986L79.7455 60.5119L78.2191 60.5251L72.6079 60.5463L64.2868 60.5622H59.3537C59.2447 60.5622 59.1436 60.5622 59.024 60.5622C58.9082 60.5483 58.7963 60.5123 58.6942 60.4562C58.5925 60.3999 58.503 60.324 58.4309 60.2331C58.3588 60.1421 58.3054 60.0377 58.274 59.9261C58.2454 59.8154 58.2346 59.7008 58.2421 59.5868V58.6034C58.2421 58.166 58.2421 57.7234 58.2421 57.278C58.235 57.1578 58.2518 57.0374 58.2915 56.9237C58.3312 56.81 58.3931 56.7052 58.4735 56.6154C58.5558 56.5247 58.6563 56.4523 58.7686 56.403C58.8809 56.3536 59.0023 56.3285 59.125 56.3291L77.6367 56.3503H80.1019C80.2295 56.3451 80.3572 56.3558 80.4821 56.3821C80.6038 56.415 80.7165 56.4748 80.8119 56.5571C80.9018 56.6348 80.9745 56.7303 81.0253 56.8375C81.0762 56.9448 81.104 57.0614 81.1071 57.18C81.1071 57.3973 81.1071 57.6094 81.1071 57.8108C81.1071 58.2111 81.1071 58.5769 81.1071 58.9082C81.1071 59.2395 81.1071 59.5285 81.0938 59.7882C81.0643 60.0081 80.9486 60.2073 80.772 60.3422C80.6644 60.4226 80.5382 60.4746 80.405 60.4933C80.3584 60.5125 80.309 60.5241 80.2588 60.5278Z" fill="#263238"/>
<path d="M137.648 112.993C143.647 112.706 148.276 107.626 147.988 101.647C147.7 95.6681 142.603 91.054 136.605 91.3411C130.606 91.6283 125.977 96.7082 126.265 102.687C126.553 108.666 131.65 113.28 137.648 112.993Z" fill="#263238"/>
<path d="M126.257 101.984C126.257 101.984 126.257 102.003 126.257 102.013C126.233 104.876 127.347 107.633 129.355 109.68C131.362 111.728 134.102 112.9 136.974 112.942C139.846 112.983 142.618 111.89 144.685 109.901C146.751 107.912 147.944 105.189 148.003 102.326C148.003 102.326 148.003 102.307 148.003 102.297L126.257 101.984Z" fill="#263238"/>
<path d="M129.494 102.058C129.472 103.563 129.898 105.041 130.719 106.304C131.539 107.568 132.718 108.561 134.104 109.157C135.491 109.753 137.024 109.926 138.509 109.653C139.994 109.381 141.365 108.676 142.448 107.627C143.531 106.578 144.278 105.233 144.594 103.761C144.91 102.289 144.781 100.757 144.223 99.3582C143.665 97.9595 142.704 96.757 141.461 95.9028C140.217 95.0487 138.748 94.5812 137.238 94.5595C135.213 94.5305 133.26 95.3042 131.808 96.7105C130.355 98.1167 129.523 100.04 129.494 102.058Z" fill="#FAFAFA"/>
<path d="M137.238 94.5595C135.213 94.5305 133.26 95.3042 131.808 96.7105C130.355 98.1167 129.523 100.04 129.494 102.058L144.761 102.278C144.79 100.26 144.014 98.3135 142.603 96.866C141.192 95.4185 139.262 94.5888 137.238 94.5595Z" fill="#E0E0E0"/>
<path d="M132.477 102.101C132.464 103.018 132.723 103.918 133.223 104.688C133.723 105.458 134.441 106.062 135.285 106.426C136.13 106.789 137.064 106.894 137.969 106.729C138.874 106.563 139.709 106.134 140.369 105.495C141.029 104.856 141.484 104.036 141.676 103.14C141.869 102.243 141.79 101.309 141.451 100.457C141.111 99.605 140.525 98.8724 139.768 98.352C139.01 97.8316 138.115 97.5468 137.195 97.5336C135.962 97.5159 134.772 97.987 133.888 98.8435C133.003 99.6999 132.496 100.872 132.477 102.101Z" fill="#263238"/>
<path d="M131.967 86.2762C131.967 86.2762 143.099 82.9205 147.702 94.9757L124.406 102.17L131.967 86.2762Z" fill="#E8505B"/>
<path d="M70.5587 112.994C76.5573 112.707 81.1866 107.627 80.8985 101.648C80.6103 95.6692 75.5139 91.055 69.5153 91.3422C63.5166 91.6294 58.8873 96.7092 59.1755 102.688C59.4636 108.667 64.56 113.281 70.5587 112.994Z" fill="#263238"/>
<path d="M59.1649 101.984C59.1649 101.984 59.1649 102.003 59.1649 102.013C59.1408 104.876 60.2543 107.633 62.2622 109.68C64.2701 111.728 67.0094 112.9 69.8817 112.942C72.754 112.983 75.526 111.89 77.5924 109.901C79.6587 107.912 80.8516 105.189 80.9103 102.326V102.292L59.1649 101.984Z" fill="#263238"/>
<path d="M62.4119 102.058C62.39 103.563 62.8163 105.041 63.637 106.304C64.4576 107.568 65.6358 108.561 67.0224 109.157C68.409 109.753 69.9419 109.926 71.4271 109.653C72.9122 109.381 74.2831 108.676 75.3662 107.627C76.4493 106.578 77.1961 105.233 77.5121 103.761C77.828 102.289 77.699 100.757 77.1413 99.3582C76.5836 97.9595 75.6222 96.757 74.3788 95.9028C73.1354 95.0487 71.6659 94.5812 70.1559 94.5595C68.1314 94.5305 66.1782 95.3042 64.726 96.7105C63.2737 98.1167 62.4413 100.04 62.4119 102.058Z" fill="#FAFAFA"/>
<path d="M70.1453 94.5595C68.1226 94.5333 66.1722 95.3083 64.7223 96.7142C63.2723 98.1202 62.4414 100.042 62.412 102.058L77.6792 102.278C77.6936 101.278 77.5102 100.285 77.1392 99.3558C76.7683 98.4265 76.2172 97.5792 75.5175 96.8623C74.8178 96.1454 73.9832 95.5731 73.0614 95.1779C72.1396 94.7828 71.1487 94.5727 70.1453 94.5595Z" fill="#E0E0E0"/>
<path d="M65.3851 102.101C65.3715 103.018 65.631 103.918 66.1308 104.688C66.6306 105.458 67.3483 106.062 68.193 106.426C69.0377 106.789 69.9715 106.894 70.8763 106.729C71.7812 106.563 72.6164 106.134 73.2763 105.495C73.9363 104.856 74.3913 104.036 74.5839 103.14C74.7765 102.243 74.6979 101.309 74.3582 100.457C74.0185 99.605 73.4329 98.8724 72.6754 98.352C71.9179 97.8316 71.0226 97.5468 70.1028 97.5336C68.8696 97.5159 67.6799 97.987 66.7952 98.8435C65.9105 99.6999 65.4033 100.872 65.3851 102.101Z" fill="#263238"/>
<path d="M85.503 97.8172C85.4418 97.849 79.7801 96.9451 79.7801 96.9451C79.474 97.3434 79.0843 97.6703 78.6383 97.9028C78.1923 98.1354 77.7007 98.2681 77.1979 98.2917C74.7513 98.4083 72.3606 98.517 70.2836 98.6097C69.3556 98.651 68.4819 99.0573 67.8539 99.7394C67.2258 100.422 66.8946 101.324 66.9328 102.249C66.9702 103.127 67.3374 103.959 67.9616 104.58C68.5857 105.2 69.4213 105.564 70.3022 105.6L82.357 106.074C84.3382 106.151 86.9709 104.953 88.2075 103.407L85.503 97.8172Z" fill="#455A64"/>
<path d="M55.9179 93.0142C55.9179 93.0142 55.402 82.4513 65.3612 80.2513V78.8968H100.246V82.1465C100.246 82.1465 95.1271 88.2934 96.7892 93.3959C98.4513 98.4984 98.9832 99.0206 98.9832 99.0206H118.838C120.405 96.8259 121.278 94.2147 121.345 91.5219C121.452 87.0423 119.585 79.3845 118.189 74.4888C116.928 70.0224 116.131 66.3009 116.131 66.3009L122.087 64.3208C122.087 64.3208 133.11 78.7007 133.56 79.4959C134.009 80.2911 135.541 82.1889 135.182 86.3186C134.823 90.4484 124.906 103.187 122.306 104.624C119.705 106.061 117.354 106.151 115.011 106.509C112.979 106.821 97.9487 106.615 94.0155 106.554C92.6487 106.545 91.3088 106.175 90.1329 105.48C88.9575 104.77 88.0746 103.593 87.0986 101.663L85.0163 97.6237L55.9179 93.0142Z" fill="#E8505B"/>
<path d="M58.5878 92.2879L54.1946 99.1478C54.0642 99.338 53.9995 99.5653 54.0102 99.7953C54.0209 100.025 54.1065 100.246 54.254 100.423C54.4015 100.6 54.6029 100.725 54.8278 100.778C55.0527 100.831 55.2888 100.81 55.5003 100.717C56.047 100.473 56.5466 100.136 56.9763 99.7204C58.9841 97.8145 62.5609 92.7942 62.5609 92.7942L58.5878 92.2879Z" fill="#455A64"/>
<path d="M90.0983 93.5231C90.0983 93.5231 90.0983 93.4887 90.1249 93.4224L90.2126 93.1335C90.3184 92.7626 90.3957 92.3842 90.444 92.0017C90.5912 90.5857 90.3562 89.1563 89.7632 87.8613C89.3644 86.9676 88.8169 86.1476 88.1437 85.436C87.3706 84.6232 86.473 83.9379 85.4843 83.4056C84.3887 82.8159 83.2163 82.3806 82.0006 82.112C80.69 81.8303 79.3523 81.6925 78.0116 81.7012C76.6769 81.7109 75.3442 81.8092 74.0226 81.9954C72.7355 82.1677 71.5015 82.3798 70.3368 82.6448C68.2688 83.0826 66.2757 83.8174 64.4197 84.8263C63.1734 85.5157 62.0347 86.3828 61.0397 87.4001C60.6887 87.7606 60.4361 88.0601 60.2685 88.2642L60.0797 88.5001C60.0595 88.5282 60.0363 88.554 60.0106 88.577C60.304 88.1442 60.635 87.738 60.9998 87.363C61.9863 86.3263 63.1229 85.4427 64.3719 84.7415C66.2311 83.7143 68.232 82.9659 70.3102 82.5203C71.475 82.2552 72.7036 82.0352 74.004 81.8602C75.3362 81.6723 76.6795 81.5731 78.0249 81.5634C79.373 81.5544 80.7179 81.694 82.0352 81.9795C83.2629 82.2573 84.446 82.7033 85.5508 83.3048C86.5533 83.8448 87.4627 84.541 88.2447 85.3671C88.9228 86.0909 89.4722 86.9245 89.8696 87.8322C90.4601 89.1445 90.6826 90.5919 90.5131 92.0202C90.4572 92.4044 90.3683 92.7831 90.2472 93.152C90.2047 93.274 90.1727 93.3667 90.1462 93.4383C90.1327 93.4679 90.1167 93.4963 90.0983 93.5231Z" fill="#263238"/>
<path d="M88.0905 91.1587C88.0746 91.1587 88.1464 90.9918 88.2208 90.6896C88.3205 90.2546 88.334 89.8044 88.2607 89.3643C88.1572 88.7172 87.9374 88.094 87.6118 87.5247C87.4276 87.184 87.2122 86.861 86.9683 86.5599C86.713 86.2322 86.4232 85.9328 86.104 85.6666C85.4817 85.1559 84.7814 84.7478 84.0297 84.4579C83.4146 84.2174 82.7767 84.0398 82.1256 83.9278C81.6854 83.8537 81.2416 83.8033 80.796 83.7767C80.6322 83.7745 80.4688 83.7621 80.3066 83.7396C80.349 83.7332 80.392 83.7332 80.4343 83.7396C80.5167 83.7396 80.6391 83.7396 80.7986 83.7396C81.2438 83.7461 81.688 83.7824 82.1283 83.8482C82.7898 83.9429 83.4389 84.1091 84.0643 84.3439C84.8353 84.6333 85.5539 85.046 86.1918 85.5659C86.5173 85.8391 86.8132 86.1456 87.0746 86.4803C87.3191 86.7901 87.5354 87.121 87.7209 87.469C88.0501 88.0524 88.2648 88.6929 88.3538 89.3563C88.4199 89.8042 88.3918 90.261 88.2713 90.6975C88.2399 90.8153 88.1971 90.9298 88.1437 91.0395C88.1317 91.0815 88.1138 91.1217 88.0905 91.1587Z" fill="#F5F5F5"/>
<g opacity="0.4">
<path d="M81.2587 81.8973C83.1363 82.2392 84.9238 82.9609 86.5109 84.0179C88.1065 85.0739 89.3355 86.596 90.0292 88.3756C90.7259 90.1621 90.6222 92.5291 89.8882 94.0082L92.3534 94.2123C93.1831 91.453 92.2816 88.0681 90.2871 85.9078C89.1459 84.6481 87.7534 83.6398 86.1987 82.9474C84.644 82.255 82.9615 81.8937 81.2587 81.8867" fill="black"/>
</g>
<path d="M80.4715 60.321H58.907C57.6468 60.321 56.6252 61.3392 56.6252 62.5953V76.6305C56.6252 77.8865 57.6468 78.9048 58.907 78.9048H80.4715C81.7317 78.9048 82.7532 77.8865 82.7532 76.6305V62.5953C82.7532 61.3392 81.7317 60.321 80.4715 60.321Z" fill="#455A64"/>
<path d="M82.7532 64.4666C82.7532 64.5064 76.8787 64.5355 69.6347 64.5355C62.3907 64.5355 56.5135 64.5064 56.5135 64.4666C56.5135 64.4269 62.3854 64.3977 69.6347 64.3977C76.8841 64.3977 82.7532 64.4295 82.7532 64.4666Z" fill="#263238"/>
<path d="M100.23 80.1347C100.23 80.1718 92.388 80.2036 82.7186 80.2036C73.0493 80.2036 65.2069 80.1718 65.2069 80.1347C65.2069 80.0976 73.0466 80.0657 82.7186 80.0657C92.3906 80.0657 100.23 80.0976 100.23 80.1347Z" fill="#263238"/>
<path d="M100.246 78.9048C100.602 78.4558 100.821 77.9151 100.879 77.3462C100.932 76.4741 100.534 75.382 99.5895 75.382H87.5427C86.6053 75.382 85.7064 75.7532 85.0436 76.4138C84.3808 77.0745 84.0084 77.9705 84.0084 78.9048H100.246Z" fill="#455A64"/>
<path d="M116.131 66.3009L114.035 61.9459C113.755 61.348 113.709 60.6676 113.906 60.0378C114.103 59.4079 114.528 58.8738 115.099 58.5398L121.364 54.8156C121.691 54.6197 122.065 54.5161 122.446 54.5161H123.8L124.332 63.3189L122.247 64.122L123.577 66.2638L116.131 66.3009Z" fill="#E8505B"/>
<path d="M123.819 54.8447C123.819 54.8447 125.962 55.3351 126.231 58.6272C126.499 61.9193 124.34 62.9478 124.34 62.9478L123.819 54.8447Z" fill="#EBEBEB"/>
<path d="M116.862 60.2388C116.862 60.2388 112.53 62.2851 112.001 62.6244C111.634 62.8577 111.32 63.2659 111.607 63.9842C112.096 65.2062 114.123 64.0558 114.123 64.0558L118.157 62.0466C118.157 62.0466 119.707 61.3177 119.133 60.4032C118.492 59.38 116.862 60.2388 116.862 60.2388Z" fill="#263238"/>
<path d="M110.729 59.494C110.729 59.494 114.801 60.1885 115.147 60.2892C115.492 60.3899 116.849 61.0234 116.918 61.4369C116.954 61.9797 116.954 62.5243 116.918 63.0671C116.918 63.0671 116.673 63.2659 116.519 62.8683C116.419 62.4807 116.375 62.0808 116.388 61.6808L115.628 61.3892L116.043 62.1234L116.112 63.8464C116.112 63.8464 115.58 63.7987 115.479 63.3852C115.414 63.0999 115.38 62.8084 115.378 62.5157L114.822 62.0466L115.237 62.6059L115.378 63.8464C115.378 63.8464 114.974 63.9763 114.846 63.7006C114.753 63.3432 114.706 62.9752 114.708 62.6059L113.144 62.0625L112.11 62.6377L110.482 61.7365L110.729 59.494Z" fill="#FFBE9D"/>
<path d="M117.069 53.8428C117.069 55.4862 116.311 56.8168 115.378 56.8168C114.444 56.8168 113.687 55.4915 113.687 53.8428C113.687 52.1941 114.442 50.8688 115.378 50.8688C116.314 50.8688 117.069 52.1941 117.069 53.8428Z" fill="#263238"/>
<path d="M115.655 55.8865L116.585 59.099C116.755 59.0137 116.891 58.8732 116.97 58.7006C117.048 58.5281 117.066 58.3338 117.019 58.1501C116.785 57.0501 116.652 56.2681 116.396 55.3033C116.365 55.2079 115.655 55.8865 115.655 55.8865Z" fill="#263238"/>
<g opacity="0.4">
<path d="M97.2493 94.7557C97.1588 94.4906 97.0631 94.2256 96.9833 93.9419C96.9035 93.6583 96.8025 93.4118 96.7333 93.1467C96.6261 92.7491 96.5479 92.3443 96.4993 91.9354C94.9303 98.297 97.3264 102.785 101.438 103.1C107.448 103.561 114.774 103.895 117.737 103.121C123.138 101.708 125.119 97.2181 125.592 96.4786C126.066 95.7391 130.361 87.9117 127.72 80.3759C125.079 72.8401 120.5 64.8377 120.5 64.8377L116.131 66.3009C116.131 66.3009 116.928 70.0118 118.197 74.4755C119.593 79.3713 121.46 87.029 121.353 91.5086C121.286 94.2014 120.413 96.8126 118.846 99.0073H98.9938C98.9938 99.0073 98.5683 98.5832 97.2572 94.7663" fill="black"/>
</g>
<path d="M55.1254 91.3655L55.2663 89.8546L91.5077 94.0162C91.9921 94.073 92.4597 94.2278 92.8819 94.4712C93.304 94.7147 93.6718 95.0415 93.9627 95.4317C94.2535 95.8219 94.4613 96.2672 94.5733 96.7403C94.6853 97.2134 94.6991 97.7044 94.6138 98.183L94.4516 99.0975L56.955 93.6663C56.4111 93.5921 55.9171 93.3113 55.5761 92.8825C55.2352 92.4537 55.0737 91.9102 55.1254 91.3655Z" fill="#E8505B"/>
<g opacity="0.6">
<path d="M55.1254 91.3655L55.2663 89.8546L91.5077 94.0162C91.9921 94.073 92.4597 94.2278 92.8819 94.4712C93.304 94.7147 93.6718 95.0415 93.9627 95.4317C94.2535 95.8219 94.4613 96.2672 94.5733 96.7403C94.6853 97.2134 94.6991 97.7044 94.6138 98.183L94.4516 99.0975L56.955 93.6663C56.4111 93.5921 55.9171 93.3113 55.5761 92.8825C55.2352 92.4537 55.0737 91.9102 55.1254 91.3655Z" fill="black"/>
</g>
<g opacity="0.3">
<path d="M125.592 101.47C125.592 101.47 133.57 92.7226 135.217 85.8468C136.044 85.8421 136.87 85.9032 137.687 86.0297C137.687 86.0297 132.969 98.8138 125.592 101.47Z" fill="black"/>
</g>
<path d="M135.1 82.7668C135.12 82.8387 135.134 82.9123 135.142 82.9868C135.163 83.1326 135.206 83.3473 135.233 83.6256C135.31 84.4203 135.29 85.2215 135.171 86.0112C134.984 87.1774 134.626 88.3099 134.108 89.3722C133.476 90.6656 132.771 91.9222 131.996 93.1361C130.606 95.3515 129.045 97.4554 127.326 99.4288C126.677 100.195 126.14 100.804 125.768 101.223L125.337 101.703C125.288 101.76 125.236 101.814 125.18 101.865C125.22 101.801 125.265 101.742 125.316 101.687L125.728 101.189L127.252 99.3678C128.943 97.3794 130.489 95.273 131.879 93.0646C132.655 91.8547 133.365 90.6044 134.007 89.3192C134.518 88.2672 134.876 87.148 135.07 85.9953C135.192 85.2169 135.227 84.4275 135.174 83.6415C135.155 83.3632 135.121 83.1485 135.11 83C135.099 82.9228 135.095 82.8447 135.1 82.7668Z" fill="#263238"/>
<path d="M121.308 101.406C120.851 101.058 120.424 100.673 120.029 100.256C119.603 99.8712 119.208 99.4537 118.848 99.0073C119.732 99.7396 120.555 100.542 121.308 101.406Z" fill="#263238"/>
<path d="M97.6295 101.138C97.7579 100.73 97.9568 100.347 98.2172 100.007C98.439 99.6404 98.7224 99.3149 99.0549 99.0444C99.0842 99.0736 98.7198 99.5083 98.3316 100.084C97.9433 100.659 97.6667 101.154 97.6295 101.138Z" fill="#263238"/>
<path d="M82.3011 106.188C82.7374 105.791 83.1049 105.326 83.3888 104.81C83.6866 104.246 83.8674 103.629 83.9207 102.994C84.0013 102.22 83.8656 101.439 83.5286 100.737C83.1916 100.036 82.6665 99.4407 82.0113 99.0179C81.483 98.6602 80.8879 98.4123 80.2614 98.289C79.6808 98.1845 79.0868 98.1764 78.5036 98.2652C78.5411 98.2491 78.5804 98.2375 78.6206 98.2307C78.7361 98.2005 78.8533 98.1775 78.9716 98.1618C79.4067 98.1037 79.8483 98.1145 80.28 98.1936C80.9242 98.3069 81.538 98.5515 82.0831 98.9119C82.7644 99.3433 83.3102 99.9572 83.6577 100.683C84.0053 101.409 84.1407 102.219 84.0483 103.018C83.9873 103.669 83.7917 104.301 83.4739 104.873C83.2649 105.258 82.9956 105.607 82.6761 105.907C82.5925 105.99 82.5037 106.067 82.4102 106.138C82.376 106.159 82.3394 106.176 82.3011 106.188Z" fill="#263238"/>
<path d="M69.0603 103.418C68.9691 103 68.9254 102.573 68.93 102.146C68.8842 101.719 68.8842 101.289 68.93 100.863C69.0628 101.708 69.1038 102.564 69.0523 103.418H69.0603Z" fill="#263238"/>
<path d="M70.0283 103.421C69.8292 102.581 69.7196 101.723 69.7012 100.86C69.8223 101.275 69.8999 101.702 69.9325 102.132C70.0096 102.557 70.0417 102.989 70.0283 103.421Z" fill="#263238"/>
<path d="M84.9764 78.9048C84.9764 78.9419 80.5699 78.9737 75.1369 78.9737C69.7039 78.9737 65.2974 78.9419 65.2974 78.9048C65.2974 78.8676 69.7039 78.8358 75.1369 78.8358C80.5699 78.8358 84.9764 78.865 84.9764 78.9048Z" fill="#263238"/>
<path d="M70.7064 78.8915C70.6665 78.8915 70.6373 73.8553 70.6373 67.658C70.6373 61.4608 70.6559 56.4351 70.7064 56.4351C70.7569 56.4351 70.7756 61.4714 70.7756 67.6713C70.7756 73.8712 70.7436 78.8915 70.7064 78.8915Z" fill="#263238"/>
<path d="M67.9966 78.873C67.9593 78.873 68.1481 73.8367 68.4194 67.6448C68.6907 61.4528 68.9513 56.4192 68.9779 56.4219C69.0045 56.4245 68.8289 61.4581 68.5577 67.6501C68.2864 73.842 68.0471 78.8756 67.9966 78.873Z" fill="#263238"/>
<path d="M61.904 109.528C61.8612 109.492 61.822 109.452 61.787 109.409C61.7179 109.329 61.6035 109.215 61.4785 109.053C61.1109 108.603 60.7826 108.123 60.4972 107.617C59.5346 105.942 59.032 104.043 59.0399 102.113C59.0478 100.183 59.5661 98.2888 60.5424 96.6217C60.8308 96.1177 61.1627 95.6396 61.5344 95.193C61.662 95.0314 61.7764 94.928 61.8482 94.8379C61.92 94.7477 61.9625 94.7186 61.9652 94.7239C61.9388 94.7718 61.9067 94.8163 61.8694 94.8564C61.8056 94.9439 61.6966 95.0605 61.5769 95.2275C60.2127 96.9596 59.3909 99.0539 59.214 101.249C59.0371 103.444 59.513 105.642 60.5823 107.569C60.8576 108.075 61.1715 108.56 61.5211 109.019C61.6381 109.186 61.7444 109.305 61.8083 109.393C61.8721 109.48 61.9093 109.522 61.904 109.528Z" fill="#455A64"/>
<path d="M100.002 89.3324L99.9192 89.4862L98.313 92.4841L96.0685 94.6364L100.555 100.59L104.291 99.9722C104.291 99.9722 103.874 99.1213 101.996 98.957L101.286 95.3998L103.922 91.3284" fill="#455A64"/>
<path d="M96.0739 94.6444L100.56 100.598L104.299 99.9801L103.783 99.4898L100.717 99.8237L96.5525 94.1858L96.0739 94.6444Z" fill="#E0E0E0"/>
<path d="M101.704 97.3295C101.682 97.3719 101.438 97.2844 101.172 97.3427C100.906 97.401 100.69 97.5521 100.656 97.5203C100.621 97.4885 100.789 97.2394 101.14 97.1784C101.491 97.1174 101.733 97.295 101.704 97.3295Z" fill="#263238"/>
<path d="M101.504 96.4601C101.472 96.4919 101.268 96.301 100.972 96.2904C100.677 96.2798 100.44 96.4574 100.417 96.4229C100.393 96.3885 100.435 96.3408 100.531 96.2639C100.66 96.1697 100.817 96.1212 100.978 96.1261C101.138 96.1303 101.292 96.1892 101.414 96.2931C101.486 96.3673 101.504 96.4388 101.504 96.4601Z" fill="#263238"/>
<path d="M101.331 95.307C101.294 95.3362 101.129 95.1427 100.855 95.095C100.581 95.0473 100.361 95.1718 100.323 95.1321C100.286 95.0923 100.347 95.0552 100.446 94.9995C100.576 94.931 100.725 94.9079 100.869 94.9338C101.014 94.9598 101.146 95.0333 101.244 95.1427C101.334 95.2275 101.35 95.2964 101.331 95.307Z" fill="#263238"/>
<path d="M102.182 94.26C102.142 94.2812 102.001 94.0877 101.744 93.9764C101.486 93.8651 101.252 93.881 101.241 93.8359C101.23 93.7908 101.507 93.6822 101.813 93.8359C102.118 93.9896 102.228 94.2468 102.182 94.26Z" fill="#263238"/>
<path d="M102.544 93.4145C102.525 93.4277 102.379 93.3005 102.153 93.0778L101.77 92.6829C101.683 92.6056 101.608 92.5163 101.547 92.4178C101.529 92.3823 101.518 92.3437 101.516 92.3041C101.513 92.2645 101.518 92.2248 101.531 92.1872C101.546 92.1443 101.573 92.1068 101.61 92.0795C101.646 92.0521 101.69 92.0361 101.736 92.0335C101.872 92.0353 102.004 92.0778 102.116 92.1554C102.213 92.2175 102.303 92.2914 102.382 92.3754C102.514 92.5204 102.611 92.6936 102.666 92.8817C102.736 93.0515 102.736 93.242 102.666 93.4118C102.639 93.248 102.602 93.0859 102.555 92.9267C102.49 92.7636 102.393 92.6149 102.27 92.4894C102.198 92.4177 102.116 92.3553 102.028 92.3038C101.944 92.2487 101.847 92.2151 101.746 92.2058C101.732 92.206 101.719 92.2104 101.707 92.2184C101.696 92.2265 101.687 92.2378 101.682 92.2508C101.668 92.2856 101.668 92.3247 101.682 92.3595C101.734 92.4448 101.797 92.5232 101.869 92.5928L102.233 93.0142C102.357 93.1302 102.462 93.2653 102.544 93.4145Z" fill="#263238"/>
<path d="M102.696 93.5019C102.677 93.5019 102.658 93.3058 102.823 93.0487C102.935 92.879 103.1 92.7499 103.291 92.6807C103.483 92.6114 103.692 92.6057 103.887 92.6643C103.908 92.6783 103.927 92.6966 103.94 92.7181C103.954 92.7396 103.963 92.7637 103.967 92.7889C103.97 92.8321 103.961 92.8754 103.94 92.9135C103.91 92.9665 103.872 93.014 103.826 93.054C103.752 93.1253 103.672 93.19 103.586 93.2475C103.443 93.3439 103.285 93.4172 103.118 93.4648C102.97 93.5249 102.806 93.5369 102.65 93.4993C102.65 93.4728 102.823 93.4569 103.081 93.3535C103.23 93.2948 103.37 93.2173 103.499 93.1229C103.575 93.0671 103.646 93.005 103.711 92.9373C103.744 92.909 103.772 92.876 103.794 92.8393C103.807 92.8022 103.794 92.8128 103.794 92.8048C103.758 92.7893 103.719 92.7812 103.68 92.781C103.633 92.777 103.586 92.777 103.539 92.781C103.447 92.789 103.358 92.8104 103.273 92.8446C103.129 92.9004 103.002 92.9916 102.903 93.1096C102.825 93.2356 102.756 93.3667 102.696 93.5019Z" fill="#263238"/>
<path d="M99.0363 94.0374C99.0509 94.1248 99.0392 94.2146 99.0026 94.2954C98.9659 94.3762 98.9061 94.4444 98.8306 94.4912C98.7551 94.5381 98.6674 94.5616 98.5785 94.5587C98.4896 94.5559 98.4035 94.5268 98.3312 94.4751C98.2589 94.4235 98.2036 94.3516 98.1723 94.2687C98.141 94.1857 98.1351 94.0953 98.1554 94.009C98.1756 93.9227 98.2211 93.8443 98.2861 93.7837C98.3511 93.7232 98.4326 93.6832 98.5204 93.6689C98.6377 93.6505 98.7576 93.6788 98.8541 93.7477C98.9506 93.8167 99.0161 93.9207 99.0363 94.0374Z" fill="#E0E0E0"/>
<path d="M113.617 92.1952L114.817 99.9563L124.515 98.5196C124.319 97.6051 119.027 96.4945 119.027 96.4945L118.463 91.4901L113.617 92.1952Z" fill="#455A64"/>
<path d="M115.966 96.521C115.876 96.5628 115.806 96.636 115.767 96.7265C115.729 96.8171 115.726 96.9186 115.758 97.0114C115.798 97.1013 115.87 97.1729 115.96 97.2118C116.05 97.2506 116.152 97.2539 116.245 97.2208C116.341 97.1756 116.417 97.096 116.457 96.9977C116.497 96.8995 116.498 96.7898 116.46 96.6907C116.41 96.6 116.327 96.5324 116.227 96.5022C116.128 96.472 116.021 96.4816 115.928 96.529" fill="#E0E0E0"/>
<path d="M114.817 99.9563L114.726 99.1611L124.058 98.077C124.058 98.077 124.518 98.2015 124.515 98.5117L114.817 99.9563Z" fill="#E0E0E0"/>
<path d="M119.175 96.4229C119.175 96.4707 118.949 96.5263 118.737 96.7119C118.524 96.8974 118.434 97.1148 118.386 97.1042C118.338 97.0936 118.37 96.8073 118.628 96.5873C118.886 96.3673 119.181 96.3779 119.175 96.4229Z" fill="#263238"/>
<path d="M120.255 96.6907C120.274 96.7357 120.08 96.8444 119.949 97.0697C119.819 97.295 119.803 97.5097 119.755 97.515C119.707 97.5203 119.638 97.25 119.806 96.9849C119.973 96.7198 120.247 96.6456 120.255 96.6907Z" fill="#263238"/>
<path d="M121.016 97.8172C120.973 97.8358 120.872 97.6078 120.955 97.3321C121.037 97.0565 121.244 96.9186 121.271 96.9557C121.298 96.9928 121.181 97.1519 121.114 97.3798C121.048 97.6078 121.061 97.8066 121.016 97.8172Z" fill="#263238"/>
<path d="M118.92 95.2964C118.92 95.3415 118.681 95.3097 118.415 95.3653C118.149 95.421 117.955 95.5403 117.923 95.5032C117.891 95.4661 118.069 95.2673 118.38 95.2037C118.691 95.14 118.939 95.254 118.92 95.2964Z" fill="#263238"/>
<path d="M118.524 94.1832C118.371 94.2496 118.203 94.2734 118.037 94.2521C117.857 94.2471 117.679 94.2204 117.505 94.1725C117.399 94.1473 117.295 94.1145 117.194 94.0745C117.135 94.0533 117.08 94.0219 117.032 93.9817C116.995 93.9535 116.97 93.9136 116.959 93.8688C116.948 93.8239 116.954 93.7767 116.974 93.7352C116.992 93.6986 117.019 93.6668 117.053 93.6424C117.086 93.618 117.124 93.6017 117.165 93.5947C117.226 93.5854 117.288 93.5854 117.348 93.5947C117.457 93.6026 117.564 93.6222 117.668 93.653C117.842 93.7024 118.008 93.7784 118.16 93.8783C118.426 94.0533 118.519 94.2176 118.503 94.2309C118.487 94.2441 118.351 94.1169 118.098 93.9791C117.95 93.8992 117.792 93.8395 117.628 93.8015C117.532 93.7764 117.434 93.7613 117.335 93.7564C117.229 93.7564 117.141 93.7564 117.122 93.8068C117.104 93.8571 117.122 93.8306 117.141 93.8598C117.178 93.8873 117.218 93.9096 117.261 93.926C117.352 93.9671 117.445 94.0034 117.54 94.0347C117.702 94.0863 117.868 94.1227 118.037 94.1434C118.2 94.1451 118.363 94.1584 118.524 94.1832Z" fill="#263238"/>
<path d="M118.468 94.26C118.452 94.26 118.332 94.1142 118.269 93.8121C118.24 93.6365 118.24 93.4575 118.269 93.2819C118.286 93.1755 118.313 93.0708 118.348 92.9691C118.364 92.9024 118.397 92.8408 118.444 92.7903C118.49 92.7397 118.549 92.7018 118.614 92.6802C118.658 92.6747 118.701 92.6815 118.741 92.6998C118.78 92.7181 118.814 92.7472 118.838 92.7836C118.871 92.8373 118.897 92.8952 118.915 92.9559C118.947 93.0615 118.964 93.1714 118.963 93.2819C118.963 93.4668 118.917 93.6489 118.83 93.8121C118.678 94.0771 118.489 94.1752 118.484 94.1593C118.479 94.1434 118.614 94.0241 118.723 93.7617C118.787 93.6109 118.816 93.4479 118.808 93.2846C118.806 93.1898 118.789 93.0959 118.758 93.0063C118.729 92.9055 118.678 92.8287 118.641 92.8446C118.604 92.8605 118.521 92.94 118.495 93.0275C118.459 93.1184 118.431 93.2125 118.412 93.3084C118.382 93.4719 118.375 93.6387 118.391 93.8041C118.415 94.0745 118.492 94.2494 118.468 94.26Z" fill="#263238"/>
<path d="M105.988 73.9639L97.6721 92.0255L103.164 95.3097L114.663 73.5769" fill="#263238"/>
<path d="M119.702 95.7232L113.737 96.6774L110.166 75.435L92.521 76.71C92.0543 76.7423 91.5854 76.6984 91.1328 76.5801C86.1785 75.2256 86.8486 68.9277 87.3273 67.9178L111.743 67.2207C113.022 67.1836 114.27 67.6183 115.247 68.4415C116.225 69.2647 116.863 70.4184 117.04 71.6817L119.702 95.7232Z" fill="#263238"/>
<path d="M87.08 68.9144L87.1677 59.934C87.1677 59.934 86.0056 54.1026 85.6599 51.7991C85.128 48.2367 84.3941 46.5429 90.2499 44.0115L91.5317 43.5185L93.5129 43.545C95.8744 43.7226 98.3635 45.8511 98.4221 47.2559L100.706 67.499L87.08 68.9144Z" fill="#E8505B"/>
<path d="M87.447 46.0976C87.447 46.0976 85.7929 49.6442 86.1173 52.8753L92.279 58.7704C93.6592 60.3024 95.3877 60.9545 97.5977 61.087L110.347 62.476L110.7 59.1521L98.5789 55.7274C98.0949 55.6373 97.8529 55.1363 97.4833 54.8129L87.447 46.0976Z" fill="#E8505B"/>
<path d="M86.4497 47.1207C86.5213 47.0525 86.604 46.9969 86.6944 46.9564C86.9569 46.8411 87.2344 46.7635 87.5188 46.7258C87.9749 46.6512 88.4402 46.6512 88.8963 46.7258C89.0372 46.7513 89.1735 46.7977 89.3005 46.8636C89.4304 46.9449 89.5556 47.0334 89.6755 47.1287C89.9201 47.3195 90.1675 47.5395 90.4201 47.7781C90.9307 48.2526 91.4147 48.8543 91.9811 49.4639C92.5476 50.0736 93.1672 50.7283 93.8427 51.4148C94.5181 52.1013 95.2441 52.8196 96.0207 53.5618C96.4116 53.9329 96.8185 54.3093 97.2413 54.6778C97.4567 54.8527 97.6694 55.0594 97.8742 55.2529C98.0672 55.4519 98.3108 55.5948 98.5789 55.6665L110.724 59.0858L110.78 59.1017V59.16C110.756 59.3959 110.727 59.6477 110.7 59.9049C110.607 60.7875 110.514 61.6622 110.434 62.4839V62.5529H110.365L104.961 61.9538L102.408 61.6755L99.9644 61.429C99.1666 61.3415 98.3981 61.2514 97.6508 61.1427C96.9208 61.0534 96.2023 60.8872 95.5074 60.647C94.8668 60.4039 94.2607 60.0787 93.7044 59.6795C93.1725 59.3058 92.6725 58.9162 92.2125 58.5318C90.3908 56.9838 89.0532 55.5975 88.1251 54.6539C87.665 54.1794 87.3113 53.8057 87.0746 53.5512L86.8087 53.2597L86.721 53.1563C86.721 53.1563 86.7555 53.1854 86.8194 53.2491C86.8832 53.3127 86.9763 53.4107 87.0853 53.5327L88.149 54.6194C89.0878 55.5498 90.436 56.9255 92.2603 58.4602C92.7204 58.8393 93.2124 59.2263 93.7469 59.5947C94.2996 59.9857 94.9002 60.3045 95.534 60.5437C96.2242 60.7783 96.9373 60.94 97.6615 61.0261C98.4087 61.1321 99.1799 61.2222 99.9724 61.3071L102.416 61.5456L104.969 61.8239L110.368 62.4097L110.291 62.4707C110.378 61.649 110.471 60.7743 110.557 59.8889C110.586 59.6239 110.612 59.38 110.636 59.1441L110.687 59.2183L98.5603 55.7857C98.2643 55.7124 97.9951 55.5571 97.7838 55.3378C97.5684 55.1337 97.3743 54.9428 97.1535 54.7599C96.7254 54.3888 96.3238 54.0098 95.9329 53.6387C95.1564 52.8939 94.433 52.1702 93.7602 51.4811C93.0874 50.7919 92.4704 50.1345 91.8987 49.5169C91.3269 48.8993 90.8589 48.3003 90.3536 47.8258C90.1212 47.596 89.8761 47.3792 89.6196 47.1764C89.5038 47.0794 89.3812 46.9908 89.2526 46.9113C89.1322 46.846 89.002 46.8004 88.867 46.7761C88.4184 46.6942 87.9592 46.6871 87.5081 46.7549C87.2258 46.7865 86.9493 46.857 86.6864 46.9643C86.6036 47.0104 86.5245 47.0627 86.4497 47.1207Z" fill="#263238"/>
<path d="M89.6329 35.7282L90.2499 44.4754C90.299 45.1631 90.6078 45.8067 91.1141 46.2764C91.6205 46.7462 92.2866 47.0072 92.9783 47.0068C93.3524 47.0068 93.7225 46.9304 94.0657 46.7821C94.4089 46.6339 94.718 46.4171 94.9737 46.145C95.2295 45.8729 95.4265 45.5514 95.5526 45.2004C95.6787 44.8494 95.7312 44.4763 95.7068 44.1043C95.651 43.272 95.6031 42.5908 95.6031 42.5908C95.6031 42.5908 97.7306 42.2621 97.7518 40.1442C97.7678 38.9222 97.555 36.1497 97.3742 34.0238C97.3148 33.3294 96.9954 32.6827 96.4795 32.2122C95.9637 31.7418 95.2891 31.482 94.5899 31.4845H93.3054C92.7824 31.5162 92.2709 31.6519 91.8013 31.8837C91.3317 32.1155 90.9134 32.4387 90.5711 32.8343C90.2288 33.2298 89.9695 33.6896 89.8083 34.1866C89.6472 34.6837 89.5875 35.2078 89.6329 35.7282Z" fill="#FFBE9D"/>
<path d="M95.6058 42.5563C94.6257 42.5747 93.6621 42.3025 92.8374 41.7744C92.8374 41.7744 93.4916 43.2958 95.6111 43.0997L95.6058 42.5563Z" fill="#EB996E"/>
<path d="M90.3483 37.3186C90.3111 37.3027 88.8883 36.8865 88.9362 38.3338C88.984 39.7811 90.4281 39.4365 90.4307 39.3941C90.4334 39.3517 90.3483 37.3186 90.3483 37.3186Z" fill="#FFBE9D"/>
<path d="M89.968 38.8613C89.968 38.8613 89.944 38.8798 89.9015 38.901C89.8407 38.9241 89.7735 38.9241 89.7127 38.901C89.6175 38.8448 89.5391 38.7643 89.4854 38.6679C89.4316 38.5715 89.4045 38.4626 89.4069 38.3524C89.3991 38.2285 89.4191 38.1045 89.4654 37.9892C89.4774 37.9434 89.5004 37.9012 89.5323 37.8661C89.5643 37.831 89.6043 37.8041 89.6489 37.7878C89.6779 37.7796 89.7089 37.7817 89.7366 37.7938C89.7642 37.8059 89.7868 37.8272 89.8004 37.854C89.8217 37.8938 89.8137 37.923 89.8217 37.9256C89.8297 37.9283 89.851 37.8991 89.8377 37.8408C89.8288 37.8044 89.8071 37.7724 89.7765 37.7507C89.7562 37.7364 89.7334 37.7262 89.7092 37.7208C89.685 37.7153 89.66 37.7147 89.6356 37.7189C89.5745 37.7307 89.5176 37.7586 89.4709 37.7996C89.4242 37.8406 89.3892 37.8932 89.3696 37.9521C89.3114 38.079 89.2858 38.2184 89.2952 38.3577C89.2915 38.4866 89.3265 38.6137 89.3957 38.7228C89.4648 38.8318 89.565 38.9179 89.6834 38.97C89.7225 38.9803 89.7634 38.9816 89.803 38.9737C89.8426 38.9659 89.8799 38.9492 89.9121 38.9249C89.968 38.8957 89.9733 38.8639 89.968 38.8613Z" fill="#EB996E"/>
<path d="M89.5372 37.2682C89.6753 37.2593 89.8133 37.2879 89.9364 37.3509C90.0596 37.4139 90.1633 37.509 90.2366 37.6261C90.3296 37.8328 90.3509 38.0661 90.444 38.2728C90.4842 38.3791 90.5576 38.4697 90.6533 38.5312C90.7491 38.5928 90.8622 38.6221 90.9759 38.6148C91.0513 38.5912 91.1191 38.5481 91.1723 38.4899C91.2256 38.4317 91.2624 38.3605 91.279 38.2834C91.3096 38.1294 91.3096 37.9709 91.279 37.8169C91.1939 37.141 91.053 36.473 91.0264 35.7918C90.9696 35.1084 91.1186 34.4236 91.4545 33.825C91.6248 33.5286 91.8725 33.2835 92.1712 33.116C92.4699 32.9485 92.8086 32.8647 93.1512 32.8735C93.6033 32.9106 94.0155 33.1385 94.4649 33.2074C94.7317 33.2422 95.003 33.2162 95.2582 33.1312C95.5134 33.0463 95.7459 32.9047 95.9382 32.7171C96.023 32.6459 96.1118 32.5795 96.2041 32.5183C96.1983 32.3583 96.1456 32.2034 96.0525 32.073C95.1617 31.2512 93.5607 31.0127 92.3853 31.3175C91.7883 31.4642 91.2305 31.7386 90.7506 32.1217C90.2707 32.5048 89.8802 32.9875 89.6063 33.5361C89.101 34.6335 89.25 36.1576 89.5292 37.2682" fill="#263238"/>
<path d="M97.3981 33.6952C97.3981 33.6952 91.8295 31.9086 89.4201 36.7116C89.2342 36.1076 89.113 35.4856 89.0585 34.8561C89.0585 34.4267 89.3244 31.8635 91.9625 31.0577C91.9625 31.0683 95.9488 29.5522 97.3981 33.6952Z" fill="#E8505B"/>
<path d="M92.6114 33.8144C92.7103 33.9738 92.8451 34.1081 93.005 34.2067C93.1649 34.3052 93.3457 34.3654 93.5329 34.3823C93.7202 34.3993 93.9088 34.3726 94.084 34.3044C94.2591 34.2362 94.4159 34.1284 94.5421 33.9894C94.597 34.1274 94.694 34.2448 94.8194 34.325C94.9448 34.4053 95.0922 34.4444 95.241 34.4368C95.3898 34.4291 95.5325 34.3753 95.6489 34.2826C95.7654 34.19 95.8499 34.0634 95.8904 33.9205C96.039 34.0866 96.22 34.221 96.4222 34.3154C96.5264 34.3596 96.6417 34.3708 96.7525 34.3476C96.8633 34.3243 96.9643 34.2678 97.0418 34.1855C97.1053 34.0895 97.1357 33.9756 97.1285 33.8608C97.1213 33.7461 97.0769 33.6368 97.002 33.5494C96.8512 33.3753 96.6566 33.2445 96.4382 33.1703C95.7783 32.8813 95.0535 32.7715 94.3373 32.8522C93.6175 32.9384 92.9581 33.296 92.4944 33.8515" fill="#263238"/>
<g opacity="0.4">
<path d="M97.3981 33.6952C96.9338 33.2109 96.2986 32.9257 95.627 32.9C93.9836 32.8284 90.9094 33.7482 89.4201 36.7169C89.2342 36.1129 89.113 35.4909 89.0585 34.8614C89.0585 34.432 89.3244 31.8688 91.9625 31.0631C91.9625 31.0684 95.9488 29.5522 97.3981 33.6952Z" fill="black"/>
</g>
<path d="M89.6516 36.1497C90.496 34.8962 91.6028 33.84 92.8959 33.0537C94.1777 32.2585 96.2946 31.4633 97.7519 31.0816C98.1842 30.9392 98.6423 30.8913 99.0949 30.9411C99.3203 30.9696 99.5332 31.0607 99.7091 31.2042C99.885 31.3476 100.017 31.5376 100.089 31.7522C100.228 32.3009 99.2517 33.1465 98.7917 33.4778C98.3427 33.777 97.8775 34.0514 97.3982 34.2995C97.3982 34.2995 97.4115 33.2817 95.7787 33.0723C93.5581 32.7886 89.6516 36.1497 89.6516 36.1497Z" fill="#E8505B"/>
<g opacity="0.3">
<path d="M87.6916 54.1874C88.266 55.5684 88.8457 57.2727 89.6781 58.5159C90.5105 59.7591 91.6221 60.8644 93.0049 61.4316C94.7441 62.1579 96.7998 62.2745 98.5284 61.5324C98.6693 61.4714 98.9459 61.3945 98.9193 61.2434C98.9193 61.2434 98.3475 61.1772 98.1694 61.148C94.6777 60.5702 94.2974 60.1461 92.6247 58.8207C91.5822 58.0017 89.2712 55.518 87.6916 54.1874Z" fill="black"/>
</g>
<path d="M98.797 64.244C98.7616 64.3573 98.7125 64.4659 98.6507 64.5674C98.4956 64.8541 98.3063 65.1211 98.0869 65.3626C97.347 66.1358 96.4162 66.7016 95.3877 67.0033C94.3628 67.2942 93.3045 67.4519 92.239 67.4725C91.8322 67.4884 91.5024 67.491 91.2764 67.491C91.1582 67.4959 91.0399 67.4906 90.9227 67.4751C91.0378 67.4487 91.1556 67.4353 91.2737 67.4354L92.2337 67.3744C93.2877 67.3259 94.3325 67.1569 95.3478 66.8708C96.3586 66.5711 97.2782 66.0244 98.0231 65.2804C98.3135 64.9602 98.5726 64.6132 98.797 64.244Z" fill="#263238"/>
<path d="M113.841 97.3109C113.829 97.2848 113.822 97.2571 113.82 97.2288C113.82 97.1678 113.793 97.0856 113.772 96.9849C113.732 96.7622 113.673 96.4548 113.601 96.0466C113.455 95.2196 113.25 94.04 112.995 92.5848C112.498 89.6532 111.812 85.6162 111.054 81.1578C110.716 79.138 110.394 77.2083 110.099 75.4457L110.168 75.5013L102.533 76.05L100.342 76.1984L99.757 76.2329H99.6081H99.5549H99.6054L99.757 76.2143L100.339 76.1613L102.528 75.9758L110.158 75.3688H110.216V75.4271C110.514 77.1898 110.841 79.1195 111.181 81.1366C111.923 85.5977 112.594 89.6373 113.083 92.5715C113.317 94.0294 113.508 95.2222 113.644 96.0386L113.788 96.9849C113.804 97.0856 113.814 97.1678 113.822 97.2288C113.832 97.2553 113.838 97.2829 113.841 97.3109Z" fill="#455A64"/>
<path d="M111.955 73.5425C111.979 73.5743 111.514 73.9719 110.987 74.5073C110.461 75.0427 110.067 75.5119 110.035 75.4854C110.526 74.7061 111.181 74.043 111.955 73.5425Z" fill="#455A64"/>
<path d="M95.6536 44.2872C95.6536 44.2872 95.6696 44.3163 95.6855 44.3747C95.712 44.4609 95.7289 44.5498 95.7361 44.6397C95.7671 44.9668 95.7235 45.2967 95.6084 45.6046C95.4366 46.0647 95.131 46.4634 94.7308 46.7496C94.2313 47.0906 93.6299 47.2514 93.0262 47.2056C92.425 47.1648 91.8489 46.9492 91.3695 46.5853C90.983 46.2893 90.6624 45.9165 90.428 45.4906C90.2692 45.2069 90.1476 44.904 90.0664 44.5894C90.0398 44.478 90.0212 44.3906 90.0132 44.3243C90.0052 44.258 90.0132 44.2315 90.0132 44.2315C90.1365 44.6496 90.305 45.0531 90.5158 45.4349C90.7564 45.839 91.0734 46.1928 91.4492 46.4766C91.9139 46.8196 92.4678 47.022 93.0448 47.0598C93.6184 47.1036 94.1903 46.9553 94.6697 46.6383C95.0525 46.3686 95.3496 45.9951 95.526 45.5621C95.6465 45.269 95.7036 44.9537 95.6935 44.6371C95.6749 44.4144 95.6536 44.2925 95.6536 44.2872Z" fill="#263238"/>
<path d="M99.406 55.8626C99.3757 55.777 99.356 55.6879 99.3475 55.5975C99.3182 55.3881 99.2836 55.1337 99.2411 54.8394C99.1533 54.1635 99.039 53.2941 98.914 52.3319C98.789 51.3697 98.6986 50.4765 98.6481 49.8191C98.6188 49.4984 98.6002 49.236 98.5896 49.0557C98.5768 48.9625 98.5768 48.868 98.5896 48.7747C98.6173 48.8609 98.6361 48.9498 98.6454 49.0398C98.6747 49.2492 98.7092 49.501 98.7491 49.7979C98.8342 50.4738 98.9433 51.3432 99.0629 52.3054C99.1826 53.2676 99.2863 54.1609 99.3501 54.8156C99.3794 55.139 99.4007 55.3987 99.414 55.5816C99.4223 55.6753 99.4196 55.7696 99.406 55.8626Z" fill="#263238"/>
</g>
<defs>
<linearGradient id="paint0_linear_1418_246" x1="70.2012" y1="-0.373746" x2="-58.4697" y2="233.836" gradientUnits="userSpaceOnUse">
<stop stop-color="#0F005B"/>
<stop offset="1" stop-color="#1E168C"/>
</linearGradient>
<linearGradient id="paint1_linear_1418_246" x1="31.4067" y1="-67.3744" x2="35.7954" y2="-22.443" gradientUnits="userSpaceOnUse">
<stop stop-color="#5153FA"/>
<stop offset="1" stop-color="#4344DC"/>
</linearGradient>
<linearGradient id="paint2_linear_1418_246" x1="70.2012" y1="-0.373634" x2="-58.4697" y2="233.836" gradientUnits="userSpaceOnUse">
<stop stop-color="#BF0303"/>
<stop offset="1" stop-color="#B50303"/>
</linearGradient>
<clipPath id="clip0_1418_246">
<rect width="148" height="117" fill="white"/>
</clipPath>
</defs>
</svg>
