<svg width="227" height="329" viewBox="0 0 227 329" fill="none" xmlns="http://www.w3.org/2000/svg">
<g clip-path="url(#clip0_618_187)">
<path d="M199.918 329C214.881 329 227.012 323.216 227.012 316.08C227.012 308.945 214.881 303.161 199.918 303.161C184.954 303.161 172.823 308.945 172.823 316.08C172.823 323.216 184.954 329 199.918 329Z" fill="#EBEBEB"/>
<path d="M15.2214 320.824L126.051 256.782C126.295 256.696 126.507 256.536 126.656 256.325C126.806 256.113 126.886 255.861 126.886 255.602C126.886 255.343 126.806 255.09 126.656 254.879C126.507 254.667 126.295 254.508 126.051 254.422L115.805 248.523C115.17 248.203 114.47 248.037 113.759 248.037C113.049 248.037 112.348 248.203 111.714 248.523L0.848943 312.506C0.604769 312.592 0.393265 312.751 0.243647 312.963C0.094028 313.174 0.0136719 313.426 0.0136719 313.685C0.0136719 313.944 0.094028 314.197 0.243647 314.408C0.393265 314.62 0.604769 314.779 0.848943 314.865L11.1301 320.765C11.7602 321.093 12.4583 321.27 13.1688 321.28C13.8792 321.29 14.5822 321.134 15.2214 320.824Z" fill="#E0E0E0"/>
<path d="M123.009 9.5213L23.0737 67.263C21.5881 68.2331 20.3518 69.5398 19.4649 71.0772C18.5779 72.6145 18.0653 74.3393 17.9685 76.1118V313.343C17.9685 316.6 20.2558 317.921 23.0737 316.293L123.009 258.551C124.496 257.583 125.734 256.277 126.621 254.739C127.509 253.202 128.02 251.476 128.114 249.702V12.4709C128.114 9.21454 125.839 7.89312 123.009 9.5213Z" fill="#455A64"/>
<path d="M23.0738 67.2629L123.009 9.52129C125.532 8.05829 127.619 8.96677 128.043 11.5034C127.808 9.90857 127.237 8.38173 126.37 7.02333C125.502 5.66493 124.357 4.50575 123.009 3.62207L118.859 1.26237C117.277 0.459136 115.528 0.0405273 113.754 0.0405273C111.98 0.0405273 110.23 0.459136 108.648 1.26237L8.70137 58.9568C7.19605 59.9014 5.95472 61.2126 5.09351 62.7677L19.466 71.0267C20.3269 69.4838 21.5691 68.1878 23.0738 67.2629Z" fill="#37474F"/>
<path d="M3.57251 305.037C3.6693 306.81 4.18193 308.535 5.06888 310.072C5.95584 311.609 7.19217 312.916 8.67774 313.886L12.8397 316.246C14.2802 316.967 15.8567 317.375 17.4659 317.445C19.0751 317.514 20.6808 317.242 22.1777 316.647C19.8196 317.567 17.945 316.21 17.945 313.296V76.1118C18.004 74.3318 18.5197 72.5969 19.4424 71.0739L5.06989 62.8149C4.16012 64.3264 3.64517 66.0427 3.57251 67.8057V305.037Z" fill="#263238"/>
<path d="M25.8209 98.8708L120.297 44.303C121.995 43.3355 123.363 44.126 123.363 46.0727V221.657C123.306 222.722 122.999 223.757 122.466 224.68C121.933 225.603 121.19 226.386 120.297 226.967L25.8563 281.535C24.1584 282.514 22.7908 281.723 22.7908 279.765V104.18C22.8444 103.119 23.1466 102.086 23.673 101.164C24.1994 100.242 24.9351 99.456 25.8209 98.8708Z" fill="white"/>
<path d="M73.0414 47.3827C72.5199 47.7253 72.0861 48.1856 71.7748 48.7266C71.4635 49.2676 71.2835 49.8742 71.2493 50.4975C71.2493 51.6773 72.051 52.1139 73.0414 51.5357C73.5649 51.1953 74.0002 50.7354 74.3117 50.194C74.6233 49.6526 74.8021 49.0449 74.8336 48.421C74.8336 47.2765 74.0318 46.8164 73.0414 47.3827Z" fill="#37474F"/>
<path d="M73.0414 262.646C70.9802 263.995 69.2657 265.811 68.0367 267.947C66.8076 270.083 66.0986 272.478 65.9672 274.94C65.9672 279.458 69.1388 281.299 73.0414 279.034C75.1019 277.684 76.8159 275.867 78.0448 273.732C79.2738 271.596 79.9832 269.201 80.1156 266.74C80.1392 262.221 76.9558 260.38 73.0414 262.646Z" fill="#37474F"/>
<path d="M56.0751 65.6465C55.0389 66.3349 54.1789 67.2573 53.5644 68.3394C52.95 69.4215 52.5984 70.633 52.538 71.8761C52.538 74.165 54.1415 75.0971 56.0751 73.9527C57.1222 73.2709 57.9937 72.3513 58.6186 71.2688C59.2435 70.1863 59.6041 68.9714 59.6711 67.7231C59.6711 65.4342 58.0676 64.5021 56.0751 65.6465Z" fill="#37474F"/>
<path d="M64.8824 64.8679C64.8824 66.4017 66.0615 66.9798 67.441 66.1657L91.0217 52.5149C91.7522 52.0584 92.3646 51.4358 92.8092 50.6977C93.2537 49.9597 93.5179 49.127 93.5802 48.2674C93.5802 46.7454 92.4012 46.1673 91.0217 46.9814L67.441 60.6322C66.7121 61.0876 66.1005 61.7083 65.656 62.4442C65.2115 63.1801 64.9465 64.0104 64.8824 64.8679Z" fill="#37474F"/>
<path d="M11.5428 106.469C12.3795 107.014 13.076 107.749 13.5758 108.614C14.0756 109.479 14.3647 110.45 14.4196 111.448C14.4196 113.289 13.1345 114.032 11.5428 113.112C10.7089 112.564 10.0152 111.828 9.51758 110.964C9.01993 110.099 8.73225 109.129 8.67773 108.133C8.67773 106.304 9.96288 105.561 11.5428 106.469Z" fill="#37474F"/>
<path d="M11.5428 128.627C12.3795 129.172 13.076 129.907 13.5758 130.772C14.0756 131.637 14.3647 132.608 14.4196 133.606C14.4196 135.434 13.1345 136.178 11.5428 135.269C10.7089 134.722 10.0152 133.986 9.51758 133.121C9.01993 132.256 8.73225 131.287 8.67773 130.29C8.67773 128.45 9.96288 127.706 11.5428 128.627Z" fill="#37474F"/>
<path d="M10.6468 106.918C11.4835 107.463 12.18 108.198 12.6798 109.063C13.1796 109.928 13.4687 110.899 13.5236 111.897C13.5236 113.725 12.2385 114.469 10.6468 113.56C9.81005 113.015 9.11354 112.28 8.61371 111.415C8.11389 110.55 7.8248 109.579 7.7699 108.581C7.78169 106.741 9.06684 106.033 10.6468 106.918Z" fill="#455A64"/>
<path d="M10.6468 129.063C11.485 129.61 12.1825 130.347 12.6824 131.214C13.1823 132.081 13.4705 133.054 13.5236 134.054C13.5236 135.883 12.2385 136.626 10.6468 135.706C9.80808 135.162 9.11007 134.428 8.60999 133.562C8.10991 132.697 7.822 131.725 7.7699 130.727C7.78169 128.898 9.06684 128.155 10.6468 129.063Z" fill="#455A64"/>
<path d="M142.487 51.6298C142.487 49.6713 141.119 48.8808 139.421 49.8601L128.114 56.3846L44.9803 104.428C44.0873 105.009 43.3442 105.792 42.8114 106.715C42.2787 107.638 41.9715 108.673 41.9148 109.737V285.275C41.9148 287.233 43.2825 288.024 44.9803 287.044L128.15 238.989L139.421 232.477C140.314 231.896 141.057 231.112 141.59 230.19C142.123 229.267 142.43 228.231 142.487 227.167V51.6298Z" fill="white" stroke="#FF0000" stroke-miterlimit="10"/>
<path d="M43.6597 288.059C43.2432 288.065 42.8338 287.95 42.4807 287.729C42.079 287.455 41.7579 287.079 41.5506 286.639C41.3432 286.199 41.2573 285.712 41.3016 285.228V109.737C41.3556 108.569 41.6889 107.432 42.2737 106.419C42.8584 105.407 43.6774 104.55 44.6619 103.921L127.796 55.8774L128.385 56.9039L45.2514 104.935C44.4498 105.467 43.7823 106.177 43.3015 107.01C42.8207 107.843 42.5397 108.777 42.4807 109.737V285.275C42.3991 285.554 42.4134 285.852 42.5214 286.122C42.6293 286.392 42.8247 286.617 43.0761 286.763C43.3275 286.908 43.6204 286.965 43.9079 286.924C44.1955 286.883 44.461 286.747 44.6619 286.537L127.831 238.482L128.421 239.509L45.2514 287.564C44.7702 287.859 44.2232 288.029 43.6597 288.059Z" fill="#FF0000" stroke="#FF0000" stroke-miterlimit="10"/>
<path d="M128.444 239.508L127.855 238.482L139.126 231.969C139.928 231.438 140.596 230.728 141.076 229.894C141.557 229.061 141.838 228.128 141.897 227.167V51.6298C141.979 51.3509 141.964 51.0527 141.856 50.7829C141.749 50.513 141.553 50.2873 141.302 50.1418C141.05 49.9963 140.757 49.9394 140.47 49.9803C140.182 50.0212 139.917 50.1576 139.716 50.3674L128.409 56.9038L127.819 55.8773L139.162 49.3999C139.545 49.0882 140.014 48.9002 140.506 48.8608C140.999 48.8214 141.491 48.9324 141.919 49.1791C142.347 49.4258 142.69 49.7967 142.903 50.2427C143.116 50.6887 143.189 51.1888 143.112 51.677V227.167C143.057 228.337 142.723 229.476 142.138 230.49C141.554 231.504 140.735 232.363 139.751 232.996L128.444 239.508Z" fill="#FF0000" stroke="#FF0000" stroke-miterlimit="10"/>
<path d="M92.2007 92.4174C102.812 86.3058 111.36 91.2376 111.36 103.496C111.36 115.755 102.777 130.633 92.2007 136.697C81.6248 142.761 73.0414 137.877 73.0414 125.63C73.0414 113.383 81.6248 98.5408 92.2007 92.4174Z" fill="#FF0000"/>
<path d="M92.2007 102.045C95.6317 100.063 98.4142 101.667 98.4142 105.584C98.2977 107.742 97.6743 109.842 96.5947 111.714C95.5151 113.586 94.0097 115.176 92.2007 116.356C88.7697 118.339 85.9872 116.734 85.9872 112.817C86.1037 110.659 86.7271 108.559 87.8067 106.687C88.8863 104.816 90.3917 103.225 92.2007 102.045Z" fill="#FF0000"/>
<path d="M104.309 123.187C104.309 116.675 99.7466 114.032 94.099 117.288L90.5619 119.329C84.9261 122.586 80.3514 130.514 80.3514 137.027V138.785C83.6174 139.859 87.7204 139.281 92.1418 136.697C97.0397 133.673 101.182 129.569 104.251 124.698L104.309 123.187Z" fill="#FF0000"/>
<path opacity="0.7" d="M92.2007 102.045C95.6317 100.063 98.4142 101.667 98.4142 105.584C98.2977 107.742 97.6743 109.842 96.5947 111.714C95.5151 113.586 94.0097 115.176 92.2007 116.356C88.7697 118.339 85.9872 116.734 85.9872 112.817C86.1037 110.659 86.7271 108.559 87.8067 106.687C88.8863 104.816 90.3917 103.225 92.2007 102.045Z" fill="white"/>
<path opacity="0.7" d="M104.309 123.187C104.309 116.675 99.7466 114.032 94.099 117.288L90.5619 119.329C84.9261 122.586 80.3514 130.514 80.3514 137.027V138.785C83.6174 139.859 87.7204 139.281 92.1418 136.697C97.0397 133.673 101.182 129.569 104.251 124.698L104.309 123.187Z" fill="white"/>
<path d="M55.1318 163.657L79.7855 149.416C80.9645 148.767 81.8252 149.286 81.8252 150.596V151.41C81.7878 152.119 81.5836 152.809 81.2292 153.424C80.8747 154.039 80.38 154.562 79.7855 154.949L55.1318 169.19C54.0117 169.839 53.092 169.308 53.092 168.01V167.196C53.1303 166.487 53.3349 165.797 53.6893 165.182C54.0437 164.567 54.5378 164.045 55.1318 163.657Z" fill="#FF0000"/>
<path opacity="0.1" d="M55.1318 163.657L79.7855 149.416C80.9645 148.767 81.8252 149.286 81.8252 150.596V151.41C81.7878 152.119 81.5836 152.809 81.2292 153.424C80.8747 154.039 80.38 154.562 79.7855 154.949L55.1318 169.19C54.0117 169.839 53.092 169.308 53.092 168.01V167.196C53.1303 166.487 53.3349 165.797 53.6893 165.182C54.0437 164.567 54.5378 164.045 55.1318 163.657Z" fill="black"/>
<path d="M54.1178 180.847L128.704 137.759C129.258 137.429 129.718 137.688 129.718 138.349V147.056C129.697 147.409 129.595 147.753 129.419 148.06C129.243 148.367 128.998 148.629 128.704 148.826L54.1178 191.914C53.5519 192.244 53.092 191.973 53.092 191.324V182.617C53.1123 182.262 53.2157 181.917 53.3939 181.609C53.5721 181.302 53.8201 181.041 54.1178 180.847Z" fill="#FF0000"/>
<path opacity="0.2" d="M54.1178 180.847L128.704 137.759C129.258 137.429 129.718 137.688 129.718 138.349V147.056C129.697 147.409 129.595 147.753 129.419 148.06C129.243 148.367 128.998 148.629 128.704 148.826L54.1178 191.914C53.5519 192.244 53.092 191.973 53.092 191.324V182.617C53.1123 182.262 53.2157 181.917 53.3939 181.609C53.5721 181.302 53.8201 181.041 54.1178 180.847Z" fill="white"/>
<path d="M55.1318 202.391L79.7855 188.15C80.9645 187.501 81.8252 188.032 81.8252 189.33V190.144C81.7888 190.853 81.5849 191.544 81.2304 192.159C80.8758 192.774 80.3807 193.297 79.7855 193.683L55.1318 207.924C54.0117 208.585 53.092 208.054 53.092 206.744V205.93C53.1322 205.222 53.3375 204.533 53.6918 203.918C54.046 203.303 54.5391 202.78 55.1318 202.391Z" fill="#FF0000"/>
<path opacity="0.1" d="M55.1318 202.391L79.7855 188.15C80.9645 187.501 81.8252 188.032 81.8252 189.33V190.144C81.7888 190.853 81.5849 191.544 81.2304 192.159C80.8758 192.774 80.3807 193.297 79.7855 193.683L55.1318 207.924C54.0117 208.585 53.092 208.054 53.092 206.744V205.93C53.1322 205.222 53.3375 204.533 53.6918 203.918C54.046 203.303 54.5391 202.78 55.1318 202.391Z" fill="black"/>
<path d="M54.1178 219.581L128.704 176.493C129.258 176.163 129.718 176.434 129.718 177.083V185.79C129.697 186.144 129.595 186.487 129.419 186.794C129.243 187.102 128.998 187.364 128.704 187.56L54.1178 230.648C53.5519 230.978 53.092 230.719 53.092 230.058V221.351C53.1123 220.996 53.2157 220.651 53.3939 220.343C53.5721 220.036 53.8201 219.775 54.1178 219.581Z" fill="#FF0000"/>
<path opacity="0.2" d="M54.1178 219.581L128.704 176.493C129.258 176.163 129.718 176.434 129.718 177.083V185.79C129.697 186.144 129.595 186.487 129.419 186.794C129.243 187.102 128.998 187.364 128.704 187.56L54.1178 230.648C53.5519 230.978 53.092 230.719 53.092 230.058V221.351C53.1123 220.996 53.2157 220.651 53.3939 220.343C53.5721 220.036 53.8201 219.775 54.1178 219.581Z" fill="white"/>
<path d="M83.8649 224.525L113.341 207.523C114.52 206.862 115.392 207.393 115.392 208.703V217.811C115.354 218.521 115.148 219.212 114.791 219.827C114.435 220.443 113.938 220.965 113.341 221.351L83.8649 238.364C82.6859 239.013 81.8252 238.482 81.8252 237.184V228.064C81.8662 227.356 82.072 226.667 82.4261 226.053C82.7803 225.438 83.273 224.915 83.8649 224.525Z" fill="#FF0000"/>
<path opacity="0.1" d="M83.8649 224.525L113.341 207.523C114.52 206.862 115.392 207.393 115.392 208.703V217.811C115.354 218.521 115.148 219.212 114.791 219.827C114.435 220.443 113.938 220.965 113.341 221.351L83.8649 238.364C82.6859 239.013 81.8252 238.482 81.8252 237.184V228.064C81.8662 227.356 82.072 226.667 82.4261 226.053C82.7803 225.438 83.273 224.915 83.8649 224.525Z" fill="black"/>
<path d="M153.664 186.085C153.664 186.085 139.185 166.099 138.336 163.668C137.664 161.875 138.336 159.209 138.549 157.97C138.761 156.731 138.95 153.97 139.162 153.25C139.515 151.905 137.782 152.177 136.804 153.404C135.825 154.631 135.495 157.085 134.988 157.486C134.481 157.887 130.626 152.259 128.609 149.664C126.593 147.068 125.332 145.487 124.094 146.454C123.209 147.151 123.87 148.661 125.332 150.879C126.186 152.073 126.973 153.314 127.69 154.595C127.914 155.079 126.711 155.115 126.063 156.117C125.556 156.896 126.063 158.159 125.355 158.76C124.92 159.092 124.622 159.572 124.517 160.109C124.413 160.647 124.51 161.204 124.789 161.674C126.102 163.737 127.794 165.531 129.777 166.96C131.946 168.459 132.819 168.99 134.104 171.031C135.389 173.072 146.92 193.92 147.698 195.17C148.476 196.421 149.974 198.969 152.249 199.04C154.525 199.111 173.153 183.065 174.108 182.263C177.174 179.703 178.153 179.325 178.671 181.637C178.85 182.455 178.984 183.282 179.072 184.115C179.438 187.041 181.43 197.495 181.43 197.495C181.43 197.495 190.863 202.061 198.609 199.854C206.355 197.648 208.973 194.356 208.973 194.356L205.094 188.032C206.143 185.425 210.989 174.853 212.557 167.456L188.269 163.527C187.773 163.421 186.972 163.22 185.911 162.949C184.578 162.595 181.194 161.427 178.636 163.668C170.288 170.948 153.688 186.085 153.688 186.085" fill="#FFA8A7"/>
<path d="M201.816 308.719L197.465 314.771C199.442 315.695 201.603 316.159 203.785 316.128C207.687 316.27 208.76 314.948 208.902 314.689C209.562 313.273 208.536 310.724 208.253 308.53L201.816 308.719Z" fill="#37474F"/>
<path d="M197.713 311.869C197.713 311.869 192.431 311.526 188.787 311.078C185.144 310.63 182.256 312.4 183.105 313.898C183.953 315.396 185.97 316.647 189.106 317.697C191.782 318.606 195.001 319.254 197.784 320.057C200.566 320.859 202.5 321.909 204.115 321.343C205.919 320.717 206.697 319.998 206.544 318.676C206.15 316.797 205.662 314.938 205.082 313.107L197.713 311.869Z" fill="#37474F"/>
<path d="M208.902 302.643C208.902 302.643 208.242 308.141 208.194 309.32C208.147 310.5 202.83 310.878 201.816 308.719L201.651 301.994L208.902 302.643Z" fill="#F28F8F"/>
<path d="M203.549 306.017L205.447 314.37C205.447 314.37 205.624 315.385 201.285 316.033C196.946 316.682 190.132 313.756 188.964 313.166C187.797 312.577 187.667 311.385 191.936 311.621C196.204 311.857 197.713 311.869 197.713 311.869L196.322 308.176L203.549 306.017Z" fill="#FFA8A7"/>
<path d="M212.486 167.385L215.493 166.547C215.493 166.547 221.777 186.451 222.473 188.375C223.168 190.298 223.958 192.327 222.602 194.698C220.987 197.518 212.486 208.857 212.486 208.857L207.086 203.571L213.217 192.339L207.793 181.366L212.486 167.385Z" fill="#F28F8F"/>
<path d="M181.607 141.534C180.902 140.21 180.544 138.729 180.567 137.229C180.59 135.729 180.992 134.259 181.737 132.957C184.732 127.4 191.405 124.698 199.352 125.725C203.03 126.208 207.369 129.264 209.739 133.83C212.356 138.892 212.604 149.085 213.276 152.944L181.607 141.534Z" fill="#37474F"/>
<path d="M181.395 143.717C181.395 143.717 179.508 147.316 179.839 147.646C180.328 147.932 180.862 148.132 181.418 148.236L181.395 143.717Z" fill="#FFA8A7"/>
<path d="M187.125 132.344C185.073 133.677 181.536 136.131 181.383 144.213C181.218 152.472 182.397 155.197 183.623 156.153C184.449 156.802 189.294 156.471 191.37 155.988C193.445 155.504 199.422 152.543 201.58 148.047C204.115 142.762 203.596 135.069 199.835 132.709C197.921 131.577 195.75 130.949 193.527 130.885C191.304 130.821 189.101 131.323 187.125 132.344Z" fill="#FFA8A7"/>
<path d="M208.902 194.309C212.533 199.972 215.976 204.928 216.731 211.322C218.287 224.761 213.194 240.122 212.097 250.069C214.159 252.898 215.348 256.269 215.516 259.767C215.516 263.885 208.902 302.643 208.902 302.643C208.902 302.643 204.091 304.106 201.651 301.994L197.111 230.696L199.47 222.012L208.902 194.309Z" fill="#FF0000"/>
<path opacity="0.2" d="M208.902 194.309C212.533 199.972 215.976 204.928 216.731 211.322C218.287 224.761 213.194 240.122 212.097 250.069C214.159 252.898 215.348 256.269 215.516 259.767C215.516 263.885 208.902 302.643 208.902 302.643C208.902 302.643 204.091 304.106 201.651 301.994L197.111 230.696L199.47 222.012L208.902 194.309Z" fill="black"/>
<path d="M197.111 230.696L199.47 222.012C203.985 220.823 208.339 219.091 212.439 216.856C212.439 216.856 209.987 221.328 202.936 223.782L199.293 234.931L198.986 260.475L197.111 230.696Z" fill="#FF0000"/>
<path opacity="0.3" d="M197.111 230.696L199.47 222.012C203.985 220.823 208.339 219.091 212.439 216.856C212.439 216.856 209.987 221.328 202.936 223.782L199.293 234.931L198.986 260.475L197.111 230.696Z" fill="black"/>
<path d="M208.902 194.309C210.847 197.495 215.493 202.922 214.502 208.149C213.323 214.473 209.904 218.921 199.505 222.012L189.742 257.407C189.742 257.407 194.824 262.127 196.38 266.693C197.937 271.259 203.549 306.04 203.549 306.04C203.549 306.04 201.804 308.884 196.321 308.2C196.321 308.2 177.209 264.545 175.865 261.702C174.234 258.822 173.662 255.462 174.25 252.204C174.851 247.626 181.324 197.518 181.324 197.518L208.902 194.309Z" fill="#FF0000"/>
<path opacity="0.2" d="M208.902 194.309C210.847 197.495 215.493 202.922 214.502 208.149C213.323 214.473 209.904 218.921 199.505 222.012L189.742 257.407C189.742 257.407 194.824 262.127 196.38 266.693C197.937 271.259 203.549 306.04 203.549 306.04C203.549 306.04 201.804 308.884 196.321 308.2C196.321 308.2 177.209 264.545 175.865 261.702C174.234 258.822 173.662 255.462 174.25 252.204C174.851 247.626 181.324 197.518 181.324 197.518L208.902 194.309Z" fill="black"/>
<path d="M212.486 167.385L188.198 163.456C187.703 163.35 186.901 163.149 185.84 162.878C185.84 162.878 184.802 178.122 178.565 181.614C178.718 182.345 178.848 183.159 178.966 184.092C179.332 187.018 181.324 197.471 181.324 197.471C181.324 197.471 190.756 202.037 198.503 199.831C206.249 197.624 208.866 194.333 208.866 194.333L204.987 188.009C206.072 185.378 210.953 174.806 212.486 167.385Z" fill="#FF0000"/>
<path opacity="0.7" d="M212.486 167.385L188.198 163.456C187.703 163.35 186.901 163.149 185.84 162.878C185.84 162.878 184.802 178.122 178.565 181.614C178.718 182.345 178.848 183.159 178.966 184.092C179.332 187.018 181.324 197.471 181.324 197.471C181.324 197.471 190.756 202.037 198.503 199.831C206.249 197.624 208.866 194.333 208.866 194.333L204.987 188.009C206.072 185.378 210.953 174.806 212.486 167.385Z" fill="white"/>
<path d="M206.084 185.496C202.858 187.434 199.479 189.103 195.98 190.486C199.156 190.423 202.265 189.563 205.023 187.985L206.084 185.496Z" fill="#FF0000"/>
<path d="M186.524 132.744C186.524 132.744 185.345 140.413 188.127 144.92C188.127 144.92 189.165 141.865 191.747 142.443C194.329 143.021 194.47 146.431 192.655 148.342C192.191 148.879 191.586 149.275 190.908 149.483C190.231 149.692 189.508 149.705 188.823 149.522C188.823 149.522 188.422 155.067 188.198 159.716C187.974 164.364 186.748 174.499 191.971 178.593C197.194 182.687 210.305 184.127 216.448 175.537C219.867 170.759 215.328 162.311 213.217 152.837C211.272 144.13 210.175 131.222 200.943 129.146C191.711 127.069 186.524 132.744 186.524 132.744Z" fill="#37474F"/>
</g>
<defs>
<clipPath id="clip0_618_187">
<rect width="227" height="329" fill="white"/>
</clipPath>
</defs>
</svg>
