<svg width="24" height="24" viewBox="0 0 24 24" fill="none" xmlns="http://www.w3.org/2000/svg">
<path d="M8 11C8 11.2652 7.89464 11.5196 7.70711 11.7071C7.51957 11.8946 7.26522 12 7 12C6.73478 12 6.48043 11.8946 6.29289 11.7071C6.10536 11.5196 6 11.2652 6 11C6 10.7348 6.10536 10.4804 6.29289 10.2929C6.48043 10.1054 6.73478 10 7 10C7.26522 10 7.51957 10.1054 7.70711 10.2929C7.89464 10.4804 8 10.7348 8 11ZM18 11C18 11.2652 17.8946 11.5196 17.7071 11.7071C17.5196 11.8946 17.2652 12 17 12C16.7348 12 16.4804 11.8946 16.2929 11.7071C16.1054 11.5196 16 11.2652 16 11C16 10.7348 16.1054 10.4804 16.2929 10.2929C16.4804 10.1054 16.7348 10 17 10C17.2652 10 17.5196 10.1054 17.7071 10.2929C17.8946 10.4804 18 10.7348 18 11ZM9.7 15.286C9.716 15.301 9.885 15.451 10.2 15.609C10.576 15.796 11.171 16 12 16C12.829 16 13.425 15.796 13.8 15.609C13.975 15.521 14.155 15.419 14.3 15.286C14.4895 15.1046 14.7426 15.0048 15.0049 15.0083C15.2673 15.0118 15.5177 15.1182 15.7023 15.3046C15.8868 15.491 15.9908 15.7425 15.9917 16.0048C15.9925 16.2672 15.8903 16.5193 15.707 16.707C15.587 16.827 14.357 18 12 18C9.642 18 8.413 16.827 8.293 16.707C8.10969 16.5193 8.00746 16.2672 8.00834 16.0048C8.00923 15.7425 8.11316 15.491 8.29774 15.3046C8.48231 15.1182 8.73275 15.0118 8.99506 15.0083C9.25737 15.0048 9.51054 15.1046 9.7 15.286Z" fill="black"/>
<path d="M11 2C11 1.73478 11.1054 1.48043 11.2929 1.29289C11.4804 1.10536 11.7348 1 12 1C18.075 1 23 5.925 23 12C23 18.075 18.075 23 12 23C5.925 23 1 18.075 1 12C0.999617 9.92855 1.58414 7.89909 2.6863 6.1452C3.78845 4.3913 5.36344 2.98426 7.23 2.086C7.35303 2.02677 7.4869 1.99336 7.62334 1.98783C7.75978 1.98231 7.8959 2.00479 8.02332 2.05388C8.15074 2.10297 8.26676 2.17764 8.36422 2.27329C8.46168 2.36893 8.53852 2.48352 8.59 2.61C8.882 3.33 9.28 4.175 9.952 4.843C10.592 5.481 11.524 6 13 6C13.2652 6 13.5196 6.10536 13.7071 6.29289C13.8946 6.48043 14 6.73478 14 7C14 7.26522 13.8946 7.51957 13.7071 7.70711C13.5196 7.89464 13.2652 8 13 8C10.976 8 9.542 7.257 8.541 6.26C7.941 5.664 7.514 4.993 7.201 4.385C5.36624 5.5408 4.01047 7.32018 3.38304 9.39588C2.7556 11.4716 2.89869 13.704 3.78599 15.6826C4.67329 17.6613 6.24513 19.253 8.21243 20.1651C10.1797 21.0772 12.4102 21.2484 14.4936 20.6471C16.5771 20.0458 18.3733 18.7125 19.5521 16.8924C20.7309 15.0724 21.2129 12.8879 20.9095 10.7408C20.6061 8.59363 19.5377 6.62824 17.9008 5.20604C16.2638 3.78384 14.1685 3.00047 12 3C11.8686 3.00013 11.7385 2.97436 11.617 2.92417C11.4956 2.87397 11.3852 2.80033 11.2922 2.70746C11.1993 2.61459 11.1255 2.50431 11.0752 2.38291C11.0249 2.26152 10.999 2.13141 10.999 2H11Z" fill="black"/>
</svg>
