<svg width="24" height="24" viewBox="0 0 24 24" fill="none" xmlns="http://www.w3.org/2000/svg">
<path d="M7 5C5.93913 5 4.92172 5.42143 4.17157 6.17157C3.42143 6.92172 3 7.93913 3 9C3 12.552 5.218 15.296 7.621 17.22C8.968 18.2883 10.4381 19.1914 12 19.91C13.5609 19.1908 15.0303 18.2878 16.377 17.22C18.78 15.294 21 12.551 21 9C21 7.93913 20.5786 6.92172 19.8284 6.17157C19.0783 5.42143 18.0609 5 17 5C15.043 5 13.348 6.396 12.98 8.2C12.9341 8.42606 12.8115 8.62929 12.6329 8.77528C12.4542 8.92126 12.2307 9.001 12 9.001C11.7693 9.001 11.5458 8.92126 11.3671 8.77528C11.1885 8.62929 11.0659 8.42606 11.02 8.2C10.652 6.396 8.957 5 7 5ZM12 22C11.684 21.98 11.44 21.853 11.152 21.722C9.4467 20.9355 7.84162 19.9478 6.371 18.78C3.777 16.705 1 13.449 1 9C1 7.4087 1.63214 5.88258 2.75736 4.75736C3.88258 3.63214 5.4087 3 7 3C7.97704 3.00255 8.93957 3.2366 9.80868 3.68298C10.6778 4.12936 11.4288 4.77535 12 5.568C12.5712 4.77535 13.3222 4.12936 14.1913 3.68298C15.0604 3.2366 16.023 3.00255 17 3C18.5913 3 20.1174 3.63214 21.2426 4.75736C22.3679 5.88258 23 7.4087 23 9C23 13.448 20.22 16.705 17.625 18.78C16.1544 19.9473 14.5497 20.935 12.845 21.722C12.302 21.971 12.113 22 12 22Z" fill="black"/>
</svg>
