<svg width="34" height="35" viewBox="0 0 34 35" fill="none" xmlns="http://www.w3.org/2000/svg">
<path d="M15.5125 11.78L23.1625 9.01752L24.65 11.78H15.5125ZM12.75 11.78L15.9375 9.01752L17.2125 10.7175L15.0875 11.78H12.75Z" fill="#F49A9A"/>
<path d="M9.98711 25.805C9.13711 25.805 8.28711 24.955 8.28711 24.105V13.48C8.28711 12.63 9.13711 11.78 9.98711 11.78H24.2246C25.0746 11.78 25.9246 12.63 25.9246 13.48V23.8925C25.9246 24.7425 25.0746 25.5925 24.2246 25.5925L9.98711 25.805Z" fill="#FF0000"/>
<path d="M25.2873 20.9176H23.3748C22.5248 20.9176 21.6748 20.2801 21.6748 19.2176V18.5801C21.6748 17.7301 22.5248 16.8801 23.3748 16.8801H25.2873C26.1373 16.8801 26.9873 17.5176 26.9873 18.5801V19.4301C26.9873 20.2801 26.3498 20.9176 25.2873 20.9176Z" fill="#F49A9A"/>
</svg>
