<svg width="296" height="323" viewBox="0 0 296 323" fill="none" xmlns="http://www.w3.org/2000/svg">
<path style="mix-blend-mode:multiply" opacity="0.5" d="M2.57644 229.154L161.217 320.628C163.825 322.13 166.782 322.92 169.792 322.92C172.802 322.92 175.759 322.13 178.366 320.628L288.722 256.969L113.858 156.167L2.53395 220.327C1.75943 220.777 1.11741 221.423 0.672557 222.2C0.227708 222.977 -0.00424945 223.858 5.89413e-05 224.753C0.00436733 225.648 0.244789 226.526 0.697097 227.299C1.1494 228.072 1.79762 228.712 2.57644 229.154Z" fill="url(#paint0_linear_629_294)"/>
<path d="M273.858 231.285L113.858 139.03L6.55354 200.898L6.85097 199.404L0.0525602 198.428V203.648C0.025846 204.563 0.249072 205.467 0.698249 206.264C1.14743 207.061 1.80557 207.721 2.60196 208.172L161.217 299.655C163.825 301.156 166.782 301.947 169.792 301.947C172.802 301.947 175.759 301.156 178.366 299.655L288.722 235.996V230.657L273.858 231.285Z" fill="url(#paint1_linear_629_294)"/>
<path d="M2.57644 202.842L161.217 294.316C163.825 295.817 166.782 296.608 169.792 296.608C172.802 296.608 175.759 295.817 178.366 294.316L288.722 230.657L113.858 129.855L2.53395 194.015C1.75943 194.465 1.11741 195.111 0.672557 195.888C0.227708 196.665 -0.00424945 197.546 5.89413e-05 198.441C0.00436733 199.336 0.244789 200.214 0.697097 200.987C1.1494 201.759 1.79762 202.399 2.57644 202.842Z" fill="url(#paint2_linear_629_294)"/>
<path d="M281.167 92.6951L121.71 0.70362C120.88 0.220678 119.932 -0.0223629 118.971 0.00161769C118.011 0.0255982 117.076 0.315657 116.271 0.839426L111.776 3.38578L113.153 5.16824L113.849 5.27858V129.855L278.396 224.724L278.039 225.411L283.844 233.5L288.73 230.682L288.806 105.911C288.805 103.232 288.098 100.601 286.757 98.2819C285.416 95.9624 283.488 94.0358 281.167 92.6951Z" fill="url(#paint3_linear_629_294)"/>
<path d="M108.98 132.664V8.03717C108.98 7.12068 109.223 6.22046 109.682 5.42704C110.141 4.63361 110.801 3.97495 111.596 3.51728C112.391 3.05961 113.293 2.81906 114.211 2.81983C115.128 2.82059 116.029 3.06264 116.824 3.52163L276.314 95.4706C278.639 96.811 280.569 98.7385 281.911 101.06C283.254 103.381 283.961 106.014 283.963 108.695L283.886 233.466L108.98 132.664Z" fill="url(#paint4_linear_629_294)"/>
<path d="M115.388 129.855L278.184 223.756V103.543L115.388 9.53955V129.855Z" fill="url(#paint5_linear_629_294)"/>
<path d="M242.594 226.141L252.239 231.743L257.67 228.645L248.024 223.035L242.594 226.141Z" fill="white"/>
<path d="M227.238 232.83L238.702 239.493L249.002 233.602L237.538 226.939L227.238 232.83Z" fill="white"/>
<path d="M212.911 224.503L224.366 231.158L234.666 225.267L223.21 218.613L212.911 224.503Z" fill="white"/>
<path d="M198.575 216.168L210.038 222.831L220.329 216.94L208.874 210.277L198.575 216.168Z" fill="white"/>
<path d="M184.247 207.842L195.702 214.496L206.002 208.614L194.547 201.951L184.247 207.842Z" fill="white"/>
<path d="M169.911 199.506L181.366 206.169L191.666 200.279L180.21 193.616L169.911 199.506Z" fill="white"/>
<path d="M155.583 191.18L167.038 197.834L177.338 191.952L165.874 185.289L155.583 191.18Z" fill="white"/>
<path d="M141.247 182.845L152.702 189.508L163.002 183.617L151.547 176.963L141.247 182.845Z" fill="white"/>
<path d="M126.911 174.518L138.375 181.173L148.674 175.29L137.21 168.627L126.911 174.518Z" fill="white"/>
<path d="M177.432 235.104L188.887 241.759L199.186 235.877L187.731 229.214L177.432 235.104Z" fill="white"/>
<path d="M163.095 226.769L174.551 233.432L184.85 227.542L173.395 220.887L163.095 226.769Z" fill="white"/>
<path d="M148.768 218.443L160.223 225.097L170.523 219.215L159.067 212.552L148.768 218.443Z" fill="white"/>
<path d="M134.432 210.108L145.887 216.771L156.187 210.88L144.731 204.226L134.432 210.108Z" fill="white"/>
<path d="M120.095 201.781L131.559 208.435L141.859 202.553L130.395 195.89L120.095 201.781Z" fill="white"/>
<path d="M100.032 190.119L117.223 200.109L127.523 194.218L110.331 184.228L100.032 190.119Z" fill="white"/>
<path d="M112.66 166.225L123.962 172.803L134.262 166.913L122.959 160.343L112.66 166.225Z" fill="white"/>
<path d="M98.0431 157.738L109.345 164.307L119.645 158.417L108.343 151.847L98.0431 157.738Z" fill="white"/>
<path d="M213.701 240.571L225.157 247.233L235.456 241.343L224.001 234.68L213.701 240.571Z" fill="white"/>
<path d="M199.365 232.244L210.829 238.899L221.128 233.008L209.664 226.354L199.365 232.244Z" fill="white"/>
<path d="M71.8182 189.618L83.2736 196.281L93.5731 190.39L82.1178 183.727L71.8182 189.618Z" fill="white"/>
<path d="M57.4821 181.291L68.9459 187.946L79.2455 182.055L67.7816 175.401L57.4821 181.291Z" fill="white"/>
<path d="M86.4943 197.86L169.146 245.901L179.446 240.01L96.7854 191.969L86.4943 197.86Z" fill="white"/>
<path d="M185.037 223.909L196.493 230.572L206.792 224.681L195.337 218.027L185.037 223.909Z" fill="white"/>
<path d="M170.701 215.582L182.165 222.237L192.456 216.355L181.001 209.692L170.701 215.582Z" fill="white"/>
<path d="M156.373 207.247L167.829 213.91L178.128 208.02L166.673 201.365L156.373 207.247Z" fill="white"/>
<path d="M142.037 198.921L153.493 205.584L163.792 199.693L152.337 193.03L142.037 198.921Z" fill="white"/>
<path d="M127.71 190.586L139.165 197.249L149.465 191.358L138.009 184.704L127.71 190.586Z" fill="white"/>
<path d="M113.374 182.259L124.829 188.922L135.128 183.031L123.673 176.368L113.374 182.259Z" fill="white"/>
<path d="M84.6417 165.555L110.425 180.545L120.724 174.654L94.9413 159.673L84.6417 165.555Z" fill="white"/>
<path d="M71.1044 173.304L98.264 189.092L108.564 183.201L81.404 167.414L71.1044 173.304Z" fill="white"/>
<path d="M172.146 246.945L199.314 262.741L204.464 259.796L177.296 244.008L172.146 246.945Z" fill="white"/>
<path d="M181.137 252.174L190.332 257.512L200.631 251.63L191.428 246.283L181.137 252.174Z" fill="white"/>
<path d="M191.555 243.312L211.619 254.975L221.919 249.084L201.855 237.422L191.555 243.312Z" fill="white"/>
<path d="M229.507 218.536L239.153 224.138L244.583 221.04L234.938 215.429L229.507 218.536Z" fill="white"/>
<path d="M216.42 210.931L226.066 216.533L231.496 213.426L221.851 207.824L216.42 210.931Z" fill="white"/>
<path d="M203.333 203.317L212.979 208.928L218.409 205.821L208.764 200.219L203.333 203.317Z" fill="white"/>
<path d="M190.247 195.712L199.892 201.323L205.322 198.216L195.677 192.614L190.247 195.712Z" fill="white"/>
<path d="M177.16 188.107L186.805 193.709L192.235 190.611L182.59 185L177.16 188.107Z" fill="white"/>
<path d="M164.073 180.502L173.718 186.104L179.148 183.006L169.503 177.396L164.073 180.502Z" fill="white"/>
<path d="M150.986 172.897L160.631 178.499L166.061 175.392L156.416 169.79L150.986 172.897Z" fill="white"/>
<path d="M137.899 165.292L147.544 170.894L152.966 167.787L143.329 162.185L137.899 165.292Z" fill="white"/>
<path d="M124.812 157.678L134.457 163.289L139.879 160.182L130.242 154.58L124.812 157.678Z" fill="white"/>
<path d="M111.725 150.073L121.37 155.675L126.792 152.577L117.155 146.967L111.725 150.073Z" fill="white"/>
<path d="M152.388 240.825L96.0886 208.359C95.2692 207.888 94.3403 207.64 93.3947 207.64C92.4491 207.64 91.5202 207.888 90.7008 208.359L66.1416 222.39C65.8487 222.559 65.6055 222.802 65.4364 223.095C65.2673 223.388 65.1783 223.72 65.1783 224.058C65.1783 224.396 65.2673 224.728 65.4364 225.02C65.6055 225.313 65.8487 225.556 66.1416 225.725L122.611 258.293C123.396 258.744 124.285 258.981 125.19 258.981C126.095 258.981 126.984 258.744 127.769 258.293L152.413 244.229C152.71 244.053 152.956 243.803 153.125 243.503C153.295 243.203 153.383 242.864 153.38 242.52C153.378 242.175 153.285 241.838 153.111 241.54C152.936 241.243 152.687 240.996 152.388 240.825Z" fill="white"/>
<path d="M198.386 55.2205C198.887 56.0692 199.737 56.4936 200.272 56.1711C200.808 55.8486 200.85 54.9064 200.349 54.0576C199.847 53.2088 198.997 52.7844 198.454 53.107C197.91 53.4295 197.884 54.3717 198.386 55.2205Z" fill="black"/>
<path d="M282.391 169.96V131.137L97.5928 24.5715V63.3356L282.391 169.96Z" fill="url(#paint6_linear_629_294)"/>
<path d="M97.5928 24.5715L99.5473 23.4426L284.396 130.042L282.391 131.137L97.5928 24.5715Z" fill="url(#paint7_linear_629_294)"/>
<path d="M97.5928 24.5715L109.014 18.2905L293.871 124.89L282.391 131.137L97.5928 24.5715Z" fill="url(#paint8_linear_629_294)"/>
<path d="M282.39 131.137L284.396 130.042V168.806L282.39 169.96V131.137Z" fill="url(#paint9_linear_629_294)"/>
<path d="M282.39 131.137L295.018 124.117V162.881L282.39 169.96V131.137Z" fill="url(#paint10_linear_629_294)"/>
<path d="M120.614 61.9096C120.614 64.1844 119.22 65.2453 117.512 64.2777C115.804 63.3101 114.419 60.6959 114.419 58.4211C114.419 56.1464 115.804 55.0939 117.512 56.053C119.22 57.0121 120.614 59.6349 120.614 61.9096Z" fill="white"/>
<path d="M130.743 67.6134C130.743 69.8797 129.358 70.9406 127.642 69.9815C125.925 69.0224 124.548 66.3996 124.548 64.1249C124.548 61.8501 125.934 60.7892 127.642 61.7568C129.35 62.7244 130.743 65.3386 130.743 67.6134Z" fill="white"/>
<path d="M140.873 73.3088C140.873 75.5835 139.488 76.6445 137.771 75.6854C136.055 74.7263 134.678 72.095 134.678 69.8288C134.678 67.5625 136.063 66.493 137.771 67.4606C139.479 68.4283 140.873 71.0425 140.873 73.3088Z" fill="white"/>
<path d="M149.755 81.6251C151.129 81.0421 151.415 78.6249 150.395 76.2261C149.374 73.8273 147.433 72.3552 146.06 72.9381C144.686 73.5211 144.4 75.9383 145.42 78.3371C146.441 80.7359 148.381 82.208 149.755 81.6251Z" fill="white"/>
<path d="M161.132 84.7165C161.132 86.9913 159.747 88.0522 158.039 87.0846C156.331 86.117 154.937 83.5027 154.937 81.228C154.937 78.9532 156.331 77.9007 158.039 78.8599C159.747 79.819 161.132 82.4418 161.132 84.7165Z" fill="white"/>
<path d="M171.262 90.4204C171.262 92.6866 169.877 93.7476 168.169 92.7885C166.461 91.8293 165.075 89.2066 165.075 86.9319C165.075 84.6571 166.461 83.6046 168.169 84.5637C169.877 85.5229 171.262 88.1456 171.262 90.4204Z" fill="white"/>
<path d="M181.392 96.0902C181.392 98.3565 180.006 99.4174 178.298 98.4583C176.59 97.4992 175.205 94.8764 175.205 92.6017C175.205 90.3269 176.59 89.266 178.298 90.2336C180.006 91.2012 181.392 93.8494 181.392 96.0902Z" fill="white"/>
<path d="M191.521 101.819C191.521 104.094 190.136 105.155 188.428 104.196C186.72 103.237 185.335 100.606 185.335 98.3394C185.335 96.0732 186.72 95.0037 188.428 95.9628C190.136 96.922 191.521 99.5532 191.521 101.819Z" fill="white"/>
<path d="M201.659 107.523C201.659 109.798 200.266 110.859 198.558 109.891C196.85 108.924 195.464 106.31 195.464 104.035C195.464 101.76 196.85 100.708 198.558 101.667C200.266 102.626 201.659 105.249 201.659 107.523Z" fill="white"/>
<path d="M211.789 113.227C211.789 115.494 210.404 116.554 208.687 115.595C206.971 114.636 205.594 112.013 205.594 109.739C205.594 107.464 206.979 106.411 208.687 107.371C210.395 108.33 211.789 110.953 211.789 113.227Z" fill="white"/>
<path d="M221.927 118.931C221.927 121.197 220.542 122.258 218.834 121.299C217.126 120.34 215.732 117.717 215.732 115.443C215.732 113.168 217.117 112.107 218.834 113.074C220.55 114.042 221.927 116.656 221.927 118.931Z" fill="white"/>
<path d="M232.048 124.626C232.048 126.901 230.663 127.962 228.955 127.003C227.247 126.044 225.853 123.413 225.853 121.146C225.853 118.88 227.238 117.811 228.955 118.77C230.672 119.729 232.048 122.403 232.048 124.626Z" fill="white"/>
<path d="M242.178 130.33C242.178 132.605 240.793 133.666 239.085 132.698C237.377 131.731 235.983 129.116 235.983 126.85C235.983 124.584 237.377 123.514 239.085 124.474C240.793 125.433 242.178 128.055 242.178 130.33Z" fill="white"/>
<path d="M252.307 136.034C252.307 138.3 250.922 139.361 249.214 138.402C247.506 137.443 246.121 134.82 246.121 132.546C246.121 130.271 247.506 129.218 249.214 130.178C250.922 131.137 252.307 133.759 252.307 136.034Z" fill="white"/>
<path d="M262.437 141.738C262.437 144.004 261.052 145.065 259.344 144.106C257.636 143.147 256.25 140.524 256.25 138.249C256.25 135.975 257.636 134.914 259.344 135.881C261.052 136.849 262.437 139.463 262.437 141.738Z" fill="white"/>
<path d="M211.169 174.111V151.601L158.685 121.333V143.834L211.169 174.111Z" fill="url(#paint11_linear_629_294)"/>
<path d="M158.685 121.333L163.282 118.677L215.783 148.953L211.169 151.601L158.685 121.333Z" fill="#E6E6E6"/>
<path d="M211.169 151.601L215.783 148.953V171.445L211.169 174.111V151.601Z" fill="#BFBFBF"/>
<path d="M163.401 131.366L165.602 132.622C166.21 132.956 166.717 133.448 167.07 134.045C167.423 134.643 167.609 135.324 167.608 136.017C167.608 137.061 167.013 137.715 166.07 137.307L167.846 142.052L166.784 141.449L165.194 136.934L164.251 136.391V139.998L163.401 139.514V131.366ZM164.251 135.457L165.364 136.093C166.036 136.475 166.707 136.645 166.707 135.542C166.706 135.102 166.578 134.672 166.341 134.302C166.103 133.932 165.764 133.638 165.364 133.454L164.251 132.817V135.457Z" fill="white"/>
<path d="M169.24 134.693L173.268 136.993V138.037L170.089 136.221V138.657L173.064 140.355V141.399L170.089 139.701V142.324L173.438 144.233V145.269L169.24 142.884V134.693Z" fill="white"/>
<path d="M180.414 144.666V148.715C179.58 148.778 178.749 148.57 178.043 148.121C177.01 147.447 176.163 146.525 175.578 145.44C174.993 144.354 174.69 143.14 174.695 141.908C174.695 139.48 176.046 138.377 177.958 139.472C178.955 140.01 179.766 140.835 180.287 141.84L179.683 142.349C179.308 141.579 178.717 140.934 177.984 140.49C176.548 139.641 175.621 140.618 175.621 142.409C175.621 143.321 175.842 144.22 176.266 145.028C176.689 145.837 177.302 146.531 178.052 147.051C178.506 147.356 179.043 147.513 179.59 147.501V145.226L178.205 144.437V143.393L180.414 144.666Z" fill="white"/>
<path d="M182.403 142.196L183.253 142.68V150.862L182.403 150.379V142.196Z" fill="white"/>
<path d="M185.488 150.412C185.733 151.089 186.2 151.664 186.813 152.042C187.366 152.356 188.054 152.288 188.054 151.389C188.054 149.504 184.978 148.91 184.978 145.727C184.978 144.76 185.59 143.783 187.094 144.641C187.894 145.079 188.527 145.768 188.895 146.601L188.207 147.034C187.996 146.474 187.604 145.999 187.094 145.685C186.159 145.15 185.879 145.727 185.879 146.236C185.879 148.307 188.955 148.825 188.955 151.771C188.955 153.358 187.986 153.757 186.788 153.069C185.892 152.548 185.191 151.749 184.791 150.794L185.488 150.412Z" fill="white"/>
<path d="M191.963 148.715L189.949 147.569V146.525L194.827 149.309V150.345L192.813 149.199V156.354L191.963 155.87V148.715Z" fill="white"/>
<path d="M196.17 150.039L200.206 152.339V153.383L197.019 151.567V154.003L199.985 155.7V156.744L197.019 155.047V157.67L200.368 159.579V160.598L196.17 158.213V150.039Z" fill="white"/>
<path d="M202.008 153.366L204.209 154.622C204.817 154.957 205.324 155.449 205.677 156.046C206.03 156.643 206.215 157.324 206.214 158.018C206.214 159.062 205.628 159.715 204.676 159.308L206.452 164.052L205.39 163.45L203.801 158.934L202.858 158.4V162.007L202.008 161.523V153.366ZM202.858 157.457L203.971 158.094C204.642 158.476 205.314 158.654 205.314 157.542C205.312 157.103 205.185 156.673 204.947 156.303C204.709 155.933 204.37 155.638 203.971 155.454L202.858 154.826V157.457Z" fill="white"/>
<path d="M134.44 110.808C133.894 112.579 133.457 114.382 133.131 116.207C133.012 117.658 136.803 127.241 136.803 127.241L138.647 113.864L136.318 110.469L134.44 110.808Z" fill="#D9D9D9"/>
<path d="M141.196 98.6874C137.797 98.0933 135.409 99.8248 135.247 103.381L134.092 110.927C134.092 110.927 135.74 112.701 137.346 112.387C138.196 112.296 138.984 111.903 139.568 111.28C140.151 110.656 140.491 109.844 140.525 108.992C140.61 106.946 141.23 102.388 141.23 102.388L140.38 102.532C140.899 100.436 141.196 98.6874 141.196 98.6874Z" fill="url(#paint12_linear_629_294)"/>
<path d="M149.482 205.974C149.533 207.417 148.113 211.916 152.209 211.916C155.388 212.298 161.991 207.052 163.877 205.974C165.764 204.896 162.577 201.934 154.665 203.861C153.323 204.429 149.482 205.974 149.482 205.974Z" fill="url(#paint13_linear_629_294)"/>
<path d="M136.097 197.749C136.148 199.192 134.729 203.691 138.825 203.691C142.003 204.073 148.606 198.827 150.493 197.749C152.379 196.671 149.193 193.701 141.281 195.636C139.93 196.247 136.097 197.749 136.097 197.749Z" fill="url(#paint14_linear_629_294)"/>
<path d="M188.207 101.514L170.089 119.619L167.412 116.767C167.412 116.767 159.305 118.184 162.118 121.393C164.931 124.601 167.701 125.959 170.956 126.265C173.675 126.511 191.581 104.561 191.581 104.561C192.768 103.734 193.768 102.666 194.514 101.428C195.261 100.189 195.738 98.8071 195.915 97.3719C195.634 96.0309 193.824 93.2299 191.844 92.9243C190.459 92.9243 189.397 96.1412 189.04 97.2786C188.683 98.416 188.19 97.5332 187.391 96.7354C186.592 95.9375 185.692 96.4722 187.06 98.7809C187.57 99.6297 187.085 100.81 188.207 101.514Z" fill="#CFCFCF"/>
<path d="M137.108 139.506L141.978 138.971L142.445 141.339L148.037 142.442L157.691 144.369L156.841 177.277L155.294 207.646C155.294 207.646 152.745 209.904 149.278 207.646C149.278 207.646 145.207 184.415 148.037 176.122C147 172.778 147.187 167.558 145.36 164.239L145.105 176.725L141.978 201.34C135.91 202.842 135.953 199.192 135.953 199.192C135.209 190.723 135.44 182.196 136.641 173.78C136.768 166.081 130.803 144.785 137.108 139.506Z" fill="url(#paint15_linear_629_294)"/>
<path d="M150.314 101.183C148.819 102.533 142.836 101.472 142.947 99.2478C141.57 98.713 140.601 98.2462 139.182 98.6112C135.834 99.4599 136.369 104.722 136.055 107.43C135.562 111.674 136.522 120.849 136.497 130.22C136.497 134.897 133.25 139.913 133.097 143.266C133.097 146.406 140.967 150.328 147.281 151.491C151.649 152.288 158.498 150.693 158.464 149.301C158.43 147.909 158.795 126.137 159.832 122.267C160.869 118.396 160.971 108.627 159.356 106.666C157.342 104.213 150.314 101.183 150.314 101.183Z" fill="url(#paint16_linear_629_294)"/>
<path d="M156.951 83.3583C158.014 85.6925 156.951 86.9232 157.053 88.6378C157.053 90.1571 158.201 96.5145 155.201 97.1851C154.046 97.4726 152.848 97.5502 151.666 97.4142L150.127 101.785C149.278 103.483 142.25 102.719 142.811 99.2391L143.151 96.175C141.553 95.4366 138.604 92.7799 138.604 87.5853C138.604 82.3907 144.17 78.2656 149.193 78.2656C154.215 78.2656 156.654 82.6878 156.951 83.3583Z" fill="#D9D9D9"/>
<path d="M152.558 89.945C151.708 89.4612 149.762 91.9057 152.303 94.1126C152.304 94.5294 152.221 94.9421 152.061 95.3268C151.901 95.7116 151.665 96.0605 151.368 96.3534C150.731 97.0494 151.903 97.1173 150.195 97.9915C148.487 98.8658 145.487 98.2462 144.91 98.4838C144.91 97.8897 143.898 98.2037 143.032 96.4892C141.859 94.9444 140.219 94.9359 138.851 91.7784C138.264 90.6686 137.933 89.442 137.882 88.1881C137.538 88.9031 137.397 89.6987 137.474 90.4883C137.474 90.4883 135.774 85.3956 139.853 82.1702C138.888 82.2592 137.985 82.6861 137.304 83.3754C137.782 82.6476 138.407 82.0272 139.139 81.5538C139.87 81.0803 140.692 80.7641 141.553 80.6254C143.176 79.8954 142.853 78.6647 146.252 78.1384C149.651 77.6122 149.473 75.295 148.929 74.3528C148.929 74.3528 150.977 75.9571 150.824 77.3066C151.2 76.519 151.348 75.6419 151.25 74.7747C151.153 73.9076 150.814 73.0851 150.272 72.4006C150.272 72.4006 153.399 73.8351 153.263 78.3421C153.644 77.2257 153.732 76.0305 153.518 74.8706C154.291 75.1252 158.617 80.6933 157.181 84.1478C155.745 87.6024 152.668 87.4496 152.753 88.604C152.838 89.7583 152.558 89.945 152.558 89.945Z" fill="url(#paint17_linear_629_294)"/>
<path d="M157.053 104.858C161.149 106.089 163.852 110.536 167.701 116.368C167.633 117.632 165.084 121.987 162.144 123.158C162.144 123.158 157.215 118.133 155.481 115.425C152.719 111.122 152.133 103.39 157.053 104.858Z" fill="url(#paint18_linear_629_294)"/>
<defs>
<linearGradient id="paint0_linear_629_294" x1="0.0270348" y1="239.544" x2="288.722" y2="239.544" gradientUnits="userSpaceOnUse">
<stop stop-color="#A90101"/>
<stop offset="1" stop-color="#F70101"/>
</linearGradient>
<linearGradient id="paint1_linear_629_294" x1="0.0270661" y1="220.488" x2="288.722" y2="220.488" gradientUnits="userSpaceOnUse">
<stop stop-color="#A20101"/>
<stop offset="0.66" stop-color="#F70101"/>
<stop offset="1" stop-color="#A70101"/>
</linearGradient>
<linearGradient id="paint2_linear_629_294" x1="0.0270348" y1="213.231" x2="288.722" y2="213.231" gradientUnits="userSpaceOnUse">
<stop stop-color="#9C0000"/>
<stop offset="1" stop-color="#FF0000"/>
</linearGradient>
<linearGradient id="paint3_linear_629_294" x1="125.679" y1="-5.25486" x2="277.362" y2="237.78" gradientUnits="userSpaceOnUse">
<stop stop-color="#A50101"/>
<stop offset="0.24" stop-color="#F50101"/>
<stop offset="0.48" stop-color="#A40101"/>
<stop offset="0.62" stop-color="#F70101"/>
<stop offset="1" stop-color="#A50101"/>
</linearGradient>
<linearGradient id="paint4_linear_629_294" x1="196.45" y1="233.5" x2="196.45" y2="2.80865" gradientUnits="userSpaceOnUse">
<stop stop-color="#F50101"/>
<stop offset="1" stop-color="#A40101"/>
</linearGradient>
<linearGradient id="paint5_linear_629_294" x1="115.388" y1="116.648" x2="278.184" y2="116.648" gradientUnits="userSpaceOnUse">
<stop stop-color="#404243"/>
<stop offset="1"/>
</linearGradient>
<linearGradient id="paint6_linear_629_294" x1="97.5928" y1="97.2616" x2="282.391" y2="97.2616" gradientUnits="userSpaceOnUse">
<stop stop-color="#AF000B"/>
<stop offset="1" stop-color="#C6445C"/>
</linearGradient>
<linearGradient id="paint7_linear_629_294" x1="97.5928" y1="77.2896" x2="284.396" y2="77.2896" gradientUnits="userSpaceOnUse">
<stop stop-color="#5FFF94"/>
<stop offset="1" stop-color="#69FFFF"/>
</linearGradient>
<linearGradient id="paint8_linear_629_294" x1="192.94" y1="79.5559" x2="198.514" y2="69.8994" gradientUnits="userSpaceOnUse">
<stop stop-color="white" stop-opacity="0.99"/>
<stop offset="0.08" stop-color="white" stop-opacity="0.78"/>
<stop offset="0.17" stop-color="white" stop-opacity="0.6"/>
<stop offset="0.26" stop-color="white" stop-opacity="0.44"/>
<stop offset="0.35" stop-color="white" stop-opacity="0.3"/>
<stop offset="0.45" stop-color="white" stop-opacity="0.19"/>
<stop offset="0.56" stop-color="white" stop-opacity="0.11"/>
<stop offset="0.67" stop-color="white" stop-opacity="0.05"/>
<stop offset="0.8" stop-color="white" stop-opacity="0.01"/>
<stop offset="1" stop-color="white" stop-opacity="0"/>
</linearGradient>
<linearGradient id="paint9_linear_629_294" x1="283.393" y1="169.96" x2="283.393" y2="130.042" gradientUnits="userSpaceOnUse">
<stop stop-color="#2ADB65"/>
<stop offset="1" stop-color="#11BECC"/>
</linearGradient>
<linearGradient id="paint10_linear_629_294" x1="282.39" y1="147.043" x2="295.027" y2="147.043" gradientUnits="userSpaceOnUse">
<stop stop-color="white" stop-opacity="0.99"/>
<stop offset="0.08" stop-color="white" stop-opacity="0.78"/>
<stop offset="0.17" stop-color="white" stop-opacity="0.6"/>
<stop offset="0.26" stop-color="white" stop-opacity="0.44"/>
<stop offset="0.35" stop-color="white" stop-opacity="0.3"/>
<stop offset="0.45" stop-color="white" stop-opacity="0.19"/>
<stop offset="0.56" stop-color="white" stop-opacity="0.11"/>
<stop offset="0.67" stop-color="white" stop-opacity="0.05"/>
<stop offset="0.8" stop-color="white" stop-opacity="0.01"/>
<stop offset="1" stop-color="white" stop-opacity="0"/>
</linearGradient>
<linearGradient id="paint11_linear_629_294" x1="158.685" y1="147.722" x2="211.169" y2="147.722" gradientUnits="userSpaceOnUse">
<stop stop-color="#A71F3D"/>
<stop offset="1" stop-color="#FF0000"/>
</linearGradient>
<linearGradient id="paint12_linear_629_294" x1="134.092" y1="105.503" x2="141.23" y2="105.503" gradientUnits="userSpaceOnUse">
<stop stop-color="#23BEE2"/>
<stop offset="1" stop-color="#0771A5"/>
</linearGradient>
<linearGradient id="paint13_linear_629_294" x1="164.396" y1="207.536" x2="149.286" y2="207.536" gradientUnits="userSpaceOnUse">
<stop stop-color="#083A63"/>
<stop offset="1" stop-color="#062638"/>
</linearGradient>
<linearGradient id="paint14_linear_629_294" x1="151.003" y1="199.303" x2="135.885" y2="199.303" gradientUnits="userSpaceOnUse">
<stop stop-color="#083A63"/>
<stop offset="1" stop-color="#062638"/>
</linearGradient>
<linearGradient id="paint15_linear_629_294" x1="157.691" y1="173.814" x2="134.211" y2="173.814" gradientUnits="userSpaceOnUse">
<stop offset="0.39" stop-color="#1A455B"/>
<stop offset="0.49" stop-color="#0F3F5E"/>
<stop offset="0.63" stop-color="#083C60"/>
<stop offset="1" stop-color="#063B60"/>
</linearGradient>
<linearGradient id="paint16_linear_629_294" x1="160.622" y1="125.127" x2="133.131" y2="125.127" gradientUnits="userSpaceOnUse">
<stop stop-color="#36DCF2"/>
<stop offset="1" stop-color="#34A8E2"/>
</linearGradient>
<linearGradient id="paint17_linear_629_294" x1="157.521" y1="85.4465" x2="137.108" y2="85.4465" gradientUnits="userSpaceOnUse">
<stop offset="1" stop-color="#3D2712"/>
</linearGradient>
<linearGradient id="paint18_linear_629_294" x1="167.693" y1="113.915" x2="153.374" y2="113.915" gradientUnits="userSpaceOnUse">
<stop stop-color="#23BEE2"/>
<stop offset="1" stop-color="#0771A5"/>
</linearGradient>
</defs>
</svg>
