<svg width="35" height="36" viewBox="0 0 35 36" fill="none" xmlns="http://www.w3.org/2000/svg">
<path d="M17.4986 35.5128C7.84982 35.5128 0 27.6629 0 18.0142C0 8.36556 7.84982 0.515625 17.4986 0.515625C27.1474 0.515625 34.9972 8.36544 34.9972 18.0142C34.9972 20.7869 34.3671 23.4395 33.1244 25.8979C32.7114 26.7149 31.7146 27.0424 30.8981 26.6293C30.0812 26.2165 29.7538 25.2196 30.1667 24.4028C31.1729 22.412 31.6831 20.2627 31.6831 18.014C31.6831 10.1926 25.32 3.82946 17.4986 3.82946C9.67713 3.82946 3.31419 10.1928 3.31419 18.0141C3.31419 25.8354 9.67701 32.1987 17.4986 32.1987C20.675 32.1987 23.677 31.173 26.1804 29.2325C26.9036 28.6717 27.9445 28.8037 28.5052 29.5267C29.066 30.25 28.934 31.2908 28.211 31.8515C25.1211 34.2466 21.4168 35.5128 17.4986 35.5128Z" fill="#000000"/>
<path d="M23.9769 12.165C22.4599 12.165 21.2256 13.3991 21.2256 14.9164C21.2256 16.4336 22.4599 17.6677 23.9769 17.6677C25.4939 17.6677 26.7283 16.4334 26.7283 14.9164C26.7283 13.3994 25.4939 12.165 23.9769 12.165Z" fill="#000000"/>
<path d="M11.0204 12.165C9.50338 12.165 8.26904 13.3991 8.26904 14.9164C8.26904 16.4336 9.50315 17.6677 11.0204 17.6677C12.5376 17.6677 13.7717 16.4334 13.7717 14.9164C13.7717 13.3994 12.5374 12.165 11.0204 12.165Z" fill="#000000"/>
<path d="M17.4987 28.7752C13.6405 28.7752 10.2427 26.4525 8.84244 22.8582C8.51033 22.0056 8.93221 21.045 9.78498 20.7128C10.6376 20.3813 11.5981 20.8025 11.9305 21.6553C12.8312 23.9672 15.0167 25.4612 17.4987 25.4612C19.9808 25.4612 22.1662 23.9672 23.067 21.6553C23.3994 20.8028 24.3602 20.3813 25.2125 20.7128C26.0652 21.045 26.487 22.0057 26.1551 22.8582C24.7548 26.4525 21.3569 28.7752 17.4987 28.7752Z" fill="#000000"/>
</svg>
