<svg width="61" height="153" viewBox="0 0 61 153" fill="none" xmlns="http://www.w3.org/2000/svg">
<path d="M21.5177 125.946C30.5882 120.685 45.2458 120.685 54.2632 125.946C63.2806 131.207 63.2276 139.503 54.1572 144.694C45.0867 149.885 30.4291 149.955 21.4117 144.694C12.3943 139.432 12.4473 131.137 21.5177 125.946Z" fill="#F5F2E8"/>
<path d="M19.5023 152.323L0 141.151L19.5023 129.98L39.0223 141.151L19.5023 152.323Z" fill="#F5F2E8"/>
<path d="M51.0203 137.148C46.7896 134.22 44.7799 134.43 44.7799 134.43C44.7799 134.43 39.4915 134.788 40.0627 131.629C40.5281 128.932 41.2261 127.268 41.3953 126.11C41.4156 125.928 41.4156 125.744 41.3953 125.562C41.2472 118.716 38.3068 107.509 39.2799 102.159C39.7692 97.9418 39.5692 93.6735 38.6876 89.52C38.6777 89.422 38.6777 89.3232 38.6876 89.2251C38.4972 88.0455 38.3069 86.8869 38.1165 85.7705C38.1284 85.6585 38.1284 85.5455 38.1165 85.4334C38.1165 84.7172 37.905 84.0221 37.8204 83.327L37.6934 82.2948C37.6934 81.6207 37.5453 80.9677 37.5242 80.3568C37.449 79.4174 37.449 78.4735 37.5242 77.5341C37.5759 77.0137 37.6751 76.499 37.8204 75.9964C39.5338 70.035 50.7242 68.392 50.7242 68.392C51.3425 75.3535 51.1009 82.3643 50.0049 89.2672C47.8654 101.803 46.6213 114.473 46.2819 127.184C46.2819 129.164 48.9049 130.807 50.1319 131.523C51.8665 132.513 55.2299 134.746 55.2299 134.746C55.2299 134.746 55.2723 140.076 51.0203 137.148Z" fill="#9C9EDB"/>
<g style="mix-blend-mode:multiply">
<path d="M40.8665 82.1894C41.3297 87.4985 41.471 92.8306 41.2896 98.1566C40.9511 105.761 40.4857 105.171 41.0357 110.585C41.7527 115.528 42.1906 120.507 42.3473 125.499C42.0511 127.247 40.3376 130.786 40.4011 133.082C40.135 132.655 40.0441 132.142 40.1472 131.65C40.5703 128.953 41.2472 127.289 41.3953 126.11C41.4156 125.928 41.4156 125.744 41.3953 125.562C41.2472 118.716 38.3068 107.509 39.2799 102.159C39.7692 97.9417 39.5692 93.6735 38.6876 89.52C38.6777 89.4219 38.6777 89.3231 38.6876 89.2251C38.4972 88.0455 38.3069 86.8869 38.1165 85.7705C38.1284 85.6584 38.1284 85.5454 38.1165 85.4334C38.1165 84.7172 37.905 84.0221 37.8204 83.3269L37.6934 82.2947C37.6934 81.6207 37.5453 80.9677 37.5242 80.3568C37.449 79.4174 37.449 78.4735 37.5242 77.5341C39.5526 76.7944 41.7159 76.4928 43.8703 76.6494C43.9069 77.3472 43.8042 78.0453 43.5682 78.7033C43.3322 79.3614 42.9676 79.9663 42.4954 80.4832C41.1415 82.3158 40.8665 82.1894 40.8665 82.1894Z" fill="#E8D0C8"/>
</g>
<path d="M47.5301 129.628C48.5243 129.333 49.5185 130.744 50.2166 131.355C52.127 132.43 53.9707 133.619 55.7377 134.915C55.972 135.518 56.052 136.169 55.9705 136.811C55.3715 137.43 54.6029 137.86 53.7603 138.047C52.9177 138.234 52.0385 138.171 51.232 137.864C48.5455 136.895 47.5724 135.989 45.7743 135.547C43.9762 135.104 40.4436 134.388 39.9993 133.44C39.7548 132.047 39.7548 130.621 39.9993 129.227C39.9993 129.227 40.5705 129.017 40.782 129.396C41.397 130.271 42.2581 130.945 43.257 131.334C44.1484 131.534 45.0733 131.534 45.9647 131.334C45.9647 131.081 45.8166 130.828 45.9647 130.618C46.1138 130.466 46.285 130.339 46.4724 130.238C46.696 130.051 46.929 129.875 47.1705 129.712C47.2819 129.656 47.4052 129.627 47.5301 129.628Z" fill="#5C6467"/>
<path d="M42.9395 79.0719C42.2465 79.9031 41.3607 80.5537 40.3587 80.9678C40.3587 80.9678 39.2799 101.569 37.4184 106.077C35.5568 110.585 34.0125 127.142 34.0549 127.942C34.148 130.917 35.3554 133.75 37.4395 135.884C40.676 139.044 42.0934 139.655 42.0511 140.097C41.7019 140.969 41.0528 141.689 40.2198 142.129C39.3867 142.569 38.4239 142.7 37.5029 142.498C34.4568 141.993 33.6107 141.782 32.1299 140.223C30.6491 138.664 29.0837 137.611 28.851 136.389C28.6183 135.168 29.676 132.766 29.0414 130.47C29.0414 130.47 29.0414 130.196 28.9357 130.028C28.9459 129.979 28.9459 129.929 28.9357 129.88C28.9357 129.733 28.9357 129.543 28.8299 129.354C28.8299 128.827 28.6607 128.216 28.5549 127.5C27.7279 121.738 27.3389 115.921 27.3914 110.1C28.3433 101.675 29.2953 102.559 29.0203 100.179C28.7453 97.7986 24.7895 85.8548 25.0645 72.1627C25.0611 71.8457 25.1414 71.5333 25.2972 71.2569C27.2857 67.3388 43.5318 71.2569 43.5318 71.2569C43.5318 71.2569 44.3991 77.1972 42.9395 79.0719Z" fill="#9C9EDB"/>
<path d="M30.4591 133.124C26.5668 115.072 29.1898 106.288 30.1629 102.981C30.2796 102.649 30.3785 102.311 30.4591 101.969C29.9196 97.6251 29.0427 93.3291 27.836 89.1198C27.3495 87.0134 26.9052 85.286 26.736 84.4224C26.4063 80.4287 26.3356 76.4181 26.5244 72.4154H27.0533C26.8654 76.376 26.936 80.3445 27.2648 84.296C27.4341 85.1596 27.8572 86.9291 28.3649 88.9724C29.9091 95.2918 31.1994 100.79 30.9668 102.033C30.8909 102.397 30.792 102.755 30.6706 103.107C29.6976 106.393 27.1168 115.072 30.9668 132.998L30.4591 133.124Z" fill="#B0B2FF"/>
<g style="mix-blend-mode:multiply">
<path d="M30.7127 138.875C29.9404 138.313 29.3518 137.536 29.0204 136.642C28.7877 135.42 29.7819 133.019 29.0204 130.723V130.533C29.0204 130.533 29.0204 130.259 28.9146 130.091C28.9249 130.042 28.9249 129.992 28.9146 129.943C28.9146 129.775 28.9146 129.606 28.8089 129.417C28.8089 128.89 28.6396 128.279 28.5338 127.563C27.7068 121.801 27.3179 115.984 27.3704 110.164C28.3223 101.738 29.2742 102.622 28.9992 100.242C28.7242 97.8617 24.7685 85.9179 25.0435 72.2257C25.0401 71.9087 25.1203 71.5964 25.2761 71.3199L26.355 71.6149C25.9174 75.4151 25.9174 79.2528 26.355 83.0531C27.0954 89.52 30.0569 100.179 30.0569 101.506C28.8538 105.479 28.1921 109.596 28.0896 113.745C28.0896 120.843 30.205 130.87 30.205 132.303C29.8037 133.369 29.6413 134.51 29.729 135.645C29.8167 136.78 30.1524 137.882 30.7127 138.875Z" fill="#E8D0C8"/>
</g>
<path d="M37.0376 134.789C36.4903 134.642 35.9138 134.642 35.3665 134.789C34.7157 134.933 34.084 135.152 33.4838 135.442C32.8703 135.715 32.8491 135.947 32.8915 136.516C32.1088 136.137 29.9299 135.062 29.5915 134.241C29.4067 133.502 29.2934 132.747 29.253 131.987C29.1203 132.388 29.049 132.807 29.0414 133.23C28.9357 134.22 28.703 136.748 28.7453 137.443C28.7876 138.138 32.3414 141.003 33.3357 141.656C35.244 143.372 37.7461 144.286 40.3165 144.205C43.8915 144.331 43.6799 141.887 43.6587 141.319C42.3287 139.728 40.8004 138.312 39.1107 137.106C38.5604 136.601 38.0961 136.01 37.7357 135.357C37.5691 135.099 37.3247 134.9 37.0376 134.789Z" fill="#5C6467"/>
<path d="M32.7012 3.38581C32.6486 2.74515 32.4287 2.12932 32.0632 1.59944C31.6978 1.06956 31.1995 0.644045 30.6179 0.365122C30.0364 0.0861981 29.3917 -0.0364404 28.7478 0.00937709C28.1039 0.0551946 27.4832 0.267877 26.9474 0.626315C24.1762 1.99553 21.1724 6.77726 24.7051 14.3817C25.7642 16.5774 26.2606 19.0002 26.1499 21.4337C26.0391 23.8671 25.3248 26.2353 24.0705 28.3266C26.5044 27.997 28.8404 27.157 30.9243 25.862C32.7224 24.1768 32.1513 22.7023 31.9186 17.4361C31.8988 12.7413 32.1601 8.04958 32.7012 3.38581Z" fill="url(#paint0_linear_960_169)"/>
<path d="M43.52 24.3632C43.52 24.3632 44.1742 31.01 44.8638 37.5866C45.465 43.374 46.1014 49.1088 46.3136 50.2137C46.8087 52.5287 52.3075 64.6296 52.7849 65.9976C52.874 66.3494 52.9391 66.7068 52.9795 67.0673C53.1116 68.2739 53.1116 69.4911 52.9795 70.6976C52.8557 71.7148 52.5904 72.4514 52.1838 72.5742C51.1406 72.7496 51.1937 73.1003 51.2113 73.2406C51.229 73.3809 52.4313 73.3984 52.4313 73.3984C52.4313 73.3984 51.0699 73.8895 50.9284 74.2753C50.787 74.6611 51.5473 74.7313 51.5473 74.7313C51.5473 74.7313 50.9284 75.4503 51.1759 75.5731C51.6929 75.631 52.2149 75.631 52.7319 75.5731C52.5529 75.7533 52.4037 75.9605 52.2899 76.1869C52.2899 76.3097 52.2899 76.4325 52.502 76.5201C52.6455 76.6088 52.8105 76.6572 52.9795 76.6604C53.8347 76.4386 54.6556 76.1023 55.4195 75.6608C55.9248 74.4484 56.3558 73.2068 56.7101 71.9428C56.6272 70.6275 56.414 69.3234 56.0737 68.0495C55.5727 65.7676 55.2417 63.4522 55.0835 61.1221C54.3325 55.7144 53.1139 50.3809 51.4412 45.1804C50.84 44.4263 49.6731 35.7101 48.4354 29.9753C47.1977 24.2405 43.52 24.3632 43.52 24.3632Z" fill="#FEBFBF"/>
<path d="M53.6691 71.9604C53.4771 72.5264 53.3698 73.1172 53.3508 73.7141C53.3508 74.3981 53.3509 75.4679 52.8204 75.5556C52.29 75.6433 51.9364 75.5556 51.9364 74.8541C51.92 74.0507 51.9672 73.2474 52.0778 72.4514C52.0778 71.9604 51.7949 70.2066 51.8833 69.4349C51.9717 68.6633 52.3607 67.0849 53.3331 66.9095C54.3056 66.7341 54.6416 67.6812 54.6946 68.4528C54.6288 69.415 54.4141 70.3615 54.0581 71.2589L53.6691 71.9604Z" fill="#FEC7C6"/>
<path d="M51.5119 74.7488C51.5119 74.7488 50.8931 75.4678 51.1406 75.5906C51.6576 75.6485 52.1795 75.6485 52.6965 75.5906C52.5175 75.7709 52.3684 75.978 52.2545 76.2044C52.2545 76.3272 52.2545 76.45 52.4667 76.5377C52.563 76.3552 52.6883 76.1894 52.838 76.0466C53.1209 75.8712 53.3861 75.9589 53.7574 75.7835C54.0584 75.5914 54.317 75.3408 54.5177 75.0469L55.1189 73.2932C55.1189 73.2932 54.8182 72.6969 54.4823 71.9253C54.2663 71.4379 54.1463 70.9141 54.1287 70.382C53.73 70.4292 53.3345 70.4995 52.9441 70.5924C52.8203 71.6096 52.5551 72.3461 52.1484 72.4689C51.1052 72.6443 51.1583 72.995 51.1759 73.1354C51.1936 73.2757 52.3959 73.2932 52.3959 73.2932C52.3959 73.2932 51.0345 73.7842 50.893 74.1701C50.7516 74.5559 51.5119 74.7488 51.5119 74.7488Z" fill="#FA9698"/>
<path d="M44.8638 37.5865C45.4649 43.374 46.1014 49.1088 46.3136 50.2137C46.8087 52.5286 52.3075 64.6296 52.7849 65.9975C52.874 66.3494 52.939 66.7067 52.9794 67.0673C53.336 66.3512 53.5349 65.5681 53.5629 64.7699C53.4568 63.5598 49.2487 54.0018 48.4176 51.0555C47.5866 48.1091 45.4649 37.9373 45.4649 37.9373C45.274 37.8052 45.073 37.6879 44.8638 37.5865Z" fill="#FA9698"/>
<path d="M42.2291 23.0128C43.3019 22.9403 44.3731 23.1765 45.314 23.6928C46.2548 24.2092 47.0255 24.984 47.5334 25.9241C49.4784 29.2562 51.0697 40.7258 51.0697 40.7258C51.0697 40.7258 49.4784 43.3214 43.9972 43.7423C38.516 44.1632 42.2291 23.0128 42.2291 23.0128Z" fill="#EB66FF"/>
<path d="M51.719 42.9037C51.7731 43.8822 51.5843 44.8589 51.169 45.7474L50.9151 46.2951C50.6189 46.906 50.2594 47.6222 49.8786 48.5701C48.8209 51.3085 51.0421 67.9709 50.7036 69.1716C50.3652 70.3722 49.9421 71.4676 44.7594 73.0264C38.8722 74.7211 32.6234 74.7211 26.7363 73.0264C26.1414 72.8028 25.5737 72.5131 25.044 72.1628C25.044 72.1628 26.1651 60.4296 25.8901 56.0481C25.3765 52.8844 24.4224 49.8074 23.0555 46.906L22.8652 46.4426C21.9822 44.3885 21.24 42.2772 20.644 40.1231C18.5286 31.0441 21.9344 29.9698 24.7055 27.8633C26.9416 26.2067 29.5103 25.0499 32.2363 24.4719C35.4351 23.5955 38.7182 23.0589 42.0305 22.871C43.2786 22.9974 46.8536 24.7879 48.3767 30.1805C49.6882 34.8569 51.1055 38.796 51.5709 41.5134C51.6475 41.8956 51.697 42.2828 51.719 42.672C51.7246 42.7491 51.7246 42.8265 51.719 42.9037Z" fill="#F370FF"/>
<g style="mix-blend-mode:multiply">
<path d="M50.7453 69.1925C50.4068 70.3721 49.9837 71.4886 44.801 73.0474C38.9139 74.7421 32.6651 74.7421 26.778 73.0474C26.1831 72.8237 25.6154 72.534 25.0856 72.1837C25.0856 72.1837 26.2068 60.4506 25.9318 56.0691C25.4181 52.9053 24.4641 49.8283 23.0972 46.9269C23.9222 42.5876 25.2125 39.3646 27.0529 39.1751C32.6375 38.5852 27.2011 50.4658 34.8376 50.8029C41.8818 51.1188 41.5645 48.4225 44.9279 47.9381C48.6722 47.4114 50.4491 47.1165 51.2741 45.8316C50.9356 46.5899 50.4914 47.4114 49.9837 48.6543C48.8203 51.3295 51.0414 67.9918 50.7453 69.1925Z" fill="white"/>
</g>
<g style="mix-blend-mode:multiply">
<path d="M42.0301 67.5074L28.8936 60.2189C28.8936 60.2189 27.1167 60.8298 26.9051 65.0217C26.7571 67.8444 27.0532 70.7092 26.7359 73.0264C26.141 72.8027 25.5733 72.513 25.0436 72.1627C25.0436 72.1627 26.1647 60.4296 25.8897 56.0481C25.3363 52.7214 23.4533 48.0457 22 45C25.3635 41.419 28.5 38.5 28.5 38.5C28.8968 41.0637 30.1515 45.0782 30.8397 47.58C32.0666 51.5402 39.3013 50.5291 42.0301 49.0967C40.4324 49.9807 38.6709 50.5318 36.8526 50.7165C35.0343 50.9012 33.1972 50.7156 31.4532 50.171C31.7422 52.4127 31.8271 54.6759 31.707 56.9328L42.0301 67.5074Z" fill="#E79BF2"/>
</g>
<path d="M39.4917 16.8462C39.4349 19.5595 39.5267 22.2739 39.7667 24.9773C40.1052 27.2101 40.8456 28.5162 38.3283 29.3377C34.9588 29.3859 31.7032 28.1239 29.2533 25.8199C29.0629 25.5039 29.6552 25.1247 30.1629 23.3763C30.83 21.4476 31.1243 19.4106 31.0302 17.3728C31.0302 13.9393 31.1783 10.7795 31.1783 10.7795L39.4917 16.8462Z" fill="#FFADB7"/>
<path d="M39.809 25.1248C39.2298 25.1568 38.6495 25.0855 38.0956 24.9141C34.6686 24.0505 33.7379 23.8819 32.7014 24.9141C31.6648 25.9463 32.0456 27.0206 33.209 28.2845C31.719 27.7435 30.3679 26.8802 29.2533 25.7567C29.0629 25.4618 29.6552 25.0616 30.1629 23.3132C30.834 21.3855 31.1284 19.3476 31.0302 17.3097V15.6666L39.6186 23.4817C39.6186 24.0504 39.6187 24.556 39.7667 24.9352C39.7706 25.0002 39.7849 25.0642 39.809 25.1248Z" fill="url(#paint1_linear_960_169)"/>
<path d="M35.9387 0.478982C35.9387 0.478982 41.6291 1.65862 43.1099 5.99798C44.5906 10.3373 44.3579 10.5059 44.2521 12.3174C44.4632 14.648 44.3993 16.9952 44.0617 19.311C43.3848 22.1337 42.7291 24.5351 41.4387 24.9564C39.1982 24.9385 36.9972 24.3671 35.0331 23.2936C33.0689 22.2201 31.4031 20.6779 30.1848 18.8054C27.5195 13.813 24.981 9.2209 27.0329 4.58663C27.9045 3.06509 29.2305 1.85185 30.8267 1.11566C32.4228 0.379461 34.2096 0.156917 35.9387 0.478982Z" fill="#FEBFBF"/>
<path d="M26.5877 4.92375C27.6665 2.10106 29.0627 1.55337 29.0627 1.55337C30.505 0.422037 32.3358 -0.0999274 34.1608 0.0999001C37.209 0.152152 40.1192 1.37471 42.2839 3.51241C44.3992 5.72422 43.4685 6.90385 43.4685 6.90385C43.4269 6.80168 43.3652 6.70888 43.2869 6.63097C43.2086 6.55306 43.1153 6.49163 43.0127 6.45036C42.9101 6.40908 42.8001 6.3888 42.6895 6.39071C42.5788 6.39262 42.4696 6.41669 42.3685 6.46149C41.4166 6.84065 41.0146 7.57792 40.2531 7.85177C34.7108 9.8108 33.6108 8.33626 33.1454 10.864C32.68 13.3918 32.4473 14.3397 31.2838 13.9395C29.4435 13.3076 29.507 13.7078 28.6185 14.9506C28.9614 16.1752 29.3781 17.3781 29.8666 18.5527C29.8666 18.5527 29.8666 19.7324 27.7512 15.056C26.7924 13.568 26.189 11.8809 25.9873 10.1245C25.7856 8.36798 25.991 6.58883 26.5877 4.92375Z" fill="#FF6D67"/>
<path d="M30.5859 14.5922C30.3606 14.1165 29.974 13.7353 29.4941 13.5156C29.0143 13.2959 28.472 13.252 27.9628 13.3915C26.1224 13.8971 26.482 15.9614 28.4282 17.8152C30.3743 19.6689 30.882 17.4781 30.9666 17.3517C31.0512 17.2253 30.1205 15.8561 30.5859 14.5922Z" fill="url(#paint2_linear_960_169)"/>
<path d="M29.93 14.803C29.93 14.803 29.1261 13.8551 28.3435 14.2764C27.1377 14.9083 28.8723 16.8884 29.0415 17.1202C29.2107 17.3519 30.0992 17.2887 30.205 16.6778C30.3108 16.0669 29.3165 15.5824 29.93 14.803Z" fill="url(#paint3_linear_960_169)"/>
<path d="M32.8495 12.3594C32.568 13.5954 32.4824 14.8676 32.5957 16.13C32.6901 17.3674 32.5465 18.6114 32.1726 19.7953C32.3553 18.6085 32.3553 17.401 32.1726 16.2142C31.813 14.9082 31.136 14.1078 31.2206 13.4758C31.3052 12.8439 32.8495 12.3594 32.8495 12.3594Z" fill="#FF6D67"/>
<path d="M20.5791 74.4647L35.4843 65.9238V48.965L20.5791 57.5058V74.4647Z" fill="#C99A6B"/>
<path d="M35.4843 48.965L20.5791 57.5058L28.624 53.2266L35.4843 48.965Z" fill="#87623F"/>
<path d="M20.579 74.4647L5.67383 65.9238V48.965L20.579 57.5058V74.4647Z" fill="#AE835B"/>
<path d="M20.579 57.5058L5.67383 48.965L20.579 40.4242L35.4843 48.965L20.579 57.5058Z" fill="#E8B687"/>
<path d="M27.2979 60.3645L29.6848 58.979V52.2797L27.2979 53.6476V60.3645Z" fill="#D9AF84"/>
<path d="M27.2978 53.6475L12.3926 45.1067L14.7795 43.7388L29.6848 52.2796L27.2978 53.6475Z" fill="#EBCBAB"/>
<path d="M5.67383 48.965L20.579 57.5058L12.5341 53.2266L5.67383 48.965Z" fill="#87623F"/>
<path d="M14.1077 60.5048L11.7207 59.1368V52.4199L14.1077 53.8054V60.5048Z" fill="#9C754E"/>
<g style="mix-blend-mode:screen">
<path d="M14.1077 53.8054L29.0129 45.2646L26.6259 43.8792L11.7207 52.42L14.1077 53.8054Z" fill="#54493E"/>
</g>
<path d="M12.9936 53.1565L27.9165 44.6332L27.7397 44.528L12.8345 53.0688L12.9936 53.1565Z" fill="#D1A986"/>
<path d="M14.1077 53.8054V54.0685L12.6578 53.2968L11.7207 52.7181V52.4199L14.1077 53.8054Z" fill="#AE835B"/>
<path d="M28.6239 53.2267L27.2979 53.9282V53.6476L29.6848 52.2797V52.5603L28.6239 53.2267Z" fill="#AE835B"/>
<path d="M22.807 29.9893C22.807 29.9893 5.12582 47.5269 5.00205 48.8072C4.87828 50.0874 10.3948 68.7299 10.7307 70.2382C11.0172 71.5559 11.739 72.7409 12.7818 73.6054C13.6658 74.2894 18.2099 77.1129 19.1647 76.9901C19.6736 76.9628 20.1641 76.7925 20.5792 76.4991C21.5089 76.1289 22.3976 75.6647 23.2313 75.1136C23.5849 74.6927 24.2392 73.7282 24.1331 73.2196C24.027 72.711 20.5969 74.6752 20.3847 74.6927C20.1725 74.7103 17.7856 72.3602 16.4595 71.343C15.1334 70.3258 14.8151 70.7117 14.4615 68.5896C14.1079 66.4676 12.3397 51.6132 12.5519 50.8065C12.7641 49.9997 19.8012 45.6504 23.8325 42.1604C27.8638 38.6704 29.1368 36.4607 28.0229 33.2338C26.909 30.0069 24.805 28.5512 22.807 29.9893Z" fill="#FEBFBF"/>
<path d="M15.3278 70.9571C15.3278 70.9571 14.6559 71.6411 15.7698 72.7109C16.1847 73.1398 16.6851 73.4782 17.2392 73.7047C17.7932 73.9312 18.3888 74.0407 18.9878 74.0262C19.5914 74.0792 20.1857 74.2088 20.7559 74.412C20.7559 74.412 21.8522 75.4818 22.5241 75.4468C23.1959 75.4117 23.2843 74.7102 23.0722 74.2191C22.86 73.7281 21.3041 72.9564 21.1449 72.7986C20.9858 72.6407 18.8817 71.2027 18.4751 71.0448C18.0684 70.887 15.982 70.3433 15.3278 70.9571Z" fill="#FEC7C6"/>
<path d="M12.6753 39.7929C15.0288 42.0249 17.5144 44.1156 20.119 46.0538C21.4805 46.7027 28.1993 39.9682 28.8535 38.9335C29.3452 38.2062 29.6812 37.3866 29.8408 36.5254C30.0003 35.6641 29.9801 34.7796 29.7812 33.9265C29.5823 33.0733 29.2091 32.2697 28.6846 31.5654C28.1601 30.861 27.4955 30.2709 26.7318 29.8315C25.8562 29.2517 24.7919 29.0217 23.7524 29.1876C22.7129 29.3534 21.775 29.903 21.1269 30.7259C20.1898 31.48 12.6753 39.7929 12.6753 39.7929Z" fill="#EB66FF"/>
<path d="M19.5713 61.7324L16.1411 59.7682V55.8749L19.5713 57.8391V61.7324ZM16.371 59.6455L19.3415 61.3992V58.0145L16.371 56.2607V59.6455Z" fill="#87623F"/>
<path d="M18.2452 60.4873L17.4849 60.0488V58.0846L18.2452 58.523V60.4873Z" fill="#87623F"/>
<path d="M18.97 59.3122L16.7422 58.032L17.8561 57.3304L18.97 59.3122Z" fill="#87623F"/>
<defs>
<linearGradient id="paint0_linear_960_169" x1="26.8839" y1="23.5449" x2="29.1495" y2="-1.20807" gradientUnits="userSpaceOnUse">
<stop offset="0.12" stop-color="#F7413E"/>
<stop offset="0.99" stop-color="#FF6D67"/>
</linearGradient>
<linearGradient id="paint1_linear_960_169" x1="33.0398" y1="22.934" x2="38.7428" y2="30.1616" gradientUnits="userSpaceOnUse">
<stop offset="0.12" stop-color="#FCA4B5"/>
<stop offset="0.99" stop-color="#FFADB7"/>
</linearGradient>
<linearGradient id="paint2_linear_960_169" x1="31.4743" y1="16.8883" x2="25.6865" y2="14.258" gradientUnits="userSpaceOnUse">
<stop offset="0.12" stop-color="#FEB9B8"/>
<stop offset="1" stop-color="#FFDEDE"/>
</linearGradient>
<linearGradient id="paint3_linear_960_169" x1="28.5761" y1="14.803" x2="30.1965" y2="16.874" gradientUnits="userSpaceOnUse">
<stop offset="0.12" stop-color="#FCA4B5"/>
<stop offset="0.99" stop-color="#FFADB7"/>
</linearGradient>
</defs>
</svg>
