<svg width="60" height="46" viewBox="0 0 60 46" fill="none" xmlns="http://www.w3.org/2000/svg">
<path d="M13.6737 34.5244C10.5288 34.5244 7.97754 37.0749 7.97754 40.2197C7.97754 43.3662 10.5288 45.9167 13.6737 45.9167C16.8195 45.9167 19.3699 43.3662 19.3699 40.2197C19.3698 37.0749 16.8193 34.5244 13.6737 34.5244ZM13.6737 42.7845C12.258 42.7845 11.1105 41.6362 11.1105 40.2197C11.1105 38.8049 12.258 37.6574 13.6737 37.6574C15.0893 37.6574 16.2368 38.8049 16.2368 40.2197C16.2367 41.6362 15.0892 42.7845 13.6737 42.7845Z" fill="black"/>
<path d="M47.3203 34.5244C44.1755 34.5244 41.625 37.0749 41.625 40.2197C41.625 43.3662 44.1755 45.9167 47.3203 45.9167C50.466 45.9167 53.0163 43.3662 53.0163 40.2197C53.0163 37.0749 50.466 34.5244 47.3203 34.5244ZM47.3203 42.7845C45.9055 42.7845 44.758 41.6362 44.758 40.2197C44.758 38.8049 45.9055 37.6574 47.3203 37.6574C48.7358 37.6574 49.8833 38.8049 49.8833 40.2197C49.8833 41.6362 48.7358 42.7845 47.3203 42.7845Z" fill="black"/>
<path d="M23.4524 8.07324H10.6057C10.1884 8.07324 9.79043 8.25863 9.52406 8.58078L0.327188 19.6155C0.115547 19.8677 0 20.1871 0 20.5177V30.1968V35.258C0 36.0371 0.631523 36.6677 1.40977 36.6677H5.72742C7.08984 33.6325 10.1361 31.5086 13.6739 31.5086C17.2125 31.5086 20.2579 33.6325 21.6204 36.6677H24.8631V9.48301C24.8629 8.70383 24.2305 8.07324 23.4524 8.07324ZM5.14816 20.6627C5.14816 20.3288 5.26277 20.005 5.47359 19.7463L11.345 12.5165C11.6216 12.1759 12.0364 11.9786 12.4739 11.9786H18.2258C19.0283 11.9786 19.6794 12.6295 19.6794 13.433V21.6375C19.6794 22.4401 19.0284 23.0911 18.2258 23.0911H6.60164C5.79891 23.0911 5.14805 22.4402 5.14805 21.6375L5.14816 20.6627Z" fill="black"/>
<path d="M28.5391 32.7031C28.1007 32.7031 27.7466 33.0582 27.7466 33.4965V35.8757C27.7466 36.3134 28.1007 36.6683 28.5391 36.6683H39.375C40.1229 35.0032 41.3756 33.6187 42.9397 32.7031H28.5391Z" fill="black"/>
<path d="M59.1072 32.7031H51.7021C53.267 33.6188 54.5198 35.0032 55.2669 36.6683H59.1073C59.5457 36.6683 59.9007 36.3134 59.9007 35.8757V33.4965C59.9006 33.0582 59.5456 32.7031 59.1072 32.7031Z" fill="black"/>
<path d="M58.3086 0.0839844H29.5361C28.6029 0.0839844 27.8457 0.841016 27.8457 1.77523V28.342C27.8457 29.2762 28.6029 30.0332 29.5361 30.0332H58.3086C59.2427 30.0332 59.9998 29.2762 59.9998 28.342V1.77523C59.9998 0.841016 59.2427 0.0839844 58.3086 0.0839844ZM53.7034 8.71414H34.143C33.7046 8.71414 33.3495 8.35836 33.3495 7.9216V6.3357C33.3495 5.8973 33.7046 5.54234 34.143 5.54234H53.7034C54.1411 5.54234 54.4959 5.8973 54.4959 6.3357V7.9216C54.4959 8.35836 54.1411 8.71414 53.7034 8.71414ZM34.143 13.4728H53.7034C54.1411 13.4728 54.4959 13.8268 54.4959 14.2653V15.852C54.4959 16.2888 54.1411 16.6446 53.7034 16.6446H34.143C33.7046 16.6446 33.3495 16.2888 33.3495 15.852V14.2653C33.3495 13.8268 33.7046 13.4728 34.143 13.4728ZM34.143 21.4031H53.7034C54.1411 21.4031 54.4959 21.7572 54.4959 22.1956V23.7815C54.4959 24.2183 54.1411 24.5749 53.7034 24.5749H34.143C33.7046 24.5749 33.3495 24.2182 33.3495 23.7815V22.1956C33.3495 21.7572 33.7046 21.4031 34.143 21.4031Z" fill="black"/>
</svg>
