<svg width="31" height="25" viewBox="0 0 31 25" fill="none" xmlns="http://www.w3.org/2000/svg">
<path d="M30.6862 5.79305L20.2721 0.0746775C20.0907 -0.0248925 19.8707 -0.0248925 19.6893 0.0746775L15.7732 2.22504C15.6847 2.24964 15.6022 2.29481 15.5322 2.35725L9.27527 5.79305C9.08157 5.89948 8.96118 6.10288 8.96118 6.32378V7.56167H1.97559C1.64116 7.56167 1.37012 7.83297 1.37012 8.16717C1.37012 8.50157 1.64116 8.77257 1.97559 8.77257H8.96118V10.9523H5.48991C5.15548 10.9523 4.88444 11.2236 4.88444 11.5578C4.88444 11.8922 5.15548 12.1633 5.48991 12.1633H8.96118V15.3117H3.87524C3.54082 15.3117 3.26978 15.583 3.26978 15.9172C3.26978 16.2516 3.54082 16.5226 3.87524 16.5226H8.96118V17.7608C8.96118 17.9817 9.08157 18.1851 9.27527 18.2915L19.6893 24.0099C19.7802 24.0598 19.8804 24.0846 19.9807 24.0846C20.081 24.0846 20.1813 24.0598 20.2721 24.0099L30.6862 18.2915C30.8799 18.1851 31.0002 17.9817 31.0002 17.7608V15.0494C31.0002 14.7152 30.7292 14.444 30.3948 14.444C30.0603 14.444 29.7893 14.7152 29.7893 15.0494V17.4025L20.5862 22.456V12.4005L23.513 10.7934V13.3439C23.513 13.5582 23.6261 13.7564 23.8103 13.8652C23.9051 13.9213 24.0118 13.9494 24.1185 13.9494C24.2188 13.9494 24.3193 13.9246 24.4103 13.8744L26.6421 12.6462C26.8353 12.5398 26.9554 12.3366 26.9554 12.1157V8.90317L29.7893 7.34717V10.2057C29.7893 10.5401 30.0603 10.8111 30.3948 10.8111C30.7292 10.8111 31.0002 10.5401 31.0002 10.2057V6.32378C31.0002 6.10288 30.8799 5.89948 30.6862 5.79305ZM19.3752 22.456L10.1721 17.4025V7.34717L19.3752 12.4005V22.456ZM19.9807 11.3516L10.8247 6.32378L13.7023 4.74365L22.8586 9.77137L19.9807 11.3516ZM24.1166 9.08057L14.9603 4.0528L15.9529 3.50788L25.109 8.53567L24.1166 9.08057ZM25.7445 11.7579L24.7239 12.3196V10.1286L25.7445 9.56797V11.7579ZM26.367 7.84477L17.2109 2.81703L19.9807 1.29626L29.1368 6.32378L26.367 7.84477Z" fill="#FF0000"/>
<path d="M30.3945 12.0223C30.2354 12.0223 30.079 12.0864 29.9664 12.1997C29.8539 12.3123 29.7891 12.4679 29.7891 12.6278C29.7891 12.787 29.8539 12.9433 29.9664 13.0559C30.079 13.1684 30.2354 13.2332 30.3945 13.2332C30.5537 13.2332 30.71 13.1684 30.8226 13.0559C30.9352 12.9433 31 12.787 31 12.6278C31 12.4679 30.9352 12.3123 30.8226 12.1997C30.71 12.0864 30.5537 12.0223 30.3945 12.0223Z" fill="#FF0000"/>
<path d="M1.47323 15.3117H0.60547C0.271042 15.3117 0 15.583 0 15.9172C0 16.2516 0.271042 16.5227 0.60547 16.5227H1.47323C1.80766 16.5227 2.0787 16.2516 2.0787 15.9172C2.0787 15.583 1.80766 15.3117 1.47323 15.3117Z" fill="#FF0000"/>
<path d="M3.67383 11.5578C3.67383 11.3987 3.60902 11.2426 3.49621 11.13C3.38363 11.0172 3.22753 10.9524 3.06836 10.9524C2.90895 10.9524 2.75285 11.0172 2.64027 11.13C2.52699 11.2426 2.46289 11.3987 2.46289 11.5578C2.46289 11.7172 2.52699 11.8733 2.64027 11.9859C2.75285 12.0985 2.90895 12.1633 3.06836 12.1633C3.22753 12.1633 3.38363 12.0987 3.49621 11.9859C3.60902 11.8733 3.67383 11.7172 3.67383 11.5578Z" fill="#FF0000"/>
</svg>
