<svg width="15" height="14" viewBox="0 0 15 14" fill="none" xmlns="http://www.w3.org/2000/svg">
<path d="M12.1738 4.71823V10.3053C12.1738 11.6221 12.1738 12.2806 11.7647 12.6897C11.3556 13.0988 10.6971 13.0988 9.38028 13.0988H8.6819H5.88838H5.19C3.87312 13.0988 3.21468 13.0988 2.80559 12.6897C2.39648 12.2806 2.39648 11.6221 2.39648 10.3053V4.71823" stroke="#FF0000" stroke-linejoin="round"/>
<path d="M1 6.11499L4.14271 3.32147L6.35748 1.35281C6.88664 0.882398 7.68419 0.882398 8.21335 1.35281L10.4281 3.32147L13.5708 6.11499" stroke="#FF0000" stroke-linecap="round" stroke-linejoin="round"/>
<path d="M5.88867 13.0988V10.3053C5.88867 9.53384 6.514 8.90851 7.28543 8.90851C8.05686 8.90851 8.68219 9.53384 8.68219 10.3053V13.0988" stroke="#FF0000" stroke-linecap="round" stroke-linejoin="round"/>
</svg>
