<svg width="60" height="60" viewBox="0 0 60 60" fill="none" xmlns="http://www.w3.org/2000/svg">
<path d="M60 0H0V60H60V0Z" fill="white" fill-opacity="0.01"/>
<path fill-rule="evenodd" clip-rule="evenodd" d="M30 55C43.8071 55 55 43.8071 55 30C55 16.1929 43.8071 5 30 5C16.1929 5 5 16.1929 5 30C5 43.8071 16.1929 55 30 55Z" stroke="black" stroke-width="3" stroke-linecap="round" stroke-linejoin="round"/>
<path d="M5 30H55" stroke="black" stroke-width="3" stroke-linecap="round" stroke-linejoin="round"/>
<path fill-rule="evenodd" clip-rule="evenodd" d="M30 55C35.5229 55 40 43.8071 40 30C40 16.1929 35.5229 5 30 5C24.4771 5 20 16.1929 20 30C20 43.8071 24.4771 55 30 55Z" stroke="black" stroke-width="3" stroke-linecap="round" stroke-linejoin="round"/>
<path d="M12.3224 12.6776C16.8465 17.2017 23.0965 20 30 20C36.9036 20 43.1536 17.2017 47.6778 12.6776" stroke="black" stroke-width="3" stroke-linecap="round" stroke-linejoin="round"/>
<path d="M47.6778 47.3224C43.1536 42.7982 36.9036 40 30 40C23.0965 40 16.8465 42.7982 12.3224 47.3224" stroke="black" stroke-width="3" stroke-linecap="round" stroke-linejoin="round"/>
</svg>
