<svg width="66" height="62" viewBox="0 0 66 62" fill="none" xmlns="http://www.w3.org/2000/svg">
<path d="M20.3136 12.3712H45.068C45.556 12.3712 45.9464 12.7616 45.9464 13.2496C45.9464 13.7376 45.556 14.128 45.068 14.128H20.3136C19.8256 14.128 19.4352 13.7376 19.4352 13.2496C19.4352 12.7616 19.8256 12.3712 20.3136 12.3712ZM20.3136 17.6783H45.068C45.556 17.6783 45.9464 18.0687 45.9464 18.5567C45.9464 19.0447 45.556 19.4351 45.068 19.4351H20.3136C19.8256 19.4351 19.4352 19.0447 19.4352 18.5567C19.4352 18.0687 19.8256 17.6783 20.3136 17.6783ZM20.3136 22.9854H45.068C45.556 22.9854 45.9464 23.3758 45.9464 23.8638C45.9464 24.3518 45.556 24.7422 45.068 24.7422H20.3136C19.8256 24.7422 19.4352 24.3518 19.4352 23.8638C19.4352 23.3758 19.8256 22.9854 20.3136 22.9854ZM20.3136 28.2803H45.068C45.556 28.2803 45.9464 28.6707 45.9464 29.1587C45.9464 29.6468 45.556 30.0372 45.068 30.0372H20.3136C19.8256 30.0372 19.4352 29.6468 19.4352 29.1587C19.4352 28.6829 19.8256 28.2803 20.3136 28.2803ZM20.3136 33.5874H45.068C45.556 33.5874 45.9464 33.9779 45.9464 34.4659C45.9464 34.9539 45.556 35.3443 45.068 35.3443H20.3136C19.8256 35.3443 19.4352 34.9539 19.4352 34.4659C19.4352 33.9901 19.8256 33.5874 20.3136 33.5874ZM20.3136 38.8946H45.068C45.556 38.8946 45.9464 39.285 45.9464 39.773C45.9464 40.261 45.556 40.6514 45.068 40.6514H20.3136C19.8256 40.6514 19.4352 40.261 19.4352 39.773C19.4352 39.285 19.8256 38.8946 20.3136 38.8946Z" fill="black"/>
<path d="M1.75698 47.7397H8.83314V5.96594C8.83314 2.67186 11.505 0 14.7991 0H59.6351C62.856 0.085402 65.418 2.76946 65.418 6.00254V12.4077C65.418 12.8713 65.235 13.3227 64.9056 13.6643C64.5762 13.9937 64.1248 14.1767 63.6612 14.1767H56.585V55.9261C56.585 59.2202 53.9132 61.892 50.6191 61.892C50.5459 61.892 50.4727 61.8798 50.3995 61.8676C50.3263 61.8798 50.2531 61.892 50.1799 61.892H5.96607C2.672 61.892 0.00013343 59.2202 0.00013343 55.9261V49.5209C-0.0120668 48.5327 0.768754 47.7397 1.75698 47.7397ZM61.8677 10.6386V6.00254C61.8677 3.34288 59.0739 3.53808 59.0739 3.53808H58.9885C57.6465 3.53808 56.5606 4.62391 56.5606 5.96594V10.6386H61.8677ZM47.7276 49.5087V55.9139C47.7276 57.2559 48.8135 58.3417 50.1555 58.3417C50.2287 58.3417 50.3019 58.3539 50.3751 58.3661C50.4483 58.3539 50.5215 58.3417 50.5947 58.3417C51.9367 58.3417 53.0225 57.2559 53.0225 55.9139V5.96594C53.0225 5.09972 53.2055 4.2823 53.535 3.53808H14.7869C13.4448 3.53808 12.359 4.62391 12.359 5.96594V47.7519H45.9586C46.9346 47.7397 47.7276 48.5327 47.7276 49.5087ZM3.52602 55.9261C3.52602 57.2681 4.61184 58.3539 5.95388 58.3539H44.7142C44.3847 57.6097 44.2017 56.7923 44.2017 55.9261V51.29H3.52602V55.9261Z" fill="black"/>
</svg>
