<svg width="18" height="13" viewBox="0 0 18 13" fill="none" xmlns="http://www.w3.org/2000/svg">
<path d="M16.2422 0H1.75781C0.788552 0 0 0.788559 0 1.75782V11.039C0 12.0083 0.788552 12.7969 1.75781 12.7969H7.20706C7.40119 12.7969 7.55862 12.6395 7.55862 12.4453C7.55862 12.2511 7.40119 12.0938 7.20706 12.0938H1.75781C1.17626 12.0938 0.703122 11.6206 0.703122 11.039V6.74999H8.34397C8.40032 7.03536 8.57015 7.28674 8.82201 7.44645C8.90405 7.49845 8.99135 7.53798 9.08128 7.56581L8.46229 8.6303C8.3907 8.75339 8.40046 8.90757 8.487 9.02069C8.57354 9.13375 8.71982 9.18345 8.85732 9.14655L9.69916 8.92059L9.92444 9.76264C9.9612 9.90006 10.0771 10.0018 10.2181 10.0203C10.2336 10.0224 10.2489 10.0234 10.2642 10.0234C10.3886 10.0234 10.5052 9.95725 10.5686 9.84758L12.1714 7.07136L14.1794 10.6416C14.2422 10.7533 14.36 10.8208 14.4858 10.8208C14.5004 10.8208 14.5151 10.8199 14.5299 10.8181C14.6717 10.8002 14.7885 10.6982 14.8255 10.5601L15.0508 9.71805L15.8926 9.94402C16.0296 9.98072 16.1751 9.9317 16.2618 9.81955C16.3486 9.70746 16.3594 9.55425 16.2895 9.43095L15.2557 7.60915C15.2884 7.61212 15.3211 7.61399 15.3538 7.61399C15.5537 7.61399 15.7525 7.55771 15.928 7.44645C16.1799 7.28674 16.3497 7.03529 16.406 6.74999H17.2969V11.039C17.2969 11.6206 16.8238 12.0937 16.2422 12.0937H12.7266V10.1953C12.7266 10.0011 12.5692 9.84371 12.375 9.84371C12.1808 9.84371 12.0234 10.0011 12.0234 10.1953V12.0937H10.1965C10.0024 12.0937 9.84496 12.2511 9.84496 12.4453C9.84496 12.6395 10.0024 12.7968 10.1965 12.7968H16.2422C17.2115 12.7968 18 12.0083 18 11.039V1.75782C18 0.788559 17.2115 0 16.2422 0ZM9.19855 6.85259C9.08917 6.78329 9.02645 6.66927 9.02645 6.53974V4.07658C9.02645 3.94706 9.0891 3.83305 9.19849 3.76372C9.30787 3.69436 9.43775 3.68631 9.55488 3.74158L11.2798 4.55538C11.2372 4.67092 11.2139 4.79561 11.2139 4.92569V5.67775C11.2139 5.81199 11.2389 5.94041 11.2841 6.05893L9.55488 6.87475C9.43782 6.92992 9.30794 6.92189 9.19855 6.85259ZM10.3843 8.76052L10.2876 8.399C10.2634 8.30893 10.2045 8.23202 10.1237 8.18542C10.0429 8.13869 9.94687 8.12609 9.8568 8.15032L9.49888 8.24635L9.95379 7.46397L11.5742 6.69946L10.3843 8.76052ZM9.85493 3.10564C9.52048 2.94785 9.13438 2.97186 8.82208 3.16983C8.50978 3.36779 8.32334 3.70677 8.32334 4.07658V6.04689H0.703122V1.75782C0.703122 1.17626 1.17626 0.703128 1.75781 0.703128H12.0234V3.71486C12.0234 3.77301 12.0378 3.82767 12.0628 3.87598C11.9501 3.90009 11.8439 3.942 11.7474 3.99849L9.85493 3.10564ZM12.468 6.04813H12.2875C12.0832 6.04813 11.917 5.88198 11.917 5.67775V4.92569C11.917 4.72139 12.0832 4.55524 12.2875 4.55524H12.468C12.6722 4.55524 12.8384 4.72139 12.8384 4.92569V5.67775C12.8384 5.88198 12.6722 6.04813 12.468 6.04813ZM15.2632 9.04707L14.8932 8.94779C14.8031 8.92356 14.7071 8.93623 14.6263 8.98282C14.5455 9.02948 14.4865 9.10633 14.4624 9.19647L14.3693 9.54477L12.7731 6.70686C12.8505 6.68381 12.9243 6.65231 12.9933 6.6134L14.2072 7.18615L15.2632 9.04707ZM15.5515 6.85259C15.4421 6.92196 15.3123 6.93006 15.1951 6.87475L13.4705 6.06108C13.5162 5.94193 13.5415 5.81275 13.5415 5.67775V4.92569C13.5415 4.79478 13.5179 4.66933 13.4748 4.55323L15.1951 3.74158C15.3123 3.68634 15.4421 3.6944 15.5515 3.76372C15.6609 3.83305 15.7236 3.9471 15.7236 4.07658V6.53974C15.7236 6.66927 15.6609 6.78329 15.5515 6.85259ZM17.2969 6.04689H16.4267V4.07658C16.4267 3.70681 16.2402 3.36783 15.928 3.16986C15.6156 2.9719 15.2295 2.94792 14.8951 3.10567L13.0057 3.9971C12.9084 3.94049 12.8014 3.89859 12.6879 3.87485C12.7124 3.82683 12.7266 3.77255 12.7266 3.71486V0.703128H16.2422C16.8238 0.703128 17.2969 1.17626 17.2969 1.75782V6.04689Z" fill="#FF0000"/>
<path d="M8.92333 12.1968C8.85791 12.1314 8.76722 12.0938 8.6748 12.0938C8.5823 12.0938 8.49161 12.1314 8.42619 12.1968C8.36083 12.2621 8.32324 12.3528 8.32324 12.4453C8.32324 12.5378 8.36083 12.6284 8.42619 12.6939C8.49161 12.7593 8.5823 12.7969 8.6748 12.7969C8.76722 12.7969 8.85791 12.7593 8.92333 12.6939C8.9891 12.6284 9.02635 12.5378 9.02635 12.4453C9.02635 12.3528 8.9891 12.2621 8.92333 12.1968Z" fill="#FF0000"/>
<path d="M7.43552 1.89844H2.25C2.05583 1.89844 1.89844 2.05583 1.89844 2.25C1.89844 2.44417 2.05583 2.60156 2.25 2.60156H7.43552C7.62971 2.60156 7.78708 2.44417 7.78708 2.25C7.78708 2.05583 7.62971 1.89844 7.43552 1.89844Z" fill="#FF0000"/>
<path d="M7.43552 9.84378H2.25C2.05583 9.84378 1.89844 10.0011 1.89844 10.1953C1.89844 10.3895 2.05583 10.5469 2.25 10.5469H7.43552C7.62971 10.5469 7.78708 10.3895 7.78708 10.1953C7.78708 10.0011 7.62971 9.84378 7.43552 9.84378Z" fill="#FF0000"/>
<path d="M4.42969 3.79688H2.25C2.05583 3.79688 1.89844 3.95427 1.89844 4.14844C1.89844 4.34263 2.05583 4.49999 2.25 4.49999H4.42969C4.62385 4.49999 4.78125 4.34263 4.78125 4.14844C4.78125 3.95427 4.62385 3.79688 4.42969 3.79688Z" fill="#FF0000"/>
<path d="M6.03859 3.89988C5.9732 3.83449 5.8825 3.79688 5.79004 3.79688C5.69723 3.79688 5.60687 3.83449 5.54149 3.89988C5.47609 3.96527 5.43848 4.05594 5.43848 4.14844C5.43848 4.24093 5.47609 4.33162 5.54149 4.39697C5.60687 4.4624 5.69723 4.49999 5.79004 4.49999C5.8825 4.49999 5.9732 4.4624 6.03859 4.39697C6.10398 4.33162 6.1416 4.24093 6.1416 4.14844C6.1416 4.05594 6.10398 3.96527 6.03859 3.89988Z" fill="#FF0000"/>
</svg>
