<svg width="51" height="61" viewBox="0 0 51 61" fill="none" xmlns="http://www.w3.org/2000/svg">
<path d="M48.1515 55.7544H43.0829V45.9746C43.0829 41.7355 40.9657 37.7786 37.4395 35.431L29.9113 30.4115L37.441 25.3911C40.9657 23.0444 43.0829 19.0875 43.0829 14.8484V5.06862H48.1515C49.5512 5.06862 50.6858 3.93401 50.6858 2.53437C50.6858 1.13461 49.5512 0 48.1515 0H40.5486H10.1371H2.53425C1.13461 0 0 1.13461 0 2.53425C0 3.93389 1.13461 5.06851 2.53425 5.06851H7.60288V14.8483C7.60288 19.0874 9.72004 23.0443 13.2462 25.3919L20.7745 30.4115L13.2448 35.4319C9.72004 37.7786 7.60288 41.7355 7.60288 45.9746V55.7544H2.53425C1.13461 55.7544 0 56.889 0 58.2886C0 59.6883 1.13461 60.823 2.53425 60.823H10.1371H40.5486H48.1515C49.5512 60.823 50.6858 59.6884 50.6858 58.2888C50.6858 56.8891 49.5512 55.7544 48.1515 55.7544ZM12.6714 14.8484V5.06862H38.0143V14.8484C38.0143 17.3925 36.7445 19.7656 34.6305 21.1731L25.3429 27.3656L16.0566 21.174C13.9412 19.7656 12.6714 17.3925 12.6714 14.8484ZM12.6714 55.7544V45.9746C12.6714 43.4305 13.9412 41.0574 16.0551 39.65L25.3429 33.4574L34.6292 39.649C36.7446 41.0573 38.0144 43.4305 38.0144 45.9746V55.7544H12.6714Z" fill="black"/>
<path d="M27.4514 22.6795C28.2277 21.5149 27.9128 19.9414 26.7483 19.1652L20.2741 14.8499V12.67C20.2741 11.2704 19.1395 10.1357 17.7398 10.1357C16.3402 10.1357 15.2056 11.2704 15.2056 12.67V14.8495C15.2056 16.5443 16.0507 18.1226 17.4584 19.0644L23.9372 23.3827C25.1018 24.159 26.6752 23.8442 27.4514 22.6795Z" fill="black"/>
<path d="M33.2269 41.7583L26.7481 37.4399C25.5834 36.6636 24.01 36.9785 23.2338 38.1431C22.4574 39.3078 22.7724 40.8812 23.9369 41.6574L30.4111 45.9727V48.1526C30.4111 49.5523 31.5457 50.6869 32.9454 50.6869C34.345 50.6869 35.4796 49.5523 35.4796 48.1526V45.9731C35.4796 44.2785 34.6345 42.7002 33.2269 41.7583Z" fill="black"/>
</svg>
