<svg width="42" height="23" viewBox="0 0 42 23" fill="none" xmlns="http://www.w3.org/2000/svg">
<path d="M25.5173 0.801277C25.4383 0.338541 25.0373 0 24.5675 0H2.90635C2.2821 0 1.77662 0.506048 1.77662 1.12915C1.77662 1.75341 2.2821 2.25888 2.90635 2.25888H8.1779C8.80216 2.25888 9.30763 2.76501 9.30763 3.3887C9.30763 4.01238 8.80216 4.51842 8.1779 4.51842H1.12973C0.506048 4.51842 0 5.02447 0 5.64815C0 6.27183 0.506048 6.77723 1.12973 6.77723H10.7367C11.2879 6.77723 11.7352 7.22511 11.7352 7.77636C11.7352 8.32761 11.2879 8.77484 10.7367 8.77484H5.63265C5.00839 8.77484 4.50292 9.28097 4.50292 9.90465C4.50292 10.5283 5.00839 11.0344 5.63265 11.0344H9.39434C9.94608 11.0344 10.3934 11.4816 10.3934 12.0329C10.3934 12.584 9.94608 13.0313 9.39434 13.0313H4.20121C3.57696 13.0313 3.07148 13.5374 3.07148 14.1611C3.07148 14.7847 3.57696 15.2908 4.20121 15.2908H11.339L11.7892 17.8372H14.3748C14.2228 18.2067 14.1361 18.61 14.1361 19.0347C14.1361 20.7774 15.5485 22.1899 17.2913 22.1899C19.0334 22.1899 20.4459 20.7774 20.4459 19.0347C20.4459 18.61 20.3592 18.2067 20.2071 17.8372H28.4134L25.5173 0.801277ZM18.6491 19.0346C18.6491 19.7849 18.0415 20.3925 17.2912 20.3925C16.5405 20.3925 15.9328 19.7849 15.9328 19.0346C15.9328 18.5126 16.2303 18.0647 16.6622 17.8371H17.9196C18.3515 18.0647 18.6491 18.5125 18.6491 19.0346Z" fill="white"/>
<path d="M41.9667 15.8586L40.6707 9.46506L35.9385 2.18408H27.3223L29.9911 17.8371H33.1427C32.9913 18.2066 32.9045 18.6099 32.9045 19.0346C32.9045 20.7774 34.317 22.1899 36.059 22.1899C37.8019 22.1899 39.2143 20.7774 39.2143 19.0346C39.2143 18.6099 39.1276 18.2066 38.9756 17.8371H40.3488C40.8442 17.8371 41.3134 17.615 41.6271 17.2312C41.9401 16.8482 42.0653 16.3439 41.9667 15.8586ZM32.1994 5.097H34.358L37.1603 9.40747H32.9347L32.1994 5.097ZM37.4175 19.0346C37.4175 19.7849 36.8099 20.3925 36.059 20.3925C35.3094 20.3925 34.7013 19.7849 34.7013 19.0346C34.7013 18.5126 34.9995 18.0647 35.4307 17.8371H36.6881C37.1199 18.0647 37.4175 18.5125 37.4175 19.0346Z" fill="white"/>
</svg>
