<svg width="10" height="13" viewBox="0 0 10 13" fill="none" xmlns="http://www.w3.org/2000/svg">
<path d="M7.94414 6.8552C7.5478 7.65847 7.01078 8.45871 6.46165 9.17726C5.94074 9.85468 5.38375 10.5036 4.7931 11.1211C4.20244 10.5036 3.64545 9.85469 3.12455 9.17726C2.57542 8.45871 2.0384 7.65847 1.64206 6.8552C1.24119 6.04362 1.01125 5.28347 1.01125 4.63148C1.01125 3.62847 1.4097 2.66654 2.11893 1.95731C2.82816 1.24807 3.79009 0.849631 4.7931 0.849631C5.79611 0.849631 6.75804 1.24807 7.46727 1.95731C8.1765 2.66654 8.57495 3.62847 8.57495 4.63148C8.57495 5.28347 8.34426 6.04362 7.94414 6.8552ZM4.7931 12.1952C4.7931 12.1952 9.33132 7.89446 9.33132 4.63148C9.33132 3.42787 8.85318 2.27356 8.0021 1.42247C7.15102 0.571394 5.99671 0.0932617 4.7931 0.0932617C3.58949 0.0932617 2.43518 0.571394 1.5841 1.42247C0.733015 2.27356 0.254883 3.42787 0.254883 4.63148C0.254883 7.89446 4.7931 12.1952 4.7931 12.1952Z" fill="#8A8E91"/>
<path d="M4.79303 6.14415C4.39183 6.14415 4.00706 5.98478 3.72337 5.70108C3.43967 5.41739 3.2803 5.03262 3.2803 4.63141C3.2803 4.23021 3.43967 3.84544 3.72337 3.56175C4.00706 3.27805 4.39183 3.11867 4.79303 3.11867C5.19424 3.11867 5.57901 3.27805 5.8627 3.56175C6.1464 3.84544 6.30577 4.23021 6.30577 4.63141C6.30577 5.03262 6.1464 5.41739 5.8627 5.70108C5.57901 5.98478 5.19424 6.14415 4.79303 6.14415ZM4.79303 6.90052C5.39484 6.90052 5.972 6.66146 6.39754 6.23592C6.82308 5.81038 7.06214 5.23322 7.06214 4.63141C7.06214 4.02961 6.82308 3.45245 6.39754 3.02691C5.972 2.60137 5.39484 2.3623 4.79303 2.3623C4.19123 2.3623 3.61407 2.60137 3.18853 3.02691C2.76299 3.45245 2.52393 4.02961 2.52393 4.63141C2.52393 5.23322 2.76299 5.81038 3.18853 6.23592C3.61407 6.66146 4.19123 6.90052 4.79303 6.90052Z" fill="#8A8E91"/>
</svg>
