<svg width="85" height="35" viewBox="0 0 85 35" fill="none" xmlns="http://www.w3.org/2000/svg">
<path d="M0 17.5C0 7.83502 7.83502 0 17.5 0H85V35H0V17.5Z" fill="#FF0000"/>
<path d="M47.5173 7.80128C47.4383 7.33854 47.0373 7 46.5675 7H24.9064C24.2821 7 23.7766 7.50605 23.7766 8.12915C23.7766 8.75341 24.2821 9.25888 24.9064 9.25888H30.1779C30.8022 9.25888 31.3076 9.76501 31.3076 10.3887C31.3076 11.0124 30.8022 11.5184 30.1779 11.5184H23.1297C22.506 11.5184 22 12.0245 22 12.6482C22 13.2718 22.506 13.7772 23.1297 13.7772H32.7367C33.2879 13.7772 33.7352 14.2251 33.7352 14.7764C33.7352 15.3276 33.2879 15.7748 32.7367 15.7748H27.6326C27.0084 15.7748 26.5029 16.281 26.5029 16.9047C26.5029 17.5283 27.0084 18.0344 27.6326 18.0344H31.3943C31.9461 18.0344 32.3934 18.4816 32.3934 19.0329C32.3934 19.584 31.9461 20.0313 31.3943 20.0313H26.2012C25.577 20.0313 25.0715 20.5374 25.0715 21.1611C25.0715 21.7847 25.577 22.2908 26.2012 22.2908H33.339L33.7892 24.8372H36.3748C36.2228 25.2067 36.1361 25.61 36.1361 26.0347C36.1361 27.7774 37.5485 29.1899 39.2913 29.1899C41.0334 29.1899 42.4459 27.7774 42.4459 26.0347C42.4459 25.61 42.3592 25.2067 42.2071 24.8372H50.4134L47.5173 7.80128ZM40.6491 26.0346C40.6491 26.7849 40.0415 27.3925 39.2912 27.3925C38.5405 27.3925 37.9328 26.7849 37.9328 26.0346C37.9328 25.5126 38.2303 25.0647 38.6622 24.8371H39.9196C40.3515 25.0647 40.6491 25.5125 40.6491 26.0346Z" fill="white"/>
<path d="M63.9667 22.8586L62.6707 16.4651L57.9385 9.18408H49.3223L51.9911 24.8371H55.1427C54.9913 25.2066 54.9045 25.6099 54.9045 26.0346C54.9045 27.7774 56.317 29.1898 58.059 29.1898C59.8019 29.1898 61.2143 27.7774 61.2143 26.0346C61.2143 25.6099 61.1276 25.2066 60.9756 24.8371H62.3488C62.8442 24.8371 63.3134 24.615 63.6271 24.2312C63.9401 23.8482 64.0653 23.3439 63.9667 22.8586ZM54.1994 12.097H56.358L59.1603 16.4075H54.9347L54.1994 12.097ZM59.4175 26.0346C59.4175 26.7849 58.8099 27.3925 58.059 27.3925C57.3094 27.3925 56.7013 26.7849 56.7013 26.0346C56.7013 25.5126 56.9995 25.0647 57.4307 24.8371H58.6881C59.1199 25.0647 59.4175 25.5125 59.4175 26.0346Z" fill="white"/>
</svg>
