<svg width="185" height="217" viewBox="0 0 185 217" fill="none" xmlns="http://www.w3.org/2000/svg">
<path d="M0.868652 134.675C0.868652 134.675 3.56261 144.113 11.4499 143.538L33.1901 134.675V125.622L0.868652 134.675Z" fill="white"/>
<path d="M23.8842 18.0537C23.8842 18.0537 -9.32817 25.5967 11.8343 68.7703C32.9968 111.944 26.8381 137.756 11.4497 143.536L91.5692 123.886L69.9354 35.6575L48.1769 19.4816L23.8842 18.0537Z" fill="#B2C9C6"/>
<path d="M158.093 199.55L97.4329 216.247C94.8699 216.952 92.1932 217.145 89.5557 216.815C86.9182 216.485 84.3715 215.637 82.0611 214.321C79.7506 213.005 77.7216 211.247 76.09 209.145C74.4584 207.044 73.2561 204.642 72.5517 202.076L36.0951 69.2834C35.3905 66.7171 35.1977 64.0369 35.5276 61.3959C35.8575 58.755 36.7037 56.2049 38.0179 53.8914C39.3321 51.578 41.0885 49.5463 43.1869 47.9126C45.2853 46.2788 47.6845 45.0749 50.2475 44.3696L110.907 27.6732C113.47 26.9677 116.147 26.7746 118.784 27.105C121.422 27.4353 123.969 28.2826 126.279 29.5986C128.589 30.9145 130.618 32.6732 132.25 34.7743C133.882 36.8754 135.084 39.2778 135.788 41.8442L172.243 174.636C172.948 177.203 173.141 179.883 172.811 182.524C172.481 185.165 171.635 187.714 170.321 190.028C169.007 192.341 167.251 194.373 165.153 196.007C163.055 197.641 160.655 198.845 158.093 199.55Z" fill="#932424"/>
<path d="M170.128 196.237L109.468 212.933C106.905 213.639 104.229 213.832 101.591 213.501C98.9535 213.171 96.4069 212.324 94.0964 211.008C91.7859 209.692 89.757 207.933 88.1254 205.832C86.4937 203.731 85.2914 201.329 84.5871 198.762L48.1304 65.9699C46.7079 60.787 47.3998 55.2505 50.0538 50.5783C52.7079 45.9061 57.1068 42.4809 62.2829 41.0562L122.943 24.3597C125.506 23.6542 128.182 23.4611 130.82 23.7915C133.457 24.1218 136.004 24.9692 138.314 26.2851C140.625 27.601 142.654 29.3597 144.285 31.4608C145.917 33.5619 147.119 35.9643 147.824 38.5307L184.276 171.323C185.699 176.505 185.008 182.041 182.355 186.714C179.701 191.386 175.303 194.811 170.128 196.237Z" fill="#FF0000"/>
<path d="M139.936 53.1003L64.2422 73.9346L75.6418 115.46L151.336 94.6255L139.936 53.1003Z" fill="#2F1A31"/>
<path d="M137.754 52.0833L62.3921 73.3066L74.0045 114.65L149.366 93.4262L137.754 52.0833Z" fill="#DEEBE9"/>
<path d="M94.8224 121.563L80.8097 125.42C78.5355 126.046 77.1987 128.4 77.8238 130.677L79.1189 135.395C79.744 137.672 82.0944 139.01 84.3686 138.384L98.3813 134.527C100.655 133.901 101.992 131.548 101.367 129.271L100.072 124.553C99.4469 122.276 97.0966 120.937 94.8224 121.563Z" fill="#2F1A31"/>
<path d="M121.569 112.561L107.618 116.49C105.354 117.128 104.035 119.482 104.672 121.75L105.991 126.447C106.628 128.714 108.979 130.035 111.244 129.397L125.195 125.468C127.459 124.83 128.778 122.476 128.141 120.209L126.822 115.512C126.185 113.244 123.834 111.923 121.569 112.561Z" fill="#2F1A31"/>
<path d="M148.267 106.852L134.254 110.708C131.98 111.334 130.643 113.688 131.269 115.965L132.564 120.683C133.189 122.96 135.539 124.298 137.813 123.672L151.826 119.815C154.1 119.19 155.437 116.836 154.812 114.559L153.517 109.841C152.892 107.564 150.541 106.226 148.267 106.852Z" fill="#2F1A31"/>
<path d="M100.119 140.852L86.1061 144.709C83.8319 145.335 82.495 147.689 83.1202 149.966L84.4153 154.684C85.0404 156.961 87.3908 158.299 89.665 157.673L103.678 153.816C105.952 153.191 107.289 150.837 106.664 148.56L105.368 143.842C104.743 141.565 102.393 140.227 100.119 140.852Z" fill="#2F1A31"/>
<path d="M126.84 133.496L112.827 137.353C110.553 137.979 109.216 140.332 109.841 142.61L111.136 147.327C111.762 149.604 114.112 150.943 116.386 150.317L130.399 146.46C132.673 145.834 134.01 143.481 133.385 141.203L132.09 136.486C131.465 134.209 129.114 132.87 126.84 133.496Z" fill="#2F1A31"/>
<path d="M153.564 126.141L139.551 129.997C137.277 130.623 135.94 132.977 136.565 135.254L137.86 139.972C138.485 142.249 140.836 143.587 143.11 142.961L157.123 139.105C159.397 138.479 160.733 136.125 160.108 133.848L158.813 129.13C158.188 126.853 155.838 125.515 153.564 126.141Z" fill="#2F1A31"/>
<path d="M105.412 160.139L91.399 163.996C89.1248 164.621 87.788 166.975 88.4132 169.252L89.7083 173.97C90.3334 176.247 92.6837 177.585 94.9579 176.96L108.971 173.103C111.245 172.477 112.582 170.123 111.957 167.846L110.661 163.128C110.036 160.851 107.686 159.513 105.412 160.139Z" fill="#2F1A31"/>
<path d="M132.135 152.784L118.123 156.641C115.848 157.267 114.512 159.62 115.137 161.898L116.432 166.615C117.057 168.892 119.407 170.231 121.682 169.605L135.694 165.748C137.968 165.122 139.305 162.769 138.68 160.492L137.385 155.774C136.76 153.497 134.41 152.158 132.135 152.784Z" fill="#2F1A31"/>
<path d="M158.859 145.426L144.846 149.283C142.572 149.909 141.235 152.262 141.86 154.539L143.155 159.257C143.78 161.534 146.131 162.873 148.405 162.247L162.417 158.39C164.692 157.764 166.028 155.41 165.403 153.133L164.108 148.416C163.483 146.138 161.133 144.8 158.859 145.426Z" fill="#2F1A31"/>
<path d="M110.707 179.428L96.6944 183.285C94.4203 183.911 93.0834 186.264 93.7086 188.541L95.0037 193.259C95.6288 195.536 97.9792 196.875 100.253 196.249L114.266 192.392C116.54 191.766 117.877 189.412 117.252 187.135L115.957 182.417C115.332 180.14 112.981 178.802 110.707 179.428Z" fill="#BCBF80"/>
<path d="M137.432 172.073L123.42 175.93C121.145 176.556 119.809 178.909 120.434 181.187L121.729 185.904C122.354 188.181 124.704 189.52 126.978 188.894L140.991 185.037C143.265 184.411 144.602 182.058 143.977 179.781L142.682 175.063C142.057 172.786 139.706 171.447 137.432 172.073Z" fill="#629FB7"/>
<path d="M164.154 164.717L150.141 168.574C147.867 169.2 146.53 171.553 147.155 173.83L148.45 178.548C149.076 180.825 151.426 182.164 153.7 181.538L167.713 177.681C169.987 177.055 171.324 174.701 170.699 172.424L169.404 167.707C168.778 165.429 166.428 164.091 164.154 164.717Z" fill="#CC6E58"/>
<path d="M97.6676 120.778L83.6549 124.635C81.3807 125.261 80.0439 127.615 80.669 129.892L81.9641 134.609C82.5892 136.887 84.9396 138.225 87.2138 137.599L101.226 133.742C103.501 133.116 104.837 130.763 104.212 128.486L102.917 123.768C102.292 121.491 99.9418 120.152 97.6676 120.778Z" fill="#DEEBE9"/>
<path d="M124.391 113.425L110.379 117.282C108.104 117.908 106.768 120.261 107.393 122.538L108.688 127.256C109.313 129.533 111.663 130.872 113.937 130.246L127.95 126.389C130.224 125.763 131.561 123.409 130.936 121.132L129.641 116.415C129.016 114.137 126.665 112.799 124.391 113.425Z" fill="#DEEBE9"/>
<path d="M151.113 106.07L137.101 109.927C134.826 110.553 133.49 112.907 134.115 115.184L135.41 119.901C136.035 122.179 138.385 123.517 140.66 122.891L154.672 119.034C156.946 118.408 158.283 116.055 157.658 113.778L156.363 109.06C155.738 106.783 153.388 105.444 151.113 106.07Z" fill="#DEEBE9"/>
<path d="M102.963 140.067L88.9498 143.924C86.6756 144.55 85.3388 146.904 85.9639 149.181L87.259 153.898C87.8842 156.176 90.2345 157.514 92.5087 156.888L106.521 153.031C108.796 152.405 110.132 150.052 109.507 147.775L108.212 143.057C107.587 140.78 105.237 139.441 102.963 140.067Z" fill="#DEEBE9"/>
<path d="M129.684 132.714L115.671 136.571C113.397 137.197 112.06 139.55 112.686 141.827L113.981 146.545C114.606 148.822 116.956 150.161 119.23 149.535L133.243 145.678C135.517 145.052 136.854 142.698 136.229 140.421L134.934 135.704C134.309 133.426 131.958 132.088 129.684 132.714Z" fill="#DEEBE9"/>
<path d="M156.407 125.356L142.395 129.213C140.12 129.839 138.784 132.193 139.409 134.47L140.704 139.187C141.329 141.465 143.679 142.803 145.954 142.177L159.966 138.32C162.24 137.694 163.577 135.341 162.952 133.064L161.657 128.346C161.032 126.069 158.682 124.73 156.407 125.356Z" fill="#DEEBE9"/>
<path d="M108.256 159.356L94.2438 163.213C91.9696 163.839 90.6328 166.193 91.2579 168.47L92.553 173.188C93.1781 175.465 95.5285 176.803 97.8027 176.177L111.815 172.32C114.09 171.694 115.426 169.341 114.801 167.064L113.506 162.346C112.881 160.069 110.531 158.73 108.256 159.356Z" fill="#DEEBE9"/>
<path d="M134.98 152.001L120.967 155.858C118.693 156.484 117.356 158.837 117.981 161.114L119.276 165.832C119.901 168.109 122.252 169.448 124.526 168.822L138.539 164.965C140.813 164.339 142.15 161.986 141.524 159.708L140.229 154.991C139.604 152.714 137.254 151.375 134.98 152.001Z" fill="#DEEBE9"/>
<path d="M161.702 144.645L147.69 148.502C145.415 149.128 144.079 151.482 144.704 153.759L145.999 158.477C146.624 160.754 148.974 162.092 151.248 161.466L165.261 157.609C167.535 156.983 168.872 154.63 168.247 152.353L166.952 147.635C166.327 145.358 163.976 144.019 161.702 144.645Z" fill="#DEEBE9"/>
<path d="M113.553 178.644L99.5401 182.501C97.2659 183.127 95.9291 185.481 96.5543 187.758L97.8494 192.476C98.4745 194.753 100.825 196.091 103.099 195.465L117.112 191.608C119.386 190.982 120.723 188.629 120.098 186.352L118.803 181.634C118.177 179.357 115.827 178.019 113.553 178.644Z" fill="#CFD3A3"/>
<path d="M140.276 171.289L126.263 175.146C123.989 175.772 122.652 178.125 123.277 180.402L124.573 185.12C125.198 187.397 127.548 188.736 129.822 188.11L143.835 184.253C146.109 183.627 147.446 181.274 146.821 178.996L145.526 174.279C144.901 172.002 142.55 170.663 140.276 171.289Z" fill="#81B3CC"/>
<path d="M166.998 163.935L152.985 167.791C150.711 168.417 149.374 170.771 149.999 173.048L151.294 177.766C151.919 180.043 154.27 181.381 156.544 180.755L170.557 176.898C172.831 176.273 174.168 173.919 173.542 171.642L172.247 166.924C171.622 164.647 169.272 163.309 166.998 163.935Z" fill="#E28569"/>
<path d="M173.646 183.161L100.797 203.212L101.358 205.255L174.207 185.204L173.646 183.161Z" fill="#2F1A31"/>
<path d="M134.819 46.3145C134.819 46.3145 128.499 3.60822 102.158 0.429688L23.8843 18.0547C23.8843 18.0547 52.0766 17.7168 61.2105 66.5731L134.819 46.3145Z" fill="white"/>
<path d="M136.312 46.2178L60.1313 67.1843C60.0063 67.2184 59.8729 67.2015 59.7604 67.1373C59.6478 67.0731 59.5653 66.9668 59.5308 66.8418C59.5123 66.7794 59.5065 66.714 59.5137 66.6493C59.521 66.5847 59.541 66.5221 59.5728 66.4654C59.6045 66.4086 59.6473 66.3588 59.6986 66.3189C59.7498 66.2789 59.8086 66.2497 59.8713 66.2329L136.052 45.2664C136.114 45.2483 136.179 45.2429 136.244 45.2503C136.308 45.2577 136.37 45.2778 136.427 45.3096C136.484 45.3413 136.533 45.384 136.573 45.4351C136.613 45.4862 136.643 45.5448 136.66 45.6074C136.678 45.6704 136.683 45.7363 136.676 45.8014C136.668 45.8665 136.647 45.9293 136.615 45.9862C136.582 46.0432 136.539 46.093 136.487 46.1328C136.435 46.1725 136.375 46.2015 136.312 46.2178Z" fill="#2F1A31"/>
<path d="M63.2142 50.8552C81.7831 44.7366 100.5 39.1138 119.365 33.9867C119.962 33.8254 119.708 32.8952 119.109 33.0581C100.242 38.1872 81.5251 43.8105 62.9573 49.9281C62.372 50.1199 62.6228 51.0516 63.2142 50.8567V50.8552Z" fill="#B2C9C6"/>
<path d="M63.6322 53.8458C71.2336 51.338 78.9217 49.1307 86.6965 47.2238C87.3046 47.0716 87.0432 46.1476 86.4411 46.2952C78.6643 48.2021 70.9762 50.4095 63.3767 52.9172C62.7914 53.1105 63.0408 54.0406 63.6322 53.8458Z" fill="#B2C9C6"/>
<path d="M60.455 41.6268C76.2326 36.1847 92.182 31.3453 108.274 26.9246C108.87 26.7602 108.618 25.8316 108.019 25.996C91.9266 30.4106 75.9772 35.2561 60.1981 40.6982C59.6173 40.8992 59.8667 41.8293 60.455 41.6268Z" fill="#B2C9C6"/>
<path d="M58.3734 37.3232C65.3667 34.8236 72.3327 32.3468 79.472 30.3039C80.0665 30.1334 79.8141 29.2048 79.2166 29.3753C72.0712 31.4182 65.1068 33.895 58.118 36.3946C57.5388 36.6016 57.7881 37.5332 58.3734 37.3232Z" fill="#B2C9C6"/>
<path d="M84.3709 28.5689C94.0384 25.5243 103.762 22.7127 113.617 20.3349C114.225 20.1826 113.963 19.2601 113.361 19.4063C103.507 21.7841 93.783 24.5973 84.1155 27.6403C83.5256 27.826 83.778 28.7562 84.3709 28.5689Z" fill="#B2C9C6"/>
<path d="M55.8985 31.9656C69.8153 27.2039 83.951 23.1865 98.2189 19.6274C98.8271 19.4752 98.5656 18.5496 97.9635 18.6988C83.6956 22.2579 69.5584 26.2753 55.6431 31.0294C55.0608 31.2288 55.3102 32.1589 55.8985 31.958V31.9656Z" fill="#B2C9C6"/>
<path d="M48.4065 22.9488C57.738 19.5939 67.3131 16.9617 77.0473 15.0755C77.6554 14.9583 77.3985 14.0297 76.7919 14.1469C67.0577 16.0332 57.4826 18.6653 48.1511 22.0202C47.5734 22.2272 47.8227 23.1589 48.4065 22.9488Z" fill="#B2C9C6"/>
<path d="M81.5645 13.6981C88.7544 11.3913 96.0199 9.36568 103.361 7.62113C103.969 7.47804 103.709 6.55554 103.105 6.69254C95.7594 8.43911 88.494 10.4648 81.309 12.7695C80.7222 12.9583 80.9731 13.8884 81.5645 13.6981Z" fill="#B2C9C6"/>
<path d="M44.9947 20.2121C47.3565 19.3437 49.7717 18.6283 52.2252 18.0703C52.8333 17.9333 52.5734 17.0047 51.9698 17.1417C49.5163 17.6997 47.1011 18.4151 44.7393 19.2835C44.1631 19.4951 44.4109 20.4268 44.9947 20.2121Z" fill="#B2C9C6"/>
<path d="M91.2638 83.9965C91.9358 74.9967 98.5871 68.1799 107.586 67.6547C117.281 67.0884 123.908 74.9708 123.908 83.9965C123.908 93.0221 118.435 100.34 107.586 100.34C98.5719 100.34 90.4429 95.0209 91.2638 83.9965Z" fill="#FF0000"/>
<path d="M109.713 94.6309C109.266 94.6306 108.837 94.4571 108.515 94.1468L97.85 83.9048C97.5188 83.5867 97.3273 83.1498 97.3178 82.6903C97.3082 82.2308 97.4813 81.7864 97.7991 81.4547C98.1168 81.123 98.5531 80.9313 99.012 80.9218C99.4709 80.9122 99.9148 81.0856 100.246 81.4037L108.494 89.3196L110.887 73.2184C110.958 72.7667 111.204 72.3614 111.572 72.0909C111.941 71.8204 112.401 71.7064 112.852 71.7739C113.304 71.8413 113.711 72.0847 113.984 72.451C114.258 72.8174 114.375 73.277 114.312 73.7299L111.423 93.1497C111.361 93.5607 111.155 93.9359 110.84 94.2074C110.526 94.4788 110.125 94.6285 109.71 94.6294L109.713 94.6309Z" fill="white"/>
</svg>
