<svg width="46" height="60" viewBox="0 0 46 60" fill="none" xmlns="http://www.w3.org/2000/svg">
<path d="M43.4409 4.86262H35.9978V1.96937C35.9978 0.881649 35.116 0 34.0284 0C32.9409 0 32.0591 0.881649 32.0591 1.96937V4.86262H24.9693V1.96937C24.9693 0.881649 24.0875 0 23 0C21.9124 0 21.0306 0.881649 21.0306 1.96937V4.86262H13.9408V1.96937C13.9408 0.881649 13.059 0 11.9715 0C10.8839 0 10.0021 0.881649 10.0021 1.96937V4.86262H2.55897C1.47141 4.86262 0.5896 5.74442 0.5896 6.83199V58.0306C0.5896 59.1182 1.47141 60 2.55897 60H43.4409C44.5285 60 45.4103 59.1182 45.4103 58.0306V6.83199C45.4103 5.74442 44.5285 4.86262 43.4409 4.86262ZM41.4716 56.0613H4.52834V8.80136H10.0021V11.1C10.0021 12.1877 10.8839 13.0694 11.9715 13.0694C13.059 13.0694 13.9408 12.1877 13.9408 11.1V8.80136H21.0306V11.1C21.0306 12.1877 21.9124 13.0694 23 13.0694C24.0875 13.0694 24.9693 12.1877 24.9693 11.1V8.80136H32.0591V11.1C32.0591 12.1877 32.9409 13.0694 34.0284 13.0694C35.116 13.0694 35.9978 12.1877 35.9978 11.1V8.80136H41.4716V56.0613Z" fill="black"/>
<path d="M34.6587 22.0189H11.3413C10.2538 22.0189 9.37195 22.9007 9.37195 23.9882C9.37195 25.0758 10.2538 25.9576 11.3413 25.9576H34.6587C35.7463 25.9576 36.6281 25.0758 36.6281 23.9882C36.6281 22.9007 35.7463 22.0189 34.6587 22.0189Z" fill="black"/>
<path d="M34.6587 33.0473H11.3413C10.2538 33.0473 9.37195 33.9293 9.37195 35.0167C9.37195 36.1042 10.2538 36.986 11.3413 36.986H34.6587C35.7463 36.986 36.6281 36.1042 36.6281 35.0167C36.6281 33.9291 35.7463 33.0473 34.6587 33.0473Z" fill="black"/>
<path d="M34.6587 44.0758H11.3413C10.2538 44.0758 9.37195 44.9578 9.37195 46.0452C9.37195 47.1327 10.2538 48.0146 11.3413 48.0146H34.6587C35.7463 48.0146 36.6281 47.1327 36.6281 46.0452C36.6281 44.9576 35.7463 44.0758 34.6587 44.0758Z" fill="black"/>
</svg>
