<svg width="101" height="105" viewBox="0 0 101 105" fill="none" xmlns="http://www.w3.org/2000/svg">
<path d="M7.77197 30.3083L50.4754 55.0211L92.8888 30.4533" stroke="black" stroke-width="7.25429" stroke-linecap="round" stroke-linejoin="round"/>
<path d="M50.4756 98.8374V54.9731" stroke="black" stroke-width="7.25429" stroke-linecap="round" stroke-linejoin="round"/>
<path d="M40.4648 6.32137L14.6396 20.685C8.78779 23.9253 4 32.05 4 38.7239V66.0484C4 72.7224 8.78779 80.8472 14.6396 84.0874L40.4648 98.4509C45.9781 101.498 55.0218 101.498 60.5351 98.4509L86.3604 84.0874C92.2122 80.8472 97 72.7224 97 66.0484V38.7239C97 32.05 92.2122 23.9253 86.3604 20.685L60.5351 6.32137C54.9735 3.22621 45.9781 3.22621 40.4648 6.32137Z" stroke="black" stroke-width="7.25429" stroke-linecap="round" stroke-linejoin="round"/>
<path d="M74.6562 58.3587V40.6583L28.7607 14.1558" stroke="black" stroke-width="7.25429" stroke-linecap="round" stroke-linejoin="round"/>
</svg>
