<svg width="24" height="24" viewBox="0 0 24 24" fill="none" xmlns="http://www.w3.org/2000/svg">
<path d="M22.9404 22.6012C22.4119 22.6012 21.8891 22.5663 21.3743 22.4993C21.6852 22.0862 21.9387 21.6353 22.1306 21.151C22.2219 20.9204 22.1091 20.6593 21.8784 20.5679C21.6478 20.4767 21.3867 20.5894 21.2953 20.8201C21.105 21.3004 20.8432 21.7425 20.5147 22.1393C19.7846 21.2574 19.3873 20.159 19.3873 18.9996C19.3873 17.8401 19.7846 16.7417 20.5147 15.8598C20.8432 16.2567 21.1051 16.6988 21.2954 17.1793C21.3868 17.4099 21.6479 17.5227 21.8785 17.4314C22.1091 17.34 22.222 17.0789 22.1306 16.8483C21.837 16.1073 21.4001 15.4436 20.8322 14.8757C20.6568 14.7003 20.3724 14.7003 20.197 14.8757C19.0954 15.9773 18.4888 17.4418 18.4888 18.9996C18.4888 20.0972 18.7904 21.1482 19.3536 22.0589C16.0366 21.0333 13.255 18.6177 11.8137 15.3785C12.1267 15.5079 12.4687 15.579 12.8255 15.579C14.2832 15.579 15.4691 14.3931 15.4691 12.9355C15.4691 12.3974 15.3076 11.893 15.0275 11.4717C15.5236 11.3718 15.9944 11.1291 16.3749 10.7486C16.8742 10.2493 17.1491 9.58543 17.1491 8.87935C17.1491 8.17322 16.8742 7.50941 16.3749 7.01015C15.9943 6.62957 15.5234 6.38708 15.0273 6.28727C15.3075 5.8659 15.4691 5.36143 15.4691 4.82326C15.4691 3.36564 14.2832 2.17975 12.8255 2.17975C12.2874 2.17975 11.7829 2.34129 11.3615 2.62146C11.2617 2.12539 11.0192 1.65448 10.6387 1.2739C9.60807 0.243255 7.931 0.243255 6.90022 1.2739C6.51969 1.65448 6.2772 2.12539 6.17734 2.62146C5.75597 2.34129 5.2515 2.17975 4.71333 2.17975C3.25571 2.17975 2.06986 3.36559 2.06986 4.82326C2.06986 5.36143 2.2314 5.8659 2.51158 6.28727C2.01551 6.38713 1.54459 6.62962 1.16401 7.01015C0.664615 7.50941 0.389648 8.17322 0.389648 8.87935C0.389648 9.58548 0.664615 10.2493 1.16388 10.7486C1.54446 11.1292 2.01524 11.3719 2.51126 11.4717C2.23122 11.8931 2.06977 12.3974 2.06977 12.9355C2.06977 14.3931 3.25562 15.579 4.71325 15.579C5.25145 15.579 5.75588 15.4175 6.17725 15.1373C6.27711 15.6334 6.5196 16.1044 6.90013 16.4849C7.41548 17.0003 8.0924 17.258 8.76933 17.2579C9.44626 17.2579 10.1232 17.0002 10.6385 16.4849C10.8112 16.3123 10.9554 16.1209 11.0709 15.9172C11.6447 17.161 12.4066 18.299 13.3324 19.2993C13.0321 19.2522 12.7262 19.2278 12.4164 19.2278C10.8586 19.2278 9.39419 19.8344 8.29266 20.9359C8.11724 21.1114 8.11724 21.3958 8.29266 21.5713C9.39419 22.6728 10.8587 23.2794 12.4164 23.2794C13.8955 23.2794 15.2902 22.7322 16.3703 21.7341C18.358 22.8924 20.6058 23.4997 22.9403 23.4997C23.1884 23.4997 23.3896 23.2985 23.3896 23.0505C23.3896 22.8023 23.1885 22.6012 22.9404 22.6012ZM5.63266 8.87935C5.63266 7.14977 7.03979 5.74264 8.76942 5.74264C10.499 5.74264 11.9061 7.14977 11.9061 8.87935C11.9061 10.6089 10.499 12.0161 8.76942 12.0161C7.03979 12.0161 5.63266 10.6089 5.63266 8.87935ZM12.8255 14.6806C11.9769 14.6806 11.2541 14.074 11.1069 13.2384L10.9382 12.2808C11.4328 11.9643 11.8542 11.5429 12.1707 11.0482L13.1284 11.217C13.964 11.3642 14.5705 12.0869 14.5705 12.9355C14.5705 13.8978 13.7877 14.6806 12.8255 14.6806ZM16.2507 8.87935C16.2507 9.34546 16.0691 9.78372 15.7395 10.1133C15.1395 10.7134 14.1996 10.7956 13.5045 10.3088L12.7093 9.75178C12.7715 9.47075 12.8046 9.17884 12.8046 8.87939C12.8046 8.5799 12.7715 8.28809 12.7093 8.00706L13.5045 7.45007C14.1997 6.96325 15.1396 7.04546 15.7396 7.64553C16.0691 7.97503 16.2507 8.41324 16.2507 8.87935ZM12.8255 3.07814C13.7877 3.07814 14.5705 3.86099 14.5705 4.82322C14.5705 5.67179 13.964 6.3945 13.1283 6.5418L12.1708 6.71057C11.8542 6.21589 11.4328 5.79448 10.9382 5.47796L11.1069 4.5204C11.2541 3.68467 11.9769 3.07814 12.8255 3.07814ZM7.53542 1.90918C8.21589 1.2288 9.32299 1.2288 10.0033 1.90918C10.6033 2.5092 10.6855 3.44915 10.1987 4.14423L9.6418 4.93948C9.36077 4.87731 9.06887 4.8442 8.76942 4.8442C8.46993 4.8442 8.17807 4.87726 7.89699 4.93948L7.34005 4.14423C6.85323 3.44915 6.93544 2.5092 7.53542 1.90918ZM4.71325 3.07814C5.56182 3.07814 6.28457 3.68467 6.43182 4.52036L6.60055 5.47791C6.10587 5.79443 5.68446 6.21584 5.36794 6.71052L4.41038 6.54175C3.5747 6.3945 2.96817 5.67175 2.96817 4.82317C2.96821 3.86099 3.75102 3.07814 4.71325 3.07814ZM1.28809 8.87935C1.28809 8.41324 1.46957 7.97503 1.79921 7.64544C2.39923 7.04541 3.33922 6.96316 4.03421 7.44994L4.82946 8.00692C4.76729 8.288 4.73418 8.57986 4.73418 8.87935C4.73418 9.17884 4.76724 9.4707 4.82946 9.75173L4.03421 10.3087C3.33917 10.7956 2.39923 10.7134 1.79921 10.1133C1.46957 9.78372 1.28809 9.34546 1.28809 8.87935ZM4.71325 14.6806C3.75102 14.6806 2.96821 13.8978 2.96821 12.9355C2.96821 12.0869 3.57475 11.3642 4.41043 11.217L5.36803 11.0482C5.68455 11.5429 6.10596 11.9643 6.60059 12.2808L6.43182 13.2384C6.28457 14.074 5.56182 14.6806 4.71325 14.6806ZM10.0033 15.8496C9.32295 16.53 8.2158 16.5299 7.53542 15.8495C6.93539 15.2495 6.85323 14.3096 7.34001 13.6145L7.89699 12.8192C8.17802 12.8814 8.46988 12.9145 8.76937 12.9145C9.06887 12.9145 9.36068 12.8814 9.64176 12.8192L10.1987 13.6145C10.6855 14.3096 10.6033 15.2495 10.0033 15.8496ZM12.4165 22.3809C11.2571 22.3809 10.1587 21.9836 9.27686 21.2535C10.1587 20.5234 11.2571 20.1262 12.4165 20.1262C13.5759 20.1262 14.6743 20.5234 15.5562 21.2535C14.6743 21.9836 13.5759 22.3809 12.4165 22.3809Z" fill="#FF0000"/>
<path d="M10.57 8.87908C10.57 7.88617 9.76231 7.07843 8.7694 7.07843C7.77654 7.07843 6.96875 7.88617 6.96875 8.87908C6.96875 9.87199 7.77654 10.6798 8.7694 10.6798C9.76231 10.6798 10.57 9.87199 10.57 8.87908ZM7.86719 8.87908C7.86719 8.38161 8.27193 7.97687 8.7694 7.97687C9.26691 7.97687 9.67166 8.38161 9.67166 8.87908C9.67166 9.37659 9.26691 9.78133 8.7694 9.78133C8.27193 9.78133 7.86719 9.37659 7.86719 8.87908Z" fill="#FF0000"/>
<path d="M21.7733 18.6815C21.6893 18.7655 21.6416 18.8814 21.6416 18.9995C21.6416 19.1177 21.6893 19.2331 21.7733 19.3171C21.8568 19.4006 21.9727 19.4487 22.0909 19.4487C22.209 19.4487 22.3249 19.4007 22.4085 19.3171C22.492 19.2331 22.5401 19.1177 22.5401 18.9995C22.5401 18.8814 22.492 18.7655 22.4085 18.6815C22.3249 18.5979 22.209 18.5498 22.0909 18.5498C21.9723 18.5498 21.8568 18.5979 21.7733 18.6815Z" fill="#FF0000"/>
</svg>
