<svg width="55" height="45" viewBox="0 0 55 45" fill="none" xmlns="http://www.w3.org/2000/svg">
<path d="M10 32.5C10 31.1193 11.1193 30 12.5 30H17.5C18.8807 30 20 31.1193 20 32.5C20 33.8807 18.8807 35 17.5 35H12.5C11.1193 35 10 33.8807 10 32.5Z" fill="#040404"/>
<path d="M25 30C23.6193 30 22.5 31.1193 22.5 32.5C22.5 33.8807 23.6193 35 25 35H27.5C28.8807 35 30 33.8807 30 32.5C30 31.1193 28.8807 30 27.5 30H25Z" fill="#040404"/>
<path fill-rule="evenodd" clip-rule="evenodd" d="M14.47 7.39777e-07C12.4237 -2.42602e-05 10.7348 -4.92483e-05 9.35983 0.114126C7.93145 0.232751 6.61935 0.487401 5.39025 1.12588C3.56383 2.07463 2.07463 3.56383 1.12588 5.39025C0.487401 6.61935 0.232751 7.93145 0.114126 9.35983C-5.6522e-05 10.7348 -2.90295e-05 12.4237 9.70469e-07 14.47V30.53C-2.90295e-05 32.5762 -5.6522e-05 34.2652 0.114126 35.6402C0.232751 37.0685 0.487401 38.3808 1.12588 39.6098C2.07463 41.4363 3.56383 42.9255 5.39025 43.8742C6.61935 44.5125 7.93145 44.7672 9.35983 44.886C10.7349 45 12.4237 45 14.4701 45H40.53C42.5762 45 44.2652 45 45.6402 44.886C47.0685 44.7672 48.3808 44.5125 49.6098 43.8742C51.4363 42.9255 52.9255 41.4363 53.8742 39.6098C54.5125 38.3808 54.7672 37.0685 54.886 35.6402C55 34.2652 55 32.5762 55 30.53V14.4701C55 12.4237 55 10.7349 54.886 9.35983C54.7672 7.93145 54.5125 6.61935 53.8742 5.39025C52.9255 3.56383 51.4363 2.07463 49.6098 1.12588C48.3808 0.487401 47.0685 0.232751 45.6402 0.114126C44.2652 -4.92483e-05 42.5762 -2.42602e-05 40.53 7.39777e-07H14.47ZM7.69513 5.56293C8.09158 5.357 8.66005 5.18945 9.77363 5.09698C10.9172 5.00203 12.3975 5 14.575 5H40.425C42.6025 5 44.0827 5.00203 45.2265 5.09698C46.34 5.18945 46.9085 5.357 47.305 5.56293C48.218 6.03733 48.9627 6.78193 49.437 7.69513C49.643 8.09158 49.8105 8.66005 49.903 9.77363C49.9643 10.5105 49.9868 11.3871 49.9953 12.5H5.00485C5.0132 11.3871 5.03578 10.5105 5.09698 9.77363C5.18945 8.66005 5.357 8.09158 5.56293 7.69513C6.03733 6.78193 6.78193 6.03733 7.69513 5.56293ZM5 17.5V30.425C5 32.6025 5.00203 34.0827 5.09698 35.2265C5.18945 36.34 5.357 36.9085 5.56293 37.305C6.03733 38.218 6.78193 38.9627 7.69513 39.437C8.09158 39.643 8.66005 39.8105 9.77363 39.903C10.9172 39.998 12.3975 40 14.575 40H40.425C42.6025 40 44.0827 39.998 45.2265 39.903C46.34 39.8105 46.9085 39.643 47.305 39.437C48.218 38.9627 48.9627 38.218 49.437 37.305C49.643 36.9085 49.8105 36.34 49.903 35.2265C49.998 34.0827 50 32.6025 50 30.425V17.5H5Z" fill="#040404"/>
</svg>
