<svg width="22" height="20" viewBox="0 0 22 20" fill="none" xmlns="http://www.w3.org/2000/svg">
<g clip-path="url(#clip0_305_188)">
<path d="M8.25064 18.3333C8.7569 18.3333 9.16731 17.9602 9.16731 17.5C9.16731 17.0398 8.7569 16.6667 8.25064 16.6667C7.74438 16.6667 7.33398 17.0398 7.33398 17.5C7.33398 17.9602 7.74438 18.3333 8.25064 18.3333Z" stroke="black" stroke-width="1.5" stroke-linecap="round" stroke-linejoin="round"/>
<path d="M18.3327 18.3333C18.8389 18.3333 19.2493 17.9602 19.2493 17.5C19.2493 17.0398 18.8389 16.6667 18.3327 16.6667C17.8264 16.6667 17.416 17.0398 17.416 17.5C17.416 17.9602 17.8264 18.3333 18.3327 18.3333Z" stroke="black" stroke-width="1.5" stroke-linecap="round" stroke-linejoin="round"/>
<path d="M0.916992 0.833344H4.58366L7.04033 11.9917C7.12415 12.3753 7.35374 12.72 7.68891 12.9652C8.02408 13.2105 8.44347 13.3408 8.87366 13.3333H17.7837C18.2139 13.3408 18.6333 13.2105 18.9684 12.9652C19.3036 12.72 19.5332 12.3753 19.617 11.9917L21.0837 5.00001H5.50033" stroke="black" stroke-width="1.5" stroke-linecap="round" stroke-linejoin="round"/>
</g>
<defs>
<clipPath id="clip0_305_188">
<rect width="22" height="20" fill="white"/>
</clipPath>
</defs>
</svg>
