<svg width="35" height="35" viewBox="0 0 35 35" fill="none" xmlns="http://www.w3.org/2000/svg">
<path fill-rule="evenodd" clip-rule="evenodd" d="M3.35938 15.4531C3.35938 8.40381 9.74622 2.6875 18.1406 2.6875C24.8231 2.6875 31.5781 8.40381 31.5781 15.4531C31.5781 22.5038 26.3039 28.2188 18.1406 28.2188C16.9407 28.2188 14.4372 28.0817 13.3206 27.8492L8.73438 30.9062V26.144C5.45697 23.4847 3.35938 19.9332 3.35938 15.4531ZM13.6216 30.5515C14.6657 30.7221 17.0401 30.9062 18.1406 30.9062C27.7887 30.9062 34.2656 23.7266 34.2656 15.2852C34.2656 6.84372 26.1722 0 18.1406 0C8.48041 0 0.671875 6.84372 0.671875 15.2852C0.671875 20.1764 2.53566 24.3273 6.04688 27.3171V34.9375L13.6216 30.5515ZM25.5312 17.4688C26.6452 17.4688 27.5469 16.5671 27.5469 15.4531C27.5469 14.3405 26.6452 13.4375 25.5312 13.4375C24.4173 13.4375 23.5156 14.3405 23.5156 15.4531C23.5156 16.5671 24.4173 17.4688 25.5312 17.4688ZM9.40625 17.4688C10.5202 17.4688 11.4219 16.5671 11.4219 15.4531C11.4219 14.3405 10.5202 13.4375 9.40625 13.4375C8.29228 13.4375 7.39062 14.3405 7.39062 15.4531C7.39062 16.5671 8.29228 17.4688 9.40625 17.4688ZM17.4688 17.4688C18.5827 17.4688 19.4844 16.5671 19.4844 15.4531C19.4844 14.3405 18.5827 13.4375 17.4688 13.4375C16.3548 13.4375 15.4531 14.3405 15.4531 15.4531C15.4531 16.5671 16.3548 17.4688 17.4688 17.4688Z" fill="black"/>
</svg>
