<svg width="101" height="125" viewBox="0 0 101 125" fill="none" xmlns="http://www.w3.org/2000/svg">
<g clip-path="url(#clip0_1418_110)">
<path d="M12.9156 6.13537C12.5089 25.3125 11.191 91.4692 11.8211 114.913C11.8876 117.397 13.5895 119.39 15.7125 119.472C26.2127 119.874 64.7062 120.893 81.8797 120.05C85.4569 119.875 88.3015 116.484 88.3759 112.297C88.7327 92.1658 89.5204 35.5447 87.6487 9.60783C87.4245 6.49921 85.3395 4.02545 82.6867 3.71459C71.2518 2.37657 32.5937 -0.894494 17.7559 0.231615C15.079 0.43477 12.9818 2.99916 12.9156 6.13537Z" fill="url(#paint0_linear_1418_110)"/>
<path d="M17.6005 12.0194C17.0352 27.4999 15.2528 78.9993 15.8185 98.0424C15.9012 100.826 17.7765 103.078 20.153 103.24C29.9386 103.909 63.3235 105.385 77.6774 104.042C80.2606 103.8 82.29 101.355 82.4297 98.3257C83.1569 82.5326 85.2454 34.5797 84.7029 15.7502C84.6153 12.7462 82.6271 10.293 80.0684 10.0242C69.482 8.91211 34.0057 6.26628 21.8089 7.04475C19.5195 7.19055 17.6972 9.33944 17.6005 12.0194Z" fill="#FF6464"/>
<path d="M43.8495 4.03595C43.8495 4.6244 44.2435 5.10996 44.7435 5.14061C47.2239 5.29253 54.21 5.72249 57.3326 5.9344C57.9482 5.97818 58.4311 5.32887 58.3146 4.6209L58.2945 4.50005C58.2148 4.01844 57.872 3.65285 57.4534 3.60819C55.3426 3.38183 48.9743 2.75441 44.7562 2.93086C44.2479 2.95143 43.8495 3.44268 43.8495 4.03595Z" fill="#FF5656"/>
<path d="M48.7292 44.4874C56.8177 44.4874 63.3747 37.9304 63.3747 29.8419C63.3747 21.7534 56.8177 15.1964 48.7292 15.1964C40.6407 15.1964 34.0836 21.7534 34.0836 29.8419C34.0836 37.9304 40.6407 44.4874 48.7292 44.4874Z" fill="#FF0000"/>
<path d="M53.2135 24.3077C53.2135 26.7876 51.203 29.4649 48.7231 29.4649C46.2432 29.4649 44.2331 26.7876 44.2331 24.3077C44.2331 21.8278 46.2432 20.0686 48.7231 20.0686C51.203 20.0686 53.2135 21.8278 53.2135 24.3077Z" fill="white"/>
<path d="M43.1508 39.0128H54.1124C54.6747 39.0127 55.2225 38.8339 55.6766 38.5023C56.1308 38.1707 56.4678 37.7033 56.6391 37.1677L57.2289 35.3245C57.661 33.9746 56.9587 32.5131 55.6277 32.0262C51.1666 30.3953 46.554 30.6046 41.8289 32.1769C40.5049 32.6173 39.7711 34.0333 40.1358 35.3796L40.5899 37.0539C40.7424 37.6163 41.0759 38.1128 41.5387 38.4668C42.0015 38.8209 42.568 39.0127 43.1508 39.0128Z" fill="white"/>
<g opacity="0.71">
<path opacity="0.65" d="M76.8198 59.5629H23.3681C23.2049 59.5629 23.0726 59.6953 23.0726 59.8585V67.5819C23.0726 67.7451 23.2049 67.8774 23.3681 67.8774H76.8198C76.983 67.8774 77.1153 67.7451 77.1153 67.5819V59.8585C77.1153 59.6953 76.983 59.5629 76.8198 59.5629Z" fill="white"/>
<path opacity="0.65" d="M76.5281 73.1284H23.0765C22.9133 73.1284 22.7809 73.2607 22.7809 73.4239V81.1473C22.7809 81.3105 22.9133 81.4428 23.0765 81.4428H76.5281C76.6914 81.4428 76.8237 81.3105 76.8237 81.1473V73.4239C76.8237 73.2607 76.6914 73.1284 76.5281 73.1284Z" fill="white"/>
<path opacity="0.65" d="M66.0919 87.0221H31.9093C31.7079 87.0221 31.5446 87.1854 31.5446 87.3869V97.2574C31.5446 97.4588 31.7079 97.6221 31.9093 97.6221H66.0919C66.2933 97.6221 66.4566 97.4588 66.4566 97.2574V87.3869C66.4566 87.1854 66.2933 87.0221 66.0919 87.0221Z" fill="white"/>
</g>
<path opacity="0.75" d="M57.1303 61.4461H25.992C25.7018 61.4461 25.4666 61.6813 25.4666 61.9715V65.5398C25.4666 65.83 25.7018 66.0652 25.992 66.0652H57.1303C57.4205 66.0652 57.6557 65.83 57.6557 65.5398V61.9715C57.6557 61.6813 57.4205 61.4461 57.1303 61.4461Z" fill="white"/>
<g opacity="0.75">
<path d="M27.31 78.8062C28.2776 78.4055 28.737 77.2962 28.3363 76.3286C27.9355 75.3611 26.8262 74.9016 25.8587 75.3024C24.8911 75.7032 24.4316 76.8124 24.8324 77.78C25.2332 78.7475 26.3424 79.207 27.31 78.8062Z" fill="white"/>
<path d="M31.7876 79.0479C32.8349 79.0479 33.6839 78.1989 33.6839 77.1516C33.6839 76.1043 32.8349 75.2554 31.7876 75.2554C30.7403 75.2554 29.8914 76.1043 29.8914 77.1516C29.8914 78.1989 30.7403 79.0479 31.7876 79.0479Z" fill="white"/>
<path d="M38.6391 77.8254C38.8797 76.8061 38.2485 75.7848 37.2292 75.5443C36.2099 75.3037 35.1886 75.935 34.948 76.9542C34.7075 77.9735 35.3387 78.9948 36.358 79.2354C37.3773 79.4759 38.3986 78.8447 38.6391 77.8254Z" fill="white"/>
<path d="M41.9984 79.3881C43.0456 79.3881 43.8946 78.5391 43.8946 77.4918C43.8946 76.4445 43.0456 75.5955 41.9984 75.5955C40.9511 75.5955 40.1021 76.4445 40.1021 77.4918C40.1021 78.5391 40.9511 79.3881 41.9984 79.3881Z" fill="white"/>
<path d="M47.2007 79.3395C48.248 79.3395 49.097 78.4905 49.097 77.4432C49.097 76.3959 48.248 75.547 47.2007 75.547C46.1534 75.547 45.3044 76.3959 45.3044 77.4432C45.3044 78.4905 46.1534 79.3395 47.2007 79.3395Z" fill="white"/>
<path d="M52.4039 79.4367C53.4512 79.4367 54.3001 78.5877 54.3001 77.5404C54.3001 76.4931 53.4512 75.6441 52.4039 75.6441C51.3566 75.6441 50.5076 76.4931 50.5076 77.5404C50.5076 78.5877 51.3566 79.4367 52.4039 79.4367Z" fill="white"/>
</g>
<path d="M74.0587 83.7305L79.8697 85.1828L78.4174 96.0757C78.4174 96.0757 80.596 98.2543 81.322 101.159C82.0479 104.064 82.7156 116.261 82.7156 116.261L84.0943 117.093L84.2616 117.788L80.2515 123.181L80.9165 118.89C81.022 118.209 80.839 116.827 80.8964 116.798C78.7182 110.988 74.0579 94.6229 74.0579 94.6229L74.0587 83.7305Z" fill="url(#paint1_linear_1418_110)"/>
<path d="M72.3613 117.864C72.4243 117.864 72.4861 117.868 72.5491 117.864C72.2684 114.362 70.9856 98.95 69.7032 93.1706C68.2509 86.6346 71.8818 73.5631 71.8818 73.5631L78.4178 80.0991L74.7869 92.446C77.2751 96.1786 74.381 118.037 74.4432 118.027L74.4392 118.076L75.3867 119.378L75.2715 120.084L69.4838 123.499L71.7606 119.801C72.1179 119.215 72.3243 118.55 72.3613 117.864Z" fill="url(#paint2_linear_1418_110)"/>
<path d="M79.7125 44.5772C79.7125 44.5772 92.4377 58.9189 79.7125 66.2727L78.4161 65.334C78.4161 65.334 84.7336 59.284 78.4161 51.8785L79.7125 44.5772Z" fill="url(#paint3_linear_1418_110)"/>
<path d="M69.099 124.034H70.9462C71.1166 124.034 71.2848 123.996 71.4378 123.921C71.5908 123.846 71.7245 123.736 71.8285 123.601C72.4047 122.853 73.5973 121.393 74.1678 121.356C74.9358 121.304 74.8377 124.034 74.8377 124.034H75.2681L75.8132 120.642C75.8801 120.226 75.8143 119.799 75.6252 119.422C75.436 119.046 75.1331 118.738 74.7594 118.543C74.7594 118.543 74.5842 119.841 73.6319 120.415C72.6796 120.989 69.7588 123.046 69.7588 123.046C69.509 123.017 69.2563 123.024 69.0084 123.066C68.4274 123.171 68.5084 124.034 69.099 124.034Z" fill="#FF0000"/>
<path d="M80.1088 123.824L81.8111 123.108C81.9684 123.042 82.1084 122.941 82.2204 122.812C82.3324 122.684 82.4133 122.531 82.4569 122.366C82.6977 121.453 83.231 119.645 83.7419 119.389C84.4302 119.044 85.3982 121.598 85.3982 121.598L85.7949 121.432L84.9819 118.093C84.8822 117.684 84.6561 117.316 84.3357 117.042C84.0153 116.768 83.6169 116.602 83.1968 116.567C83.1968 116.567 83.5383 117.832 82.8838 118.73C82.2292 119.629 80.3334 122.657 80.3334 122.657C80.0918 122.727 79.8615 122.831 79.6495 122.967C79.153 123.289 79.5632 124.053 80.1088 123.824Z" fill="#FF0000"/>
<path d="M70.2159 62.5126C70.2159 62.5126 70.4296 63.8213 70.1165 67.4199C69.8035 71.0184 68.3078 79.4673 68.6126 87.551C68.6126 87.551 72.8644 88.5419 80.2524 88.0725C80.2524 88.0725 83.3698 75.4515 82.6105 70.6533C81.8513 65.8551 77.7309 62.4132 77.7309 62.4132L70.2159 62.5126Z" fill="url(#paint4_linear_1418_110)"/>
<path d="M73.3578 38.4663L72.8381 44.5772H77.7755L76.5478 35.2491L73.3578 38.4663Z" fill="url(#paint5_linear_1418_110)"/>
<path d="M79.2384 43.7322C77.5343 43.638 73.7243 43.4642 71.025 43.6113C70.3344 43.6482 69.6754 43.9124 69.1505 44.3627C68.6257 44.8131 68.2644 45.4243 68.1231 46.1013L67.4663 49.2563C67.2211 50.4314 67.2579 51.6478 67.5736 52.8058L70.2177 62.5126C70.2177 62.5126 72.5693 63.926 77.7326 62.4132C77.7326 62.4132 82.2669 51.5987 80.4109 44.684C80.3409 44.4219 80.1897 44.1887 79.9791 44.0178C79.7685 43.8468 79.5092 43.7468 79.2384 43.7322Z" fill="#4447EA"/>
<path d="M68.2522 45.5356C67.5228 47.4538 66.866 49.4604 66.162 51.3417C65.8034 52.2835 65.4391 53.2069 65.0499 54.0563C64.8529 54.4784 64.6366 54.8663 64.4369 55.2183C64.2814 55.4914 64.1009 55.7495 63.8979 55.9893C63.8752 56.009 63.9518 56.0244 63.9772 56.0257C63.9925 56.0257 63.4855 56.1089 63.3301 56.1347L62.7224 56.1312C61.8511 56.0874 60.8642 55.9329 59.8742 55.7406C57.8782 55.368 55.8024 54.8457 53.6715 54.4503L53.6548 54.4473C53.4932 54.4172 53.3261 54.4411 53.1794 54.5151C53.0326 54.5891 52.9141 54.7093 52.8423 54.8572C52.7704 55.005 52.749 55.1724 52.7814 55.3336C52.8138 55.4948 52.8982 55.6408 53.0217 55.7494C53.8812 56.506 54.7919 57.1273 55.7363 57.7319C56.2118 58.0226 56.696 58.3077 57.1877 58.5813C57.6895 58.837 58.1921 59.0949 58.7144 59.3331C59.7652 59.7915 60.8528 60.2136 62.1046 60.4846C62.4334 60.5397 62.7583 60.5975 63.0967 60.6431C63.4763 60.6562 63.8209 60.6899 64.2351 60.6658C64.454 60.6439 64.6764 60.6168 64.8971 60.5848C65.0138 60.5709 65.1296 60.5501 65.2438 60.5227C65.3953 60.4771 65.5457 60.4263 65.6948 60.3703C66.0057 60.2591 66.2066 60.1238 66.4588 59.9833C66.6686 59.8453 66.8599 59.7009 67.0451 59.5524C67.7294 58.9697 68.1546 58.3913 68.5289 57.8357C68.8791 57.3063 69.1916 56.753 69.4641 56.1798C69.9766 55.1305 70.4068 54.043 70.7509 52.9271C71.4353 50.7511 71.8994 48.6127 72.0951 46.3412C72.1368 45.8656 72.0051 45.3909 71.7243 45.0048C71.4434 44.6187 71.0324 44.3472 70.567 44.2405C70.1016 44.1338 69.6133 44.199 69.1923 44.4242C68.7713 44.6494 68.4459 45.0192 68.2763 45.4656L68.2522 45.5356Z" fill="url(#paint6_linear_1418_110)"/>
<path d="M54.344 55.425L53.4626 53.3334L48.8251 52.178C48.8251 52.178 48.4542 52.9819 50.4013 53.3334C50.4013 53.3334 49.7056 54.1023 50.0764 55.0068C50.4473 55.9114 54.3878 56.8168 54.344 55.425Z" fill="url(#paint7_linear_1418_110)"/>
<path d="M71.2671 31.4085C71.092 31.5122 69.7019 36.4116 70.8656 38.4659C72.0294 40.5202 75.5846 38.2194 76.5478 35.2487C77.5111 32.278 75.9638 28.6387 71.2671 31.4085Z" fill="url(#paint8_linear_1418_110)"/>
<path d="M80.4827 35.2487C81.28 39.1555 83.9218 38.0863 85.7931 39.8245C88.8256 42.6411 93.1641 39.7369 97.3817 42.4077C100.426 44.3342 101.891 49.2651 100.433 53.2454C98.4085 58.7587 91.4924 61.0262 87.9105 59.3471C84.4849 57.742 84.9726 52.9355 80.364 51.0782C78.4073 50.2901 77.4415 50.8019 76.2698 49.6333C74.2181 47.5873 74.772 43.6166 74.9852 42.0872C75.448 38.768 76.5614 38.1669 76.0286 36.708C74.9944 33.8708 70.169 34.4562 69.7675 32.4531C69.4015 30.6291 72.8989 27.172 76.1901 27.7167C81.2778 28.5586 80.1249 33.5083 80.4827 35.2487Z" fill="url(#paint9_linear_1418_110)"/>
<path opacity="0.6" d="M98.9094 52.3111C98.9397 52.3119 98.9693 52.3021 98.9932 52.2835C99.0172 52.2649 99.0339 52.2386 99.0407 52.2091C99.6926 49.5024 99.3971 47.2826 98.1611 45.6114C96.1103 42.8372 92.1247 42.5627 92.0848 42.5605C92.0497 42.559 92.0152 42.5712 91.9889 42.5945C91.9626 42.6179 91.9464 42.6506 91.9438 42.6857C91.9425 42.7033 91.9448 42.7208 91.9504 42.7375C91.956 42.7541 91.9648 42.7694 91.9765 42.7826C91.9881 42.7957 92.0023 42.8064 92.0181 42.814C92.0339 42.8216 92.0511 42.8259 92.0686 42.8267C92.1076 42.8267 95.9724 43.0973 97.9479 45.7712C99.134 47.3758 99.4142 49.5212 98.7797 52.1465C98.7716 52.1809 98.7773 52.2172 98.7958 52.2473C98.8142 52.2775 98.8439 52.2992 98.8783 52.3076C98.8885 52.3098 98.8989 52.311 98.9094 52.3111Z" fill="white"/>
<path opacity="0.72" d="M85.8553 54.7888C85.861 54.7894 85.8667 54.7894 85.8724 54.7888C85.8895 54.7843 85.9041 54.7732 85.913 54.7579C85.922 54.7427 85.9245 54.7245 85.9201 54.7074C85.2848 52.2708 84.1688 50.5786 82.6083 49.6775C81.4699 49.0208 80.4073 48.9608 79.4682 48.9069C78.5632 48.8548 77.7812 48.8097 77.1516 48.2502C75.8508 47.0934 75.9257 44.3097 77.3758 39.983C77.3816 39.9662 77.3805 39.9478 77.3727 39.9319C77.3649 39.9159 77.3512 39.9037 77.3344 39.8978C77.3176 39.892 77.2992 39.8931 77.2832 39.9009C77.2673 39.9087 77.255 39.9224 77.2492 39.9392C75.7812 44.3233 75.7168 47.1521 77.0631 48.3478C77.7273 48.9385 78.5303 48.9849 79.4607 49.0383C80.3911 49.0917 81.431 49.1517 82.5418 49.7914C84.072 50.6736 85.1653 52.3387 85.7909 54.7389C85.7946 54.7532 85.8029 54.7658 85.8146 54.7748C85.8262 54.7839 85.8405 54.7888 85.8553 54.7888Z" fill="white"/>
<path opacity="0.72" d="M78.5938 34.2793C78.6012 34.2795 78.6084 34.2783 78.6153 34.2758C78.6238 34.2733 78.6317 34.269 78.6385 34.2633C78.6453 34.2576 78.6509 34.2507 78.655 34.2428C78.659 34.2349 78.6615 34.2263 78.6622 34.2175C78.6629 34.2086 78.6619 34.1998 78.6591 34.1913C78.1543 32.6896 76.6998 32.9129 75.1586 33.1497C74.1831 33.2995 73.1748 33.4562 72.3192 33.201C71.6813 33.0118 71.3022 32.7193 71.1923 32.3292C71.0053 31.6663 71.6607 30.9282 71.6673 30.9198C71.6765 30.9065 71.6806 30.8901 71.6786 30.874C71.6766 30.8579 71.6688 30.843 71.6566 30.8322C71.6444 30.8214 71.6287 30.8155 71.6125 30.8155C71.5962 30.8155 71.5805 30.8215 71.5684 30.8323C71.539 30.8647 70.8573 31.6322 71.064 32.3647C71.1866 32.8025 71.5964 33.1252 72.2811 33.3279C73.166 33.5906 74.1888 33.433 75.1787 33.2811C76.7256 33.0433 78.0632 32.8376 78.5325 34.2338C78.5369 34.2468 78.5451 34.2581 78.556 34.2662C78.567 34.2744 78.5802 34.279 78.5938 34.2793Z" fill="white"/>
<g opacity="0.3">
<path d="M30.1978 110.662C30.2524 110.775 30.2647 110.904 30.2326 111.025C30.2004 111.146 30.126 111.252 30.0227 111.323C29.5564 111.633 29.0704 111.927 28.5778 112.195C28.5205 112.226 28.4575 112.245 28.3927 112.25C28.3278 112.256 28.2625 112.248 28.2008 112.228C28.139 112.207 28.082 112.174 28.0334 112.131C27.9848 112.088 27.9455 112.035 27.918 111.976L27.9141 111.967C27.8565 111.848 27.8463 111.711 27.8855 111.584C27.9248 111.457 28.0105 111.35 28.1256 111.284C28.5932 111.029 29.0546 110.75 29.4977 110.455C29.5519 110.42 29.6129 110.395 29.6769 110.384C29.7408 110.373 29.8065 110.374 29.8697 110.389C29.9329 110.404 29.9924 110.432 30.0445 110.471C30.0965 110.51 30.1401 110.559 30.1724 110.615C30.1819 110.63 30.1904 110.646 30.1978 110.662ZM26.3703 112.617C26.3789 112.635 26.3865 112.654 26.3931 112.673C26.4382 112.799 26.4326 112.938 26.3775 113.061C26.3224 113.183 26.2221 113.279 26.0975 113.329C25.5756 113.525 25.0401 113.699 24.5064 113.846C24.2437 113.917 23.981 113.755 23.9083 113.479C23.8736 113.35 23.8903 113.212 23.9551 113.095C24.0199 112.978 24.1276 112.891 24.2555 112.852C24.763 112.712 25.2713 112.546 25.7678 112.362C25.8819 112.321 26.0073 112.324 26.119 112.371C26.2306 112.418 26.3204 112.506 26.3703 112.617ZM22.2262 113.636C22.2511 113.689 22.2671 113.745 22.2735 113.804C22.3059 114.086 22.1145 114.341 21.8466 114.373C21.2967 114.441 20.7376 114.485 20.1828 114.504C20.0537 114.498 19.9317 114.443 19.8411 114.351C19.7504 114.259 19.6977 114.136 19.6935 114.007C19.6892 113.878 19.7337 113.752 19.8181 113.654C19.9026 113.556 20.0207 113.494 20.1491 113.479C20.6745 113.462 21.206 113.42 21.7279 113.356C21.8299 113.344 21.933 113.365 22.0225 113.415C22.112 113.465 22.1833 113.543 22.2262 113.636ZM17.9656 113.656C18.0072 113.744 18.0238 113.842 18.0138 113.939C18.0089 114.004 17.9911 114.068 17.9614 114.126C17.9318 114.184 17.8909 114.236 17.8411 114.278C17.7913 114.321 17.7336 114.353 17.6713 114.373C17.609 114.393 17.5434 114.4 17.4783 114.394C16.9271 114.331 16.3723 114.242 15.8286 114.132C15.5659 114.077 15.3907 113.807 15.4415 113.529C15.4518 113.464 15.4748 113.402 15.5094 113.347C15.5439 113.291 15.5892 113.243 15.6427 113.205C15.6961 113.168 15.7565 113.141 15.8204 113.127C15.8843 113.113 15.9503 113.112 16.0146 113.124C16.5308 113.23 17.058 113.315 17.5816 113.374C17.6641 113.384 17.7426 113.416 17.8098 113.465C17.8769 113.514 17.9306 113.579 17.9656 113.654V113.656ZM13.8062 112.678C13.8647 112.801 13.8736 112.942 13.8312 113.072C13.8127 113.135 13.7817 113.193 13.7401 113.243C13.6984 113.293 13.647 113.334 13.589 113.364C13.5309 113.394 13.4674 113.412 13.4023 113.416C13.3372 113.421 13.2719 113.412 13.2103 113.39C12.6875 113.201 12.1648 112.986 11.6573 112.75C11.5367 112.691 11.4435 112.587 11.3968 112.461C11.3502 112.335 11.3536 112.196 11.4064 112.072C11.4303 112.012 11.4662 111.957 11.512 111.911C11.5577 111.864 11.6123 111.828 11.6726 111.803C11.7328 111.779 11.7974 111.767 11.8624 111.768C11.9274 111.769 11.9916 111.783 12.0509 111.81C12.5325 112.034 13.0299 112.239 13.5269 112.418C13.6506 112.464 13.7509 112.558 13.8058 112.678H13.8062ZM9.95326 110.758C9.99053 110.837 10.0081 110.923 10.0043 111.01C10.0006 111.097 9.97569 111.182 9.93181 111.257C9.89997 111.314 9.85687 111.363 9.80518 111.403C9.75348 111.442 9.69428 111.47 9.63123 111.486C9.56818 111.501 9.50261 111.504 9.43856 111.493C9.37452 111.482 9.31336 111.458 9.25886 111.423C8.78775 111.117 8.32321 110.785 7.87837 110.438C7.77352 110.353 7.70472 110.232 7.68586 110.099C7.66701 109.965 7.6995 109.829 7.77679 109.719C7.81335 109.665 7.86055 109.62 7.91545 109.585C7.97035 109.551 8.03177 109.528 8.09591 109.518C8.16005 109.508 8.22553 109.512 8.28828 109.528C8.35103 109.545 8.40971 109.574 8.46069 109.614C8.88363 109.944 9.32453 110.259 9.77419 110.55C9.85212 110.601 9.91426 110.673 9.9537 110.758H9.95326ZM0.92819 94.4334C0.958979 94.4995 0.976104 94.5711 0.978541 94.644C0.997368 95.1956 1.03896 95.7539 1.10289 96.3029C1.13529 96.5844 0.944828 96.8401 0.676874 96.8721C0.611561 96.8789 0.545556 96.8726 0.482693 96.8536C0.419831 96.8346 0.361365 96.8034 0.310689 96.7616C0.260013 96.7199 0.21814 96.6685 0.1875 96.6104C0.156861 96.5523 0.138066 96.4887 0.132208 96.4233C0.0647819 95.8449 0.0209985 95.2569 0.000858088 94.6764C-0.00691732 94.5435 0.0383936 94.413 0.126825 94.3136C0.215256 94.2142 0.339564 94.1539 0.472405 94.1461C0.568177 94.144 0.662458 94.1701 0.743504 94.2212C0.82455 94.2723 0.888779 94.3461 0.92819 94.4334ZM6.60252 107.992C6.64813 108.088 6.66416 108.195 6.64856 108.3C6.63297 108.405 6.58645 108.503 6.51495 108.581C6.47105 108.629 6.41778 108.667 6.35847 108.693C6.29917 108.72 6.23509 108.733 6.17023 108.734C6.10538 108.734 6.04113 108.721 5.9815 108.696C5.92186 108.67 5.86812 108.633 5.82361 108.585C5.42956 108.177 5.04602 107.746 4.68524 107.303C4.60068 107.198 4.55904 107.065 4.56871 106.931C4.57838 106.796 4.63864 106.671 4.73735 106.579C4.78544 106.535 4.84198 106.502 4.90345 106.481C4.96493 106.46 5.03003 106.453 5.0947 106.458C5.15937 106.463 5.22224 106.482 5.27939 106.513C5.33655 106.544 5.38677 106.586 5.42694 106.637C5.76888 107.057 6.13228 107.469 6.50707 107.855C6.54603 107.895 6.57825 107.942 6.60252 107.992ZM1.55648 98.8586C1.57121 98.8896 1.58294 98.922 1.59151 98.9553C1.72724 99.489 1.88661 100.024 2.06525 100.545C2.11031 100.671 2.10486 100.81 2.05004 100.932C1.99522 101.054 1.89526 101.151 1.77102 101.201C1.70963 101.224 1.64432 101.234 1.57906 101.23C1.5138 101.226 1.44995 101.209 1.39142 101.18C1.33289 101.151 1.28088 101.111 1.23858 101.061C1.19628 101.011 1.16456 100.953 1.14536 100.891C0.957087 100.343 0.789397 99.7798 0.646663 99.2185C0.577048 98.9439 0.732041 98.6628 0.992552 98.5906C1.10306 98.561 1.22049 98.5717 1.32382 98.6208C1.42715 98.6699 1.50962 98.7542 1.55648 98.8586ZM3.92078 104.511C3.97478 104.624 3.98681 104.753 3.95472 104.874C3.92264 104.995 3.84853 105.101 3.74565 105.172C3.69147 105.208 3.63052 105.233 3.56654 105.244C3.50255 105.255 3.4369 105.254 3.37361 105.239C3.31033 105.224 3.25075 105.196 3.19855 105.158C3.14635 105.119 3.10262 105.07 3.07008 105.014C2.77279 104.523 2.49126 104.013 2.23425 103.497C2.23247 103.494 2.23086 103.49 2.22943 103.487C2.17203 103.368 2.16184 103.231 2.20089 103.104C2.23994 102.978 2.32535 102.871 2.44003 102.804C2.49737 102.773 2.56041 102.755 2.6253 102.749C2.69019 102.743 2.75555 102.751 2.81738 102.771C2.87921 102.792 2.93619 102.825 2.98484 102.868C3.03349 102.911 3.07277 102.964 3.10028 103.023C3.3446 103.514 3.61211 103.998 3.89452 104.464C3.90448 104.479 3.91354 104.495 3.92166 104.511H3.92078Z" fill="url(#paint10_linear_1418_110)"/>
<path d="M1.11692 90.8317C1.16144 90.9261 1.17741 91.0314 1.1629 91.1347C1.12612 91.3974 1.09416 91.6636 1.06745 91.9285C1.06255 91.9939 1.04469 92.0577 1.01491 92.1161C0.985135 92.1746 0.944037 92.2265 0.894006 92.2689C0.843975 92.3113 0.786009 92.3434 0.723482 92.3632C0.660955 92.383 0.595114 92.3902 0.529788 92.3843C0.397571 92.3658 0.277921 92.2961 0.196602 92.1902C0.115284 92.0843 0.0788037 91.9507 0.095019 91.8182C0.122603 91.5397 0.156316 91.2591 0.194845 90.9832C0.203673 90.8762 0.248022 90.7752 0.320843 90.6963C0.393664 90.6173 0.490779 90.565 0.596754 90.5476C0.702729 90.5302 0.811482 90.5487 0.905731 90.6002C0.999979 90.6516 1.07431 90.7332 1.11692 90.8317Z" fill="url(#paint11_linear_1418_110)"/>
</g>
<g opacity="0.3">
<path d="M8.8709 77.4778C8.92287 77.5868 8.93596 77.7103 8.908 77.8278C8.88004 77.9453 8.81272 78.0497 8.71723 78.1236C8.51232 78.2768 8.30697 78.4375 8.10688 78.6008C8.05665 78.642 7.9985 78.6724 7.93604 78.6901C7.87358 78.7079 7.80813 78.7126 7.74377 78.704C7.6794 78.6954 7.61749 78.6737 7.56186 78.6403C7.50622 78.6068 7.45806 78.5622 7.42036 78.5093C7.34059 78.4007 7.30523 78.2657 7.3215 78.1319C7.33777 77.9981 7.40444 77.8755 7.50793 77.7891C7.71853 77.617 7.93482 77.448 8.15067 77.2865C8.20882 77.2452 8.27533 77.2172 8.3455 77.2045C8.41566 77.1918 8.48776 77.1947 8.55668 77.213C8.62561 77.2312 8.68968 77.2644 8.74436 77.3102C8.79904 77.3559 8.84299 77.4132 8.87309 77.4778H8.8709Z" fill="url(#paint12_linear_1418_110)"/>
<path d="M37.0009 84.8803C37.1011 85.0916 37.1983 85.306 37.2925 85.5234C37.3469 85.6461 37.3519 85.785 37.3067 85.9113C37.2615 86.0377 37.1694 86.1418 37.0495 86.2021C36.9904 86.2294 36.9264 86.2444 36.8614 86.2463C36.7963 86.2482 36.7315 86.2369 36.671 86.213C36.6104 86.1892 36.5553 86.1533 36.509 86.1075C36.4627 86.0618 36.4261 86.0071 36.4015 85.9468C36.1826 85.4464 35.9484 84.956 35.6971 84.484C35.6323 84.3655 35.6156 84.2267 35.6505 84.0962C35.6854 83.9658 35.7692 83.8538 35.8845 83.7835C35.9407 83.7509 36.0031 83.7301 36.0676 83.7225C36.1322 83.7149 36.1977 83.7205 36.26 83.7391C36.3223 83.7576 36.3802 83.7888 36.4301 83.8305C36.4799 83.8722 36.5207 83.9237 36.55 83.9818C36.7063 84.2756 36.8578 84.5782 37.0009 84.8803ZM38.2015 88.0633C38.2138 88.0896 38.2241 88.1168 38.2321 88.1448C38.3893 88.6938 38.5264 89.256 38.6389 89.8155C38.6677 89.946 38.6444 90.0826 38.574 90.1962C38.5036 90.3098 38.3916 90.3914 38.2619 90.4237C38.1976 90.4364 38.1315 90.4361 38.0673 90.4229C38.0032 90.4097 37.9423 90.3837 37.8883 90.3467C37.8343 90.3096 37.7883 90.2621 37.7529 90.207C37.7175 90.1519 37.6934 90.0902 37.6822 90.0257C37.5754 89.4946 37.4449 88.9604 37.2956 88.4385C37.2568 88.3104 37.2693 88.1723 37.3303 88.0532C37.3913 87.934 37.4961 87.8432 37.6227 87.7997C37.7347 87.7658 37.8552 87.7739 37.9618 87.8224C38.0683 87.8709 38.1535 87.9566 38.2015 88.0633ZM35.1401 81.7213C35.191 81.8282 35.2046 81.9491 35.1787 82.0646C35.1529 82.1802 35.089 82.2838 34.9974 82.3588C34.9465 82.3991 34.8879 82.4286 34.8252 82.4454C34.7625 82.4622 34.697 82.466 34.6328 82.4565C34.5686 82.447 34.507 82.4244 34.4518 82.3901C34.3967 82.3558 34.3492 82.3106 34.3122 82.2572C34.0005 81.8237 33.6668 81.3986 33.3201 80.9932C33.2331 80.8901 33.1885 80.7579 33.1953 80.6233C33.202 80.4886 33.2596 80.3615 33.3564 80.2677C33.4034 80.2229 33.4591 80.1882 33.52 80.1659C33.5809 80.1435 33.6458 80.1339 33.7106 80.1377C33.7754 80.1415 33.8387 80.1585 33.8967 80.1878C33.9546 80.2171 34.0059 80.258 34.0473 80.308C34.412 80.7348 34.7636 81.1836 35.092 81.6394C35.1104 81.6652 35.1265 81.6926 35.1401 81.7213ZM38.9611 92.3966C38.9896 92.457 39.0065 92.5222 39.011 92.5888C39.0496 93.1601 39.0653 93.7398 39.0583 94.3121C39.059 94.3778 39.0467 94.443 39.0222 94.504C38.9977 94.565 38.9613 94.6206 38.9153 94.6675C38.8692 94.7144 38.8144 94.7518 38.7539 94.7775C38.6934 94.8032 38.6284 94.8168 38.5627 94.8173C38.2925 94.813 38.0767 94.5796 38.0811 94.2955C38.0881 93.7525 38.0732 93.2009 38.0373 92.6593C38.0251 92.5267 38.0659 92.3947 38.1507 92.2922C38.2355 92.1896 38.3575 92.1248 38.49 92.112C38.5881 92.1064 38.6855 92.1306 38.7696 92.1814C38.8537 92.2322 38.9204 92.3072 38.9611 92.3966ZM32.257 78.5212C32.2997 78.6112 32.3163 78.7113 32.305 78.8103C32.2937 78.9092 32.2549 79.0031 32.1931 79.0812C32.1531 79.1322 32.103 79.1746 32.0459 79.2055C31.9889 79.2364 31.9261 79.2552 31.8615 79.2608C31.7968 79.2664 31.7317 79.2586 31.6702 79.2379C31.6087 79.2173 31.5521 79.1842 31.5039 79.1407C31.1099 78.7904 30.6948 78.452 30.2723 78.1359C30.1656 78.0535 30.0943 77.9337 30.0727 77.8007C30.0512 77.6676 30.081 77.5314 30.1563 77.4196C30.1917 77.3652 30.2379 77.3187 30.2921 77.2829C30.3462 77.2471 30.4072 77.2229 30.4711 77.2116C30.535 77.2004 30.6006 77.2024 30.6637 77.2175C30.7268 77.2326 30.7861 77.2606 30.838 77.2996C31.2828 77.6319 31.7193 77.9879 32.1348 78.3574C32.1863 78.4031 32.2279 78.4588 32.257 78.5212ZM28.7771 76.061C28.8114 76.1337 28.829 76.2133 28.8286 76.2938C28.8281 76.3742 28.8096 76.4536 28.7745 76.526C28.7468 76.5848 28.7074 76.6374 28.6587 76.6804C28.61 76.7235 28.553 76.7562 28.4912 76.7764C28.4294 76.7967 28.3642 76.8041 28.2994 76.7982C28.2346 76.7923 28.1718 76.7733 28.1147 76.7422C27.6554 76.4896 27.1808 76.2545 26.7035 76.0417C26.582 75.9844 26.487 75.8827 26.4382 75.7575C26.3893 75.6324 26.3902 75.4932 26.4408 75.3688C26.4637 75.3079 26.4987 75.2523 26.5437 75.2053C26.5887 75.1583 26.6427 75.121 26.7025 75.0954C26.7623 75.0699 26.8267 75.0567 26.8917 75.0568C26.9568 75.0568 27.0211 75.07 27.0809 75.0956C27.5827 75.318 28.0823 75.5653 28.5656 75.8311C28.6586 75.8835 28.7326 75.964 28.7771 76.061ZM24.8707 74.4554C24.924 74.5681 24.9362 74.6959 24.9053 74.8166C24.8909 74.8804 24.8637 74.9405 24.8255 74.9935C24.7872 75.0465 24.7387 75.0912 24.6828 75.125C24.6269 75.1588 24.5647 75.181 24.5001 75.1902C24.4354 75.1994 24.3695 75.1955 24.3064 75.1787C23.8055 75.0369 23.2941 74.916 22.7849 74.8184C22.6543 74.7898 22.54 74.7113 22.4664 74.5996C22.3928 74.488 22.3657 74.3521 22.3908 74.2208C22.4001 74.1558 22.4224 74.0934 22.4562 74.0373C22.4901 73.9811 22.5349 73.9323 22.588 73.8938C22.6411 73.8553 22.7014 73.8278 22.7653 73.8131C22.8292 73.7983 22.8954 73.7965 22.96 73.8079C23.4955 73.9099 24.0345 74.0377 24.5612 74.187C24.629 74.2071 24.6916 74.2414 24.745 74.2877C24.7984 74.334 24.8413 74.3912 24.8707 74.4554ZM20.7262 73.7816C20.7631 73.8595 20.7805 73.9451 20.777 74.0312C20.7761 74.0969 20.7622 74.1618 20.7361 74.2221C20.71 74.2824 20.6722 74.3369 20.6249 74.3826C20.5776 74.4282 20.5217 74.464 20.4605 74.4879C20.3993 74.5119 20.3339 74.5234 20.2682 74.522C19.7507 74.4983 19.2266 74.4979 18.71 74.522C18.4403 74.5338 18.2117 74.3131 18.1999 74.0303C18.1881 73.7475 18.3974 73.5075 18.6671 73.4961C19.2113 73.4721 19.7617 73.4729 20.3081 73.4961C20.3971 73.5012 20.4831 73.5304 20.5568 73.5807C20.6305 73.631 20.6891 73.7005 20.7262 73.7816ZM16.5427 74.0798C16.5634 74.1231 16.5781 74.1691 16.5865 74.2164C16.6351 74.4953 16.4591 74.7628 16.1924 74.8131C15.6841 74.9099 15.1732 75.0321 14.6731 75.1722C14.6099 75.1888 14.544 75.1926 14.4793 75.1833C14.4146 75.174 14.3524 75.1518 14.2965 75.118C14.2405 75.0843 14.1919 75.0396 14.1535 74.9867C14.1151 74.9338 14.0877 74.8738 14.0729 74.8101C14.0374 74.6811 14.0534 74.5433 14.1175 74.4258C14.1816 74.3084 14.2889 74.2204 14.4166 74.1805C14.942 74.0312 15.4805 73.9042 16.0155 73.8026C16.1217 73.7834 16.2313 73.8003 16.3268 73.8505C16.4223 73.9007 16.4983 73.9814 16.5427 74.0798ZM12.5308 75.335C12.5352 75.3447 12.5396 75.3543 12.5435 75.3639C12.5951 75.4879 12.597 75.627 12.5487 75.7523C12.5004 75.8776 12.4057 75.9795 12.2843 76.0369C11.9341 76.1919 11.5838 76.3605 11.2423 76.5378C11.1188 76.602 10.9964 76.6675 10.8749 76.7344C10.8176 76.7652 10.7545 76.784 10.6897 76.7897C10.6248 76.7953 10.5595 76.7876 10.4977 76.7671C10.4358 76.7466 10.3789 76.7137 10.3302 76.6705C10.2816 76.6272 10.2422 76.5744 10.2147 76.5154C10.1524 76.3959 10.139 76.2568 10.1773 76.1276C10.2156 75.9984 10.3027 75.8891 10.42 75.8228C10.5479 75.7527 10.6766 75.6839 10.8062 75.6161C11.1643 75.4301 11.5334 75.2527 11.9008 75.0907C12.0168 75.0406 12.148 75.0381 12.2658 75.0838C12.3837 75.1296 12.4789 75.2198 12.5308 75.335Z" fill="url(#paint13_linear_1418_110)"/>
<path d="M38.7921 96.8086C38.8366 96.9042 38.8519 97.0109 38.8359 97.1151C38.796 97.3901 38.7483 97.6694 38.6988 97.9448C38.6887 98.0094 38.6657 98.0714 38.6312 98.127C38.5966 98.1825 38.5513 98.2306 38.4979 98.2684C38.4444 98.3061 38.3839 98.3327 38.32 98.3466C38.2561 98.3605 38.19 98.3615 38.1257 98.3493C37.9954 98.319 37.8821 98.239 37.8099 98.1264C37.7378 98.0138 37.7123 97.8775 37.7391 97.7465C37.7872 97.4837 37.831 97.221 37.8704 96.9583C37.8807 96.8525 37.9257 96.7529 37.9984 96.6753C38.0712 96.5977 38.1676 96.5464 38.2726 96.5293C38.3776 96.5123 38.4853 96.5305 38.5789 96.5811C38.6725 96.6317 38.7467 96.7118 38.7899 96.8091L38.7921 96.8086Z" fill="url(#paint14_linear_1418_110)"/>
</g>
<path d="M33.4203 98.8292C33.44 98.7837 33.4457 98.7333 33.4366 98.6845C33.4274 98.6358 33.4039 98.5909 33.3691 98.5556L31.3463 96.545C31.6013 95.1863 31.6438 93.7963 31.4724 92.4246L33.6112 90.5646C33.6482 90.5317 33.6744 90.4884 33.6865 90.4404C33.6986 90.3924 33.696 90.3419 33.6791 90.2954L32.5008 87.0138C32.4854 86.9681 32.4559 86.9285 32.4166 86.9005C32.3773 86.8725 32.3302 86.8576 32.2819 86.8579L29.503 86.935C28.7759 85.7924 27.8685 84.7751 26.816 83.9227L27.073 81.0142C27.078 80.9654 27.0681 80.9163 27.0447 80.8732C27.0213 80.8302 26.9853 80.7952 26.9417 80.7729L23.9014 79.322C23.8578 79.3005 23.8084 79.2941 23.7609 79.3037C23.7133 79.3134 23.6703 79.3386 23.6386 79.3754L21.7293 81.4949C20.439 81.2239 19.1119 81.1758 17.8054 81.3526L16.03 79.1017C16.0007 79.0637 15.9599 79.0361 15.9136 79.0231C15.8674 79.0102 15.8182 79.0126 15.7734 79.0299L12.6516 80.2594C12.6063 80.2781 12.5678 80.3103 12.5414 80.3517C12.515 80.393 12.502 80.4415 12.5041 80.4905L12.5838 83.4091C11.4826 84.185 10.5159 85.1361 9.72209 86.2244L6.95236 85.9477C6.90423 85.9435 6.85601 85.9548 6.81474 85.9799C6.77347 86.005 6.74131 86.0427 6.72293 86.0874L5.34857 89.277C5.32895 89.3226 5.32339 89.3729 5.3326 89.4217C5.3418 89.4704 5.36535 89.5153 5.40023 89.5506L7.42303 91.5612C7.16767 92.9199 7.12498 94.3102 7.29649 95.6821L5.15636 97.542C5.1195 97.575 5.09335 97.6183 5.08126 97.6662C5.06917 97.7142 5.07169 97.7647 5.0885 97.8112L6.26671 101.095C6.28229 101.141 6.3118 101.18 6.35107 101.208C6.39035 101.236 6.43741 101.251 6.48562 101.251L9.26412 101.174C9.99135 102.316 10.8989 103.334 11.9515 104.186L11.6945 107.095C11.6895 107.143 11.6993 107.193 11.7228 107.236C11.7462 107.279 11.7822 107.314 11.8259 107.336L14.8662 108.787C14.9094 108.808 14.9583 108.814 15.0053 108.804C15.0523 108.794 15.0948 108.77 15.1263 108.733L17.0405 106.611C18.3307 106.882 19.6579 106.931 20.9644 106.754L22.7402 109.004C22.7694 109.043 22.8103 109.07 22.8565 109.083C22.9028 109.096 22.952 109.094 22.9968 109.076L26.1181 107.847C26.1635 107.828 26.202 107.796 26.2285 107.755C26.255 107.713 26.2681 107.665 26.2661 107.616L26.186 104.697C27.2873 103.921 28.2541 102.97 29.0481 101.882L31.8178 102.158C31.8659 102.163 31.9141 102.151 31.9553 102.126C31.9965 102.101 32.0286 102.064 32.0468 102.019L33.4203 98.8292Z" fill="url(#paint15_linear_1418_110)"/>
<path opacity="0.7" d="M22.3877 92.4929C23.1159 94.0319 22.6811 95.9426 21.3002 96.9487C19.7822 98.0547 17.688 97.6554 16.6315 96.0586C16.1188 95.2826 15.9223 94.3399 16.0825 93.4237C16.2294 92.5159 16.7268 91.7021 17.4678 91.1575C18.9853 90.0515 21.0795 90.4508 22.1364 92.0476C22.2306 92.1899 22.3146 92.3387 22.3877 92.4929ZM17.079 95.246C17.1355 95.3655 17.2004 95.4808 17.2734 95.591C18.0834 96.8169 19.6894 97.1212 20.8531 96.2736C22.0169 95.4259 22.305 93.7394 21.4941 92.5152C20.6832 91.291 19.0781 90.9828 17.9148 91.8326C17.3468 92.2504 16.9654 92.8744 16.8526 93.5704C16.7539 94.1389 16.833 94.724 17.079 95.246Z" fill="white"/>
<path opacity="0.7" d="M26.6934 90.1723C26.8186 90.4368 26.9316 90.709 27.0323 90.9889C27.0644 91.0765 27.0948 91.1652 27.1234 91.2551C27.2661 91.6945 27.375 92.1441 27.4491 92.6001C27.4491 92.6063 27.4491 92.6124 27.4522 92.6185C27.4548 92.636 27.4579 92.6536 27.4605 92.6715C27.4658 92.7057 27.4706 92.7402 27.4754 92.7744C27.482 92.8167 27.4754 92.8599 27.4564 92.8983C27.4374 92.9366 27.4071 92.9681 27.3694 92.9885C27.3511 92.9978 27.3315 93.0043 27.3112 93.0078C27.2851 93.0111 27.2585 93.0092 27.2331 93.0022C27.2077 92.9952 27.184 92.9832 27.1633 92.9669C27.1425 92.9506 27.1253 92.9303 27.1125 92.9072C27.0997 92.8842 27.0917 92.8588 27.0888 92.8326C27.0058 92.2528 26.8643 91.6829 26.6663 91.1316C25.6838 88.3934 23.4574 86.5204 20.9162 85.9547C19.4569 85.6286 17.9332 85.7489 16.5431 86.3001C16.2905 86.3997 16.0432 86.5124 15.8023 86.6377C14.1889 87.4775 12.9126 88.8637 12.1591 90.6097C11.2949 92.6125 11.2265 94.8693 11.9678 96.9207C13.5002 101.183 18.0383 103.348 22.0909 101.752C22.3403 101.654 22.5844 101.543 22.8221 101.419C23.8613 100.876 24.7664 100.108 25.4714 99.1707C25.4891 99.1474 25.5117 99.1283 25.5375 99.1147C25.5707 99.0973 25.6084 99.0903 25.6456 99.0945C25.6828 99.0988 25.7179 99.114 25.7464 99.1383C25.7873 99.1734 25.8133 99.2228 25.8191 99.2763C25.825 99.3299 25.8103 99.3837 25.7779 99.4268C25.0376 100.411 24.0869 101.218 22.995 101.789C22.7454 101.919 22.489 102.036 22.2271 102.139C17.9726 103.815 13.2051 101.538 11.6 97.0674C10.8215 94.9138 10.8934 92.5445 11.8009 90.4421C12.589 88.6088 13.9319 87.1535 15.6254 86.2721C15.8784 86.1405 16.1381 86.0221 16.4034 85.9175C18.4643 85.1057 20.7047 85.1863 22.7118 86.1443C24.4613 86.9779 25.8502 88.3912 26.6934 90.1723Z" fill="white"/>
<g opacity="0.3">
<path d="M49.1701 120.369C49.1992 120.43 49.2086 120.499 49.1969 120.566C49.1853 120.633 49.1531 120.695 49.1048 120.743C48.9166 120.925 48.7209 121.104 48.5225 121.275C48.4923 121.302 48.457 121.321 48.4188 121.333C48.3806 121.346 48.3403 121.35 48.3004 121.346C48.2606 121.342 48.222 121.329 48.187 121.31C48.1521 121.29 48.1216 121.263 48.0974 121.231C48.0466 121.165 48.0228 121.082 48.0309 120.999C48.0391 120.917 48.0785 120.84 48.1412 120.785C48.3303 120.622 48.5168 120.452 48.6963 120.278C48.7249 120.25 48.7589 120.228 48.7963 120.213C48.8337 120.199 48.8736 120.192 48.9137 120.194C48.9537 120.196 48.993 120.206 49.029 120.223C49.0651 120.241 49.0972 120.265 49.1232 120.296C49.142 120.318 49.1578 120.343 49.1701 120.369Z" fill="url(#paint16_linear_1418_110)"/>
<path d="M47.3281 121.852C47.3615 121.922 47.3689 122.001 47.3489 122.076C47.3289 122.151 47.2829 122.217 47.2191 122.261C46.845 122.508 46.4585 122.735 46.061 122.942C45.9778 122.985 45.8939 123.028 45.8092 123.069C45.6582 123.144 45.48 123.064 45.4073 122.917C45.3727 122.842 45.3684 122.756 45.3952 122.678C45.422 122.599 45.4779 122.534 45.5513 122.495C45.6322 122.456 45.7123 122.415 45.7917 122.374C46.1709 122.176 46.5396 121.959 46.8964 121.724C46.9299 121.702 46.9676 121.687 47.0071 121.68C47.0466 121.673 47.0871 121.674 47.1262 121.683C47.1652 121.693 47.2018 121.71 47.2339 121.734C47.266 121.758 47.2929 121.789 47.3128 121.823C47.3185 121.833 47.3236 121.842 47.3281 121.852ZM44.4927 123.249C44.499 123.264 44.5046 123.278 44.5093 123.293C44.5351 123.372 44.5295 123.457 44.4937 123.532C44.4579 123.607 44.3946 123.664 44.3171 123.693C43.8085 123.869 43.2892 124.011 42.7623 124.119C42.7226 124.126 42.682 124.125 42.6426 124.116C42.6033 124.108 42.5661 124.091 42.5332 124.068C42.5002 124.045 42.4722 124.015 42.4507 123.981C42.4291 123.947 42.4145 123.909 42.4077 123.869C42.3909 123.789 42.4063 123.704 42.4506 123.635C42.4949 123.565 42.5647 123.516 42.645 123.497C43.1475 123.393 43.6428 123.258 44.1279 123.09C44.1976 123.067 44.2735 123.07 44.3409 123.1C44.4082 123.129 44.4623 123.182 44.4927 123.249ZM41.4164 123.882C41.4341 123.92 41.4446 123.96 41.4475 124.001C41.4544 124.083 41.4286 124.165 41.3757 124.228C41.3228 124.291 41.2471 124.33 41.1651 124.337C40.6297 124.376 40.0924 124.38 39.5565 124.349C39.4744 124.342 39.3983 124.303 39.3447 124.241C39.2912 124.178 39.2646 124.097 39.2706 124.015C39.2716 123.974 39.2806 123.934 39.2971 123.897C39.3136 123.86 39.3373 123.827 39.3669 123.799C39.3964 123.771 39.4311 123.749 39.4691 123.735C39.5071 123.721 39.5475 123.714 39.588 123.716C40.0986 123.745 40.6104 123.741 41.1205 123.705C41.1819 123.701 41.2432 123.715 41.2959 123.747C41.3487 123.779 41.3905 123.826 41.4156 123.882H41.4164ZM38.2846 123.701C38.3135 123.762 38.323 123.831 38.3118 123.898C38.3061 123.938 38.2924 123.976 38.2716 124.011C38.2508 124.046 38.2233 124.076 38.1906 124.1C38.158 124.123 38.1209 124.141 38.0815 124.15C38.0422 124.159 38.0013 124.16 37.9615 124.154C37.4325 124.053 36.9106 123.919 36.3989 123.752C36.3209 123.724 36.2567 123.667 36.2196 123.593C36.1825 123.519 36.1753 123.434 36.1996 123.354C36.21 123.316 36.2281 123.279 36.2529 123.247C36.2777 123.215 36.3087 123.189 36.3441 123.17C36.3794 123.15 36.4182 123.138 36.4584 123.134C36.4985 123.13 36.539 123.134 36.5775 123.146C37.065 123.306 37.5622 123.434 38.0661 123.529C38.1134 123.539 38.1577 123.559 38.1955 123.589C38.2333 123.619 38.2635 123.657 38.2837 123.701H38.2846ZM35.2881 122.722C35.3081 122.765 35.3189 122.811 35.3198 122.857C35.3207 122.904 35.3117 122.951 35.2933 122.994C35.2783 123.031 35.2559 123.065 35.2274 123.093C35.199 123.122 35.165 123.144 35.1277 123.159C35.0903 123.173 35.0504 123.181 35.0102 123.179C34.97 123.178 34.9305 123.169 34.894 123.152C34.4038 122.919 33.9286 122.656 33.4711 122.364C33.4011 122.318 33.3516 122.247 33.3326 122.166C33.3136 122.084 33.3266 121.998 33.369 121.926C33.3884 121.891 33.4147 121.86 33.4464 121.836C33.4781 121.811 33.5146 121.793 33.5534 121.784C33.5923 121.774 33.6328 121.772 33.6724 121.778C33.712 121.784 33.7499 121.799 33.7837 121.82C34.22 122.099 34.6733 122.35 35.141 122.572C35.2058 122.603 35.2576 122.657 35.2872 122.722H35.2881ZM32.6063 121.01C32.6319 121.064 32.6423 121.124 32.6364 121.183C32.6306 121.243 32.6087 121.299 32.5731 121.347C32.5495 121.38 32.5195 121.407 32.485 121.427C32.4505 121.448 32.4121 121.461 32.3724 121.465C32.3326 121.47 32.2923 121.467 32.2539 121.455C32.2155 121.444 32.1799 121.425 32.1492 121.399C31.7269 121.048 31.3269 120.672 30.9513 120.271C30.8949 120.21 30.8638 120.13 30.8643 120.046C30.8648 119.963 30.8968 119.883 30.954 119.822C30.9816 119.793 31.0148 119.77 31.0517 119.755C31.0887 119.739 31.1284 119.731 31.1685 119.731C31.2086 119.732 31.2481 119.74 31.2848 119.757C31.3214 119.773 31.3542 119.797 31.3813 119.826C31.7392 120.208 32.1206 120.567 32.5232 120.902C32.5585 120.931 32.5869 120.968 32.6063 121.01ZM30.4045 118.663C30.436 118.729 30.4445 118.803 30.4286 118.875C30.4127 118.946 30.3734 119.01 30.3169 119.057C30.2857 119.082 30.2496 119.1 30.2109 119.111C30.1723 119.122 30.1318 119.125 30.0921 119.119C30.0523 119.113 30.0142 119.1 29.9799 119.079C29.9457 119.058 29.9161 119.03 29.8931 118.997C29.5657 118.549 29.2655 118.081 28.9942 117.596C28.9537 117.524 28.9424 117.438 28.9624 117.358C28.9824 117.277 29.0322 117.207 29.1019 117.162C29.1362 117.141 29.1744 117.128 29.2141 117.122C29.2539 117.117 29.2943 117.119 29.333 117.13C29.3717 117.14 29.4078 117.159 29.4392 117.184C29.4705 117.209 29.4964 117.24 29.5152 117.276C29.7737 117.738 30.0598 118.185 30.3721 118.613C30.3844 118.629 30.3952 118.645 30.4045 118.663ZM28.2805 114.267C28.2885 114.284 28.2951 114.302 28.3002 114.32C28.4258 114.768 28.5742 115.209 28.7446 115.642C28.7705 115.707 28.7963 115.773 28.8226 115.835C28.8551 115.911 28.857 115.997 28.8278 116.075C28.7986 116.153 28.7406 116.216 28.6658 116.252C28.6291 116.269 28.5893 116.278 28.549 116.278C28.5087 116.279 28.4686 116.271 28.4313 116.256C28.3941 116.24 28.3604 116.217 28.3324 116.188C28.3045 116.159 28.2828 116.125 28.2687 116.087C28.2395 116.019 28.2119 115.95 28.186 115.882C28.0075 115.428 27.8523 114.966 27.721 114.497C27.6972 114.418 27.7052 114.332 27.7433 114.259C27.7815 114.185 27.8468 114.129 27.9255 114.103C27.9945 114.083 28.0685 114.088 28.1338 114.119C28.1991 114.149 28.2512 114.202 28.2805 114.267Z" fill="url(#paint17_linear_1418_110)"/>
</g>
<g opacity="0.3">
<path d="M51.8352 104.426C51.871 104.5 51.8773 104.585 51.8529 104.663C51.8286 104.742 51.7753 104.808 51.7038 104.849C51.6683 104.868 51.6292 104.879 51.5891 104.882C51.5491 104.885 51.5087 104.88 51.4707 104.867C51.4326 104.854 51.3975 104.834 51.3677 104.807C51.3378 104.78 51.3138 104.747 51.2971 104.711C51.0677 104.241 50.8108 103.786 50.5278 103.346C50.4831 103.276 50.4666 103.192 50.4815 103.11C50.4965 103.029 50.5418 102.956 50.6084 102.906C50.6412 102.883 50.6785 102.867 50.7178 102.859C50.7572 102.85 50.7978 102.85 50.8371 102.859C50.8764 102.867 50.9136 102.883 50.9464 102.906C50.9793 102.929 51.007 102.959 51.0278 102.993C51.3247 103.454 51.594 103.932 51.8343 104.424L51.8352 104.426ZM52.4578 105.914C52.4626 105.925 52.467 105.935 52.4709 105.946C52.6542 106.467 52.8077 106.998 52.9306 107.536C52.9504 107.617 52.9381 107.701 52.8963 107.773C52.8545 107.844 52.7866 107.896 52.7069 107.918C52.6675 107.927 52.6267 107.928 52.587 107.921C52.5472 107.914 52.5092 107.899 52.4753 107.877C52.4414 107.855 52.4122 107.827 52.3895 107.793C52.3668 107.76 52.351 107.722 52.3431 107.683C52.2261 107.169 52.0799 106.662 51.9052 106.165C51.8768 106.087 51.8794 106.002 51.9126 105.926C51.9458 105.85 52.007 105.79 52.0834 105.758C52.1538 105.732 52.2316 105.733 52.3011 105.761C52.3705 105.79 52.4266 105.844 52.4578 105.912V105.914ZM50.104 101.743C50.1337 101.806 50.1427 101.876 50.1298 101.944C50.1169 102.013 50.0827 102.075 50.0322 102.123C50.0028 102.15 49.9682 102.171 49.9304 102.184C49.8926 102.197 49.8525 102.203 49.8125 102.2C49.7726 102.197 49.7336 102.186 49.6981 102.167C49.6626 102.149 49.6313 102.123 49.6062 102.092C49.2758 101.694 48.9216 101.317 48.5457 100.962C48.4859 100.904 48.4502 100.826 48.4459 100.743C48.4416 100.66 48.469 100.578 48.5225 100.514C48.5482 100.484 48.5799 100.458 48.6157 100.44C48.6515 100.422 48.6906 100.412 48.7306 100.41C48.7706 100.408 48.8107 100.414 48.8482 100.428C48.8858 100.441 48.9201 100.463 48.949 100.491C49.3431 100.863 49.7143 101.258 50.0606 101.675C50.0778 101.695 50.0923 101.717 50.104 101.741V101.743ZM53.1736 109.069C53.1893 109.102 53.1994 109.138 53.2034 109.174C53.2622 109.726 53.2891 110.28 53.284 110.835C53.2849 110.875 53.2776 110.916 53.2626 110.954C53.2475 110.992 53.2251 111.026 53.1966 111.056C53.168 111.085 53.1339 111.108 53.0963 111.124C53.0587 111.14 53.0183 111.148 52.9775 111.148C52.8954 111.144 52.818 111.109 52.762 111.049C52.706 110.989 52.676 110.909 52.6785 110.827C52.6836 110.298 52.658 109.77 52.6018 109.244C52.5911 109.162 52.613 109.08 52.6629 109.014C52.7127 108.948 52.7865 108.905 52.868 108.894C52.9307 108.887 52.9941 108.9 53.0489 108.931C53.1038 108.962 53.1475 109.01 53.1736 109.067V109.069ZM47.8071 99.5744C47.8314 99.6257 47.8421 99.6823 47.8382 99.7389C47.8343 99.7955 47.8159 99.8501 47.7848 99.8975C47.7631 99.9313 47.7348 99.9602 47.7015 99.9826C47.6682 100.005 47.6307 100.02 47.5913 100.028C47.5518 100.035 47.5113 100.034 47.4722 100.025C47.4332 100.016 47.3963 99.9992 47.364 99.9755C46.9527 99.6727 46.5229 99.3957 46.0772 99.1462C46.0055 99.1041 45.9525 99.0362 45.9292 98.9563C45.9059 98.8765 45.9141 98.7907 45.952 98.7167C45.9693 98.6804 45.9938 98.648 46.024 98.6215C46.0543 98.5951 46.0896 98.5751 46.1279 98.5628C46.1662 98.5505 46.2065 98.5461 46.2465 98.55C46.2865 98.5539 46.3253 98.5659 46.3605 98.5853C46.8277 98.8473 47.2783 99.1377 47.7099 99.4549C47.7518 99.486 47.7852 99.5271 47.8071 99.5744ZM45.0838 98.0486C45.1026 98.0882 45.1133 98.1312 45.1152 98.175C45.1172 98.2189 45.1104 98.2626 45.0952 98.3038C45.0823 98.3419 45.0617 98.377 45.0349 98.4069C45.008 98.4368 44.9754 98.461 44.9389 98.4779C44.9024 98.4949 44.8629 98.5042 44.8227 98.5055C44.7825 98.5067 44.7425 98.4998 44.7051 98.4851C44.236 98.295 43.7557 98.1342 43.2668 98.0035C43.1874 97.9801 43.1202 97.9268 43.0794 97.8548C43.0385 97.7829 43.0272 97.6979 43.0479 97.6177C43.0563 97.5783 43.0726 97.541 43.0957 97.508C43.1189 97.475 43.1484 97.447 43.1826 97.4256C43.2168 97.4043 43.2549 97.39 43.2947 97.3837C43.3345 97.3773 43.3752 97.379 43.4143 97.3887C43.9268 97.5251 44.4303 97.6932 44.9218 97.8922C44.9937 97.9219 45.0516 97.9778 45.0838 98.0486ZM42.0921 97.2504C42.1185 97.3067 42.1285 97.3694 42.121 97.4312C42.117 97.4715 42.1051 97.5105 42.0859 97.5461C42.0667 97.5818 42.0407 97.6132 42.0093 97.6388C41.978 97.6643 41.9418 97.6833 41.9031 97.6948C41.8643 97.7063 41.8236 97.71 41.7834 97.7057C41.2844 97.638 40.7816 97.6025 40.2781 97.5993C40.196 97.5963 40.1183 97.5615 40.0613 97.5024C40.0043 97.4432 39.9725 97.3643 39.9725 97.2821C39.9725 97.2 40.0043 97.121 40.0613 97.0619C40.1183 97.0027 40.196 96.968 40.2781 96.9649C40.8064 96.9683 41.3339 97.0055 41.8574 97.0761C41.908 97.083 41.9561 97.1026 41.9971 97.1331C42.0382 97.1636 42.0708 97.2039 42.0921 97.2504Z" fill="url(#paint18_linear_1418_110)"/>
<path d="M53.1408 112.322C53.1679 112.379 53.1779 112.442 53.1697 112.505C53.1355 112.774 53.0935 113.043 53.0449 113.305C53.0385 113.345 53.0243 113.383 53.0029 113.418C52.9816 113.452 52.9536 113.482 52.9205 113.505C52.8875 113.528 52.8502 113.545 52.8107 113.553C52.7712 113.562 52.7304 113.563 52.6907 113.555C52.6104 113.536 52.5407 113.487 52.4962 113.417C52.4517 113.348 52.4359 113.264 52.4521 113.183C52.4985 112.933 52.5396 112.676 52.5711 112.42C52.5766 112.354 52.6038 112.291 52.6484 112.243C52.6931 112.194 52.7527 112.161 52.8179 112.15C52.8831 112.139 52.9501 112.15 53.0085 112.181C53.0669 112.212 53.1133 112.262 53.1403 112.322H53.1408Z" fill="url(#paint19_linear_1418_110)"/>
</g>
<path d="M49.5361 113.903C49.5493 113.872 49.5531 113.838 49.547 113.806C49.5409 113.773 49.5252 113.743 49.5019 113.72L48.1482 112.374C48.3192 111.465 48.3477 110.534 48.2327 109.616L49.6639 108.372C49.6883 108.349 49.7055 108.32 49.7133 108.288C49.7211 108.256 49.7192 108.222 49.7077 108.191L48.9196 105.996C48.9092 105.965 48.8893 105.938 48.8628 105.92C48.8363 105.901 48.8045 105.891 48.7721 105.891L46.9126 105.943C46.4262 105.178 45.819 104.498 45.1148 103.927L45.2865 101.981C45.2899 101.948 45.2834 101.915 45.2678 101.887C45.2521 101.858 45.2281 101.834 45.1989 101.82L43.1643 100.849C43.1352 100.834 43.1023 100.83 43.0706 100.837C43.039 100.843 43.0103 100.86 42.9892 100.884L41.7111 102.303C40.8473 102.121 39.9588 102.089 39.0841 102.207L37.8958 100.701C37.8762 100.676 37.8489 100.657 37.8179 100.649C37.787 100.64 37.7541 100.642 37.7242 100.653L35.6353 101.476C35.605 101.488 35.5792 101.51 35.5615 101.538C35.5438 101.565 35.535 101.598 35.5363 101.63L35.5898 103.584C34.853 104.103 34.2061 104.739 33.6747 105.466L31.8213 105.281C31.7892 105.278 31.757 105.286 31.7294 105.303C31.7019 105.319 31.6804 105.345 31.6681 105.374L30.7486 107.509C30.7356 107.54 30.7319 107.573 30.7381 107.606C30.7443 107.639 30.76 107.669 30.7832 107.692L32.137 109.037C31.966 109.947 31.9375 110.877 32.0525 111.796L30.6234 113.041C30.5989 113.063 30.5816 113.092 30.5738 113.125C30.566 113.157 30.568 113.19 30.5796 113.221L31.3677 115.417C31.3781 115.448 31.3979 115.474 31.4245 115.493C31.451 115.512 31.4828 115.522 31.5153 115.521L33.3743 115.47C33.8613 116.234 34.4685 116.914 35.1725 117.484L35.0009 119.43C34.9974 119.463 35.004 119.496 35.0196 119.524C35.0352 119.553 35.0592 119.576 35.0884 119.591L37.1226 120.562C37.1517 120.576 37.1845 120.581 37.2162 120.574C37.2478 120.568 37.2765 120.551 37.2978 120.527L38.5754 119.108C39.4392 119.29 40.3277 119.322 41.2024 119.204L42.3906 120.71C42.4103 120.735 42.4376 120.754 42.4685 120.762C42.4995 120.771 42.5323 120.769 42.5623 120.758L44.6512 119.935C44.6815 119.922 44.7072 119.901 44.7249 119.873C44.7426 119.846 44.7514 119.813 44.7501 119.78L44.6963 117.827C45.4333 117.309 46.0802 116.673 46.6114 115.945L48.4647 116.13C48.4969 116.133 48.5292 116.125 48.5569 116.108C48.5845 116.092 48.6061 116.066 48.6184 116.037L49.5361 113.903Z" fill="url(#paint20_linear_1418_110)"/>
<path opacity="0.7" d="M42.1914 109.647C42.4099 110.111 42.4801 110.631 42.3924 111.136C42.2924 111.754 41.9536 112.309 41.4489 112.68C40.4151 113.433 38.9887 113.161 38.2689 112.074C37.5491 110.986 37.8048 109.488 38.8381 108.735C39.0803 108.555 39.3572 108.428 39.6511 108.361C39.945 108.295 40.2496 108.29 40.5456 108.346C40.8453 108.405 41.1301 108.523 41.3831 108.694C41.636 108.865 41.8518 109.085 42.0176 109.341C42.0828 109.439 42.1409 109.541 42.1914 109.647ZM38.6388 111.489C38.6753 111.566 38.7172 111.641 38.7645 111.712C39.2938 112.512 40.3433 112.712 41.1038 112.158C41.4749 111.885 41.724 111.477 41.7978 111.022C41.8778 110.563 41.7795 110.091 41.5229 109.702C41.4009 109.513 41.2421 109.352 41.056 109.226C40.87 109.1 40.6605 109.013 40.4401 108.97C40.2223 108.928 39.9981 108.932 39.7819 108.981C39.5656 109.03 39.3618 109.124 39.1835 109.256C38.4917 109.76 38.2754 110.717 38.6388 111.489Z" fill="white"/>
<path opacity="0.7" d="M45.1906 108.036C45.2755 108.216 45.3526 108.402 45.4218 108.593C45.559 108.975 45.6587 109.37 45.7195 109.771L45.7274 109.825C45.7373 109.89 45.727 109.957 45.6977 110.016C45.6684 110.075 45.6216 110.124 45.5636 110.156C45.5354 110.17 45.5049 110.18 45.4734 110.185C45.4333 110.19 45.3926 110.187 45.3535 110.176C45.3145 110.166 45.278 110.148 45.2461 110.123C45.2142 110.098 45.1875 110.067 45.1676 110.032C45.1477 109.996 45.135 109.958 45.1302 109.917C45.0767 109.542 44.985 109.173 44.8565 108.816C44.8495 108.797 44.8425 108.777 44.8351 108.758C44.5362 107.939 44.0399 107.205 43.3902 106.624C43.0424 106.314 42.6538 106.053 42.2352 105.849L42.2251 105.843L42.1936 105.828C41.5904 105.537 40.933 105.373 40.2633 105.349C39.5936 105.325 38.9262 105.441 38.3035 105.688C38.1393 105.753 37.9785 105.826 37.8218 105.907C36.7772 106.451 35.9505 107.348 35.4632 108.479C34.9038 109.775 34.8595 111.236 35.3393 112.564C35.8209 113.899 36.7649 114.961 38.0027 115.552C38.606 115.844 39.2634 116.007 39.9331 116.031C40.6028 116.055 41.2702 115.94 41.8928 115.692C42.0543 115.628 42.2123 115.556 42.3661 115.476C43.0388 115.125 43.6247 114.628 44.0811 114.021C44.1082 113.985 44.1432 113.955 44.1836 113.934C44.2347 113.907 44.2926 113.896 44.35 113.902C44.4073 113.909 44.4614 113.932 44.5054 113.97C44.5686 114.024 44.6089 114.1 44.618 114.183C44.6271 114.265 44.6044 114.349 44.5544 114.415C44.0438 115.094 43.3884 115.65 42.6358 116.044C42.4635 116.134 42.2867 116.214 42.1061 116.285C41.4094 116.562 40.6627 116.692 39.9134 116.665C39.1641 116.638 38.4285 116.455 37.7535 116.129C36.3691 115.468 35.31 114.282 34.7763 112.786C34.2391 111.3 34.2886 109.666 34.9146 108.216C35.4593 106.951 36.3849 105.947 37.5535 105.339C37.7279 105.248 37.9069 105.166 38.0898 105.094C40.8425 104.01 43.9064 105.324 45.1906 108.036Z" fill="white"/>
</g>
<defs>
<linearGradient id="paint0_linear_1418_110" x1="83.6429" y1="-0.386165" x2="-48.9718" y2="240.215" gradientUnits="userSpaceOnUse">
<stop stop-color="#A10101"/>
<stop offset="1" stop-color="#F80101"/>
</linearGradient>
<linearGradient id="paint1_linear_1418_110" x1="87.0677" y1="122.222" x2="70.666" y2="79.9984" gradientUnits="userSpaceOnUse">
<stop stop-color="#FEBBBA"/>
<stop offset="1" stop-color="#FF928E"/>
</linearGradient>
<linearGradient id="paint2_linear_1418_110" x1="87.3168" y1="258.036" x2="33.1073" y2="-375.537" gradientUnits="userSpaceOnUse">
<stop stop-color="#FEBBBA"/>
<stop offset="1" stop-color="#FF928E"/>
</linearGradient>
<linearGradient id="paint3_linear_1418_110" x1="85.368" y1="55.425" x2="78.4161" y2="55.425" gradientUnits="userSpaceOnUse">
<stop stop-color="#FEBBBA"/>
<stop offset="1" stop-color="#FF928E"/>
</linearGradient>
<linearGradient id="paint4_linear_1418_110" x1="90.9999" y1="53.9429" x2="76.5001" y2="73.578" gradientUnits="userSpaceOnUse">
<stop stop-color="#140A7E"/>
<stop offset="1" stop-color="#4042E2"/>
</linearGradient>
<linearGradient id="paint5_linear_1418_110" x1="77.7755" y1="39.913" x2="72.8381" y2="39.913" gradientUnits="userSpaceOnUse">
<stop stop-color="#FEBBBA"/>
<stop offset="1" stop-color="#FF928E"/>
</linearGradient>
<linearGradient id="paint6_linear_1418_110" x1="48.8058" y1="42.7282" x2="91.5104" y2="67.1926" gradientUnits="userSpaceOnUse">
<stop stop-color="#FEBBBA"/>
<stop offset="1" stop-color="#FF928E"/>
</linearGradient>
<linearGradient id="paint7_linear_1418_110" x1="44.5623" y1="50.1351" x2="87.2669" y2="74.5995" gradientUnits="userSpaceOnUse">
<stop stop-color="#FEBBBA"/>
<stop offset="1" stop-color="#FF928E"/>
</linearGradient>
<linearGradient id="paint8_linear_1418_110" x1="69.5517" y1="39.9112" x2="79.1468" y2="25.8804" gradientUnits="userSpaceOnUse">
<stop stop-color="#FEBBBA"/>
<stop offset="1" stop-color="#FF928E"/>
</linearGradient>
<linearGradient id="paint9_linear_1418_110" x1="74.6336" y1="29.8866" x2="88.2266" y2="47.5575" gradientUnits="userSpaceOnUse">
<stop stop-color="#09005D"/>
<stop offset="1" stop-color="#1A0F91"/>
</linearGradient>
<linearGradient id="paint10_linear_1418_110" x1="20.692" y1="116.116" x2="7.93425" y2="90.4048" gradientUnits="userSpaceOnUse">
<stop stop-color="#FF928E"/>
<stop offset="1" stop-color="#FE7062"/>
</linearGradient>
<linearGradient id="paint11_linear_1418_110" x1="1.00535" y1="92.2396" x2="0.247747" y2="90.7128" gradientUnits="userSpaceOnUse">
<stop stop-color="#FF928E"/>
<stop offset="1" stop-color="#FE7062"/>
</linearGradient>
<linearGradient id="paint12_linear_1418_110" x1="8.37829" y1="78.4882" x2="7.85422" y2="77.432" gradientUnits="userSpaceOnUse">
<stop stop-color="#FF928E"/>
<stop offset="1" stop-color="#FE7062"/>
</linearGradient>
<linearGradient id="paint13_linear_1418_110" x1="32.2041" y1="98.0388" x2="19.0509" y2="71.5303" gradientUnits="userSpaceOnUse">
<stop stop-color="#FF928E"/>
<stop offset="1" stop-color="#FE7062"/>
</linearGradient>
<linearGradient id="paint14_linear_1418_110" x1="38.6575" y1="98.2048" x2="37.9092" y2="96.6968" gradientUnits="userSpaceOnUse">
<stop stop-color="#FF928E"/>
<stop offset="1" stop-color="#FE7062"/>
</linearGradient>
<linearGradient id="paint15_linear_1418_110" x1="23.0266" y1="80.7235" x2="12.3784" y2="119.69" gradientUnits="userSpaceOnUse">
<stop stop-color="#FF928E"/>
<stop offset="1" stop-color="#FE7062"/>
</linearGradient>
<linearGradient id="paint16_linear_1418_110" x1="48.7977" y1="121.157" x2="48.4233" y2="120.402" gradientUnits="userSpaceOnUse">
<stop stop-color="#FF928E"/>
<stop offset="1" stop-color="#FE7062"/>
</linearGradient>
<linearGradient id="paint17_linear_1418_110" x1="41.0012" y1="125.463" x2="33.8959" y2="111.143" gradientUnits="userSpaceOnUse">
<stop stop-color="#FF928E"/>
<stop offset="1" stop-color="#FE7062"/>
</linearGradient>
<linearGradient id="paint18_linear_1418_110" x1="51.3963" y1="111.975" x2="43.2134" y2="95.4833" gradientUnits="userSpaceOnUse">
<stop stop-color="#FF928E"/>
<stop offset="1" stop-color="#FE7062"/>
</linearGradient>
<linearGradient id="paint19_linear_1418_110" x1="53.0883" y1="113.434" x2="52.5216" y2="112.292" gradientUnits="userSpaceOnUse">
<stop stop-color="#FF928E"/>
<stop offset="1" stop-color="#FE7062"/>
</linearGradient>
<linearGradient id="paint20_linear_1418_110" x1="44.7186" y1="95.3274" x2="34.0705" y2="131.122" gradientUnits="userSpaceOnUse">
<stop stop-color="#FF928E"/>
<stop offset="1" stop-color="#FE7062"/>
</linearGradient>
<clipPath id="clip0_1418_110">
<rect width="101" height="124.372" fill="white"/>
</clipPath>
</defs>
</svg>
