<svg width="93" height="122" viewBox="0 0 93 122" fill="none" xmlns="http://www.w3.org/2000/svg">
<g clip-path="url(#clip0_1418_174)">
<path d="M11.131 5.82386C10.7456 24.0288 9.49414 86.8246 10.0914 109.077C10.1546 111.436 11.7701 113.327 13.7853 113.404C23.7543 113.786 60.2897 114.753 76.5921 113.953C79.9874 113.786 82.6892 110.57 82.7582 106.594C83.0969 87.485 83.8446 33.7401 82.0679 9.11985C81.8552 6.1701 79.8761 3.82071 77.3581 3.52609C66.5034 2.25594 29.8091 -0.849135 15.7248 0.219861C13.1827 0.41301 11.1924 2.84696 11.131 5.82386Z" fill="url(#paint0_linear_1418_174)"/>
<path d="M15.5766 11.4101C15.0403 26.1041 13.3478 74.9882 13.8854 93.0641C13.9637 95.7063 15.7439 97.8425 17.9998 97.997C27.2884 98.6329 58.9786 100.035 72.6028 98.7589C75.0559 98.5292 76.9811 96.2079 77.1133 93.3329C77.8036 78.342 79.7862 32.8243 79.2713 14.9508C79.189 12.0994 77.3011 9.77096 74.8721 9.51595C64.8234 8.46031 31.1491 5.94892 19.5717 6.6877C17.3982 6.82611 15.6705 8.8653 15.5766 11.4101Z" fill="#FF6464"/>
<path d="M35.7611 3.39925C35.7611 3.95823 36.1331 4.41885 36.6102 4.44778C38.9645 4.59197 45.5957 5.00008 48.5597 5.20124C49.144 5.24085 49.6024 4.62669 49.4916 3.95511L49.4729 3.84029C49.3972 3.38145 49.0723 3.0361 48.6718 2.99471C46.6691 2.77975 40.6236 2.18428 36.6187 2.35162C36.1394 2.37165 35.7611 2.83805 35.7611 3.39925Z" fill="#FF5656"/>
<path d="M57.4 11.2085H32.1678C31.6516 11.2085 31.2332 11.6269 31.2332 12.143V27.4383C31.2332 27.9545 31.6516 28.3729 32.1678 28.3729H57.4C57.9162 28.3729 58.3346 27.9545 58.3346 27.4383V12.143C58.3346 11.6269 57.9162 11.2085 57.4 11.2085Z" fill="#FF0000"/>
<path opacity="0.43" d="M44.03 31.3307H17.1796C16.9102 31.3307 16.6918 31.5491 16.6918 31.8184V59.0053C16.6918 59.2747 16.9102 59.4931 17.1796 59.4931H44.03C44.2994 59.4931 44.5178 59.2747 44.5178 59.0053V31.8184C44.5178 31.5491 44.2994 31.3307 44.03 31.3307Z" fill="white"/>
<path d="M36.4362 33.2159H24.4952C24.3804 33.2159 24.2874 33.3089 24.2874 33.4237V34.9151C24.2874 35.0298 24.3804 35.1229 24.4952 35.1229H36.4362C36.551 35.1229 36.644 35.0298 36.644 34.9151V33.4237C36.644 33.3089 36.551 33.2159 36.4362 33.2159Z" fill="white"/>
<path opacity="0.59" d="M40.2391 37.1309H20.5926C20.3672 37.1309 20.1845 37.3136 20.1845 37.539V56.6978C20.1845 56.9231 20.3672 57.1059 20.5926 57.1059H40.2391C40.4645 57.1059 40.6472 56.9231 40.6472 56.6978V37.539C40.6472 37.3136 40.4645 37.1309 40.2391 37.1309Z" fill="white"/>
<path opacity="0.43" d="M43.8159 66.0152H16.9655C16.6961 66.0152 16.4777 66.2336 16.4777 66.503V93.6898C16.4777 93.9592 16.6961 94.1776 16.9655 94.1776H43.8159C44.0853 94.1776 44.3037 93.9592 44.3037 93.6898V66.503C44.3037 66.2336 44.0853 66.0152 43.8159 66.0152Z" fill="white"/>
<path d="M36.6338 67.896H24.6929C24.5781 67.896 24.485 67.989 24.485 68.1038V69.5951C24.485 69.7099 24.5781 69.803 24.6929 69.803H36.6338C36.7486 69.803 36.8417 69.7099 36.8417 69.5951V68.1038C36.8417 67.989 36.7486 67.896 36.6338 67.896Z" fill="white"/>
<path opacity="0.59" d="M40.3877 71.6601H20.7413C20.5159 71.6601 20.3332 71.8429 20.3332 72.0682V91.227C20.3332 91.4523 20.5159 91.6351 20.7413 91.6351H40.3877C40.6131 91.6351 40.7958 91.4523 40.7958 91.227V72.0682C40.7958 71.8429 40.6131 71.6601 40.3877 71.6601Z" fill="white"/>
<path opacity="0.43" d="M74.4247 66.0152H47.5743C47.3049 66.0152 47.0865 66.2336 47.0865 66.503V93.6898C47.0865 93.9592 47.3049 94.1776 47.5743 94.1776H74.4247C74.6941 94.1776 74.9125 93.9592 74.9125 93.6898V66.503C74.9125 66.2336 74.6941 66.0152 74.4247 66.0152Z" fill="white"/>
<path d="M67.2782 68.0967H55.3372C55.2224 68.0967 55.1294 68.1897 55.1294 68.3045V69.7958C55.1294 69.9106 55.2224 70.0037 55.3372 70.0037H67.2782C67.393 70.0037 67.486 69.9106 67.486 69.7958V68.3045C67.486 68.1897 67.393 68.0967 67.2782 68.0967Z" fill="white"/>
<path opacity="0.59" d="M71.0322 71.8608H51.3857C51.1603 71.8608 50.9776 72.0436 50.9776 72.2689V91.4277C50.9776 91.6531 51.1603 91.8358 51.3857 91.8358H71.0322C71.2575 91.8358 71.4403 91.6531 71.4403 91.4277V72.2689C71.4403 72.0436 71.2575 71.8608 71.0322 71.8608Z" fill="white"/>
<path opacity="0.43" d="M74.6388 31.3307H47.7884C47.519 31.3307 47.3007 31.5491 47.3007 31.8184V59.0053C47.3007 59.2747 47.519 59.4931 47.7884 59.4931H74.6388C74.9082 59.4931 75.1266 59.2747 75.1266 59.0053V31.8184C75.1266 31.5491 74.9082 31.3307 74.6388 31.3307Z" fill="white"/>
<path d="M67.6245 33.2662H55.6835C55.5687 33.2662 55.4756 33.3592 55.4756 33.474V34.9654C55.4756 35.0801 55.5687 35.1732 55.6835 35.1732H67.6245C67.7392 35.1732 67.8323 35.0801 67.8323 34.9654V33.474C67.8323 33.3592 67.7392 33.2662 67.6245 33.2662Z" fill="white"/>
<path opacity="0.59" d="M70.9334 36.9302H51.2869C51.0615 36.9302 50.8788 37.1129 50.8788 37.3383V56.497C50.8788 56.7224 51.0615 56.9051 51.2869 56.9051H70.9334C71.1588 56.9051 71.3415 56.7224 71.3415 56.497V37.3383C71.3415 37.1129 71.1588 36.9302 70.9334 36.9302Z" fill="white"/>
<path d="M15.2072 120.019C23.6058 120.019 30.4143 113.21 30.4143 104.811C30.4143 96.4128 23.6058 89.6043 15.2072 89.6043C6.80848 89.6043 0 96.4128 0 104.811C0 113.21 6.80848 120.019 15.2072 120.019Z" fill="url(#paint1_linear_1418_174)"/>
<path d="M15.2072 117.782C22.4941 117.782 28.4014 111.875 28.4014 104.588C28.4014 97.3011 22.4941 91.3938 15.2072 91.3938C7.9202 91.3938 2.01294 97.3011 2.01294 104.588C2.01294 111.875 7.9202 117.782 15.2072 117.782Z" fill="url(#paint2_linear_1418_174)"/>
<path d="M15.654 99.6788C14.6923 99.6539 14.014 99.3997 13.6117 98.9187C13.2094 98.4376 13.0118 97.8505 13.0118 97.1558C13.0118 96.4611 13.2285 95.8866 13.6651 95.4348C14.1017 94.9831 14.7737 94.7535 15.6812 94.7535C16.5971 94.7535 17.2993 94.9627 17.7831 95.3828C18.2669 95.8029 18.513 96.4064 18.513 97.1861C18.513 97.9658 18.278 98.584 17.8111 99.0388C17.3443 99.4936 16.6246 99.7042 15.654 99.6788Z" fill="white"/>
<path d="M18.2597 101.42H13.2378V113.896H18.2597V101.42Z" fill="white"/>
<path d="M11.3139 113.315H18.9322C18.9488 113.315 18.9648 113.321 18.9766 113.333C18.9883 113.345 18.9949 113.361 18.9949 113.377V113.842C18.9949 113.856 18.9895 113.869 18.9798 113.879C18.9701 113.889 18.957 113.894 18.9433 113.894H11.2908C11.275 113.894 11.2598 113.888 11.2486 113.876C11.2374 113.865 11.2311 113.85 11.2311 113.834V113.397C11.2311 113.375 11.2399 113.354 11.2555 113.338C11.2711 113.323 11.2923 113.314 11.3144 113.314L11.3139 113.315Z" fill="white"/>
<path d="M10.56 101.42H18.1934C18.211 101.42 18.2278 101.427 18.2403 101.439C18.2527 101.452 18.2597 101.469 18.2597 101.486V102.001H10.5747C10.5538 102.001 10.5338 101.993 10.519 101.978C10.5042 101.963 10.4959 101.943 10.4959 101.922V101.484C10.4959 101.476 10.4975 101.467 10.5007 101.46C10.5039 101.452 10.5086 101.445 10.5145 101.439C10.5205 101.433 10.5276 101.428 10.5354 101.425C10.5432 101.421 10.5515 101.42 10.56 101.42Z" fill="white"/>
<path d="M77.0679 43.5805C78.4391 43.1964 84.4151 47.2664 83.9523 53.201C83.4894 59.1357 86.3203 60.9074 87.4014 63.9061C88.4824 66.9048 92.6725 75.7274 86.8272 77.253C80.982 78.7786 80.1574 74.7163 78.1115 75.6397C76.0656 76.5632 71.8568 75.4813 72.228 72.4074C72.5992 69.3335 72.5725 44.8404 77.0679 43.5805Z" fill="url(#paint3_linear_1418_174)"/>
<path d="M59.5518 44.6789C59.5518 44.6789 67.114 56.161 75.8912 58.2429C75.8912 58.2429 74.2792 63.1229 72.9761 63.7019C72.9761 63.7019 62.0619 54.9345 59.1393 46.3385L59.5518 44.6789Z" fill="url(#paint4_linear_1418_174)"/>
<path d="M88.9857 118.72L89.0707 120.69C89.0782 120.872 89.1467 121.046 89.265 121.184C89.3834 121.322 89.5448 121.416 89.7232 121.451C90.3431 121.571 91.3413 121.723 92.332 121.696C92.4343 121.692 92.5344 121.666 92.6253 121.619C92.7162 121.572 92.7955 121.505 92.8576 121.424C92.9197 121.342 92.963 121.248 92.9844 121.148C93.0058 121.048 93.0047 120.945 92.9813 120.845C92.8006 120.073 92.4508 118.908 91.8687 118.193L89.704 118.024C89.6098 118.017 89.515 118.03 89.4261 118.062C89.3372 118.094 89.2561 118.145 89.1882 118.21C89.1203 118.276 89.0671 118.356 89.0322 118.443C88.9973 118.531 88.9815 118.626 88.9857 118.72Z" fill="#FF0000"/>
<path d="M73.811 94.5354L73.277 96.6565C73.277 96.6565 73.5342 109.147 73.366 114.122C73.3392 114.902 73.0789 115.656 72.6188 116.286L70.2217 119.575L75.8783 116.805L76.0376 116.154L75.2472 114.868L77.4893 101.071C77.621 100.261 77.5164 99.4299 77.188 98.6774L76.2334 96.4887L73.811 94.5354Z" fill="url(#paint5_linear_1418_174)"/>
<path d="M69.8269 120.048L71.5528 120.181C71.712 120.194 71.8719 120.17 72.0203 120.111C72.1687 120.052 72.3015 119.959 72.4086 119.841C73.0014 119.184 74.2222 117.907 74.758 117.913C75.4795 117.921 75.1888 120.465 75.1888 120.465L75.5894 120.496L76.346 117.366C76.4388 116.982 76.4084 116.578 76.2592 116.213C76.11 115.847 75.8495 115.537 75.5146 115.328C75.5146 115.328 75.256 116.529 74.3246 116.995C73.3931 117.461 70.5141 119.171 70.5141 119.171C70.2828 119.126 70.0461 119.114 69.8114 119.135C69.2604 119.192 69.2738 120.004 69.8269 120.048Z" fill="#FF0000"/>
<path d="M81.1387 96.134C81.1387 96.134 87.2473 110.292 88.1446 113.485C89.0418 116.679 89.2394 119.3 89.2354 119.546C89.2296 119.932 89.6777 120.336 90.9915 120.439C91.6697 120.492 92.0231 120.246 92.206 119.994C92.2821 119.888 92.3299 119.765 92.3451 119.636C92.3603 119.506 92.3423 119.375 92.2928 119.255C91.9439 118.383 90.8371 115.598 90.4445 114.344C89.9755 112.846 89.2371 106.167 88.7289 103.825C88.2207 101.483 87.6385 98.94 84.8272 96.4202C84.8272 96.4215 82.9318 94.2515 81.1387 96.134Z" fill="url(#paint6_linear_1418_174)"/>
<path d="M78.3474 73.4986C77.1088 65.5185 82.1391 61.4517 82.1391 61.4517C79.4048 58.384 74.1194 56.6728 74.1194 56.6728C74.1194 56.6728 68.6872 60.0294 69.0677 63.0174C69.2903 64.7691 71.8751 73.6237 71.8751 73.6237C71.8751 73.6237 74.7723 75.2828 78.3474 73.4986Z" fill="url(#paint7_linear_1418_174)"/>
<path d="M82.1449 77.6976C81.569 75.3718 78.3474 73.4986 78.3474 73.4986C74.7741 75.2828 71.8751 73.6237 71.8751 73.6237C71.8751 73.6237 70.9988 76.1511 71.2778 78.585C71.5569 81.019 73.2783 96.6565 73.2783 96.6565C77.8111 97.9471 85.0404 96.6289 85.0404 96.6289C82.513 91.1918 82.7208 80.0234 82.1449 77.6976Z" fill="url(#paint8_linear_1418_174)"/>
<path d="M77.8832 51.7564L78.8601 58.6292C78.9576 59.2354 78.4226 59.0956 77.8302 58.9354C76.8596 58.6729 75.6202 58.1913 75.2557 57.392C75.221 57.3094 75.2017 57.2212 75.1987 57.1317L74.9179 52.3982C74.9073 52.2155 74.9563 52.0343 75.0575 51.8818C75.1587 51.7294 75.3066 51.6138 75.4791 51.5526L76.7697 51.0969C76.8861 51.0561 77.01 51.0413 77.1327 51.0535C77.2554 51.0657 77.3739 51.1046 77.48 51.1674C77.5861 51.2303 77.6771 51.3156 77.7468 51.4173C77.8164 51.519 77.863 51.6348 77.8832 51.7564Z" fill="url(#paint9_linear_1418_174)"/>
<path d="M75.2281 46.006C75.2281 46.006 73.5084 46.9019 72.5066 49.5721C71.5049 52.2424 72.5044 53.355 73.6531 53.4284C74.8017 53.5019 76.4978 53.3372 78.1592 51.5299C79.8205 49.7226 77.4698 44.9277 75.2281 46.006Z" fill="url(#paint10_linear_1418_174)"/>
<path d="M76.8409 50.2544C76.8409 50.2544 77.8787 46.3825 74.5387 46.6077L73.7977 47.2201C73.7977 47.2201 72.4047 45.2325 74.3317 44.0741C76.2588 42.9156 78.5174 43.5587 80.4733 45.6317C82.59 47.8739 83.5032 50.7622 82.1854 52.1739C80.8676 53.5856 77.9824 52.3915 77.9824 52.3915C77.9824 52.3915 77.6575 51.594 78.0888 50.1298C78.293 49.436 77.0567 50.3483 77.0567 50.3483L76.8409 50.2544Z" fill="url(#paint11_linear_1418_174)"/>
<path d="M77.249 50.6434C77.249 50.6434 77.771 48.6496 78.7394 49.3483C79.7079 50.047 78.148 51.1988 77.532 51.5806L77.249 50.6434Z" fill="url(#paint12_linear_1418_174)"/>
<path d="M59.6368 47.2615C59.5923 47.4973 60.4602 47.751 60.8469 46.7657C60.8149 46.3166 60.8758 44.3696 60.5683 44.0345C58.9301 42.2498 55.9011 40.1181 55.9011 40.1181C55.485 40.6299 55.9194 41.0398 55.9194 41.0398L57.4125 42.2859C57.19 42.823 56.8936 43.2881 56.801 43.9179C56.7351 44.3982 56.8565 44.8855 57.1401 45.2788C57.4218 45.6762 57.8032 46.1916 58.1539 46.589C58.8179 47.3451 59.6368 47.2615 59.6368 47.2615Z" fill="url(#paint13_linear_1418_174)"/>
<path d="M58.9448 46.4911C58.9183 46.4858 58.8938 46.4733 58.8739 46.4551C58.854 46.437 58.8394 46.4137 58.8317 46.3878C58.6697 45.8382 58.1944 44.3406 57.9452 44.0207C57.7672 43.7906 57.6942 43.5894 57.7227 43.4047C57.7485 43.2494 57.8437 43.119 58.0146 43.0042C58.0389 42.988 58.0675 42.9794 58.0967 42.9794C58.1259 42.9794 58.1545 42.988 58.1788 43.0042L59.514 43.9041C59.5352 43.9183 59.5523 43.9378 59.5638 43.9606L60.0605 44.9486C60.0782 44.9837 60.0812 45.0244 60.0689 45.0618C60.0566 45.0991 60.03 45.13 59.9948 45.1477C59.9597 45.1654 59.919 45.1685 59.8817 45.1562C59.8443 45.1438 59.8134 45.1172 59.7957 45.0821L59.3164 44.1288L58.1018 43.3099C58.0581 43.3455 58.0278 43.395 58.0159 43.4501C58.0004 43.5458 58.0564 43.6789 58.1779 43.8355C58.5064 44.2579 59.0538 46.0928 59.1152 46.3006C59.1207 46.3193 59.1225 46.3389 59.1204 46.3583C59.1184 46.3777 59.1125 46.3965 59.1032 46.4136C59.0938 46.4307 59.0812 46.4458 59.066 46.4581C59.0508 46.4703 59.0333 46.4794 59.0146 46.4849C58.9922 46.4927 58.9682 46.4948 58.9448 46.4911Z" fill="url(#paint14_linear_1418_174)"/>
<path d="M79.6763 64.5595C79.9286 64.8946 83.7555 69.4469 84.8512 74.5284C85.9469 79.61 85.5784 83.0008 85.5784 83.0008C85.5784 83.0008 84.4658 83.8312 84.8664 84.42C85.2669 85.0088 85.161 85.4098 85.6728 85.5237C86.1846 85.6376 86.8188 85.7992 86.7409 84.7894C86.663 83.7796 87.8691 83.5758 87.6688 82.9647C87.4685 82.3537 88.8339 65.964 82.2339 61.5136L82.1396 61.4513C79.3492 62.4597 79.2704 64.0214 79.6763 64.5595Z" fill="url(#paint15_linear_1418_174)"/>
<path d="M42.3473 15.6475H47.6449C47.7494 15.6475 47.8329 15.7311 47.8329 15.8355C47.8329 15.94 47.7494 16.0235 47.6449 16.0235H42.3473C42.2428 16.0235 42.1593 15.94 42.1593 15.8355C42.1593 15.7311 42.2428 15.6475 42.3473 15.6475ZM42.3473 16.7833H47.6449C47.7494 16.7833 47.8329 16.8669 47.8329 16.9713C47.8329 17.0757 47.7494 17.1593 47.6449 17.1593H42.3473C42.2428 17.1593 42.1593 17.0757 42.1593 16.9713C42.1593 16.8669 42.2428 16.7833 42.3473 16.7833ZM42.3473 17.9191H47.6449C47.7494 17.9191 47.8329 18.0026 47.8329 18.1071C47.8329 18.2115 47.7494 18.2951 47.6449 18.2951H42.3473C42.2428 18.2951 42.1593 18.2115 42.1593 18.1071C42.1593 18.0026 42.2428 17.9191 42.3473 17.9191ZM42.3473 19.0522H47.6449C47.7494 19.0522 47.8329 19.1358 47.8329 19.2402C47.8329 19.3447 47.7494 19.4282 47.6449 19.4282H42.3473C42.2428 19.4282 42.1593 19.3447 42.1593 19.2402C42.1593 19.1384 42.2428 19.0522 42.3473 19.0522ZM42.3473 20.188H47.6449C47.7494 20.188 47.8329 20.2716 47.8329 20.376C47.8329 20.4804 47.7494 20.564 47.6449 20.564H42.3473C42.2428 20.564 42.1593 20.4804 42.1593 20.376C42.1593 20.2742 42.2428 20.188 42.3473 20.188ZM42.3473 21.3238H47.6449C47.7494 21.3238 47.8329 21.4073 47.8329 21.5118C47.8329 21.6162 47.7494 21.6997 47.6449 21.6997H42.3473C42.2428 21.6997 42.1593 21.6162 42.1593 21.5118C42.1593 21.4073 42.2428 21.3238 42.3473 21.3238Z" fill="white"/>
<path d="M38.376 23.2167H39.8904V14.2768C39.8904 13.5718 40.4622 13 41.1671 13H50.7624C51.4517 13.0183 52 13.5927 52 14.2846V15.6553C52 15.7546 51.9608 15.8512 51.8903 15.9243C51.8198 15.9948 51.7232 16.0339 51.624 16.0339H50.1097V24.9686C50.1097 25.6736 49.5379 26.2454 48.8329 26.2454C48.8172 26.2454 48.8016 26.2428 48.7859 26.2402C48.7702 26.2428 48.7546 26.2454 48.7389 26.2454H39.2768C38.5718 26.2454 38 25.6736 38 24.9686V23.5979C37.9974 23.3864 38.1645 23.2167 38.376 23.2167ZM51.2402 15.2768V14.2846C51.2402 13.7154 50.6423 13.7572 50.6423 13.7572H50.624C50.3368 13.7572 50.1044 13.9896 50.1044 14.2768V15.2768H51.2402ZM48.2141 23.5953V24.966C48.2141 25.2532 48.4465 25.4856 48.7337 25.4856C48.7494 25.4856 48.765 25.4882 48.7807 25.4908C48.7964 25.4882 48.812 25.4856 48.8277 25.4856C49.1149 25.4856 49.3473 25.2532 49.3473 24.966V14.2768C49.3473 14.0914 49.3864 13.9164 49.4569 13.7572H41.1645C40.8773 13.7572 40.6449 13.9896 40.6449 14.2768V23.2193H47.8355C48.0444 23.2167 48.2141 23.3864 48.2141 23.5953ZM38.7546 24.9686C38.7546 25.2559 38.987 25.4882 39.2742 25.4882H47.5692C47.4987 25.329 47.4595 25.154 47.4595 24.9686V23.9765H38.7546V24.9686Z" fill="white"/>
</g>
<defs>
<linearGradient id="paint0_linear_1418_174" x1="28.1473" y1="173.444" x2="64.2827" y2="-51.8005" gradientUnits="userSpaceOnUse">
<stop stop-color="#AD0202"/>
<stop offset="1" stop-color="#C50202"/>
</linearGradient>
<linearGradient id="paint1_linear_1418_174" x1="18.5592" y1="88.0516" x2="3.65381" y2="162.577" gradientUnits="userSpaceOnUse">
<stop stop-color="#FEBBBA"/>
<stop offset="1" stop-color="#FF928E"/>
</linearGradient>
<linearGradient id="paint2_linear_1418_174" x1="31.4802" y1="57.1237" x2="26.0605" y2="72.9321" gradientUnits="userSpaceOnUse">
<stop stop-color="#E1473D"/>
<stop offset="1" stop-color="#E9605A"/>
</linearGradient>
<linearGradient id="paint3_linear_1418_174" x1="87.4316" y1="51.9727" x2="100.681" y2="29.9902" gradientUnits="userSpaceOnUse">
<stop stop-color="#1B1092"/>
<stop offset="1" stop-color="#0A015D"/>
</linearGradient>
<linearGradient id="paint4_linear_1418_174" x1="61.6854" y1="52.7992" x2="77.8999" y2="56.4739" gradientUnits="userSpaceOnUse">
<stop stop-color="#FEBBBA"/>
<stop offset="1" stop-color="#FF928E"/>
</linearGradient>
<linearGradient id="paint5_linear_1418_174" x1="69.9699" y1="135.539" x2="81.6275" y2="65.6078" gradientUnits="userSpaceOnUse">
<stop stop-color="#FEBBBA"/>
<stop offset="1" stop-color="#FF928E"/>
</linearGradient>
<linearGradient id="paint6_linear_1418_174" x1="82.0045" y1="137.557" x2="93.6655" y2="67.6068" gradientUnits="userSpaceOnUse">
<stop stop-color="#FEBBBA"/>
<stop offset="1" stop-color="#FF928E"/>
</linearGradient>
<linearGradient id="paint7_linear_1418_174" x1="88.8095" y1="42.7002" x2="123.439" y2="-14.5142" gradientUnits="userSpaceOnUse">
<stop stop-color="#4447EA"/>
<stop offset="1" stop-color="#4042E2"/>
</linearGradient>
<linearGradient id="paint8_linear_1418_174" x1="80.5" y1="69.5" x2="82.5" y2="93" gradientUnits="userSpaceOnUse">
<stop stop-color="#3331C3"/>
<stop offset="1" stop-color="#4042E2"/>
<stop offset="1" stop-color="#3A3AD4"/>
</linearGradient>
<linearGradient id="paint9_linear_1418_174" x1="76.8861" y1="62.1255" x2="77.3637" y2="45.8985" gradientUnits="userSpaceOnUse">
<stop stop-color="#FEBBBA"/>
<stop offset="1" stop-color="#FF928E"/>
</linearGradient>
<linearGradient id="paint10_linear_1418_174" x1="72.8655" y1="56.0097" x2="81.2893" y2="37.696" gradientUnits="userSpaceOnUse">
<stop stop-color="#FEBBBA"/>
<stop offset="1" stop-color="#FF928E"/>
</linearGradient>
<linearGradient id="paint11_linear_1418_174" x1="78.8996" y1="46.8302" x2="92.1495" y2="24.8482" gradientUnits="userSpaceOnUse">
<stop stop-color="#1B1092"/>
<stop offset="1" stop-color="#0A015D"/>
</linearGradient>
<linearGradient id="paint12_linear_1418_174" x1="75.0558" y1="57.0169" x2="83.4797" y2="38.7036" gradientUnits="userSpaceOnUse">
<stop stop-color="#FEBBBA"/>
<stop offset="1" stop-color="#FF928E"/>
</linearGradient>
<linearGradient id="paint13_linear_1418_174" x1="63.0257" y1="51.8698" x2="74.3656" y2="71.498" gradientUnits="userSpaceOnUse">
<stop stop-color="#FEBBBA"/>
<stop offset="1" stop-color="#FF928E"/>
</linearGradient>
<linearGradient id="paint14_linear_1418_174" x1="62.5164" y1="50.6409" x2="58.2771" y2="43.6497" gradientUnits="userSpaceOnUse">
<stop stop-color="#FEBBBA"/>
<stop offset="1" stop-color="#FF928E"/>
</linearGradient>
<linearGradient id="paint15_linear_1418_174" x1="83.814" y1="76.5998" x2="83.4246" y2="53.8041" gradientUnits="userSpaceOnUse">
<stop stop-color="#FEBBBA"/>
<stop offset="1" stop-color="#FF928E"/>
</linearGradient>
<clipPath id="clip0_1418_174">
<rect width="93" height="121.699" fill="white"/>
</clipPath>
</defs>
</svg>
