<svg width="76" height="122" viewBox="0 0 76 122" fill="none" xmlns="http://www.w3.org/2000/svg">
<g clip-path="url(#clip0_1418_212)">
<path d="M74.8711 116.425C74.8474 118.789 72.8163 120.706 70.334 120.712L10.3281 120.842C7.82778 120.848 5.75268 118.932 5.69302 116.559L2.89718 4.79563C2.83041 2.13807 4.92918 -0.010898 7.58532 0.00188781L71.2806 0.30638C73.915 0.319166 76.0284 2.47903 76.0014 5.12475L74.8711 116.425Z" fill="url(#paint0_linear_1418_212)"/>
<path d="M69.4626 11.5736C69.4806 9.0197 67.3857 6.93608 64.7826 6.92424L14.2278 6.70215C11.6086 6.69078 9.53066 8.76351 9.58701 11.3264L11.6654 106.353C11.7161 108.681 13.7746 110.56 16.2626 110.556L64.2915 110.48C66.7648 110.476 68.7826 108.596 68.7987 106.276L69.4626 11.5736Z" fill="#FF6464"/>
<path d="M47.1225 3.30822C47.1233 3.42549 47.1008 3.54176 47.0564 3.6503C47.012 3.75884 46.9465 3.8575 46.8637 3.94056C46.7809 4.02361 46.6825 4.08943 46.5741 4.13419C46.4657 4.17895 46.3495 4.20178 46.2322 4.20133L33.0756 4.14167C32.8368 4.13934 32.6084 4.04363 32.4392 3.87503C32.2701 3.70644 32.1737 3.47834 32.1706 3.23955C32.1685 3.12232 32.1899 3.00586 32.2335 2.89701C32.2771 2.78817 32.342 2.68914 32.4244 2.60575C32.5068 2.52235 32.6051 2.45629 32.7134 2.41143C32.8217 2.36657 32.9379 2.34383 33.0552 2.34454L46.2265 2.40611C46.4645 2.40822 46.6921 2.50414 46.8599 2.67304C47.0276 2.84194 47.122 3.07018 47.1225 3.30822Z" fill="#FF5656"/>
<path opacity="0.43" d="M37.9981 30.0093H13.0188C12.7683 30.0093 12.5652 30.2124 12.5652 30.463V55.7553C12.5652 56.0058 12.7683 56.2089 13.0188 56.2089H37.9981C38.2486 56.2089 38.4518 56.0058 38.4518 55.7553V30.463C38.4518 30.2124 38.2486 30.0093 37.9981 30.0093Z" fill="white"/>
<path d="M30.9332 31.7633H19.8242C19.7175 31.7633 19.631 31.8498 19.631 31.9565V33.3445C19.631 33.4512 19.7175 33.5377 19.8242 33.5377H30.9332C31.0399 33.5377 31.1264 33.4512 31.1264 33.3445V31.9565C31.1264 31.8498 31.0399 31.7633 30.9332 31.7633Z" fill="white"/>
<path opacity="0.59" d="M34.4716 35.4054H16.194C15.9845 35.4054 15.8147 35.5753 15.8147 35.7847V53.6087C15.8147 53.8182 15.9845 53.988 16.194 53.988H34.4716C34.6811 53.988 34.8509 53.8182 34.8509 53.6087V35.7847C34.8509 35.5753 34.6811 35.4054 34.4716 35.4054Z" fill="white"/>
<path opacity="0.43" d="M37.7992 62.2765H12.8199C12.5694 62.2765 12.3663 62.4796 12.3663 62.7302V88.0225C12.3663 88.273 12.5694 88.4761 12.8199 88.4761H37.7992C38.0498 88.4761 38.2529 88.273 38.2529 88.0225V62.7302C38.2529 62.4796 38.0498 62.2765 37.7992 62.2765Z" fill="white"/>
<path d="M31.1174 64.0263H20.0084C19.9017 64.0263 19.8152 64.1128 19.8152 64.2195V65.6075C19.8152 65.7142 19.9017 65.8007 20.0084 65.8007H31.1174C31.2241 65.8007 31.3106 65.7142 31.3106 65.6075V64.2195C31.3106 64.1128 31.2241 64.0263 31.1174 64.0263Z" fill="white"/>
<path opacity="0.59" d="M34.6094 67.5277H16.3318C16.1223 67.5277 15.9525 67.6975 15.9525 67.907V85.731C15.9525 85.9405 16.1223 86.1103 16.3318 86.1103H34.6094C34.8189 86.1103 34.9887 85.9405 34.9887 85.731V67.907C34.9887 67.6975 34.8189 67.5277 34.6094 67.5277Z" fill="white"/>
<path opacity="0.43" d="M66.2742 62.2765H41.295C41.0444 62.2765 40.8413 62.4796 40.8413 62.7302V88.0225C40.8413 88.273 41.0444 88.4761 41.295 88.4761H66.2742C66.5248 88.4761 66.7279 88.273 66.7279 88.0225V62.7302C66.7279 62.4796 66.5248 62.2765 66.2742 62.2765Z" fill="white"/>
<path d="M59.6261 64.2129H48.5171C48.4104 64.2129 48.3239 64.2994 48.3239 64.4061V65.794C48.3239 65.9007 48.4104 65.9872 48.5171 65.9872H59.6261C59.7328 65.9872 59.8193 65.9007 59.8193 65.794V64.4061C59.8193 64.2994 59.7328 64.2129 59.6261 64.2129Z" fill="white"/>
<path opacity="0.59" d="M63.118 67.7148H44.8404C44.6309 67.7148 44.4611 67.8846 44.4611 68.0941V85.918C44.4611 86.1275 44.6309 86.2973 44.8404 86.2973H63.118C63.3275 86.2973 63.4973 86.1275 63.4973 85.918V68.0941C63.4973 67.8846 63.3275 67.7148 63.118 67.7148Z" fill="white"/>
<path opacity="0.43" d="M66.4731 30.0093H41.4938C41.2433 30.0093 41.0402 30.2124 41.0402 30.463V55.7553C41.0402 56.0058 41.2433 56.2089 41.4938 56.2089H66.4731C66.7237 56.2089 66.9268 56.0058 66.9268 55.7553V30.463C66.9268 30.2124 66.7237 30.0093 66.4731 30.0093Z" fill="white"/>
<path d="M59.9481 31.8102H48.8391C48.7324 31.8102 48.6459 31.8967 48.6459 32.0034V33.3914C48.6459 33.4981 48.7324 33.5846 48.8391 33.5846H59.9481C60.0548 33.5846 60.1413 33.4981 60.1413 33.3914V32.0034C60.1413 31.8967 60.0548 31.8102 59.9481 31.8102Z" fill="white"/>
<path opacity="0.59" d="M63.0262 35.2184H44.7486C44.5391 35.2184 44.3692 35.3882 44.3692 35.5977V53.4216C44.3692 53.6311 44.5391 53.8009 44.7486 53.8009H63.0262C63.2356 53.8009 63.4055 53.6311 63.4055 53.4216V35.5977C63.4055 35.3882 63.2356 35.2184 63.0262 35.2184Z" fill="white"/>
<path d="M21.0711 40.0344C21.0711 40.0344 19.2545 40.918 18.9202 41.9333C18.6527 42.7473 16.6439 42.8525 16.4455 44.454C16.3432 45.2813 15.7313 45.9433 14.9074 46.0698C12.8559 46.3842 9.69453 47.4492 9.18878 51.0108C8.80283 53.7294 10.1884 54.7603 11.6432 55.1174C12.7115 55.3793 13.4214 56.4182 13.2059 57.497C12.9985 58.5312 13.3077 59.7274 15.1001 60.6731C19.1163 62.7917 23.1268 55.6535 23.1268 55.6535L23.9488 43.1877L21.0711 40.0344Z" fill="url(#paint1_linear_1418_212)"/>
<path d="M42.923 37.0794C42.923 37.0794 34.9049 49.7625 25.3695 52.2122C25.3695 52.2122 27.2277 57.5036 28.6616 58.1093C28.6616 58.1093 40.3924 48.3215 43.407 38.8832L42.923 37.0794Z" fill="url(#paint2_linear_1418_212)"/>
<path d="M4.56359 118.2L4.30503 120.336C4.28157 120.533 4.1924 120.716 4.05193 120.857C3.91145 120.997 3.72786 121.085 3.53078 121.108C2.84603 121.187 1.74692 121.267 0.671486 121.153C0.560751 121.14 0.454247 121.103 0.359571 121.044C0.264896 120.985 0.184381 120.906 0.123773 120.812C0.0631653 120.719 0.0239556 120.613 0.00894388 120.502C-0.00606787 120.392 0.00348789 120.28 0.0369279 120.173C0.299275 119.348 0.778981 118.11 1.47036 117.379H3.83811C3.94174 117.379 4.04422 117.401 4.13874 117.443C4.23325 117.486 4.31764 117.548 4.38627 117.626C4.45491 117.703 4.50622 117.795 4.53679 117.894C4.56737 117.993 4.5765 118.097 4.56359 118.2Z" fill="#FF0000"/>
<path d="M23.1258 93.1733L23.5259 95.5263C23.5259 95.5263 22.1863 109.095 21.9481 114.522C21.9116 115.372 22.1308 116.213 22.5774 116.937L24.9045 120.721L18.9851 117.228L18.8672 116.505L19.836 115.173L18.5669 99.972C18.4922 99.0791 18.6763 98.1836 19.0973 97.3926L20.3219 95.0926L23.1258 93.1733Z" fill="url(#paint3_linear_1418_212)"/>
<path d="M25.2966 121.27H23.4071C23.2328 121.27 23.0607 121.231 22.9042 121.154C22.7477 121.077 22.6109 120.965 22.5045 120.827C21.9154 120.062 20.6955 118.569 20.1121 118.53C19.3265 118.477 19.4269 121.27 19.4269 121.27H18.9851L18.4272 117.8C18.3591 117.375 18.4266 116.938 18.6202 116.553C18.8138 116.168 19.1237 115.853 19.506 115.654C19.506 115.654 19.6855 116.98 20.6591 117.569C21.6327 118.158 24.6208 120.259 24.6208 120.259C24.8763 120.23 25.1348 120.236 25.3884 120.28C25.9856 120.389 25.9022 121.27 25.2966 121.27Z" fill="#FF0000"/>
<path d="M15.0177 94.2909C15.0177 94.2909 7.17002 109.177 5.92269 112.576C4.67536 115.974 4.23828 118.809 4.22123 119.078C4.19519 119.497 3.67333 119.9 2.23516 119.9C1.49264 119.9 1.12943 119.602 0.951371 119.314C0.87755 119.193 0.835901 119.054 0.83035 118.912C0.824799 118.77 0.855529 118.629 0.919644 118.502C1.3733 117.583 2.81384 114.647 3.34753 113.316C3.98446 111.726 5.35491 104.521 6.10643 102.016C6.85796 99.5113 7.70703 96.7936 10.9797 94.2909C10.9821 94.2909 13.2263 92.0903 15.0177 94.2909Z" fill="url(#paint4_linear_1418_212)"/>
<path d="M19.9748 69.8993C21.9992 61.3214 16.8712 56.4699 16.8712 56.4699C20.1069 53.3638 26.0026 51.9508 26.0026 51.9508C26.0026 51.9508 31.6279 56.0636 30.9607 59.2827C30.5695 61.1694 27.0066 70.584 27.0066 70.584C27.0066 70.584 23.7116 72.1434 19.9748 69.8993Z" fill="#4447EB"/>
<path d="M15.487 74.1461C16.3105 71.6642 19.9748 69.8993 19.9748 69.8993C23.7116 72.1434 27.0065 70.584 27.0065 70.584C27.0065 70.584 27.7453 73.4087 27.2353 76.0332C26.7253 78.6576 23.526 95.5278 23.526 95.5278C18.4841 96.5492 10.7306 94.4997 10.7306 94.4997C13.9418 88.7972 14.663 76.6279 15.487 74.1461Z" fill="url(#paint5_linear_1418_212)"/>
<path d="M22.3245 46.2824L20.679 53.675C20.5213 54.3261 21.1151 54.2195 21.7733 54.0955C22.8516 53.8918 24.241 53.4732 24.7056 52.6346C24.7506 52.5476 24.7792 52.453 24.7898 52.3556L25.4969 47.2295C25.5241 47.0315 25.4861 46.8301 25.3889 46.6556C25.2916 46.4811 25.1402 46.343 24.9575 46.262L23.5932 45.6568C23.4698 45.6021 23.336 45.5752 23.2011 45.5779C23.0662 45.5807 22.9335 45.613 22.8125 45.6727C22.6915 45.7324 22.585 45.8179 22.5007 45.9233C22.4164 46.0286 22.3563 46.1512 22.3245 46.2824Z" fill="url(#paint6_linear_1418_212)"/>
<path d="M16.8712 56.4698C16.8712 56.4698 5.38425 64.6883 15.4031 73.324C15.4031 73.324 15.7848 73.7563 16.5364 73.9808C16.9152 74.094 18.038 74.943 18.6072 75.3858C18.6503 75.419 18.6998 75.4428 18.7527 75.4556C18.8055 75.4685 18.8605 75.4702 18.914 75.4605C18.9675 75.4509 19.0184 75.4302 19.0634 75.3997C19.1085 75.3692 19.1466 75.3296 19.1754 75.2835C19.2228 75.2077 19.2503 75.1213 19.2555 75.0321C19.2608 74.9429 19.2435 74.8538 19.2053 74.773L17.7846 71.7655C17.5935 71.5872 17.3449 71.483 17.0838 71.4717C16.8226 71.4604 16.566 71.5428 16.3602 71.7039C16.2969 71.7539 16.2232 71.789 16.1445 71.8069C16.0659 71.8247 15.9842 71.8247 15.9056 71.8069C15.8269 71.7891 15.7532 71.754 15.6899 71.704C15.6266 71.6541 15.5752 71.5906 15.5395 71.5183C14.7653 69.9409 13.303 65.302 19.2877 60.0584C19.3962 59.962 19.4693 59.8319 19.495 59.689C19.5208 59.5461 19.4978 59.3987 19.4297 59.2704C19.0106 58.4644 18.0489 56.8601 16.8712 56.4698Z" fill="url(#paint7_linear_1418_212)"/>
<path d="M25.477 39.5428C25.477 39.5428 27.2291 40.7267 27.9821 43.7494C28.735 46.772 27.5113 47.8536 26.2574 47.7868C25.0034 47.7201 23.1845 47.3327 21.609 45.1657C20.0335 42.9988 23.1812 38.0938 25.477 39.5428Z" fill="url(#paint8_linear_1418_212)"/>
<path d="M23.1997 43.9478C23.1997 43.9478 22.558 39.6195 26.1513 40.2816L26.8777 41.0392C26.8777 41.0392 28.6365 39.0584 26.6883 37.561C24.7401 36.0636 22.0409 36.4472 20.5464 39.1711C19.0519 41.8949 18.5101 43.8119 19.7622 45.5062C21.0143 47.2006 21.9571 45.7473 21.9571 45.7473C21.9571 45.7473 21.3827 44.2793 21.8591 43.6523C22.3354 43.0253 22.9482 44.0179 22.9482 44.0179L23.1997 43.9478Z" fill="url(#paint9_linear_1418_212)"/>
<path d="M22.7067 44.3181C22.7067 44.3181 22.3899 42.0924 21.2524 42.7279C20.115 43.3634 21.6625 44.8082 22.2829 45.2993L22.7067 44.3181Z" fill="url(#paint10_linear_1418_212)"/>
<path d="M42.8681 39.6901C42.8922 39.952 41.921 40.1329 41.6099 39.0177C41.6951 38.5332 41.8466 36.4131 42.2174 36.0817C44.195 34.3295 47.721 32.3534 47.721 32.3534C48.1155 32.9557 47.5979 33.3521 47.5979 33.3521L45.8377 34.5402C46.0215 35.1483 46.2895 35.6858 46.3198 36.38C46.3373 36.9089 46.1508 37.4244 45.7989 37.8196C45.4489 38.2197 44.9773 38.7364 44.552 39.1289C43.7479 39.8729 42.8681 39.6901 42.8681 39.6901Z" fill="url(#paint11_linear_1418_212)"/>
<path d="M43.8242 38.8259L43.5552 38.7151C43.5907 38.6284 44.4355 36.5756 44.8442 36.1484C44.9995 35.9865 45.0744 35.8477 45.0673 35.736C45.0598 35.6668 45.0279 35.6027 44.9773 35.5551L43.5528 36.3165L42.924 37.3015L42.6787 37.1448L43.3483 36.0959L45.0166 35.2037L45.0919 35.2648C45.2605 35.4031 45.3481 35.5489 45.358 35.7184C45.3703 35.9173 45.2709 36.1238 45.0545 36.3502C44.7462 36.6717 44.0619 38.2462 43.8242 38.8259Z" fill="url(#paint12_linear_1418_212)"/>
<path d="M50.4364 11.2899H26.9625C26.4823 11.2899 26.0931 11.6791 26.0931 12.1593V26.3885C26.0931 26.8687 26.4823 27.258 26.9625 27.258H50.4364C50.9165 27.258 51.3058 26.8687 51.3058 26.3885V12.1593C51.3058 11.6791 50.9165 11.2899 50.4364 11.2899Z" fill="#FF0000"/>
<g clip-path="url(#clip1_1418_212)">
<path d="M36.2001 24.9091C36.5315 24.9091 36.8001 24.6649 36.8001 24.3637C36.8001 24.0624 36.5315 23.8182 36.2001 23.8182C35.8687 23.8182 35.6001 24.0624 35.6001 24.3637C35.6001 24.6649 35.8687 24.9091 36.2001 24.9091Z" stroke="white" stroke-width="0.981819" stroke-linecap="round" stroke-linejoin="round"/>
<path d="M42.7999 24.9091C43.1313 24.9091 43.3999 24.6649 43.3999 24.3637C43.3999 24.0624 43.1313 23.8182 42.7999 23.8182C42.4685 23.8182 42.1999 24.0624 42.1999 24.3637C42.1999 24.6649 42.4685 24.9091 42.7999 24.9091Z" stroke="white" stroke-width="0.981819" stroke-linecap="round" stroke-linejoin="round"/>
<path d="M31.3999 13.4545H33.7999L35.4079 20.7582C35.4628 21.0093 35.613 21.2349 35.8324 21.3954C36.0518 21.5559 36.3263 21.6412 36.6079 21.6363H42.4399C42.7215 21.6412 42.996 21.5559 43.2154 21.3954C43.4348 21.2349 43.585 21.0093 43.6399 20.7582L44.5999 16.1818H34.3999" stroke="white" stroke-width="0.981819" stroke-linecap="round" stroke-linejoin="round"/>
</g>
</g>
<defs>
<linearGradient id="paint0_linear_1418_212" x1="91.8194" y1="-45.0142" x2="28.8079" y2="80.5271" gradientUnits="userSpaceOnUse">
<stop stop-color="#BF0303"/>
<stop offset="1" stop-color="#B50303"/>
</linearGradient>
<linearGradient id="paint1_linear_1418_212" x1="24.2661" y1="32.764" x2="18.8776" y2="46.28" gradientUnits="userSpaceOnUse">
<stop stop-color="#09005D"/>
<stop offset="1" stop-color="#1A0F91"/>
</linearGradient>
<linearGradient id="paint2_linear_1418_212" x1="37.2825" y1="43.1164" x2="22.7715" y2="63.221" gradientUnits="userSpaceOnUse">
<stop stop-color="#FEBBBA"/>
<stop offset="1" stop-color="#FF928E"/>
</linearGradient>
<linearGradient id="paint3_linear_1418_212" x1="23.8754" y1="137.313" x2="17.3002" y2="60.4671" gradientUnits="userSpaceOnUse">
<stop stop-color="#FEBBBA"/>
<stop offset="1" stop-color="#FF928E"/>
</linearGradient>
<linearGradient id="paint4_linear_1418_212" x1="10.6492" y1="138.456" x2="4.07254" y2="61.5903" gradientUnits="userSpaceOnUse">
<stop stop-color="#FEBBBA"/>
<stop offset="1" stop-color="#FF928E"/>
</linearGradient>
<linearGradient id="paint5_linear_1418_212" x1="23.5" y1="68.5" x2="22.0414" y2="87.6176" gradientUnits="userSpaceOnUse">
<stop stop-color="#312EBF"/>
<stop offset="1" stop-color="#4042E2"/>
</linearGradient>
<linearGradient id="paint6_linear_1418_212" x1="24.5962" y1="61.5657" x2="23.3611" y2="52.5299" gradientUnits="userSpaceOnUse">
<stop stop-color="#FEBBBA"/>
<stop offset="1" stop-color="#FF928E"/>
</linearGradient>
<linearGradient id="paint7_linear_1418_212" x1="19.506" y1="65.9688" x2="11.3013" y2="65.9688" gradientUnits="userSpaceOnUse">
<stop stop-color="#FEBBBA"/>
<stop offset="1" stop-color="#FF928E"/>
</linearGradient>
<linearGradient id="paint8_linear_1418_212" x1="26.9647" y1="50.0985" x2="20.0477" y2="29.2553" gradientUnits="userSpaceOnUse">
<stop stop-color="#FEBBBA"/>
<stop offset="1" stop-color="#FF928E"/>
</linearGradient>
<linearGradient id="paint9_linear_1418_212" x1="27.8668" y1="33.2905" x2="20.0179" y2="45.5129" gradientUnits="userSpaceOnUse">
<stop stop-color="#09005D"/>
<stop offset="1" stop-color="#1A0F91"/>
</linearGradient>
<linearGradient id="paint10_linear_1418_212" x1="24.4718" y1="50.9259" x2="17.5547" y2="30.0832" gradientUnits="userSpaceOnUse">
<stop stop-color="#FEBBBA"/>
<stop offset="1" stop-color="#FF928E"/>
</linearGradient>
<linearGradient id="paint11_linear_1418_212" x1="39.0287" y1="44.3769" x2="24.5177" y2="64.4815" gradientUnits="userSpaceOnUse">
<stop stop-color="#FEBBBA"/>
<stop offset="1" stop-color="#FF928E"/>
</linearGradient>
<linearGradient id="paint12_linear_1418_212" x1="42.6787" y1="37.0145" x2="45.359" y2="37.0145" gradientUnits="userSpaceOnUse">
<stop stop-color="#FEBBBA"/>
<stop offset="1" stop-color="#FF928E"/>
</linearGradient>
<clipPath id="clip0_1418_212">
<rect width="76" height="121.269" fill="white"/>
</clipPath>
<clipPath id="clip1_1418_212">
<rect width="14.4" height="13.0909" fill="white" transform="translate(30.8 12.9091)"/>
</clipPath>
</defs>
</svg>
