<?xml version="1.0" encoding="UTF-8" standalone="no"?>
<!DOCTYPE svg PUBLIC "-//W3C//DTD SVG 1.1//EN" "http://www.w3.org/Graphics/SVG/1.1/DTD/svg11.dtd">
<svg xmlns="http://www.w3.org/2000/svg" version="1.1" viewBox="0.00 0.00 120.00 120.00">
<path fill="#000000" d="
  M 44.77 84.94
  C 44.36 83.88 43.54 82.90 42.38 82.43
  Q 39.07 81.09 36.83 77.45
  C 33.52 72.06 28.69 82.51 22.76 75.88
  C 21.69 74.68 21.65 73.05 21.49 71.57
  A 1.53 1.53 0.0 0 0 20.27 70.23
  Q 14.69 69.09 9.79 66.18
  A 1.97 1.97 0.0 0 1 8.90 63.95
  C 9.74 60.99 12.25 58.55 13.96 56.00
  C 16.91 51.59 3.31 45.60 16.48 40.29
  Q 17.01 40.08 17.15 39.53
  Q 19.52 30.51 28.58 28.33
  A 0.91 0.90 -25.0 0 0 29.10 26.91
  Q 23.15 18.92 27.58 9.87
  A 1.65 1.65 0.0 0 1 29.55 9.02
  Q 38.15 11.70 44.20 18.34
  A 0.73 0.73 0.0 0 0 45.29 18.33
  C 53.01 9.66 65.69 12.91 70.42 22.98
  Q 70.68 23.52 71.09 23.08
  C 80.70 12.76 97.05 17.20 98.01 31.53
  Q 98.11 32.89 99.40 32.44
  Q 104.79 30.59 110.51 30.48
  A 1.56 1.55 83.6 0 1 112.07 31.73
  Q 113.57 39.24 108.73 44.98
  A 1.98 1.95 -22.1 0 0 108.30 45.98
  Q 107.89 49.14 105.03 52.27
  C 101.59 56.01 112.69 60.99 105.38 66.61
  C 103.44 68.10 100.60 67.53 98.18 69.09
  Q 97.73 69.37 97.66 69.90
  C 97.35 72.19 97.38 74.62 95.70 76.30
  C 89.46 82.56 86.18 71.45 81.63 78.19
  Q 79.68 81.09 76.29 82.27
  Q 75.82 82.43 75.53 82.84
  C 69.60 90.96 73.36 93.78 77.25 101.29
  Q 77.48 101.72 77.35 102.19
  C 76.62 104.91 74.23 105.49 72.27 106.83
  A 1.72 1.66 84.6 0 0 71.68 107.57
  C 68.87 114.53 53.19 113.46 48.62 109.97
  Q 48.21 109.66 48.00 109.19
  Q 46.82 106.68 43.30 105.01
  C 41.47 104.14 41.14 101.92 42.20 100.12
  Q 44.86 95.62 46.80 91.17
  A 0.53 0.53 0.0 0 0 45.89 90.65
  Q 40.04 98.47 30.13 99.31
  Q 29.69 99.35 29.41 99.00
  Q 28.64 98.00 29.20 97.25
  Q 29.54 96.79 30.47 96.69
  Q 37.27 95.93 42.22 91.27
  A 0.49 0.49 0.0 0 0 41.71 90.46
  C 38.01 91.87 28.72 93.12 26.94 87.88
  C 25.07 82.41 30.47 80.35 34.94 81.38
  C 38.03 82.08 41.24 83.82 44.21 85.43
  A 0.40 0.40 0.0 0 0 44.77 84.94
  Z
  M 33.11 19.53
  L 33.81 19.43
  Q 34.33 19.36 34.65 19.77
  L 40.23 26.98
  A 0.70 0.70 0.0 0 0 41.46 26.72
  L 42.66 22.07
  A 2.10 2.09 31.8 0 0 42.21 20.18
  Q 37.41 14.58 30.46 12.02
  A 1.09 1.09 0.0 0 0 29.05 12.71
  Q 26.76 19.93 31.40 25.77
  C 33.22 28.06 35.74 28.60 38.39 29.59
  A 0.39 0.39 0.0 0 0 38.82 28.97
  L 32.42 21.30
  A 1.09 1.08 -23.8 0 1 33.11 19.53
  Z
  M 51.54 27.19
  C 52.05 22.31 57.20 20.78 60.45 24.53
  A 0.31 0.24 19.5 0 1 60.52 24.64
  L 61.40 26.76
  A 0.51 0.51 0.0 0 0 62.34 26.75
  C 67.71 13.48 44.49 13.83 50.64 27.34
  A 0.47 0.47 0.0 0 0 51.54 27.19
  Z
  M 65.39 20.46
  C 67.35 37.74 44.49 35.70 47.48 20.77
  A 0.46 0.46 0.0 0 0 46.64 20.45
  C 42.70 27.02 43.05 34.73 49.94 38.87
  C 62.05 46.16 74.39 31.03 65.95 20.23
  A 0.31 0.31 0.0 0 0 65.39 20.46
  Z
  M 88.78 33.51
  C 99.15 22.96 79.13 14.52 78.21 28.38
  A 0.67 0.67 0.0 0 0 79.43 28.82
  C 83.02 23.79 89.67 27.53 88.12 33.13
  A 0.39 0.39 0.0 0 0 88.78 33.51
  Z
  M 94.39 28.76
  C 90.67 43.90 69.58 36.34 77.73 21.72
  A 0.36 0.36 0.0 0 0 77.25 21.22
  C 69.28 25.33 69.37 34.57 74.10 41.10
  A 2.82 2.79 -22.0 0 0 76.77 42.22
  Q 81.20 41.59 85.24 43.49
  A 0.67 0.66 -59.9 0 0 86.06 43.27
  C 88.40 39.96 90.43 37.38 94.44 34.98
  A 1.49 1.44 85.4 0 0 95.05 34.24
  Q 96.06 31.49 95.01 28.72
  A 0.33 0.32 -48.5 0 0 94.39 28.76
  Z
  M 58.64 27.38
  A 2.29 2.29 0.0 0 0 56.35 25.09
  A 2.29 2.29 0.0 0 0 54.06 27.38
  A 2.29 2.29 0.0 0 0 56.35 29.67
  A 2.29 2.29 0.0 0 0 58.64 27.38
  Z
  M 85.73 31.35
  A 2.28 2.28 0.0 0 0 83.45 29.07
  A 2.28 2.28 0.0 0 0 81.17 31.35
  A 2.28 2.28 0.0 0 0 83.45 33.63
  A 2.28 2.28 0.0 0 0 85.73 31.35
  Z
  M 36.63 31.32
  Q 36.13 31.06 35.72 31.04
  A 0.49 0.49 0.0 0 0 35.37 31.89
  C 47.67 43.02 23.93 56.58 20.44 41.05
  A 0.48 0.48 0.0 0 0 19.49 41.10
  C 18.86 46.52 21.44 53.00 27.46 53.71
  C 36.69 54.80 36.59 55.83 42.46 48.18
  C 46.84 42.47 42.05 34.21 36.63 31.32
  Z
  M 31.63 37.20
  C 33.24 37.27 34.00 38.20 35.35 39.00
  Q 35.92 39.34 35.89 38.67
  C 35.19 26.21 15.17 33.45 25.25 44.48
  A 0.83 0.83 0.0 0 0 26.58 43.51
  C 24.67 40.19 28.77 37.07 31.63 37.20
  Z
  M 102.73 39.30
  A 1.08 1.07 54.1 0 1 104.18 39.54
  Q 104.98 40.58 103.77 41.52
  Q 98.33 45.72 92.49 49.03
  A 1.08 1.08 0.0 0 0 93.29 51.02
  C 100.96 49.05 110.04 43.59 109.92 34.59
  A 1.50 1.48 -2.5 0 0 108.31 33.13
  C 101.50 33.67 91.49 37.63 88.55 44.40
  A 1.97 1.96 84.9 0 0 91.44 46.82
  L 102.73 39.30
  Z
  M 57.40 43.84
  Q 61.99 45.23 65.26 48.76
  A 0.54 0.54 0.0 0 0 66.06 48.75
  C 67.48 47.13 69.00 45.21 70.97 44.28
  Q 71.54 44.02 72.00 43.57
  Q 72.37 43.21 72.09 42.77
  L 68.80 37.50
  A 0.40 0.40 0.0 0 0 68.14 37.47
  Q 64.13 42.70 57.48 43.19
  A 0.33 0.33 0.0 0 0 57.40 43.84
  Z
  M 33.51 42.04
  A 2.31 2.31 0.0 0 0 31.20 39.73
  A 2.31 2.31 0.0 0 0 28.89 42.04
  A 2.31 2.31 0.0 0 0 31.20 44.35
  A 2.31 2.31 0.0 0 0 33.51 42.04
  Z
  M 52.05 43.24
  A 0.31 0.31 0.0 0 0 52.10 42.66
  L 47.05 40.32
  A 0.31 0.31 0.0 0 0 46.61 40.58
  L 46.47 44.30
  A 0.31 0.31 0.0 0 0 46.86 44.61
  L 52.05 43.24
  Z
  M 13.37 45.91
  Q 13.04 47.26 13.99 48.27
  Q 16.40 50.83 17.24 54.28
  Q 17.41 54.98 18.11 54.82
  L 20.77 54.21
  Q 21.52 54.03 21.00 53.47
  Q 17.23 49.38 16.84 43.90
  A 0.72 0.72 0.0 0 0 15.93 43.25
  Q 13.90 43.79 13.37 45.91
  Z
  M 68.20 61.04
  C 67.13 67.45 77.05 69.96 81.32 68.97
  C 87.69 67.49 91.46 62.15 90.98 55.56
  A 0.41 0.41 0.0 0 0 90.18 55.47
  C 85.90 70.09 63.80 57.99 75.03 46.00
  A 0.46 0.46 0.0 0 0 74.54 45.26
  Q 69.61 47.04 67.54 51.81
  A 1.38 1.36 47.8 0 0 67.50 52.77
  Q 68.90 56.87 68.20 61.04
  Z
  M 82.83 46.37
  C 79.07 45.33 74.69 48.31 74.83 52.60
  Q 74.85 53.16 75.36 52.92
  C 76.87 52.20 78.29 50.67 80.26 51.25
  C 83.41 52.19 84.88 55.26 83.49 58.36
  A 0.62 0.61 81.7 0 0 84.45 59.08
  C 89.34 54.88 89.33 48.16 82.83 46.37
  Z
  M 58.53 47.35
  C 68.60 62.67 43.50 69.50 42.60 54.41
  A 0.55 0.55 0.0 0 0 41.51 54.32
  C 39.06 64.94 49.01 74.28 59.33 69.19
  C 68.51 64.65 67.64 51.86 58.84 47.02
  Q 58.02 46.57 58.53 47.35
  Z
  M 58.56 54.26
  C 57.86 40.11 37.41 49.63 47.37 58.93
  A 0.61 0.61 0.0 0 0 48.39 58.39
  C 47.47 52.71 54.48 49.88 57.14 54.67
  A 0.76 0.76 0.0 0 0 58.56 54.26
  Z
  M 47.01 76.57
  C 53.63 70.16 55.63 80.94 61.02 79.28
  A 1.23 1.21 6.3 0 0 61.72 78.73
  Q 65.42 72.49 71.65 76.23
  Q 71.94 76.40 72.09 76.70
  Q 74.00 80.40 77.65 78.97
  Q 78.17 78.77 78.42 78.27
  Q 82.20 70.53 89.22 74.80
  C 92.43 76.75 94.50 75.02 94.78 71.51
  C 95.50 62.56 106.31 67.52 105.04 61.20
  C 104.18 56.85 99.21 56.54 103.08 50.41
  A 0.25 0.24 -85.0 0 0 102.78 50.05
  L 94.01 53.77
  Q 93.53 53.98 93.55 54.50
  C 94.33 70.27 77.64 78.17 67.06 66.42
  A 0.59 0.58 -44.1 0 0 66.20 66.41
  C 64.69 67.99 63.44 69.76 61.64 70.78
  Q 52.11 76.18 43.43 69.25
  C 42.53 68.54 41.79 67.06 40.58 66.32
  Q 40.16 66.06 39.75 66.35
  Q 33.35 71.06 25.28 70.76
  A 1.53 1.52 75.6 0 0 23.92 73.07
  Q 26.22 76.91 29.61 74.77
  C 39.03 68.81 39.14 81.46 44.14 79.20
  Q 44.44 79.06 47.01 76.57
  Z
  M 81.50 56.13
  A 2.27 2.27 0.0 0 0 79.23 53.86
  A 2.27 2.27 0.0 0 0 76.96 56.13
  A 2.27 2.27 0.0 0 0 79.23 58.40
  A 2.27 2.27 0.0 0 0 81.50 56.13
  Z
  M 55.45 57.24
  A 2.30 2.30 0.0 0 0 53.15 54.94
  A 2.30 2.30 0.0 0 0 50.85 57.24
  A 2.30 2.30 0.0 0 0 53.15 59.54
  A 2.30 2.30 0.0 0 0 55.45 57.24
  Z
  M 20.69 62.14
  Q 20.19 61.21 20.67 60.58
  Q 21.05 60.09 22.09 60.01
  Q 30.14 59.36 38.11 60.18
  A 0.57 0.57 0.0 0 0 38.68 59.37
  Q 38.36 58.73 37.57 58.47
  C 28.98 55.60 17.66 54.16 11.95 62.97
  A 1.16 1.16 0.0 0 0 12.37 64.62
  Q 25.61 71.88 38.62 64.40
  A 0.72 0.71 -51.2 0 0 38.48 63.10
  C 33.73 61.60 26.54 62.65 21.48 62.62
  Q 20.94 62.61 20.69 62.14
  Z
  M 55.76 85.86
  L 55.30 86.09
  A 1.08 1.07 68.3 0 1 53.82 85.45
  L 51.51 78.40
  A 1.24 1.23 -31.8 0 0 49.46 77.92
  L 46.39 80.98
  Q 45.88 81.50 46.19 82.15
  L 48.64 87.20
  A 1.15 1.12 -4.7 0 0 49.34 87.78
  Q 59.25 90.69 69.22 88.07
  Q 69.72 87.94 69.96 87.49
  L 72.78 82.16
  A 0.62 0.62 0.0 0 0 72.70 81.45
  L 69.61 78.03
  A 1.43 1.43 0.0 0 0 67.17 78.58
  L 65.10 85.50
  Q 64.92 86.11 64.28 86.15
  L 63.44 86.20
  A 0.83 0.83 0.0 0 1 62.59 85.16
  L 63.50 81.71
  A 0.59 0.59 0.0 0 0 62.59 81.08
  Q 59.32 83.34 56.22 81.05
  A 0.62 0.62 0.0 0 0 55.25 81.72
  L 56.17 84.98
  Q 56.34 85.59 55.76 85.86
  Z
  M 41.84 87.09
  C 39.08 85.49 31.73 81.88 29.56 84.93
  A 2.27 2.27 0.0 0 0 30.73 88.42
  Q 36.26 90.15 41.79 87.82
  A 0.41 0.41 0.0 0 0 41.84 87.09
  Z
  M 54.31 93.92
  L 55.35 94.04
  Q 56.11 94.13 56.03 94.89
  Q 55.30 101.66 50.85 106.72
  A 1.33 1.33 0.0 0 0 51.48 108.88
  Q 59.52 111.18 67.54 108.79
  A 1.17 1.17 0.0 0 0 68.09 106.90
  Q 63.58 101.69 62.73 94.83
  Q 62.68 94.41 63.03 94.17
  Q 63.94 93.59 64.62 93.98
  C 64.84 94.11 67.94 102.57 68.91 104.10
  A 1.00 0.99 69.9 0 0 69.87 104.55
  Q 72.48 104.22 74.43 102.42
  Q 74.92 101.97 74.54 101.41
  Q 71.53 96.98 69.72 91.97
  A 1.57 1.56 73.2 0 0 67.88 90.98
  C 61.43 92.54 56.48 91.65 50.01 90.92
  Q 49.40 90.86 49.23 91.44
  Q 47.57 96.83 44.25 101.41
  A 0.84 0.84 0.0 0 0 44.53 102.65
  L 48.14 104.57
  A 1.34 1.34 0.0 0 0 49.90 104.12
  Q 52.75 99.68 53.59 94.46
  Q 53.69 93.84 54.31 93.92
  Z"
/>
</svg>
