<?xml version="1.0" encoding="UTF-8" standalone="no"?>
<!DOCTYPE svg PUBLIC "-//W3C//DTD SVG 1.1//EN" "http://www.w3.org/Graphics/SVG/1.1/DTD/svg11.dtd">
<svg xmlns="http://www.w3.org/2000/svg" version="1.1" viewBox="0.00 0.00 100.00 101.00">
<path fill="#000000" d="
  M 76.89 25.29
  A 0.37 0.37 0.0 0 0 77.02 26.00
  L 97.50 26.00
  A 0.50 0.50 0.0 0 1 98.00 26.50
  L 98.00 47.25
  Q 98.00 48.00 97.25 48.00
  L 94.75 48.00
  Q 94.00 48.00 94.00 48.75
  L 94.00 97.50
  Q 94.00 98.00 93.50 98.00
  L 6.50 98.00
  A 0.50 0.50 0.0 0 1 6.00 97.50
  L 6.00 49.28
  A 1.02 0.98 -64.0 0 0 5.81 48.69
  Q 5.09 47.71 3.74 48.04
  A 1.40 1.40 0.0 0 1 2.00 46.68
  L 2.00 26.50
  A 0.50 0.50 0.0 0 1 2.50 26.00
  L 22.98 26.00
  A 0.28 0.28 0.0 0 0 23.10 25.47
  Q 13.83 20.72 14.18 11.23
  C 14.32 7.27 16.46 3.87 20.25 2.74
  C 33.37 -1.17 38.43 12.03 44.05 20.42
  C 47.96 26.25 54.02 24.41 57.03 19.02
  C 61.67 10.72 66.76 0.51 78.23 2.30
  C 90.90 4.28 86.32 21.62 76.89 25.29
  Z
  M 41.28 23.47
  C 36.98 17.23 32.31 4.92 22.97 6.11
  C 16.89 6.89 17.16 13.95 19.85 17.94
  C 24.23 24.43 34.02 24.10 40.94 24.12
  A 0.41 0.41 0.0 0 0 41.28 23.47
  Z
  M 59.62 22.33
  Q 59.06 22.82 58.62 23.25
  Q 57.76 24.08 58.96 24.09
  C 67.46 24.12 82.19 23.91 81.93 11.60
  C 81.87 8.92 80.10 6.56 77.47 6.19
  C 68.09 4.91 63.69 15.47 59.72 22.20
  A 0.66 0.55 -12.9 0 1 59.62 22.33
  Z
  M 38.0011 30.6679
  A 0.64 0.64 0.0 0 0 37.3622 30.0268
  L 6.6623 29.9732
  A 0.64 0.64 0.0 0 0 6.0211 30.6121
  L 5.9989 43.3521
  A 0.64 0.64 0.0 0 0 6.6378 43.9932
  L 37.3377 44.0468
  A 0.64 0.64 0.0 0 0 37.9789 43.4079
  L 38.0011 30.6679
  Z
  M 58.00 30.59
  A 0.59 0.59 0.0 0 0 57.41 30.00
  L 42.59 30.00
  A 0.59 0.59 0.0 0 0 42.00 30.59
  L 42.00 93.45
  A 0.59 0.59 0.0 0 0 42.59 94.04
  L 57.41 94.04
  A 0.59 0.59 0.0 0 0 58.00 93.45
  L 58.00 30.59
  Z
  M 94.0012 30.6179
  A 0.59 0.59 0.0 0 0 93.4122 30.0269
  L 62.6123 29.9731
  A 0.59 0.59 0.0 0 0 62.0212 30.5621
  L 61.9988 43.4021
  A 0.59 0.59 0.0 0 0 62.5878 43.9931
  L 93.3877 44.0469
  A 0.59 0.59 0.0 0 0 93.9788 43.4579
  L 94.0012 30.6179
  Z
  M 38.00 48.70
  A 0.70 0.70 0.0 0 0 37.30 48.00
  L 10.70 48.00
  A 0.70 0.70 0.0 0 0 10.00 48.70
  L 10.00 93.30
  A 0.70 0.70 0.0 0 0 10.70 94.00
  L 37.30 94.00
  A 0.70 0.70 0.0 0 0 38.00 93.30
  L 38.00 48.70
  Z
  M 90.00 48.63
  A 0.63 0.63 0.0 0 0 89.37 48.00
  L 62.63 48.00
  A 0.63 0.63 0.0 0 0 62.00 48.63
  L 62.00 93.39
  A 0.63 0.63 0.0 0 0 62.63 94.02
  L 89.37 94.02
  A 0.63 0.63 0.0 0 0 90.00 93.39
  L 90.00 48.63
  Z"
/>
</svg>
