<?xml version="1.0" encoding="UTF-8" standalone="no"?>
<!DOCTYPE svg PUBLIC "-//W3C//DTD SVG 1.1//EN" "http://www.w3.org/Graphics/SVG/1.1/DTD/svg11.dtd">
<svg xmlns="http://www.w3.org/2000/svg" version="1.1" viewBox="0.00 0.00 108.00 108.00">
<path fill="#000000" fill-opacity="0.996" d="
  M 20.71 65.97
  Q 37.49 80.32 59.77 81.04
  A 0.82 0.82 0.0 0 1 59.91 82.66
  Q 58.62 82.93 56.75 82.72
  C 42.37 81.09 28.92 76.32 18.55 65.88
  A 1.03 1.03 0.0 0 1 18.32 64.77
  L 21.13 57.63
  A 0.76 0.76 0.0 0 0 20.72 56.65
  L 19.81 56.28
  Q 19.08 55.98 18.93 56.76
  Q 17.67 63.61 10.72 63.20
  Q 9.35 63.12 9.29 61.75
  Q 9.11 57.84 12.13 55.51
  A 0.46 0.45 -60.2 0 0 11.91 54.70
  L 4.75 53.77
  A 0.70 0.70 0.0 0 1 4.76 52.38
  L 6.71 52.17
  A 0.61 0.61 0.0 0 0 7.25 51.56
  L 7.25 50.51
  Q 7.25 50.03 7.73 49.97
  C 8.50 49.88 9.41 52.47 11.32 52.80
  Q 16.54 53.71 21.60 55.25
  A 0.78 0.77 27.5 0 0 22.41 55.00
  L 25.19 51.60
  A 0.57 0.57 0.0 0 0 25.12 50.79
  L 22.06 48.23
  A 0.60 0.60 0.0 0 0 21.24 48.29
  C 17.23 52.78 12.27 50.05 7.76 48.73
  Q 5.69 48.12 4.52 47.19
  A 0.75 0.74 37.6 0 1 4.38 46.17
  L 5.33 44.88
  Q 5.59 44.52 5.43 44.11
  L 3.98 40.57
  A 0.93 0.93 0.0 0 1 4.29 39.47
  C 5.79 38.38 8.59 37.75 7.95 35.26
  A 1.02 1.02 0.0 0 1 9.27 34.04
  C 15.22 36.07 23.99 36.94 22.69 45.80
  Q 22.62 46.25 22.95 46.57
  L 25.68 49.30
  A 0.60 0.59 44.7 0 0 26.53 49.30
  L 28.50 47.35
  A 0.89 0.89 0.0 0 0 28.70 46.40
  Q 25.76 38.97 31.56 33.80
  A 1.15 1.15 0.0 0 0 30.43 31.85
  C 25.65 33.43 22.49 35.24 18.15 31.08
  Q 14.21 27.31 10.55 23.19
  A 0.56 0.55 55.1 0 1 10.70 22.33
  L 13.05 21.07
  A 0.66 0.65 -13.4 0 0 13.40 20.51
  L 13.53 16.01
  A 0.97 0.96 79.5 0 1 14.12 15.15
  Q 16.56 14.13 19.24 14.59
  Q 19.79 14.68 20.03 14.18
  L 20.83 12.50
  A 1.22 1.22 0.0 0 1 22.78 12.15
  C 25.55 14.84 30.32 18.82 32.05 22.22
  C 33.43 24.92 32.20 27.01 31.84 29.27
  A 2.34 2.34 0.0 0 0 34.85 31.87
  Q 40.89 29.96 45.49 34.25
  A 0.41 0.41 0.0 0 0 46.16 33.81
  L 43.29 25.95
  Q 43.12 25.49 42.65 25.36
  C 34.15 23.02 34.58 16.66 32.81 9.38
  A 0.74 0.74 0.0 0 1 33.74 8.49
  C 38.71 9.99 36.50 1.41 43.90 6.30
  Q 44.39 6.63 44.90 6.32
  L 46.60 5.31
  A 0.82 0.81 66.7 0 1 47.80 5.79
  C 49.50 11.66 53.30 20.37 46.51 24.57
  Q 44.90 25.56 45.62 27.38
  A 0.69 0.69 0.0 0 0 46.68 27.67
  Q 51.16 24.29 56.82 24.23
  Q 58.12 24.22 57.70 22.99
  Q 56.65 19.85 53.26 19.87
  A 0.90 0.74 34.0 0 1 52.79 18.30
  Q 53.82 18.11 54.73 18.52
  A 0.39 0.39 0.0 0 0 55.25 18.01
  Q 53.18 13.34 51.64 8.56
  C 50.80 5.97 48.08 3.68 51.47 0.76
  Q 51.84 0.44 52.28 0.68
  Q 56.77 3.12 53.54 7.42
  A 0.87 0.85 58.1 0 0 53.39 8.09
  L 53.95 10.88
  A 0.59 0.59 0.0 0 0 54.98 11.15
  Q 56.84 9.01 59.70 8.76
  Q 60.92 8.65 61.11 9.86
  Q 61.91 15.16 57.01 16.32
  Q 56.38 16.48 56.66 17.07
  L 58.94 21.83
  A 0.54 0.54 0.0 0 0 59.96 21.71
  Q 60.29 20.21 61.58 19.50
  A 0.85 0.84 55.0 0 1 62.62 19.69
  Q 79.03 38.37 77.63 63.57
  A 2.09 2.09 0.0 0 0 80.28 65.70
  C 84.14 64.62 94.81 59.76 93.60 69.18
  Q 93.53 69.75 93.19 70.21
  L 92.15 71.65
  Q 91.74 72.22 92.37 72.55
  L 102.45 77.88
  Q 102.97 78.15 103.20 78.69
  Q 105.14 83.10 101.69 86.41
  A 1.16 1.15 68.6 0 0 101.33 87.25
  C 101.31 91.74 98.93 93.17 97.17 96.74
  C 95.19 100.73 92.53 100.66 89.49 103.37
  C 87.04 105.56 85.78 106.34 82.68 105.98
  Q 82.14 105.91 81.68 106.20
  Q 78.26 108.37 74.58 106.83
  Q 74.10 106.63 73.87 106.17
  L 62.68 83.98
  A 1.58 1.58 0.0 0 1 62.98 82.14
  L 76.08 69.06
  A 0.45 0.45 0.0 0 0 75.66 68.30
  C 72.77 69.03 65.20 77.75 65.00 78.00
  C 63.28 80.18 61.66 80.02 59.72 78.22
  Q 56.23 75.01 57.79 69.95
  A 0.75 0.75 0.0 0 0 57.57 69.17
  Q 53.18 65.33 55.73 59.95
  A 0.67 0.66 34.1 0 0 55.57 59.16
  Q 52.22 56.18 53.25 51.74
  A 0.39 0.39 0.0 0 0 52.56 51.42
  L 50.62 53.95
  Q 50.35 54.29 49.93 54.22
  Q 44.94 53.46 43.40 58.39
  A 0.64 0.64 0.0 0 1 42.50 58.77
  Q 38.70 56.87 36.19 60.23
  A 0.93 0.92 -62.3 0 1 35.17 60.56
  L 32.68 59.79
  A 0.95 0.91 42.8 0 0 32.13 59.80
  Q 30.03 60.54 28.93 62.49
  A 0.71 0.70 19.1 0 1 28.20 62.84
  Q 23.98 62.08 20.73 64.69
  A 0.83 0.83 0.0 0 0 20.71 65.97
  Z
  M 52.4213 5.4937
  A 1.18 0.89 84.1 0 0 53.1853 4.2285
  A 1.18 0.89 84.1 0 0 52.1787 3.1463
  A 1.18 0.89 84.1 0 0 51.4147 4.4115
  A 1.18 0.89 84.1 0 0 52.4213 5.4937
  Z
  M 42.3534 7.2862
  A 2.11 1.89 -33.8 0 0 39.5486 6.8894
  A 2.11 1.89 -33.8 0 0 38.8466 9.6338
  A 2.11 1.89 -33.8 0 0 41.6514 10.0306
  A 2.11 1.89 -33.8 0 0 42.3534 7.2862
  Z
  M 42.24 23.55
  C 51.98 23.79 48.09 13.92 46.93 8.87
  A 0.77 0.77 0.0 0 0 45.83 8.35
  C 40.86 10.80 41.11 18.43 41.65 23.01
  A 0.61 0.60 87.3 0 0 42.24 23.55
  Z
  M 39.83 12.08
  L 35.90 10.55
  A 0.76 0.76 0.0 0 0 34.90 11.47
  L 38.00 21.79
  A 0.95 0.95 0.0 0 0 39.86 21.41
  Q 39.39 17.24 40.45 13.29
  A 1.02 1.02 0.0 0 0 39.83 12.08
  Z
  M 56.0444 14.5395
  A 2.46 1.30 132.3 0 0 58.6615 13.5949
  A 2.46 1.30 132.3 0 0 59.3556 10.9005
  A 2.46 1.30 132.3 0 0 56.7385 11.8451
  A 2.46 1.30 132.3 0 0 56.0444 14.5395
  Z
  M 21.62 15.11
  C 19.62 21.45 22.60 25.93 25.78 30.54
  Q 27.13 32.52 28.65 30.66
  C 34.67 23.32 27.33 19.60 23.21 14.79
  A 0.93 0.92 33.5 0 0 21.62 15.11
  Z
  M 17.94 15.94
  A 2.13 2.12 -77.1 0 0 15.18 17.68
  L 14.96 19.32
  Q 14.88 19.92 15.45 20.10
  C 18.89 21.18 21.40 17.06 17.94 15.94
  Z
  M 13.75 24.03
  C 15.37 25.85 21.10 32.26 23.86 31.95
  A 0.38 0.38 0.0 0 0 24.15 31.40
  L 19.14 22.13
  A 0.59 0.58 -17.9 0 0 18.54 21.83
  L 14.37 22.38
  Q 12.51 22.62 13.75 24.03
  Z
  M 57.93 59.38
  Q 57.13 60.99 56.53 62.69
  A 0.93 0.83 60.3 0 0 56.48 62.92
  Q 56.32 66.45 59.34 67.97
  A 1.33 1.33 0.0 0 1 59.95 69.72
  Q 57.56 74.85 62.21 77.62
  A 0.66 0.66 0.0 0 0 63.01 77.52
  L 69.58 71.03
  A 0.61 0.61 0.0 0 0 69.29 70.00
  C 64.15 68.79 64.11 62.12 68.90 60.98
  C 71.08 60.46 73.60 62.16 75.38 63.44
  A 0.47 0.47 0.0 0 0 76.12 63.08
  Q 77.02 40.10 62.88 22.35
  A 1.05 1.05 0.0 0 0 61.12 22.54
  C 59.56 25.65 61.11 26.76 61.51 29.61
  Q 61.59 30.15 61.13 30.44
  Q 56.69 33.32 58.82 38.49
  A 0.74 0.73 59.4 0 1 58.61 39.33
  Q 54.00 43.26 57.07 48.45
  A 0.68 0.66 51.3 0 1 56.99 49.24
  Q 52.32 54.38 57.71 58.43
  Q 58.21 58.81 57.93 59.38
  Z
  M 48.57 33.49
  C 51.03 32.75 53.16 33.00 55.46 34.06
  Q 55.88 34.25 56.13 33.86
  L 59.07 29.17
  Q 59.34 28.74 59.21 28.24
  L 58.68 26.13
  Q 58.55 25.59 57.98 25.60
  Q 51.64 25.78 46.77 29.71
  Q 46.30 30.09 46.57 30.62
  L 47.88 33.20
  A 0.58 0.57 -22.1 0 0 48.57 33.49
  Z
  M 40.12 50.66
  C 50.04 47.66 49.17 34.96 39.02 32.81
  A 0.62 0.62 0.0 0 0 38.63 33.98
  C 44.00 36.49 41.79 46.04 39.51 49.88
  A 0.53 0.53 0.0 0 0 40.12 50.66
  Z
  M 39.71 38.85
  A 4.52 4.52 0.0 0 0 35.19 34.33
  A 4.52 4.52 0.0 0 0 30.67 38.85
  A 4.52 4.52 0.0 0 0 35.19 43.37
  A 4.52 4.52 0.0 0 0 39.71 38.85
  Z
  M 55.86 36.07
  Q 52.10 33.88 47.97 35.37
  A 0.89 0.88 64.9 0 0 47.51 36.65
  Q 50.14 41.13 48.14 45.99
  Q 47.94 46.49 48.24 46.94
  L 50.42 50.19
  Q 50.76 50.70 51.26 50.34
  Q 52.86 49.19 54.87 49.22
  A 0.48 0.48 0.0 0 0 55.31 48.52
  Q 52.66 43.40 56.37 39.04
  A 1.96 1.96 0.0 0 0 55.86 36.07
  Z
  M 20.49 46.67
  C 23.49 39.21 15.74 37.94 10.93 36.36
  A 0.85 0.85 0.0 0 0 9.88 37.49
  C 10.60 39.27 10.88 41.13 12.28 42.44
  Q 15.56 45.49 19.45 47.11
  Q 20.19 47.43 20.49 46.67
  Z
  M 8.12 39.06
  C 5.42 39.43 5.16 43.17 7.65 42.90
  A 1.75 1.75 0.0 0 0 9.17 40.82
  L 8.94 39.65
  A 0.73 0.73 0.0 0 0 8.12 39.06
  Z
  M 36.48 50.57
  A 1.27 1.26 17.3 0 0 38.01 49.77
  L 40.19 43.71
  A 0.37 0.37 0.0 0 0 39.62 43.30
  Q 34.15 47.60 30.04 42.20
  A 0.42 0.41 -68.2 0 0 29.30 42.52
  Q 30.28 48.84 36.48 50.57
  Z
  M 7.51 46.86
  L 16.59 49.42
  A 0.70 0.70 0.0 0 0 17.20 48.18
  L 10.48 43.31
  Q 10.15 43.07 9.85 43.33
  L 7.23 45.54
  Q 6.14 46.47 7.51 46.86
  Z
  M 46.49 48.51
  C 42.91 52.65 38.26 53.40 33.37 51.24
  A 0.65 0.65 0.0 0 0 32.48 51.69
  Q 31.81 54.80 33.05 57.78
  A 1.66 1.66 0.0 0 0 35.83 58.25
  Q 38.23 55.54 41.81 56.54
  A 0.77 0.77 0.0 0 0 42.71 56.11
  Q 44.35 52.38 48.55 52.47
  A 0.61 0.61 0.0 0 0 49.09 51.56
  L 47.41 48.60
  Q 47.01 47.89 46.49 48.51
  Z
  M 27.70 50.79
  Q 28.27 52.57 29.90 53.69
  Q 30.30 53.97 30.40 53.49
  L 31.04 50.40
  Q 31.15 49.83 30.78 49.39
  Q 30.51 49.07 30.04 48.83
  A 1.65 1.65 0.0 0 0 27.70 50.79
  Z
  M 25.30 54.08
  Q 24.69 54.57 24.35 55.27
  A 0.59 0.59 0.0 0 0 24.62 56.05
  L 30.05 58.79
  A 0.71 0.71 0.0 0 0 30.92 57.71
  L 27.04 52.90
  Q 26.68 52.45 26.25 52.85
  Q 25.96 53.11 25.77 53.49
  Q 25.61 53.84 25.30 54.08
  Z
  M 16.48 55.85
  C 13.52 55.62 11.06 58.08 10.99 60.98
  A 0.66 0.65 -1.6 0 0 11.70 61.65
  Q 16.40 61.27 17.14 56.69
  A 0.73 0.73 0.0 0 0 16.48 55.85
  Z
  M 25.60 60.96
  Q 27.18 61.62 28.45 60.77
  A 0.56 0.56 0.0 0 0 28.37 59.79
  L 23.61 57.62
  Q 23.13 57.40 22.92 57.90
  L 21.43 61.52
  A 0.36 0.36 0.0 0 0 21.90 61.99
  L 24.49 60.95
  Q 25.05 60.72 25.60 60.96
  Z
  M 76.20 65.62
  Q 73.90 64.35 71.83 63.24
  C 66.32 60.29 64.97 69.48 70.71 68.05
  Q 73.47 67.36 75.98 66.92
  A 0.70 0.70 0.0 0 0 76.20 65.62
  Z
  M 90.56 65.44
  C 88.75 64.44 84.77 66.12 82.82 66.51
  A 0.57 0.56 52.1 0 0 82.69 67.57
  L 89.55 70.94
  A 0.88 0.86 -48.9 0 0 90.44 70.87
  C 92.23 69.62 92.93 66.73 90.56 65.44
  Z
  M 69.64 84.46
  A 0.82 0.82 0.0 0 1 68.13 85.09
  L 66.51 81.84
  Q 66.25 81.31 65.85 81.76
  L 64.91 82.86
  Q 64.46 83.37 64.76 83.97
  L 74.75 104.21
  A 2.86 2.84 73.5 0 0 77.63 105.79
  Q 79.76 105.54 81.43 104.41
  Q 81.85 104.13 82.34 104.20
  Q 86.91 104.83 89.42 101.12
  Q 89.72 100.67 90.24 100.51
  Q 95.10 99.04 96.53 94.17
  Q 96.69 93.63 97.11 93.24
  Q 98.65 91.84 99.47 89.96
  Q 99.69 89.46 99.59 88.92
  C 98.81 84.65 106.08 81.83 99.97 78.54
  Q 90.15 73.25 80.17 68.06
  Q 79.75 67.84 79.41 68.18
  L 67.54 80.12
  Q 67.14 80.52 67.53 80.92
  Q 68.95 82.40 69.64 84.46
  Z"
/>
<path fill="#000000" fill-opacity="0.996" d="
  M 45.14 21.27
  A 0.11 0.11 0.0 0 1 45.02 21.36
  L 44.99 21.36
  A 2.29 1.66 -81.9 0 1 43.67 18.86
  L 44.09 15.89
  A 2.29 1.66 -81.9 0 1 46.06 13.85
  L 46.09 13.86
  A 0.11 0.11 0.0 0 1 46.18 13.98
  L 45.14 21.27
  Z"
/>
<path fill="#000000" fill-opacity="0.996" d="
  M 27.13 23.45
  A 0.28 0.28 0.0 0 1 27.30 23.10
  L 27.47 23.04
  A 1.44 1.36 -18.8 0 1 29.28 23.86
  L 29.48 24.47
  A 1.44 1.36 -18.8 0 1 28.56 26.22
  L 28.39 26.28
  A 0.28 0.28 0.0 0 1 28.03 26.10
  L 27.13 23.45
  Z"
/>
<rect fill="#000000" fill-opacity="0.996" x="-0.85" y="-2.73" transform="translate(64.89,28.88) rotate(-34.8)" width="1.70" height="5.46" rx="0.80"/>
<path fill="#000000" fill-opacity="0.996" d="
  M 73.36 57.56
  A 0.60 0.60 0.0 0 1 72.34 57.97
  Q 71.80 57.45 71.80 56.50
  Q 71.87 44.86 67.16 34.27
  Q 66.93 33.75 67.44 33.52
  Q 67.93 33.31 68.47 33.62
  Q 68.85 33.84 69.10 34.40
  Q 73.93 45.42 73.36 57.56
  Z"
/>
<ellipse fill="#000000" fill-opacity="0.996" cx="0.00" cy="0.00" transform="translate(15.17,40.25) rotate(21.0)" rx="2.25" ry="0.94"/>
<path fill="#000000" fill-opacity="0.996" d="
  M 28.94 66.84
  C 36.53 70.81 44.53 70.91 52.89 69.50
  Q 53.34 69.42 53.59 69.79
  Q 54.27 70.79 53.31 71.05
  Q 40.22 74.46 28.94 68.81
  Q 27.91 68.30 28.34 67.08
  Q 28.50 66.61 28.94 66.84
  Z"
/>
<path fill="#000000" fill-opacity="0.996" d="
  M 89.11 85.86
  C 90.91 87.78 93.73 87.86 94.69 90.57
  A 0.39 0.39 0.0 0 1 94.21 91.08
  Q 91.72 90.36 90.55 87.97
  A 0.83 0.81 -4.7 0 0 90.03 87.54
  C 85.84 86.32 78.57 78.76 75.11 75.62
  Q 74.66 75.21 75.09 74.78
  L 75.44 74.44
  A 0.50 0.50 0.0 0 1 76.11 74.41
  C 80.47 78.01 85.26 81.74 89.11 85.86
  Z"
/>
<rect fill="#000000" fill-opacity="0.996" x="-6.68" y="-0.86" transform="translate(90.69,80.54) rotate(34.3)" width="13.36" height="1.72" rx="0.83"/>
<rect fill="#000000" fill-opacity="0.996" x="-7.16" y="-0.86" transform="translate(78.86,91.49) rotate(44.9)" width="14.32" height="1.72" rx="0.79"/>
<rect fill="#000000" fill-opacity="0.996" x="-0.83" y="-8.52" transform="translate(74.37,94.52) rotate(-29.1)" width="1.66" height="17.04" rx="0.80"/>
</svg>
