<?xml version="1.0" encoding="UTF-8" standalone="no"?>
<!DOCTYPE svg PUBLIC "-//W3C//DTD SVG 1.1//EN" "http://www.w3.org/Graphics/SVG/1.1/DTD/svg11.dtd">
<svg xmlns="http://www.w3.org/2000/svg" version="1.1" viewBox="0.00 0.00 76.00 76.00">
<path fill="#ff0000" d="
  M 25.04 0.00
  L 27.79 0.00
  C 36.43 1.97 39.71 1.99 48.32 0.00
  L 51.08 0.00
  C 57.81 1.51 59.83 7.92 63.84 12.31
  C 68.19 17.07 74.64 17.58 76.00 25.10
  L 76.00 27.78
  C 75.07 32.36 74.00 36.37 74.72 41.08
  Q 75.27 44.71 76.00 48.34
  L 76.00 51.05
  C 74.41 58.84 65.84 60.30 61.57 66.49
  C 58.70 70.64 56.68 74.95 50.92 76.00
  L 48.22 76.00
  Q 44.82 75.28 41.41 74.74
  C 36.59 73.98 32.37 75.07 27.67 76.00
  L 25.22 76.00
  C 19.78 74.99 16.26 70.15 14.19 65.53
  A 1.35 1.35 0.0 0 1 16.18 63.87
  C 19.22 65.95 19.65 70.61 23.68 72.43
  C 26.77 73.82 33.13 71.82 36.61 71.41
  C 42.70 70.69 52.03 76.05 55.75 69.67
  Q 60.45 61.63 67.05 57.31
  C 75.88 51.53 72.21 47.83 71.40 39.36
  C 70.79 33.04 76.27 23.90 69.07 19.88
  Q 61.53 15.66 57.27 8.96
  C 54.43 4.49 52.24 2.01 46.92 3.37
  Q 38.75 5.46 31.16 3.89
  C 21.64 1.91 21.16 5.50 16.46 12.05
  Q 14.55 14.71 12.05 16.49
  C 5.12 21.45 2.01 21.63 3.97 31.49
  Q 5.32 38.35 3.85 45.16
  C 2.16 53.00 4.16 54.15 10.09 58.15
  Q 11.60 59.18 10.60 60.50
  A 1.17 1.17 0.0 0 1 9.24 60.89
  Q 1.93 58.11 0.00 51.07
  L 0.00 48.22
  C 0.93 43.78 2.00 39.76 1.37 35.23
  Q 0.87 31.56 0.00 27.92
  L 0.00 24.92
  C 0.82 20.90 2.87 19.03 6.63 16.64
  Q 12.99 12.60 17.39 5.18
  Q 19.83 1.08 25.04 0.00
  Z"
/>
<path fill="#ff0000" d="
  M 41.07 10.14
  Q 47.93 10.80 53.29 14.49
  A 1.26 1.25 -59.0 0 1 53.69 16.11
  C 53.13 17.15 52.09 17.27 51.08 16.67
  C 33.85 6.42 11.28 19.34 13.11 40.13
  C 15.14 63.19 45.04 71.52 58.35 52.34
  Q 68.37 37.90 57.45 22.01
  A 0.85 0.85 0.0 0 1 57.81 20.75
  L 59.16 20.17
  A 0.75 0.73 -28.9 0 1 60.06 20.42
  Q 69.96 34.68 63.75 48.96
  C 55.46 68.04 30.38 71.97 17.04 56.68
  C 0.04 37.18 15.50 7.66 41.07 10.14
  Z"
/>
<path fill="#ff0000" d="
  M 35.39 29.83
  A 5.56 5.56 0.0 0 1 29.83 35.39
  A 5.56 5.56 0.0 0 1 24.27 29.83
  A 5.56 5.56 0.0 0 1 29.83 24.27
  A 5.56 5.56 0.0 0 1 35.39 29.83
  Z
  M 32.35 29.84
  A 2.50 2.50 0.0 0 0 29.85 27.34
  A 2.50 2.50 0.0 0 0 27.35 29.84
  A 2.50 2.50 0.0 0 0 29.85 32.34
  A 2.50 2.50 0.0 0 0 32.35 29.84
  Z"
/>
<rect fill="#ff0000" x="-1.51" y="-18.78" transform="translate(38.00,38.01) rotate(45.0)" width="3.02" height="37.56" rx="1.49"/>
<path fill="#ff0000" d="
  M 51.75 46.20
  A 5.55 5.55 0.0 0 1 46.20 51.75
  A 5.55 5.55 0.0 0 1 40.65 46.20
  A 5.55 5.55 0.0 0 1 46.20 40.65
  A 5.55 5.55 0.0 0 1 51.75 46.20
  Z
  M 48.74 46.21
  A 2.52 2.52 0.0 0 0 46.22 43.69
  A 2.52 2.52 0.0 0 0 43.70 46.21
  A 2.52 2.52 0.0 0 0 46.22 48.73
  A 2.52 2.52 0.0 0 0 48.74 46.21
  Z"
/>
</svg>
