<?xml version="1.0" encoding="UTF-8" standalone="no"?>
<!DOCTYPE svg PUBLIC "-//W3C//DTD SVG 1.1//EN" "http://www.w3.org/Graphics/SVG/1.1/DTD/svg11.dtd">
<svg xmlns="http://www.w3.org/2000/svg" version="1.1" viewBox="0.00 0.00 96.00 96.00">
<path fill="#ff0000" d="
  M 21.33 76.79
  L 12.93 74.32
  A 3.50 3.49 10.4 0 1 10.43 70.70
  L 11.11 61.88
  A 0.79 0.78 25.3 0 0 10.88 61.26
  L 4.66 55.03
  A 3.83 3.82 -51.5 0 1 4.12 50.30
  L 8.63 43.11
  Q 8.88 42.71 8.73 42.26
  C 7.48 38.43 3.66 31.75 8.56 29.06
  Q 12.64 26.83 15.15 25.32
  A 1.12 1.10 -11.4 0 0 15.68 24.54
  C 17.30 14.35 16.52 12.20 28.31 12.79
  A 2.12 2.12 0.0 0 0 30.11 11.96
  L 35.10 5.40
  A 4.01 4.01 0.0 0 1 39.99 4.20
  L 47.70 7.82
  A 0.98 0.97 44.0 0 0 48.55 7.81
  Q 51.69 6.25 54.81 4.83
  C 60.59 2.19 63.29 8.30 66.00 12.13
  A 1.01 0.98 -15.8 0 0 66.78 12.55
  L 75.36 12.91
  A 3.87 3.87 0.0 0 1 79.02 16.15
  L 80.40 24.54
  A 1.06 1.04 11.3 0 0 80.88 25.25
  Q 84.36 27.40 87.92 29.32
  C 92.20 31.63 88.47 38.84 87.31 42.17
  Q 87.15 42.61 87.40 43.01
  L 91.88 50.14
  A 4.21 4.21 0.0 0 1 91.20 55.44
  L 85.29 61.01
  Q 84.85 61.42 84.91 62.01
  C 86.05 73.97 86.12 73.59 74.72 76.78
  Q 74.23 76.92 74.03 77.39
  Q 73.05 79.65 70.93 84.67
  C 68.88 89.51 61.71 86.59 57.97 85.82
  Q 57.49 85.72 57.11 86.04
  Q 54.05 88.56 50.98 91.00
  C 46.85 94.27 42.09 88.60 39.07 86.07
  Q 38.65 85.71 38.11 85.82
  L 29.99 87.51
  A 4.13 4.13 0.0 0 1 25.35 85.09
  L 22.10 77.48
  Q 21.88 76.96 21.33 76.79
  Z
  M 24.15 73.77
  A 1.07 1.07 0.0 0 1 24.83 74.37
  L 28.58 83.14
  A 1.07 1.07 0.0 0 0 29.78 83.76
  L 39.10 81.84
  A 1.07 1.07 0.0 0 1 40.00 82.07
  L 47.31 88.10
  A 1.07 1.07 0.0 0 0 48.67 88.11
  L 56.10 82.05
  A 1.07 1.07 0.0 0 1 56.99 81.83
  L 66.33 83.74
  A 1.07 1.07 0.0 0 0 67.53 83.12
  L 71.27 74.35
  A 1.07 1.07 0.0 0 1 71.96 73.74
  L 81.05 71.10
  A 1.07 1.07 0.0 0 0 81.82 70.00
  L 81.12 60.41
  A 1.07 1.07 0.0 0 1 81.45 59.55
  L 88.34 53.03
  A 1.07 1.07 0.0 0 0 88.50 51.67
  L 83.36 43.61
  A 1.07 1.07 0.0 0 1 83.25 42.69
  L 86.30 33.73
  A 1.07 1.07 0.0 0 0 85.83 32.46
  L 77.51 27.58
  A 1.07 1.07 0.0 0 1 77.00 26.82
  L 75.49 17.47
  A 1.07 1.07 0.0 0 0 74.47 16.57
  L 64.95 16.22
  A 1.07 1.07 0.0 0 1 64.13 15.79
  L 58.41 8.15
  A 1.07 1.07 0.0 0 0 57.10 7.83
  L 48.49 11.91
  A 1.07 1.07 0.0 0 1 47.57 11.91
  L 38.96 7.81
  A 1.07 1.07 0.0 0 0 37.64 8.13
  L 31.90 15.81
  A 1.07 1.07 0.0 0 1 31.08 16.24
  L 21.60 16.58
  A 1.07 1.07 0.0 0 0 20.58 17.48
  L 19.07 26.88
  A 1.07 1.07 0.0 0 1 18.55 27.63
  L 10.25 32.41
  A 1.07 1.07 0.0 0 0 9.77 33.68
  L 12.80 42.78
  A 1.07 1.07 0.0 0 1 12.69 43.69
  L 7.63 51.62
  A 1.07 1.07 0.0 0 0 7.79 52.97
  L 14.68 59.66
  A 1.07 1.07 0.0 0 1 15.00 60.52
  L 14.18 69.95
  A 1.07 1.07 0.0 0 0 14.94 71.07
  L 24.15 73.77
  Z"
/>
<path fill="#ff0000" d="
  M 33.84 50.55
  L 33.71 40.85
  Q 33.70 40.13 34.41 40.21
  L 35.87 40.39
  Q 36.50 40.46 36.50 41.10
  L 36.50 54.21
  A 1.88 1.87 28.3 0 1 33.06 55.24
  L 26.35 45.11
  A 0.32 0.32 0.0 0 0 25.76 45.28
  Q 25.73 50.04 25.74 55.00
  Q 25.75 55.89 23.96 55.76
  A 1.04 1.03 2.1 0 1 23.00 54.73
  L 23.00 42.02
  A 1.93 1.92 28.0 0 1 26.52 40.95
  L 33.14 50.77
  A 0.38 0.38 0.0 0 0 33.84 50.55
  Z"
/>
<path fill="#ff0000" d="
  M 42.99 48.66
  L 43.04 52.94
  A 0.44 0.44 0.0 0 0 43.49 53.37
  L 51.36 53.20
  A 0.44 0.44 0.0 0 1 51.81 53.57
  L 52.06 55.25
  A 0.44 0.44 0.0 0 1 51.62 55.75
  L 40.86 55.75
  A 0.44 0.44 0.0 0 1 40.42 55.32
  L 40.20 40.98
  A 0.44 0.44 0.0 0 1 40.63 40.54
  L 51.57 40.43
  A 0.44 0.44 0.0 0 1 52.01 40.89
  L 51.96 42.33
  A 0.44 0.44 0.0 0 1 51.52 42.75
  L 43.45 42.75
  A 0.44 0.44 0.0 0 0 43.01 43.19
  L 43.01 45.85
  A 0.44 0.44 0.0 0 0 43.46 46.29
  L 50.80 46.17
  A 0.44 0.44 0.0 0 1 51.25 46.61
  L 51.25 47.87
  A 0.44 0.44 0.0 0 1 50.80 48.31
  L 43.43 48.22
  A 0.44 0.44 0.0 0 0 42.99 48.66
  Z"
/>
<path fill="#ff0000" d="
  M 68.62 50.97
  A 0.42 0.42 0.0 0 0 69.44 50.95
  Q 70.36 46.16 71.64 41.22
  Q 71.88 40.27 73.72 40.20
  A 0.92 0.92 0.0 0 1 74.63 41.37
  L 70.82 54.72
  A 1.77 1.76 45.3 0 1 67.42 54.70
  L 64.77 45.00
  A 0.35 0.35 0.0 0 0 64.10 44.99
  L 61.30 54.56
  A 1.89 1.89 0.0 0 1 57.66 54.53
  L 53.95 41.00
  A 0.55 0.54 -16.5 0 1 54.31 40.35
  C 55.90 39.85 56.76 40.66 57.11 42.20
  Q 58.16 46.84 59.28 51.30
  A 0.29 0.28 45.9 0 0 59.83 51.31
  L 62.56 41.46
  A 1.86 1.85 -44.6 0 1 66.14 41.48
  L 68.62 50.97
  Z"
/>
</svg>
