<?xml version="1.0" encoding="UTF-8" standalone="no"?>
<!DOCTYPE svg PUBLIC "-//W3C//DTD SVG 1.1//EN" "http://www.w3.org/Graphics/SVG/1.1/DTD/svg11.dtd">
<svg xmlns="http://www.w3.org/2000/svg" version="1.1" viewBox="0.00 0.00 88.00 89.00">
<path fill="#000000" d="
  M 26.83 7.13
  L 26.81 2.23
  A 2.34 2.34 0.0 0 1 30.39 0.23
  C 34.76 2.94 39.07 6.51 44.05 8.01
  A 1.59 1.57 43.4 0 0 45.00 7.99
  Q 49.90 6.36 50.75 1.24
  A 1.15 1.15 0.0 0 1 52.24 0.33
  Q 57.37 1.95 58.16 7.37
  Q 58.25 8.02 58.90 7.89
  L 64.32 6.79
  A 1.29 1.29 0.0 0 1 65.61 8.84
  C 63.28 11.92 61.04 14.21 61.55 18.49
  Q 62.22 23.98 62.91 29.45
  C 64.43 41.55 57.25 50.27 45.23 52.19
  Q 44.78 52.26 44.78 52.72
  L 44.69 69.44
  A 0.32 0.32 0.0 0 0 45.30 69.57
  Q 50.00 59.01 59.84 52.95
  Q 60.28 52.68 60.35 52.17
  C 61.34 44.89 68.16 40.83 75.07 43.43
  A 1.90 1.90 0.0 0 1 76.29 45.29
  C 76.01 51.92 69.19 59.88 62.08 55.00
  Q 61.63 54.69 61.16 54.99
  Q 44.09 66.18 44.71 86.94
  A 1.21 1.21 0.0 0 1 42.34 87.29
  C 38.15 71.80 27.06 60.31 12.28 53.95
  A 1.13 1.12 51.3 0 1 12.51 51.81
  Q 28.66 48.77 40.22 59.91
  A 1.12 1.11 -74.0 0 1 40.54 60.49
  Q 40.77 61.57 41.54 62.27
  A 0.38 0.37 21.7 0 0 42.17 62.00
  L 42.26 52.98
  Q 42.26 52.17 41.47 52.04
  C 30.90 50.26 22.41 42.23 23.78 30.99
  C 24.80 22.55 26.42 16.02 20.85 9.23
  A 1.28 1.28 0.0 0 1 21.97 7.14
  L 26.32 7.60
  A 0.47 0.46 2.2 0 0 26.83 7.13
  Z
  M 47.06 11.37
  C 41.35 10.87 34.32 6.18 29.98 2.69
  A 0.47 0.46 18.8 0 0 29.22 3.06
  L 29.33 7.65
  A 0.74 0.72 -82.5 0 0 29.85 8.34
  Q 38.01 10.66 38.65 19.06
  A 0.45 0.45 0.0 0 0 39.46 19.30
  Q 42.71 15.07 47.27 12.30
  A 0.50 0.50 0.0 0 0 47.06 11.37
  Z
  M 49.57 9.54
  L 55.26 8.91
  A 0.91 0.91 0.0 0 0 55.97 7.60
  L 53.92 3.57
  A 0.65 0.64 -50.1 0 0 52.73 3.68
  Q 51.79 6.70 49.19 8.51
  A 0.57 0.57 0.0 0 0 49.57 9.54
  Z
  M 26.45 35.66
  C 27.25 40.62 30.87 46.06 35.98 47.63
  Q 36.58 47.82 36.31 47.25
  Q 31.21 36.51 35.46 25.84
  Q 36.62 22.94 36.55 21.02
  Q 36.17 10.89 25.29 10.04
  A 0.46 0.46 0.0 0 0 24.86 10.74
  C 30.33 19.56 25.02 26.81 26.45 35.66
  Z
  M 60.81 10.20
  C 48.89 11.46 38.71 20.07 36.23 31.89
  A 0.35 0.35 0.0 0 0 36.88 32.12
  Q 41.51 22.98 50.95 18.65
  Q 51.74 18.29 52.25 18.51
  A 0.72 0.72 0.0 0 1 52.27 19.82
  C 41.73 24.83 29.96 37.44 40.81 48.84
  A 0.79 0.78 -36.4 0 0 41.77 48.98
  Q 53.27 42.36 56.11 29.40
  A 0.55 0.55 0.0 0 1 57.17 29.33
  Q 57.44 30.10 57.15 31.22
  Q 54.18 42.75 44.37 49.13
  A 0.48 0.47 20.6 0 0 44.76 49.98
  C 63.05 44.94 61.13 34.78 59.06 18.98
  Q 58.48 14.50 61.09 10.67
  Q 61.46 10.13 60.81 10.20
  Z
  M 68.30 51.11
  A 0.64 0.64 0.0 0 1 67.19 50.51
  L 68.68 46.22
  A 0.54 0.53 -3.5 0 0 67.94 45.57
  C 65.49 46.77 60.71 51.16 64.66 53.70
  A 1.40 1.38 -29.8 0 0 65.52 53.93
  C 68.49 53.78 75.80 49.53 73.39 45.80
  Q 72.64 44.64 70.55 45.28
  Q 70.02 45.44 70.03 45.99
  Q 70.03 48.83 68.30 51.11
  Z
  M 30.42 58.91
  Q 30.68 58.59 31.15 58.87
  Q 38.52 63.21 41.39 71.22
  Q 41.51 71.56 41.86 71.45
  Q 42.03 71.40 42.13 71.26
  Q 42.29 71.07 42.20 70.69
  C 39.63 58.86 30.01 54.04 18.76 53.57
  A 0.34 0.34 0.0 0 0 18.59 54.21
  C 28.64 59.76 36.12 67.29 41.36 77.46
  A 0.27 0.27 0.0 0 0 41.87 77.28
  Q 39.71 66.33 30.59 60.09
  Q 29.87 59.59 30.42 58.91
  Z"
/>
</svg>
