<?xml version="1.0" encoding="UTF-8" standalone="no"?>
<!DOCTYPE svg PUBLIC "-//W3C//DTD SVG 1.1//EN" "http://www.w3.org/Graphics/SVG/1.1/DTD/svg11.dtd">
<svg xmlns="http://www.w3.org/2000/svg" version="1.1" viewBox="0.00 0.00 84.00 85.00">
<path fill="#000000" d="
  M 13.69 30.37
  C 12.36 27.14 14.36 18.35 19.97 20.74
  C 23.74 22.34 24.31 27.76 23.14 31.26
  A 0.46 0.45 -14.6 0 0 23.91 31.71
  C 26.04 29.40 30.13 27.19 33.30 28.42
  C 36.12 29.51 36.92 32.35 35.59 35.03
  C 34.22 37.76 31.16 38.88 28.61 40.01
  Q 27.88 40.34 28.64 40.60
  C 41.24 44.97 35.45 57.06 26.83 50.95
  A 0.40 0.40 0.0 0 0 26.25 51.48
  L 33.58 64.26
  A 0.44 0.43 -53.4 0 0 34.38 64.14
  Q 37.15 51.85 43.86 41.21
  Q 44.17 40.72 43.89 40.22
  C 41.10 35.10 45.38 29.83 49.42 27.05
  A 0.46 0.45 22.7 0 0 49.08 26.23
  C 45.02 26.94 36.54 25.73 36.30 19.97
  C 35.99 12.56 45.99 13.69 50.73 15.79
  A 0.38 0.38 0.0 0 0 51.20 15.24
  Q 48.01 10.29 47.79 7.57
  C 47.30 1.41 52.42 -2.40 57.26 2.03
  C 59.96 4.51 60.62 7.96 61.18 11.46
  A 0.35 0.35 0.0 0 0 61.84 11.56
  L 62.93 9.40
  Q 63.22 8.83 63.82 8.60
  Q 64.74 8.26 65.26 9.15
  Q 65.44 9.46 65.30 9.79
  L 61.99 17.69
  A 1.27 1.26 0.1 0 0 63.64 19.34
  C 67.03 17.96 77.87 10.41 72.94 5.80
  A 1.36 1.36 0.0 0 0 71.98 5.45
  Q 70.23 5.54 68.75 6.53
  A 1.22 1.22 0.0 0 1 67.37 4.51
  C 72.06 1.30 78.20 4.03 76.22 10.24
  Q 74.57 15.39 70.13 18.17
  A 0.47 0.46 23.4 0 0 70.47 19.02
  C 74.89 18.14 83.73 19.81 83.22 26.16
  C 82.70 32.77 72.94 31.37 68.68 29.32
  A 0.35 0.34 -5.0 0 0 68.25 29.83
  C 70.58 33.15 72.86 38.23 71.14 42.04
  C 69.73 45.15 66.19 45.96 63.37 43.91
  Q 58.52 40.37 58.62 33.97
  A 0.61 0.61 0.0 0 0 57.44 33.75
  C 55.90 37.95 51.85 43.02 46.80 42.06
  A 0.90 0.88 -69.1 0 0 45.88 42.48
  Q 34.63 61.05 34.70 82.63
  Q 34.70 82.94 34.57 83.20
  Q 34.38 83.58 34.26 83.71
  A 1.29 1.17 -24.1 0 1 32.04 82.98
  L 33.13 68.92
  Q 33.16 68.50 32.95 68.13
  L 24.15 52.63
  A 0.37 0.37 0.0 0 0 23.46 52.86
  C 24.24 58.79 17.24 63.57 14.19 56.99
  A 1.05 1.05 0.0 0 1 15.86 55.78
  L 17.78 57.58
  Q 18.25 58.01 18.82 57.73
  C 23.06 55.62 20.60 47.23 18.93 44.30
  A 0.76 0.76 0.0 0 0 17.54 44.47
  L 15.40 52.09
  A 0.61 0.61 0.0 0 1 14.56 52.49
  L 13.60 52.04
  Q 13.07 51.80 13.22 51.24
  L 13.77 49.27
  A 0.40 0.39 -12.7 0 0 13.13 48.87
  C 0.96 59.27 -4.79 43.59 8.42 40.76
  A 0.34 0.33 49.7 0 0 8.47 40.12
  C -5.37 34.42 2.00 22.65 12.53 31.05
  Q 14.67 32.76 13.69 30.37
  Z
  M 58.89 17.89
  C 59.31 14.48 58.49 2.67 53.19 2.52
  A 2.71 2.70 6.2 0 0 50.45 4.72
  C 49.54 9.54 53.95 15.67 57.30 18.52
  A 0.97 0.97 0.0 0 0 58.89 17.89
  Z
  M 40.19 22.06
  Q 47.69 26.01 55.15 22.40
  A 0.78 0.78 0.0 0 0 55.27 21.06
  C 51.88 18.58 44.93 15.23 40.77 17.11
  C 38.51 18.13 37.77 20.79 40.19 22.06
  Z
  M 61.74 22.62
  A 1.95 1.95 0.0 0 0 59.79 20.67
  A 1.95 1.95 0.0 0 0 57.84 22.62
  A 1.95 1.95 0.0 0 0 59.79 24.57
  A 1.95 1.95 0.0 0 0 61.74 22.62
  Z
  M 64.51 24.49
  C 68.26 26.93 77.71 31.28 80.63 26.49
  Q 80.89 26.07 80.81 25.58
  C 79.81 19.58 68.35 21.15 64.74 22.46
  A 1.14 1.14 0.0 0 0 64.51 24.49
  Z
  M 18.12 23.01
  C 13.61 23.80 16.58 33.61 17.84 36.16
  A 0.64 0.63 46.8 0 0 18.96 36.20
  Q 22.03 30.76 20.72 24.75
  A 2.26 2.25 -11.2 0 0 18.12 23.01
  Z
  M 48.00 39.69
  C 53.21 39.09 56.71 31.21 57.51 26.62
  A 0.90 0.89 -7.6 0 0 56.25 25.66
  C 52.09 27.58 44.48 32.59 45.60 37.96
  A 2.20 2.18 -9.0 0 0 48.00 39.69
  Z
  M 65.56 42.50
  A 2.02 2.02 0.0 0 0 67.89 42.26
  C 72.28 38.38 65.37 29.39 62.37 26.85
  A 1.10 1.10 0.0 0 0 60.57 27.58
  C 60.14 32.25 60.87 39.84 65.56 42.50
  Z
  M 15.26 37.93
  C 13.49 34.78 8.65 30.17 5.05 30.59
  C 2.96 30.83 2.71 33.04 4.00 34.40
  Q 8.24 38.86 14.90 38.59
  A 0.45 0.44 74.1 0 0 15.26 37.93
  Z
  M 32.25 30.64
  C 28.23 30.07 23.82 34.55 21.76 37.52
  A 0.75 0.75 0.0 0 0 22.41 38.69
  C 25.83 38.56 32.94 36.88 33.71 32.65
  A 1.73 1.72 9.1 0 0 32.25 30.64
  Z
  M 19.84 40.29
  A 1.39 1.39 0.0 0 0 18.45 38.90
  A 1.39 1.39 0.0 0 0 17.06 40.29
  A 1.39 1.39 0.0 0 0 18.45 41.68
  A 1.39 1.39 0.0 0 0 19.84 40.29
  Z
  M 15.15 43.03
  A 0.74 0.74 0.0 0 0 15.25 42.27
  Q 14.83 41.29 13.78 41.84
  A 2.25 2.24 -61.0 0 1 12.84 42.11
  Q 7.35 42.47 3.67 46.40
  A 2.07 2.07 0.0 0 0 4.32 49.70
  C 7.87 51.31 12.92 45.91 15.15 43.03
  Z
  M 21.79 43.05
  C 23.43 45.33 30.36 52.77 33.46 49.01
  Q 33.77 48.63 33.72 48.15
  C 33.36 43.83 25.81 41.96 22.49 41.78
  A 0.81 0.80 -16.3 0 0 21.79 43.05
  Z"
/>
</svg>
