<svg width="9" height="8" viewBox="0 0 9 8" fill="none" xmlns="http://www.w3.org/2000/svg">
<path d="M1.01172 6.00024C0.813938 6.00024 0.620598 6.05889 0.456149 6.16877C0.2917 6.27866 0.163527 6.43483 0.0878397 6.61756C0.012152 6.80029 -0.0076513 7.00135 0.0309339 7.19533C0.0695191 7.38932 0.16476 7.5675 0.304612 7.70735C0.444465 7.8472 0.622648 7.94244 0.816629 7.98103C1.01061 8.01961 1.21168 7.99981 1.3944 7.92412C1.57713 7.84844 1.73331 7.72026 1.84319 7.55581C1.95307 7.39137 2.01172 7.19803 2.01172 7.00024C2.01146 6.73511 1.90602 6.48091 1.71854 6.29343C1.53106 6.10595 1.27686 6.00051 1.01172 6.00024Z" fill="#ff0000"/>
<path d="M1.01172 3.00024C0.879111 3.00024 0.751934 3.05292 0.658165 3.14669C0.564397 3.24046 0.511719 3.36764 0.511719 3.50024C0.511719 3.63285 0.564397 3.76003 0.658165 3.8538C0.751934 3.94757 0.879111 4.00024 1.01172 4.00024C1.8071 4.00111 2.56966 4.31746 3.13208 4.87988C3.6945 5.4423 4.01085 6.20486 4.01172 7.00024C4.01172 7.13285 4.0644 7.26003 4.15817 7.3538C4.25193 7.44757 4.37911 7.50024 4.51172 7.50024C4.64433 7.50024 4.7715 7.44757 4.86527 7.3538C4.95904 7.26003 5.01172 7.13285 5.01172 7.00024C5.01059 5.93972 4.5888 4.92297 3.8389 4.17306C3.089 3.42316 2.07224 3.00137 1.01172 3.00024Z" fill="#ff0000"/>
<path d="M1.01172 0.000244141C0.879111 0.000244141 0.751934 0.0529226 0.658165 0.146691C0.564397 0.240459 0.511719 0.367636 0.511719 0.500244C0.511719 0.632852 0.564397 0.760029 0.658165 0.853798C0.751934 0.947566 0.879111 1.00024 1.01172 1.00024C2.60248 1.00198 4.1276 1.63468 5.25244 2.75952C6.37728 3.88436 7.00998 5.40948 7.01172 7.00024C7.01172 7.13285 7.0644 7.26003 7.15817 7.3538C7.25193 7.44757 7.37911 7.50024 7.51172 7.50024C7.64433 7.50024 7.7715 7.44757 7.86527 7.3538C7.95904 7.26003 8.01172 7.13285 8.01172 7.00024C8.00956 5.14439 7.27136 3.36517 5.95908 2.05289C4.64679 0.7406 2.86757 0.00240772 1.01172 0.000244141Z" fill="#ff0000"/>
</svg>
