<svg width="113" height="149" viewBox="0 0 113 149" fill="none" xmlns="http://www.w3.org/2000/svg">
<path d="M74.0585 125.646C82.9927 120.443 97.4477 120.443 106.33 125.646C115.212 130.848 115.159 139.051 106.225 144.202C97.2909 149.353 82.836 149.405 73.9714 144.202C65.1069 138.999 65.1765 130.779 74.0585 125.646Z" fill="#F5F2E8"/>
<path d="M71.8296 138.063L52.6201 127.016L71.8296 115.969L91.0564 127.016L71.8296 138.063Z" fill="#F5F2E8"/>
<path d="M68.5202 34.3033C68.5202 34.3033 68.6073 33.2627 69.4084 33.5749C71.0862 34.611 72.6454 35.8264 74.0584 37.1995C74.4495 38.1947 74.9519 39.143 75.5561 40.0263C76.2876 40.8761 89.21 46.495 89.3668 46.9632C89.5235 47.4315 86.5106 51.2641 83.8808 50.0155C81.2511 48.7668 74.7898 43.5815 73.6752 43.2693C72.8545 43.1023 72.0701 42.7911 71.359 42.3502C70.7204 41.8329 70.1369 41.2518 69.6174 40.6159C68.7355 40.3595 67.8876 39.9985 67.0921 39.5407C67.0457 39.4642 67.0206 39.3767 67.0194 39.2873C67.0182 39.1979 67.0409 39.1098 67.0852 39.0321C67.1296 38.9544 67.194 38.8898 67.2717 38.8451C67.3495 38.8003 67.4377 38.7771 67.5275 38.7776C68.3887 38.9488 69.238 39.1747 70.0702 39.454L68.973 38.4828C68.973 38.4828 66.8309 37.4596 66.8135 37.0434C66.8353 36.8566 66.9111 36.6802 67.0317 36.5355C67.1523 36.3908 67.3124 36.2841 67.4927 36.2283C67.6843 36.2283 67.1095 35.9508 67.1444 35.4132C67.1792 34.8756 67.9803 34.6501 67.9803 34.6501L68.5202 34.3033Z" fill="#FEBFBF"/>
<path d="M73.8321 40.5985C73.8321 40.5985 72.6826 40.9974 72.404 39.5927C72.3409 38.5421 72.4468 37.4883 72.7175 36.471C72.7168 36.0968 72.67 35.724 72.5781 35.3611C72.3612 35.0885 72.208 34.7711 72.1297 34.4321C72.0513 34.0932 72.0499 33.7411 72.1254 33.4014C72.4214 32.3782 72.9961 33.5749 73.0658 33.6962C73.1354 33.8176 73.6753 34.8929 73.7276 35.1183C73.9922 35.921 74.2131 36.7372 74.3894 37.5636C74.459 38.0318 76.0961 40.4078 73.8321 40.5985Z" fill="#FEC7C6"/>
<path d="M58.6982 52.825L72.2128 45.0556V29.6035L58.6982 37.3729V52.825Z" fill="#C99A6B"/>
<path d="M58.6981 52.825L45.1836 45.0556V29.6035L58.6981 37.3729V52.825Z" fill="#AE835B"/>
<path d="M58.6981 37.3729L45.1836 29.6035L58.6981 21.8341L72.2127 29.6035L58.6981 37.3729Z" fill="#E8B687"/>
<path d="M64.7935 39.9743L66.9704 38.7256V32.6211L64.7935 33.8697V39.9743Z" fill="#D9AF84"/>
<path d="M64.7933 33.8697L51.2788 26.1003L53.4383 24.8517L66.9703 32.6211L64.7933 33.8697Z" fill="#EBCBAB"/>
<path d="M65.8034 33.2974L52.2715 25.5107L52.3934 25.4413L65.9253 33.228L65.8034 33.2974Z" fill="#D1A986"/>
<path d="M45.1836 29.6035L58.6981 37.3729L51.401 33.4882L45.1836 29.6035Z" fill="#87623F"/>
<path d="M100.461 39.9569C101.036 39.63 101.687 39.458 102.35 39.458C103.013 39.458 103.664 39.63 104.24 39.9569C105.143 40.4707 105.935 41.1585 106.569 41.9803C107.203 42.8021 107.666 43.7414 107.932 44.7434C108.123 45.4718 108.298 54.8367 108.298 54.8367C108.298 54.8367 107.235 57.6114 102.812 56.5709C98.3881 55.5304 100.461 39.9569 100.461 39.9569Z" fill="#FF7171"/>
<path d="M96.4201 125.299C95.0872 124.519 93.5911 124.056 92.0488 123.946C90.3072 123.946 90.4118 126.183 90.7252 127.189C91.0387 128.195 94.2084 130.762 94.2084 130.762L95.6887 132.218C96.3458 132.941 97.056 133.613 97.8134 134.23C98.2666 134.478 98.7713 134.619 99.2881 134.64C99.8048 134.661 100.319 134.562 100.791 134.352C101.767 133.953 101.958 133.745 102.011 133.658C102.42 132.33 102.42 130.91 102.011 129.582C101.366 127.657 96.4201 125.299 96.4201 125.299Z" fill="#5C6467"/>
<path d="M102.516 112.067C102.847 115.917 102.847 120.877 102.812 124.727C102.83 126.637 102.748 128.547 102.568 130.45C102.224 130.901 101.775 131.263 101.259 131.501C100.743 131.74 100.176 131.849 99.6074 131.82C98.9695 131.783 98.3438 131.63 97.7613 131.369C96.6076 130.9 95.5682 130.19 94.7136 129.288C94.6372 128.267 94.6957 127.241 94.8877 126.235C95.3663 122.482 95.3019 118.68 94.6962 114.945C93.7557 109.743 91.7878 101.869 91.7007 99.3373C91.7131 97.8766 91.8062 96.4176 91.9793 94.967C92.3625 90.8048 93.0243 85.5154 93.0243 85.5154L104.71 80.9197C104.91 84.3727 104.252 87.8216 102.794 90.9609C101.247 93.9268 100.599 97.2772 100.931 100.603C101.001 102.199 102.202 108.217 102.516 112.067Z" fill="#7282B5"/>
<g style="mix-blend-mode:multiply">
<path d="M97.7613 131.369C96.6076 130.9 95.5682 130.19 94.7136 129.288C94.6372 128.267 94.6957 127.241 94.8877 126.235C95.3663 122.482 95.3019 118.68 94.6962 114.945C93.7557 109.743 91.7878 101.869 91.7007 99.3372C91.7131 97.8765 91.8062 96.4175 91.9793 94.967C93.2436 93.7075 94.7637 92.7318 96.4377 92.1055C96.4377 92.1055 94.1737 99.5454 94.9748 104.106C95.776 108.667 97.2911 115.379 97.2214 119.853C97.1518 124.328 95.6192 128.316 97.2214 130.623C97.3782 130.866 97.5697 131.109 97.7613 131.369Z" fill="#E8D0C8"/>
</g>
<path d="M76.758 136.172C77.1586 137.074 77.6462 138.41 80.8333 139.207C84.0204 140.005 85.013 139.728 85.7097 140.005C86.4063 140.283 87.7473 141.011 88.1478 141.08C89.3984 141.355 90.6939 141.355 91.9444 141.08C92.2709 140.973 92.5711 140.798 92.826 140.568C93.0809 140.338 93.2849 140.058 93.4248 139.745C93.4375 139.641 93.4375 139.537 93.4248 139.433C93.5524 138.527 93.523 137.606 93.3377 136.71C93.0591 136.346 86.7372 132.912 86.7372 132.912C86.7372 132.912 81.5125 133.172 80.3631 133.155C79.283 133.093 78.2 133.21 77.1586 133.502C76.8149 133.935 76.6087 134.46 76.5665 135.011C76.5214 135.408 76.5877 135.81 76.758 136.172Z" fill="#5C6467"/>
<path d="M86.2497 133.415C85.2933 133.388 84.3393 133.523 83.4284 133.814C83.1856 134.034 82.9992 134.308 82.8847 134.614C82.7702 134.92 82.7309 135.249 82.7701 135.573C82.8093 135.897 82.9259 136.207 83.1101 136.478C83.2943 136.748 83.5407 136.97 83.8289 137.126C85.1176 137.924 88.6356 137.785 89.2104 137.855C89.9233 137.934 90.642 137.769 91.248 137.386C91.6137 137.005 88.9839 135.167 88.9839 135.167L86.2497 133.415Z" fill="#FEBFBF"/>
<path d="M76.7582 136.173C77.1588 137.074 77.6465 138.41 80.8335 139.207C84.0206 140.005 85.0133 139.728 85.7099 140.005C86.4065 140.283 87.7475 141.011 88.1481 141.08C89.3986 141.355 90.6942 141.355 91.9447 141.08C92.2711 140.973 92.5713 140.798 92.8262 140.568C93.0811 140.338 93.2851 140.058 93.425 139.745C93.2387 139.807 93.071 139.914 92.9374 140.057C92.0666 140.994 89.2279 140.82 88.27 140.508C87.2288 140.077 86.1217 139.825 84.9958 139.762C83.8638 139.591 82.7418 139.36 81.6346 139.069C80.2436 138.766 78.9322 138.175 77.7858 137.334C77.2045 136.701 76.8072 135.921 76.6364 135.08C76.582 135.449 76.624 135.825 76.7582 136.173Z" fill="#504F60"/>
<path d="M99.2419 90.8221C98.0402 92.8165 94.1565 95.678 94.0172 97.1174C93.0099 101.77 92.5829 106.529 92.7459 111.286C93.2858 116.269 93.5706 121.276 93.5992 126.287C93.5992 132.513 93.6863 137.057 93.6863 137.057C93.191 137.615 92.557 138.034 91.8479 138.272C91.1387 138.509 90.3793 138.557 89.6459 138.41C88.34 138.261 87.133 137.645 86.2498 136.675C85.8126 136.256 85.5199 135.71 85.4138 135.115C85.4138 134.248 84.4037 118.847 82.9756 111.529C81.5476 104.21 79.6492 90.3366 80.7813 85.1165C80.8094 84.9834 80.8563 84.8549 80.9206 84.735C82.8538 80.2259 100.217 86.4692 100.217 86.4692C100.332 87.9844 99.993 89.4995 99.2419 90.8221Z" fill="#7282B5"/>
<path d="M86.8245 137.126H86.3891C86.7125 129.74 86.1631 122.342 84.752 115.084C84.0032 110.332 83.1498 104.939 82.5054 97.9152C82.07 93.1634 81.8262 86.7641 81.8262 86.712H82.2616C82.2616 86.712 82.5054 93.1461 82.9408 97.8979C83.5852 104.835 84.4211 110.28 85.17 115.032C86.593 122.306 87.1483 129.722 86.8245 137.126Z" fill="#A0ABCD"/>
<g style="mix-blend-mode:multiply">
<path d="M86.2498 136.675C85.8126 136.256 85.5199 135.71 85.4138 135.115C85.4138 134.248 84.4037 118.847 82.9756 111.529C81.5476 104.21 79.6492 90.3366 80.7813 85.1165C80.8094 84.9834 80.8563 84.855 80.9206 84.735C81.3734 85.0125 81.8436 85.3246 82.3138 85.6715C81.6018 89.1714 81.4958 92.7668 82.0004 96.3024C82.8015 102.372 84.8391 114.668 85.1004 117.599C85.2397 120.131 85.8318 132.201 86.2498 136.675Z" fill="#E8D0C8"/>
</g>
<path d="M104.919 74.4509C105.076 76.3933 105.372 81.0411 104.554 82.3591C103.735 83.6771 102.812 83.9893 100.513 85.7235C96.5034 88.2451 91.8032 89.4577 87.0683 89.192C85.02 89.1228 83.0457 88.4129 81.4257 87.1629C80.8037 86.6925 80.2826 86.1028 79.8931 85.4287C80.7303 81.3442 81.2139 77.1957 81.3385 73.0289C81.1818 69.7685 80.2066 60.1955 80.3981 54.4378C80.3991 53.2712 80.5275 52.1082 80.7812 50.9693C81.8958 46.9112 86.006 44.6394 88.2874 42.697C91.2136 40.8336 94.5227 39.6482 97.9705 39.2285C100.091 39.0269 102.231 39.2873 104.24 39.9916C104.867 40.5292 107.061 42.5236 106.852 48.42C106.36 54.251 105.487 60.044 104.24 65.7624C103.526 69.8899 104.763 72.5086 104.919 74.4509Z" fill="#FF0000"/>
<g style="mix-blend-mode:multiply">
<path d="M83.6374 76.0637C83.2543 79.8617 81.6346 81.2664 81.4257 87.1629C80.8037 86.6924 80.2826 86.1028 79.8931 85.4286C80.7303 81.3441 81.2139 77.1956 81.3385 73.0288C81.1818 69.7684 80.2066 60.1954 80.3981 54.4377L80.7464 53.7614L88.1829 52.6688C88.1829 52.6688 83.9161 59.2069 83.6374 61.34C83.3588 63.4731 84.0554 71.7975 83.6374 76.0637Z" fill="#DEDEDE"/>
</g>
<path d="M98.4406 29.8462C97.9525 31.8761 97.6782 33.951 97.6221 36.0375C97.6645 37.0193 97.9713 37.9717 98.5103 38.7949C98.9283 39.2805 99.294 39.6273 99.294 39.6273C99.294 39.6273 99.1199 41.1361 95.2362 41.7951C91.3525 42.4542 89.5761 42.4715 89.0885 42.6102L88.6008 42.7316L89.1233 42.1247C89.1233 42.1247 88.566 37.8411 88.3918 37.3208C88.2177 36.8005 87.2947 37.2341 86.1626 37.0086C85.8209 36.978 85.5034 36.8197 85.274 36.5656C85.0446 36.3114 84.9203 35.9803 84.9261 35.6386C84.839 35.2397 84.3688 30.9388 84.334 30.592C84.1687 30.1829 83.9395 29.8024 83.6548 29.4647L84.2992 28.2854C83.9337 27.8894 83.7128 27.3823 83.6722 26.846C83.5958 25.0198 83.9539 23.2015 84.7171 21.5392C85.6053 20.464 91.5266 19.805 93.1463 20.2559C94.9608 21.0576 96.4611 22.4298 97.4174 24.1621C98.3737 25.8943 98.7332 27.8911 98.4406 29.8462Z" fill="#FEBFBF"/>
<path d="M84.7518 23.2041C84.9024 23.4039 84.982 23.648 84.9782 23.8978C84.9782 24.3834 84.5254 24.8516 84.5602 25.632C84.5951 26.4124 84.7518 27.7825 84.7518 27.7825C84.9502 27.7872 85.1422 27.8531 85.3013 27.9712C85.4604 28.0892 85.5787 28.2536 85.64 28.4415C85.8359 29.0083 85.993 29.5877 86.1103 30.1757V30.8694L86.772 31.0602C86.772 31.0602 86.9462 29.326 88.113 29.7595C88.7386 29.9187 89.3215 30.2124 89.821 30.6198C90.3204 31.0273 90.7242 31.5387 91.004 32.1181C91.6658 33.4881 91.84 34.4766 92.5366 34.9102C93.716 35.3321 94.9942 35.3985 96.2113 35.101C96.7195 34.9475 97.1969 34.7069 97.622 34.3899C98.7782 32.5968 99.6807 30.6535 100.304 28.6149C101.715 24.5221 100.844 22.1462 100.304 21.3485C99.685 20.7254 98.9358 20.2458 98.1096 19.9437C98.1096 19.9437 98.1096 18.2095 93.9821 17.2903C89.8546 16.3712 84.8911 20.0131 84.3338 20.6201C83.9355 21.2819 83.7137 22.034 83.6895 22.8052L84.7518 23.2041Z" fill="#754554"/>
<path d="M86.4759 26.2043C84.1254 25.7461 81.8002 25.1673 79.5096 24.4701C78.5692 24.0539 78.4473 23.7244 78.6737 22.3717C78.8841 21.2338 79.4088 20.1769 80.1888 19.3194C80.8685 18.6892 81.7376 18.2992 82.6619 18.2095C83.881 18.2095 89.2972 18.8685 90.9343 19.146C92.5714 19.4234 86.4759 26.2043 86.4759 26.2043Z" fill="#725E6D"/>
<path d="M100.809 26.8633C100.809 26.8633 99.6422 28.9791 94.6961 28.875C89.7501 28.771 84.0552 25.077 83.8984 23.8804C83.5888 22.7435 83.7063 21.5331 84.2289 20.4763C84.7515 19.4195 85.6434 18.5888 86.7372 18.1401C88.2329 17.3558 89.8719 16.8794 91.5564 16.7394C93.241 16.5994 94.9366 16.7985 96.5422 17.325C97.4611 17.6591 98.3031 18.1738 99.0183 18.8384C99.7334 19.503 100.307 20.3041 100.705 21.1939C101.103 22.0837 101.317 23.0442 101.335 24.0181C101.353 24.992 101.174 25.9596 100.809 26.8633Z" fill="#FF0000"/>
<path d="M87.2596 30.5053C87.1867 30.3139 87.1628 30.1074 87.1902 29.9045C87.2176 29.7016 87.2953 29.5088 87.4164 29.3433C87.8344 28.8057 89.0012 29.6208 89.158 31.0776C89.3147 32.5343 89.0535 33.6789 88.4439 34.0258C87.8344 34.3726 87.5209 33.3841 87.5209 33.3841C87.6999 32.916 87.7695 32.4135 87.7242 31.9146C87.6789 31.4158 87.52 30.9338 87.2596 30.5053Z" fill="url(#paint0_linear_960_84)"/>
<path d="M83.4803 46.3389C81.7211 47.143 80.0368 48.1006 78.4472 49.2004C72.0382 53.1718 70.5056 54.4898 68.7641 55.0274C67.9594 55.4086 67.2995 56.038 66.8823 56.822C66.4651 57.6061 66.3127 58.5033 66.4478 59.3804C66.5871 60.9932 66.4478 61.8777 70.2096 61.1146C73.9714 60.3515 83.8635 55.4436 86.8067 53.4146C90.4118 50.9346 87.6078 44.6046 83.4803 46.3389Z" fill="#FEBFBF"/>
<path d="M50.3035 41.0147C50.3035 41.0147 49.6243 40.0609 49.7985 39.9395C49.9726 39.8181 50.3906 39.055 51.1046 39.9395C52.0561 41.0465 53.0862 42.084 54.1872 43.0438C54.3091 43.0438 54.8316 42.3848 54.8316 42.3848C54.8316 42.3848 53.4905 40.7893 53.6821 39.8528C53.8737 38.9163 55.2147 39.5753 55.3192 39.8528C55.4237 40.1303 56.2074 41.6911 56.5906 42.2634C57.21 43.0277 57.7199 43.874 58.1057 44.778C58.3495 45.6451 58.3669 47.1713 58.872 47.7783C59.3771 48.3852 70.1225 55.5303 70.1225 55.5303C70.1225 55.5303 70.1225 63.4384 67.127 60.9932C64.1315 58.5479 55.9636 49.7726 55.5282 49.5298C55.0928 49.2871 51.6793 48.0557 51.4181 47.7956C51.0627 47.1229 50.7823 46.4134 50.5821 45.6798L50.0074 44.1537C49.7988 43.8662 49.6453 43.5429 49.5546 43.1999C49.5702 42.911 49.5702 42.6216 49.5546 42.3328C49.5546 42.3328 49.067 41.4136 49.5546 41.2228C49.7924 41.1167 50.0448 41.0465 50.3035 41.0147Z" fill="#FEBFBF"/>
<path d="M50.3037 41.0148L52.8464 44.1711L51.0352 42.5756L49.938 41.1015L50.3037 41.0148Z" fill="#FA9698"/>
<path d="M49.5723 42.3501L51.3661 44.7433L50.4605 43.9803L49.5723 42.7663V42.3501Z" fill="#FA9698"/>
<path d="M74.0587 51.7844C73.9369 52.5513 73.9745 53.3348 74.1693 54.0866C74.364 54.8383 74.7116 55.5422 75.1907 56.1547C76.0573 57.3516 77.096 58.4151 78.2733 59.311C78.2733 59.311 87.312 54.8194 88.235 52.6342C89.0187 50.7786 90.2204 47.3101 85.4485 45.8013C82.9929 44.9689 74.0587 51.7844 74.0587 51.7844Z" fill="#FF7171"/>
<path d="M6.32917 104.124C10.2848 102.124 14.6585 101.081 19.0949 101.081C23.5312 101.081 27.9049 102.124 31.8605 104.124C38.8268 108.164 38.8268 114.737 31.8605 118.813C27.9072 120.81 23.5366 121.851 19.1036 121.851C14.6705 121.851 10.3 120.81 6.3466 118.813C-0.828643 114.755 -0.741582 108.182 6.32917 104.124Z" fill="#F5F2E8"/>
<path d="M29.0043 112.916C25.5212 110.506 23.8667 110.679 23.8667 110.679C23.8667 110.679 19.5128 110.974 19.983 108.373C20.3662 106.153 20.9408 104.783 21.0802 103.829C21.0968 103.679 21.0968 103.528 21.0802 103.378C20.9583 97.7418 18.5375 88.5156 19.3386 84.1106C19.7414 80.6387 19.5767 77.1247 18.851 73.7052C18.8428 73.6245 18.8428 73.5431 18.851 73.4624C18.6942 72.4912 18.5375 71.5374 18.3808 70.6183C18.3906 70.526 18.3906 70.433 18.3808 70.3408C18.3808 69.7511 18.2066 69.1788 18.137 68.6065L18.0324 67.7568C18.0324 67.2018 17.9105 66.6642 17.8931 66.1613C17.8312 65.3879 17.8312 64.6108 17.8931 63.8374C17.9357 63.4089 18.0174 62.9852 18.137 62.5714C19.5476 57.6635 28.7605 56.3108 28.7605 56.3108C29.2695 62.0421 29.0707 67.814 28.1683 73.4971C26.4069 83.8173 25.3827 94.2489 25.1032 104.713C25.1032 106.344 27.2627 107.696 28.2728 108.286C29.7009 109.101 32.47 110.939 32.47 110.939C32.47 110.939 32.5049 115.327 29.0043 112.916Z" fill="#9C9EDB"/>
<g style="mix-blend-mode:multiply">
<path d="M20.6448 67.67C21.0261 72.0409 21.1425 76.4307 20.9931 80.8155C20.7145 87.0761 20.3313 86.5905 20.7841 91.0475C21.3744 95.117 21.7349 99.2162 21.8639 103.326C21.6201 104.765 20.2094 107.679 20.2616 109.569C20.0426 109.217 19.9677 108.795 20.0526 108.39C20.401 106.17 20.9583 104.8 21.0802 103.829C21.0968 103.679 21.0968 103.528 21.0802 103.378C20.9583 97.7417 18.5375 88.5155 19.3386 84.1106C19.7414 80.6386 19.5767 77.1246 18.851 73.7051C18.8428 73.6244 18.8428 73.5431 18.851 73.4623C18.6942 72.4912 18.5375 71.5373 18.3808 70.6182C18.3906 70.526 18.3906 70.4329 18.3808 70.3407C18.3808 69.7511 18.2066 69.1788 18.137 68.6065L18.0324 67.7567C18.0324 67.2017 17.9105 66.6641 17.8931 66.1612C17.8312 65.3878 17.8312 64.6107 17.8931 63.8373C19.5631 63.2283 21.3441 62.98 23.1178 63.1089C23.1479 63.6834 23.0634 64.2582 22.8691 64.7999C22.6748 65.3417 22.3746 65.8397 21.9858 66.2652C20.8712 67.774 20.6448 67.67 20.6448 67.67Z" fill="#E8D0C8"/>
</g>
<path d="M26.1308 106.725C26.9493 106.482 27.7678 107.644 28.3425 108.147C29.9153 109.033 31.4332 110.011 32.888 111.078C33.0809 111.574 33.1467 112.111 33.0796 112.639C32.5865 113.149 31.9537 113.503 31.26 113.657C30.5663 113.811 29.8425 113.758 29.1785 113.506C26.9667 112.708 26.1656 111.962 24.6852 111.598C23.2049 111.234 20.2965 110.644 19.9308 109.864C19.7295 108.717 19.7295 107.543 19.9308 106.396C19.9308 106.396 20.401 106.222 20.5752 106.534C21.0815 107.255 21.7904 107.81 22.6128 108.13C23.3466 108.295 24.1081 108.295 24.842 108.13C24.842 107.922 24.72 107.714 24.842 107.54C24.9647 107.416 25.1057 107.311 25.26 107.228C25.4441 107.074 25.6358 106.929 25.8347 106.794C25.9264 106.748 26.0279 106.724 26.1308 106.725Z" fill="#5C6467"/>
<path d="M22.3515 65.1034C21.781 65.7876 21.0518 66.3233 20.2268 66.6642C20.2268 66.6642 19.3387 83.6251 17.8061 87.3363C16.2735 91.0476 15.0021 104.679 15.0369 105.338C15.1137 107.787 16.1076 110.119 17.8235 111.876C20.4881 114.477 21.6549 114.98 21.6201 115.344C21.3327 116.062 20.7983 116.655 20.1124 117.017C19.4266 117.38 18.6339 117.487 17.8757 117.321C15.3678 116.905 14.6713 116.732 13.4522 115.448C12.2331 114.165 10.9443 113.298 10.7527 112.292C10.5611 111.286 11.4319 109.309 10.9094 107.419C10.9094 107.419 10.9095 107.193 10.8224 107.055C10.8308 107.015 10.8308 106.973 10.8224 106.933C10.8224 106.812 10.8224 106.656 10.7353 106.5C10.7353 106.066 10.596 105.563 10.5089 104.974C9.82805 100.229 9.50782 95.4409 9.55103 90.6487C10.3347 83.7118 11.1185 84.4401 10.8921 82.4805C10.6657 80.5208 7.40889 70.6876 7.63529 59.4151C7.63253 59.1541 7.69861 58.897 7.82689 58.6694C9.46397 55.4437 22.8392 58.6694 22.8392 58.6694C22.8392 58.6694 23.5532 63.5599 22.3515 65.1034Z" fill="#9C9EDB"/>
<path d="M12.0761 109.604C8.87165 94.7415 11.0312 87.5097 11.8323 84.787C11.9284 84.514 12.0098 84.2362 12.0761 83.9546C11.632 80.378 10.91 76.8411 9.91661 73.3757C9.51605 71.6414 9.15029 70.2194 9.01096 69.5083C8.73955 66.2204 8.68136 62.9185 8.83679 59.6232H9.27218C9.11747 62.8839 9.17565 66.1511 9.44635 69.4043C9.58568 70.1153 9.93402 71.5721 10.352 73.2543C11.6233 78.457 12.6857 82.9834 12.4941 84.0066C12.4316 84.3062 12.3502 84.6016 12.2503 84.891C11.4492 87.5964 9.32444 94.7415 12.4941 109.5L12.0761 109.604Z" fill="#B0B2FF"/>
<g style="mix-blend-mode:multiply">
<path d="M12.2851 114.338C11.6493 113.875 11.1647 113.236 10.8919 112.5C10.7003 111.494 11.5188 109.517 10.8919 107.627V107.471C10.8919 107.471 10.8918 107.245 10.8048 107.107C10.8132 107.067 10.8132 107.025 10.8048 106.985C10.8048 106.846 10.8048 106.708 10.7177 106.552C10.7177 106.118 10.5784 105.615 10.4913 105.026C9.81042 100.281 9.49024 95.4928 9.53345 90.7007C10.3172 83.7637 11.1008 84.4921 10.8744 82.5324C10.648 80.5727 7.39131 70.7396 7.61772 59.467C7.61495 59.2061 7.68098 58.9489 7.80926 58.7213L8.69748 58.9641C8.33717 62.0928 8.33717 65.2523 8.69748 68.381C9.30703 73.7051 11.7452 82.4804 11.7452 83.573C10.7547 86.8442 10.21 90.2332 10.1256 93.6489C10.1256 99.4933 11.8671 107.748 11.8671 108.928C11.5368 109.805 11.403 110.744 11.4752 111.679C11.5474 112.614 11.8238 113.521 12.2851 114.338Z" fill="#E8D0C8"/>
</g>
<path d="M17.4927 110.974C17.0421 110.853 16.5675 110.853 16.1169 110.974C15.5812 111.093 15.061 111.274 14.5669 111.512C14.0618 111.737 14.0444 111.928 14.0793 112.396C13.4349 112.084 11.6411 111.199 11.3624 110.523C11.2104 109.915 11.117 109.293 11.0838 108.667C10.9745 108.998 10.9158 109.343 10.9096 109.691C10.8225 110.506 10.631 112.587 10.6658 113.159C10.7006 113.731 13.6264 116.09 14.445 116.628C16.0161 118.041 18.076 118.793 20.1922 118.726C23.1354 118.83 22.9612 116.818 22.9438 116.35C21.8488 115.04 20.5906 113.875 19.1995 112.882C18.7464 112.466 18.3641 111.98 18.0675 111.442C17.9303 111.23 17.7291 111.066 17.4927 110.974Z" fill="#5C6467"/>
<path d="M23.0832 19.2847C23.0832 19.2847 25.0163 18.9379 27.4371 22.8572C29.131 25.8819 31.1896 28.689 33.5674 31.2163C36.023 33.6442 36.7196 34.0257 36.8241 35.5866C36.9286 37.1474 36.4236 40.0956 33.2017 38.899C29.9798 37.7023 26.2354 31.1989 24.8073 28.4935C23.3793 25.7881 10.6136 19.198 23.0832 19.2847Z" fill="#FEBFBF"/>
<path d="M33.4279 31.0949C31.9202 31.4377 30.4789 32.0235 29.161 32.8292C27.4195 34.0431 20.3487 19.2327 21.3066 18.9552C22.0554 18.84 22.8206 18.8923 23.5465 19.1083C24.2725 19.3242 24.9411 19.6985 25.5037 20.2039C26.7402 21.1924 33.4279 31.0949 33.4279 31.0949Z" fill="#EB66FF"/>
<path d="M13.9225 2.79213C13.8791 2.26468 13.6981 1.75768 13.3972 1.32143C13.0963 0.885191 12.6861 0.534871 12.2073 0.305238C11.7285 0.0756043 11.1978 -0.0253622 10.6677 0.0123587C10.1376 0.0500796 9.62656 0.225178 9.1854 0.520275C6.90396 1.64753 4.43094 5.58426 7.33935 11.8449C8.21134 13.6526 8.61998 15.6473 8.52881 17.6507C8.43764 19.6541 7.84951 21.6038 6.8169 23.3255C8.82072 23.0541 10.7439 22.3626 12.4596 21.2965C13.9399 19.9091 13.4697 18.6951 13.2781 14.3595C13.2618 10.4944 13.477 6.63174 13.9225 2.79213Z" fill="url(#paint1_linear_960_84)"/>
<path d="M29.5792 35.3265C29.6238 36.1321 29.4683 36.9362 29.1264 37.6677L28.9174 38.1186C28.6735 38.6215 28.3775 39.2112 28.064 39.9916C27.1932 42.2461 29.0219 55.9639 28.7432 56.9524C28.4646 57.941 28.1163 58.8428 23.8495 60.1261C19.0026 61.5213 13.8581 61.5213 9.01129 60.1261C8.52152 59.942 8.05417 59.7035 7.61806 59.4151C7.61806 59.4151 8.54108 49.7554 8.31467 46.1481C7.89179 43.5435 7.10634 41.0102 5.98098 38.6215L5.82425 38.24C5.09729 36.5489 4.48631 34.8107 3.99558 33.0373C2.25401 25.5627 5.05795 24.6782 7.3394 22.944C9.18036 21.5801 11.2951 20.6277 13.5394 20.1519C16.1729 19.4304 18.8758 18.9886 21.6028 18.8339C22.6303 18.9379 25.5736 20.412 26.8275 24.8517C27.9073 28.7017 29.0741 31.9447 29.4573 34.1819C29.5204 34.4966 29.5611 34.8153 29.5792 35.1357C29.5838 35.1992 29.5838 35.263 29.5792 35.3265Z" fill="#F370FF"/>
<g style="mix-blend-mode:multiply">
<path d="M29.5792 35.3265C29.6238 36.1321 29.4683 36.9362 29.1264 37.6677L28.9174 38.1186L26.3399 38.7429C24.9098 38.7529 23.4891 38.5122 22.1427 38.0319L24.0933 36.8353C22.6484 36.5569 21.2481 36.0843 19.931 35.4305C19.6785 35.142 19.4954 34.7998 19.3958 34.4302C19.2962 34.0605 19.2827 33.6731 19.3562 33.2974C21.2545 31.2163 26.4967 32.9159 29.4399 34.0952C29.503 34.4099 29.5437 34.7286 29.5618 35.049C29.5774 35.1406 29.5832 35.2336 29.5792 35.3265Z" fill="#E79BF2"/>
</g>
<g style="mix-blend-mode:multiply">
<path d="M28.7779 56.9698C28.4992 57.941 28.1509 58.8601 23.8841 60.1435C19.0373 61.5387 13.8928 61.5387 9.04598 60.1435C8.55621 59.9593 8.08881 59.7208 7.6527 59.4324C7.6527 59.4324 8.57572 49.7727 8.34931 46.1655C7.92643 43.5608 7.14098 41.0276 6.01562 38.6389C6.69484 35.0663 7.75718 32.413 9.27234 32.2569C13.8701 31.7713 9.39429 41.5524 15.6813 41.8299C21.4807 42.09 21.2195 39.8702 23.9886 39.4713C27.0712 39.0378 28.5341 38.795 29.2133 37.7371C28.9346 38.3614 28.5689 39.0378 28.1509 40.061C27.1931 42.2634 29.0217 55.9813 28.7779 56.9698Z" fill="white"/>
</g>
<g style="mix-blend-mode:multiply">
<path d="M21.6028 55.5824L10.7877 49.5819C10.7877 49.5819 9.32477 50.0849 9.15061 53.536C9.0287 55.8599 9.27249 58.2185 9.01126 60.1261C8.52149 59.942 8.05414 59.7035 7.61803 59.4151C7.61803 59.4151 8.54105 49.7554 8.31464 46.1481C7.85898 43.4093 7.02072 40.7475 5.82422 38.24C8.59331 35.2918 11.0489 32.9159 11.0489 32.9159C11.3756 35.0265 11.8233 37.1168 12.3899 39.1765C13.4 42.4369 19.3562 41.6044 21.6028 40.4252C20.2874 41.153 18.8372 41.6067 17.3402 41.7587C15.8432 41.9108 14.3308 41.758 12.895 41.3096C13.1329 43.1552 13.2028 45.0184 13.1039 46.8765L21.6028 55.5824Z" fill="#E79BF2"/>
</g>
<path d="M5.24927 25.3546C5.24927 25.3546 9.01105 24.1233 10.474 30.3145C11.9383 35.6185 12.5265 41.1243 12.2155 46.6164C15.4891 50.3165 19.3845 53.4208 23.7273 55.7905C24.5535 55.86 25.3581 56.0897 26.0958 56.4669C26.3222 56.779 29.4744 58.7387 29.5789 59.1549C30.4711 59.8527 31.4484 60.4354 32.4874 60.8892L32.8008 61.4961C32.9525 61.5514 33.0862 61.6469 33.1874 61.7721C33.2887 61.8974 33.3538 62.0478 33.3756 62.2072C33.3756 62.6928 32.8356 62.7448 32.8356 62.7448C32.8356 62.7448 33.0098 63.5426 32.4003 63.5946C31.3671 63.4142 30.3607 63.1054 29.4048 62.6754C29.4048 62.6754 29.2829 62.6754 29.2829 62.6754C29.2829 62.6754 30.1188 63.161 30.2407 63.5079C30.3626 63.8547 30.3452 64.6004 29.5441 64.2536C28.3361 63.6737 27.172 63.0071 26.061 62.2592C25.5037 61.8603 23.675 60.022 23.4835 59.866C22.952 58.9845 22.2178 58.2415 21.3414 57.6982C20.5562 57.2829 19.7479 56.9123 18.9206 56.5883C14.9846 54.9928 8.36667 50.8479 7.96611 48.8709C7.11274 44.6393 2.74145 30.7828 3.26391 27.4357C3.37639 26.9431 3.62017 26.4898 3.96957 26.1236C4.31896 25.7574 4.76102 25.4917 5.24927 25.3546Z" fill="#FEBFBF"/>
<path d="M8.57582 49.2697C9.69924 50.7138 11.0881 51.9321 12.6685 52.8596C15.5043 54.6248 18.4739 56.1672 21.5505 57.4727C21.7769 57.6287 22.8218 58.6866 22.8218 58.6866H23.5881L24.7027 58.0623L24.5982 58.4265L24.1454 59.0335C24.167 59.4054 24.2743 59.7674 24.4589 60.0914C24.7549 60.5076 25.974 61.8256 26.2004 62.1031C27.307 62.8733 28.4715 63.5575 29.6836 64.1495C29.7879 64.1827 29.8985 64.1922 30.007 64.1772C30.1155 64.1621 30.2193 64.1231 30.3106 64.0628C30.2235 64.2709 30.0145 64.3749 29.614 64.2015C28.4059 63.6216 27.2418 62.955 26.1308 62.2071C25.5735 61.8083 23.7449 59.97 23.5533 59.8139C23.0219 58.9324 22.2876 58.1894 21.4111 57.6461C20.6259 57.2308 19.8177 56.8603 18.9904 56.5362C15.5073 55.1141 9.86461 51.6803 8.38428 49.5992C8.45394 49.3044 8.52358 49.1656 8.57582 49.2697Z" fill="#FA9698"/>
<path d="M29.3353 62.6928L29.5443 62.8142L29.2656 62.6928L27.5241 60.9586L27.3848 60.6811L29.3527 62.4153C30.2434 62.8221 31.1785 63.1248 32.1392 63.3171C32.7662 63.3171 32.8707 63.3171 32.8707 62.9703C32.8319 62.7354 32.7226 62.5178 32.5572 62.346C32.4353 62.1725 30.9201 61.9818 30.6066 61.8083C30.2931 61.6349 28.8651 60.6984 28.8651 60.6984C28.8651 60.6984 29.8752 61.2707 30.746 61.6696C31.3307 61.9062 31.9465 62.058 32.5746 62.1205C32.7139 62.1205 32.9229 62.5194 32.9229 62.5194H33.219C33.274 62.452 33.3147 62.3743 33.3387 62.2908C33.3626 62.2073 33.3693 62.1199 33.3583 62.0338C33.3394 61.9595 33.3047 61.8902 33.2566 61.8304C33.2086 61.7705 33.1482 61.7216 33.0797 61.6869L30.8679 60.9412L29.5443 60.0741L30.9027 60.7678C30.9027 60.7678 32.6443 61.3921 32.9752 61.4615C33.1168 61.5198 33.24 61.6149 33.332 61.737C33.4239 61.859 33.4811 62.0035 33.4976 62.1552C33.4976 62.6408 32.9577 62.6928 32.9577 62.6928C32.9577 62.6928 33.1319 63.4905 32.5223 63.5426C31.4892 63.3622 30.4828 63.0534 29.5269 62.6234L29.3353 62.6928Z" fill="#FA9698"/>
<path d="M12.8777 47.4314C11.7805 46.7377 12.8777 47.6569 11.8676 47.6916C10.8575 47.7262 9.23779 47.5875 9.23779 47.5875L10.1434 47.3274C12.0765 46.9458 12.1985 46.6163 12.1985 46.6163L12.8951 47.4314H12.8777Z" fill="#FA9698"/>
<path d="M21.8116 61.0106C21.9222 60.6155 21.9749 60.2066 21.9683 59.7966C21.7812 59.2349 21.6643 58.6525 21.62 58.0624C21.6023 57.6472 21.7108 57.2363 21.9314 56.8835C22.1521 56.5308 22.4745 56.2526 22.8565 56.0853C23.7273 55.8078 24.3891 55.6171 24.9638 56.8484C25.5385 58.0797 23.5532 58.4959 23.5532 58.8428C23.5663 59.4227 23.5313 60.0028 23.4487 60.577C23.2223 61.1493 22.0206 62.0858 21.8116 61.0106Z" fill="#FEBFBF"/>
<path d="M20.1572 34.1299C20.0773 34.4252 20.0773 34.7364 20.1572 35.0317C21.0124 35.4207 21.9135 35.7004 22.8392 35.8641L25.7999 36.6272C25.7999 36.6272 23.4836 36.9567 23.0308 36.922C22.578 36.8873 21.4808 36.922 21.8117 37.6331C22.1426 38.3441 25.6954 37.8932 26.6881 37.8932C27.6808 37.8932 28.1161 37.477 29.3527 37.477C30.5892 37.477 33.6195 39.9743 34.9257 39.3673C35.729 38.8888 36.3316 38.1375 36.6228 37.2516C36.914 36.3658 36.8741 35.405 36.5105 34.5461C35.5352 32.8119 33.1667 33.5749 32.0521 33.5749C31.1006 33.5578 30.1587 33.3819 29.2656 33.0547C28.7693 32.8315 28.3769 32.4284 28.1684 31.9274C27.8057 31.5143 27.4097 31.1315 26.9842 30.7828C26.6184 30.4533 24.8769 29.0486 24.7201 28.8231C24.5634 28.5977 24.2847 28.1641 24.1628 28.0254C24.0409 27.8866 23.8145 27.5398 23.5185 27.8693C23.2572 28.1814 23.5184 28.4416 23.6055 28.9965C23.9205 29.5663 24.3399 30.0722 24.842 30.488L25.9392 31.5632C25.7518 31.7585 25.5086 31.8917 25.2426 31.9448H25.0859C24.6856 31.9653 24.2845 31.9653 23.8842 31.9448C22.4561 31.8234 20.401 31.5632 19.9657 31.6152C19.5303 31.6673 19.687 32.2222 19.7392 32.517C19.7565 32.5677 19.7565 32.6225 19.7392 32.6731C19.4432 32.6731 19.1994 33.02 19.1646 33.5576C19.1652 33.618 19.1796 33.6776 19.2068 33.7317C19.234 33.7857 19.2731 33.833 19.3213 33.8698C19.5731 34.026 19.8608 34.1155 20.1572 34.1299Z" fill="#FEBFBF"/>
<path d="M19.5129 13.8739C19.4661 16.1077 19.5417 18.3424 19.7393 20.568C20.018 22.4063 20.6275 23.4816 18.5551 24.1579C15.781 24.1976 13.1007 23.1586 11.0837 21.2617C10.927 21.0016 11.4146 20.6894 11.8326 19.25C12.3818 17.6622 12.6241 15.9851 12.5466 14.3074C12.5466 11.4806 12.6686 8.87927 12.6686 8.87927L19.5129 13.8739Z" fill="#FFADB7"/>
<path d="M19.7741 20.6894C19.2973 20.7158 18.8195 20.6571 18.3635 20.516C15.5421 19.805 14.7759 19.6662 13.9225 20.516C13.0691 21.3658 13.3826 22.2503 14.3405 23.2908C13.1137 22.8454 12.0014 22.1347 11.0837 21.2097C10.927 20.9669 11.4146 20.6374 11.8326 19.198C12.3851 17.6109 12.6275 15.9332 12.5466 14.2554V12.9027L19.6174 19.3367C19.6174 19.805 19.6174 20.2212 19.7393 20.5334C19.7425 20.5869 19.7542 20.6396 19.7741 20.6894Z" fill="url(#paint2_linear_960_84)"/>
<path d="M16.5872 0.398909C16.5872 0.398909 21.272 1.37008 22.4911 4.94262C23.7102 8.51515 23.5186 8.65389 23.4315 10.1453C23.6053 12.0641 23.5527 13.9965 23.2748 15.903C22.7175 18.2269 22.1776 20.2039 21.1152 20.5508C19.2707 20.536 17.4586 20.0657 15.8416 19.1819C14.2246 18.298 12.8531 17.0284 11.8501 15.4868C9.65574 11.3766 7.56588 7.596 9.2552 3.78068C9.97271 2.52802 11.0644 1.52917 12.3785 0.923073C13.6926 0.316975 15.1637 0.133757 16.5872 0.398909Z" fill="#FEBFBF"/>
<path d="M8.88919 4.05818C9.77739 1.7343 10.9268 1.2834 10.9268 1.2834C12.1142 0.351988 13.6215 -0.077738 15.124 0.0867771C17.6336 0.129795 20.0295 1.13631 21.8116 2.89624C23.5532 4.71719 22.7869 5.68837 22.7869 5.68837C22.7527 5.60425 22.7019 5.52785 22.6374 5.46371C22.5729 5.39957 22.4962 5.349 22.4117 5.31502C22.3272 5.28103 22.2367 5.26433 22.1456 5.26591C22.0544 5.26748 21.9646 5.2873 21.8813 5.32418C21.0976 5.63634 20.7667 6.24332 20.1397 6.46878C15.5768 8.08162 14.6712 6.86765 14.2881 8.94874C13.9049 11.0298 13.7133 11.8102 12.7555 11.4807C11.2403 10.9605 11.2926 11.29 10.5611 12.3132C10.8434 13.3214 11.1865 14.3117 11.5887 15.2787C11.5887 15.2787 11.5887 16.2499 9.84709 12.3999C9.05774 11.1749 8.56097 9.78593 8.39492 8.33985C8.22886 6.89376 8.39793 5.42902 8.88919 4.05818Z" fill="#FF6D67"/>
<path d="M12.181 12.0183C11.9956 11.6266 11.6773 11.3127 11.2823 11.1319C10.8872 10.951 10.4407 10.9149 10.0215 11.0297C8.50636 11.446 8.80243 13.1455 10.4047 14.6716C12.0069 16.1978 12.4248 14.3942 12.4945 14.2901C12.5642 14.1861 11.7979 13.0588 12.181 12.0183Z" fill="url(#paint3_linear_960_84)"/>
<path d="M11.6407 12.1917C11.6407 12.1917 10.9789 11.4113 10.3345 11.7582C9.34184 12.2784 10.7699 13.9086 10.9092 14.0994C11.0485 14.2902 11.78 14.2381 11.8671 13.7352C11.9542 13.2323 11.1356 12.8334 11.6407 12.1917Z" fill="url(#paint4_linear_960_84)"/>
<path d="M14.0443 10.1799C13.8125 11.1975 13.742 12.2449 13.8353 13.2842C13.913 14.303 13.7948 15.3272 13.487 16.3018C13.6374 15.3248 13.6374 14.3306 13.487 13.3536C13.1909 12.2784 12.6336 11.6194 12.7032 11.0991C12.7729 10.5788 14.0443 10.1799 14.0443 10.1799Z" fill="#FF6D67"/>
<path d="M25.295 31.9794H25.1382H25.8348L26.932 31.5459L25.6259 30.9389C25.014 30.3441 24.4328 29.719 23.8843 29.0659C23.7379 28.6705 23.6215 28.2647 23.536 27.8519C23.2747 28.1641 23.536 28.4242 23.6231 28.9792C23.938 29.5489 24.3574 30.0548 24.8596 30.4706L25.9568 31.5459C25.7858 31.7543 25.5548 31.9056 25.295 31.9794Z" fill="#FA9698"/>
<path d="M21.5679 33.0026C22.5083 33.1413 25.2252 33.3147 25.2252 33.3147L19.7915 32.517C19.8088 32.5676 19.8088 32.6224 19.7915 32.673C20.1921 32.8291 20.8713 32.8291 21.5679 33.0026Z" fill="#FA9698"/>
<path d="M19.3213 33.9044C19.5764 34.0485 19.8639 34.126 20.1572 34.1299C20.401 34.1299 21.4808 34.3553 22.3864 34.442L24.9291 34.7195C24.5286 34.7195 20.1572 33.9565 19.7044 33.9565C19.575 33.9559 19.4462 33.9384 19.3213 33.9044Z" fill="#FA9698"/>
<path d="M4.51794 25.1811C3.66115 25.9077 3.12877 26.943 3.0376 28.06C3.48659 31.6613 4.22035 35.2218 5.23199 38.7082C7.84433 39.003 11.9021 37.8064 11.9892 36.974C11.6968 34.0184 11.0538 31.1077 10.0735 28.3028C9.13309 25.8922 7.39152 23.9845 4.51794 25.1811Z" fill="#EB66FF"/>
<defs>
<linearGradient id="paint0_linear_960_84" x1="86.2488" y1="44.4444" x2="84.2634" y2="44.5241" gradientUnits="userSpaceOnUse">
<stop offset="0.12" stop-color="#FEB9B8"/>
<stop offset="1" stop-color="#FFDEDE"/>
</linearGradient>
<linearGradient id="paint1_linear_960_84" x1="9.13316" y1="19.3888" x2="10.9984" y2="-0.989949" gradientUnits="userSpaceOnUse">
<stop offset="0.12" stop-color="#F7413E"/>
<stop offset="0.99" stop-color="#FF6D67"/>
</linearGradient>
<linearGradient id="paint2_linear_960_84" x1="14.2011" y1="18.8858" x2="18.8964" y2="24.8362" gradientUnits="userSpaceOnUse">
<stop offset="0.12" stop-color="#FCA4B5"/>
<stop offset="0.99" stop-color="#FFADB7"/>
</linearGradient>
<linearGradient id="paint3_linear_960_84" x1="12.9125" y1="13.9086" x2="8.14748" y2="11.7431" gradientUnits="userSpaceOnUse">
<stop offset="0.12" stop-color="#FEB9B8"/>
<stop offset="1" stop-color="#FFDEDE"/>
</linearGradient>
<linearGradient id="paint4_linear_960_84" x1="10.5261" y1="12.1917" x2="11.8601" y2="13.8968" gradientUnits="userSpaceOnUse">
<stop offset="0.12" stop-color="#FCA4B5"/>
<stop offset="0.99" stop-color="#FFADB7"/>
</linearGradient>
</defs>
</svg>
