<svg width="21" height="19" viewBox="0 0 21 19" fill="none" xmlns="http://www.w3.org/2000/svg">
<path d="M10.1303 2.56682L10.6032 3.12226L11.0762 2.56682C12.0908 1.37541 13.6491 0.621253 15.2626 0.621253C18.1086 0.621253 20.3362 2.84883 20.3362 5.69482C20.3362 7.4477 19.5535 9.08675 18.0498 10.9251C16.539 12.7722 14.366 14.744 11.6873 17.173L11.6864 17.1738L10.6017 18.1613L9.5197 17.1838L9.51836 17.1826L9.5122 17.177C6.83679 14.7458 4.66635 12.7734 3.15681 10.9266C1.653 9.08678 0.870277 7.44771 0.870277 5.69482C0.870277 2.84883 3.09785 0.621253 5.94385 0.621253C7.55737 0.621253 9.1157 1.37541 10.1303 2.56682Z" stroke="black" stroke-width="1.24251"/>
</svg>
