<svg width="84" height="108" viewBox="0 0 84 108" fill="none" xmlns="http://www.w3.org/2000/svg">
<path d="M50.8438 5.93677C48.9564 5.24522 46.9482 4.93114 44.934 5.01244C42.9198 5.09374 40.9389 5.56894 39.1044 6.41083C37.2699 7.25272 35.618 8.44477 34.243 9.91886C32.8677 11.3931 31.7964 13.1204 31.0903 15.0022L29.6238 18.9065L25.7074 17.4725C21.8957 16.0768 17.6731 16.2478 13.9686 17.948C10.264 19.6481 7.38103 22.738 5.95374 26.538C4.52646 30.338 4.67184 34.5368 6.3579 38.2107C8.04396 41.8847 11.1326 44.7327 14.9443 46.1284L18.8606 47.5623L47.6049 58.0874L58.368 29.4313L59.8343 25.5272C60.5415 23.6457 60.87 21.6464 60.8008 19.6434C60.7317 17.6404 60.2664 15.6731 59.4315 13.8539C58.5966 12.0346 57.4084 10.399 55.935 9.0406C54.4615 7.68214 52.7314 6.62749 50.8438 5.93677Z" fill="url(#paint0_linear_1418_245)"/>
<path d="M79.5512 82.9108C79.3611 81.6873 78.9315 80.5113 78.2871 79.4499C77.6426 78.3886 76.7957 77.4626 75.7949 76.7249C74.7941 75.9872 73.659 75.4523 72.4544 75.1508C71.2497 74.8492 69.9992 74.7868 68.7745 74.9674L66.2328 75.3413L65.8378 72.8028C65.4533 70.3322 64.102 68.1073 62.0809 66.6176C60.0599 65.1279 57.5347 64.4955 55.0609 64.8594C52.5872 65.2233 50.3674 66.5538 48.8901 68.5581C47.4127 70.5625 46.7987 73.0765 47.1831 75.5472L47.5782 78.0856L50.4771 96.7169L69.1319 93.9725L71.6734 93.5986C72.8984 93.4187 74.0739 92.9995 75.1329 92.3649C76.1918 91.7303 77.1134 90.8929 77.845 89.9004C78.5766 88.9079 79.1038 87.7797 79.3965 86.5804C79.6893 85.3812 79.7418 84.1342 79.5512 82.9108Z" fill="url(#paint1_linear_1418_245)"/>
<defs>
<linearGradient id="paint0_linear_1418_245" x1="6.7606" y1="24.9594" x2="61.1575" y2="48.6257" gradientUnits="userSpaceOnUse">
<stop stop-color="#A10101"/>
<stop offset="1" stop-color="#FA0101"/>
</linearGradient>
<linearGradient id="paint1_linear_1418_245" x1="56.1524" y1="64.8235" x2="59.6183" y2="101.2" gradientUnits="userSpaceOnUse">
<stop stop-color="#A10101"/>
<stop offset="1" stop-color="#FA0101"/>
</linearGradient>
</defs>
</svg>
