<svg width="91" height="60" viewBox="0 0 91 60" fill="none" xmlns="http://www.w3.org/2000/svg">
<path d="M82.8655 20.5715C82.4967 20.0447 81.8909 19.7286 81.2587 19.7286H66.9825V13.4861C66.9825 12.4061 66.0869 11.5106 65.007 11.5106H28.6052C27.2355 4.95191 21.4144 0 14.4606 0C6.47963 0 0 6.47963 0 14.4606C0 21.6778 5.32067 27.6833 12.2481 28.7369V49.9669C12.2481 51.0468 13.1436 51.9424 14.2236 51.9424H20.8349C21.9148 56.0514 25.6288 59.0805 30.0539 59.0805C34.479 59.0805 38.2193 56.0514 39.2729 51.9424H64.7436C65.8235 56.0514 69.5375 59.0805 73.9626 59.0805C78.3877 59.0805 82.128 56.0514 83.1816 51.9424H88.0808C89.1607 51.9424 90.0563 51.0468 90.0563 49.9669V31.3445C90.0563 30.9231 89.9246 30.528 89.6875 30.2119L82.8655 20.5715ZM86.1316 32.003V32.3191H75.3849V23.6796H80.2315L86.1316 32.003ZM3.95099 14.4606C3.95099 8.66584 8.66584 3.95099 14.4606 3.95099C20.2554 3.95099 24.9703 8.66584 24.9703 14.4606C24.9703 20.2554 20.2554 24.9703 14.4606 24.9703C8.66584 24.9703 3.95099 20.2554 3.95099 14.4606ZM16.2254 28.8159C23.0475 27.973 28.3945 22.389 28.8686 15.4879H63.0315V48.0441H39.4836C38.7461 43.5136 34.7951 40.0631 30.0802 40.0631C25.3654 40.0631 21.4144 43.5136 20.6769 48.0441H16.2254V28.8159ZM30.0802 55.1295C26.9984 55.1295 24.4962 52.6272 24.4962 49.5454C24.4962 46.4637 26.9984 43.9614 30.0802 43.9614C33.162 43.9614 35.6643 46.4637 35.6643 49.5454C35.6643 52.6272 33.1357 55.1295 30.0802 55.1295ZM73.9889 55.1295C70.9071 55.1295 68.4048 52.6272 68.4048 49.5454C68.4048 46.4637 70.9071 43.9614 73.9889 43.9614C77.0707 43.9614 79.573 46.4637 79.573 49.5454C79.573 52.6272 77.0707 55.1295 73.9889 55.1295ZM83.3923 48.0177C82.6548 43.4873 78.7038 40.0367 73.9889 40.0367C71.2232 40.0367 68.7209 41.222 66.9825 43.1185V23.706H71.4339V34.2946C71.4339 35.3745 72.3295 36.2701 73.4094 36.2701H86.1316V47.9914H83.3923V48.0177Z" fill="black" fill-opacity="0.5"/>
<path d="M16.4362 18.991V16.4361H18.9912C20.0711 16.4361 20.9666 15.5405 20.9666 14.4606C20.9666 13.3806 20.0711 12.4851 18.9912 12.4851H16.4362V9.93009C16.4362 8.85015 15.5406 7.95459 14.4607 7.95459C13.3807 7.95459 12.4852 8.85015 12.4852 9.93009V12.4851H9.93021C8.85027 12.4851 7.95471 13.3806 7.95471 14.4606C7.95471 15.5405 8.85027 16.4361 9.93021 16.4361H12.4852V18.991C12.4852 20.071 13.3807 20.9665 14.4607 20.9665C15.5406 20.9665 16.4362 20.0973 16.4362 18.991Z" fill="black" fill-opacity="0.5"/>
</svg>
