<svg width="144" height="144" viewBox="0 0 144 144" fill="none" xmlns="http://www.w3.org/2000/svg">
<g clip-path="url(#clip0_493_185)">
<path d="M90.3103 8.06169L50.6332 54.316L29.3682 65.9002C27.404 66.9687 25.9749 68.7635 25.3699 70.915C24.3057 74.6978 26.1403 77.2314 27.2094 79.0832C21.8385 82.1844 20.6879 88.3357 23.2898 92.8423C25.8759 97.3216 31.7627 99.4466 37.1654 96.3274L38.3072 98.3051C40.5462 102.183 45.5524 103.569 49.4667 101.394L52.224 99.8629L60.562 118.364C63.0348 123.851 69.7268 126.027 74.9593 123.006L74.9785 122.995C79.5331 120.365 81.3379 114.767 79.1772 109.972L77.5018 106.254C86.0146 103.474 90.3416 94.2502 87.4299 86.0621L130.286 77.1788C132.566 76.7061 133.739 74.1326 132.564 72.0972L95.8929 8.58077C94.7089 6.53049 91.8506 6.26606 90.3103 8.06169ZM34.039 90.9123C31.6936 92.2664 29.6019 91.2695 28.7049 89.7159C27.8039 88.1552 27.9949 85.8499 30.3359 84.4983L34.039 90.9123ZM73.4767 112.541C74.3126 114.396 73.6141 116.562 71.8522 117.579L71.833 117.59C69.8162 118.755 67.2231 117.926 66.2626 115.794L57.7093 96.8153L64.3807 93.1092L73.4767 112.541ZM64.9673 84.9237L46.1301 95.3881C45.4732 95.7531 44.6331 95.5204 44.2574 94.8696L32.1179 73.8434C31.7429 73.1939 31.9502 72.3404 32.6251 71.9507L51.5309 61.6511L64.9673 84.9237ZM74.9542 99.8494L70.3136 89.6344C70.3136 89.6344 75.9677 88.4376 80.5908 87.4792C82.9787 92.4229 80.3042 98.3863 74.9542 99.8494ZM124.237 71.4159C122.268 71.8242 73.335 81.9669 71.4225 82.3632L57.022 57.4209L92.3674 16.2163L124.237 71.4159Z" fill="black"/>
<path d="M79.947 47.6392L67.6918 54.7147C66.0487 55.6634 65.4859 57.7645 66.4344 59.4074C67.383 61.0503 69.4842 61.6134 71.1271 60.6648L83.3823 53.5893C85.0254 52.6406 85.5883 50.5395 84.6397 48.8966C83.6912 47.2537 81.5901 46.6905 79.947 47.6392Z" fill="black"/>
<path d="M86.1001 58.2964L73.8449 65.372C72.2018 66.3206 71.639 68.4217 72.5875 70.0646C73.5361 71.7076 75.6373 72.2706 77.2802 71.322L89.5354 64.2465C91.1785 63.2978 91.7413 61.1967 90.7928 59.5538C89.8442 57.9109 87.7432 57.3478 86.1001 58.2964Z" fill="black"/>
</g>
<defs>
<clipPath id="clip0_493_185">
<rect width="105.007" height="105.007" fill="white" transform="translate(0 52.5034) rotate(-30)"/>
</clipPath>
</defs>
</svg>
