<svg width="248" height="168" viewBox="0 0 248 168" fill="none" xmlns="http://www.w3.org/2000/svg">
<g clip-path="url(#clip0_1110_190)">
<path d="M248.022 165.505C248.022 166.885 221.794 168 189.444 168C157.094 168 130.861 166.896 130.861 165.505C130.861 164.115 157.089 163.011 189.444 163.011C221.8 163.011 248.022 164.131 248.022 165.505Z" fill="#F5F2E8"/>
<path d="M181.52 13.7861C181.52 13.7861 181.295 16.6174 182.3 17.6495C183.47 18.825 180.428 24.8684 174.118 20.9609C167.808 17.0534 181.52 13.7861 181.52 13.7861Z" fill="#01112C"/>
<path d="M181.663 27.3026C180.049 30.029 176.787 34.9244 176.787 34.9244L172.844 30.5423C173.004 30.4306 173.131 30.2783 173.213 30.1008C173.295 29.9233 173.329 29.7271 173.311 29.5323C173.311 29.2232 173.261 28.881 173.212 28.5223C172.766 25.9103 172.156 23.3295 171.383 20.7956L176.43 18.0803L178.335 17.0537C178.335 17.0537 178.335 17.3628 178.335 17.8761C178.411 19.8025 178.708 21.7137 179.22 23.5717C179.736 25.1998 180.477 26.6624 181.663 27.3026Z" fill="#EEA1A8"/>
<path d="M179.247 23.5717C177.835 25.3488 175.628 27.6723 173.206 28.5388C172.761 25.9268 172.15 23.346 171.377 20.8122L176.424 18.0968L178.357 17.8926C178.436 19.8137 178.734 21.7193 179.247 23.5717Z" fill="#E07E8E"/>
<path d="M166.748 16.6898C166.331 17.7936 164.552 18.0971 162.811 17.4128C161.07 16.7284 159.966 15.2935 160.389 14.2117C160.812 13.13 162.586 12.7988 164.327 13.4887C166.067 14.1786 167.193 15.608 166.748 16.6898Z" fill="#E07E8E"/>
<path d="M162.954 14.8738C162.954 14.8738 161.707 12.8152 162.404 9.12298C163.102 5.43073 162.465 8.91325 162.465 8.91325L165.018 9.29958L162.954 14.8738Z" fill="#01112C"/>
<path d="M180.834 13.6647C180.543 20.7347 175.09 25.746 170.021 25.5307C164.953 25.3155 162.635 20.0558 162.91 12.9859C163.038 10.2016 163.898 7.50113 165.403 5.15988C167.259 2.27894 169.862 0.402466 172.18 0.501809C176.792 0.694976 180.417 5.59037 180.812 11.7827C180.855 12.4092 180.862 13.0375 180.834 13.6647Z" fill="#EEA1A8"/>
<path d="M176.787 11.4518L176.562 11.4132C176.562 11.4132 168.945 14.3825 162.904 12.9696C163.032 10.1852 163.893 7.4848 165.397 5.14355L175.31 7.29047L176.787 11.4518Z" fill="#E07E8E"/>
<path d="M174.65 9.2998C174.65 9.92346 175.672 13.0914 179.329 15.1224H181.301L181.52 12.2194L174.65 9.2998Z" fill="#01112C"/>
<path d="M184.81 14.7968C185.035 15.9393 183.711 17.1535 181.861 17.5177C180.01 17.882 178.335 17.2473 178.11 16.1048C177.885 14.9624 179.208 13.7427 181.059 13.3839C182.909 13.0252 184.59 13.6544 184.81 14.7968Z" fill="#EEA1A8"/>
<path d="M181.521 12.2192L162.383 9.12306C163.915 3.67023 167.254 -0.375234 173.174 0.0276568C179.796 0.480219 181.092 5.55223 181.521 12.2192Z" fill="#FF4C4C"/>
<path d="M175.88 11.3032C176.561 11.4301 170.356 8.4995 165.178 7.40673C162.382 6.82171 153.706 8.51054 154.074 9.35496C154.442 10.1994 169.615 11.4191 175.88 11.3032Z" fill="#FF0000"/>
<path d="M236.643 130.118L231.322 126.751L228.472 133.617L232.997 137.353L237.489 131.216L236.643 130.118Z" fill="#EEA1A8"/>
<path d="M244.974 131.707L244.304 135.338L243.662 136L243.508 137.656C243.508 137.656 239.664 154.213 237.324 153.722C236.989 153.652 236.66 153.553 236.341 153.424C233.25 152.155 234.041 148.634 234.749 145.146C235.523 141.343 232.816 137.038 232.816 137.038L236.66 130.117C238.947 130.238 241.217 130.584 243.436 131.149C243.962 131.298 244.475 131.484 244.974 131.707Z" fill="#5C6467"/>
<path d="M244.974 131.706L244.304 135.338L243.662 136L243.508 137.656C243.508 137.656 239.664 154.213 237.325 153.722C236.989 153.652 236.66 153.552 236.342 153.424C237.715 150.151 242.135 139.389 242.058 136.447C242.709 134.74 243.165 132.964 243.42 131.154C243.951 131.3 244.47 131.485 244.974 131.706Z" fill="#504F60"/>
<path d="M161.092 157.1L163.838 149.246L156.073 147.618L154.14 153.38L161.092 157.1Z" fill="#EEA1A8"/>
<path d="M161.092 157.1C161.015 159.442 160.702 161.77 160.159 164.048C160.026 164.544 159.861 165.031 159.664 165.505L156.04 164.893L155.562 164.164L153.728 164.137C153.728 164.137 137.182 160.538 137.633 158.204C137.69 157.917 137.767 157.635 137.863 157.359C139.016 154.048 142.586 154.804 146.1 155.461C149.9 156.173 154.134 153.38 154.134 153.38L161.092 157.1Z" fill="#5C6467"/>
<path d="M160.159 164.048C160.026 164.545 159.861 165.031 159.664 165.506L156.04 164.893L155.562 164.164L153.728 164.137C153.728 164.137 137.182 160.538 137.633 158.204C137.69 157.917 137.767 157.635 137.863 157.359C141.065 158.987 149.269 163.005 155.842 162.658C155.837 162.658 157.232 163.833 160.159 164.048Z" fill="#504F60"/>
<path d="M177.017 68.1599C177.017 68.1599 154.782 149.141 154.035 149.897C153.288 150.653 164.315 153.38 164.315 153.38L186.764 86.8143C186.764 86.8143 194.079 107.908 200.054 113.615C206.028 119.321 229.159 137.38 229.159 137.38L233.667 127.446C233.667 127.446 212.25 110.977 208.588 105.182C204.925 99.3867 198.066 64.291 198.066 64.291L177.017 68.1599Z" fill="#7282B5"/>
<path d="M184.508 64.7168C184.112 65.5723 184.508 81.6879 184.508 81.6879" stroke="#A9D2D8" stroke-miterlimit="10"/>
<path d="M187.88 64.7168C187.808 64.9265 188.692 77.5652 184.42 76.9581" stroke="#A9D2D8" stroke-miterlimit="10"/>
<path d="M195.754 64.7168C195.754 64.7168 202.081 101.06 207.336 107.214C213.113 113.996 231.817 128.004 231.817 128.004" stroke="#A9D2D8" stroke-miterlimit="10"/>
<path d="M232.421 127.054L228.467 135.945" stroke="#A9D2D8" stroke-miterlimit="10"/>
<path d="M154.804 148.391L164.777 151.283" stroke="#A9D2D8" stroke-miterlimit="10"/>
<path d="M172.542 45.2895C172.542 45.2895 170.482 48.91 167.88 52.8562C167.182 53.9158 166.452 54.9976 165.683 56.0351C165.134 56.7692 164.623 57.4922 164.096 58.1655C162.229 60.5608 160.433 62.4152 159.154 62.7353C155.216 63.7508 134.349 52.7403 134.349 52.7403L137.88 46.2609C137.88 46.2609 155.419 53.1652 156.441 52.961C156.825 52.8893 157.759 52.4422 158.868 50.7534C158.934 50.6596 158.994 50.5602 159.06 50.4609C160.071 48.91 161.196 47.006 162.163 45.1681C162.864 43.8604 163.485 42.5113 164.025 41.1282C165.617 36.8233 167.253 34.9082 167.253 34.9082L172.542 45.2895Z" fill="#EEA1A8"/>
<path d="M167.879 52.8671C167.182 53.9268 166.452 55.0085 165.683 56.0461C165.134 56.7801 164.623 57.5031 164.096 58.1764L159.06 50.4773C160.07 48.9265 161.196 47.0224 162.163 45.1846L167.879 52.8671Z" fill="#E07E8E"/>
<path d="M174.651 47.1329C172.603 50.9381 170.343 54.6234 167.88 58.171C165.87 56.6202 160.109 50.919 158.094 49.3405C159.939 46.581 161.795 43.987 163.475 40.7915C164.509 38.6918 165.779 36.7179 167.259 34.9082L174.651 47.1329Z" fill="#FF4C4C"/>
<path d="M146.166 100.232H112.202L112.679 93.2224L114.717 63.1602H144.277L145.128 79.927L146.166 100.232Z" fill="#FF0000"/>
<path d="M129.725 82.8686C135.281 82.8686 139.785 80.704 139.785 78.0339C139.785 75.3638 135.281 73.1992 129.725 73.1992C124.169 73.1992 119.665 75.3638 119.665 78.0339C119.665 80.704 124.169 82.8686 129.725 82.8686Z" fill="#FFECF3"/>
<path d="M146.166 100.231H112.202L112.679 93.2222C126.095 93.8403 137.94 85.9756 145.134 79.9268L146.166 100.231Z" fill="#FF4C4C"/>
<path d="M137.578 65.4454C137.578 65.4454 134.256 48.9655 129.214 49.1918" stroke="#01112C" stroke-width="3" stroke-linecap="round" stroke-linejoin="round"/>
<path d="M138.033 46.2548L136.468 49.7042C136.401 50.2887 136.211 50.8522 135.911 51.3574C135.611 51.8627 135.208 52.2981 134.727 52.6349C131.943 53.2806 130.406 52.5686 130.406 52.5686C130.406 52.5686 127.034 53.5621 126.221 52.2927L126.051 52.254C125.908 52.2262 125.767 52.1912 125.628 52.1492C122.037 51.1226 124.03 47.9381 126.144 43.6443C128.363 39.1573 138.033 46.2548 138.033 46.2548Z" fill="#EEA1A8"/>
<path d="M131.268 47.8332C129.533 48.9701 126.913 50.2119 126.051 52.2485C125.908 52.2207 125.767 52.1857 125.628 52.1436C125.99 51.3171 126.534 50.5847 127.221 50.0022H126.551C126.17 50.0545 125.784 50.0395 125.408 49.958C125.376 49.9458 125.348 49.9239 125.329 49.8953C125.309 49.8667 125.298 49.8327 125.298 49.798C125.298 49.7632 125.309 49.7293 125.329 49.7007C125.348 49.6721 125.376 49.6502 125.408 49.6379C125.81 49.5329 126.23 49.516 126.639 49.5883C126.963 49.5883 127.27 49.6379 127.589 49.6821C127.896 49.4337 128.226 49.2019 128.55 48.9867C128.184 48.094 128.094 47.1113 128.291 46.1665C128.33 46.0119 128.588 46.0395 128.577 46.2051C128.47 47.0875 128.539 47.9824 128.78 48.8377C129.551 48.371 130.361 47.9739 131.202 47.6511C131.295 47.6511 131.339 47.7891 131.268 47.8332Z" fill="#E07E8E"/>
<path d="M128.456 49.1855C123.415 49.4118 120.093 65.4447 120.093 65.4447" stroke="#01112C" stroke-width="3" stroke-linecap="round" stroke-linejoin="round"/>
<path d="M198.945 64.7164L176.463 68.668C176.463 68.668 162.355 40.2891 167.204 34.9245C169.95 31.867 171.932 31.2489 172.783 30.5424L176.732 34.9245C176.732 34.9245 179.988 30.0291 181.603 27.3027C181.896 27.4626 182.216 27.5673 182.547 27.6118C186.792 28.1968 192.822 28.0257 193.991 32.1319C195.161 36.2381 198.945 64.7164 198.945 64.7164Z" fill="#FF0000"/>
<path d="M189.515 41.7156L182.519 42.9023L182.761 44.3445L189.757 43.1578L189.515 41.7156Z" fill="#FFECF3"/>
<path d="M176.787 34.9241L180.85 26.6455C180.85 26.6455 183.464 26.1433 184.436 27.8045C185.408 29.4658 185.732 34.6426 185.732 34.6426C185.968 33.9583 180.746 33.0587 176.787 34.9241Z" fill="#FFECF3"/>
<path d="M173.338 29.5322L176.814 34.9243C176.814 34.9243 172.158 34.5711 170.225 38.164C170.186 38.164 168.874 30.1393 173.338 29.5322Z" fill="#FFECF3"/>
<path d="M204.755 68.1601L200.005 64.2968C200.005 64.2968 209.033 51.2442 209.033 49.8093C209.033 49.4836 208.154 48.9869 206.798 48.4129C206.095 48.1149 205.26 47.7893 204.359 47.4637C202.514 46.7959 200.373 46.1005 198.379 45.4768C194.854 44.373 191.789 43.5175 191.789 43.5175C191.789 43.5175 180.461 32.0379 191.789 29.4219C191.789 29.4219 198.522 32.7333 205.244 36.4421C206.803 37.3086 208.368 38.1917 209.845 39.0692L209.939 39.1189C214.244 41.6687 217.797 44.086 218.494 45.4934C220.471 49.4505 204.755 68.1601 204.755 68.1601Z" fill="#EEA1A8"/>
<path d="M209.95 39.1192C208.923 42.0277 207.5 46.1008 206.792 48.4133C206.089 48.1152 205.254 47.7896 204.354 47.464C202.509 46.7962 200.367 46.1008 198.374 45.4771L200.839 37.0109L205.232 36.459C206.792 37.3255 208.357 38.2085 209.834 39.0861L209.95 39.1192Z" fill="#E07E8E"/>
<path d="M209.856 39.0692C208.236 41.6024 205.37 46.7351 203.623 49.3567C198.516 47.5189 191.8 43.5175 191.8 43.5175C191.8 43.5175 180.471 32.0379 191.8 29.4219C191.8 29.4219 202.025 34.4332 209.856 39.0692Z" fill="#FF0000"/>
<path d="M201.833 63.5625C201.833 63.5625 193.354 63.6011 192.75 65.3231C192.146 67.045 190.619 72.978 191.839 73.1988C192.789 73.3754 194.326 67.9225 194.326 67.9225C194.326 67.9225 192.992 73.8279 193.837 74.2971C194.936 74.9041 196.781 68.6676 196.781 68.6676C196.781 68.6676 194.996 75.5444 196.418 75.5775C197.841 75.6106 198.818 69.7935 198.818 69.7935C198.818 69.7935 198.077 75.6547 198.999 75.5775C199.922 75.5002 200.878 70.8476 200.878 70.8476C200.878 70.8476 205.545 69.7438 206.149 66.46C206.874 62.5028 201.833 63.5625 201.833 63.5625Z" fill="#EEA1A8"/>
<path d="M110.604 165.505C110.604 166.885 85.8426 168 55.3045 168C24.7665 168 0 166.896 0 165.505C0 164.115 24.761 163.011 55.3045 163.011C85.8481 163.011 110.604 164.131 110.604 165.505Z" fill="#F5F2E8"/>
<path d="M59.8238 60.8701L56.8804 60.1912L58.1214 59.998C58.7785 60.0608 59.3872 60.3726 59.8238 60.8701Z" fill="#EEA1A8"/>
<path d="M47.3528 21.1437C47.0617 21.392 46.7597 21.6294 46.4522 21.8556C43.9151 23.7156 40.9113 24.9077 37.9459 25.8845C35.5406 26.6848 32.9102 27.6893 31.7021 30.1121C30.4226 32.6619 31.2518 34.5274 32.3281 36.9227C32.8278 38.0265 33.1299 39.351 32.5148 40.3886C32.081 41.1282 31.2683 41.5476 30.5873 42.0443C29.7804 42.6594 29.1209 43.4483 28.657 44.3531C28.1932 45.2579 27.9368 46.2555 27.9068 47.2729C27.8768 48.2903 28.0738 49.3015 28.4835 50.2323C28.8932 51.1631 29.5051 51.9899 30.2743 52.652C31.3561 53.5082 32.564 54.1897 33.8547 54.6719C38.3797 56.5484 43.1298 58.2483 48.0227 58.1048C51.3176 58.0054 54.5411 57.0782 57.6547 55.991C61.0979 54.7878 64.574 53.3308 67.144 50.7313C69.714 48.1319 71.1747 44.1085 69.8897 40.7087C69.3955 39.3952 68.5114 38.0485 68.9232 36.7074C69.1978 35.8133 69.9776 35.2007 70.653 34.5605C74.1676 31.2215 75.3537 25.3989 72.7947 21.2761C72.5715 20.8526 72.2323 20.5022 71.8172 20.2662C71.4572 20.1238 71.0728 20.0543 70.686 20.0619C65.9688 19.8633 56.4082 13.3784 51.669 13.1797C52.0205 13.268 50.4005 17.4018 50.2193 17.7219C49.4705 19.0223 48.5002 20.1805 47.3528 21.1437Z" fill="#FF6D67"/>
<path d="M74.8268 13.2786C74.2502 15.7898 73.1794 18.2458 71.3232 19.6587C67.8307 22.3078 57.1772 8.01347 57.1772 8.01347C57.1327 6.68848 57.599 5.39738 58.4787 4.40952C59.4128 3.47772 60.6351 2.89371 61.9438 2.7538C67.0619 1.97561 75.0629 3.85761 75.3265 7.19664C75.4493 9.23755 75.281 11.2856 74.8268 13.2786Z" fill="#FF6D67"/>
<path d="M75.3156 157.117L67.4957 158.982L65.9307 152.889L74.2173 150.963L75.3156 157.117Z" fill="#EEA1A8"/>
<path d="M68.506 164.865C66.7817 164.926 66.8092 162.696 67.0892 160.957C67.2016 160.283 67.3538 159.616 67.545 158.959L75.3154 157.116C75.3154 157.116 80.5268 156.84 84.0743 157.74C85.3593 158.065 86.4302 158.551 86.9518 159.257C88.9123 161.907 71.3122 164.777 68.506 164.865Z" fill="#EEA1A8"/>
<path d="M68.506 164.865C66.7817 164.926 66.8092 162.696 67.0892 160.958C71.087 160.886 81.9985 160.45 84.0743 157.74C85.3593 158.066 86.4302 158.552 86.9518 159.258C88.9123 161.907 71.3122 164.777 68.506 164.865Z" fill="#5C6467"/>
<path d="M74.2174 150.963L65.9307 152.889L47.6606 81.4505L59.1817 66.8691L74.2174 150.963Z" fill="#8E81AC"/>
<path d="M65.936 151.493L73.69 149.556" stroke="#FFECF3" stroke-miterlimit="10"/>
<path d="M29.802 152.773C27.7482 155.35 20.5488 138.975 19.7471 136.249C19.2693 134.642 21.1035 134.091 22.674 133.914C23.3487 133.84 24.0276 133.815 24.7059 133.837H25.1946L28.8355 140.769C29.6153 143.253 30.1559 145.807 30.45 148.396C30.6147 150.228 30.4994 151.895 29.802 152.773Z" fill="#EEA1A8"/>
<path d="M29.802 152.773C27.7482 155.35 20.5488 138.975 19.7471 136.249C19.2693 134.643 21.1035 134.091 22.674 133.914C23.97 138.009 26.9574 146.017 30.45 148.418C30.6147 150.228 30.4994 151.895 29.802 152.773Z" fill="#5C6467"/>
<path d="M29.2972 129.322L33.5366 137.159C30.7249 139.367 28.8359 140.791 28.8359 140.791L24.3164 133.837C24.3164 133.837 26.4087 131.977 29.2972 129.322Z" fill="#EEA1A8"/>
<path d="M59.802 65.3949C57.8031 70.5828 53.3275 76.8745 53.3275 76.8745C53.3275 76.8745 56.6224 108.333 57.3857 113.549C57.9349 117.412 41.779 130.658 33.5363 137.159L29.2969 129.322C35.7713 123.356 46.249 113.355 45.9964 111.313C45.6285 108.355 37.276 88.3376 36.0514 79.921C34.1953 66.8685 43.1903 62.3153 43.1903 62.3153L56.8805 60.1904L59.8239 60.8858C60.4225 61.6088 60.763 62.95 59.802 65.3949Z" fill="#9C9EDB"/>
<path d="M45.8921 62.8128C45.4143 62.7245 38.9399 67.2556 39.1321 74.3531C39.3243 81.4506 49.2309 109.863 48.8684 112.341C48.506 114.819 31.6582 130.609 31.6582 130.609" stroke="#FFECF3" stroke-miterlimit="10"/>
<path d="M30.5161 128.594L34.4755 135.669" stroke="#FFECF3" stroke-miterlimit="10"/>
<path d="M48.9893 62.8066C48.9563 62.9998 45.6944 67.9504 42.6851 65.3951" stroke="#FFECF3" stroke-miterlimit="10"/>
<path d="M103.8 56.5813L102.63 62.8785C102.63 62.8785 79.467 62.7626 73.7778 60.4281C72.3726 59.8039 71.0348 59.0364 69.7855 58.1377C64.4258 54.451 58.3413 48.4131 58.3413 48.4131L65.0684 37.0107C65.0684 37.0107 70.3182 45.488 75.3264 50.5214C77.0288 52.2268 78.6982 53.5403 80.1259 53.9873C85.7602 55.7755 103.8 56.5813 103.8 56.5813Z" fill="#E07E8E"/>
<path d="M75.3264 50.5269L69.7855 58.1377C64.4258 54.451 58.3413 48.4131 58.3413 48.4131L65.0684 37.0107C65.0684 37.0107 70.3182 45.4935 75.3264 50.5269Z" fill="#DC44F2"/>
<path d="M100.351 58.176C100.351 58.176 105.151 52.9494 108.813 51.4041C113.146 49.5718 117.413 49.1965 117.364 49.9526C117.309 50.8577 110.615 52.7121 110.4 52.9605C110.186 53.2088 112.449 52.381 113.893 52.2761C115.54 52.1547 119.104 52.2761 118.945 52.828C118.566 54.1195 116.276 53.5345 114.365 53.9318C113.288 54.1558 112.224 54.4433 111.18 54.7928C111.18 54.7928 118.319 54.5665 118.017 55.444C117.715 56.3216 115.601 56.5479 113.992 56.6362C113.031 56.6843 112.074 56.7875 111.125 56.9452C111.125 56.9452 117.594 57.1384 117.353 58.049C117.111 58.9597 113.964 58.7444 113.228 58.8438C112.321 58.8872 111.451 59.2218 110.746 59.7986C110.197 60.2787 106.512 63.7723 101.911 62.7954C97.3087 61.8186 100.351 58.176 100.351 58.176Z" fill="#E07E8E"/>
<path d="M109.132 52.6961C108.325 53.1444 107.565 53.6732 106.864 54.2746C106.078 54.8265 105.299 55.3784 104.563 55.991C104.502 56.0462 104.563 56.1511 104.656 56.1069C105.645 55.555 106.578 54.8541 107.517 54.1973C107.726 54.0483 108.742 53.1211 109.016 53.1487C109.769 52.8341 110.115 52.9555 109.747 53.7889L109.588 54.098C109.533 54.4457 109.099 54.7989 108.89 55.0417C108.363 55.5387 108.004 56.1891 107.863 56.9017C107.644 58.2814 107.457 59.6612 105.985 60.2407C105.776 60.318 105.859 60.6601 106.078 60.5829C107.391 60.1248 107.946 58.9272 108.132 57.6081C108.146 57.1152 108.242 56.6282 108.418 56.1676C108.656 55.8009 108.93 55.4589 109.236 55.1466C109.684 54.6565 110.018 54.072 110.214 53.4357C110.373 52.652 109.785 52.4257 109.132 52.6961Z" fill="#AF4F76"/>
<path d="M59.8022 65.3949L43.229 62.3153C43.229 62.3153 43.229 43.9699 44.3273 39.2291C45.5025 34.2619 48.2702 32.678 52.1471 30.5752C56.1504 33.4727 61.4826 37.5568 62.3283 39.2291C63.1008 37.9222 63.6397 36.4896 63.9208 34.996C64.921 36.2103 65.7066 37.5879 66.2437 39.069C68.2207 44.9799 59.8022 65.3949 59.8022 65.3949Z" fill="#F370FF"/>
<path d="M62.081 31.8724C62.3446 32.9266 63.1079 33.8869 63.9426 34.9962C63.6615 36.4898 63.1226 37.9224 62.3501 39.2293C61.5154 37.5736 56.1722 33.473 52.1689 30.5755C52.3721 30.4651 52.5808 30.3547 52.7785 30.2388C54.3712 29.2474 55.5888 27.7498 56.2381 25.9836C56.6845 24.8889 57.0122 23.7491 57.2156 22.5839C57.3254 21.9602 57.3584 21.5684 57.3584 21.5684L59.6923 22.8819L64.5192 25.5973C64.5192 25.5973 61.9053 28.7266 61.9822 31.1936C61.9901 31.4228 62.0232 31.6505 62.081 31.8724Z" fill="#EEA1A8"/>
<path d="M61.9824 31.1937C61.9902 31.423 62.0234 31.6506 62.0812 31.8726C58.8357 30.6804 57.0071 27.5953 56.2383 25.9837C56.6847 24.8891 57.0124 23.7492 57.2158 22.584L59.6924 22.882L64.5194 25.5974C64.5194 25.5974 61.9055 28.7322 61.9824 31.1937Z" fill="#E07E8E"/>
<path d="M92.4599 49.9527C92.4599 49.9527 72.3556 60.2623 67.3529 59.749C65.5078 59.5559 62.2513 58.2258 58.8027 56.4045C57.9405 55.9464 57.0674 55.4607 56.1997 54.953C54.6676 54.0534 53.163 53.093 51.8066 52.1217C48.66 49.9141 46.1998 47.6237 45.6726 45.9569C44.2668 41.4865 46.0899 33.6273 52.169 34.9188C52.169 34.9188 55.4639 38.7821 59.1377 42.7559C60.0438 43.7438 60.9773 44.7427 61.8834 45.6865C62.0317 45.841 62.1744 45.9955 62.3227 46.1446C65.1343 49.0365 67.6714 51.3711 68.5885 51.4373C71.0596 51.625 89.8679 44.3564 89.8679 44.3564L92.4599 49.9527Z" fill="#EEA1A8"/>
<path d="M61.889 45.6919L58.8247 56.4044C57.9626 55.9464 57.0894 55.4607 56.2218 54.9529C54.6897 54.0533 53.185 53.093 51.8286 52.1216L59.1597 42.7393C60.0438 43.7492 60.9774 44.7372 61.889 45.6919Z" fill="#E07E8E"/>
<path d="M62.3283 45.405L55.7386 57.2489C50.7139 54.3017 46.4031 48.3577 45.6672 45.9569C44.2614 41.4865 46.0846 33.6273 52.1636 34.9188C52.1691 34.9243 57.6331 40.5703 62.3283 45.405Z" fill="#F691FF"/>
<path d="M107.095 43.7772C106.979 44.8811 105.074 44.848 104.898 44.9639C104.722 45.0798 104.827 45.2784 104.547 45.6041C104.355 45.8022 104.132 45.968 103.888 46.0953C102.877 46.6472 103.547 47.2322 102.707 47.5633C102.151 47.752 101.622 48.0156 101.136 48.347C99.846 49.0811 92.4545 49.9531 92.4545 49.9531L88.0942 46.5478C88.0942 46.5478 90.7356 41.106 93.2617 39.373L96.1118 40.4769C96.1118 40.4769 96.8916 40.6314 98.0228 40.8742C101.197 41.5476 107.177 42.9494 107.095 43.7772Z" fill="#EEA1A8"/>
<path d="M107.094 43.7767C106.979 44.8805 105.073 44.8474 104.898 44.9633C104.722 45.0792 104.826 45.2779 104.546 45.6035C102.69 43.4732 99.4942 41.6464 98.0225 40.8682C101.197 41.547 107.177 42.9488 107.094 43.7767Z" fill="#E07E8E"/>
<path d="M97.3089 42.348C97.0837 42.348 96.1831 36.6689 96.1831 36.6689C96.1831 36.6689 108.945 35.8741 112.279 39.8699L113.536 45.549C113.536 45.549 108.242 42.2652 97.3089 42.348Z" fill="#6B9B4C"/>
<path d="M96.7871 37.0109C96.7871 37.0109 109.192 36.6688 111.993 39.9967L113.025 44.71C108.238 42.4179 102.936 41.4301 97.6493 41.8456L96.7871 37.0109Z" fill="#B4C482"/>
<path d="M106.699 39.7702C106.798 40.7857 106.309 41.6633 105.601 41.7295C104.893 41.7957 104.256 41.0286 104.157 40.0131C104.058 38.9976 104.547 38.12 105.255 38.0538C105.963 37.9876 106.6 38.7492 106.699 39.7702Z" fill="#6B9B4C"/>
<path d="M97.5558 41.9115C97.3416 41.9832 94.8101 36.8229 94.8101 36.8229C94.8101 36.8229 106.77 32.2697 111.131 35.0954L114.003 40.1509C114.003 40.1509 107.99 38.5835 97.5558 41.9115Z" fill="#8EB561"/>
<path d="M95.48 37.0107C95.48 37.0107 107.232 32.9984 110.889 35.355L113.261 39.555C108.005 38.7843 102.639 39.4182 97.704 41.3929L95.48 37.0107Z" fill="#C9D8A3"/>
<path d="M105.755 36.6516C106.15 37.5954 105.941 38.5778 105.293 38.8592C104.645 39.1407 103.8 38.5888 103.41 37.645C103.02 36.7013 103.223 35.7189 103.871 35.4374C104.519 35.1559 105.365 35.7134 105.755 36.6516Z" fill="#8EB561"/>
<path d="M93.2725 39.3895C95.804 37.6731 99.8128 37.8828 101.29 37.5682C102.767 37.2537 102.449 39.5661 96.117 40.4768" fill="#EEA1A8"/>
<path d="M75.2881 18.4222C75.5681 19.526 74.2831 20.7899 72.416 21.2755C70.5489 21.7612 68.8081 21.2755 68.5281 20.1717C68.248 19.0679 69.533 17.8041 71.4001 17.3184C73.2672 16.8327 75.008 17.3349 75.2881 18.4222Z" fill="#E07E8E"/>
<path d="M65.4528 30.145C60.3842 30.5148 54.9147 25.233 54.404 18.1852C54.1862 14.8981 55.1617 11.643 57.1497 9.02358C57.2632 8.86537 57.384 8.71084 57.5121 8.55998C59.3463 6.35236 61.7625 4.89533 64.1568 4.72424C65.104 4.65086 66.0551 4.80019 66.9349 5.16038C67.8147 5.52057 68.5989 6.08173 69.2254 6.7994C70.6701 8.49962 71.6653 10.5381 72.1194 12.7269C72.4425 14.0736 72.6519 15.4454 72.7455 16.8275C73.2562 23.8974 70.5159 29.7752 65.4528 30.145Z" fill="#EEA1A8"/>
<path d="M72.1196 12.7273C68.2756 14.5541 62.4382 11.6842 62.4382 11.6842C61.1532 15.4592 57.1719 17.8214 57.1719 17.8214L56.3701 15.3985L57.1334 9.02398L57.1774 8.61005L57.4959 8.56038L69.2092 6.7998C70.6597 8.49828 71.6607 10.537 72.1196 12.7273Z" fill="#E07E8E"/>
<path d="M61.4771 7.75945C48.4678 1.90925 52.1416 18.8583 52.1416 18.8583C52.8555 25.9999 46.7765 27.7605 46.7765 27.7605C46.7765 27.7605 35.3377 30.2772 46.2273 33.9308C57.1169 37.5844 59.61 28.4117 57.5233 24.14C56.6446 22.3408 56.8203 19.8517 57.3201 17.5668C61.5155 14.6141 61.4771 7.75945 61.4771 7.75945Z" fill="#FF6D67"/>
<path d="M59.3243 9.31058C59.3243 9.31058 68.1106 13.0967 71.9052 11.1374C75.6998 9.17813 71.1529 5.65697 71.1529 5.65697L62.3665 3.86328L57.5396 7.17471L59.3243 9.31058Z" fill="#FF6D67"/>
</g>
<defs>
<clipPath id="clip0_1110_190">
<rect width="248" height="168" fill="white"/>
</clipPath>
</defs>
</svg>
