<svg width="230" height="263" viewBox="0 0 230 263" fill="none" xmlns="http://www.w3.org/2000/svg">
<g clip-path="url(#clip0_1110_84)">
<path d="M71.2878 263C110.659 263 142.576 254.494 142.576 244.001C142.576 233.509 110.659 225.003 71.2878 225.003C31.9166 225.003 0 233.509 0 244.001C0 254.494 31.9166 263 71.2878 263Z" fill="#F5F2E8"/>
<path d="M97.4387 251.266L38.0979 251.204L38.1629 189.227L100.961 189.293L100.9 247.82C100.899 248.735 100.533 249.612 99.8844 250.258C99.2354 250.904 98.3556 251.267 97.4387 251.266Z" fill="#FF4C4C"/>
<path d="M38.1717 189.214L100.938 189.285L81.1711 173.57C79.7975 172.478 78.0921 171.885 76.3357 171.889L23.7912 171.826C23.5033 171.825 23.2214 171.909 22.9818 172.069C22.7421 172.228 22.5554 172.455 22.4455 172.72C22.3357 172.986 22.3076 173.278 22.365 173.56C22.4223 173.841 22.5624 174.099 22.7674 174.301L38.1717 189.214Z" fill="#FF4C4C"/>
<path d="M20.5231 230.723L20.3262 176.863C20.3262 172.762 22.9959 172.094 22.9959 172.094L22.5155 173.099C22.2793 173.626 22.7754 174.231 23.1849 174.632L38.1481 189.222L38.0772 251.191L22.4761 235.375C21.2351 234.142 20.533 232.47 20.5231 230.723Z" fill="#FF4C4C"/>
<path d="M55.6395 189.237H40.7866C40.0924 189.237 39.4265 189.512 38.935 190.001C38.4434 190.49 38.1661 191.153 38.1641 191.846V207.489" stroke="white" stroke-width="0.5" stroke-miterlimit="10"/>
<path d="M38.1404 217.366L38.1089 248.582" stroke="white" stroke-width="0.5" stroke-miterlimit="10"/>
<path d="M28.9023 180.28L38.0929 189.222" stroke="white" stroke-width="0.5" stroke-miterlimit="10"/>
<path d="M22.9094 172.078L22.429 173.084C22.1927 173.61 22.681 174.215 23.0984 174.616L27.2881 178.694" stroke="white" stroke-width="0.5" stroke-miterlimit="10"/>
<path d="M184.89 0H102.537C95.1649 0 89.1885 5.96256 89.1885 13.3177V193.591C89.1885 200.946 95.1649 206.908 102.537 206.908H184.89C192.262 206.908 198.239 200.946 198.239 193.591V13.3177C198.239 5.96256 192.262 0 184.89 0Z" fill="black"/>
<path d="M185.685 5.13086H101.749C97.4261 5.13086 93.9214 8.62749 93.9214 12.9408V193.968C93.9214 198.281 97.4261 201.778 101.749 201.778H185.685C190.008 201.778 193.513 198.281 193.513 193.968V12.9408C193.513 8.62749 190.008 5.13086 185.685 5.13086Z" fill="white"/>
<path d="M120.147 2.56941H167.69V9.57793C167.69 11.5388 166.91 13.4194 165.52 14.8059C164.13 16.1925 162.245 16.9714 160.28 16.9714H127.156C125.19 16.9714 123.305 16.1925 121.916 14.8059C120.526 13.4194 119.745 11.5388 119.745 9.57793V2.96227C119.745 2.91001 119.756 2.85828 119.776 2.81009C119.796 2.76191 119.826 2.71825 119.863 2.68166C119.901 2.64508 119.945 2.61631 119.994 2.59703C120.042 2.57776 120.094 2.56837 120.147 2.56941Z" fill="black"/>
<path opacity="0.35" d="M223.897 42.8213H120.131C118.512 42.8213 116.96 43.4628 115.815 44.6048C114.67 45.7467 114.027 47.2956 114.027 48.9105V102.779C114.027 104.394 114.67 105.942 115.815 107.084C116.96 108.226 118.512 108.868 120.131 108.868H223.897C225.515 108.868 227.068 108.226 228.212 107.084C229.357 105.942 230 104.394 230 102.779V48.9105C230 47.2956 229.357 45.7467 228.212 44.6048C227.068 43.4628 225.515 42.8213 223.897 42.8213Z" fill="#9FCCFB"/>
<path d="M221.211 40.708H117.469C114.098 40.708 111.366 43.4343 111.366 46.7972V100.658C111.366 104.021 114.098 106.747 117.469 106.747H221.211C224.582 106.747 227.315 104.021 227.315 100.658V46.7972C227.315 43.4343 224.582 40.708 221.211 40.708Z" fill="#FF0000"/>
<path d="M227.315 46.7972C227.315 45.1823 226.672 43.6334 225.527 42.4915C224.382 41.3495 222.83 40.708 221.211 40.708H117.469C115.85 40.708 114.298 41.3495 113.153 42.4915C112.009 43.6334 111.366 45.1823 111.366 46.7972V47.7479C124.061 48.3215 148.671 52.4622 165.84 74.462C185.591 99.7932 212.147 97.2947 227.315 91.1505V46.7972Z" fill="white" fill-opacity="0.3"/>
<path d="M137.701 65.332H123.218C121.935 65.332 120.895 66.3698 120.895 67.6499V75.2162C120.895 76.4963 121.935 77.5341 123.218 77.5341H137.701C138.984 77.5341 140.024 76.4963 140.024 75.2162V67.6499C140.024 66.3698 138.984 65.332 137.701 65.332Z" fill="white"/>
<path d="M219.345 46.5615H198.372C197.842 46.5615 197.412 46.9907 197.412 47.5201V51.5508C197.412 52.0802 197.842 52.5093 198.372 52.5093H219.345C219.875 52.5093 220.305 52.0802 220.305 51.5508V47.5201C220.305 46.9907 219.875 46.5615 219.345 46.5615Z" fill="black"/>
<path d="M140.181 87.8423H122.233C121.696 87.8403 121.181 87.6258 120.802 87.2458C120.422 86.8659 120.209 86.3515 120.209 85.8152C120.208 85.5494 120.26 85.286 120.361 85.0401C120.463 84.7942 120.611 84.5706 120.8 84.3823C120.988 84.1939 121.211 84.0445 121.457 83.9425C121.703 83.8406 121.967 83.7881 122.233 83.7881H140.181C140.72 83.7881 141.237 84.0017 141.618 84.3818C141.999 84.762 142.213 85.2776 142.213 85.8152C142.211 86.3522 141.996 86.8666 141.616 87.2463C141.235 87.626 140.72 87.8403 140.181 87.8423Z" fill="white"/>
<path d="M165.587 87.8423H147.639C147.102 87.8403 146.587 87.6258 146.208 87.2458C145.828 86.8659 145.615 86.3515 145.615 85.8152C145.614 85.5494 145.666 85.286 145.767 85.0401C145.868 84.7942 146.017 84.5706 146.205 84.3823C146.393 84.1939 146.617 84.0445 146.863 83.9425C147.109 83.8406 147.373 83.7881 147.639 83.7881H165.587C166.126 83.7881 166.643 84.0017 167.024 84.3818C167.405 84.762 167.619 85.2776 167.619 85.8152C167.617 86.3522 167.402 86.8666 167.022 87.2463C166.641 87.626 166.125 87.8403 165.587 87.8423Z" fill="white"/>
<path d="M191.182 87.8423H173.234C172.697 87.8403 172.182 87.6258 171.803 87.2458C171.423 86.8659 171.21 86.3515 171.21 85.8152C171.209 85.5494 171.261 85.286 171.362 85.0401C171.464 84.7942 171.612 84.5706 171.8 84.3823C171.989 84.1939 172.212 84.0445 172.458 83.9425C172.704 83.8406 172.968 83.7881 173.234 83.7881H191.182C191.721 83.7881 192.238 84.0017 192.619 84.3818C193 84.762 193.214 85.2776 193.214 85.8152C193.212 86.3522 192.997 86.8666 192.617 87.2463C192.236 87.626 191.721 87.8403 191.182 87.8423Z" fill="white"/>
<path d="M216.588 87.8423H198.64C198.103 87.8403 197.588 87.6258 197.209 87.2458C196.829 86.8659 196.616 86.3515 196.616 85.8152C196.615 85.5494 196.667 85.286 196.768 85.0401C196.869 84.7942 197.018 84.5706 197.206 84.3823C197.394 84.1939 197.618 84.0445 197.864 83.9425C198.11 83.8406 198.374 83.7881 198.64 83.7881H216.588C217.127 83.7881 217.644 84.0017 218.025 84.3818C218.406 84.762 218.62 85.2776 218.62 85.8152C218.618 86.3522 218.403 86.8666 218.023 87.2463C217.642 87.626 217.126 87.8403 216.588 87.8423Z" fill="white"/>
<path d="M145.852 101.505H122.493C122.165 101.505 121.851 101.375 121.619 101.144C121.387 100.913 121.257 100.599 121.257 100.272C121.253 100.107 121.281 99.9434 121.342 99.7901C121.402 99.6368 121.492 99.4971 121.608 99.3792C121.723 99.2613 121.861 99.1676 122.013 99.1036C122.165 99.0397 122.328 99.0068 122.493 99.0068H145.836C146.163 99.0089 146.476 99.1395 146.708 99.3704C146.939 99.6013 147.07 99.9139 147.072 100.24C147.076 100.404 147.048 100.566 146.989 100.718C146.929 100.871 146.84 101.01 146.727 101.127C146.613 101.245 146.477 101.339 146.327 101.404C146.177 101.469 146.015 101.503 145.852 101.505Z" fill="black"/>
<path d="M216.525 101.505H205.003C204.841 101.505 204.681 101.473 204.532 101.411C204.382 101.349 204.246 101.258 204.132 101.143C204.018 101.029 203.927 100.893 203.866 100.743C203.805 100.594 203.774 100.433 203.775 100.272C203.775 99.9458 203.904 99.6333 204.134 99.4022C204.364 99.171 204.677 99.0402 205.003 99.0381H216.525C216.853 99.0381 217.168 99.1681 217.399 99.3994C217.631 99.6307 217.762 99.9445 217.762 100.272C217.762 100.599 217.631 100.913 217.399 101.144C217.168 101.375 216.853 101.505 216.525 101.505Z" fill="black"/>
<mask id="mask0_1110_84" style="mask-type:luminance" maskUnits="userSpaceOnUse" x="120" y="65" width="21" height="13">
<path d="M137.701 65.332H123.218C121.935 65.332 120.895 66.3698 120.895 67.6499V75.2162C120.895 76.4963 121.935 77.5341 123.218 77.5341H137.701C138.984 77.5341 140.024 76.4963 140.024 75.2162V67.6499C140.024 66.3698 138.984 65.332 137.701 65.332Z" fill="white"/>
</mask>
<g mask="url(#mask0_1110_84)">
<path d="M124.384 65.1201C126.085 67.2887 128.77 72.1915 124.163 77.8486" stroke="#8EC3F4" stroke-width="0.5" stroke-miterlimit="10" stroke-linecap="round"/>
<path d="M119.666 71.3193H126.683" stroke="#8EC3F4" stroke-width="0.5" stroke-miterlimit="10"/>
<path d="M136.008 65.1201C134.314 67.2887 131.629 72.1915 136.236 77.8486" stroke="#8EC3F4" stroke-width="0.5" stroke-miterlimit="10" stroke-linecap="round"/>
<path d="M140.733 71.3193H133.708" stroke="#8EC3F4" stroke-width="0.5" stroke-miterlimit="10"/>
</g>
<g opacity="0.35">
<path d="M170.298 157.682C170.684 144.846 160.568 134.128 147.702 133.743C134.836 133.358 124.094 143.451 123.708 156.287C123.322 169.123 133.438 179.84 146.304 180.226C159.17 180.611 169.912 170.517 170.298 157.682Z" fill="#D72E2E"/>
</g>
<path d="M168.475 156.817C169.194 143.87 159.257 132.794 146.281 132.077C133.304 131.36 122.203 141.274 121.484 154.22C120.765 167.166 130.702 178.242 143.678 178.959C156.654 179.676 167.756 169.763 168.475 156.817Z" fill="#D72E2E"/>
<path d="M148.366 172.589C158.024 170.525 164.177 161.04 162.108 151.404C160.039 141.768 150.533 135.629 140.874 137.693C131.216 139.757 125.063 149.242 127.132 158.878C129.201 168.514 138.707 174.653 148.366 172.589Z" fill="#FF4C4C"/>
<path d="M163.004 155.798C163.024 159.281 162.009 162.691 160.086 165.598C158.163 168.505 155.42 170.778 152.202 172.129C148.985 173.48 145.438 173.848 142.01 173.188C138.583 172.528 135.428 170.868 132.946 168.42C130.464 165.971 128.765 162.842 128.065 159.43C127.365 156.018 127.696 152.476 129.014 149.251C130.332 146.026 132.579 143.263 135.471 141.313C138.363 139.362 141.77 138.311 145.261 138.292C147.578 138.279 149.875 138.721 152.021 139.594C154.167 140.466 156.12 141.752 157.768 143.378C159.415 145.003 160.726 146.937 161.624 149.068C162.523 151.199 162.992 153.486 163.004 155.798Z" fill="#FF725E"/>
<path d="M163.004 155.798C163.024 159.281 162.009 162.691 160.086 165.598C158.163 168.505 155.42 170.778 152.202 172.129C148.985 173.48 145.438 173.848 142.01 173.188C138.583 172.528 135.428 170.868 132.946 168.42C130.464 165.971 128.765 162.842 128.065 159.43C127.365 156.018 127.696 152.476 129.014 149.251C130.332 146.026 132.579 143.263 135.471 141.313C138.363 139.362 141.77 138.311 145.261 138.292C147.578 138.279 149.875 138.721 152.021 139.594C154.167 140.466 156.12 141.752 157.768 143.378C159.415 145.003 160.726 146.937 161.624 149.068C162.523 151.199 162.992 153.486 163.004 155.798Z" fill="#FF0000"/>
<path d="M146.056 154.368V149.866C146.881 149.954 147.69 150.158 148.458 150.471C148.854 150.671 149.23 150.905 149.584 151.17L149.647 151.037L150.333 149.41L150.49 149.033L149.703 148.193L149.317 148.373C148.3 147.844 147.185 147.528 146.041 147.446V144.971L145.253 144.358V144.979H144.198V147.501C140.709 147.855 139.063 149.858 139.079 152.129C139.079 155.233 141.764 156.018 144.245 156.608V161.07C142.621 160.947 141.066 160.37 139.756 159.405L138.764 161.66C140.376 162.807 142.297 163.442 144.276 163.483V165.353H143.402L144.276 165.942H146.119V163.443C149.632 163.066 151.293 161.086 151.285 158.815C151.246 155.72 148.537 154.958 146.056 154.368ZM144.213 153.905C142.914 153.535 141.953 153.048 141.945 151.98C141.937 150.911 142.607 150.188 144.19 149.937L144.213 153.905ZM146.088 161.015V157.087C147.427 157.464 148.45 157.967 148.45 159.059C148.411 160.002 147.694 160.764 146.119 161.015H146.088Z" fill="#D72E2E"/>
<path d="M145.332 162.838V165.345H143.521V162.87C141.541 162.829 139.62 162.194 138.008 161.047L139 158.784C140.309 159.752 141.865 160.332 143.489 160.457V155.995C141.008 155.405 138.339 154.612 138.323 151.516C138.323 149.238 139.953 147.242 143.442 146.888V144.366H145.277V146.849C146.88 146.905 148.443 147.365 149.821 148.185L148.923 150.44C147.804 149.801 146.566 149.397 145.285 149.253V153.763C147.773 154.353 150.482 155.123 150.498 158.218C150.522 160.489 148.852 162.461 145.332 162.838ZM143.442 153.3V149.324C141.867 149.583 141.182 150.393 141.189 151.375C141.197 152.357 142.182 152.93 143.45 153.3H143.442ZM147.639 158.43C147.639 157.338 146.639 156.859 145.277 156.458V160.387C146.962 160.151 147.647 159.389 147.647 158.43H147.639Z" fill="white"/>
<path d="M162.807 148.239C168.101 148.239 172.392 143.958 172.392 138.677C172.392 133.396 168.101 129.115 162.807 129.115C157.514 129.115 153.223 133.396 153.223 138.677C153.223 143.958 157.514 148.239 162.807 148.239Z" fill="#F9A2A2"/>
<path d="M159.571 138.474L160.854 141.349C160.885 141.417 160.932 141.476 160.991 141.521C161.05 141.566 161.119 141.595 161.193 141.607C161.266 141.619 161.341 141.612 161.411 141.588C161.482 141.563 161.545 141.522 161.595 141.467L166.399 136.258" stroke="white" stroke-width="1.52" stroke-miterlimit="10" stroke-linecap="round"/>
<path d="M162.784 146.573C167.172 146.573 170.73 143.024 170.73 138.646C170.73 134.267 167.172 130.718 162.784 130.718C158.395 130.718 154.837 134.267 154.837 138.646C154.837 143.024 158.395 146.573 162.784 146.573Z" stroke="white" stroke-width="0.5" stroke-miterlimit="10"/>
<path d="M36.1638 65.2688C36.1638 65.2688 39.0698 57.2468 51.316 60.7196C59.4827 63.0296 64.2316 69.496 63.6882 78.9952C63.1211 89.0287 69.4766 85.9487 65.7751 100.445C63.2708 110.251 75.1626 118.32 64.3497 133.72C55.5923 146.189 6.07201 139.008 6.56816 117.495C6.80442 107.336 15.3098 112.089 15.8217 95.7072C16.0343 88.7537 29.3122 91.0715 27.5324 80.5273C26.6425 75.2709 30.8558 64.601 36.1638 65.2688Z" fill="#FF6D67"/>
<path d="M51.1582 96.4854C52.1881 97.2022 52.9798 98.2098 53.4317 99.3788C53.8835 100.548 53.9749 101.825 53.6941 103.046C52.8514 107.548 52.4813 111.791 56.3323 115.075" stroke="#B70825" stroke-width="0.5" stroke-miterlimit="10" stroke-linecap="round"/>
<path d="M60.1678 86.0195C60.9553 89.6338 62.5304 92.0538 60.3962 96.9644C55.8363 107.328 64.956 109.489 60.5773 118.964C59.2705 121.78 58.4173 124.785 58.0493 127.866" stroke="#B70825" stroke-width="0.5" stroke-miterlimit="10" stroke-linecap="round"/>
<path d="M62.1128 137.294H77.7533L72.9572 132.069L62.6956 133.617L62.1128 137.294Z" fill="#F7C2A0"/>
<path d="M33.6908 91.8418C33.6908 91.8418 29.2097 94.3246 29.8161 99.031C30.6036 105.372 24.3033 106.362 25.8784 110.337" stroke="#B70825" stroke-width="0.5" stroke-miterlimit="10" stroke-linecap="round"/>
<path d="M31.6828 74.8779C30.6005 77.3736 30.1411 80.094 30.3439 82.8057C31.3126 90.9692 20.2083 91.1421 20.106 99.3842C20.0508 104.531 15.7509 107.681 12.9473 110.667" stroke="#B70825" stroke-width="0.5" stroke-miterlimit="10" stroke-linecap="round"/>
<path d="M108.042 230.904L108.011 240.419L99.206 240.49L97.812 232.735L108.042 230.904Z" fill="#E8977B"/>
<path d="M81.7305 233.89L80.8721 244.269L71.3586 245.133L69.7993 237.323L81.7305 233.89Z" fill="#E8977B"/>
<path d="M42.4561 163.616C52.568 169.037 73.6346 179.77 85.5816 181.931C86.0605 182.013 86.5011 182.244 86.8405 182.591C87.1799 182.939 87.4008 183.384 87.4716 183.863L94.7564 233.363C94.8184 233.795 95.0036 234.2 95.2898 234.53C95.576 234.86 95.9512 235.102 96.3708 235.225C99.1351 236.011 105.404 237.087 110.255 231.917C110.475 231.684 110.645 231.408 110.755 231.107C110.865 230.806 110.912 230.485 110.893 230.165C110.389 222.874 107.05 175.716 104.656 169.532C102.262 163.349 68.0746 156.615 63.9164 155.829C63.6432 155.778 63.3628 155.778 63.0895 155.829L43.1333 159.381C42.6769 159.476 42.2602 159.707 41.9384 160.043C41.6166 160.38 41.4049 160.806 41.3315 161.265C41.258 161.725 41.3262 162.195 41.5271 162.615C41.7279 163.035 42.0519 163.384 42.4561 163.616Z" fill="#9C9EDB"/>
<path d="M27.8002 166.798C27.8474 166.798 19.6255 182.277 60.8294 185.907C61.2723 185.965 61.6812 186.175 61.9869 186.5C62.2926 186.825 62.4763 187.245 62.5069 187.69L67.6259 237.59C67.6681 237.975 67.8194 238.34 68.0622 238.642C68.3049 238.944 68.6289 239.171 68.9962 239.295C71.3889 240.162 73.9692 240.379 76.4735 239.925C78.9779 239.471 81.3165 238.361 83.2506 236.71C83.498 236.509 83.6972 236.255 83.8334 235.967C83.9697 235.678 84.0396 235.363 84.0381 235.045C83.8334 227.753 82.4631 180.477 80.3131 174.199C78.2497 168.15 47.906 160.654 41.1095 159.043C40.717 158.947 40.3047 158.971 39.9257 159.111C39.5468 159.251 39.2185 159.501 38.9832 159.829L27.8002 166.798Z" fill="#9C9EDB"/>
<path d="M25.8942 103.447C38.7547 99.628 54.3479 102.944 56.8995 103.706C59.8134 104.578 63.4597 108.067 67.3895 115.916L71.3272 123.773L63.4518 126.13V156.05C56.4225 161.998 47.9722 166.033 38.9201 167.765L28.2883 169.658C28.0471 169.702 27.7993 169.691 27.5628 169.626C27.3264 169.562 27.1074 169.446 26.9217 169.286C26.736 169.126 26.5885 168.927 26.4897 168.704C26.391 168.48 26.3436 168.237 26.351 167.992L27.5717 129.878L14.1836 130.577C14.1836 130.577 13.6008 107.092 25.8942 103.447Z" fill="#F370FF"/>
<path d="M52.497 131.119L28.5166 137.696L27.5794 129.878L16.4357 130.381C16.4357 130.381 13.9235 149.701 20.5467 150.078C30.5799 150.707 56.4505 138.034 56.4505 138.034L52.497 131.119Z" fill="#F7C2A0"/>
<path d="M48.6461 70.8783C49.3768 70.6308 50.161 70.5857 50.9154 70.7475C51.6698 70.9094 52.3661 71.2723 52.9303 71.7976C55.6473 74.6025 59.0416 79.5211 57.8917 85.791C56.5608 93.0431 54.8361 97.5766 50.8039 97.4902C49.5045 97.4902 48.9375 98.4881 48.8981 99.7059L48.6539 103.501C47.4648 110.132 37.7387 111.091 34.9587 104.852L34.5019 103.831C34.3305 103.461 34.2417 103.059 34.2417 102.652C34.2417 102.245 34.3305 101.843 34.5019 101.474C35.6753 99.0223 38.5262 94.8502 35.3367 85.5946C35.1162 84.966 34.1396 82.7975 34.7618 81.2732C34.9055 80.9808 35.1163 80.7263 35.3769 80.5303C35.6376 80.3343 35.9408 80.2022 36.2621 80.1448C36.5834 80.0875 36.9137 80.1064 37.2264 80.2C37.539 80.2937 37.8251 80.4594 38.0616 80.6839C38.2978 80.8882 38.6207 80.9196 39.2193 80.5032C41.3771 79.0732 41.5425 73.7383 48.6461 70.8783Z" fill="#F7C2A0"/>
<path d="M49.5124 70.7211C49.5124 70.7211 49.6226 73.1647 53.7099 75.2625C58.695 77.8318 55.6236 80.9039 57.939 84.5417C60.3646 88.3681 58.254 81.0768 58.254 81.0768L57.5452 72.764C56.1355 67.3662 54.0722 63.8305 48.8823 64.9069C46.0944 65.4883 43.3696 66.5333 41.9599 68.3954C38.1561 73.3061 37.3213 84.5024 37.3213 84.5024C37.3213 84.5024 41.5031 84.581 43.7082 79.3404C46.1889 73.3847 45.8976 72.434 49.5124 70.7211Z" fill="#FF6D67"/>
<path d="M73.2409 114.336H63.6881C62.9052 114.336 62.2705 114.969 62.2705 115.75V136.414C62.2705 137.195 62.9052 137.829 63.6881 137.829H73.2409C74.0238 137.829 74.6585 137.195 74.6585 136.414V115.75C74.6585 114.969 74.0238 114.336 73.2409 114.336Z" fill="#1C004F"/>
<path d="M81.4629 130.074C78.8719 126.459 75.2571 119.687 74.0286 119.545C73.3671 119.467 73.1544 120.048 73.4458 121.423C74.3121 125.493 75.7139 126.286 71.8707 125.634L66.9801 124.691C66.7226 124.639 66.4556 124.656 66.2072 124.742C65.9587 124.827 65.7379 124.978 65.568 125.178C65.398 125.378 65.2852 125.62 65.2413 125.879C65.1974 126.137 65.224 126.403 65.3184 126.648C65.4804 126.993 65.6987 127.309 65.9642 127.583C65.9642 127.583 65.0585 130.113 67.4763 130.726C67.4763 130.726 67.7598 133.609 69.5711 133.735C71.5002 134.84 73.5087 135.801 75.58 136.611C76.4736 137.207 77.5571 137.451 78.6206 137.295C79.6842 137.14 80.6521 136.597 81.3369 135.77L81.6441 135.401C82.2739 134.645 82.6034 133.685 82.57 132.703C82.5366 131.721 82.1426 130.785 81.4629 130.074Z" fill="#F7C2A0"/>
<path d="M66.4131 127.606C67.9132 128.161 69.4865 128.495 71.0832 128.596" stroke="#F18884" stroke-width="0.5" stroke-miterlimit="10" stroke-linecap="round"/>
<path d="M67.8306 130.797C69.1233 131.294 70.4935 131.559 71.8785 131.583" stroke="#F18884" stroke-width="0.5" stroke-miterlimit="10" stroke-linecap="round"/>
<path d="M52.4971 131.119L55.4031 129.013C57.5058 124.841 61.3805 117.282 62.0814 117.652C62.7823 118.021 63.0579 118.893 62.5382 120.551C61.286 124.519 61.9003 126.467 64.1605 126.295C64.948 126.24 71.6027 126.2 71.6027 126.2C71.6027 126.2 73.1778 127.622 71.0751 129.241C71.0751 129.241 71.524 131.889 69.0353 132.093C69.0353 132.093 68.2478 134.874 66.4522 134.694C64.3584 135.443 62.2135 136.042 60.0338 136.485L56.4505 138.057L52.4971 131.119Z" fill="#F7C2A0"/>
<path d="M70.6577 129.194C69.0827 129.474 67.4759 129.53 65.8853 129.359" stroke="#F18884" stroke-width="0.5" stroke-miterlimit="10" stroke-linecap="round"/>
<path d="M68.7126 132.085C67.3542 132.347 65.9604 132.371 64.5938 132.156" stroke="#F18884" stroke-width="0.5" stroke-miterlimit="10" stroke-linecap="round"/>
<path d="M62.0813 117.652C62.8688 118.053 63.0578 118.894 62.5381 120.552C61.2859 124.519 61.9001 126.468 64.1604 126.295C64.9479 126.24 71.6026 126.201 71.6026 126.201C71.6026 126.201 73.1777 127.623 71.075 129.242C71.075 129.242 71.5238 131.889 69.0352 132.094C69.0352 132.094 68.2477 134.875 66.4521 134.694C64.3583 135.444 62.2134 136.043 60.0337 136.486" stroke="#F18884" stroke-width="0.5" stroke-miterlimit="10" stroke-linecap="round"/>
<path d="M69.6025 133.751C70.5555 134.215 74.0364 135.982 75.6114 136.627" stroke="#F18884" stroke-width="0.5" stroke-miterlimit="10" stroke-linecap="round"/>
<path d="M108.885 238.776C108.885 238.776 106.065 241.055 98.1192 239.837C98.1192 239.837 97.56 244.803 95.3943 247.396C93.2286 249.988 99.5052 253.123 104.207 251.67C108.908 250.216 112.421 253.673 117.075 253.108C121.73 252.542 128.431 247.498 125.943 245.997C123.454 244.496 114.618 244.543 112.421 241.102C112.02 240.496 111.5 239.977 110.892 239.577C110.284 239.178 109.601 238.905 108.885 238.776Z" fill="#5C6467"/>
<path d="M81.9512 242.375C81.9512 242.375 77.5174 245.518 69.6499 243.86C69.6499 243.86 69.7602 248.574 67.4527 251.049C65.1452 253.524 71.2329 256.997 76.0132 255.811C80.7936 254.624 84.1012 258.27 88.7792 257.963C93.4571 257.657 100.443 253.006 98.0327 251.356C95.6229 249.706 85.9362 248.614 83.9279 245.07C83.4467 244.054 82.7758 243.14 81.9512 242.375Z" fill="#5C6467"/>
<path d="M81.5967 183.565C81.2029 179.007 80.7619 175.59 80.2893 174.199C79.108 170.726 68.6181 166.782 58.6006 163.749" stroke="#8E81AC" stroke-width="0.5" stroke-miterlimit="10" stroke-linecap="round"/>
<path d="M81.3209 208.149C81.0138 201.007 80.6437 193.488 80.2026 187.147" stroke="#8E81AC" stroke-width="0.5" stroke-miterlimit="10" stroke-linecap="round"/>
<path d="M73.0127 238.313C76.1298 238.165 79.1028 236.959 81.4393 234.895C81.6888 234.697 81.8895 234.444 82.026 234.157C82.1625 233.87 82.2312 233.555 82.2269 233.237C82.1639 230.88 81.9749 224.374 81.6835 216.423" stroke="#8E81AC" stroke-width="0.5" stroke-miterlimit="10" stroke-linecap="round"/>
<path d="M70.0435 173.885C70.0435 173.885 70.3033 180.445 77.9188 182.755" stroke="#8E81AC" stroke-width="0.5" stroke-miterlimit="10"/>
<path d="M96.0874 168.354C97.3978 172.415 100.27 175.792 104.073 177.743" stroke="#8E81AC" stroke-width="0.5" stroke-miterlimit="10"/>
<path d="M97.812 232.735C101.728 232.71 105.539 231.471 108.719 229.191" stroke="#8E81AC" stroke-width="0.5" stroke-miterlimit="10"/>
<path d="M33.0293 104.672C33.0293 104.672 34.3839 112.529 44.5037 110.486" stroke="#DC44F2" stroke-width="0.5" stroke-miterlimit="10" stroke-linecap="round"/>
<path d="M49.8193 105.222C49.8193 105.222 49.9059 107.414 47.0078 109.15" stroke="#DC44F2" stroke-width="0.5" stroke-miterlimit="10" stroke-linecap="round"/>
<path d="M16.0737 128.706L24.4374 128.636" stroke="#DC44F2" stroke-width="0.5" stroke-miterlimit="10" stroke-linecap="round"/>
<path d="M27.6504 129.72L28.5324 124.134" stroke="#DC44F2" stroke-width="0.5" stroke-miterlimit="10" stroke-linecap="round"/>
<path d="M40.3613 164.079C36.8305 165.026 33.235 165.714 29.6035 166.138" stroke="#DC44F2" stroke-width="0.5" stroke-miterlimit="10" stroke-linecap="round"/>
<path d="M60.3804 154.423C60.3804 154.423 55.5606 158.839 45.7637 162.382" stroke="#DC44F2" stroke-width="0.5" stroke-miterlimit="10" stroke-linecap="round"/>
<path d="M47.5674 157.621C45.4994 158.445 43.3098 158.926 41.0859 159.043" stroke="#DC44F2" stroke-width="0.5" stroke-miterlimit="10" stroke-linecap="round"/>
<path d="M60.278 149.851C57.6271 152.102 54.7505 154.074 51.6938 155.736" stroke="#DC44F2" stroke-width="0.5" stroke-miterlimit="10" stroke-linecap="round"/>
<path d="M41.8103 169.509C41.8103 169.509 44.5194 175.299 40.0068 179.542" stroke="#8E81AC" stroke-width="0.5" stroke-miterlimit="10"/>
</g>
<defs>
<clipPath id="clip0_1110_84">
<rect width="230" height="263" fill="white"/>
</clipPath>
</defs>
</svg>
