<svg width="32" height="33" viewBox="0 0 32 33" fill="none" xmlns="http://www.w3.org/2000/svg">
<path d="M25.1664 21.5233C25.1664 21.9654 24.9908 22.3893 24.6782 22.7018C24.3657 23.0144 23.9417 23.19 23.4997 23.19H8.49968C8.05765 23.19 7.63373 23.0144 7.32117 22.7018C7.00861 22.3893 6.83301 21.9654 6.83301 21.5233V12.3567C6.83301 11.9146 7.00861 11.4907 7.32117 11.1782C7.63373 10.8656 8.05765 10.69 8.49968 10.69H11.8331L13.4997 8.19H18.4997L20.1664 10.69H23.4997C23.9417 10.69 24.3657 10.8656 24.6782 11.1782C24.9908 11.4907 25.1664 11.9146 25.1664 12.3567V21.5233Z" stroke="#60A0FF" stroke-width="1.5" stroke-linecap="round" stroke-linejoin="round"/>
<path d="M16.0004 19.8567C17.8413 19.8567 19.3337 18.3643 19.3337 16.5233C19.3337 14.6824 17.8413 13.19 16.0004 13.19C14.1594 13.19 12.667 14.6824 12.667 16.5233C12.667 18.3643 14.1594 19.8567 16.0004 19.8567Z" stroke="#60A0FF" stroke-width="1.5" stroke-linecap="round" stroke-linejoin="round"/>
</svg>
