<svg width="32" height="33" viewBox="0 0 32 33" fill="none" xmlns="http://www.w3.org/2000/svg">
<g clip-path="url(#clip0_5_8517)">
<path opacity="0.1" d="M16 32.69C24.8366 32.69 32 25.5266 32 16.69C32 7.85345 24.8366 0.690002 16 0.690002C7.16344 0.690002 0 7.85345 0 16.69C0 25.5266 7.16344 32.69 16 32.69Z" fill="#7B61FF"/>
<path d="M26.875 18.5991C26.875 22.5852 23.6779 25.8036 19.75 25.8036C15.8221 25.8036 12.625 22.5852 12.625 18.5991C12.625 14.613 15.8221 11.3945 19.75 11.3945C23.6779 11.3945 26.875 14.613 26.875 18.5991Z" stroke="#7B61FF" stroke-width="1.5"/>
<path fill-rule="evenodd" clip-rule="evenodd" d="M19.9873 11.5122C20.026 11.6037 20.0627 11.6962 20.0973 11.7898C20.6727 11.8193 21.2291 11.9215 21.7576 12.0876C21.7316 11.9842 21.7036 11.8816 21.6736 11.7798C21.1346 11.624 20.5697 11.5319 19.9873 11.5122ZM10.7998 19.5611C8.97375 18.429 7.75 16.3914 7.75 14.0537C7.75 10.4747 10.6184 7.59912 14.125 7.59912C15.9201 7.59912 17.5479 8.35265 18.7093 9.56833C19.0507 9.52862 19.398 9.50821 19.75 9.50821C20.0425 9.50821 20.3317 9.5223 20.617 9.54985C19.1972 7.46562 16.8191 6.09912 14.125 6.09912C9.77576 6.09912 6.25 9.66049 6.25 14.0537C6.25 17.4022 8.29835 20.2675 11.1984 21.4408C11.0027 20.8395 10.8674 20.2105 10.7998 19.5611ZM12.9783 20.4039C13.123 20.9632 13.3334 21.4951 13.6005 21.9908C13.7002 21.9975 13.8005 22.0022 13.9012 22.0051C13.6241 21.5205 13.4042 20.9983 13.2511 20.4479C13.1595 20.4352 13.0686 20.4205 12.9783 20.4039ZM20.5 14.0537C20.5 17.3885 18.0097 20.1126 14.8331 20.4687C15.0214 20.9769 15.2842 21.4475 15.6078 21.8674C19.2482 21.1668 22 17.9348 22 14.0537C22 13.9659 21.9986 13.8784 21.9958 13.7913C21.5186 13.5621 21.0022 13.4038 20.4604 13.3293C20.4866 13.567 20.5 13.8087 20.5 14.0537Z" fill="#7B61FF"/>
</g>
<defs>
<clipPath id="clip0_5_8517">
<rect width="32" height="32" fill="white" transform="translate(0 0.690002)"/>
</clipPath>
</defs>
</svg>
