<svg width="12" height="12" viewBox="0 0 12 12" fill="none" xmlns="http://www.w3.org/2000/svg">
<path d="M2.71636 11.83C2.55636 11.8834 2.41636 11.8634 2.29636 11.77C2.17636 11.6767 2.1297 11.5367 2.15636 11.35L2.75636 7.83004L0.116364 5.31004C0.00969697 5.17671 -0.0236364 5.03004 0.0163636 4.87004C0.0563636 4.71004 0.169697 4.61671 0.356364 4.59004L3.99636 4.07004L5.63636 0.830041C5.71636 0.670041 5.83636 0.590041 5.99636 0.590041C6.15636 0.590041 6.27636 0.670041 6.35636 0.830041L7.99636 4.07004L11.6764 4.59004C11.8364 4.61671 11.9364 4.71004 11.9764 4.87004C12.0164 5.03004 11.983 5.17671 11.8764 5.31004L9.23636 7.83004L9.83636 11.35C9.86303 11.5367 9.81636 11.6767 9.69636 11.77C9.57636 11.8634 9.43636 11.8834 9.27636 11.83L5.99636 10.11L2.71636 11.83Z" fill="#FFC107"/>
</svg>
