<svg width="30" height="30" viewBox="0 0 30 30" fill="none" xmlns="http://www.w3.org/2000/svg">
<path fill-rule="evenodd" clip-rule="evenodd" d="M25.7521 1.56086H4.24806C3.54582 1.55009 2.86808 1.81875 2.36396 2.30776C1.85985 2.79674 1.57068 3.466 1.56006 4.16822V19.8009C1.57068 20.5031 1.85985 21.1724 2.36396 21.6614C2.86808 22.1502 3.54582 22.419 4.24806 22.4083H11.6785C12.0972 22.406 12.5108 22.4993 12.8881 22.6809L23.738 28.4409L23.6401 19.8009H26.3857C27.5004 19.818 28.4191 18.9302 28.4401 17.8157V4.16822C28.4295 3.466 28.1404 2.79674 27.6362 2.30776C27.132 1.81875 26.4542 1.55009 25.7521 1.56086Z" stroke="black" stroke-width="2.88" stroke-linecap="round" stroke-linejoin="round"/>
</svg>
