<svg width="16" height="16" viewBox="0 0 16 16" fill="none" xmlns="http://www.w3.org/2000/svg">
<path d="M14.8708 7.3169L11.5773 4.28651C11.5041 4.21791 11.4088 4.18095 11.3105 4.18307C11.2123 4.18518 11.1185 4.22621 11.048 4.2979C11.0098 4.33681 10.9796 4.38356 10.9593 4.43524C10.939 4.48692 10.9291 4.54242 10.9302 4.59827C10.9313 4.65413 10.9434 4.70916 10.9657 4.75992C10.9879 4.81068 11.0199 4.8561 11.0597 4.89334L12.3888 6.08269V12.0331V13.7082C12.3888 14.0009 12.2506 14.1789 12.1873 14.1789H10.1083C10.0709 14.1788 10.0351 14.1631 10.0087 14.1354C9.98231 14.1077 9.96742 14.0702 9.96732 14.031V10.3767C9.96732 10.2503 9.94355 10.1251 9.89739 10.0083C9.85122 9.89153 9.78355 9.78541 9.69825 9.69602C9.61294 9.60663 9.51167 9.53573 9.40022 9.48736C9.28877 9.439 9.16931 9.41411 9.04868 9.41413H6.94973C6.8291 9.41411 6.70964 9.439 6.59819 9.48736C6.48674 9.53573 6.38547 9.60663 6.30016 9.69602C6.21486 9.78541 6.14719 9.89153 6.10102 10.0083C6.05485 10.1251 6.03109 10.2503 6.03109 10.3767V14.037C6.03099 14.0762 6.01611 14.1137 5.98969 14.1414C5.96328 14.1691 5.92748 14.1847 5.89011 14.1849H3.81116C3.75776 14.1847 3.7066 14.1624 3.66885 14.1228C3.63109 14.0832 3.6098 14.0296 3.60963 13.9737V6.04339L7.98046 1.95154L9.30547 3.24879C9.38174 3.32024 9.48183 3.35727 9.58399 3.35184C9.68615 3.3464 9.78214 3.29894 9.85112 3.21977C9.88573 3.18003 9.91248 3.1335 9.92982 3.08286C9.94716 3.03222 9.95475 2.97849 9.95215 2.92475C9.94955 2.87102 9.93682 2.81836 9.91467 2.76982C9.89253 2.72128 9.86143 2.67783 9.82316 2.64196L8.28309 1.14225C8.27189 1.13055 8.25928 1.12042 8.24559 1.11212C8.17483 1.04172 8.08142 1.00173 7.98386 1.00005C7.8863 0.998383 7.79169 1.03516 7.71876 1.10309L1.13039 7.27802C1.05325 7.35005 1.00658 7.45125 1.00064 7.55935C0.994706 7.66745 1.02998 7.77359 1.09872 7.85443C1.16746 7.93527 1.26402 7.98418 1.36717 7.99041C1.47032 7.99663 1.5716 7.95966 1.64873 7.88762L2.83502 6.77408V13.9741C2.83544 14.2461 2.93873 14.5068 3.12225 14.6991C3.30577 14.8914 3.55456 14.9996 3.81408 15H5.89289C6.01352 15 6.13296 14.9751 6.24441 14.9268C6.35585 14.8784 6.45712 14.8075 6.54241 14.7181C6.62771 14.6287 6.69536 14.5226 6.74151 14.4058C6.78767 14.289 6.81141 14.1638 6.8114 14.0374V10.3767C6.8115 10.3375 6.8264 10.3 6.85284 10.2723C6.87928 10.2446 6.91512 10.2289 6.95251 10.2288H9.0516C9.089 10.2289 9.12483 10.2446 9.15127 10.2723C9.17771 10.3 9.19261 10.3375 9.19272 10.3767V14.037C9.19272 14.2923 9.28948 14.5371 9.46174 14.7176C9.63399 14.8982 9.86761 14.9996 10.1112 14.9996H12.1902C12.7373 14.9996 13.1691 14.4354 13.1691 13.7141V6.81269L14.3554 7.92622C14.4327 7.99774 14.5339 8.03437 14.6369 8.02816C14.7399 8.02194 14.8364 7.97339 14.9054 7.89304C14.972 7.81105 15.0057 7.70513 14.9992 7.59764C14.9928 7.49015 14.9467 7.38949 14.8708 7.3169Z" fill="black" stroke="black" stroke-width="0.5"/>
</svg>
