<svg width="18" height="17" viewBox="0 0 18 17" fill="none" xmlns="http://www.w3.org/2000/svg">
<path d="M4 7.01153H1V16.0115H4V7.01153Z" fill="#CCCCCC"/>
<path d="M6 16.0115V7.01153C6 7.01153 6.81048 3.01158 7 2.51153C7.18952 2.01148 8.0335 0.873456 9 1.01153C9.8201 1.12868 10.5 1.86466 10.5 2.51153V7.01153H15.5C16.5 7.01147 17.5 7.51159 17 9.51153C16.5 11.5115 16 14.0116 15.5 15.0115C15 16.0115 14.5 16.0115 13.5 16.0115H6Z" fill="#CCCCCC"/>
<path d="M4 7.01153H1V16.0115H4V7.01153Z" stroke="#CCCCCC"/>
<path d="M6 16.0115V7.01153C6 7.01153 6.81048 3.01158 7 2.51153C7.18952 2.01148 8.0335 0.873456 9 1.01153C9.8201 1.12868 10.5 1.86466 10.5 2.51153V7.01153H15.5C16.5 7.01147 17.5 7.51159 17 9.51153C16.5 11.5115 16 14.0116 15.5 15.0115C15 16.0115 14.5 16.0115 13.5 16.0115H6Z" stroke="#CCCCCC"/>
</svg>
