<svg width="18" height="17" viewBox="0 0 18 17" fill="none" xmlns="http://www.w3.org/2000/svg">
<path d="M3.99944 9.9991H1L1 1.00001H3.99944L3.99944 9.9991Z" fill="#CCCCCC"/>
<path d="M5.99907 1.00001L5.99907 9.9991C5.99907 9.9991 6.8094 13.9986 6.99889 14.4986C7.18837 14.9986 8.0322 16.1365 8.99852 15.9985C9.81846 15.8813 10.4982 15.1454 10.4982 14.4986L10.4982 9.9991L15.4973 9.9991C16.4971 9.99915 17.4969 9.49909 16.997 7.49935C16.4971 5.49961 15.9972 2.99975 15.4973 1.99991C14.9974 1.00007 14.4975 1.00001 13.4977 1.00001H5.99907Z" fill="#CCCCCC"/>
<path d="M3.99944 9.9991H1L1 1.00001H3.99944L3.99944 9.9991Z" stroke="#CCCCCC"/>
<path d="M5.99907 1.00001L5.99907 9.9991C5.99907 9.9991 6.8094 13.9986 6.99889 14.4986C7.18837 14.9986 8.0322 16.1365 8.99852 15.9985C9.81846 15.8813 10.4982 15.1454 10.4982 14.4986L10.4982 9.9991L15.4973 9.9991C16.4971 9.99915 17.4969 9.49909 16.997 7.49935C16.4971 5.49961 15.9972 2.99975 15.4973 1.99991C14.9974 1.00007 14.4975 1.00001 13.4977 1.00001H5.99907Z" stroke="#CCCCCC"/>
</svg>
