<svg width="16" height="20" viewBox="0 0 16 20" fill="none" xmlns="http://www.w3.org/2000/svg">
<path d="M0 13.5534C0 17.3385 3.62182 19.7966 3.77601 19.8994C4.22806 20.2007 4.81379 19.7742 4.66428 19.251C3.74571 16.036 3.84975 12.696 6.32854 10.4308C6.02639 11.5442 6.10665 12.4509 6.56831 13.1289C7.45728 14.4346 9.43246 14.4028 10.9891 14.169C12.1939 15.2319 11.3343 17.6957 10.6073 19.1499C10.3391 19.6863 10.961 20.2295 11.4562 19.8993C14.0816 18.1491 15.4848 15.9521 15.627 13.3692C15.887 8.64484 11.5531 3.12439 7.99259 0.137674C7.61237 -0.181303 7.03019 0.0894385 7.03019 0.586515C7.03019 3.87784 5.31614 5.48565 3.50148 7.1879C1.78005 8.80271 0 10.4725 0 13.5534ZM8.1216 1.83856C11.0906 4.67163 14.6831 9.22116 14.4569 13.3067C14.3698 14.8799 13.7134 16.2971 12.5003 17.5387C13.4506 14.1108 11.4921 13.0788 11.3932 13.0294C11.2824 12.974 11.1569 12.9552 11.0349 12.9755C9.18297 13.2841 7.97361 13.1095 7.53746 12.4705C6.93228 11.5838 7.77501 9.74359 8.11843 9.16797C8.40648 8.68796 7.91796 8.11496 7.3985 8.32258C5.6118 9.03736 2.16222 11.9134 3.13576 17.8024C2.22702 16.855 1.1717 15.3648 1.1717 13.5534C1.1717 10.9799 2.62286 9.61865 4.30313 8.04247C5.91813 6.52753 7.72361 4.83364 8.1216 1.83856Z" fill="#ff0000"/>
</svg>
