<svg width="48" height="48" viewBox="0 0 48 48" fill="none" xmlns="http://www.w3.org/2000/svg">
<path d="M23.7934 0C10.6488 0 0 10.6536 0 23.7934C0 36.9332 10.6536 47.5868 23.7934 47.5868C36.9332 47.5868 47.5868 36.9332 47.5868 23.7934C47.5868 10.6536 36.9332 0 23.7934 0ZM40.2108 18.2869L21.8559 36.1659C21.3946 36.6127 20.6468 36.6127 20.1855 36.1659L19.8165 35.8018L19.4183 35.4133L17.6848 33.7283C17.6702 33.7186 17.6702 33.7041 17.6605 33.6895L9.72615 25.9008C9.26485 25.4492 9.26485 24.7257 9.72615 24.2741L12.2269 21.8365C12.6882 21.3849 13.436 21.3849 13.8973 21.8365L21.0353 28.8434L36.0397 14.2226C36.501 13.771 37.2488 13.771 37.7101 14.2226L40.2157 16.6602C40.6721 17.107 40.6721 17.8353 40.2108 18.2869Z" fill="black" fill-opacity="0.5"/>
</svg>
