<svg width="26" height="26" viewBox="0 0 26 26" fill="none" xmlns="http://www.w3.org/2000/svg">
<path d="M12.9998 0.26001C5.96157 0.26001 0.259766 5.96441 0.259766 13C0.259766 20.0356 5.96417 25.74 12.9998 25.74C20.0354 25.74 25.7398 20.0356 25.7398 13C25.7398 5.96441 20.0354 0.26001 12.9998 0.26001ZM21.7904 10.0516L11.9624 19.6248C11.7154 19.864 11.315 19.864 11.068 19.6248L10.8704 19.4298L10.6572 19.2218L9.72897 18.3196C9.72117 18.3144 9.72117 18.3066 9.71597 18.2988L5.46757 14.1284C5.22057 13.8866 5.22057 13.4992 5.46757 13.2574L6.80656 11.9522C7.05357 11.7104 7.45397 11.7104 7.70097 11.9522L11.523 15.704L19.557 7.87541C19.804 7.63361 20.2044 7.63361 20.4514 7.87541L21.793 9.18061C22.0374 9.41981 22.0374 9.80981 21.7904 10.0516Z" fill="#FF0000"/>
</svg>
