<svg width="12" height="17" viewBox="0 0 12 17" fill="none" xmlns="http://www.w3.org/2000/svg">
<path fill-rule="evenodd" clip-rule="evenodd" d="M3.02177 0.238352C2.94396 0.28821 2.8443 0.386624 2.80032 0.45704C2.7252 0.577453 2.71909 0.841533 2.69827 4.8893L2.67612 9.19349L1.53906 9.21678L0.402048 9.23998L0.283609 9.35625C0.0303958 9.60498 -0.0318787 9.95153 0.127392 10.2258C0.304692 10.5311 0.341451 10.5398 1.56674 10.5655L2.67612 10.5888L2.68839 11.2748L2.70062 11.9608H1.65719C0.539 11.9608 0.390354 11.9859 0.20712 12.2053C-0.0672686 12.5338 0.00598998 13.0357 0.361475 13.2633C0.495238 13.349 0.5863 13.3557 1.60205 13.3559L2.69827 13.3561L2.69845 14.856C2.69858 16.2707 2.70358 16.3645 2.78663 16.5075C3.0457 16.9537 3.5958 16.9519 3.91222 16.5038C4.00107 16.378 4.00541 16.3103 4.01822 14.8644L4.03159 13.3561L6.09997 13.3559C8.08572 13.3557 8.17411 13.352 8.31267 13.2633C8.76339 12.9747 8.7371 12.2762 8.26701 12.0521C8.09123 11.9683 7.95576 11.9628 6.05339 11.9618L4.02703 11.9608V11.2652V10.5698L5.02684 10.5547L7.58467 10.5398L8.02663 10.4132C9.43354 10.0098 10.6678 8.92489 11.2644 7.5669C12.1154 5.63001 11.7683 3.34486 10.3875 1.79489C9.84261 1.18328 8.99242 0.62001 8.26058 0.385741C7.55237 0.1591 7.36699 0.147659 4.39568 0.147705C3.15612 0.147705 3.15815 0.151054 3.02177 0.238352ZM7.46548 1.6135C8.6013 1.83977 9.61016 2.67829 10.0865 3.792C10.4826 4.7182 10.4966 5.8921 10.1226 6.83628C9.72184 7.84824 8.86296 8.67316 7.86228 9.00727C7.34529 9.17997 6.75902 9.21661 4.51748 9.21669L4.02703 9.21678V5.3797V1.54267H4.78943C6.6824 1.54267 7.17535 1.55574 7.46548 1.6135Z" fill="#ACACAC"/>
</svg>
