<svg width="29" height="29" viewBox="0 0 29 29" fill="none" xmlns="http://www.w3.org/2000/svg">
<path d="M7.66666 27.6667H3.66666C2.95942 27.6667 2.28114 27.3857 1.78104 26.8856C1.28095 26.3855 1 25.7073 1 25V15.6667C1 14.9594 1.28095 14.2812 1.78104 13.7811C2.28114 13.281 2.95942 13 3.66666 13H7.66666M7.66666 27.6667V13M7.66666 27.6667H22.7067C23.3498 27.674 23.9739 27.4486 24.4639 27.032C24.9539 26.6155 25.2769 26.0359 25.3733 25.4L27.2133 13.4C27.2714 13.0178 27.2456 12.6276 27.1378 12.2564C27.03 11.8851 26.8428 11.5418 26.5892 11.25C26.3355 10.9583 26.0215 10.7253 25.6688 10.567C25.3161 10.4087 24.9332 10.329 24.5467 10.3334H17V5C17 3.93913 16.5786 2.92171 15.8284 2.17157C15.0783 1.42142 14.0609 1 13 1L7.66666 13" stroke="black" stroke-width="2" stroke-linecap="round" stroke-linejoin="round"/>
</svg>
