<svg width="45" height="50" viewBox="0 0 45 50" fill="none" xmlns="http://www.w3.org/2000/svg">
<path d="M45 31.4275C45 36.1625 38.845 40 31.25 40C23.655 40 17.5 36.1625 17.5 31.4275C17.5 26.6925 23.655 22.8575 31.25 22.8575C38.845 22.8575 45 26.695 45 31.4275ZM31.25 44.6425C23.655 44.6425 17.5 40.805 17.5 36.0725V41.4275C17.5 46.1625 23.655 50 31.25 50C38.845 50 45 46.1625 45 41.4275V36.0725C45 40.805 38.845 44.6425 31.25 44.6425ZM13.75 17.1425C21.345 17.1425 27.5 13.305 27.5 8.5725C27.5 3.84 21.345 0 13.75 0C6.155 0 0 3.8375 0 8.5725C0 13.3075 6.155 17.1425 13.75 17.1425ZM13.4375 27.1425C14.6254 24.657 16.5226 22.5788 18.89 21.17C17.2088 21.5886 15.4825 21.7985 13.75 21.795C6.155 21.785 0 17.9475 0 13.215V18.57C0 23.25 6 27.0275 13.4375 27.1325V27.1425ZM13.75 50C14.6517 49.9993 15.5526 49.9434 16.4475 49.8325C14.8767 48.4183 13.6971 46.6231 13.0225 44.62C5.7675 44.3825 0 40.6525 0 36.0725V41.4275C0 46.1625 6.155 50 13.75 50ZM12.5 38.89V33.5C5.5 33.1 0 29.4675 0 25V30.3575C0 34.8275 5.5 38.5 12.5 38.89Z" fill="black"/>
</svg>
