<svg width="14" height="14" viewBox="0 0 14 14" fill="none" xmlns="http://www.w3.org/2000/svg">
<path d="M9.53446 13.27C9.11482 13.27 8.69874 13.1958 8.29187 13.048C6.49941 12.3969 4.83563 11.3363 3.48034 9.98105C2.12504 8.62578 1.06452 6.96197 0.413402 5.16952C0.204166 4.59348 0.142419 3.99886 0.229937 3.4021C0.31192 2.84312 0.528442 2.30047 0.85612 1.8328C1.18524 1.36306 1.62403 0.972366 2.12502 0.702958C2.65926 0.415674 3.24239 0.269989 3.85824 0.269989C4.04978 0.269989 4.21532 0.403818 4.25546 0.591091L4.89309 3.56673C4.92196 3.70147 4.88055 3.84167 4.78313 3.93911L3.69359 5.02863C4.72141 7.07214 6.3892 8.73993 8.4327 9.76775L9.52222 8.67821C9.61967 8.58079 9.75989 8.53943 9.89461 8.56825L12.8702 9.20588C13.0575 9.24602 13.1913 9.41156 13.1913 9.6031C13.1913 10.2189 13.0456 10.8021 12.7583 11.3364C12.4889 11.8373 12.0982 12.2761 11.6285 12.6052C11.1608 12.9329 10.6182 13.1495 10.0592 13.2314C9.88405 13.2572 9.70891 13.27 9.53446 13.27ZM3.53366 1.10023C2.72132 1.1899 2.0003 1.61569 1.52151 2.29905C0.983093 3.06747 0.857542 4.01259 1.17704 4.89214C2.42885 8.33816 5.12322 11.0325 8.56925 12.2844C9.44877 12.6039 10.3939 12.4783 11.1623 11.9399C11.8457 11.4611 12.2715 10.7401 12.3611 9.92773L9.94049 9.40902L8.80263 10.5469C8.68155 10.668 8.49757 10.7001 8.34265 10.6273C5.92581 9.49189 3.96949 7.53557 2.83407 5.11874C2.76128 4.96379 2.79342 4.77981 2.91451 4.65876L4.05237 3.5209L3.53366 1.10023Z" fill="black"/>
</svg>
