<svg width="18" height="16" viewBox="0 0 18 16" fill="none" xmlns="http://www.w3.org/2000/svg">
<path d="M9.30235 14.8781C9.22212 14.9562 9.11331 15.0001 8.99986 15.0001C8.88641 15.0001 8.77761 14.9562 8.69738 14.8781C7.77965 13.9844 6.87076 13.192 5.99168 12.4259C4.66165 11.2663 3.40521 10.1712 2.50474 9.02841C1.47791 7.72566 1 6.47846 1 5.10336C0.999189 4.55548 1.11237 4.01311 1.33273 3.50899C1.76301 2.526 2.567 1.74312 3.57649 1.32413C4.09425 1.10952 4.65129 0.999258 5.214 1C6.24468 1 7.04389 1.24872 7.72916 1.78268C8.18482 2.1375 8.58999 2.6198 9 3.3029C9.41002 2.61966 9.81519 2.1375 10.2708 1.78268C10.9561 1.24872 11.7553 1 12.786 1C13.9179 1 14.9789 1.42828 15.7734 2.20582C16.1638 2.58625 16.4732 3.03809 16.6837 3.53536C16.8942 4.03263 17.0016 4.56551 16.9999 5.10336C16.9999 6.10129 16.7439 7.03742 16.2173 7.96508C15.8311 8.64555 15.2956 9.33046 14.547 10.0984C14.5078 10.1387 14.4607 10.1709 14.4085 10.1932C14.3563 10.2155 14.3001 10.2274 14.2431 10.2282C14.1862 10.2291 14.1296 10.2188 14.0767 10.1981C14.0239 10.1773 13.9758 10.1465 13.9353 10.1074C13.8558 10.0307 13.8103 9.92662 13.8086 9.81757C13.807 9.70852 13.8493 9.60318 13.9265 9.52418C15.5005 7.90772 16.1472 6.60442 16.1442 5.09253C16.1406 3.28471 14.6272 1.82795 12.7708 1.83295C11.209 1.83698 10.3526 2.47856 9.38236 4.36763C9.22548 4.67467 8.77467 4.67453 8.61708 4.36763C7.65058 2.48537 6.79688 1.8417 5.24566 1.83309C3.3774 1.82268 1.85498 3.28471 1.85555 5.10434C1.85627 7.70233 3.93303 9.51279 6.56186 11.8047C7.35351 12.4949 8.16927 13.2059 8.99929 13.9972C9.82945 13.2057 10.6452 12.4948 11.4369 11.8047L11.5735 11.6856C11.6579 11.6119 11.7689 11.5739 11.8821 11.5799C11.9953 11.5859 12.1014 11.6354 12.1772 11.7175C12.2148 11.7582 12.2438 11.8058 12.2625 11.8575C12.2812 11.9091 12.2892 11.9639 12.2862 12.0185C12.2831 12.0732 12.269 12.1268 12.2447 12.1762C12.2204 12.2256 12.1863 12.2698 12.1444 12.3063L12.0076 12.4255C11.1285 13.1918 10.2197 13.984 9.30192 14.8778L9.30235 14.8781Z" fill="black" stroke="black" stroke-width="0.5"/>
</svg>
