<svg width="13" height="13" viewBox="0 0 13 13" fill="none" xmlns="http://www.w3.org/2000/svg">
<path d="M3.2373 8.10651L3.36146 8.23264L3.33347 8.4074L2.68385 12.4632C2.66745 12.5909 2.70032 12.6177 2.71153 12.6269C2.71184 12.6271 2.71213 12.6274 2.71241 12.6276C2.73361 12.6452 2.74624 12.6482 2.75322 12.6493C2.76011 12.6503 2.77606 12.6514 2.80446 12.6438L6.32944 10.6766L6.5 10.5814L6.67056 10.6766L10.1955 12.6438C10.2239 12.6514 10.2399 12.6503 10.2468 12.6493C10.2538 12.6482 10.2664 12.6452 10.2876 12.6276C10.2879 12.6274 10.2882 12.6271 10.2885 12.6269C10.2997 12.6177 10.3325 12.5909 10.3162 12.4633L9.66653 8.4074L9.63854 8.23264L9.7627 8.10651L12.6056 5.2186C12.6501 5.15284 12.6593 5.09313 12.6415 5.01744C12.6333 4.98237 12.6241 4.96935 12.622 4.96673C12.6217 4.96659 12.6213 4.96635 12.6206 4.96603C12.6184 4.96494 12.612 4.96214 12.5993 4.95964L8.61593 4.36063L8.43186 4.33295L8.35191 4.16485L6.57416 0.427197L6.57346 0.425695C6.54876 0.373137 6.52904 0.357458 6.52511 0.354671C6.52312 0.353252 6.52186 0.352694 6.52013 0.352166C6.51813 0.351557 6.51206 0.349999 6.5 0.349999C6.48794 0.349999 6.48187 0.351557 6.47987 0.352166C6.47814 0.352694 6.47688 0.353252 6.47488 0.354671C6.47096 0.357458 6.45124 0.373137 6.42655 0.425697L6.42583 0.427196L4.64809 4.16485L4.56829 4.33262L4.38463 4.36054L0.438901 4.96041C0.412902 4.96437 0.396272 4.96977 0.386527 4.97392C0.377211 4.97789 0.37372 4.98088 0.373084 4.98143L0.373057 4.98146C0.372558 4.98189 0.371395 4.98291 0.369399 4.98642C0.367128 4.99041 0.362611 4.99978 0.358463 5.01744C0.340681 5.09314 0.3499 5.15284 0.394418 5.2186L3.2373 8.10651Z" stroke="black" stroke-width="0.7"/>
</svg>
