<svg width="29" height="29" viewBox="0 0 29 29" fill="none" xmlns="http://www.w3.org/2000/svg">
<path d="M8.33268 27.9633H4.33268C3.62544 27.9633 2.94716 27.6823 2.44706 27.1822C1.94697 26.6821 1.66602 26.0039 1.66602 25.2966V15.9633C1.66602 15.256 1.94697 14.5778 2.44706 14.0777C2.94716 13.5776 3.62544 13.2966 4.33268 13.2966H8.33268M8.33268 27.9633V13.2966M8.33268 27.9633H23.3727C24.0158 27.9706 24.6399 27.7452 25.1299 27.3286C25.6199 26.9121 25.9429 26.3325 26.0393 25.6966L27.8793 13.6966C27.9374 13.3144 27.9116 12.9242 27.8038 12.553C27.696 12.1817 27.5088 11.8384 27.2552 11.5466C27.0015 11.2549 26.6875 11.0219 26.3348 10.8636C25.9821 10.7053 25.5992 10.6256 25.2127 10.63H17.666V5.29663C17.666 4.23576 17.2446 3.21834 16.4944 2.4682C15.7443 1.71805 14.7269 1.29663 13.666 1.29663L8.33268 13.2966" stroke="#60A0FF" stroke-width="2" stroke-linecap="round" stroke-linejoin="round"/>
</svg>
