<svg width="20" height="17" viewBox="0 0 20 17" fill="none" xmlns="http://www.w3.org/2000/svg">
<path d="M19.1664 14.5233C19.1664 14.9654 18.9908 15.3893 18.6782 15.7018C18.3657 16.0144 17.9417 16.19 17.4997 16.19H2.49968C2.05765 16.19 1.63373 16.0144 1.32117 15.7018C1.00861 15.3893 0.833008 14.9654 0.833008 14.5233V5.3567C0.833008 4.9146 1.00861 4.4907 1.32117 4.1782C1.63373 3.8656 2.05765 3.69 2.49968 3.69H5.83306L7.49966 1.19H12.4997L14.1664 3.69H17.4997C17.9417 3.69 18.3657 3.8656 18.6782 4.1782C18.9908 4.4907 19.1664 4.9146 19.1664 5.3567V14.5233Z" stroke="#60A0FF" stroke-width="1.5" stroke-linecap="round" stroke-linejoin="round"/>
</svg>
