<svg width="54" height="54" viewBox="0 0 54 54" fill="none" xmlns="http://www.w3.org/2000/svg">
<path d="M23.2487 30.7505L49.4988 4.50043M23.5677 31.5705L30.138 48.4655C30.7167 49.954 31.0062 50.6983 31.4232 50.9155C31.7847 51.1038 32.2155 51.104 32.577 50.916C32.9942 50.6993 33.2847 49.9555 33.8652 48.4677L50.341 6.24843C50.8652 4.90548 51.1273 4.234 50.9838 3.80493C50.8593 3.4323 50.567 3.1399 50.1943 3.0154C49.7653 2.87208 49.0938 3.1341 47.7508 3.65818L5.53145 20.134C4.04375 20.7146 3.29992 21.0049 3.08315 21.4222C2.89522 21.7839 2.89547 22.2145 3.08382 22.576C3.30107 22.993 4.04527 23.2825 5.53362 23.8613L22.4287 30.4315C22.7307 30.549 22.8817 30.6078 23.009 30.6985C23.1217 30.7788 23.2202 30.8775 23.3007 30.9903C23.3915 31.1175 23.4502 31.2685 23.5677 31.5705Z" stroke="black" stroke-width="5" stroke-linecap="round" stroke-linejoin="round"/>
</svg>
