<svg width="16" height="19" viewBox="0 0 16 19" fill="none" xmlns="http://www.w3.org/2000/svg">
<path d="M14.625 1.72824C14.2292 1.83426 13.8924 2.09403 13.6146 2.50753C13.3368 2.92104 13.1979 3.37165 13.1979 3.85937C13.1979 4.2764 13.2135 4.92316 13.2448 5.79966C13.276 6.67617 13.2917 7.31585 13.2917 7.71875C13.2917 8.22768 13.2465 8.66591 13.1563 9.03348C13.066 9.40106 12.9497 9.69793 12.8073 9.92411C12.6649 10.1503 12.4722 10.3376 12.2292 10.486C11.9861 10.6345 11.7448 10.7423 11.5052 10.8094C11.2656 10.8766 10.9688 10.9384 10.6146 10.995C10.9132 10.4648 11.0625 9.8923 11.0625 9.27734C11.0625 8.66239 10.941 8.02801 10.6979 7.37416C10.4549 6.72032 10.1684 6.12483 9.83854 5.58761C9.50867 5.05039 9.16321 4.59448 8.80208 4.21987C9.48958 3.37873 10.2743 2.74786 11.1563 2.32729C12.0382 1.90671 13.1945 1.70703 14.625 1.72824ZM8.66667 11.5357C9.74304 11.2742 10.2847 10.5674 10.2917 9.41518C10.2986 8.92746 10.2083 8.4044 10.0208 7.84598C9.83333 7.28756 9.56771 6.72918 9.22396 6.17076C8.88021 5.61234 8.44446 5.0769 7.91667 4.56445C7.38888 4.052 6.80904 3.59961 6.17708 3.20731C5.54513 2.81501 4.82117 2.50576 4.00521 2.27958C3.18924 2.05339 2.34722 1.94736 1.47917 1.9615C1.86805 2.06752 2.20313 2.36617 2.48438 2.85742C2.76563 3.34867 2.90625 3.84525 2.90625 4.3471C2.90625 4.77121 2.89063 5.37908 2.85938 6.17076C2.82813 6.96244 2.8125 7.55619 2.8125 7.95201C2.8125 8.42561 2.8993 8.86206 3.07292 9.26144C3.24653 9.66082 3.4809 9.99833 3.77604 10.274C4.07118 10.5497 4.41321 10.7829 4.80208 10.9738C5.19096 11.1646 5.59896 11.306 6.02604 11.3979C6.45313 11.4898 6.88888 11.5357 7.33333 11.5357V14.25C7.11804 13.9814 6.75867 13.7093 6.25521 13.4336C5.75175 13.1579 5.21179 12.9247 4.63542 12.7338C3.81597 12.4511 2.94618 12.3221 2.02604 12.3468C1.1059 12.3715 0.430554 12.5536 0 12.8929C0.993054 14.2076 2.17014 15.0558 3.53125 15.4375C4.89238 15.8192 6.15971 15.6496 7.33333 14.9286V18.3214C7.33333 18.6962 7.63179 19 8 19C8.36821 19 8.66667 18.6962 8.66667 18.3214V16.9643C9.29167 17.2541 9.94617 17.4078 10.6302 17.4255C11.3143 17.4432 11.9774 17.3354 12.6198 17.1021C13.2622 16.8689 13.8785 16.5084 14.4688 16.0206C15.059 15.5329 15.5695 14.9427 16 14.25C15.6667 14.045 15.2344 13.8824 14.7031 13.7623C14.1719 13.6421 13.5799 13.5979 12.9271 13.6297C12.2743 13.6616 11.6875 13.7906 11.1667 14.0167C10.7292 14.2076 10.2778 14.5133 9.8125 14.9339C9.34721 15.3545 8.96529 15.7591 8.66667 16.1479V11.5357ZM12.125 1.02846C12.125 1.19103 11.9531 1.36775 11.6094 1.55859C11.2656 1.74944 10.8507 1.93676 10.3646 2.12054C9.87846 2.30431 9.61113 2.41034 9.5625 2.43862C9.58333 2.26897 9.51217 2.11347 9.34896 1.9721C9.18575 1.83073 9 1.72647 8.79167 1.65932C8.58333 1.59217 8.38717 1.52855 8.20313 1.46847C8.01908 1.40839 7.92363 1.36421 7.91667 1.33594C7.88196 1.25112 8.06075 1.19633 8.45313 1.1716C8.8455 1.14686 9.23958 1.12565 9.63542 1.10798C10.0313 1.09031 10.2188 1.04613 10.1979 0.975446C10.184 0.933036 10.1406 0.895926 10.0677 0.864118C9.99479 0.83231 9.89758 0.805804 9.77604 0.784598C9.6545 0.763393 9.52604 0.74572 9.39063 0.731585C9.25521 0.717449 9.10938 0.706847 8.95313 0.699777C8.79688 0.692707 8.66146 0.687406 8.54688 0.683873L8.20313 0.67327C8.20313 0.67327 8.13542 0.671502 8 0.667969C7.72917 0.653833 7.29513 0.675039 6.69792 0.731585C6.10071 0.788131 5.81596 0.876489 5.84375 0.996652C5.86458 1.09561 6.04167 1.20164 6.375 1.31473C6.70833 1.42783 7.06771 1.53209 7.45313 1.62751C7.83854 1.72294 8.19096 1.859 8.51042 2.03571C8.82988 2.21243 8.98958 2.41388 8.98958 2.64007C8.98958 2.71782 8.98263 2.7832 8.96875 2.83622C8.95488 2.88923 8.92013 2.94933 8.86458 3.01646C8.80904 3.0836 8.76042 3.14017 8.71875 3.1861C8.67708 3.23204 8.59375 3.30982 8.46875 3.41936C8.34375 3.52891 8.23958 3.62612 8.15625 3.71094C7.84375 3.37873 7.49304 3.0995 7.10417 2.87333C6.71529 2.64714 6.20488 2.47749 5.57292 2.3644C5.10071 2.27251 4.71179 2.117 4.40625 1.89788C4.1007 1.67876 3.94792 1.43489 3.94792 1.16629C3.94792 0.982516 4.02604 0.821708 4.18229 0.683873C4.33854 0.546038 4.55554 0.436478 4.83333 0.35519C5.11113 0.273901 5.38888 0.206752 5.66667 0.153739C5.94446 0.100725 6.25867 0.0653846 6.60938 0.0477121C6.96008 0.0300395 7.22742 0.0176725 7.41146 0.0106027C7.5955 0.00353281 7.79167 0 8 0C10.75 0 12.125 0.342818 12.125 1.02846Z" fill="#000000"/>
</svg>
