<svg width="29" height="29" viewBox="0 0 29 29" fill="none" xmlns="http://www.w3.org/2000/svg">
<path d="M20.577 1.0002H24.577C25.2842 1.0002 25.9625 1.2812 26.4626 1.7813C26.9627 2.2814 27.2437 2.9596 27.2437 3.6669V13.0002C27.2437 13.7075 26.9627 14.3857 26.4626 14.8858C25.9625 15.3859 25.2842 15.6669 24.577 15.6669H20.577M20.577 1.0002L20.577 15.6669M20.577 1.0002L5.53697 1.0002C4.89387 0.9929 4.26977 1.2183 3.77977 1.6349C3.28977 2.0514 2.96677 2.631 2.87037 3.2669L1.03037 15.2669C0.972273 15.6491 0.998071 16.0393 1.10587 16.4105C1.21367 16.7818 1.40087 17.1251 1.65447 17.4169C1.90817 17.7086 2.22217 17.9416 2.57487 18.0999C2.92757 18.2582 3.31047 18.3379 3.69697 18.3335L11.2437 18.3335L11.2437 23.6669C11.2437 24.7277 11.6651 25.7452 12.4153 26.4953C13.1654 27.2455 14.1828 27.6669 15.2437 27.6669L20.577 15.6669" stroke="black" stroke-width="2" stroke-linecap="round" stroke-linejoin="round"/>
</svg>
