<svg width="67" height="110" viewBox="0 0 67 110" fill="none" xmlns="http://www.w3.org/2000/svg">
<path fill-rule="evenodd" clip-rule="evenodd" d="M27.5016 22C21.4263 22 16.5016 17.0751 16.5016 11C16.5016 4.92486 21.4263 0 27.5016 0C33.5764 0 38.5016 4.92486 38.5016 11C38.5016 17.0751 33.5764 22 27.5016 22ZM38.2112 25.3306C36.3891 24.4196 34.2122 24.5903 32.5545 25.7745L27.0545 29.7031C25.3049 30.9529 24.4442 33.1077 24.8506 35.2191L30.619 65.1585L6.42508 101.449C4.74043 103.976 5.42297 107.391 7.95077 109.077C10.478 110.761 13.893 110.078 15.5776 107.551L41.0228 69.3836L45.508 62.6555C46.2931 61.4779 46.594 60.0429 46.348 58.6487L43.0672 40.057L52.8861 44.9664L56.0311 60.6837C56.6271 63.6625 59.5249 65.5935 62.5034 64.9979C65.4819 64.4017 67.4133 61.5037 66.8173 58.5255L63.1445 40.1708C62.8116 38.5068 61.729 37.0896 60.2111 36.3306L38.2112 25.3306ZM7.24073 60.2178L23.0505 54.9478L20.9517 44.0528L3.76198 49.7822C0.880531 50.743 -0.677072 53.8577 0.283778 56.7391C1.24408 59.6211 4.35873 61.1787 7.24073 60.2178ZM65.2952 101.803L47.3216 69.8505L45.5989 72.4344L40.4761 80.118L55.7079 107.197C57.1971 109.844 60.5505 110.783 63.1979 109.294C65.8454 107.804 66.7844 104.451 65.2952 101.803Z" fill="black"/>
</svg>
