<svg width="80" height="63" viewBox="0 0 80 63" fill="none" xmlns="http://www.w3.org/2000/svg">
<path d="M79.3975 30.1722L70.8663 10.2659C70.6486 9.75193 70.2844 9.31337 69.8192 9.0049C69.3539 8.69643 68.8082 8.5317 68.25 8.53125H59.7188V2.84375C59.7188 2.08954 59.4191 1.36622 58.8858 0.832916C58.3525 0.299609 57.6292 0 56.875 0H2.84375C2.08954 0 1.36622 0.299609 0.832915 0.832916C0.299608 1.36622 0 2.08954 0 2.84375V51.1875C0 51.9417 0.299608 52.665 0.832915 53.1983C1.36622 53.7316 2.08954 54.0312 2.84375 54.0312H8.92937C9.58424 56.441 11.0138 58.5682 12.9976 60.0848C14.9814 61.6015 17.4091 62.4232 19.9062 62.4232C22.4034 62.4232 24.8311 61.6015 26.8149 60.0848C28.7987 58.5682 30.2283 56.441 30.8831 54.0312H48.7419C49.3967 56.441 50.8263 58.5682 52.8101 60.0848C54.7939 61.6015 57.2216 62.4232 59.7188 62.4232C62.2159 62.4232 64.6436 61.6015 66.6274 60.0848C68.6112 58.5682 70.0408 56.441 70.6956 54.0312H76.7812C77.5355 54.0312 78.2588 53.7316 78.7921 53.1983C79.3254 52.665 79.625 51.9417 79.625 51.1875V31.2812C79.6243 30.9001 79.5469 30.5229 79.3975 30.1722ZM59.7188 14.2188H66.3731L72.4587 28.4375H59.7188V14.2188ZM19.9062 56.875C18.7814 56.875 17.6817 56.5414 16.7464 55.9165C15.8111 55.2915 15.0822 54.4033 14.6517 53.364C14.2212 52.3248 14.1086 51.1812 14.328 50.0779C14.5475 48.9747 15.0892 47.9612 15.8846 47.1658C16.68 46.3704 17.6934 45.8287 18.7967 45.6093C19.8999 45.3898 21.0435 45.5025 22.0828 45.9329C23.122 46.3634 24.0103 47.0924 24.6352 48.0277C25.2602 48.963 25.5938 50.0626 25.5938 51.1875C25.5938 52.6959 24.9945 54.1426 23.9279 55.2092C22.8613 56.2758 21.4147 56.875 19.9062 56.875ZM48.7419 48.3438H30.8831C30.2283 45.934 28.7987 43.8068 26.8149 42.2902C24.8311 40.7735 22.4034 39.9518 19.9062 39.9518C17.4091 39.9518 14.9814 40.7735 12.9976 42.2902C11.0138 43.8068 9.58424 45.934 8.92937 48.3438H5.6875V5.6875H54.0312V41.405C52.7363 42.1566 51.6025 43.1564 50.6948 44.3471C49.7872 45.5378 49.1235 46.896 48.7419 48.3438ZM59.7188 56.875C58.5939 56.875 57.4942 56.5414 56.5589 55.9165C55.6236 55.2915 54.8947 54.4033 54.4642 53.364C54.0337 52.3248 53.9211 51.1812 54.1405 50.0779C54.36 48.9747 54.9017 47.9612 55.6971 47.1658C56.4925 46.3704 57.5059 45.8287 58.6092 45.6093C59.7124 45.3898 60.856 45.5025 61.8953 45.9329C62.9345 46.3634 63.8228 47.0924 64.4477 48.0277C65.0727 48.963 65.4062 50.0626 65.4062 51.1875C65.4062 52.6959 64.807 54.1426 63.7404 55.2092C62.6738 56.2758 61.2272 56.875 59.7188 56.875ZM73.9375 48.3438H70.6956C70.0668 45.9081 68.6483 43.7497 66.6622 42.2061C64.676 40.6624 62.2342 39.8207 59.7188 39.8125V34.125H73.9375V48.3438Z" fill="black"/>
</svg>
