<svg width="35" height="61" viewBox="0 0 35 61" fill="none" xmlns="http://www.w3.org/2000/svg">
<path d="M34.1584 23.3396L30.1985 19.3796C30.235 19.1902 30.2548 18.995 30.2548 18.7951C30.2548 17.4414 29.3759 16.2899 28.1592 15.8788V12.4427H30.1893C30.8032 12.4427 31.3026 11.9433 31.3026 11.3294V4.12575C31.3027 1.85082 29.4519 0 27.177 0C24.9021 0 23.0512 1.85082 23.0512 4.12575V4.19124H20.8246V3.07794C20.8246 2.53544 20.3848 2.09562 19.8423 2.09562H14.6035C12.9063 2.09562 11.5256 3.47637 11.5256 5.17356C11.5256 5.45267 11.5636 5.72287 11.6335 5.98024L0.897266 20.8147C0.867534 20.8445 0.839504 20.8755 0.811214 20.9064C0.793663 20.9255 0.776767 20.9452 0.75974 20.9647C0.7101 21.0214 0.662162 21.0794 0.616976 21.1396C0.60545 21.1549 0.594448 21.1707 0.583315 21.1862C0.537866 21.2491 0.494383 21.313 0.453911 21.3791C0.425358 21.4255 0.397853 21.4725 0.371789 21.5204C0.35319 21.555 0.335377 21.5899 0.318088 21.6252C0.288488 21.6849 0.260721 21.7456 0.23505 21.8073C0.224965 21.8316 0.215403 21.8561 0.206104 21.8808C0.177289 21.9553 0.151225 22.0311 0.128173 22.1084C0.123982 22.1224 0.120052 22.1366 0.116123 22.1506C0.0918923 22.2364 0.071198 22.3236 0.054433 22.4121C0.0535162 22.4167 0.0520762 22.421 0.0512903 22.4256C0.0488017 22.439 0.0470986 22.4525 0.044872 22.4658C0.0401568 22.4932 0.0355729 22.5207 0.0316437 22.5485C0.0275834 22.5764 0.0243088 22.6041 0.0210344 22.632C0.0186769 22.6519 0.0163189 22.6717 0.0144852 22.6919C0.0105559 22.7316 0.00767442 22.7711 0.00544782 22.8108C0.00492391 22.8191 0.0044008 22.8272 0.00400787 22.8353C-0.0301769 23.5064 0.154761 24.1668 0.541927 24.73L10.5121 39.2321C10.4906 39.4022 10.4783 39.5751 10.4783 39.751C10.4783 40.1754 10.5429 40.5849 10.6623 40.9705L9.87699 41.4418C8.95518 41.9948 8.38269 43.006 8.38269 44.0811V46.1036H8.3172C7.77469 46.1036 7.33488 46.5434 7.33488 47.0859V54.4861H4.12596C3.58346 54.4861 3.14364 54.9259 3.14364 55.4684V58.6773H0.98253C0.440027 58.6773 0.000208651 59.1172 0.000208651 59.6597C0.000208651 60.2022 0.440027 60.642 0.98253 60.642H28.2256C28.7681 60.642 29.2079 60.2022 29.2079 59.6597C29.2079 59.1172 28.7681 58.6773 28.2256 58.6773H26.0645V55.4684C26.0645 54.9259 25.6247 54.4861 25.0822 54.4861H21.8732V47.0859C21.8732 46.5434 21.4334 46.1036 20.8909 46.1036H20.8254V44.0812C20.8254 43.0062 20.2528 41.9949 19.3311 41.4419L18.5458 40.9707C18.6654 40.5851 18.7298 40.1756 18.7298 39.7513C18.7298 37.8141 17.3874 36.1853 15.5843 35.7442L6.67816 22.7897L14.6033 8.2515H14.6035H19.8423C20.3848 8.2515 20.8246 7.81168 20.8246 7.26918V6.15588H23.0512V11.3294C23.0512 11.9433 23.5506 12.4427 24.1645 12.4427H26.1947V15.8788C24.9779 16.2898 24.099 17.4413 24.099 18.7951C24.099 18.995 24.1188 19.1902 24.1554 19.3796L20.1954 23.3396C19.9175 23.6175 19.8321 24.0341 19.978 24.3989L22.0736 29.6379C22.2249 30.0163 22.5899 30.2556 22.9851 30.2556C23.0467 30.2556 23.109 30.2497 23.1713 30.2378C23.6337 30.1488 23.9679 29.744 23.9679 29.2732V26.7368L27.1769 25.1324L30.3858 26.7368V29.2732C30.3858 29.744 30.7199 30.1488 31.1824 30.2378C31.2448 30.2497 31.3071 30.2556 31.3686 30.2556C31.7638 30.2556 32.1289 30.0162 32.2801 29.6379L34.3757 24.3989C34.5217 24.0341 34.4362 23.6174 34.1584 23.3396ZM2.15542 23.6094C2.15241 23.6049 2.14992 23.6002 2.14691 23.5958C2.13001 23.5701 2.11377 23.544 2.0991 23.517C2.09805 23.5151 2.09727 23.513 2.09609 23.511C2.02916 23.3863 1.98502 23.2475 1.96996 23.1001V23.0997C1.96629 23.0637 1.96459 23.0271 1.96446 22.9901C1.96446 22.9816 1.96525 22.973 1.96538 22.9644C1.9659 22.9366 1.96695 22.9088 1.96957 22.8815C1.97114 22.8652 1.97389 22.8488 1.97625 22.8324C1.979 22.8126 1.98149 22.7927 1.98528 22.7732C1.98869 22.7559 1.99314 22.7392 1.99733 22.7223C2.00205 22.7028 2.0065 22.6831 2.0124 22.664C2.01606 22.6519 2.02065 22.6402 2.02458 22.6282C2.0327 22.6043 2.04095 22.5803 2.05064 22.5571C2.05274 22.552 2.05536 22.547 2.05758 22.5419C2.12818 22.3806 2.23558 22.2387 2.3697 22.1279C2.37009 22.1276 2.37049 22.1274 2.37088 22.1271C2.39786 22.1049 2.42602 22.0838 2.4551 22.0641C2.45693 22.0628 2.45903 22.0618 2.46086 22.0605C2.63755 21.9424 2.8496 21.8733 3.07763 21.8733C3.11509 21.8733 3.15202 21.8753 3.18843 21.8789C3.1938 21.8794 3.1993 21.8805 3.20467 21.8811C3.23545 21.8847 3.26597 21.8891 3.29583 21.895C3.30513 21.897 3.3143 21.8995 3.32347 21.9016C3.35058 21.9077 3.37769 21.9143 3.40402 21.9224C3.41031 21.9244 3.41633 21.9267 3.42249 21.9287C3.45209 21.9384 3.48156 21.9487 3.51011 21.9608C3.51076 21.961 3.51129 21.9613 3.51194 21.9616C3.91063 22.131 4.19092 22.5267 4.19092 22.9866C4.19092 23.6005 3.69151 24.0999 3.07763 24.0999C2.69439 24.0996 2.35582 23.905 2.15542 23.6094ZM5.38032 20.947C5.34875 20.9114 5.31627 20.8764 5.283 20.8424C5.24188 20.7999 5.19983 20.7587 5.15648 20.7189C5.13906 20.7029 5.12125 20.6876 5.10357 20.6721C5.04476 20.6205 4.98464 20.5709 4.9223 20.5241C4.91182 20.5162 4.90108 20.5089 4.8906 20.5012C4.82262 20.4515 4.7532 20.4043 4.68143 20.3605C4.64594 20.3386 4.60966 20.3179 4.57324 20.2976C4.5274 20.2721 4.48117 20.2475 4.43402 20.2243C4.37704 20.1963 4.31915 20.1697 4.26021 20.1451C4.23271 20.1337 4.20494 20.1228 4.17691 20.1122C4.10579 20.0849 4.03362 20.0601 3.96014 20.038C3.94194 20.0325 3.9236 20.0274 3.90513 20.0223C3.90265 20.0217 3.90016 20.0209 3.89767 20.0202L12.2156 8.52707L5.42092 20.9906C5.40796 20.9754 5.39342 20.962 5.38032 20.947ZM3.78542 25.9812C4.54286 25.8022 5.19315 25.3431 5.61987 24.7191L13.2707 35.8477C12.5486 36.0949 11.9162 36.5363 11.4367 37.1104L3.78542 25.9812ZM24.0993 58.6773H5.10776V56.4507H24.0993V58.6773ZM9.299 54.4861V48.0683H19.9081V54.4861H9.299ZM18.3197 43.1267C18.6532 43.3267 18.8603 43.6925 18.8603 44.0813V46.1036H10.3468V44.0812C10.3468 43.6925 10.5539 43.3267 10.8873 43.1265L11.6749 42.654C12.4229 43.4087 13.4595 43.877 14.6035 43.877C15.7476 43.877 16.784 43.4087 17.5322 42.654L18.3197 43.1267ZM16.7646 39.7513C16.7646 40.9429 15.7952 41.9124 14.6035 41.9124C13.4119 41.9124 12.4424 40.9429 12.4424 39.7513C12.4424 38.5597 13.4119 37.5902 14.6035 37.5902C15.7952 37.5902 16.7646 38.5597 16.7646 39.7513ZM18.86 6.28686H14.6035C13.9896 6.28686 13.4902 5.78745 13.4902 5.17356C13.4902 4.55967 13.9896 4.06026 14.6035 4.06026H18.86V6.28686ZM25.0159 4.12575C25.0159 2.93413 25.9854 1.96464 27.177 1.96464C28.3686 1.96464 29.3381 2.93413 29.3381 4.12575V6.28686H25.0159V4.12575ZM25.0159 8.2515H29.3381V10.4781H25.0159V8.2515ZM27.177 17.6818C27.7909 17.6818 28.2903 18.1812 28.2903 18.7951C28.2903 19.409 27.7909 19.9084 27.177 19.9084C26.5631 19.9084 26.0637 19.409 26.0637 18.7951C26.0637 18.1812 26.5631 17.6818 27.177 17.6818ZM22.5465 25.2512C22.515 25.2669 22.4848 25.284 22.4556 25.3028L22.0427 24.2708L25.1795 21.1341C25.475 21.3868 25.8185 21.5844 26.1947 21.7114V23.4271L22.5465 25.2512ZM31.8984 25.3028C31.8692 25.284 31.839 25.2669 31.8075 25.2512L28.1593 23.4271V21.7114C28.5353 21.5844 28.879 21.3867 29.1745 21.1341L32.3113 24.2708L31.8984 25.3028Z" fill="black" fill-opacity="0.5"/>
</svg>
