<svg width="15" height="16" viewBox="0 0 15 16" fill="none" xmlns="http://www.w3.org/2000/svg">
<path d="M12.2698 15.0326C13.2357 15.0326 13.9952 14.2071 13.915 13.2446L13.3647 6.64105C13.2934 5.78539 12.5781 5.12725 11.7195 5.12725H10.7622M10.7622 5.12725H7.46041M10.7622 5.12725V4.3018C10.7622 3.4261 10.4144 2.58628 9.79511 1.96707C9.17594 1.34787 8.33613 1 7.46041 1C6.58469 1 5.74489 1.34787 5.12568 1.96707C4.50648 2.58628 4.15861 3.4261 4.15861 4.3018V5.12725M10.7622 5.12725V8.42904M4.15861 5.12725H3.20131C2.3427 5.12725 1.62742 5.78539 1.55612 6.64105L1.00582 13.2446C0.925608 14.2071 1.68517 15.0326 2.65101 15.0326H8.28586M4.15861 5.12725V8.42904" stroke="#FF0000" stroke-width="1.3" stroke-linecap="round" stroke-linejoin="round"/>
</svg>
