<svg width="12" height="12" viewBox="0 0 12 12" fill="none" xmlns="http://www.w3.org/2000/svg">
<path d="M2.92898 7.41946L3.02515 7.51126L3.00281 7.64231L2.40342 11.1587C2.38684 11.2792 2.41882 11.3188 2.44985 11.343C2.49284 11.3764 2.53988 11.3914 2.6202 11.3684L5.88026 9.6589L5.99636 9.59802L6.11247 9.6589L9.37253 11.3684C9.45284 11.3914 9.49989 11.3764 9.54288 11.343C9.57391 11.3188 9.60589 11.2792 9.5893 11.1587L8.98992 7.64231L8.96758 7.51126L9.06374 7.41946L11.6902 4.9124C11.7424 4.84213 11.7531 4.77791 11.7338 4.70094C11.7231 4.65801 11.7088 4.64059 11.7008 4.63307C11.6931 4.62593 11.6767 4.6142 11.6378 4.60734L7.96138 4.08784L7.83222 4.06959L7.77331 3.95321L6.13331 0.713209L6.13276 0.712108C6.10758 0.661764 6.08375 0.639027 6.06769 0.628316C6.05319 0.618649 6.03262 0.610304 5.99636 0.610304C5.96011 0.610304 5.93954 0.618649 5.92504 0.628316C5.90897 0.639027 5.88514 0.661764 5.85997 0.712109L5.85942 0.713208L4.21942 3.95321L4.16061 4.06938L4.03172 4.08779L0.391719 4.60779C0.331092 4.61645 0.302801 4.63298 0.29029 4.64329C0.279979 4.65178 0.267594 4.66616 0.258899 4.70094L0.0163636 4.6403L0.258899 4.70094C0.239657 4.77791 0.250362 4.84213 0.30253 4.9124L2.92898 7.41946Z" stroke="#ff0000" stroke-width="0.5"/>
</svg>
