<svg width="13" height="13" viewBox="0 0 13 13" fill="none" xmlns="http://www.w3.org/2000/svg">
<path d="M11.7812 0H0.8125C0.363391 0 0 0.363391 0 0.8125V4.875C0 5.32594 0.245375 5.71838 0.609375 5.92922V12.1875C0.609375 12.6366 0.972766 13 1.42188 13H11.1719C11.621 13 11.9844 12.6366 11.9844 12.1875V5.92922C12.3484 5.71838 12.5938 5.32573 12.5938 4.875V0.8125C12.5938 0.363391 12.2304 0 11.7812 0ZM10.1562 0.40625V4.875C10.1562 5.3237 9.79245 5.6875 9.34375 5.6875C8.89505 5.6875 8.53125 5.3237 8.53125 4.875V0.40625H10.1562ZM8.125 0.40625V4.875C8.125 5.3237 7.7612 5.6875 7.3125 5.6875C6.8638 5.6875 6.5 5.3237 6.5 4.875V0.40625H8.125ZM6.09375 0.40625V4.875C6.09375 5.3237 5.72995 5.6875 5.28125 5.6875C4.83255 5.6875 4.46875 5.3237 4.46875 4.875V0.40625H6.09375ZM4.0625 0.40625V4.875C4.0625 5.3237 3.6987 5.6875 3.25 5.6875C2.8013 5.6875 2.4375 5.3237 2.4375 4.875V0.40625H4.0625ZM0.40625 0.8125C0.40625 0.58825 0.58825 0.40625 0.8125 0.40625H2.03125V4.875C2.03125 5.3237 1.66745 5.6875 1.21875 5.6875C0.770047 5.6875 0.40625 5.3237 0.40625 4.875V0.8125ZM2.23438 12.5938V7.71875H4.67188V9.75H4.46875C4.35642 9.75 4.26562 9.8408 4.26562 9.95312C4.26562 10.0655 4.35642 10.1562 4.46875 10.1562H4.67188V12.5938H2.23438ZM11.5781 12.1875C11.5781 12.4117 11.3961 12.5938 11.1719 12.5938H5.07812V7.51562C5.07812 7.41081 4.98733 7.3125 4.875 7.3125H2.03125C1.91892 7.3125 1.82812 7.4033 1.82812 7.51562V12.5938H1.42188C1.19763 12.5938 1.01562 12.4117 1.01562 12.1875V6.07547C1.08184 6.08664 1.14928 6.09375 1.21875 6.09375C1.64288 6.09375 2.01622 5.87681 2.23438 5.54795C2.45253 5.87681 2.82587 6.09375 3.25 6.09375C3.67413 6.09375 4.04747 5.87681 4.26562 5.54795C4.48378 5.87681 4.85712 6.09375 5.28125 6.09375C5.70538 6.09375 6.07872 5.87681 6.29688 5.54795C6.51503 5.87681 6.88837 6.09375 7.3125 6.09375C7.73663 6.09375 8.10997 5.87681 8.32812 5.54795C8.54628 5.87681 8.91962 6.09375 9.34375 6.09375C9.76788 6.09375 10.1412 5.87681 10.3594 5.54795C10.5775 5.87681 10.9509 6.09375 11.375 6.09375C11.4445 6.09375 11.5119 6.08664 11.5781 6.07547V12.1875ZM11.375 5.6875C10.9263 5.6875 10.5625 5.3237 10.5625 4.875V0.40625H11.7812C12.0055 0.40625 12.1875 0.58825 12.1875 0.8125V4.875C12.1875 5.3237 11.8237 5.6875 11.375 5.6875Z" fill="#FF0000"/>
<path d="M10.5625 7.3125H5.6875C5.57517 7.3125 5.48438 7.4033 5.48438 7.51562V11.5781C5.48438 11.6905 5.57517 11.7812 5.6875 11.7812H10.5625C10.6748 11.7812 10.7656 11.6905 10.7656 11.5781V7.51562C10.7656 7.4033 10.6748 7.3125 10.5625 7.3125ZM10.3594 11.375H5.89062V7.71875H10.3594V11.375Z" fill="#FF0000"/>
<path d="M9.60644 8.67485C9.64605 8.71446 9.69805 8.73436 9.75005 8.73436C9.80205 8.73436 9.85405 8.71446 9.89366 8.67485C9.97308 8.59543 9.97308 8.46705 9.89366 8.38763L9.69054 8.18451C9.61111 8.10508 9.48274 8.10508 9.40332 8.18451C9.32389 8.26393 9.32389 8.3923 9.40332 8.47172L9.60644 8.67485Z" fill="#FF0000"/>
<path d="M9.60644 9.69047C9.64605 9.73008 9.69805 9.74999 9.75005 9.74999C9.80205 9.74999 9.85405 9.73008 9.89366 9.69047C9.97308 9.61105 9.97308 9.48268 9.89366 9.40326L8.67491 8.18451C8.59549 8.10508 8.46711 8.10508 8.38769 8.18451C8.30827 8.26393 8.30827 8.3923 8.38769 8.47172L9.60644 9.69047Z" fill="#FF0000"/>
</svg>
